<?xml version="1.0" encoding="utf-8"?>
<!-- Generator: Adobe Illustrator 16.0.0, SVG Export Plug-In . SVG Version: 6.00 Build 0)  -->
<!DOCTYPE svg PUBLIC "-//W3C//DTD SVG 1.1//EN" "http://www.w3.org/Graphics/SVG/1.1/DTD/svg11.dtd">
<svg version="1.1" id="Layer_1" xmlns="http://www.w3.org/2000/svg" xmlns:xlink="http://www.w3.org/1999/xlink" x="0px" y="0px"
	 width="950px" height="440px" viewBox="0 0 950 440" enable-background="new 0 0 950 440" xml:space="preserve">
<path fill="none" stroke="#FFFFFF" stroke-width="1.68" stroke-miterlimit="10" d="M422.1,158.83
	c-20.8-71.9-78.11-128.4-156.22-146.4c-114.61-26.5-229.02,45.1-255.52,159.8c-26.5,114.8,44.9,229.3,159.61,255.8
	c114.72,26.5,228.53-42.4,255.03-157.2"/>
<path fill-rule="evenodd" clip-rule="evenodd" fill="#FFFFFF" d="M421.48,161.39c1.5,0.3,2.91-0.6,3.3-2c0.31-1.5-0.59-2.9-2-3.3
	c-1.5-0.3-2.89,0.6-3.3,2C419.09,159.59,419.98,161.09,421.48,161.39"/>
<path fill-rule="evenodd" clip-rule="evenodd" fill="#FFFFFF" d="M424.36,273.35c1.5,0.301,2.91-0.6,3.3-2
	c0.31-1.5-0.59-2.899-2-3.3c-1.5-0.3-2.89,0.601-3.3,2C421.97,271.55,422.86,273.05,424.36,273.35"/>
<path fill="none" stroke="#FFFFFF" stroke-width="1.68" stroke-miterlimit="10" d="M524.08,271.36
	c17,72.899,71.3,132.3,148.31,154.399c113.11,32.4,231.12-33,263.62-146.3c32.41-113.3-33-231.3-146.109-263.8
	c-113.11-32.4-230.42,30.4-262.82,143.7"/>
<path fill-rule="evenodd" clip-rule="evenodd" fill="#FFFFFF" d="M524.82,268.69c-1.42-0.4-3.03,0.399-3.44,1.89
	c-0.399,1.49,0.41,2.979,1.92,3.38c1.42,0.39,3.04-0.4,3.44-1.89C527.15,270.58,526.34,269.18,524.82,268.69"/>
<path fill-rule="evenodd" clip-rule="evenodd" fill="#FFFFFF" d="M527.82,156.85c-1.42-0.4-3.03,0.4-3.44,1.89
	c-0.399,1.49,0.41,2.88,1.92,3.38c1.42,0.39,3.04-0.4,3.44-1.89C530.15,158.74,529.34,157.25,527.82,156.85"/>
</svg>
