<?xml version="1.0" encoding="utf-8"?>
<!-- Generator: Adobe Illustrator 16.0.0, SVG Export Plug-In . SVG Version: 6.00 Build 0)  -->
<!DOCTYPE svg PUBLIC "-//W3C//DTD SVG 1.1//EN" "http://www.w3.org/Graphics/SVG/1.1/DTD/svg11.dtd">
<svg version="1.1" id="Layer_1" xmlns="http://www.w3.org/2000/svg" xmlns:xlink="http://www.w3.org/1999/xlink" x="0px" y="0px"
	 width="118px" height="117px" viewBox="0 0 118 117" enable-background="new 0 0 118 117" xml:space="preserve">
<g>
	<defs>
		<rect id="SVGID_1_" x="-266.333" y="-183.667" width="1365.96" height="768"/>
	</defs>
	<clipPath id="SVGID_2_">
		<use xlink:href="#SVGID_1_"  overflow="visible"/>
	</clipPath>
</g>
<g>
	<defs>
		<rect id="SVGID_3_" x="-266.333" y="-183.667" width="1365.96" height="768"/>
	</defs>
	<clipPath id="SVGID_4_">
		<use xlink:href="#SVGID_3_"  overflow="visible"/>
	</clipPath>
</g>
<g>
	<defs>
		<rect id="SVGID_5_" x="-266.333" y="-183.667" width="1365.96" height="768"/>
	</defs>
	<clipPath id="SVGID_6_">
		<use xlink:href="#SVGID_5_"  overflow="visible"/>
	</clipPath>
</g>
<g>
	<defs>
		<rect id="SVGID_7_" x="-266.333" y="-183.667" width="1365.96" height="768"/>
	</defs>
	<clipPath id="SVGID_8_">
		<use xlink:href="#SVGID_7_"  overflow="visible"/>
	</clipPath>
</g>
<g>
	<defs>
		<rect id="SVGID_9_" x="-266.333" y="-183.667" width="1365.96" height="768"/>
	</defs>
	<clipPath id="SVGID_10_">
		<use xlink:href="#SVGID_9_"  overflow="visible"/>
	</clipPath>
</g>
<g>
	<defs>
		<rect id="SVGID_11_" x="-266.333" y="-183.667" width="1365.96" height="768"/>
	</defs>
	<clipPath id="SVGID_12_">
		<use xlink:href="#SVGID_11_"  overflow="visible"/>
	</clipPath>
</g>
<g>
	<defs>
		<rect id="SVGID_13_" x="-266.333" y="-183.667" width="1365.96" height="768"/>
	</defs>
	<clipPath id="SVGID_14_">
		<use xlink:href="#SVGID_13_"  overflow="visible"/>
	</clipPath>
</g>
<g>
	<defs>
		<rect id="SVGID_15_" x="-266.333" y="-183.667" width="1365.96" height="768"/>
	</defs>
	<clipPath id="SVGID_16_">
		<use xlink:href="#SVGID_15_"  overflow="visible"/>
	</clipPath>
</g>
<g>
	<defs>
		<rect id="SVGID_17_" x="-266.333" y="-183.667" width="1365.96" height="768"/>
	</defs>
	<clipPath id="SVGID_18_">
		<use xlink:href="#SVGID_17_"  overflow="visible"/>
	</clipPath>
</g>
<g>
	<defs>
		<rect id="SVGID_19_" x="-266.333" y="-183.667" width="1365.96" height="768"/>
	</defs>
	<clipPath id="SVGID_20_">
		<use xlink:href="#SVGID_19_"  overflow="visible"/>
	</clipPath>
</g>
<g>
	<defs>
		<rect id="SVGID_21_" x="-266.333" y="-183.667" width="1365.96" height="768"/>
	</defs>
	<clipPath id="SVGID_22_">
		<use xlink:href="#SVGID_21_"  overflow="visible"/>
	</clipPath>
</g>
<g>
	<defs>
		<rect id="SVGID_23_" x="-266.333" y="-183.667" width="1365.96" height="768"/>
	</defs>
	<clipPath id="SVGID_24_">
		<use xlink:href="#SVGID_23_"  overflow="visible"/>
	</clipPath>
</g>
<g>
	<defs>
		<rect id="SVGID_25_" x="-266.333" y="-183.667" width="1365.96" height="768"/>
	</defs>
	<clipPath id="SVGID_26_">
		<use xlink:href="#SVGID_25_"  overflow="visible"/>
	</clipPath>
</g>
<g>
	<defs>
		<rect id="SVGID_27_" x="-266.333" y="-183.667" width="1365.96" height="768"/>
	</defs>
	<clipPath id="SVGID_28_">
		<use xlink:href="#SVGID_27_"  overflow="visible"/>
	</clipPath>
</g>
<g>
	<defs>
		<rect id="SVGID_29_" x="-266.333" y="-183.667" width="1365.96" height="768"/>
	</defs>
	<clipPath id="SVGID_30_">
		<use xlink:href="#SVGID_29_"  overflow="visible"/>
	</clipPath>
</g>
<g>
	<defs>
		<rect id="SVGID_31_" x="-266.333" y="-183.667" width="1365.96" height="768"/>
	</defs>
	<clipPath id="SVGID_32_">
		<use xlink:href="#SVGID_31_"  overflow="visible"/>
	</clipPath>
</g>
<g>
	<defs>
		<rect id="SVGID_33_" x="-266.333" y="-183.667" width="1365.96" height="768"/>
	</defs>
	<clipPath id="SVGID_34_">
		<use xlink:href="#SVGID_33_"  overflow="visible"/>
	</clipPath>
</g>
<g>
	<defs>
		<rect id="SVGID_35_" x="-266.333" y="-183.667" width="1365.96" height="768"/>
	</defs>
	<clipPath id="SVGID_36_">
		<use xlink:href="#SVGID_35_"  overflow="visible"/>
	</clipPath>
</g>
<g>
	<defs>
		<rect id="SVGID_37_" x="-266.333" y="-183.667" width="1365.96" height="768"/>
	</defs>
	<clipPath id="SVGID_38_">
		<use xlink:href="#SVGID_37_"  overflow="visible"/>
	</clipPath>
</g>
<g>
	<defs>
		<rect id="SVGID_39_" x="-266.333" y="-183.667" width="1365.96" height="768"/>
	</defs>
	<clipPath id="SVGID_40_">
		<use xlink:href="#SVGID_39_"  overflow="visible"/>
	</clipPath>
</g>
<g>
	<defs>
		<rect id="SVGID_41_" x="-266.333" y="-183.667" width="1365.96" height="768"/>
	</defs>
	<clipPath id="SVGID_42_">
		<use xlink:href="#SVGID_41_"  overflow="visible"/>
	</clipPath>
</g>
<g>
	<defs>
		<rect id="SVGID_43_" x="-266.333" y="-183.667" width="1365.96" height="768"/>
	</defs>
	<clipPath id="SVGID_44_">
		<use xlink:href="#SVGID_43_"  overflow="visible"/>
	</clipPath>
</g>
<g>
	<defs>
		<rect id="SVGID_45_" x="-266.333" y="-183.667" width="1365.96" height="768"/>
	</defs>
	<clipPath id="SVGID_46_">
		<use xlink:href="#SVGID_45_"  overflow="visible"/>
	</clipPath>
</g>
<g>
	<defs>
		<rect id="SVGID_47_" x="-266.333" y="-183.667" width="1365.96" height="768"/>
	</defs>
	<clipPath id="SVGID_48_">
		<use xlink:href="#SVGID_47_"  overflow="visible"/>
	</clipPath>
</g>
<g>
	<defs>
		<rect id="SVGID_49_" x="-266.333" y="-183.667" width="1365.96" height="768"/>
	</defs>
	<clipPath id="SVGID_50_">
		<use xlink:href="#SVGID_49_"  overflow="visible"/>
	</clipPath>
</g>
<g>
	<defs>
		<rect id="SVGID_51_" x="-266.333" y="-183.667" width="1365.96" height="768"/>
	</defs>
	<clipPath id="SVGID_52_">
		<use xlink:href="#SVGID_51_"  overflow="visible"/>
	</clipPath>
</g>
<g>
	<defs>
		<rect id="SVGID_53_" x="-266.333" y="-183.667" width="1365.96" height="768"/>
	</defs>
	<clipPath id="SVGID_54_">
		<use xlink:href="#SVGID_53_"  overflow="visible"/>
	</clipPath>
</g>
<g>
	<defs>
		<rect id="SVGID_55_" x="-266.333" y="-183.667" width="1365.96" height="768"/>
	</defs>
	<clipPath id="SVGID_56_">
		<use xlink:href="#SVGID_55_"  overflow="visible"/>
	</clipPath>
</g>
<g>
	<defs>
		<rect id="SVGID_57_" x="-266.333" y="-183.667" width="1365.96" height="768"/>
	</defs>
	<clipPath id="SVGID_58_">
		<use xlink:href="#SVGID_57_"  overflow="visible"/>
	</clipPath>
</g>
<g>
	<defs>
		<rect id="SVGID_59_" x="-266.333" y="-183.667" width="1365.96" height="768"/>
	</defs>
	<clipPath id="SVGID_60_">
		<use xlink:href="#SVGID_59_"  overflow="visible"/>
	</clipPath>
</g>
<g>
	<defs>
		<rect id="SVGID_61_" x="-266.333" y="-183.667" width="1365.96" height="768"/>
	</defs>
	<clipPath id="SVGID_62_">
		<use xlink:href="#SVGID_61_"  overflow="visible"/>
	</clipPath>
</g>
<g>
	<defs>
		<rect id="SVGID_63_" x="-266.333" y="-183.667" width="1365.96" height="768"/>
	</defs>
	<clipPath id="SVGID_64_">
		<use xlink:href="#SVGID_63_"  overflow="visible"/>
	</clipPath>
</g>
<g>
	<defs>
		<rect id="SVGID_65_" x="-266.333" y="-183.667" width="1365.96" height="768"/>
	</defs>
	<clipPath id="SVGID_66_">
		<use xlink:href="#SVGID_65_"  overflow="visible"/>
	</clipPath>
</g>
<g>
	<defs>
		<rect id="SVGID_67_" x="-266.333" y="-183.667" width="1365.96" height="768"/>
	</defs>
	<clipPath id="SVGID_68_">
		<use xlink:href="#SVGID_67_"  overflow="visible"/>
	</clipPath>
</g>
<g>
	<defs>
		<rect id="SVGID_69_" x="-266.333" y="-183.667" width="1365.96" height="768"/>
	</defs>
	<clipPath id="SVGID_70_">
		<use xlink:href="#SVGID_69_"  overflow="visible"/>
	</clipPath>
</g>
<g>
	<defs>
		<rect id="SVGID_71_" x="-266.333" y="-183.667" width="1365.96" height="768"/>
	</defs>
	<clipPath id="SVGID_72_">
		<use xlink:href="#SVGID_71_"  overflow="visible"/>
	</clipPath>
</g>
<g>
	<defs>
		<rect id="SVGID_73_" x="-266.333" y="-183.667" width="1365.96" height="768"/>
	</defs>
	<clipPath id="SVGID_74_">
		<use xlink:href="#SVGID_73_"  overflow="visible"/>
	</clipPath>
</g>
<g>
	<defs>
		<rect id="SVGID_75_" x="-266.333" y="-183.667" width="1365.96" height="768"/>
	</defs>
	<clipPath id="SVGID_76_">
		<use xlink:href="#SVGID_75_"  overflow="visible"/>
	</clipPath>
</g>
<g>
	<defs>
		<rect id="SVGID_77_" x="-266.333" y="-183.667" width="1365.96" height="768"/>
	</defs>
	<clipPath id="SVGID_78_">
		<use xlink:href="#SVGID_77_"  overflow="visible"/>
	</clipPath>
</g>
<g>
	<defs>
		<rect id="SVGID_79_" x="-266.333" y="-183.667" width="1365.96" height="768"/>
	</defs>
	<clipPath id="SVGID_80_">
		<use xlink:href="#SVGID_79_"  overflow="visible"/>
	</clipPath>
</g>
<g>
	<defs>
		<rect id="SVGID_81_" x="-266.333" y="-183.667" width="1365.96" height="768"/>
	</defs>
	<clipPath id="SVGID_82_">
		<use xlink:href="#SVGID_81_"  overflow="visible"/>
	</clipPath>
</g>
<g>
	<defs>
		<rect id="SVGID_83_" x="-266.333" y="-183.667" width="1365.96" height="768"/>
	</defs>
	<clipPath id="SVGID_84_">
		<use xlink:href="#SVGID_83_"  overflow="visible"/>
	</clipPath>
</g>
<g>
	<defs>
		<rect id="SVGID_85_" x="-266.333" y="-183.667" width="1365.96" height="768"/>
	</defs>
	<clipPath id="SVGID_86_">
		<use xlink:href="#SVGID_85_"  overflow="visible"/>
	</clipPath>
</g>
<g>
	<defs>
		<rect id="SVGID_87_" x="-266.333" y="-183.667" width="1365.96" height="768"/>
	</defs>
	<clipPath id="SVGID_88_">
		<use xlink:href="#SVGID_87_"  overflow="visible"/>
	</clipPath>
</g>
<g>
	<defs>
		<rect id="SVGID_89_" x="-266.333" y="-183.667" width="1365.96" height="768"/>
	</defs>
	<clipPath id="SVGID_90_">
		<use xlink:href="#SVGID_89_"  overflow="visible"/>
	</clipPath>
</g>
<g>
	<defs>
		<rect id="SVGID_91_" x="-266.333" y="-183.667" width="1365.96" height="768"/>
	</defs>
	<clipPath id="SVGID_92_">
		<use xlink:href="#SVGID_91_"  overflow="visible"/>
	</clipPath>
</g>
<g>
	<defs>
		<rect id="SVGID_93_" x="-266.333" y="-183.667" width="1365.96" height="768"/>
	</defs>
	<clipPath id="SVGID_94_">
		<use xlink:href="#SVGID_93_"  overflow="visible"/>
	</clipPath>
</g>
<g>
	<defs>
		<rect id="SVGID_95_" x="-266.333" y="-183.667" width="1365.96" height="768"/>
	</defs>
	<clipPath id="SVGID_96_">
		<use xlink:href="#SVGID_95_"  overflow="visible"/>
	</clipPath>
</g>
<g>
	<defs>
		<rect id="SVGID_97_" x="-266.333" y="-183.667" width="1365.96" height="768"/>
	</defs>
	<clipPath id="SVGID_98_">
		<use xlink:href="#SVGID_97_"  overflow="visible"/>
	</clipPath>
</g>
<g>
	<defs>
		<rect id="SVGID_99_" x="-266.333" y="-183.667" width="1365.96" height="768"/>
	</defs>
	<clipPath id="SVGID_100_">
		<use xlink:href="#SVGID_99_"  overflow="visible"/>
	</clipPath>
</g>
<g>
	<defs>
		<rect id="SVGID_101_" x="-266.333" y="-183.667" width="1365.96" height="768"/>
	</defs>
	<clipPath id="SVGID_102_">
		<use xlink:href="#SVGID_101_"  overflow="visible"/>
	</clipPath>
</g>
<g>
	<defs>
		<rect id="SVGID_103_" x="-266.333" y="-183.667" width="1365.96" height="768"/>
	</defs>
	<clipPath id="SVGID_104_">
		<use xlink:href="#SVGID_103_"  overflow="visible"/>
	</clipPath>
</g>
<g>
	<defs>
		<rect id="SVGID_105_" x="-266.333" y="-183.667" width="1365.96" height="768"/>
	</defs>
	<clipPath id="SVGID_106_">
		<use xlink:href="#SVGID_105_"  overflow="visible"/>
	</clipPath>
</g>
<g>
	<defs>
		<rect id="SVGID_107_" x="-266.333" y="-183.667" width="1365.96" height="768"/>
	</defs>
	<clipPath id="SVGID_108_">
		<use xlink:href="#SVGID_107_"  overflow="visible"/>
	</clipPath>
</g>
<g>
	<defs>
		<rect id="SVGID_109_" x="-266.333" y="-183.667" width="1365.96" height="768"/>
	</defs>
	<clipPath id="SVGID_110_">
		<use xlink:href="#SVGID_109_"  overflow="visible"/>
	</clipPath>
</g>
<g>
	<defs>
		<rect id="SVGID_111_" x="-266.333" y="-183.667" width="1365.96" height="768"/>
	</defs>
	<clipPath id="SVGID_112_">
		<use xlink:href="#SVGID_111_"  overflow="visible"/>
	</clipPath>
</g>
<g>
	<defs>
		<rect id="SVGID_113_" x="-266.333" y="-183.667" width="1365.96" height="768"/>
	</defs>
	<clipPath id="SVGID_114_">
		<use xlink:href="#SVGID_113_"  overflow="visible"/>
	</clipPath>
</g>
<g>
	<defs>
		<rect id="SVGID_115_" x="-266.333" y="-183.667" width="1365.96" height="768"/>
	</defs>
	<clipPath id="SVGID_116_">
		<use xlink:href="#SVGID_115_"  overflow="visible"/>
	</clipPath>
</g>
<g>
	<defs>
		<rect id="SVGID_117_" x="-266.333" y="-183.667" width="1365.96" height="768"/>
	</defs>
	<clipPath id="SVGID_118_">
		<use xlink:href="#SVGID_117_"  overflow="visible"/>
	</clipPath>
</g>
<g>
	<defs>
		<rect id="SVGID_119_" x="-266.333" y="-183.667" width="1365.96" height="768"/>
	</defs>
	<clipPath id="SVGID_120_">
		<use xlink:href="#SVGID_119_"  overflow="visible"/>
	</clipPath>
</g>
<g>
	<defs>
		<rect id="SVGID_121_" x="-266.333" y="-183.667" width="1365.96" height="768"/>
	</defs>
	<clipPath id="SVGID_122_">
		<use xlink:href="#SVGID_121_"  overflow="visible"/>
	</clipPath>
</g>
<g>
	<defs>
		<rect id="SVGID_123_" x="-266.333" y="-183.667" width="1365.96" height="768"/>
	</defs>
	<clipPath id="SVGID_124_">
		<use xlink:href="#SVGID_123_"  overflow="visible"/>
	</clipPath>
	<g clip-path="url(#SVGID_124_)">
		<defs>
			<rect id="SVGID_125_" x="3.666" y="2.208" width="111.719" height="111.725"/>
		</defs>
		<clipPath id="SVGID_126_">
			<use xlink:href="#SVGID_125_"  overflow="visible"/>
		</clipPath>
		<path clip-path="url(#SVGID_126_)" fill="#8042FF" d="M59.536,113.272c30.49,0,55.194-24.706,55.194-55.193
			c0-30.487-24.704-55.19-55.194-55.191c-30.487,0-55.193,24.704-55.193,55.191S29.048,113.272,59.536,113.272"/>
		<path clip-path="url(#SVGID_126_)" fill="#FFFFFF" d="M113.83,52.487l0.006,0.065l-0.843-5.48l0.012,0.056l-1.356-5.293
			l0.019,0.063l-1.875-5.062l0.019,0.05l-2.293-4.825l0.031,0.057l-2.769-4.543l0.038,0.05l-3.187-4.269l0.038,0.05l-3.563-3.893
			l0.044,0.043l-3.937-3.562l0.043,0.038l-4.218-3.187l0.05,0.038l-4.543-2.769l0.056,0.031l-4.824-2.293l0.05,0.019l-5.105-1.875
			l0.056,0.019l-5.25-1.356L70.59,4.67l-5.48-0.844l0.065,0.006l-5.671-0.281h0.064l-5.625,0.281l0.065-0.006L48.524,4.67
			l0.062-0.013L43.29,6.014l0.063-0.019L38.291,7.87l0.052-0.019l-4.828,2.293l0.058-0.031l-4.546,2.769l0.05-0.038l-4.265,3.187
			l0.049-0.038l-3.89,3.562l0.04-0.043l-3.562,3.893l0.041-0.05l-3.187,4.268l0.034-0.05l-2.765,4.543l0.03-0.057l-2.296,4.825
			l0.022-0.05l-1.875,5.062l0.02-0.063l-1.359,5.293l0.013-0.056l-0.844,5.48l0.006-0.065l-0.281,5.625v-0.064l0.281,5.671
			l-0.006-0.066l0.844,5.484l-0.013-0.063l1.359,5.25l-0.019-0.06l1.875,5.109l-0.023-0.054l2.296,4.828l-0.03-0.058l2.765,4.546
			L14.3,88.582l3.187,4.218l-0.036-0.043l3.562,3.937l-0.042-0.042l3.89,3.562l-0.049-0.041l4.265,3.187l-0.05-0.034l4.546,2.765
			l-0.058-0.031l4.828,2.297l-0.052-0.022l5.062,1.875l-0.063-0.02l5.296,1.359l-0.062-0.013l5.484,0.844l-0.065-0.007l5.625,0.281
			h-0.064l5.671-0.281l-0.065,0.007l5.48-0.844l-0.063,0.013l5.25-1.359l-0.056,0.019l5.105-1.875l-0.05,0.023l4.824-2.297
			l-0.056,0.031l4.543-2.765l-0.05,0.036l4.218-3.187l-0.043,0.036l3.937-3.562l-0.044,0.045l3.563-3.937l-0.038,0.043l3.187-4.218
			l-0.038,0.053l2.769-4.546l-0.031,0.058l2.293-4.828l-0.019,0.054l1.875-5.109l-0.019,0.06l1.356-5.25l-0.012,0.063l0.843-5.484
			l-0.006,0.066l0.281-5.671v0.064L113.83,52.487z M115.386,58.079l-0.281,5.736l-0.856,5.548l-1.375,5.311l-1.894,5.166
			l-2.325,4.884l-2.799,4.601l-3.225,4.267l-3.6,3.982l-3.981,3.602l-4.269,3.224l-4.599,2.798l-4.887,2.324l-5.168,1.896
			l-5.306,1.375l-5.551,0.854l-5.735,0.284l-5.689-0.284l-5.547-0.854l-5.359-1.375l-5.12-1.896l-4.883-2.323l-4.6-2.798
			l-4.315-3.225l-3.936-3.604l-3.602-3.98l-3.223-4.267l-2.799-4.602L8.139,79.84l-1.896-5.166l-1.375-5.311l-0.854-5.548
			L3.73,58.079l0.285-5.688l0.853-5.55l1.375-5.355l1.896-5.118l2.323-4.887l2.799-4.6l3.224-4.312l3.603-3.937l3.935-3.6
			l4.315-3.225l4.6-2.8l4.883-2.325l5.12-1.894l5.359-1.375l5.547-0.856l5.688-0.281l5.736,0.281l5.551,0.856l5.306,1.375
			l5.168,1.894l4.887,2.325l4.599,2.8l4.269,3.225l3.981,3.6l3.6,3.937l3.225,4.312l2.799,4.6l2.325,4.887l1.894,5.118l1.375,5.355
			l0.856,5.55L115.386,58.079z"/>
		<g clip-path="url(#SVGID_126_)">
			<defs>
				<polyline id="SVGID_127_" points="3.667,2.208 115.404,2.208 115.404,113.948 3.667,113.948 				"/>
			</defs>
			<clipPath id="SVGID_128_">
				<use xlink:href="#SVGID_127_"  overflow="visible"/>
			</clipPath>
			
				<rect x="55.458" y="48.864" transform="matrix(-0.6882 0.7255 -0.7255 -0.6882 151.7343 34.699)" clip-path="url(#SVGID_128_)" fill="#FFFFFF" width="25.908" height="2.175"/>
		</g>
		<path clip-path="url(#SVGID_126_)" fill="#FFFFFF" d="M79.358,42.609c1.125-1.125,1.05-3-0.075-4.056
			c-1.125-1.125-3-1.05-4.056,0.075c-1.125,1.131-1.05,3.006,0.075,4.056C76.434,43.81,78.233,43.81,79.358,42.609"/>
		<rect x="36.481" y="58.305" clip-path="url(#SVGID_126_)" fill="#FFFFFF" width="22.903" height="2.178"/>
		<path clip-path="url(#SVGID_126_)" fill="#FFFFFF" d="M36.632,62.21c-1.577,0-2.854-1.277-2.854-2.854
			c0-1.577,1.276-2.854,2.854-2.854c1.577,0,2.854,1.277,2.854,2.854C39.486,60.933,38.209,62.21,36.632,62.21"/>
		<path clip-path="url(#SVGID_126_)" fill="#FFFFFF" d="M59.235,62.21c1.577,0,2.854-1.277,2.854-2.854
			c0-1.577-1.276-2.854-2.854-2.854c-1.577,0-2.854,1.277-2.854,2.854C56.381,60.933,57.658,62.21,59.235,62.21"/>
		<path clip-path="url(#SVGID_126_)" fill="#FFFFFF" d="M59.61,96.828h-0.075c-1.202,0-2.253-1.051-2.253-2.253
			c0-1.277,0.976-2.253,2.178-2.253c0,0,0.075,0,0.15,0c1.277,0,2.253,0.976,2.253,2.253C61.788,95.776,60.812,96.828,59.61,96.828
			 M77.708,91.946c-0.825,0-1.575-0.451-1.956-1.126c-0.6-1.126-0.225-2.478,0.906-3.079c1.05-0.601,2.475-0.225,3.075,0.826
			c0.6,1.051,0.3,2.403-0.75,3.004l-0.15,0.075C78.458,91.871,78.083,91.946,77.708,91.946 M41.363,91.946
			c-0.375,0-0.751-0.075-1.126-0.3l1.126-1.952l-1.202,1.952c-1.051-0.601-1.501-1.952-0.901-3.079
			c0.601-1.051,1.953-1.501,3.004-0.901l0.15,0.075c1.051,0.602,1.427,2.028,0.826,3.079C42.865,91.571,42.114,91.946,41.363,91.946
			 M91.076,78.655c-0.375,0-0.75-0.075-1.125-0.301c-1.056-0.601-1.431-1.952-0.831-3.079l0.075-0.15
			c0.6-1.051,2.031-1.427,3.081-0.826c1.05,0.601,1.425,2.027,0.825,3.079l-1.95-1.126l1.875,1.201
			C92.576,78.279,91.826,78.655,91.076,78.655 M27.921,78.58c-0.751,0-1.427-0.375-1.877-1.052c0,0,0-0.075-0.075-0.075
			c-0.601-1.051-0.301-2.478,0.826-3.078c1.051-0.602,2.403-0.301,3.078,0.75c0.601,1.052,0.301,2.479-0.75,3.154
			C28.748,78.505,28.297,78.58,27.921,78.58 M96.031,60.482c-1.275,0-2.256-0.976-2.256-2.252v-0.075v-0.15
			c0-1.277,0.981-2.253,2.256-2.253s2.25,0.976,2.25,2.253v0.075v0.075v0.075C98.281,59.432,97.231,60.482,96.031,60.482
			 M23.041,60.333c-1.277,0-2.253-0.977-2.253-2.178V58.08c0-1.276,0.976-2.252,2.253-2.252c1.276,0,2.252,0.976,2.252,2.252
			C25.293,59.281,24.317,60.333,23.041,60.333 M27.921,42.16c-0.375,0-0.751-0.075-1.126-0.3c-1.052-0.6-1.427-2.024-0.826-3.081
			l1.952,1.131l-1.877-1.206c0.601-1.05,2.027-1.425,3.079-0.825c1.051,0.6,1.427,2.031,0.826,3.081l-0.075,0.15
			C29.423,41.785,28.672,42.16,27.921,42.16 M91.076,42.084c-0.75,0-1.581-0.375-1.956-1.125c-0.6-1.05-0.3-2.481,0.831-3.156
			c1.05-0.6,2.4-0.3,3,0.75l0.075,0.15c0.6,1.056,0.225,2.481-0.825,3.081C91.9,42.01,91.526,42.084,91.076,42.084 M77.783,28.717
			c-0.375,0-0.75-0.075-1.05-0.3l-0.15-0.075c-1.056-0.6-1.431-2.025-0.831-3.081c0.606-1.05,2.031-1.425,3.081-0.825l-1.125,1.956
			l1.2-1.956c1.05,0.6,1.5,1.956,0.9,3.081C79.283,28.342,78.533,28.717,77.783,28.717 M41.288,28.717
			c-0.751,0-1.578-0.375-1.953-1.125c-0.601-1.05-0.3-2.406,0.751-3.006l0.15-0.075c1.051-0.6,2.478-0.225,3.079,0.825
			c0.601,1.056,0.226,2.481-0.826,3.081C42.039,28.643,41.664,28.717,41.288,28.717 M59.535,23.837c-1.276,0-2.328-0.975-2.328-2.25
			c0-1.281,0.976-2.256,2.178-2.256h0.15c1.277,0,2.253,0.975,2.253,2.256C61.788,22.862,60.812,23.837,59.535,23.837"/>
	</g>
</g>
<g>
	<defs>
		<rect id="SVGID_129_" x="-266.333" y="-183.667" width="1365.96" height="768"/>
	</defs>
	<clipPath id="SVGID_130_">
		<use xlink:href="#SVGID_129_"  overflow="visible"/>
	</clipPath>
</g>
<g>
	<defs>
		<rect id="SVGID_133_" x="-266.333" y="-183.667" width="1365.96" height="768"/>
	</defs>
	<clipPath id="SVGID_132_">
		<use xlink:href="#SVGID_133_"  overflow="visible"/>
	</clipPath>
</g>
</svg>
