<?xml version="1.0" encoding="utf-8"?>
<!-- Generator: Adobe Illustrator 16.0.0, SVG Export Plug-In . SVG Version: 6.00 Build 0)  -->
<!DOCTYPE svg PUBLIC "-//W3C//DTD SVG 1.1//EN" "http://www.w3.org/Graphics/SVG/1.1/DTD/svg11.dtd">
<svg version="1.1" id="Layer_1" xmlns="http://www.w3.org/2000/svg" xmlns:xlink="http://www.w3.org/1999/xlink" x="0px" y="0px"
	 width="114.36px" height="117px" viewBox="0 0 114.36 117" enable-background="new 0 0 114.36 117" xml:space="preserve">
<g>
	<defs>
		<rect id="SVGID_1_" x="-603" y="-183.667" width="1365.96" height="768"/>
	</defs>
	<clipPath id="SVGID_2_">
		<use xlink:href="#SVGID_1_"  overflow="visible"/>
	</clipPath>
</g>
<g>
	<defs>
		<rect id="SVGID_3_" x="-603" y="-183.667" width="1365.96" height="768"/>
	</defs>
	<clipPath id="SVGID_4_">
		<use xlink:href="#SVGID_3_"  overflow="visible"/>
	</clipPath>
</g>
<g>
	<defs>
		<rect id="SVGID_5_" x="-603" y="-183.667" width="1365.96" height="768"/>
	</defs>
	<clipPath id="SVGID_6_">
		<use xlink:href="#SVGID_5_"  overflow="visible"/>
	</clipPath>
</g>
<g>
	<defs>
		<rect id="SVGID_7_" x="-603" y="-183.667" width="1365.96" height="768"/>
	</defs>
	<clipPath id="SVGID_8_">
		<use xlink:href="#SVGID_7_"  overflow="visible"/>
	</clipPath>
</g>
<g>
	<defs>
		<rect id="SVGID_9_" x="-603" y="-183.667" width="1365.96" height="768"/>
	</defs>
	<clipPath id="SVGID_10_">
		<use xlink:href="#SVGID_9_"  overflow="visible"/>
	</clipPath>
</g>
<g>
	<defs>
		<rect id="SVGID_11_" x="-603" y="-183.667" width="1365.96" height="768"/>
	</defs>
	<clipPath id="SVGID_12_">
		<use xlink:href="#SVGID_11_"  overflow="visible"/>
	</clipPath>
</g>
<g>
	<defs>
		<rect id="SVGID_13_" x="-603" y="-183.667" width="1365.96" height="768"/>
	</defs>
	<clipPath id="SVGID_14_">
		<use xlink:href="#SVGID_13_"  overflow="visible"/>
	</clipPath>
</g>
<g>
	<defs>
		<rect id="SVGID_15_" x="-603" y="-183.667" width="1365.96" height="768"/>
	</defs>
	<clipPath id="SVGID_16_">
		<use xlink:href="#SVGID_15_"  overflow="visible"/>
	</clipPath>
</g>
<g>
	<defs>
		<rect id="SVGID_17_" x="-603" y="-183.667" width="1365.96" height="768"/>
	</defs>
	<clipPath id="SVGID_18_">
		<use xlink:href="#SVGID_17_"  overflow="visible"/>
	</clipPath>
</g>
<g>
	<defs>
		<rect id="SVGID_19_" x="-603" y="-183.667" width="1365.96" height="768"/>
	</defs>
	<clipPath id="SVGID_20_">
		<use xlink:href="#SVGID_19_"  overflow="visible"/>
	</clipPath>
</g>
<g>
	<defs>
		<rect id="SVGID_21_" x="-603" y="-183.667" width="1365.96" height="768"/>
	</defs>
	<clipPath id="SVGID_22_">
		<use xlink:href="#SVGID_21_"  overflow="visible"/>
	</clipPath>
</g>
<g>
	<defs>
		<rect id="SVGID_23_" x="-603" y="-183.667" width="1365.96" height="768"/>
	</defs>
	<clipPath id="SVGID_24_">
		<use xlink:href="#SVGID_23_"  overflow="visible"/>
	</clipPath>
</g>
<g>
	<defs>
		<rect id="SVGID_25_" x="-603" y="-183.667" width="1365.96" height="768"/>
	</defs>
	<clipPath id="SVGID_26_">
		<use xlink:href="#SVGID_25_"  overflow="visible"/>
	</clipPath>
</g>
<g>
	<defs>
		<rect id="SVGID_27_" x="-603" y="-183.667" width="1365.96" height="768"/>
	</defs>
	<clipPath id="SVGID_28_">
		<use xlink:href="#SVGID_27_"  overflow="visible"/>
	</clipPath>
</g>
<g>
	<defs>
		<rect id="SVGID_29_" x="-603" y="-183.667" width="1365.96" height="768"/>
	</defs>
	<clipPath id="SVGID_30_">
		<use xlink:href="#SVGID_29_"  overflow="visible"/>
	</clipPath>
</g>
<g>
	<defs>
		<rect id="SVGID_31_" x="-603" y="-183.667" width="1365.96" height="768"/>
	</defs>
	<clipPath id="SVGID_32_">
		<use xlink:href="#SVGID_31_"  overflow="visible"/>
	</clipPath>
</g>
<g>
	<defs>
		<rect id="SVGID_33_" x="-603" y="-183.667" width="1365.96" height="768"/>
	</defs>
	<clipPath id="SVGID_34_">
		<use xlink:href="#SVGID_33_"  overflow="visible"/>
	</clipPath>
</g>
<g>
	<defs>
		<rect id="SVGID_35_" x="-603" y="-183.667" width="1365.96" height="768"/>
	</defs>
	<clipPath id="SVGID_36_">
		<use xlink:href="#SVGID_35_"  overflow="visible"/>
	</clipPath>
</g>
<g>
	<defs>
		<rect id="SVGID_37_" x="-603" y="-183.667" width="1365.96" height="768"/>
	</defs>
	<clipPath id="SVGID_38_">
		<use xlink:href="#SVGID_37_"  overflow="visible"/>
	</clipPath>
</g>
<g>
	<defs>
		<rect id="SVGID_39_" x="-603" y="-183.667" width="1365.96" height="768"/>
	</defs>
	<clipPath id="SVGID_40_">
		<use xlink:href="#SVGID_39_"  overflow="visible"/>
	</clipPath>
</g>
<g>
	<defs>
		<rect id="SVGID_41_" x="-603" y="-183.667" width="1365.96" height="768"/>
	</defs>
	<clipPath id="SVGID_42_">
		<use xlink:href="#SVGID_41_"  overflow="visible"/>
	</clipPath>
</g>
<g>
	<defs>
		<rect id="SVGID_43_" x="-603" y="-183.667" width="1365.96" height="768"/>
	</defs>
	<clipPath id="SVGID_44_">
		<use xlink:href="#SVGID_43_"  overflow="visible"/>
	</clipPath>
</g>
<g>
	<defs>
		<rect id="SVGID_45_" x="-603" y="-183.667" width="1365.96" height="768"/>
	</defs>
	<clipPath id="SVGID_46_">
		<use xlink:href="#SVGID_45_"  overflow="visible"/>
	</clipPath>
</g>
<g>
	<defs>
		<rect id="SVGID_47_" x="-603" y="-183.667" width="1365.96" height="768"/>
	</defs>
	<clipPath id="SVGID_48_">
		<use xlink:href="#SVGID_47_"  overflow="visible"/>
	</clipPath>
</g>
<g>
	<defs>
		<rect id="SVGID_49_" x="-603" y="-183.667" width="1365.96" height="768"/>
	</defs>
	<clipPath id="SVGID_50_">
		<use xlink:href="#SVGID_49_"  overflow="visible"/>
	</clipPath>
</g>
<g>
	<defs>
		<rect id="SVGID_51_" x="-603" y="-183.667" width="1365.96" height="768"/>
	</defs>
	<clipPath id="SVGID_52_">
		<use xlink:href="#SVGID_51_"  overflow="visible"/>
	</clipPath>
</g>
<g>
	<defs>
		<rect id="SVGID_53_" x="-603" y="-183.667" width="1365.96" height="768"/>
	</defs>
	<clipPath id="SVGID_54_">
		<use xlink:href="#SVGID_53_"  overflow="visible"/>
	</clipPath>
</g>
<g>
	<defs>
		<rect id="SVGID_55_" x="-603" y="-183.667" width="1365.96" height="768"/>
	</defs>
	<clipPath id="SVGID_56_">
		<use xlink:href="#SVGID_55_"  overflow="visible"/>
	</clipPath>
</g>
<g>
	<defs>
		<rect id="SVGID_57_" x="-603" y="-183.667" width="1365.96" height="768"/>
	</defs>
	<clipPath id="SVGID_58_">
		<use xlink:href="#SVGID_57_"  overflow="visible"/>
	</clipPath>
</g>
<g>
	<defs>
		<rect id="SVGID_59_" x="-603" y="-183.667" width="1365.96" height="768"/>
	</defs>
	<clipPath id="SVGID_60_">
		<use xlink:href="#SVGID_59_"  overflow="visible"/>
	</clipPath>
</g>
<g>
	<defs>
		<rect id="SVGID_61_" x="-603" y="-183.667" width="1365.96" height="768"/>
	</defs>
	<clipPath id="SVGID_62_">
		<use xlink:href="#SVGID_61_"  overflow="visible"/>
	</clipPath>
</g>
<g>
	<defs>
		<rect id="SVGID_63_" x="-603" y="-183.667" width="1365.96" height="768"/>
	</defs>
	<clipPath id="SVGID_64_">
		<use xlink:href="#SVGID_63_"  overflow="visible"/>
	</clipPath>
</g>
<g>
	<defs>
		<rect id="SVGID_65_" x="-603" y="-183.667" width="1365.96" height="768"/>
	</defs>
	<clipPath id="SVGID_66_">
		<use xlink:href="#SVGID_65_"  overflow="visible"/>
	</clipPath>
</g>
<g>
	<defs>
		<rect id="SVGID_67_" x="-603" y="-183.667" width="1365.96" height="768"/>
	</defs>
	<clipPath id="SVGID_68_">
		<use xlink:href="#SVGID_67_"  overflow="visible"/>
	</clipPath>
</g>
<g>
	<defs>
		<rect id="SVGID_69_" x="-603" y="-183.667" width="1365.96" height="768"/>
	</defs>
	<clipPath id="SVGID_70_">
		<use xlink:href="#SVGID_69_"  overflow="visible"/>
	</clipPath>
</g>
<g>
	<defs>
		<rect id="SVGID_71_" x="-603" y="-183.667" width="1365.96" height="768"/>
	</defs>
	<clipPath id="SVGID_72_">
		<use xlink:href="#SVGID_71_"  overflow="visible"/>
	</clipPath>
</g>
<g>
	<defs>
		<rect id="SVGID_73_" x="-603" y="-183.667" width="1365.96" height="768"/>
	</defs>
	<clipPath id="SVGID_74_">
		<use xlink:href="#SVGID_73_"  overflow="visible"/>
	</clipPath>
</g>
<g>
	<defs>
		<rect id="SVGID_75_" x="-603" y="-183.667" width="1365.96" height="768"/>
	</defs>
	<clipPath id="SVGID_76_">
		<use xlink:href="#SVGID_75_"  overflow="visible"/>
	</clipPath>
</g>
<g>
	<defs>
		<rect id="SVGID_77_" x="-603" y="-183.667" width="1365.96" height="768"/>
	</defs>
	<clipPath id="SVGID_78_">
		<use xlink:href="#SVGID_77_"  overflow="visible"/>
	</clipPath>
</g>
<g>
	<defs>
		<rect id="SVGID_79_" x="-603" y="-183.667" width="1365.96" height="768"/>
	</defs>
	<clipPath id="SVGID_80_">
		<use xlink:href="#SVGID_79_"  overflow="visible"/>
	</clipPath>
</g>
<g>
	<defs>
		<rect id="SVGID_81_" x="-603" y="-183.667" width="1365.96" height="768"/>
	</defs>
	<clipPath id="SVGID_82_">
		<use xlink:href="#SVGID_81_"  overflow="visible"/>
	</clipPath>
</g>
<g>
	<defs>
		<rect id="SVGID_83_" x="-603" y="-183.667" width="1365.96" height="768"/>
	</defs>
	<clipPath id="SVGID_84_">
		<use xlink:href="#SVGID_83_"  overflow="visible"/>
	</clipPath>
</g>
<g>
	<defs>
		<rect id="SVGID_85_" x="-603" y="-183.667" width="1365.96" height="768"/>
	</defs>
	<clipPath id="SVGID_86_">
		<use xlink:href="#SVGID_85_"  overflow="visible"/>
	</clipPath>
</g>
<g>
	<defs>
		<rect id="SVGID_87_" x="-603" y="-183.667" width="1365.96" height="768"/>
	</defs>
	<clipPath id="SVGID_88_">
		<use xlink:href="#SVGID_87_"  overflow="visible"/>
	</clipPath>
</g>
<g>
	<defs>
		<rect id="SVGID_89_" x="-603" y="-183.667" width="1365.96" height="768"/>
	</defs>
	<clipPath id="SVGID_90_">
		<use xlink:href="#SVGID_89_"  overflow="visible"/>
	</clipPath>
</g>
<g>
	<defs>
		<rect id="SVGID_91_" x="-603" y="-183.667" width="1365.96" height="768"/>
	</defs>
	<clipPath id="SVGID_92_">
		<use xlink:href="#SVGID_91_"  overflow="visible"/>
	</clipPath>
</g>
<g>
	<defs>
		<rect id="SVGID_93_" x="-603" y="-183.667" width="1365.96" height="768"/>
	</defs>
	<clipPath id="SVGID_94_">
		<use xlink:href="#SVGID_93_"  overflow="visible"/>
	</clipPath>
</g>
<g>
	<defs>
		<rect id="SVGID_95_" x="-603" y="-183.667" width="1365.96" height="768"/>
	</defs>
	<clipPath id="SVGID_96_">
		<use xlink:href="#SVGID_95_"  overflow="visible"/>
	</clipPath>
</g>
<g>
	<defs>
		<rect id="SVGID_97_" x="-603" y="-183.667" width="1365.96" height="768"/>
	</defs>
	<clipPath id="SVGID_98_">
		<use xlink:href="#SVGID_97_"  overflow="visible"/>
	</clipPath>
</g>
<g>
	<defs>
		<rect id="SVGID_99_" x="-603" y="-183.667" width="1365.96" height="768"/>
	</defs>
	<clipPath id="SVGID_100_">
		<use xlink:href="#SVGID_99_"  overflow="visible"/>
	</clipPath>
</g>
<g>
	<defs>
		<rect id="SVGID_101_" x="-603" y="-183.667" width="1365.96" height="768"/>
	</defs>
	<clipPath id="SVGID_102_">
		<use xlink:href="#SVGID_101_"  overflow="visible"/>
	</clipPath>
</g>
<g>
	<defs>
		<rect id="SVGID_103_" x="-603" y="-183.667" width="1365.96" height="768"/>
	</defs>
	<clipPath id="SVGID_104_">
		<use xlink:href="#SVGID_103_"  overflow="visible"/>
	</clipPath>
</g>
<g>
	<defs>
		<rect id="SVGID_105_" x="-603" y="-183.667" width="1365.96" height="768"/>
	</defs>
	<clipPath id="SVGID_106_">
		<use xlink:href="#SVGID_105_"  overflow="visible"/>
	</clipPath>
</g>
<g>
	<defs>
		<rect id="SVGID_107_" x="-603" y="-183.667" width="1365.96" height="768"/>
	</defs>
	<clipPath id="SVGID_108_">
		<use xlink:href="#SVGID_107_"  overflow="visible"/>
	</clipPath>
</g>
<g>
	<defs>
		<rect id="SVGID_109_" x="-603" y="-183.667" width="1365.96" height="768"/>
	</defs>
	<clipPath id="SVGID_110_">
		<use xlink:href="#SVGID_109_"  overflow="visible"/>
	</clipPath>
</g>
<g>
	<defs>
		<rect id="SVGID_111_" x="-603" y="-183.667" width="1365.96" height="768"/>
	</defs>
	<clipPath id="SVGID_112_">
		<use xlink:href="#SVGID_111_"  overflow="visible"/>
	</clipPath>
</g>
<g>
	<defs>
		<rect id="SVGID_113_" x="-603" y="-183.667" width="1365.96" height="768"/>
	</defs>
	<clipPath id="SVGID_114_">
		<use xlink:href="#SVGID_113_"  overflow="visible"/>
	</clipPath>
</g>
<g>
	<defs>
		<rect id="SVGID_115_" x="-603" y="-183.667" width="1365.96" height="768"/>
	</defs>
	<clipPath id="SVGID_116_">
		<use xlink:href="#SVGID_115_"  overflow="visible"/>
	</clipPath>
</g>
<g>
	<defs>
		<rect id="SVGID_117_" x="-603" y="-183.667" width="1365.96" height="768"/>
	</defs>
	<clipPath id="SVGID_118_">
		<use xlink:href="#SVGID_117_"  overflow="visible"/>
	</clipPath>
</g>
<g>
	<defs>
		<rect id="SVGID_119_" x="-603" y="-183.667" width="1365.96" height="768"/>
	</defs>
	<clipPath id="SVGID_120_">
		<use xlink:href="#SVGID_119_"  overflow="visible"/>
	</clipPath>
</g>
<g>
	<defs>
		<rect id="SVGID_121_" x="-603" y="-183.667" width="1365.96" height="768"/>
	</defs>
	<clipPath id="SVGID_122_">
		<use xlink:href="#SVGID_121_"  overflow="visible"/>
	</clipPath>
</g>
<g>
	<defs>
		<rect id="SVGID_123_" x="-603" y="-183.667" width="1365.96" height="768"/>
	</defs>
	<clipPath id="SVGID_124_">
		<use xlink:href="#SVGID_123_"  overflow="visible"/>
	</clipPath>
</g>
<g>
	<defs>
		<rect id="SVGID_129_" x="-603" y="-183.667" width="1365.96" height="768"/>
	</defs>
	<clipPath id="SVGID_126_">
		<use xlink:href="#SVGID_129_"  overflow="visible"/>
	</clipPath>
	<g clip-path="url(#SVGID_126_)">
		<defs>
			<rect id="SVGID_131_" x="2.641" y="2.208" width="111.719" height="111.725"/>
		</defs>
		<clipPath id="SVGID_128_">
			<use xlink:href="#SVGID_131_"  overflow="visible"/>
		</clipPath>
		<path clip-path="url(#SVGID_128_)" fill="#8042FF" d="M58.509,113.272c30.49,0,55.194-24.706,55.194-55.193
			c0-30.487-24.704-55.19-55.194-55.191c-30.487,0-55.193,24.704-55.193,55.191S28.022,113.272,58.509,113.272"/>
		<path clip-path="url(#SVGID_128_)" fill="#FFFFFF" d="M112.803,52.487l0.007,0.065l-0.844-5.48l0.013,0.056l-1.356-5.293
			l0.019,0.063l-1.875-5.062l0.019,0.05l-2.293-4.825l0.031,0.057l-2.769-4.543l0.037,0.05l-3.187-4.269l0.037,0.05l-3.562-3.893
			l0.043,0.043l-3.937-3.562l0.044,0.038l-4.219-3.187l0.05,0.038l-4.543-2.769l0.057,0.031L79.75,7.851l0.05,0.019l-5.106-1.875
			l0.057,0.019l-5.25-1.356l0.063,0.013l-5.481-0.844l0.065,0.006l-5.671-0.281h0.063l-5.624,0.281l0.065-0.006L47.498,4.67
			l0.062-0.013l-5.296,1.356l0.063-0.019L37.265,7.87l0.053-0.019l-4.828,2.293l0.058-0.031l-4.546,2.769l0.05-0.038l-4.265,3.187
			l0.049-0.038l-3.89,3.562l0.04-0.043l-3.563,3.893l0.041-0.05l-3.188,4.268l0.035-0.05l-2.766,4.543l0.031-0.057l-2.296,4.825
			l0.022-0.05l-1.875,5.062l0.02-0.063l-1.359,5.293l0.013-0.056l-0.844,5.48l0.007-0.065l-0.281,5.625v-0.064l0.281,5.671
			l-0.007-0.066l0.844,5.484l-0.013-0.063l1.359,5.25l-0.019-0.06l1.875,5.109l-0.023-0.054l2.296,4.828l-0.031-0.058l2.766,4.546
			l-0.036-0.053l3.187,4.218l-0.036-0.043l3.562,3.937l-0.042-0.042l3.89,3.562l-0.049-0.041l4.265,3.187l-0.05-0.034l4.546,2.765
			l-0.058-0.031l4.828,2.297l-0.053-0.022l5.062,1.875l-0.063-0.02l5.296,1.359l-0.062-0.013l5.484,0.844l-0.065-0.007l5.625,0.281
			h-0.064l5.671-0.281l-0.065,0.007l5.48-0.844l-0.063,0.013l5.25-1.359l-0.056,0.019l5.105-1.875l-0.05,0.023l4.825-2.297
			l-0.057,0.031l4.543-2.765l-0.05,0.036l4.219-3.187l-0.044,0.036l3.937-3.562l-0.043,0.045l3.562-3.937l-0.037,0.043l3.187-4.218
			l-0.037,0.053l2.769-4.546l-0.031,0.058l2.294-4.828l-0.02,0.054l1.875-5.109l-0.019,0.06l1.356-5.25l-0.013,0.063l0.844-5.484
			l-0.007,0.066l0.281-5.671v0.064L112.803,52.487z M114.36,58.079l-0.281,5.736l-0.856,5.548l-1.375,5.311l-1.894,5.166
			l-2.324,4.884l-2.8,4.601l-3.225,4.267l-3.6,3.982l-3.981,3.602l-4.268,3.224l-4.6,2.798l-4.887,2.324l-5.169,1.896l-5.306,1.375
			l-5.55,0.854l-5.736,0.284l-5.688-0.284l-5.548-0.854l-5.358-1.375l-5.12-1.896l-4.883-2.323l-4.6-2.798l-4.315-3.225
			l-3.936-3.604l-3.602-3.98l-3.223-4.267l-2.799-4.602L7.113,79.84l-1.896-5.166l-1.375-5.311l-0.854-5.548l-0.284-5.736
			l0.284-5.688l0.854-5.55l1.375-5.355l1.896-5.118l2.323-4.887l2.798-4.6l3.224-4.312l3.603-3.937l3.935-3.6l4.315-3.225l4.6-2.8
			l4.883-2.325l5.12-1.894l5.358-1.375l5.548-0.856l5.688-0.281l5.736,0.281l5.55,0.856l5.306,1.375l5.168,1.894l4.888,2.325
			l4.6,2.8l4.268,3.225l3.981,3.6l3.6,3.937l3.225,4.312l2.8,4.6l2.324,4.887l1.894,5.118l1.375,5.355l0.856,5.55L114.36,58.079z"/>
		<path clip-path="url(#SVGID_128_)" fill="#FFFFFF" d="M58.584,89.318h-0.075c-1.202,0-2.253-1.051-2.253-2.253
			c0-1.277,0.977-2.253,2.178-2.253c0,0,0.075,0,0.15,0c1.276,0,2.253,0.976,2.253,2.253C60.762,88.342,59.786,89.318,58.584,89.318
			"/>
		<path clip-path="url(#SVGID_128_)" fill="#FFFFFF" d="M69.321,56.728c-0.075-0.676-0.6-0.976-1.05-0.901l-0.525-0.526h-15.77
			c-0.3-0.375-0.826-0.525-1.352-0.15c-0.525,0.751-0.075,1.577,0.676,1.577c0.3,0,0.525-0.15,0.675-0.375h15.395l0.225,0.225
			c0,0.3,0,0.526,0.225,0.751C68.271,57.854,69.171,57.629,69.321,56.728"/>
		<path clip-path="url(#SVGID_128_)" fill="#FFFFFF" d="M49.423,63.336h15.019c0.3,0.376,0.823,0.526,1.354,0.15
			c0.525-0.751,0.075-1.577-0.679-1.577c-0.3,0-0.525,0.15-0.675,0.376H49.874l-0.225-0.226c0.075-0.451-0.15-0.901-0.826-1.051
			c-0.901,0.15-1.126,1.051-0.601,1.577c0.225,0.226,0.451,0.301,0.751,0.226L49.423,63.336z"/>
		<path clip-path="url(#SVGID_128_)" fill="#FFFFFF" d="M50.55,58.755l-1.802-1.802v-2.027l1.802-1.802h16.221
			c0.3,0.375,0.825,0.525,1.35,0.15c0.525-0.75,0.075-1.577-0.675-1.577c-0.3,0-0.525,0.15-0.675,0.375H50.099L47.696,54.4v2.928
			l2.403,2.478h15.847l1.8,1.802v2.178l-1.8,1.802H51c-0.3-0.375-0.826-0.525-1.352-0.15c-0.525,0.75-0.075,1.577,0.676,1.577
			c0.3,0,0.526-0.15,0.676-0.375h15.321l2.4-2.478v-3.079l-2.4-2.478L50.55,58.755z"/>
		<path clip-path="url(#SVGID_128_)" fill="#FFFFFF" d="M53.178,46.365c0.525,0.375,1.051,0.225,1.351-0.15h7.66
			c0.301,0.375,0.826,0.525,1.352,0.15c0.526-0.75,0.075-1.575-0.676-1.575c-0.3,0-0.526,0.15-0.676,0.375h-7.66
			c-0.15-0.225-0.375-0.375-0.676-0.375C53.178,44.791,52.652,45.615,53.178,46.365"/>
		<path clip-path="url(#SVGID_128_)" fill="#FFFFFF" d="M50.249,49.671c0.525,0.375,1.052,0.225,1.352-0.15H65.19
			c0.3,0.375,0.831,0.525,1.356,0.15c0.525-0.75,0.075-1.581-0.675-1.581c-0.3,0-0.531,0.15-0.681,0.375H51.601
			c-0.15-0.225-0.375-0.375-0.675-0.375C50.174,48.09,49.648,48.921,50.249,49.671"/>
		<path clip-path="url(#SVGID_128_)" fill="#FFFFFF" d="M65.34,68.893c-0.522-0.375-1.048-0.226-1.349,0.15H52.953
			c-0.301-0.375-0.826-0.525-1.352-0.15c-0.525,0.751-0.075,1.577,0.676,1.577c0.3,0,0.525-0.15,0.676-0.375h11.039
			c0.15,0.225,0.451,0.375,0.676,0.375C65.415,70.395,65.946,69.568,65.34,68.893"/>
		<path clip-path="url(#SVGID_128_)" fill="#FFFFFF" d="M62.339,72.197c-0.525-0.375-1.051-0.225-1.352,0.075h-4.881
			c-0.226-0.3-0.375-0.451-1.126-0.225c-0.751,0.75-0.225,1.727,0.526,1.727c0.3,0,0.451-0.15,0.601-0.375h4.881
			c0.15,0.225,0.375,0.375,0.676,0.375C62.414,73.773,62.94,72.948,62.339,72.197"/>
		<path clip-path="url(#SVGID_128_)" fill="#FFFFFF" d="M63.766,34.311H51.826v-1.275h11.939V34.311z M81.526,27.986v62.438
			l-6.85,6.291H42.341l-6.848-6.291V27.986l6.848-6.287h32.335L81.526,27.986z M73.995,22.806l0.431,0.168H42.59l0.432-0.168
			l-6.458,5.931l0.207-0.469v61.877l-0.207-0.471l6.458,5.933l-0.432-0.168h31.836l-0.431,0.168l6.461-5.933l-0.206,0.471V28.268
			l0.206,0.469L73.995,22.806z"/>
	</g>
</g>
<g>
	<defs>
		<rect id="SVGID_133_" x="-603" y="-183.667" width="1365.96" height="768"/>
	</defs>
	<clipPath id="SVGID_130_">
		<use xlink:href="#SVGID_133_"  overflow="visible"/>
	</clipPath>
</g>
</svg>
