<?xml version="1.0" encoding="utf-8"?>
<!-- Generator: Adobe Illustrator 16.0.0, SVG Export Plug-In . SVG Version: 6.00 Build 0)  -->
<!DOCTYPE svg PUBLIC "-//W3C//DTD SVG 1.1//EN" "http://www.w3.org/Graphics/SVG/1.1/DTD/svg11.dtd">
<svg version="1.1" id="Layer_1" xmlns="http://www.w3.org/2000/svg" xmlns:xlink="http://www.w3.org/1999/xlink" x="0px" y="0px"
	 width="835px" height="179px" viewBox="0 0 835 179" enable-background="new 0 0 835 179" xml:space="preserve">
<rect x="-263" y="-166" fill-rule="evenodd" clip-rule="evenodd" fill="none" width="1365.96" height="768"/>
<rect x="-263" y="-166" fill-rule="evenodd" clip-rule="evenodd" fill="none" width="1365.96" height="768"/>
<g>
	<defs>
		<rect id="SVGID_1_" x="114.04" y="98" width="566.036" height="4.44"/>
	</defs>
	<clipPath id="SVGID_2_">
		<use xlink:href="#SVGID_1_"  overflow="visible"/>
	</clipPath>
	<rect x="114.04" y="99.254" clip-path="url(#SVGID_2_)" fill="#FFFFFF" width="566.185" height="2.285"/>
</g>
<rect x="-263" y="-166" fill-rule="evenodd" clip-rule="evenodd" fill="none" width="1365.96" height="768"/>
<path fill-rule="evenodd" clip-rule="evenodd" fill="#8042FF" d="M416.88,169.39c40.64,0,73.64-32.99,73.64-73.63
	c0-40.64-33-73.64-73.64-73.64s-73.56,33-73.56,73.64C343.32,136.47,376.24,169.39,416.88,169.39"/>
<g>
	<defs>
		<rect id="SVGID_3_" x="-263" y="-166" width="1365.96" height="768"/>
	</defs>
	<clipPath id="SVGID_4_">
		<use xlink:href="#SVGID_3_"  overflow="visible"/>
	</clipPath>
	<g clip-path="url(#SVGID_4_)">
		<defs>
			<rect id="SVGID_5_" x="6.28" y="21.558" width="148.558" height="148.442"/>
		</defs>
		<clipPath id="SVGID_6_">
			<use xlink:href="#SVGID_5_"  overflow="visible"/>
		</clipPath>
		<path clip-path="url(#SVGID_6_)" fill="#8042FF" d="M80.556,169.392c40.666,0,73.675-32.986,73.675-73.616
			c0-40.634-33.009-73.618-73.675-73.618c-40.664,0-73.601,32.983-73.601,73.618C6.955,136.48,39.892,169.392,80.556,169.392"/>
		<path clip-path="url(#SVGID_6_)" fill="#FFFFFF" d="M153.236,88.294l0.006,0.069l-1.126-7.313l0.013,0.063l-1.827-7.032
			l0.012,0.056l-2.439-6.8l0.031,0.063l-3.146-6.419l0.031,0.05l-3.659-6.094l0.038,0.056l-4.272-5.625l0.038,0.038l-4.742-5.25
			l0.044,0.05l-5.205-4.738l0.044,0.038l-5.673-4.263l0.056,0.038l-6.099-3.657l0.044,0.025l-6.424-3.144l0.063,0.031l-6.755-2.438
			l0.056,0.013l-7.087-1.825l0.063,0.013l-7.269-1.125l0.063,0.006l-7.55-0.375h0.063l-7.55,0.375l0.063-0.006l-7.319,1.125
			l0.064-0.013l-7.037,1.825l0.054-0.013l-6.803,2.438l0.065-0.031l-6.427,3.144l0.048-0.025l-6.099,3.657l0.057-0.044l-5.63,4.269
			l0.042-0.038l-5.254,4.738l0.046-0.05l-4.738,5.25l0.035-0.038l-4.269,5.625l0.039-0.056l-3.659,6.094l0.025-0.05l-3.143,6.419
			l0.027-0.063l-2.439,6.8l0.017-0.056l-1.83,7.032l0.013-0.063l-1.126,7.313l0.006-0.069l-0.375,7.551v-0.063l0.375,7.544
			l-0.007-0.068l1.126,7.269l-0.013-0.062l1.83,7.079l-0.018-0.057l2.439,6.75l-0.027-0.063l3.143,6.422l-0.025-0.048l3.659,6.094
			l-0.038-0.055l4.27,5.672l-0.038-0.046l4.738,5.204l-0.044-0.044l5.254,4.735l-0.042-0.035l5.63,4.266l-0.057-0.039l6.099,3.656
			l-0.048-0.026l6.428,3.141l-0.065-0.027l6.803,2.438l-0.054-0.017l7.037,1.828l-0.064-0.013l7.319,1.125l-0.063-0.007l7.55,0.375
			h-0.063l7.55-0.375l-0.063,0.007l7.269-1.125l-0.063,0.013l7.087-1.829l-0.056,0.018l6.755-2.438l-0.063,0.027l6.424-3.141
			l-0.044,0.026l6.099-3.656l-0.056,0.037l5.673-4.266l-0.044,0.038l5.205-4.735l-0.038,0.042l4.735-5.204l-0.038,0.046l4.266-5.672
			l-0.031,0.055l3.659-6.094l-0.031,0.048l3.146-6.422l-0.025,0.063l2.439-6.75l-0.019,0.058l1.827-7.079l-0.013,0.062l1.126-7.269
			l-0.006,0.068l0.375-7.544v0.063L153.236,88.294z M154.887,95.813l-0.375,7.606l-1.138,7.333l-1.845,7.138l-2.458,6.811
			l-3.171,6.478l-3.69,6.146l-4.31,5.723l-4.779,5.248l-5.248,4.774l-5.73,4.304l-6.149,3.688l-6.487,3.167l-6.812,2.46
			l-7.144,1.843l-7.337,1.135l-7.619,0.378l-7.619-0.378l-7.382-1.135l-7.097-1.843l-6.863-2.459l-6.483-3.168l-6.152-3.688
			l-5.679-4.304l-5.298-4.774l-4.779-5.249l-4.307-5.723l-3.69-6.146l-3.17-6.478l-2.462-6.811l-1.845-7.138l-1.136-7.333
			l-0.378-7.606L6.629,88.2l1.136-7.382L9.61,73.73l2.461-6.857l3.171-6.481l3.691-6.144l4.307-5.676l4.779-5.294l5.299-4.775
			l5.679-4.307l6.152-3.688l6.483-3.169l6.863-2.457l7.097-1.844l7.382-1.137l7.619-0.375l7.619,0.375l7.337,1.137l7.144,1.844
			l6.812,2.462l6.487,3.163l6.149,3.688l5.73,4.307l5.248,4.775l4.779,5.294l4.31,5.676l3.69,6.144l3.171,6.482l2.458,6.856
			l1.845,7.088l1.138,7.382L154.887,95.813z"/>
		<rect x="71.886" y="86.175" clip-path="url(#SVGID_6_)" fill="#FFFFFF" width="20.567" height="1.275"/>
		<path clip-path="url(#SVGID_6_)" fill="#FFFFFF" d="M71.929,85.35c-0.75,0-1.351,0.6-1.351,1.35s0.601,1.35,1.351,1.35
			c0.751,0,1.352-0.6,1.352-1.35S72.68,85.35,71.929,85.35"/>
		<path clip-path="url(#SVGID_6_)" fill="#FFFFFF" d="M58.632,51.373h43.923l4.272,4.35v67.054l-4.278,4.274H58.635l-4.277-4.274
			V55.723L58.632,51.373z M55.452,56.429l0.183-0.444v66.527l-0.187-0.451l3.903,3.9l-0.451-0.187h43.387l-0.451,0.187l3.903-3.9
			l-0.188,0.451V55.985l0.181,0.444l-3.903-3.975l0.457,0.193H58.899l0.456-0.193L55.452,56.429z"/>
		<polyline clip-path="url(#SVGID_6_)" fill="#8042FF" points="83.333,122.537 83.333,113.69 83.333,111.142 85.585,108.893 
			88.131,108.893 90.383,111.441 90.383,124.786 		"/>
		<polygon clip-path="url(#SVGID_6_)" fill="#FFFFFF" points="82.882,122.663 82.882,113.812 82.882,111.079 85.428,108.449 
			88.394,108.449 90.914,111.402 90.914,124.838 89.638,124.838 89.638,111.637 89.788,112.051 87.611,109.5 88.1,109.725 
			85.697,109.725 86.154,109.53 83.977,111.78 84.159,111.337 84.159,113.812 84.159,122.663 		"/>
		<polyline clip-path="url(#SVGID_6_)" fill="#8042FF" points="76.352,124.186 76.352,94.951 74.106,92.326 71.554,92.326 
			69.302,94.576 69.302,138.729 78.379,149.075 88.356,149.075 97.438,140.079 97.438,111.441 95.112,108.893 92.634,108.893 
			90.383,111.142 90.383,119.013 90.383,124.186 		"/>
		<polygon clip-path="url(#SVGID_6_)" fill="#FFFFFF" points="75.827,122.513 75.827,95.138 75.983,95.551 73.731,92.926 
			74.212,93.151 71.735,93.151 72.186,92.963 69.934,95.213 70.122,94.763 70.122,138.639 69.965,138.223 78.898,148.573 
			78.416,148.352 88.325,148.352 87.874,148.541 96.807,139.54 96.619,139.989 96.619,111.562 96.769,111.976 94.592,109.426 
			95.08,109.649 92.603,109.649 93.054,109.462 90.802,111.713 90.989,111.262 90.989,119.063 90.989,122.513 89.713,122.513 
			89.713,119.063 89.713,110.998 92.34,108.374 95.375,108.374 97.895,111.327 97.895,140.251 88.587,149.627 78.122,149.627 
			68.846,138.876 68.846,94.495 71.473,91.875 74.507,91.875 77.103,94.901 77.103,122.513 		"/>
		<path clip-path="url(#SVGID_6_)" fill="#FFFFFF" d="M78.079,122.387c0,0.974-0.826,1.799-1.802,1.799s-1.801-0.825-1.801-1.799
			c0-0.975,0.825-1.799,1.801-1.799C77.328,120.588,78.079,121.412,78.079,122.387"/>
		<path clip-path="url(#SVGID_6_)" fill="#FFFFFF" d="M88.581,122.387c0,0.974,0.826,1.799,1.802,1.799
			c0.976,0,1.801-0.825,1.801-1.799c0-0.975-0.826-1.799-1.801-1.799C89.407,120.588,88.581,121.412,88.581,122.387"/>
		<polyline clip-path="url(#SVGID_6_)" fill="#8042FF" points="76.352,124.186 76.352,103.645 76.352,113.69 76.352,111.216 
			78.604,108.967 81.081,108.967 83.333,111.517 83.333,114.291 83.333,124.186 		"/>
		<polygon clip-path="url(#SVGID_6_)" fill="#FFFFFF" points="75.901,122.513 75.901,103.839 77.178,103.839 77.178,113.812 
			75.901,113.812 75.901,111.079 78.447,108.449 81.337,108.449 83.858,111.402 83.858,114.412 83.858,122.513 82.582,122.513 
			82.582,114.412 82.582,111.637 82.732,112.051 80.556,109.5 81.043,109.725 78.716,109.725 79.173,109.53 76.996,111.78 
			77.178,111.337 77.178,113.812 75.901,113.812 75.901,103.839 77.178,103.839 77.178,122.513 		"/>
		<path clip-path="url(#SVGID_6_)" fill="#FFFFFF" d="M78.079,122.387c0,0.974-0.826,1.799-1.802,1.799s-1.801-0.825-1.801-1.799
			c0-0.975,0.825-1.799,1.801-1.799C77.328,120.588,78.079,121.412,78.079,122.387"/>
		<path clip-path="url(#SVGID_6_)" fill="#FFFFFF" d="M81.531,122.387c0,0.974,0.826,1.799,1.802,1.799
			c0.976,0,1.801-0.825,1.801-1.799c0-0.975-0.826-1.799-1.801-1.799C82.357,120.588,81.531,121.412,81.531,122.387"/>
		<rect x="76.99" y="60.148" clip-path="url(#SVGID_6_)" fill="#FFFFFF" width="7.281" height="1.275"/>
	</g>
</g>
<g>
	<defs>
		<rect id="SVGID_7_" x="-263" y="-166" width="1365.96" height="768"/>
	</defs>
	<clipPath id="SVGID_8_">
		<use xlink:href="#SVGID_7_"  overflow="visible"/>
	</clipPath>
	<g clip-path="url(#SVGID_8_)">
		<defs>
			<rect id="SVGID_9_" x="61.24" y="-4.24" width="38.999" height="39"/>
		</defs>
		<clipPath id="SVGID_10_">
			<use xlink:href="#SVGID_9_"  overflow="visible"/>
		</clipPath>
		<path clip-path="url(#SVGID_10_)" fill="#8042FF" d="M80.755,34.715c10.741,0,19.439-8.698,19.439-19.439
			c0-10.817-8.699-19.516-19.439-19.516c-10.817,0-19.515,8.699-19.515,19.516C61.24,26.017,69.938,34.715,80.755,34.715"/>
		<polygon clip-path="url(#SVGID_10_)" fill="#FFFFFF" points="80.793,26.697 80.793,22.344 87.413,15.801 87.222,16.259 
			87.222,9.073 87.411,9.527 83.629,5.746 84.083,5.934 78.94,5.934 79.398,5.742 74.86,10.356 75.044,9.905 75.044,15.2 
			73.759,15.2 73.759,9.642 78.67,4.648 84.35,4.648 88.508,8.807 88.508,16.527 81.888,23.07 82.079,22.613 82.079,26.697 		"/>
		<g clip-path="url(#SVGID_10_)">
			<defs>
				<rect id="SVGID_11_" x="61.24" y="-4.24" width="38.955" height="38.955"/>
			</defs>
			<clipPath id="SVGID_12_">
				<use xlink:href="#SVGID_11_"  overflow="visible"/>
			</clipPath>
			<path clip-path="url(#SVGID_12_)" fill="#FFFFFF" d="M83.251,32.976c0,0.983-0.757,1.739-1.74,1.739
				c-0.983,0-1.74-0.756-1.74-1.739c0-0.983,0.757-1.74,1.74-1.74C82.495,31.236,83.251,31.992,83.251,32.976"/>
		</g>
	</g>
</g>
<g>
	<defs>
		<rect id="SVGID_13_" x="-263" y="-166" width="1365.96" height="768"/>
	</defs>
	<clipPath id="SVGID_14_">
		<use xlink:href="#SVGID_13_"  overflow="visible"/>
	</clipPath>
	<g clip-path="url(#SVGID_14_)">
		<defs>
			<rect id="SVGID_15_" x="733.36" y="-1.959" width="38.998" height="39"/>
		</defs>
		<clipPath id="SVGID_16_">
			<use xlink:href="#SVGID_15_"  overflow="visible"/>
		</clipPath>
		<path clip-path="url(#SVGID_16_)" fill="#8042FF" d="M752.875,36.995c10.74,0,19.439-8.699,19.439-19.439
			c0-10.816-8.699-19.515-19.439-19.515c-10.816,0-19.515,8.698-19.515,19.515C733.36,28.296,742.059,36.995,752.875,36.995"/>
		<polygon clip-path="url(#SVGID_16_)" fill="#FFFFFF" points="752.912,28.977 752.912,24.624 759.533,18.082 759.342,18.539 
			759.342,11.353 759.53,11.808 755.748,8.025 756.203,8.214 751.06,8.214 751.518,8.022 746.979,12.636 747.164,12.185 
			747.164,17.479 745.878,17.479 745.878,11.922 750.79,6.928 756.469,6.928 760.628,11.086 760.628,18.808 754.008,25.35 
			754.198,24.893 754.198,28.977 		"/>
		<g clip-path="url(#SVGID_16_)">
			<defs>
				<rect id="SVGID_17_" x="733.36" y="-1.959" width="38.954" height="38.955"/>
			</defs>
			<clipPath id="SVGID_18_">
				<use xlink:href="#SVGID_17_"  overflow="visible"/>
			</clipPath>
			<path clip-path="url(#SVGID_18_)" fill="#FFFFFF" d="M755.371,35.255c0,0.983-0.757,1.74-1.74,1.74s-1.739-0.756-1.739-1.74
				s0.756-1.74,1.739-1.74S755.371,34.272,755.371,35.255"/>
		</g>
	</g>
</g>
<path fill="none" stroke="#FFFFFF" stroke-width="1.32" stroke-miterlimit="8" d="M469.03,44.71c28.779,28.78,28.779,75.43,0,104.2
	c-28.771,28.78-75.42,28.78-104.2,0c-28.77-28.77-28.77-75.42,0-104.2C393.61,15.94,440.26,15.94,469.03,44.71z"/>
<g>
	<defs>
		<rect id="SVGID_19_" x="-263" y="-166" width="1365.96" height="768"/>
	</defs>
	<clipPath id="SVGID_20_">
		<use xlink:href="#SVGID_19_"  overflow="visible"/>
	</clipPath>
	<g clip-path="url(#SVGID_20_)">
		<defs>
			<rect id="SVGID_21_" x="373.24" y="53.482" width="82.798" height="84.598"/>
		</defs>
		<clipPath id="SVGID_22_">
			<use xlink:href="#SVGID_21_"  overflow="visible"/>
		</clipPath>
		<g clip-path="url(#SVGID_22_)">
			<defs>
				<rect id="SVGID_23_" x="373.451" y="53.482" width="82.356" height="84.667"/>
			</defs>
			<clipPath id="SVGID_24_">
				<use xlink:href="#SVGID_23_"  overflow="visible"/>
			</clipPath>
			<path clip-path="url(#SVGID_24_)" fill="#FFFFFF" d="M406.685,92.889c1.288,0,2.404-1.033,2.404-2.409
				c0-1.291-1.03-2.409-2.404-2.409c-1.289,0-2.404,1.033-2.404,2.409S405.396,92.889,406.685,92.889"/>
		</g>
		<g clip-path="url(#SVGID_22_)">
			<defs>
				<rect id="SVGID_25_" x="373.451" y="53.482" width="82.356" height="84.667"/>
			</defs>
			<clipPath id="SVGID_26_">
				<use xlink:href="#SVGID_25_"  overflow="visible"/>
			</clipPath>
			<path clip-path="url(#SVGID_26_)" fill="#FFFFFF" d="M422.743,92.201c-0.43-1.205-1.804-1.893-3.005-1.463
				c-1.202,0.43-1.889,1.807-1.46,3.012c0.43,1.205,1.804,1.894,3.006,1.463C422.485,94.783,423.172,93.405,422.743,92.201"/>
		</g>
		<g clip-path="url(#SVGID_22_)">
			<defs>
				<rect id="SVGID_27_" x="373.451" y="53.482" width="82.356" height="84.667"/>
			</defs>
			<clipPath id="SVGID_28_">
				<use xlink:href="#SVGID_27_"  overflow="visible"/>
			</clipPath>
			<path clip-path="url(#SVGID_28_)" fill="#FFFFFF" d="M429.012,91.427c-0.429-1.205-1.803-1.894-3.006-1.463
				c-1.202,0.43-1.889,1.807-1.459,3.012c0.429,1.204,1.803,1.893,3.006,1.462C428.755,94.008,429.441,92.631,429.012,91.427"/>
		</g>
		<g clip-path="url(#SVGID_22_)">
			<defs>
				<rect id="SVGID_29_" x="373.451" y="53.482" width="82.356" height="84.667"/>
			</defs>
			<clipPath id="SVGID_30_">
				<use xlink:href="#SVGID_29_"  overflow="visible"/>
			</clipPath>
			<path clip-path="url(#SVGID_30_)" fill="#FFFFFF" d="M417.075,84.457c-0.429-1.205-1.803-1.893-3.005-1.463
				s-1.889,1.807-1.46,3.012c0.43,1.205,1.804,1.894,3.006,1.463C416.818,87.038,417.505,85.661,417.075,84.457"/>
		</g>
		<g clip-path="url(#SVGID_22_)">
			<defs>
				<rect id="SVGID_31_" x="373.451" y="53.482" width="82.356" height="84.667"/>
			</defs>
			<clipPath id="SVGID_32_">
				<use xlink:href="#SVGID_31_"  overflow="visible"/>
			</clipPath>
			<path clip-path="url(#SVGID_32_)" fill="#FFFFFF" d="M421.799,78.777c-0.43-1.205-1.803-1.893-3.006-1.462
				c-1.202,0.43-1.889,1.807-1.459,3.011c0.429,1.205,1.803,1.894,3.005,1.463C421.541,81.359,422.229,79.982,421.799,78.777"/>
		</g>
		<g clip-path="url(#SVGID_22_)">
			<defs>
				<rect id="SVGID_33_" x="373.451" y="53.482" width="82.356" height="84.667"/>
			</defs>
			<clipPath id="SVGID_34_">
				<use xlink:href="#SVGID_33_"  overflow="visible"/>
			</clipPath>
			<path clip-path="url(#SVGID_34_)" fill="#FFFFFF" d="M420.854,125.071c0.601,1.118,2.061,1.635,3.177,0.946
				c1.116-0.602,1.546-2.065,0.944-3.183c-0.601-1.119-2.061-1.635-3.177-0.947C420.683,122.489,420.253,123.952,420.854,125.071"/>
		</g>
		<g clip-path="url(#SVGID_22_)">
			<defs>
				<rect id="SVGID_35_" x="373.451" y="53.482" width="82.356" height="84.667"/>
			</defs>
			<clipPath id="SVGID_36_">
				<use xlink:href="#SVGID_35_"  overflow="visible"/>
			</clipPath>
			<path clip-path="url(#SVGID_36_)" fill="#FFFFFF" d="M403.507,129.028c0.945,0.861,2.49,0.775,3.349-0.258
				c0.858-0.947,0.773-2.495-0.257-3.355c-0.945-0.86-2.491-0.775-3.349,0.257C402.391,126.706,402.563,128.168,403.507,129.028"/>
		</g>
		<g clip-path="url(#SVGID_22_)">
			<defs>
				<rect id="SVGID_37_" x="373.451" y="53.482" width="82.356" height="84.667"/>
			</defs>
			<clipPath id="SVGID_38_">
				<use xlink:href="#SVGID_37_"  overflow="visible"/>
			</clipPath>
			<path clip-path="url(#SVGID_38_)" fill="#FFFFFF" d="M431.502,116.208c0.602,1.119,2.062,1.549,3.178,0.947
				c1.116-0.603,1.546-2.065,0.945-3.184c-0.602-1.119-2.062-1.635-3.178-0.947C431.245,113.626,430.815,115.089,431.502,116.208"/>
		</g>
		<g clip-path="url(#SVGID_22_)">
			<defs>
				<rect id="SVGID_39_" x="373.451" y="53.482" width="82.356" height="84.667"/>
			</defs>
			<clipPath id="SVGID_40_">
				<use xlink:href="#SVGID_39_"  overflow="visible"/>
			</clipPath>
			<path clip-path="url(#SVGID_40_)" fill="#FFFFFF" d="M410.292,116.982c0.944,0.86,2.49,0.774,3.349-0.258
				c0.859-0.946,0.772-2.496-0.258-3.356c-0.945-0.86-2.49-0.774-3.349,0.258C409.175,114.573,409.261,116.122,410.292,116.982"/>
		</g>
		<g clip-path="url(#SVGID_22_)">
			<defs>
				<rect id="SVGID_41_" x="373.451" y="53.482" width="82.356" height="84.667"/>
			</defs>
			<clipPath id="SVGID_42_">
				<use xlink:href="#SVGID_41_"  overflow="visible"/>
			</clipPath>
			<path clip-path="url(#SVGID_42_)" fill="#FFFFFF" d="M452.797,105.882c0.862-0.947,0.862-2.41-0.086-3.355
				c-0.941-0.861-2.486-0.861-3.349,0.085c-0.854,0.947-0.854,2.496,0.086,3.356C450.397,106.915,451.942,106.829,452.797,105.882"
				/>
		</g>
		<g clip-path="url(#SVGID_22_)">
			<defs>
				<rect id="SVGID_43_" x="373.451" y="53.482" width="82.356" height="84.667"/>
			</defs>
			<clipPath id="SVGID_44_">
				<use xlink:href="#SVGID_43_"  overflow="visible"/>
			</clipPath>
			<path clip-path="url(#SVGID_44_)" fill="#FFFFFF" d="M382.382,106.656c1.289,0,2.405-1.032,2.405-2.409
				c0-1.291-1.031-2.409-2.405-2.409c-1.374,0-2.318,1.118-2.318,2.409C380.063,105.624,381.094,106.656,382.382,106.656"/>
		</g>
		<g clip-path="url(#SVGID_22_)">
			<defs>
				<rect id="SVGID_45_" x="373.451" y="53.482" width="82.356" height="84.667"/>
			</defs>
			<clipPath id="SVGID_46_">
				<use xlink:href="#SVGID_45_"  overflow="visible"/>
			</clipPath>
			<path clip-path="url(#SVGID_46_)" fill="#FFFFFF" d="M389.252,71.549c1.288,0,2.404-1.032,2.404-2.409
				c0-1.291-1.03-2.409-2.404-2.409c-1.288,0-2.404,1.032-2.404,2.409C386.933,70.517,387.964,71.549,389.252,71.549"/>
		</g>
		<g clip-path="url(#SVGID_22_)">
			<defs>
				<rect id="SVGID_47_" x="373.451" y="53.482" width="82.356" height="84.667"/>
			</defs>
			<clipPath id="SVGID_48_">
				<use xlink:href="#SVGID_47_"  overflow="visible"/>
			</clipPath>
			<path clip-path="url(#SVGID_48_)" fill="#FFFFFF" d="M408.23,115.605c-0.429-1.205-1.717-1.893-3.005-1.462
				c-1.202,0.43-1.889,1.808-1.459,3.012c0.429,1.205,1.803,1.893,3.006,1.462C407.973,118.187,408.66,116.811,408.23,115.605"/>
		</g>
		<g clip-path="url(#SVGID_22_)">
			<defs>
				<rect id="SVGID_49_" x="373.451" y="53.482" width="82.356" height="84.667"/>
			</defs>
			<clipPath id="SVGID_50_">
				<use xlink:href="#SVGID_49_"  overflow="visible"/>
			</clipPath>
			<path clip-path="url(#SVGID_50_)" fill="#FFFFFF" d="M431.502,99.687c0.602,1.118,2.062,1.634,3.178,0.946
				c1.116-0.602,1.546-2.065,0.945-3.184c-0.602-1.118-2.062-1.634-3.178-0.946C431.245,97.105,430.815,98.568,431.502,99.687"/>
		</g>
		<g clip-path="url(#SVGID_22_)">
			<defs>
				<rect id="SVGID_51_" x="373.451" y="53.482" width="82.356" height="84.667"/>
			</defs>
			<clipPath id="SVGID_52_">
				<use xlink:href="#SVGID_51_"  overflow="visible"/>
			</clipPath>
			<path clip-path="url(#SVGID_52_)" fill="#FFFFFF" d="M404.366,101.494c0.945,0.861,2.491,0.774,3.349-0.258
				c0.859-0.947,0.773-2.496-0.257-3.356c-0.945-0.86-2.49-0.775-3.349,0.258C403.25,99.171,403.335,100.633,404.366,101.494"/>
		</g>
		<g clip-path="url(#SVGID_22_)">
			<defs>
				<rect id="SVGID_53_" x="373.451" y="53.482" width="82.356" height="84.667"/>
			</defs>
			<clipPath id="SVGID_54_">
				<use xlink:href="#SVGID_53_"  overflow="visible"/>
			</clipPath>
			<path clip-path="url(#SVGID_54_)" fill="#FFFFFF" d="M432.447,67.592c0.858-0.947,0.858-2.41-0.086-3.353
				c-0.944-0.864-2.491-0.864-3.35,0.086c-0.858,0.943-0.858,2.492,0.086,3.352C430.042,68.624,431.502,68.538,432.447,67.592"/>
		</g>
		<g clip-path="url(#SVGID_22_)">
			<defs>
				<rect id="SVGID_55_" x="373.451" y="53.482" width="82.356" height="84.667"/>
			</defs>
			<clipPath id="SVGID_56_">
				<use xlink:href="#SVGID_55_"  overflow="visible"/>
			</clipPath>
			<path clip-path="url(#SVGID_56_)" fill="#FFFFFF" d="M391.656,84.284c1.288,0,2.405-1.032,2.405-2.323
				c0-1.29-1.03-2.323-2.405-2.323c-1.288,0-2.404,1.033-2.404,2.323C389.252,83.166,390.369,84.284,391.656,84.284"/>
		</g>
		<g clip-path="url(#SVGID_22_)">
			<defs>
				<rect id="SVGID_57_" x="373.451" y="53.482" width="82.356" height="84.667"/>
			</defs>
			<clipPath id="SVGID_58_">
				<use xlink:href="#SVGID_57_"  overflow="visible"/>
			</clipPath>
			<path clip-path="url(#SVGID_58_)" fill="#FFFFFF" d="M424.203,98.827c-0.43-1.205-1.804-1.894-3.006-1.463
				c-1.202,0.43-1.889,1.807-1.459,3.012c0.429,1.205,1.803,1.893,3.005,1.463C423.945,101.408,424.633,100.031,424.203,98.827"/>
		</g>
		<g clip-path="url(#SVGID_22_)">
			<defs>
				<rect id="SVGID_59_" x="373.451" y="53.482" width="82.356" height="84.667"/>
			</defs>
			<clipPath id="SVGID_60_">
				<use xlink:href="#SVGID_59_"  overflow="visible"/>
			</clipPath>
			<path clip-path="url(#SVGID_60_)" fill="#FFFFFF" d="M397.239,103.301c-0.859-1.033-2.319-1.118-3.349-0.258
				c-1.031,0.86-1.117,2.323-0.258,3.355c0.859,1.033,2.319,1.118,3.349,0.258C397.926,105.796,398.097,104.333,397.239,103.301"/>
		</g>
		<g clip-path="url(#SVGID_22_)">
			<defs>
				<rect id="SVGID_61_" x="373.451" y="53.482" width="82.356" height="84.667"/>
			</defs>
			<clipPath id="SVGID_62_">
				<use xlink:href="#SVGID_61_"  overflow="visible"/>
			</clipPath>
			<path clip-path="url(#SVGID_62_)" fill="#FFFFFF" d="M421.369,107.775c0.601,1.119,2.061,1.635,3.178,0.947
				c1.116-0.603,1.546-2.066,0.944-3.184c-0.601-1.119-2.062-1.635-3.178-0.947C421.197,105.194,420.768,106.571,421.369,107.775"/>
		</g>
		<g clip-path="url(#SVGID_22_)">
			<defs>
				<rect id="SVGID_63_" x="373.451" y="53.482" width="82.356" height="84.667"/>
			</defs>
			<clipPath id="SVGID_64_">
				<use xlink:href="#SVGID_63_"  overflow="visible"/>
			</clipPath>
			<path clip-path="url(#SVGID_64_)" fill="#FFFFFF" d="M397.839,112.68c0.945,0.86,2.49,0.775,3.349-0.258
				c0.858-0.947,0.773-2.495-0.257-3.355c-0.945-0.861-2.49-0.775-3.349,0.257C396.724,110.271,396.809,111.819,397.839,112.68"/>
		</g>
		<g clip-path="url(#SVGID_22_)">
			<defs>
				<rect id="SVGID_65_" x="373.451" y="53.482" width="82.356" height="84.667"/>
			</defs>
			<clipPath id="SVGID_66_">
				<use xlink:href="#SVGID_65_"  overflow="visible"/>
			</clipPath>
			<path clip-path="url(#SVGID_66_)" fill="#FFFFFF" d="M443.267,74.476c0.859-0.947,0.859-2.41-0.085-3.356
				c-0.945-0.86-2.49-0.86-3.35,0.085c-0.858,0.947-0.858,2.496,0.086,3.356C440.948,75.508,442.408,75.421,443.267,74.476"/>
		</g>
		<g clip-path="url(#SVGID_22_)">
			<defs>
				<rect id="SVGID_67_" x="373.451" y="53.482" width="82.356" height="84.667"/>
			</defs>
			<clipPath id="SVGID_68_">
				<use xlink:href="#SVGID_67_"  overflow="visible"/>
			</clipPath>
			<path clip-path="url(#SVGID_68_)" fill="#FFFFFF" d="M397.582,75.68c1.288,0,2.404-1.032,2.404-2.41
				c0-1.29-1.03-2.409-2.404-2.409c-1.288,0-2.405,1.032-2.405,2.409C395.177,74.561,396.294,75.68,397.582,75.68"/>
		</g>
		<g clip-path="url(#SVGID_22_)">
			<defs>
				<rect id="SVGID_69_" x="373.451" y="53.482" width="82.356" height="84.667"/>
			</defs>
			<clipPath id="SVGID_70_">
				<use xlink:href="#SVGID_69_"  overflow="visible"/>
			</clipPath>
			<path clip-path="url(#SVGID_70_)" fill="#FFFFFF" d="M409.433,106.398c-0.43-1.204-1.804-1.894-3.006-1.463
				c-1.203,0.431-1.89,1.807-1.46,3.012c0.429,1.205,1.803,1.893,3.005,1.463S409.862,107.689,409.433,106.398"/>
		</g>
		<g clip-path="url(#SVGID_22_)">
			<defs>
				<rect id="SVGID_71_" x="373.451" y="53.482" width="82.356" height="84.667"/>
			</defs>
			<clipPath id="SVGID_72_">
				<use xlink:href="#SVGID_71_"  overflow="visible"/>
			</clipPath>
			<path clip-path="url(#SVGID_72_)" fill="#FFFFFF" d="M431.76,108.98c0.602,1.119,2.062,1.548,3.178,0.947
				c1.116-0.603,1.546-2.066,0.944-3.184c-0.601-1.205-1.976-1.635-3.178-1.032C431.589,106.398,431.159,107.775,431.76,108.98"/>
		</g>
		<g clip-path="url(#SVGID_22_)">
			<defs>
				<rect id="SVGID_73_" x="373.451" y="53.482" width="82.356" height="84.667"/>
			</defs>
			<clipPath id="SVGID_74_">
				<use xlink:href="#SVGID_73_"  overflow="visible"/>
			</clipPath>
			<path clip-path="url(#SVGID_74_)" fill="#FFFFFF" d="M413.297,110.787c0.944,0.86,2.49,0.774,3.349-0.259
				c0.858-0.946,0.772-2.495-0.258-3.355c-0.945-0.86-2.491-0.774-3.349,0.258C412.181,108.463,412.353,109.927,413.297,110.787"/>
		</g>
		<g clip-path="url(#SVGID_22_)">
			<defs>
				<rect id="SVGID_75_" x="373.451" y="53.482" width="82.356" height="84.667"/>
			</defs>
			<clipPath id="SVGID_76_">
				<use xlink:href="#SVGID_75_"  overflow="visible"/>
			</clipPath>
			<path clip-path="url(#SVGID_76_)" fill="#FFFFFF" d="M373.709,120.94c0.601,1.205,2.061,1.635,3.177,1.033
				c1.116-0.602,1.545-2.065,0.944-3.184c-0.601-1.118-2.061-1.635-3.177-0.946C373.537,118.359,373.107,119.822,373.709,120.94"/>
		</g>
		<g clip-path="url(#SVGID_22_)">
			<defs>
				<rect id="SVGID_77_" x="373.451" y="53.482" width="82.356" height="84.667"/>
			</defs>
			<clipPath id="SVGID_78_">
				<use xlink:href="#SVGID_77_"  overflow="visible"/>
			</clipPath>
			<path clip-path="url(#SVGID_78_)" fill="#FFFFFF" d="M412.524,104.419c0.945,0.86,2.49,0.775,3.349-0.258
				c0.859-0.946,0.773-2.495-0.258-3.356c-0.944-0.86-2.49-0.774-3.349,0.258C411.494,102.096,411.579,103.559,412.524,104.419"/>
		</g>
		<g clip-path="url(#SVGID_22_)">
			<defs>
				<rect id="SVGID_79_" x="373.451" y="53.482" width="82.356" height="84.667"/>
			</defs>
			<clipPath id="SVGID_80_">
				<use xlink:href="#SVGID_79_"  overflow="visible"/>
			</clipPath>
			<path clip-path="url(#SVGID_80_)" fill="#FFFFFF" d="M414.241,80.499c0.859-0.947,0.859-2.41-0.085-3.356
				c-0.945-0.861-2.49-0.861-3.349,0.085c-0.858,0.947-0.858,2.496,0.086,3.356C411.837,81.531,413.297,81.445,414.241,80.499"/>
		</g>
		<g clip-path="url(#SVGID_22_)">
			<defs>
				<rect id="SVGID_81_" x="373.451" y="53.482" width="82.356" height="84.667"/>
			</defs>
			<clipPath id="SVGID_82_">
				<use xlink:href="#SVGID_81_"  overflow="visible"/>
			</clipPath>
			<path clip-path="url(#SVGID_82_)" fill="#FFFFFF" d="M414.413,136.945c0.602,1.119,2.062,1.549,3.178,0.947
				c1.116-0.603,1.545-2.065,0.945-3.184c-0.602-1.119-2.061-1.635-3.178-0.947C414.241,134.364,413.727,135.74,414.413,136.945"/>
		</g>
		<g clip-path="url(#SVGID_22_)">
			<defs>
				<rect id="SVGID_83_" x="373.451" y="53.482" width="82.356" height="84.667"/>
			</defs>
			<clipPath id="SVGID_84_">
				<use xlink:href="#SVGID_83_"  overflow="visible"/>
			</clipPath>
			<path clip-path="url(#SVGID_84_)" fill="#FFFFFF" d="M449.018,133.073c0.604,1.119,2.063,1.635,3.184,0.947
				c1.113-0.603,1.544-2.065,0.94-3.184s-2.062-1.635-3.176-0.946C448.853,130.491,448.421,131.954,449.018,133.073"/>
		</g>
		<g clip-path="url(#SVGID_22_)">
			<defs>
				<rect id="SVGID_85_" x="373.451" y="53.482" width="82.356" height="84.667"/>
			</defs>
			<clipPath id="SVGID_86_">
				<use xlink:href="#SVGID_85_"  overflow="visible"/>
			</clipPath>
			<path clip-path="url(#SVGID_86_)" fill="#FFFFFF" d="M441.894,129.803c0.601,1.119,2.061,1.635,3.177,0.947
				c1.116-0.603,1.547-2.066,0.943-3.184c-0.596-1.119-2.06-1.635-3.176-0.947C441.722,127.222,441.206,128.684,441.894,129.803"/>
		</g>
		<g clip-path="url(#SVGID_22_)">
			<defs>
				<rect id="SVGID_87_" x="373.451" y="53.482" width="82.356" height="84.667"/>
			</defs>
			<clipPath id="SVGID_88_">
				<use xlink:href="#SVGID_87_"  overflow="visible"/>
			</clipPath>
			<path clip-path="url(#SVGID_88_)" fill="#FFFFFF" d="M455.204,80.499c0.855-0.947,0.855-2.41-0.086-3.356
				c-0.941-0.861-2.493-0.861-3.349,0.085c-0.862,0.947-0.862,2.496,0.086,3.356C452.797,81.531,454.256,81.445,455.204,80.499"/>
		</g>
		<g clip-path="url(#SVGID_22_)">
			<defs>
				<rect id="SVGID_89_" x="373.451" y="53.482" width="82.356" height="84.667"/>
			</defs>
			<clipPath id="SVGID_90_">
				<use xlink:href="#SVGID_89_"  overflow="visible"/>
			</clipPath>
			<path clip-path="url(#SVGID_90_)" fill="#FFFFFF" d="M434.766,84.457c0.859-0.947,0.859-2.409-0.086-3.356
				c-0.945-0.86-2.49-0.86-3.35,0.086c-0.858,0.946-0.858,2.495,0.087,3.356C432.447,85.489,433.906,85.403,434.766,84.457"/>
		</g>
		<g clip-path="url(#SVGID_22_)">
			<defs>
				<rect id="SVGID_91_" x="373.451" y="53.482" width="82.356" height="84.667"/>
			</defs>
			<clipPath id="SVGID_92_">
				<use xlink:href="#SVGID_91_"  overflow="visible"/>
			</clipPath>
			<path clip-path="url(#SVGID_92_)" fill="#FFFFFF" d="M424.547,87.382c0.858-0.946,0.858-2.409-0.086-3.355
				c-0.944-0.861-2.491-0.861-3.35,0.085s-0.858,2.496,0.086,3.356C422.142,88.415,423.688,88.415,424.547,87.382"/>
		</g>
		<g clip-path="url(#SVGID_22_)">
			<defs>
				<rect id="SVGID_93_" x="373.451" y="53.482" width="82.356" height="84.667"/>
			</defs>
			<clipPath id="SVGID_94_">
				<use xlink:href="#SVGID_93_"  overflow="visible"/>
			</clipPath>
			<path clip-path="url(#SVGID_94_)" fill="#FFFFFF" d="M426.006,117.499c1.289,0,2.405-1.032,2.405-2.41
				c0-1.29-1.03-2.409-2.405-2.409c-1.287,0-2.404,1.033-2.404,2.409C423.688,116.466,424.719,117.499,426.006,117.499"/>
		</g>
		<g clip-path="url(#SVGID_22_)">
			<defs>
				<rect id="SVGID_95_" x="373.451" y="53.482" width="82.356" height="84.667"/>
			</defs>
			<clipPath id="SVGID_96_">
				<use xlink:href="#SVGID_95_"  overflow="visible"/>
			</clipPath>
			<path clip-path="url(#SVGID_96_)" fill="#FFFFFF" d="M400.244,100.805c1.202-0.43,1.803-1.807,1.374-3.097
				c-0.43-1.205-1.804-1.808-3.092-1.377c-1.202,0.43-1.803,1.807-1.374,3.098C397.667,100.633,399.042,101.236,400.244,100.805"/>
		</g>
		<g clip-path="url(#SVGID_22_)">
			<defs>
				<rect id="SVGID_97_" x="373.451" y="53.482" width="82.356" height="84.667"/>
			</defs>
			<clipPath id="SVGID_98_">
				<use xlink:href="#SVGID_97_"  overflow="visible"/>
			</clipPath>
			<path clip-path="url(#SVGID_98_)" fill="#FFFFFF" d="M416.475,93.75c-0.43-1.205-1.804-1.893-3.006-1.462
				c-1.203,0.43-1.89,1.806-1.46,3.012c0.429,1.205,1.804,1.893,3.006,1.462C416.302,96.331,416.904,95.04,416.475,93.75"/>
		</g>
		<g clip-path="url(#SVGID_22_)">
			<defs>
				<rect id="SVGID_99_" x="373.451" y="53.482" width="82.356" height="84.667"/>
			</defs>
			<clipPath id="SVGID_100_">
				<use xlink:href="#SVGID_99_"  overflow="visible"/>
			</clipPath>
			<path clip-path="url(#SVGID_100_)" fill="#FFFFFF" d="M411.751,55.117c-0.429-1.209-1.803-1.894-3.006-1.461
				c-1.202,0.424-1.889,1.807-1.459,3.009c0.429,1.202,1.803,1.894,3.005,1.461C411.579,57.694,412.181,56.319,411.751,55.117"/>
		</g>
	</g>
</g>
<g>
	<defs>
		<rect id="SVGID_101_" x="-263" y="-166" width="1365.96" height="768"/>
	</defs>
	<clipPath id="SVGID_102_">
		<use xlink:href="#SVGID_101_"  overflow="visible"/>
	</clipPath>
	<g clip-path="url(#SVGID_102_)">
		<defs>
			<rect id="SVGID_103_" x="397.12" y="0.681" width="38.999" height="39"/>
		</defs>
		<clipPath id="SVGID_104_">
			<use xlink:href="#SVGID_103_"  overflow="visible"/>
		</clipPath>
		<path clip-path="url(#SVGID_104_)" fill="#8042FF" d="M416.635,39.635c10.741,0,19.439-8.699,19.439-19.439
			c0-10.817-8.698-19.516-19.439-19.516c-10.817,0-19.515,8.699-19.515,19.516C397.12,30.937,405.819,39.635,416.635,39.635"/>
		<polygon clip-path="url(#SVGID_104_)" fill="#FFFFFF" points="416.673,31.617 416.673,27.264 423.293,20.722 423.103,21.179 
			423.103,13.993 423.291,14.447 419.509,10.666 419.963,10.854 414.82,10.854 415.278,10.662 410.74,15.276 410.925,14.825 
			410.925,20.12 409.639,20.12 409.639,14.562 414.55,9.568 420.229,9.568 424.389,13.727 424.389,21.447 417.768,27.99 
			417.959,27.533 417.959,31.617 		"/>
		<g clip-path="url(#SVGID_104_)">
			<defs>
				<rect id="SVGID_105_" x="397.12" y="0.68" width="38.954" height="38.955"/>
			</defs>
			<clipPath id="SVGID_106_">
				<use xlink:href="#SVGID_105_"  overflow="visible"/>
			</clipPath>
			<path clip-path="url(#SVGID_106_)" fill="#FFFFFF" d="M419.131,37.896c0,0.983-0.757,1.74-1.74,1.74
				c-0.983,0-1.74-0.756-1.74-1.74s0.757-1.74,1.74-1.74C418.375,36.156,419.131,36.912,419.131,37.896"/>
		</g>
	</g>
</g>
<path fill="none" stroke="#FFFFFF" stroke-width="1.32" stroke-miterlimit="8" d="M806.02,46.12c28.761,28.76,28.761,75.39,0,104.14
	c-28.75,28.76-75.38,28.76-104.14,0c-28.76-28.75-28.76-75.38,0-104.14C730.64,17.36,777.27,17.36,806.02,46.12z"/>
<g>
	<defs>
		<rect id="SVGID_107_" x="-263" y="-166" width="1365.96" height="768"/>
	</defs>
	<clipPath id="SVGID_108_">
		<use xlink:href="#SVGID_107_"  overflow="visible"/>
	</clipPath>
	<g clip-path="url(#SVGID_108_)">
		<defs>
			<rect id="SVGID_109_" x="702.04" y="45.685" width="101.883" height="102.835"/>
		</defs>
		<clipPath id="SVGID_110_">
			<use xlink:href="#SVGID_109_"  overflow="visible"/>
		</clipPath>
		<polygon clip-path="url(#SVGID_110_)" fill="#FFFFFF" points="788.356,82.713 800.292,82.713 803.857,86.147 803.857,89.832 
			800.822,93.167 799.811,92.249 802.666,89.109 802.495,89.568 802.495,86.438 802.699,86.93 799.542,83.888 800.015,84.079 
			788.356,84.079 		"/>
		<g clip-path="url(#SVGID_110_)">
			<defs>
				<rect id="SVGID_111_" x="702.04" y="46.139" width="101.817" height="101.905"/>
			</defs>
			<clipPath id="SVGID_112_">
				<use xlink:href="#SVGID_111_"  overflow="visible"/>
			</clipPath>
			<path clip-path="url(#SVGID_112_)" fill="#FFFFFF" d="M797.453,79.739v3.88h-1.362v-3.88H797.453z M796.091,105.881v-4.261h1.362
				v4.261H796.091z M792.134,91.849h8.183l3.549,3.726v3.14l-3.246,3.413h-12.263v-1.365h11.969l-0.489,0.212l2.855-3.003
				l-0.188,0.471v-2.594l0.188,0.471l-3.158-3.315l0.49,0.211h-7.89V91.849z"/>
		</g>
		<path clip-path="url(#SVGID_110_)" fill="#FFFFFF" d="M794.451,101.455v4.426h-1.363v-4.426H794.451z M792.607,83.61v17.835
			h-1.363V83.61H792.607z M794.451,79.739v3.871h-1.363v-3.871H794.451z"/>
		<path clip-path="url(#SVGID_110_)" fill="#FFFFFF" d="M767.743,84.804l-4.718-4.826l0.592,0.249h-5.429h-9.28l0.553-0.211
			l-6.96,6.241l0.275-0.618v6.923l-0.236-0.579l6.103,6.24l-0.592-0.249h4.503h0.321h11.462l6.583,6.731v7.6l-6.583,6.731h-17.834
			l-5.508-5.632l1.185-1.159l5.264,5.383l-0.592-0.25h17.137l-0.593,0.25l6.103-6.241l-0.236,0.58v-6.923l0.236,0.58l-6.103-6.241
			l0.593,0.249h-11.113h-0.321h-4.852l-6.582-6.731v-7.631l7.472-6.7h9.597h5.778l4.962,5.076L767.743,84.804z M755.011,126.534
			v-11.525V71.081h1.656v43.928v11.525H755.011z"/>
		<g clip-path="url(#SVGID_110_)">
			<defs>
				<rect id="SVGID_113_" x="702.04" y="46.139" width="101.817" height="101.905"/>
			</defs>
			<clipPath id="SVGID_114_">
				<use xlink:href="#SVGID_113_"  overflow="visible"/>
			</clipPath>
			<rect x="702.04" y="105.862" clip-path="url(#SVGID_114_)" fill="#FFFFFF" width="12.809" height="1.365"/>
		</g>
		<g clip-path="url(#SVGID_110_)">
			<defs>
				<rect id="SVGID_115_" x="702.04" y="46.139" width="101.817" height="101.905"/>
			</defs>
			<clipPath id="SVGID_116_">
				<use xlink:href="#SVGID_115_"  overflow="visible"/>
			</clipPath>
			<rect x="702.04" y="108.729" clip-path="url(#SVGID_116_)" fill="#FFFFFF" width="12.809" height="1.365"/>
		</g>
		<polygon clip-path="url(#SVGID_110_)" fill="#FFFFFF" points="716.363,103.212 714.696,101.535 715.18,101.737 709.312,101.737 
			709.795,101.536 705.643,105.7 705.842,105.218 705.842,111.098 705.642,110.615 709.794,114.769 709.312,114.569 715.18,114.569 
			714.713,114.754 716.379,113.185 717.315,114.179 715.451,115.935 709.029,115.935 704.477,111.381 704.477,104.936 
			709.029,100.372 715.464,100.372 717.331,102.25 		"/>
		<polygon clip-path="url(#SVGID_110_)" fill="#FFFFFF" points="729.149,46.142 735.662,54.857 734.568,54.857 741.09,46.142 
			742.183,46.958 735.114,56.408 728.057,46.958 		"/>
		<rect x="734.433" y="55.439" clip-path="url(#SVGID_110_)" fill="#FFFFFF" width="1.364" height="13.447"/>
		<rect x="729.129" y="55.271" clip-path="url(#SVGID_110_)" fill="#FFFFFF" width="11.98" height="1.365"/>
		<rect x="729.129" y="59.531" clip-path="url(#SVGID_110_)" fill="#FFFFFF" width="11.98" height="1.365"/>
		<polygon clip-path="url(#SVGID_110_)" fill="#FFFFFF" points="762.282,142.922 766.454,142.922 766.087,143.088 767.676,141.284 
			767.553,141.608 767.553,139.619 767.677,139.944 766.088,138.15 766.454,138.315 762.282,138.315 762.772,137.825 
			762.772,148.024 761.793,148.024 761.793,137.335 766.676,137.335 768.534,139.433 768.534,141.793 766.676,143.902 
			762.282,143.902 		"/>
		<g clip-path="url(#SVGID_110_)">
			<defs>
				<rect id="SVGID_117_" x="702.04" y="46.139" width="101.817" height="101.905"/>
			</defs>
			<clipPath id="SVGID_118_">
				<use xlink:href="#SVGID_117_"  overflow="visible"/>
			</clipPath>
			
				<polyline clip-path="url(#SVGID_118_)" fill="none" stroke="#FFFFFF" stroke-width="1.1424" stroke-linejoin="bevel" stroke-miterlimit="8" points="
				779.322,147.791 779.322,137.357 786.007,147.791 786.007,137.357 			"/>
		</g>
		<polygon clip-path="url(#SVGID_110_)" fill="#FFFFFF" points="771.877,137.113 771.877,147.322 771.387,146.832 776.418,146.832 
			776.418,147.813 770.897,147.813 770.897,137.113 		"/>
	</g>
</g>
</svg>
