<?xml version="1.0" encoding="utf-8"?>
<!-- Generator: Adobe Illustrator 16.0.0, SVG Export Plug-In . SVG Version: 6.00 Build 0)  -->
<!DOCTYPE svg PUBLIC "-//W3C//DTD SVG 1.1//EN" "http://www.w3.org/Graphics/SVG/1.1/DTD/svg11.dtd">
<svg version="1.1" id="Layer_1" xmlns="http://www.w3.org/2000/svg" xmlns:xlink="http://www.w3.org/1999/xlink" x="0px" y="0px"
	 width="155.5px" height="185.5px" viewBox="0 0 155.5 185.5" enable-background="new 0 0 155.5 185.5" xml:space="preserve">
<rect x="-266" y="-156.5" fill-rule="evenodd" clip-rule="evenodd" fill="none" width="1365.96" height="768"/>
<rect x="-266" y="-156.5" fill-rule="evenodd" clip-rule="evenodd" fill="none" width="1365.96" height="768"/>
<rect x="-266" y="-156.5" fill-rule="evenodd" clip-rule="evenodd" fill="none" width="1365.96" height="768"/>
<g>
	<defs>
		<rect id="SVGID_1_" x="-266" y="-156.5" width="1365.96" height="768"/>
	</defs>
	<clipPath id="SVGID_2_">
		<use xlink:href="#SVGID_1_"  overflow="visible"/>
	</clipPath>
	<g clip-path="url(#SVGID_2_)">
		<defs>
			<rect id="SVGID_3_" x="3.28" y="31.058" width="148.558" height="148.442"/>
		</defs>
		<clipPath id="SVGID_4_">
			<use xlink:href="#SVGID_3_"  overflow="visible"/>
		</clipPath>
		<path clip-path="url(#SVGID_4_)" fill="#8042FF" d="M77.556,178.892c40.666,0,73.675-32.986,73.675-73.616
			c0-40.634-33.009-73.618-73.675-73.618c-40.664,0-73.601,32.983-73.601,73.618C3.955,145.98,36.892,178.892,77.556,178.892"/>
		<path clip-path="url(#SVGID_4_)" fill="#FFFFFF" d="M150.236,97.794l0.006,0.069l-1.126-7.313l0.013,0.063l-1.827-7.032
			l0.012,0.056l-2.439-6.8l0.031,0.063l-3.146-6.419l0.031,0.05l-3.659-6.094l0.038,0.056l-4.272-5.625l0.038,0.038l-4.742-5.25
			l0.044,0.05l-5.205-4.738l0.044,0.038l-5.673-4.263l0.056,0.038l-6.099-3.657l0.044,0.025l-6.424-3.144l0.063,0.031l-6.755-2.438
			l0.056,0.013l-7.087-1.825l0.063,0.013l-7.269-1.125l0.063,0.006l-7.55-0.375h0.063l-7.55,0.375l0.063-0.006l-7.319,1.125
			l0.064-0.013l-7.037,1.825l0.054-0.013l-6.803,2.438l0.065-0.031l-6.427,3.144l0.048-0.025l-6.099,3.657l0.057-0.044l-5.63,4.269
			l0.042-0.038l-5.254,4.738l0.046-0.05l-4.738,5.25l0.035-0.038l-4.269,5.625l0.039-0.056l-3.659,6.094l0.025-0.05l-3.143,6.419
			l0.027-0.063l-2.439,6.8l0.017-0.056l-1.83,7.032l0.013-0.063l-1.126,7.313l0.006-0.069l-0.375,7.551v-0.063l0.375,7.544
			l-0.007-0.068l1.126,7.269l-0.013-0.062l1.83,7.079l-0.018-0.057l2.439,6.75l-0.027-0.063l3.143,6.422l-0.025-0.048l3.659,6.094
			l-0.038-0.055l4.27,5.672l-0.038-0.046l4.738,5.204l-0.044-0.044l5.254,4.735l-0.042-0.035l5.63,4.266l-0.057-0.039l6.099,3.656
			l-0.048-0.026l6.428,3.141l-0.065-0.027l6.803,2.438l-0.054-0.017l7.037,1.828l-0.064-0.013l7.319,1.125l-0.063-0.007l7.55,0.375
			h-0.063l7.55-0.375l-0.063,0.007l7.269-1.125l-0.063,0.013l7.087-1.829l-0.056,0.018l6.755-2.438l-0.063,0.027l6.424-3.141
			l-0.044,0.026l6.099-3.656l-0.056,0.037l5.673-4.266l-0.044,0.038l5.205-4.735l-0.038,0.042l4.735-5.204l-0.038,0.046l4.266-5.672
			l-0.031,0.055l3.659-6.094l-0.031,0.048l3.146-6.422l-0.025,0.063l2.439-6.75l-0.019,0.058l1.827-7.079l-0.013,0.062l1.126-7.269
			l-0.006,0.068l0.375-7.544v0.063L150.236,97.794z M151.887,105.313l-0.375,7.606l-1.138,7.333l-1.845,7.138l-2.458,6.811
			l-3.171,6.478l-3.69,6.146l-4.31,5.723l-4.779,5.248l-5.248,4.774l-5.73,4.304l-6.149,3.688l-6.487,3.167l-6.812,2.46
			l-7.144,1.843l-7.337,1.135l-7.619,0.378l-7.619-0.378l-7.382-1.135l-7.097-1.843l-6.863-2.459l-6.483-3.168l-6.152-3.688
			l-5.679-4.304l-5.298-4.774l-4.779-5.249l-4.307-5.723l-3.69-6.146l-3.17-6.478l-2.462-6.811l-1.845-7.138l-1.136-7.333
			l-0.378-7.606L3.629,97.7l1.136-7.382L6.61,83.23l2.461-6.857l3.171-6.481l3.691-6.144l4.307-5.676l4.779-5.294l5.299-4.775
			l5.679-4.307l6.152-3.688l6.483-3.169l6.863-2.457l7.097-1.844l7.382-1.137l7.619-0.375l7.619,0.375l7.337,1.137l7.144,1.844
			l6.812,2.462l6.487,3.163l6.149,3.688l5.73,4.307l5.248,4.775l4.779,5.294l4.31,5.676l3.69,6.144l3.171,6.482l2.458,6.856
			l1.845,7.088l1.138,7.382L151.887,105.313z"/>
		<rect x="68.886" y="95.675" clip-path="url(#SVGID_4_)" fill="#FFFFFF" width="20.567" height="1.275"/>
		<path clip-path="url(#SVGID_4_)" fill="#FFFFFF" d="M68.929,94.85c-0.75,0-1.351,0.6-1.351,1.35s0.601,1.35,1.351,1.35
			c0.751,0,1.352-0.6,1.352-1.35S69.68,94.85,68.929,94.85"/>
		<path clip-path="url(#SVGID_4_)" fill="#FFFFFF" d="M55.632,60.873h43.923l4.272,4.35v67.054l-4.278,4.274H55.635l-4.277-4.274
			V65.223L55.632,60.873z M52.452,65.929l0.183-0.444v66.527l-0.187-0.451l3.903,3.9l-0.451-0.187h43.387l-0.451,0.187l3.903-3.9
			l-0.188,0.451V65.485l0.181,0.444l-3.903-3.975l0.457,0.193H55.899l0.456-0.193L52.452,65.929z"/>
		<polyline clip-path="url(#SVGID_4_)" fill="#8042FF" points="80.333,132.037 80.333,123.19 80.333,120.642 82.585,118.393 
			85.131,118.393 87.383,120.941 87.383,134.286 		"/>
		<polygon clip-path="url(#SVGID_4_)" fill="#FFFFFF" points="79.882,132.163 79.882,123.312 79.882,120.579 82.428,117.949 
			85.394,117.949 87.914,120.902 87.914,134.338 86.638,134.338 86.638,121.137 86.788,121.551 84.611,119 85.1,119.225 
			82.697,119.225 83.154,119.03 80.977,121.28 81.159,120.837 81.159,123.312 81.159,132.163 		"/>
		<polyline clip-path="url(#SVGID_4_)" fill="#8042FF" points="73.352,133.686 73.352,104.451 71.106,101.826 68.554,101.826 
			66.302,104.076 66.302,148.229 75.379,158.575 85.356,158.575 94.438,149.579 94.438,120.941 92.112,118.393 89.634,118.393 
			87.383,120.642 87.383,128.513 87.383,133.686 		"/>
		<polygon clip-path="url(#SVGID_4_)" fill="#FFFFFF" points="72.827,132.013 72.827,104.638 72.983,105.051 70.731,102.426 
			71.212,102.651 68.735,102.651 69.186,102.463 66.934,104.713 67.122,104.263 67.122,148.139 66.965,147.723 75.898,158.073 
			75.416,157.852 85.325,157.852 84.874,158.041 93.807,149.04 93.619,149.489 93.619,121.062 93.769,121.476 91.592,118.926 
			92.08,119.149 89.603,119.149 90.054,118.962 87.802,121.213 87.989,120.762 87.989,128.563 87.989,132.013 86.713,132.013 
			86.713,128.563 86.713,120.498 89.34,117.874 92.375,117.874 94.895,120.827 94.895,149.751 85.587,159.127 75.122,159.127 
			65.846,148.376 65.846,103.995 68.473,101.375 71.507,101.375 74.103,104.401 74.103,132.013 		"/>
		<path clip-path="url(#SVGID_4_)" fill="#FFFFFF" d="M75.079,131.887c0,0.974-0.826,1.799-1.802,1.799s-1.801-0.825-1.801-1.799
			c0-0.975,0.825-1.799,1.801-1.799C74.328,130.088,75.079,130.912,75.079,131.887"/>
		<path clip-path="url(#SVGID_4_)" fill="#FFFFFF" d="M85.581,131.887c0,0.974,0.826,1.799,1.802,1.799
			c0.976,0,1.801-0.825,1.801-1.799c0-0.975-0.826-1.799-1.801-1.799C86.407,130.088,85.581,130.912,85.581,131.887"/>
		<polyline clip-path="url(#SVGID_4_)" fill="#8042FF" points="73.352,133.686 73.352,113.145 73.352,123.19 73.352,120.716 
			75.604,118.467 78.081,118.467 80.333,121.017 80.333,123.791 80.333,133.686 		"/>
		<polygon clip-path="url(#SVGID_4_)" fill="#FFFFFF" points="72.901,132.013 72.901,113.339 74.178,113.339 74.178,123.312 
			72.901,123.312 72.901,120.579 75.447,117.949 78.337,117.949 80.858,120.902 80.858,123.912 80.858,132.013 79.582,132.013 
			79.582,123.912 79.582,121.137 79.732,121.551 77.556,119 78.043,119.225 75.716,119.225 76.173,119.03 73.996,121.28 
			74.178,120.837 74.178,123.312 72.901,123.312 72.901,113.339 74.178,113.339 74.178,132.013 		"/>
		<path clip-path="url(#SVGID_4_)" fill="#FFFFFF" d="M75.079,131.887c0,0.974-0.826,1.799-1.802,1.799s-1.801-0.825-1.801-1.799
			c0-0.975,0.825-1.799,1.801-1.799C74.328,130.088,75.079,130.912,75.079,131.887"/>
		<path clip-path="url(#SVGID_4_)" fill="#FFFFFF" d="M78.531,131.887c0,0.974,0.826,1.799,1.802,1.799
			c0.976,0,1.801-0.825,1.801-1.799c0-0.975-0.826-1.799-1.801-1.799C79.357,130.088,78.531,130.912,78.531,131.887"/>
		<rect x="73.99" y="69.648" clip-path="url(#SVGID_4_)" fill="#FFFFFF" width="7.281" height="1.275"/>
	</g>
</g>
<g>
	<defs>
		<rect id="SVGID_5_" x="-266" y="-156.5" width="1365.96" height="768"/>
	</defs>
	<clipPath id="SVGID_6_">
		<use xlink:href="#SVGID_5_"  overflow="visible"/>
	</clipPath>
	<g clip-path="url(#SVGID_6_)">
		<defs>
			<rect id="SVGID_7_" x="58.24" y="5.26" width="38.999" height="39"/>
		</defs>
		<clipPath id="SVGID_8_">
			<use xlink:href="#SVGID_7_"  overflow="visible"/>
		</clipPath>
		<path clip-path="url(#SVGID_8_)" fill="#8042FF" d="M77.755,44.215c10.741,0,19.439-8.698,19.439-19.439
			c0-10.817-8.699-19.516-19.439-19.516c-10.817,0-19.515,8.699-19.515,19.516C58.24,35.517,66.938,44.215,77.755,44.215"/>
		<polygon clip-path="url(#SVGID_8_)" fill="#FFFFFF" points="77.793,36.197 77.793,31.844 84.413,25.301 84.222,25.759 
			84.222,18.573 84.411,19.027 80.629,15.246 81.083,15.434 75.94,15.434 76.398,15.242 71.86,19.856 72.044,19.405 72.044,24.7 
			70.759,24.7 70.759,19.142 75.67,14.148 81.35,14.148 85.508,18.307 85.508,26.027 78.888,32.57 79.079,32.113 79.079,36.197 		
			"/>
		<g clip-path="url(#SVGID_8_)">
			<defs>
				<rect id="SVGID_9_" x="58.24" y="5.26" width="38.955" height="38.955"/>
			</defs>
			<clipPath id="SVGID_10_">
				<use xlink:href="#SVGID_9_"  overflow="visible"/>
			</clipPath>
			<path clip-path="url(#SVGID_10_)" fill="#FFFFFF" d="M80.251,42.476c0,0.983-0.757,1.739-1.74,1.739
				c-0.983,0-1.74-0.756-1.74-1.739c0-0.983,0.757-1.74,1.74-1.74C79.495,40.736,80.251,41.492,80.251,42.476"/>
		</g>
	</g>
</g>
<g>
	<defs>
		<rect id="SVGID_11_" x="-266" y="-156.5" width="1365.96" height="768"/>
	</defs>
	<clipPath id="SVGID_12_">
		<use xlink:href="#SVGID_11_"  overflow="visible"/>
	</clipPath>
</g>
<g>
	<defs>
		<rect id="SVGID_17_" x="-266" y="-156.5" width="1365.96" height="768"/>
	</defs>
	<clipPath id="SVGID_14_">
		<use xlink:href="#SVGID_17_"  overflow="visible"/>
	</clipPath>
</g>
<g>
	<defs>
		<rect id="SVGID_99_" x="-266" y="-156.5" width="1365.96" height="768"/>
	</defs>
	<clipPath id="SVGID_16_">
		<use xlink:href="#SVGID_99_"  overflow="visible"/>
	</clipPath>
</g>
<g>
	<defs>
		<rect id="SVGID_105_" x="-266" y="-156.5" width="1365.96" height="768"/>
	</defs>
	<clipPath id="SVGID_18_">
		<use xlink:href="#SVGID_105_"  overflow="visible"/>
	</clipPath>
</g>
</svg>
