<?xml version="1.0" encoding="utf-8"?>
<!-- Generator: Adobe Illustrator 16.0.0, SVG Export Plug-In . SVG Version: 6.00 Build 0)  -->
<!DOCTYPE svg PUBLIC "-//W3C//DTD SVG 1.1//EN" "http://www.w3.org/Graphics/SVG/1.1/DTD/svg11.dtd">
<svg version="1.1" id="Layer_1" xmlns="http://www.w3.org/2000/svg" xmlns:xlink="http://www.w3.org/1999/xlink" x="0px" y="0px"
	 width="157.5px" height="185.5px" viewBox="0 0 157.5 185.5" enable-background="new 0 0 157.5 185.5" xml:space="preserve">
<rect x="-602.5" y="-156.5" fill-rule="evenodd" clip-rule="evenodd" fill="none" width="1365.96" height="768"/>
<rect x="-602.5" y="-156.5" fill-rule="evenodd" clip-rule="evenodd" fill="none" width="1365.96" height="768"/>
<rect x="-602.5" y="-156.5" fill-rule="evenodd" clip-rule="evenodd" fill="none" width="1365.96" height="768"/>
<path fill-rule="evenodd" clip-rule="evenodd" fill="#8042FF" d="M77.38,178.89c40.64,0,73.64-32.99,73.64-73.63
	c0-40.64-33-73.64-73.64-73.64s-73.56,33-73.56,73.64C3.82,145.97,36.74,178.89,77.38,178.89"/>
<g>
	<defs>
		<rect id="SVGID_1_" x="-602.5" y="-156.5" width="1365.96" height="768"/>
	</defs>
	<clipPath id="SVGID_2_">
		<use xlink:href="#SVGID_1_"  overflow="visible"/>
	</clipPath>
</g>
<g>
	<defs>
		<rect id="SVGID_5_" x="-602.5" y="-156.5" width="1365.96" height="768"/>
	</defs>
	<clipPath id="SVGID_4_">
		<use xlink:href="#SVGID_5_"  overflow="visible"/>
	</clipPath>
</g>
<g>
	<defs>
		<rect id="SVGID_11_" x="-602.5" y="-156.5" width="1365.96" height="768"/>
	</defs>
	<clipPath id="SVGID_6_">
		<use xlink:href="#SVGID_11_"  overflow="visible"/>
	</clipPath>
</g>
<path fill="none" stroke="#FFFFFF" stroke-width="1.32" stroke-miterlimit="8" d="M129.53,54.21c28.779,28.78,28.779,75.43,0,104.2
	c-28.771,28.78-75.42,28.78-104.2,0c-28.77-28.77-28.77-75.42,0-104.2C54.11,25.44,100.76,25.44,129.53,54.21z"/>
<g>
	<defs>
		<rect id="SVGID_17_" x="-602.5" y="-156.5" width="1365.96" height="768"/>
	</defs>
	<clipPath id="SVGID_8_">
		<use xlink:href="#SVGID_17_"  overflow="visible"/>
	</clipPath>
	<g clip-path="url(#SVGID_8_)">
		<defs>
			<rect id="SVGID_19_" x="33.74" y="62.982" width="82.798" height="84.598"/>
		</defs>
		<clipPath id="SVGID_10_">
			<use xlink:href="#SVGID_19_"  overflow="visible"/>
		</clipPath>
		<g clip-path="url(#SVGID_10_)">
			<defs>
				<rect id="SVGID_21_" x="33.951" y="62.982" width="82.356" height="84.667"/>
			</defs>
			<clipPath id="SVGID_12_">
				<use xlink:href="#SVGID_21_"  overflow="visible"/>
			</clipPath>
			<path clip-path="url(#SVGID_12_)" fill="#FFFFFF" d="M67.185,102.389c1.288,0,2.404-1.033,2.404-2.409
				c0-1.291-1.03-2.409-2.404-2.409c-1.289,0-2.404,1.033-2.404,2.409S65.896,102.389,67.185,102.389"/>
		</g>
		<g clip-path="url(#SVGID_10_)">
			<defs>
				<rect id="SVGID_23_" x="33.951" y="62.982" width="82.356" height="84.667"/>
			</defs>
			<clipPath id="SVGID_14_">
				<use xlink:href="#SVGID_23_"  overflow="visible"/>
			</clipPath>
			<path clip-path="url(#SVGID_14_)" fill="#FFFFFF" d="M83.243,101.701c-0.43-1.205-1.804-1.893-3.005-1.463
				c-1.202,0.43-1.889,1.807-1.46,3.012c0.43,1.205,1.804,1.894,3.006,1.463C82.985,104.283,83.672,102.905,83.243,101.701"/>
		</g>
		<g clip-path="url(#SVGID_10_)">
			<defs>
				<rect id="SVGID_25_" x="33.951" y="62.982" width="82.356" height="84.667"/>
			</defs>
			<clipPath id="SVGID_16_">
				<use xlink:href="#SVGID_25_"  overflow="visible"/>
			</clipPath>
			<path clip-path="url(#SVGID_16_)" fill="#FFFFFF" d="M89.512,100.927c-0.429-1.205-1.803-1.894-3.006-1.463
				c-1.202,0.43-1.889,1.807-1.459,3.012c0.429,1.204,1.803,1.893,3.006,1.462C89.255,103.508,89.941,102.131,89.512,100.927"/>
		</g>
		<g clip-path="url(#SVGID_10_)">
			<defs>
				<rect id="SVGID_27_" x="33.951" y="62.982" width="82.356" height="84.667"/>
			</defs>
			<clipPath id="SVGID_18_">
				<use xlink:href="#SVGID_27_"  overflow="visible"/>
			</clipPath>
			<path clip-path="url(#SVGID_18_)" fill="#FFFFFF" d="M77.575,93.957c-0.429-1.205-1.803-1.893-3.005-1.463
				s-1.889,1.807-1.46,3.012c0.43,1.205,1.804,1.894,3.006,1.463C77.318,96.538,78.005,95.161,77.575,93.957"/>
		</g>
		<g clip-path="url(#SVGID_10_)">
			<defs>
				<rect id="SVGID_29_" x="33.951" y="62.982" width="82.356" height="84.667"/>
			</defs>
			<clipPath id="SVGID_20_">
				<use xlink:href="#SVGID_29_"  overflow="visible"/>
			</clipPath>
			<path clip-path="url(#SVGID_20_)" fill="#FFFFFF" d="M82.299,88.277c-0.43-1.205-1.803-1.893-3.006-1.462
				c-1.202,0.43-1.889,1.807-1.459,3.011c0.429,1.205,1.803,1.894,3.005,1.463C82.041,90.859,82.729,89.482,82.299,88.277"/>
		</g>
		<g clip-path="url(#SVGID_10_)">
			<defs>
				<rect id="SVGID_31_" x="33.951" y="62.982" width="82.356" height="84.667"/>
			</defs>
			<clipPath id="SVGID_22_">
				<use xlink:href="#SVGID_31_"  overflow="visible"/>
			</clipPath>
			<path clip-path="url(#SVGID_22_)" fill="#FFFFFF" d="M81.354,134.571c0.601,1.118,2.061,1.635,3.177,0.946
				c1.116-0.602,1.546-2.065,0.944-3.183c-0.601-1.119-2.061-1.635-3.177-0.947C81.183,131.989,80.753,133.452,81.354,134.571"/>
		</g>
		<g clip-path="url(#SVGID_10_)">
			<defs>
				<rect id="SVGID_33_" x="33.951" y="62.982" width="82.356" height="84.667"/>
			</defs>
			<clipPath id="SVGID_24_">
				<use xlink:href="#SVGID_33_"  overflow="visible"/>
			</clipPath>
			<path clip-path="url(#SVGID_24_)" fill="#FFFFFF" d="M64.007,138.528c0.945,0.861,2.49,0.775,3.349-0.258
				c0.858-0.947,0.773-2.495-0.257-3.355c-0.945-0.86-2.491-0.775-3.349,0.257C62.891,136.206,63.063,137.668,64.007,138.528"/>
		</g>
		<g clip-path="url(#SVGID_10_)">
			<defs>
				<rect id="SVGID_35_" x="33.951" y="62.982" width="82.356" height="84.667"/>
			</defs>
			<clipPath id="SVGID_26_">
				<use xlink:href="#SVGID_35_"  overflow="visible"/>
			</clipPath>
			<path clip-path="url(#SVGID_26_)" fill="#FFFFFF" d="M92.002,125.708c0.602,1.119,2.062,1.549,3.178,0.947
				c1.116-0.603,1.546-2.065,0.945-3.184c-0.602-1.119-2.062-1.635-3.178-0.947C91.745,123.126,91.315,124.589,92.002,125.708"/>
		</g>
		<g clip-path="url(#SVGID_10_)">
			<defs>
				<rect id="SVGID_37_" x="33.951" y="62.982" width="82.356" height="84.667"/>
			</defs>
			<clipPath id="SVGID_28_">
				<use xlink:href="#SVGID_37_"  overflow="visible"/>
			</clipPath>
			<path clip-path="url(#SVGID_28_)" fill="#FFFFFF" d="M70.792,126.482c0.944,0.86,2.49,0.774,3.349-0.258
				c0.859-0.946,0.772-2.496-0.258-3.356c-0.945-0.86-2.49-0.774-3.349,0.258C69.675,124.073,69.761,125.622,70.792,126.482"/>
		</g>
		<g clip-path="url(#SVGID_10_)">
			<defs>
				<rect id="SVGID_39_" x="33.951" y="62.982" width="82.356" height="84.667"/>
			</defs>
			<clipPath id="SVGID_30_">
				<use xlink:href="#SVGID_39_"  overflow="visible"/>
			</clipPath>
			<path clip-path="url(#SVGID_30_)" fill="#FFFFFF" d="M113.297,115.382c0.862-0.947,0.862-2.41-0.086-3.355
				c-0.941-0.861-2.486-0.861-3.349,0.085c-0.854,0.947-0.854,2.496,0.086,3.356C110.897,116.415,112.442,116.329,113.297,115.382"
				/>
		</g>
		<g clip-path="url(#SVGID_10_)">
			<defs>
				<rect id="SVGID_41_" x="33.951" y="62.982" width="82.356" height="84.667"/>
			</defs>
			<clipPath id="SVGID_32_">
				<use xlink:href="#SVGID_41_"  overflow="visible"/>
			</clipPath>
			<path clip-path="url(#SVGID_32_)" fill="#FFFFFF" d="M42.882,116.156c1.289,0,2.405-1.032,2.405-2.409
				c0-1.291-1.031-2.409-2.405-2.409c-1.374,0-2.318,1.118-2.318,2.409C40.563,115.124,41.594,116.156,42.882,116.156"/>
		</g>
		<g clip-path="url(#SVGID_10_)">
			<defs>
				<rect id="SVGID_43_" x="33.951" y="62.982" width="82.356" height="84.667"/>
			</defs>
			<clipPath id="SVGID_34_">
				<use xlink:href="#SVGID_43_"  overflow="visible"/>
			</clipPath>
			<path clip-path="url(#SVGID_34_)" fill="#FFFFFF" d="M49.752,81.049c1.288,0,2.404-1.032,2.404-2.409
				c0-1.291-1.03-2.409-2.404-2.409c-1.288,0-2.404,1.032-2.404,2.409C47.433,80.017,48.464,81.049,49.752,81.049"/>
		</g>
		<g clip-path="url(#SVGID_10_)">
			<defs>
				<rect id="SVGID_45_" x="33.951" y="62.982" width="82.356" height="84.667"/>
			</defs>
			<clipPath id="SVGID_36_">
				<use xlink:href="#SVGID_45_"  overflow="visible"/>
			</clipPath>
			<path clip-path="url(#SVGID_36_)" fill="#FFFFFF" d="M68.73,125.105c-0.429-1.205-1.717-1.893-3.005-1.462
				c-1.202,0.43-1.889,1.808-1.459,3.012c0.429,1.205,1.803,1.893,3.006,1.462C68.473,127.687,69.16,126.311,68.73,125.105"/>
		</g>
		<g clip-path="url(#SVGID_10_)">
			<defs>
				<rect id="SVGID_47_" x="33.951" y="62.982" width="82.356" height="84.667"/>
			</defs>
			<clipPath id="SVGID_38_">
				<use xlink:href="#SVGID_47_"  overflow="visible"/>
			</clipPath>
			<path clip-path="url(#SVGID_38_)" fill="#FFFFFF" d="M92.002,109.187c0.602,1.118,2.062,1.634,3.178,0.946
				c1.116-0.602,1.546-2.065,0.945-3.184c-0.602-1.118-2.062-1.634-3.178-0.946C91.745,106.605,91.315,108.068,92.002,109.187"/>
		</g>
		<g clip-path="url(#SVGID_10_)">
			<defs>
				<rect id="SVGID_49_" x="33.951" y="62.982" width="82.356" height="84.667"/>
			</defs>
			<clipPath id="SVGID_40_">
				<use xlink:href="#SVGID_49_"  overflow="visible"/>
			</clipPath>
			<path clip-path="url(#SVGID_40_)" fill="#FFFFFF" d="M64.866,110.994c0.945,0.861,2.491,0.774,3.349-0.258
				c0.859-0.947,0.773-2.496-0.257-3.356c-0.945-0.86-2.49-0.775-3.349,0.258C63.75,108.671,63.835,110.133,64.866,110.994"/>
		</g>
		<g clip-path="url(#SVGID_10_)">
			<defs>
				<rect id="SVGID_51_" x="33.951" y="62.982" width="82.356" height="84.667"/>
			</defs>
			<clipPath id="SVGID_42_">
				<use xlink:href="#SVGID_51_"  overflow="visible"/>
			</clipPath>
			<path clip-path="url(#SVGID_42_)" fill="#FFFFFF" d="M92.947,77.092c0.858-0.947,0.858-2.41-0.086-3.353
				c-0.944-0.864-2.491-0.864-3.35,0.086c-0.858,0.943-0.858,2.492,0.086,3.352C90.542,78.124,92.002,78.038,92.947,77.092"/>
		</g>
		<g clip-path="url(#SVGID_10_)">
			<defs>
				<rect id="SVGID_53_" x="33.951" y="62.982" width="82.356" height="84.667"/>
			</defs>
			<clipPath id="SVGID_44_">
				<use xlink:href="#SVGID_53_"  overflow="visible"/>
			</clipPath>
			<path clip-path="url(#SVGID_44_)" fill="#FFFFFF" d="M52.156,93.784c1.288,0,2.405-1.032,2.405-2.323
				c0-1.29-1.03-2.323-2.405-2.323c-1.288,0-2.404,1.033-2.404,2.323C49.752,92.666,50.869,93.784,52.156,93.784"/>
		</g>
		<g clip-path="url(#SVGID_10_)">
			<defs>
				<rect id="SVGID_55_" x="33.951" y="62.982" width="82.356" height="84.667"/>
			</defs>
			<clipPath id="SVGID_46_">
				<use xlink:href="#SVGID_55_"  overflow="visible"/>
			</clipPath>
			<path clip-path="url(#SVGID_46_)" fill="#FFFFFF" d="M84.703,108.327c-0.43-1.205-1.804-1.894-3.006-1.463
				c-1.202,0.43-1.889,1.807-1.459,3.012c0.429,1.205,1.803,1.893,3.005,1.463C84.445,110.908,85.133,109.531,84.703,108.327"/>
		</g>
		<g clip-path="url(#SVGID_10_)">
			<defs>
				<rect id="SVGID_57_" x="33.951" y="62.982" width="82.356" height="84.667"/>
			</defs>
			<clipPath id="SVGID_48_">
				<use xlink:href="#SVGID_57_"  overflow="visible"/>
			</clipPath>
			<path clip-path="url(#SVGID_48_)" fill="#FFFFFF" d="M57.739,112.801c-0.859-1.033-2.319-1.118-3.349-0.258
				c-1.031,0.86-1.117,2.323-0.258,3.355c0.859,1.033,2.319,1.118,3.349,0.258C58.426,115.296,58.597,113.833,57.739,112.801"/>
		</g>
		<g clip-path="url(#SVGID_10_)">
			<defs>
				<rect id="SVGID_59_" x="33.951" y="62.982" width="82.356" height="84.667"/>
			</defs>
			<clipPath id="SVGID_50_">
				<use xlink:href="#SVGID_59_"  overflow="visible"/>
			</clipPath>
			<path clip-path="url(#SVGID_50_)" fill="#FFFFFF" d="M81.869,117.275c0.601,1.119,2.061,1.635,3.178,0.947
				c1.116-0.603,1.546-2.066,0.944-3.184c-0.601-1.119-2.062-1.635-3.178-0.947C81.697,114.694,81.268,116.071,81.869,117.275"/>
		</g>
		<g clip-path="url(#SVGID_10_)">
			<defs>
				<rect id="SVGID_61_" x="33.951" y="62.982" width="82.356" height="84.667"/>
			</defs>
			<clipPath id="SVGID_52_">
				<use xlink:href="#SVGID_61_"  overflow="visible"/>
			</clipPath>
			<path clip-path="url(#SVGID_52_)" fill="#FFFFFF" d="M58.339,122.18c0.945,0.86,2.49,0.775,3.349-0.258
				c0.858-0.947,0.773-2.495-0.257-3.355c-0.945-0.861-2.49-0.775-3.349,0.257C57.224,119.771,57.309,121.319,58.339,122.18"/>
		</g>
		<g clip-path="url(#SVGID_10_)">
			<defs>
				<rect id="SVGID_63_" x="33.951" y="62.982" width="82.356" height="84.667"/>
			</defs>
			<clipPath id="SVGID_54_">
				<use xlink:href="#SVGID_63_"  overflow="visible"/>
			</clipPath>
			<path clip-path="url(#SVGID_54_)" fill="#FFFFFF" d="M103.767,83.976c0.859-0.947,0.859-2.41-0.085-3.356
				c-0.945-0.86-2.49-0.86-3.35,0.085c-0.858,0.947-0.858,2.496,0.086,3.356C101.448,85.008,102.908,84.921,103.767,83.976"/>
		</g>
		<g clip-path="url(#SVGID_10_)">
			<defs>
				<rect id="SVGID_65_" x="33.951" y="62.982" width="82.356" height="84.667"/>
			</defs>
			<clipPath id="SVGID_56_">
				<use xlink:href="#SVGID_65_"  overflow="visible"/>
			</clipPath>
			<path clip-path="url(#SVGID_56_)" fill="#FFFFFF" d="M58.082,85.18c1.288,0,2.404-1.032,2.404-2.41
				c0-1.29-1.03-2.409-2.404-2.409c-1.288,0-2.405,1.032-2.405,2.409C55.677,84.061,56.794,85.18,58.082,85.18"/>
		</g>
		<g clip-path="url(#SVGID_10_)">
			<defs>
				<rect id="SVGID_67_" x="33.951" y="62.982" width="82.356" height="84.667"/>
			</defs>
			<clipPath id="SVGID_58_">
				<use xlink:href="#SVGID_67_"  overflow="visible"/>
			</clipPath>
			<path clip-path="url(#SVGID_58_)" fill="#FFFFFF" d="M69.933,115.898c-0.43-1.204-1.804-1.894-3.006-1.463
				c-1.203,0.431-1.89,1.807-1.46,3.012c0.429,1.205,1.803,1.893,3.005,1.463S70.362,117.189,69.933,115.898"/>
		</g>
		<g clip-path="url(#SVGID_10_)">
			<defs>
				<rect id="SVGID_69_" x="33.951" y="62.982" width="82.356" height="84.667"/>
			</defs>
			<clipPath id="SVGID_60_">
				<use xlink:href="#SVGID_69_"  overflow="visible"/>
			</clipPath>
			<path clip-path="url(#SVGID_60_)" fill="#FFFFFF" d="M92.26,118.48c0.602,1.119,2.062,1.548,3.178,0.947
				c1.116-0.603,1.546-2.066,0.944-3.184c-0.601-1.205-1.976-1.635-3.178-1.032C92.089,115.898,91.659,117.275,92.26,118.48"/>
		</g>
		<g clip-path="url(#SVGID_10_)">
			<defs>
				<rect id="SVGID_71_" x="33.951" y="62.982" width="82.356" height="84.667"/>
			</defs>
			<clipPath id="SVGID_62_">
				<use xlink:href="#SVGID_71_"  overflow="visible"/>
			</clipPath>
			<path clip-path="url(#SVGID_62_)" fill="#FFFFFF" d="M73.797,120.287c0.944,0.86,2.49,0.774,3.349-0.259
				c0.858-0.946,0.772-2.495-0.258-3.355c-0.945-0.86-2.491-0.774-3.349,0.258C72.681,117.963,72.853,119.427,73.797,120.287"/>
		</g>
		<g clip-path="url(#SVGID_10_)">
			<defs>
				<rect id="SVGID_73_" x="33.951" y="62.982" width="82.356" height="84.667"/>
			</defs>
			<clipPath id="SVGID_64_">
				<use xlink:href="#SVGID_73_"  overflow="visible"/>
			</clipPath>
			<path clip-path="url(#SVGID_64_)" fill="#FFFFFF" d="M34.209,130.44c0.601,1.205,2.061,1.635,3.177,1.033
				c1.116-0.602,1.545-2.065,0.944-3.184c-0.601-1.118-2.061-1.635-3.177-0.946C34.037,127.859,33.607,129.322,34.209,130.44"/>
		</g>
		<g clip-path="url(#SVGID_10_)">
			<defs>
				<rect id="SVGID_75_" x="33.951" y="62.982" width="82.356" height="84.667"/>
			</defs>
			<clipPath id="SVGID_66_">
				<use xlink:href="#SVGID_75_"  overflow="visible"/>
			</clipPath>
			<path clip-path="url(#SVGID_66_)" fill="#FFFFFF" d="M73.024,113.919c0.945,0.86,2.49,0.775,3.349-0.258
				c0.859-0.946,0.773-2.495-0.258-3.356c-0.944-0.86-2.49-0.774-3.349,0.258C71.994,111.596,72.079,113.059,73.024,113.919"/>
		</g>
		<g clip-path="url(#SVGID_10_)">
			<defs>
				<rect id="SVGID_77_" x="33.951" y="62.982" width="82.356" height="84.667"/>
			</defs>
			<clipPath id="SVGID_68_">
				<use xlink:href="#SVGID_77_"  overflow="visible"/>
			</clipPath>
			<path clip-path="url(#SVGID_68_)" fill="#FFFFFF" d="M74.741,89.999c0.859-0.947,0.859-2.41-0.085-3.356
				c-0.945-0.861-2.49-0.861-3.349,0.085c-0.858,0.947-0.858,2.496,0.086,3.356C72.337,91.031,73.797,90.945,74.741,89.999"/>
		</g>
		<g clip-path="url(#SVGID_10_)">
			<defs>
				<rect id="SVGID_79_" x="33.951" y="62.982" width="82.356" height="84.667"/>
			</defs>
			<clipPath id="SVGID_70_">
				<use xlink:href="#SVGID_79_"  overflow="visible"/>
			</clipPath>
			<path clip-path="url(#SVGID_70_)" fill="#FFFFFF" d="M74.913,146.445c0.602,1.119,2.062,1.549,3.178,0.947
				c1.116-0.603,1.545-2.065,0.945-3.184c-0.602-1.119-2.061-1.635-3.178-0.947C74.741,143.864,74.227,145.24,74.913,146.445"/>
		</g>
		<g clip-path="url(#SVGID_10_)">
			<defs>
				<rect id="SVGID_81_" x="33.951" y="62.982" width="82.356" height="84.667"/>
			</defs>
			<clipPath id="SVGID_72_">
				<use xlink:href="#SVGID_81_"  overflow="visible"/>
			</clipPath>
			<path clip-path="url(#SVGID_72_)" fill="#FFFFFF" d="M109.518,142.573c0.604,1.119,2.063,1.635,3.184,0.947
				c1.113-0.603,1.544-2.065,0.94-3.184s-2.062-1.635-3.176-0.946C109.353,139.991,108.921,141.454,109.518,142.573"/>
		</g>
		<g clip-path="url(#SVGID_10_)">
			<defs>
				<rect id="SVGID_83_" x="33.951" y="62.982" width="82.356" height="84.667"/>
			</defs>
			<clipPath id="SVGID_74_">
				<use xlink:href="#SVGID_83_"  overflow="visible"/>
			</clipPath>
			<path clip-path="url(#SVGID_74_)" fill="#FFFFFF" d="M102.394,139.303c0.601,1.119,2.061,1.635,3.177,0.947
				c1.116-0.603,1.547-2.066,0.943-3.184c-0.596-1.119-2.06-1.635-3.176-0.947C102.222,136.722,101.706,138.184,102.394,139.303"/>
		</g>
		<g clip-path="url(#SVGID_10_)">
			<defs>
				<rect id="SVGID_85_" x="33.951" y="62.982" width="82.356" height="84.667"/>
			</defs>
			<clipPath id="SVGID_76_">
				<use xlink:href="#SVGID_85_"  overflow="visible"/>
			</clipPath>
			<path clip-path="url(#SVGID_76_)" fill="#FFFFFF" d="M115.704,89.999c0.855-0.947,0.855-2.41-0.086-3.356
				c-0.941-0.861-2.493-0.861-3.349,0.085c-0.862,0.947-0.862,2.496,0.086,3.356C113.297,91.031,114.756,90.945,115.704,89.999"/>
		</g>
		<g clip-path="url(#SVGID_10_)">
			<defs>
				<rect id="SVGID_87_" x="33.951" y="62.982" width="82.356" height="84.667"/>
			</defs>
			<clipPath id="SVGID_78_">
				<use xlink:href="#SVGID_87_"  overflow="visible"/>
			</clipPath>
			<path clip-path="url(#SVGID_78_)" fill="#FFFFFF" d="M95.266,93.957c0.859-0.947,0.859-2.409-0.086-3.356
				c-0.945-0.86-2.49-0.86-3.35,0.086c-0.858,0.946-0.858,2.495,0.087,3.356C92.947,94.989,94.406,94.903,95.266,93.957"/>
		</g>
		<g clip-path="url(#SVGID_10_)">
			<defs>
				<rect id="SVGID_89_" x="33.951" y="62.982" width="82.356" height="84.667"/>
			</defs>
			<clipPath id="SVGID_80_">
				<use xlink:href="#SVGID_89_"  overflow="visible"/>
			</clipPath>
			<path clip-path="url(#SVGID_80_)" fill="#FFFFFF" d="M85.047,96.882c0.858-0.946,0.858-2.409-0.086-3.355
				c-0.944-0.861-2.491-0.861-3.35,0.085s-0.858,2.496,0.086,3.356C82.642,97.915,84.188,97.915,85.047,96.882"/>
		</g>
		<g clip-path="url(#SVGID_10_)">
			<defs>
				<rect id="SVGID_91_" x="33.951" y="62.982" width="82.356" height="84.667"/>
			</defs>
			<clipPath id="SVGID_82_">
				<use xlink:href="#SVGID_91_"  overflow="visible"/>
			</clipPath>
			<path clip-path="url(#SVGID_82_)" fill="#FFFFFF" d="M86.506,126.999c1.289,0,2.405-1.032,2.405-2.41
				c0-1.29-1.03-2.409-2.405-2.409c-1.287,0-2.404,1.033-2.404,2.409C84.188,125.966,85.219,126.999,86.506,126.999"/>
		</g>
		<g clip-path="url(#SVGID_10_)">
			<defs>
				<rect id="SVGID_93_" x="33.951" y="62.982" width="82.356" height="84.667"/>
			</defs>
			<clipPath id="SVGID_84_">
				<use xlink:href="#SVGID_93_"  overflow="visible"/>
			</clipPath>
			<path clip-path="url(#SVGID_84_)" fill="#FFFFFF" d="M60.744,110.305c1.202-0.43,1.803-1.807,1.374-3.097
				c-0.43-1.205-1.804-1.808-3.092-1.377c-1.202,0.43-1.803,1.807-1.374,3.098C58.167,110.133,59.542,110.736,60.744,110.305"/>
		</g>
		<g clip-path="url(#SVGID_10_)">
			<defs>
				<rect id="SVGID_95_" x="33.951" y="62.982" width="82.356" height="84.667"/>
			</defs>
			<clipPath id="SVGID_86_">
				<use xlink:href="#SVGID_95_"  overflow="visible"/>
			</clipPath>
			<path clip-path="url(#SVGID_86_)" fill="#FFFFFF" d="M76.975,103.25c-0.43-1.205-1.804-1.893-3.006-1.462
				c-1.203,0.43-1.89,1.806-1.46,3.012c0.429,1.205,1.804,1.893,3.006,1.462C76.802,105.831,77.404,104.54,76.975,103.25"/>
		</g>
		<g clip-path="url(#SVGID_10_)">
			<defs>
				<rect id="SVGID_97_" x="33.951" y="62.982" width="82.356" height="84.667"/>
			</defs>
			<clipPath id="SVGID_88_">
				<use xlink:href="#SVGID_97_"  overflow="visible"/>
			</clipPath>
			<path clip-path="url(#SVGID_88_)" fill="#FFFFFF" d="M72.251,64.617c-0.429-1.209-1.803-1.894-3.006-1.461
				c-1.202,0.424-1.889,1.807-1.459,3.009c0.429,1.202,1.803,1.894,3.005,1.461C72.079,67.194,72.681,65.819,72.251,64.617"/>
		</g>
	</g>
</g>
<g>
	<defs>
		<rect id="SVGID_99_" x="-602.5" y="-156.5" width="1365.96" height="768"/>
	</defs>
	<clipPath id="SVGID_90_">
		<use xlink:href="#SVGID_99_"  overflow="visible"/>
	</clipPath>
	<g clip-path="url(#SVGID_90_)">
		<defs>
			<rect id="SVGID_101_" x="57.62" y="10.181" width="38.999" height="39"/>
		</defs>
		<clipPath id="SVGID_92_">
			<use xlink:href="#SVGID_101_"  overflow="visible"/>
		</clipPath>
		<path clip-path="url(#SVGID_92_)" fill="#8042FF" d="M77.135,49.135c10.741,0,19.439-8.699,19.439-19.439
			c0-10.817-8.698-19.516-19.439-19.516c-10.817,0-19.515,8.699-19.515,19.516C57.62,40.437,66.319,49.135,77.135,49.135"/>
		<polygon clip-path="url(#SVGID_92_)" fill="#FFFFFF" points="77.173,41.117 77.173,36.764 83.793,30.222 83.603,30.679 
			83.603,23.493 83.791,23.947 80.009,20.166 80.463,20.354 75.32,20.354 75.778,20.162 71.24,24.776 71.425,24.325 71.425,29.62 
			70.139,29.62 70.139,24.062 75.05,19.068 80.729,19.068 84.889,23.227 84.889,30.947 78.268,37.49 78.459,37.033 78.459,41.117 		
			"/>
		<g clip-path="url(#SVGID_92_)">
			<defs>
				<rect id="SVGID_103_" x="57.62" y="10.18" width="38.954" height="38.955"/>
			</defs>
			<clipPath id="SVGID_94_">
				<use xlink:href="#SVGID_103_"  overflow="visible"/>
			</clipPath>
			<path clip-path="url(#SVGID_94_)" fill="#FFFFFF" d="M79.631,47.396c0,0.983-0.757,1.74-1.74,1.74c-0.983,0-1.74-0.756-1.74-1.74
				s0.757-1.74,1.74-1.74C78.875,45.656,79.631,46.412,79.631,47.396"/>
		</g>
	</g>
</g>
<g>
	<defs>
		<rect id="SVGID_105_" x="-602.5" y="-156.5" width="1365.96" height="768"/>
	</defs>
	<clipPath id="SVGID_96_">
		<use xlink:href="#SVGID_105_"  overflow="visible"/>
	</clipPath>
</g>
</svg>
