<?xml version="1.0" encoding="utf-8"?>
<!-- Generator: Adobe Illustrator 16.0.0, SVG Export Plug-In . SVG Version: 6.00 Build 0)  -->
<!DOCTYPE svg PUBLIC "-//W3C//DTD SVG 1.1//EN" "http://www.w3.org/Graphics/SVG/1.1/DTD/svg11.dtd">
<svg version="1.1" id="Layer_1" xmlns="http://www.w3.org/2000/svg" xmlns:xlink="http://www.w3.org/1999/xlink" x="0px" y="0px"
	 width="159.5px" height="185.5px" viewBox="0 0 159.5 185.5" enable-background="new 0 0 159.5 185.5" xml:space="preserve">
<rect x="-936.5" y="-156.5" fill-rule="evenodd" clip-rule="evenodd" fill="none" width="1365.96" height="768"/>
<rect x="-936.5" y="-156.5" fill-rule="evenodd" clip-rule="evenodd" fill="none" width="1365.96" height="768"/>
<rect x="-936.5" y="-156.5" fill-rule="evenodd" clip-rule="evenodd" fill="none" width="1365.96" height="768"/>
<g>
	<defs>
		<rect id="SVGID_1_" x="-936.5" y="-156.5" width="1365.96" height="768"/>
	</defs>
	<clipPath id="SVGID_2_">
		<use xlink:href="#SVGID_1_"  overflow="visible"/>
	</clipPath>
</g>
<g>
	<defs>
		<rect id="SVGID_5_" x="-936.5" y="-156.5" width="1365.96" height="768"/>
	</defs>
	<clipPath id="SVGID_4_">
		<use xlink:href="#SVGID_5_"  overflow="visible"/>
	</clipPath>
</g>
<path fill="none" stroke="#FFFFFF" stroke-width="1.32" stroke-miterlimit="8" d="M132.52,55.62c28.761,28.76,28.761,75.39,0,104.14
	c-28.75,28.76-75.38,28.76-104.14,0c-28.76-28.75-28.76-75.38,0-104.14C57.14,26.86,103.77,26.86,132.52,55.62z"/>
<g>
	<defs>
		<rect id="SVGID_11_" x="-936.5" y="-156.5" width="1365.96" height="768"/>
	</defs>
	<clipPath id="SVGID_6_">
		<use xlink:href="#SVGID_11_"  overflow="visible"/>
	</clipPath>
	<g clip-path="url(#SVGID_6_)">
		<defs>
			<rect id="SVGID_13_" x="59.86" y="7.541" width="38.998" height="39"/>
		</defs>
		<clipPath id="SVGID_8_">
			<use xlink:href="#SVGID_13_"  overflow="visible"/>
		</clipPath>
		<path clip-path="url(#SVGID_8_)" fill="#8042FF" d="M79.375,46.495c10.74,0,19.439-8.699,19.439-19.439
			c0-10.816-8.699-19.515-19.439-19.515c-10.816,0-19.515,8.698-19.515,19.515C59.86,37.796,68.559,46.495,79.375,46.495"/>
		<polygon clip-path="url(#SVGID_8_)" fill="#FFFFFF" points="79.412,38.477 79.412,34.124 86.033,27.582 85.842,28.039 
			85.842,20.853 86.03,21.308 82.248,17.525 82.703,17.714 77.56,17.714 78.018,17.522 73.479,22.136 73.664,21.685 73.664,26.979 
			72.378,26.979 72.378,21.422 77.29,16.428 82.969,16.428 87.128,20.586 87.128,28.308 80.508,34.85 80.698,34.393 80.698,38.477 
					"/>
		<g clip-path="url(#SVGID_8_)">
			<defs>
				<rect id="SVGID_15_" x="59.86" y="7.541" width="38.954" height="38.955"/>
			</defs>
			<clipPath id="SVGID_10_">
				<use xlink:href="#SVGID_15_"  overflow="visible"/>
			</clipPath>
			<path clip-path="url(#SVGID_10_)" fill="#FFFFFF" d="M81.871,44.755c0,0.983-0.757,1.74-1.74,1.74s-1.739-0.756-1.739-1.74
				s0.756-1.74,1.739-1.74S81.871,43.772,81.871,44.755"/>
		</g>
	</g>
</g>
<g>
	<defs>
		<rect id="SVGID_17_" x="-936.5" y="-156.5" width="1365.96" height="768"/>
	</defs>
	<clipPath id="SVGID_12_">
		<use xlink:href="#SVGID_17_"  overflow="visible"/>
	</clipPath>
</g>
<g>
	<defs>
		<rect id="SVGID_99_" x="-936.5" y="-156.5" width="1365.96" height="768"/>
	</defs>
	<clipPath id="SVGID_14_">
		<use xlink:href="#SVGID_99_"  overflow="visible"/>
	</clipPath>
</g>
<g>
	<defs>
		<rect id="SVGID_105_" x="-936.5" y="-156.5" width="1365.96" height="768"/>
	</defs>
	<clipPath id="SVGID_16_">
		<use xlink:href="#SVGID_105_"  overflow="visible"/>
	</clipPath>
	<g clip-path="url(#SVGID_16_)">
		<defs>
			<rect id="SVGID_107_" x="28.54" y="55.185" width="101.883" height="102.835"/>
		</defs>
		<clipPath id="SVGID_18_">
			<use xlink:href="#SVGID_107_"  overflow="visible"/>
		</clipPath>
		<polygon clip-path="url(#SVGID_18_)" fill="#FFFFFF" points="114.856,92.213 126.792,92.213 130.357,95.647 130.357,99.332 
			127.322,102.667 126.311,101.749 129.166,98.609 128.995,99.068 128.995,95.938 129.199,96.43 126.042,93.388 126.515,93.579 
			114.856,93.579 		"/>
		<g clip-path="url(#SVGID_18_)">
			<defs>
				<rect id="SVGID_109_" x="28.54" y="55.639" width="101.817" height="101.905"/>
			</defs>
			<clipPath id="SVGID_20_">
				<use xlink:href="#SVGID_109_"  overflow="visible"/>
			</clipPath>
			<path clip-path="url(#SVGID_20_)" fill="#FFFFFF" d="M123.953,89.239v3.88h-1.362v-3.88H123.953z M122.591,115.381v-4.261h1.362
				v4.261H122.591z M118.634,101.349h8.183l3.549,3.726v3.14l-3.246,3.413h-12.263v-1.365h11.969l-0.489,0.212l2.855-3.003
				l-0.188,0.471v-2.594l0.188,0.471l-3.158-3.315l0.49,0.211h-7.89V101.349z"/>
		</g>
		<path clip-path="url(#SVGID_18_)" fill="#FFFFFF" d="M120.951,110.955v4.426h-1.363v-4.426H120.951z M119.107,93.11v17.835h-1.363
			V93.11H119.107z M120.951,89.239v3.871h-1.363v-3.871H120.951z"/>
		<path clip-path="url(#SVGID_18_)" fill="#FFFFFF" d="M94.243,94.304l-4.718-4.826l0.592,0.249h-5.429h-9.28l0.553-0.211
			l-6.96,6.241l0.275-0.618v6.923l-0.236-0.579l6.103,6.24l-0.592-0.249h4.503h0.321h11.462l6.583,6.731v7.6l-6.583,6.731H73.003
			l-5.508-5.632l1.185-1.159l5.264,5.383l-0.592-0.25h17.137l-0.593,0.25l6.103-6.241l-0.236,0.58v-6.923l0.236,0.58l-6.103-6.241
			l0.593,0.249H79.375h-0.321h-4.852l-6.582-6.731v-7.631l7.472-6.7h9.597h5.778l4.962,5.076L94.243,94.304z M81.511,136.034
			v-11.525V80.581h1.656v43.928v11.525H81.511z"/>
		<g clip-path="url(#SVGID_18_)">
			<defs>
				<rect id="SVGID_111_" x="28.54" y="55.639" width="101.817" height="101.905"/>
			</defs>
			<clipPath id="SVGID_22_">
				<use xlink:href="#SVGID_111_"  overflow="visible"/>
			</clipPath>
			<rect x="28.54" y="115.362" clip-path="url(#SVGID_22_)" fill="#FFFFFF" width="12.809" height="1.365"/>
		</g>
		<g clip-path="url(#SVGID_18_)">
			<defs>
				<rect id="SVGID_113_" x="28.54" y="55.639" width="101.817" height="101.905"/>
			</defs>
			<clipPath id="SVGID_24_">
				<use xlink:href="#SVGID_113_"  overflow="visible"/>
			</clipPath>
			<rect x="28.54" y="118.229" clip-path="url(#SVGID_24_)" fill="#FFFFFF" width="12.809" height="1.365"/>
		</g>
		<polygon clip-path="url(#SVGID_18_)" fill="#FFFFFF" points="42.863,112.712 41.196,111.035 41.68,111.237 35.812,111.237 
			36.295,111.036 32.143,115.2 32.342,114.718 32.342,120.598 32.142,120.115 36.294,124.269 35.812,124.069 41.68,124.069 
			41.213,124.254 42.879,122.685 43.815,123.679 41.951,125.435 35.529,125.435 30.977,120.881 30.977,114.436 35.529,109.872 
			41.964,109.872 43.831,111.75 		"/>
		<polygon clip-path="url(#SVGID_18_)" fill="#FFFFFF" points="55.649,55.642 62.162,64.357 61.068,64.357 67.59,55.642 
			68.683,56.458 61.614,65.908 54.557,56.458 		"/>
		<rect x="60.933" y="64.939" clip-path="url(#SVGID_18_)" fill="#FFFFFF" width="1.364" height="13.447"/>
		<rect x="55.629" y="64.771" clip-path="url(#SVGID_18_)" fill="#FFFFFF" width="11.98" height="1.365"/>
		<rect x="55.629" y="69.031" clip-path="url(#SVGID_18_)" fill="#FFFFFF" width="11.98" height="1.365"/>
		<polygon clip-path="url(#SVGID_18_)" fill="#FFFFFF" points="88.782,152.422 92.954,152.422 92.587,152.588 94.176,150.784 
			94.053,151.108 94.053,149.119 94.177,149.444 92.588,147.65 92.954,147.815 88.782,147.815 89.272,147.325 89.272,157.524 
			88.293,157.524 88.293,146.835 93.176,146.835 95.034,148.933 95.034,151.293 93.176,153.402 88.782,153.402 		"/>
		<g clip-path="url(#SVGID_18_)">
			<defs>
				<rect id="SVGID_115_" x="28.54" y="55.639" width="101.817" height="101.905"/>
			</defs>
			<clipPath id="SVGID_26_">
				<use xlink:href="#SVGID_115_"  overflow="visible"/>
			</clipPath>
			
				<polyline clip-path="url(#SVGID_26_)" fill="none" stroke="#FFFFFF" stroke-width="1.1424" stroke-linejoin="bevel" stroke-miterlimit="8" points="
				105.822,157.291 105.822,146.857 112.507,157.291 112.507,146.857 			"/>
		</g>
		<polygon clip-path="url(#SVGID_18_)" fill="#FFFFFF" points="98.377,146.613 98.377,156.822 97.887,156.332 102.918,156.332 
			102.918,157.313 97.397,157.313 97.397,146.613 		"/>
	</g>
</g>
</svg>
