<?xml version="1.0" encoding="utf-8"?>
<!-- Generator: Adobe Illustrator 16.0.0, SVG Export Plug-In . SVG Version: 6.00 Build 0)  -->
<!DOCTYPE svg PUBLIC "-//W3C//DTD SVG 1.1//EN" "http://www.w3.org/Graphics/SVG/1.1/DTD/svg11.dtd">
<svg version="1.1" id="Layer_1" xmlns="http://www.w3.org/2000/svg" xmlns:xlink="http://www.w3.org/1999/xlink" x="0px" y="0px"
	 width="410px" height="69px" viewBox="0 0 410 69" enable-background="new 0 0 410 69" xml:space="preserve">
<line fill="none" stroke="#FFFFFF" stroke-width="1.68" stroke-linejoin="round" stroke-miterlimit="10" x1="54.96" y1="36.76" x2="402.11" y2="36.76"/>
<rect x="-261" y="-212" fill-rule="evenodd" clip-rule="evenodd" fill="none" width="1365.96" height="768"/>
<polygon fill-rule="evenodd" clip-rule="evenodd" fill="#8042FF" points="36.83,6.52 33.05,6.77 29.43,7.51 26,8.71 22.78,10.32 
	19.82,12.32 17.15,14.67 14.8,17.34 12.8,20.3 11.19,23.52 9.99,26.95 9.25,30.57 9,34.35 9.25,38.12 9.99,41.75 11.19,45.18 
	12.8,48.39 14.8,51.35 17.15,54.02 19.82,56.38 22.78,58.38 26,59.99 29.43,61.18 33.05,61.92 36.83,62.17 40.6,61.92 44.23,61.18 
	47.66,59.99 50.87,58.38 53.83,56.38 56.51,54.02 58.86,51.35 60.86,48.39 62.47,45.18 63.66,41.75 64.4,38.12 64.66,34.35 
	64.4,30.57 63.66,26.95 62.47,23.52 60.86,20.3 58.86,17.34 56.51,14.67 53.83,12.32 50.87,10.32 47.66,8.71 44.23,7.51 40.6,6.77 
	"/>
<polygon fill-rule="evenodd" clip-rule="evenodd" fill="#FFFFFF" points="36.83,5.68 32.94,5.94 29.21,6.71 25.67,7.94 22.36,9.6 
	19.31,11.67 16.56,14.09 14.13,16.85 12.07,19.91 10.41,23.22 9.18,26.77 8.42,30.51 8.16,34.41 8.42,38.31 9.18,42.04 10.41,45.59 
	12.07,48.91 14.13,51.96 16.56,54.72 19.31,57.15 22.36,59.21 25.67,60.88 29.21,62.11 32.94,62.87 36.83,63.14 36.83,61.43 
	32.45,61.08 28.3,60.06 24.43,58.42 20.9,56.22 17.76,53.52 15.06,50.37 12.87,46.83 11.23,42.95 10.21,38.79 9.86,34.41 
	10.21,30.02 11.23,25.86 12.87,21.99 15.06,18.45 17.76,15.3 20.9,12.59 24.43,10.4 28.3,8.76 32.45,7.73 36.83,7.38 46.39,7.38 
	44.45,6.71 40.72,5.94 "/>
<polygon fill-rule="evenodd" clip-rule="evenodd" fill="#FFFFFF" points="46.39,7.38 36.83,7.38 41.2,7.73 45.35,8.76 49.22,10.4 
	52.76,12.59 55.9,15.3 58.6,18.45 60.79,21.99 62.42,25.86 63.45,30.02 63.8,34.41 63.45,38.79 62.42,42.95 60.79,46.83 58.6,50.37 
	55.9,53.52 52.76,56.22 49.22,58.42 45.35,60.06 41.2,61.08 36.83,61.43 36.83,63.14 40.72,62.87 44.45,62.11 47.99,60.88 
	51.3,59.21 54.35,57.15 57.1,54.72 59.52,51.96 61.58,48.91 63.24,45.59 64.47,42.04 65.23,38.31 65.5,34.41 65.23,30.51 
	64.47,26.77 63.24,23.22 61.58,19.91 59.52,16.85 57.1,14.09 54.35,11.67 51.3,9.6 47.99,7.94 "/>
<polygon fill-rule="evenodd" clip-rule="evenodd" fill="#FFFFFF" points="29.44,41.71 28.32,42.99 34.86,48.84 36.38,46.17 
	34.43,46.17 "/>
<polygon fill-rule="evenodd" clip-rule="evenodd" fill="#FFFFFF" points="46.05,25.72 34.43,46.17 36.38,46.17 47.52,26.57 "/>
<rect x="-261" y="-212" fill-rule="evenodd" clip-rule="evenodd" fill="none" width="1365.96" height="768"/>
<rect x="-261" y="-212" fill-rule="evenodd" clip-rule="evenodd" fill="none" width="1365.96" height="768"/>
<rect x="-261" y="-212" fill="none" width="1365.96" height="768"/>
<g id="Layer_3">
	<circle fill="#FFFFFF" cx="402.11" cy="36.76" r="3.401"/>
	<circle fill="#FFFFFF" cx="46.39" cy="26.397" r="3.401"/>
	<circle fill="#FFFFFF" cx="28.949" cy="42.769" r="3.401"/>
</g>
</svg>
