<?xml version="1.0" encoding="utf-8"?>
<!-- Generator: Adobe Illustrator 16.0.0, SVG Export Plug-In . SVG Version: 6.00 Build 0)  -->
<!DOCTYPE svg PUBLIC "-//W3C//DTD SVG 1.1//EN" "http://www.w3.org/Graphics/SVG/1.1/DTD/svg11.dtd">
<svg version="1.1" xmlns="http://www.w3.org/2000/svg" xmlns:xlink="http://www.w3.org/1999/xlink" x="0px" y="0px"
	 width="350.667px" height="399.334px" viewBox="0 0 350.667 399.334" enable-background="new 0 0 350.667 399.334"
	 xml:space="preserve">
<g id="Layer_1" display="none">
	
		<rect x="-366.378" y="-286.887" display="inline" fill="#E2D9FC" stroke="#231F20" stroke-miterlimit="10" width="1358.932" height="857.958"/>
</g>
<g id="Layer_2">
	
		<circle fill="none" stroke="#FFFFFF" stroke-width="1.68" stroke-linejoin="round" stroke-miterlimit="10" cx="176.006" cy="223.037" r="166.979"/>
	<g>
		<path fill="#8042FF" d="M176.006,104.995c-26.985,0-48.939-21.954-48.939-48.939s21.954-48.939,48.939-48.939
			s48.938,21.954,48.938,48.939S202.991,104.995,176.006,104.995z"/>
		<path fill="#FFFFFF" d="M176.006,7.867c26.614,0,48.188,21.575,48.188,48.189s-21.575,48.189-48.188,48.189
			c-26.614,0-48.189-21.575-48.189-48.189S149.392,7.867,176.006,7.867 M176.006,6.367c-27.398,0-49.689,22.291-49.689,49.689
			s22.291,49.689,49.689,49.689s49.688-22.291,49.688-49.689S203.404,6.367,176.006,6.367L176.006,6.367z"/>
	</g>
</g>
<g id="Layer_3">
	<g>
		
			<polyline fill-rule="evenodd" clip-rule="evenodd" fill="none" stroke="#FFFFFF" stroke-width="2" stroke-miterlimit="10" points="
			194.615,59.862 196.771,57.707 196.771,54.893 194.615,53.018 182.491,53.018 		"/>
		
			<polyline fill-rule="evenodd" clip-rule="evenodd" fill="none" stroke="#FFFFFF" stroke-width="2" stroke-miterlimit="10" points="
			194.615,66.707 196.771,64.552 196.771,61.737 194.615,59.862 182.491,59.862 		"/>
		
			<polyline fill-rule="evenodd" clip-rule="evenodd" fill="none" stroke="#FFFFFF" stroke-width="2" stroke-miterlimit="10" points="
			194.615,53.018 196.771,50.862 196.771,48.048 194.615,46.173 178.335,46.173 178.335,29.368 176.18,27.212 173.365,27.212 
			171.49,29.087 171.365,40.212 155.24,53.337 155.24,65.462 164.678,74.9 193.243,74.9 193.586,74.557 196.771,71.396 
			196.771,68.582 194.615,66.707 182.491,66.707 		"/>
		<circle fill-rule="evenodd" clip-rule="evenodd" fill="#FFFFFF" cx="182.491" cy="53.018" r="1.51"/>
		<circle fill-rule="evenodd" clip-rule="evenodd" fill="#FFFFFF" cx="182.491" cy="59.862" r="1.51"/>
		<circle fill-rule="evenodd" clip-rule="evenodd" fill="#FFFFFF" cx="182.491" cy="66.707" r="1.51"/>
	</g>
</g>
</svg>
