<?xml version="1.0" encoding="utf-8"?>
<!-- Generator: Adobe Illustrator 16.0.0, SVG Export Plug-In . SVG Version: 6.00 Build 0)  -->
<!DOCTYPE svg PUBLIC "-//W3C//DTD SVG 1.1//EN" "http://www.w3.org/Graphics/SVG/1.1/DTD/svg11.dtd">
<svg version="1.1" id="Layer_1" xmlns="http://www.w3.org/2000/svg" xmlns:xlink="http://www.w3.org/1999/xlink" x="0px" y="0px"
	 width="47px" height="534.332px" viewBox="0 0 47 534.332" enable-background="new 0 0 47 534.332" xml:space="preserve">
<line fill="none" stroke="#FFFFFF" stroke-width="1.56" stroke-linejoin="round" stroke-miterlimit="10" x1="23.1" y1="39.312" x2="23.1" y2="491.521"/>
<polygon fill-rule="evenodd" clip-rule="evenodd" fill="#8042FF" points="24.28,197.732 20.75,198.102 17.47,199.142 14.49,200.802 
	11.91,203.001 9.77,205.671 8.16,208.722 7.14,212.102 6.78,215.732 7.14,219.363 8.16,222.742 9.77,225.792 11.91,228.462 
	14.49,230.662 17.47,232.322 20.75,233.363 24.28,233.732 27.8,233.363 31.09,232.322 34.06,230.662 36.649,228.462 38.79,225.792 
	40.399,222.742 41.42,219.363 41.78,215.732 41.42,212.102 40.399,208.722 38.79,205.671 36.649,203.001 34.06,200.802 
	31.09,199.142 27.8,198.102 "/>
<g>
	<polygon fill-rule="evenodd" clip-rule="evenodd" fill="#FFFFFF" points="24.28,196.892 20.57,197.272 17.11,198.372 
		13.98,200.112 11.26,202.422 9.02,205.202 7.32,208.402 6.25,211.942 5.88,215.732 6.25,219.522 7.32,223.063 9.02,226.252 
		11.26,229.042 13.98,231.352 17.11,233.092 20.57,234.192 24.28,234.572 24.28,232.872 20.92,232.522 17.79,231.532 14.95,229.952 
		12.48,227.862 10.44,225.322 8.9,222.412 7.92,219.192 7.58,215.732 7.92,212.272 8.9,209.052 10.44,206.142 12.48,203.602 
		14.95,201.512 17.79,199.932 20.92,198.942 24.28,198.592 31.83,198.592 31.45,198.372 27.99,197.272 	"/>
	<polygon fill-rule="evenodd" clip-rule="evenodd" fill="#FFFFFF" points="31.83,198.592 24.28,198.592 27.64,198.942 
		30.77,199.932 33.6,201.512 36.07,203.602 38.11,206.142 39.66,209.052 40.63,212.272 40.97,215.732 40.63,219.192 39.66,222.412 
		38.11,225.322 36.07,227.862 33.6,229.952 30.77,231.532 27.64,232.522 24.28,232.872 24.28,234.572 27.99,234.192 31.45,233.092 
		34.57,231.352 37.3,229.042 39.54,226.252 41.23,223.063 42.3,219.522 42.68,215.732 42.3,211.942 41.23,208.402 39.54,205.202 
		37.3,202.422 34.57,200.112 	"/>
</g>
<polygon fill-rule="evenodd" clip-rule="evenodd" fill="#8042FF" points="24.22,4.172 20.69,4.542 17.41,5.582 14.43,7.242 
	11.85,9.442 9.71,12.112 8.1,15.162 7.08,18.542 6.72,22.172 7.08,25.802 8.1,29.182 9.71,32.232 11.85,34.902 14.43,37.102 
	17.41,38.762 20.69,39.802 24.22,40.172 27.74,39.802 31.03,38.762 34,37.102 36.59,34.902 38.73,32.232 40.34,29.182 41.36,25.802 
	41.72,22.172 41.36,18.542 40.34,15.162 38.73,12.112 36.59,9.442 34,7.242 31.03,5.582 27.74,4.542 "/>
<polygon fill-rule="evenodd" clip-rule="evenodd" fill="#FFFFFF" points="24.28,3.332 20.57,3.712 17.11,4.812 13.98,6.552 
	11.26,8.862 9.02,11.642 7.32,14.842 6.25,18.382 5.88,22.172 6.25,25.962 7.32,29.502 9.02,32.692 11.26,35.482 13.98,37.792 
	17.11,39.532 20.57,40.632 24.28,41.012 24.28,39.312 20.92,38.962 17.79,37.972 14.95,36.392 12.48,34.302 10.44,31.762 
	8.9,28.852 7.92,25.632 7.58,22.172 7.92,18.712 8.9,15.492 10.44,12.582 12.48,10.042 14.95,7.952 17.79,6.372 20.92,5.382 
	24.28,5.032 31.83,5.032 31.45,4.812 27.99,3.712 "/>
<polygon fill-rule="evenodd" clip-rule="evenodd" fill="#FFFFFF" points="31.83,5.032 24.28,5.032 27.64,5.382 30.77,6.372 
	33.6,7.952 36.07,10.042 38.11,12.582 39.66,15.492 40.63,18.712 40.97,22.172 40.63,25.632 39.66,28.852 38.11,31.762 
	36.07,34.302 33.6,36.392 30.77,37.972 27.64,38.962 24.28,39.312 24.28,41.012 27.99,40.632 31.45,39.532 34.57,37.792 
	37.3,35.482 39.54,32.692 41.23,29.502 42.3,25.962 42.68,22.172 42.3,18.382 41.23,14.842 39.54,11.642 37.3,8.862 34.57,6.552 "/>
<polygon fill-rule="evenodd" clip-rule="evenodd" fill="#8042FF" points="24.22,104.132 20.69,104.502 17.41,105.542 14.43,107.202 
	11.85,109.402 9.71,112.072 8.1,115.122 7.08,118.502 6.72,122.132 7.08,125.762 8.1,129.142 9.71,132.192 11.85,134.862 
	14.43,137.063 17.41,138.722 20.69,139.762 24.22,140.132 27.74,139.762 31.03,138.722 34,137.063 36.59,134.862 38.73,132.192 
	40.34,129.142 41.36,125.762 41.72,122.132 41.36,118.502 40.34,115.122 38.73,112.072 36.59,109.402 34,107.202 31.03,105.542 
	27.74,104.502 "/>
<polygon fill-rule="evenodd" clip-rule="evenodd" fill="#FFFFFF" points="24.28,103.292 20.57,103.672 17.11,104.772 13.98,106.512 
	11.26,108.822 9.02,111.602 7.32,114.802 6.25,118.342 5.88,122.132 6.25,125.922 7.32,129.462 9.02,132.652 11.26,135.442 
	13.98,137.752 17.11,139.492 20.57,140.592 24.28,140.972 24.28,139.272 20.92,138.922 17.79,137.932 14.95,136.352 12.48,134.262 
	10.44,131.722 8.9,128.813 7.92,125.592 7.58,122.132 7.92,118.672 8.9,115.452 10.44,112.542 12.48,110.002 14.95,107.912 
	17.79,106.332 20.92,105.342 24.28,104.992 31.83,104.992 31.45,104.772 27.99,103.672 "/>
<polygon fill-rule="evenodd" clip-rule="evenodd" fill="#FFFFFF" points="31.83,104.992 24.28,104.992 27.64,105.342 30.77,106.332 
	33.6,107.912 36.07,110.002 38.11,112.542 39.66,115.452 40.63,118.672 40.97,122.132 40.63,125.592 39.66,128.813 38.11,131.722 
	36.07,134.262 33.6,136.352 30.77,137.932 27.64,138.922 24.28,139.272 24.28,140.972 27.99,140.592 31.45,139.492 34.57,137.752 
	37.3,135.442 39.54,132.652 41.23,129.462 42.3,125.922 42.68,122.132 42.3,118.342 41.23,114.802 39.54,111.602 37.3,108.822 
	34.57,106.512 "/>
<polygon fill-rule="evenodd" clip-rule="evenodd" fill="#FFFFFF" points="24.28,490.651 20.57,491.032 17.11,492.132 13.98,493.872 
	11.26,496.182 9.02,498.962 7.32,502.162 6.25,505.702 5.88,509.492 6.25,513.282 7.32,516.822 9.02,520.012 11.26,522.802 
	13.98,525.111 17.11,526.852 20.57,527.952 24.28,528.332 24.28,526.632 20.92,526.282 17.79,525.292 14.95,523.712 12.48,521.622 
	10.44,519.082 8.9,516.172 7.92,512.952 7.58,509.492 7.92,506.032 8.9,502.812 10.44,499.901 12.48,497.361 14.95,495.271 
	17.79,493.691 20.92,492.702 24.28,492.352 31.83,492.352 31.45,492.132 27.99,491.032 "/>
<polygon fill-rule="evenodd" clip-rule="evenodd" fill="#FFFFFF" points="31.83,492.352 24.28,492.352 27.64,492.702 30.77,493.691 
	33.6,495.271 36.07,497.361 38.11,499.901 39.66,502.812 40.63,506.032 40.97,509.492 40.63,512.952 39.66,516.172 38.11,519.082 
	36.07,521.622 33.6,523.712 30.77,525.292 27.64,526.282 24.28,526.632 24.28,528.332 27.99,527.952 31.45,526.852 34.57,525.111 
	37.3,522.802 39.54,520.012 41.23,516.822 42.3,513.282 42.68,509.492 42.3,505.702 41.23,502.162 39.54,498.962 37.3,496.182 
	34.57,493.872 "/>
<polygon fill-rule="evenodd" clip-rule="evenodd" fill="#8042FF" points="24.22,297.932 20.69,298.302 17.41,299.342 14.43,301.002 
	11.85,303.201 9.71,305.871 8.1,308.922 7.08,312.302 6.72,315.932 7.08,319.563 8.1,322.941 9.71,325.992 11.85,328.662 
	14.43,330.861 17.41,332.521 20.69,333.563 24.22,333.932 27.74,333.563 31.03,332.521 34,330.861 36.59,328.662 38.73,325.992 
	40.34,322.941 41.36,319.563 41.72,315.932 41.36,312.302 40.34,308.922 38.73,305.871 36.59,303.201 34,301.002 31.03,299.342 
	27.74,298.302 "/>
<polygon fill-rule="evenodd" clip-rule="evenodd" fill="#FFFFFF" points="24.28,297.092 20.57,297.472 17.11,298.572 13.98,300.313 
	11.26,302.621 9.02,305.402 7.32,308.602 6.25,312.142 5.88,315.932 6.25,319.722 7.32,323.262 9.02,326.451 11.26,329.242 
	13.98,331.552 17.11,333.292 20.57,334.392 24.28,334.771 24.28,333.072 20.92,332.722 17.79,331.732 14.95,330.152 12.48,328.063 
	10.44,325.521 8.9,322.611 7.92,319.392 7.58,315.932 7.92,312.472 8.9,309.252 10.44,306.342 12.48,303.802 14.95,301.712 
	17.79,300.132 20.92,299.142 24.28,298.792 31.83,298.792 31.45,298.572 27.99,297.472 "/>
<polygon fill-rule="evenodd" clip-rule="evenodd" fill="#FFFFFF" points="31.83,298.792 24.28,298.792 27.64,299.142 30.77,300.132 
	33.6,301.712 36.07,303.802 38.11,306.342 39.66,309.252 40.63,312.472 40.97,315.932 40.63,319.392 39.66,322.611 38.11,325.521 
	36.07,328.063 33.6,330.152 30.77,331.732 27.64,332.722 24.28,333.072 24.28,334.771 27.99,334.392 31.45,333.292 34.57,331.552 
	37.3,329.242 39.54,326.451 41.23,323.262 42.3,319.722 42.68,315.932 42.3,312.142 41.23,308.602 39.54,305.402 37.3,302.621 
	34.57,300.313 "/>
<polygon fill-rule="evenodd" clip-rule="evenodd" fill="#8042FF" points="24.22,397.892 20.69,398.262 17.41,399.302 14.43,400.962 
	11.85,403.162 9.71,405.832 8.1,408.882 7.08,412.262 6.72,415.892 7.08,419.521 8.1,422.901 9.71,425.952 11.85,428.622 
	14.43,430.822 17.41,432.481 20.69,433.521 24.22,433.892 27.74,433.521 31.03,432.481 34,430.822 36.59,428.622 38.73,425.952 
	40.34,422.901 41.36,419.521 41.72,415.892 41.36,412.262 40.34,408.882 38.73,405.832 36.59,403.162 34,400.962 31.03,399.302 
	27.74,398.262 "/>
<polygon fill-rule="evenodd" clip-rule="evenodd" fill="#FFFFFF" points="24.28,397.052 20.57,397.432 17.11,398.532 13.98,400.271 
	11.26,402.582 9.02,405.361 7.32,408.562 6.25,412.102 5.88,415.892 6.25,419.682 7.32,423.222 9.02,426.412 11.26,429.202 
	13.98,431.512 17.11,433.252 20.57,434.352 24.28,434.731 24.28,433.032 20.92,432.682 17.79,431.691 14.95,430.111 12.48,428.021 
	10.44,425.481 8.9,422.572 7.92,419.352 7.58,415.892 7.92,412.432 8.9,409.212 10.44,406.302 12.48,403.762 14.95,401.672 
	17.79,400.092 20.92,399.102 24.28,398.752 31.83,398.752 31.45,398.532 27.99,397.432 "/>
<polygon fill-rule="evenodd" clip-rule="evenodd" fill="#FFFFFF" points="31.83,398.752 24.28,398.752 27.64,399.102 30.77,400.092 
	33.6,401.672 36.07,403.762 38.11,406.302 39.66,409.212 40.63,412.432 40.97,415.892 40.63,419.352 39.66,422.572 38.11,425.481 
	36.07,428.021 33.6,430.111 30.77,431.691 27.64,432.682 24.28,433.032 24.28,434.731 27.99,434.352 31.45,433.252 34.57,431.512 
	37.3,429.202 39.54,426.412 41.23,423.222 42.3,419.682 42.68,415.892 42.3,412.102 41.23,408.562 39.54,405.361 37.3,402.582 
	34.57,400.271 "/>
</svg>
