<?xml version="1.0" encoding="utf-8"?>
<!-- Generator: Adobe Illustrator 16.0.0, SVG Export Plug-In . SVG Version: 6.00 Build 0)  -->
<!DOCTYPE svg PUBLIC "-//W3C//DTD SVG 1.1//EN" "http://www.w3.org/Graphics/SVG/1.1/DTD/svg11.dtd">
<svg version="1.1" id="Layer_1" xmlns="http://www.w3.org/2000/svg" xmlns:xlink="http://www.w3.org/1999/xlink" x="0px" y="0px"
	 width="550px" height="424px" viewBox="0 0 550 424" enable-background="new 0 0 550 424" xml:space="preserve">
<polygon fill-rule="evenodd" clip-rule="evenodd" fill="#8042FF" points="277.76,5.56 273.93,5.69 270.17,6.09 266.49,6.75 
	262.9,7.64 259.41,8.78 256.03,10.14 252.77,11.72 249.64,13.51 246.64,15.5 243.79,17.68 241.09,20.04 238.56,22.57 236.2,25.27 
	234.02,28.12 232.03,31.12 230.24,34.25 228.66,37.51 227.3,40.89 226.16,44.38 225.27,47.97 224.61,51.65 224.21,55.41 
	224.08,59.24 224.21,63.07 224.61,66.84 225.27,70.51 226.16,74.1 227.3,77.59 228.66,80.97 230.24,84.23 232.03,87.36 
	234.02,90.36 236.2,93.21 238.56,95.91 241.09,98.44 243.79,100.81 246.64,102.98 249.64,104.97 252.77,106.76 256.03,108.34 
	259.41,109.7 262.9,110.84 266.49,111.74 270.17,112.39 273.93,112.79 277.76,112.92 281.59,112.79 285.36,112.39 289.03,111.74 
	292.62,110.84 296.11,109.7 299.49,108.34 302.75,106.76 305.88,104.97 308.88,102.98 311.73,100.81 314.43,98.44 316.97,95.91 
	319.33,93.21 321.51,90.36 323.49,87.36 325.28,84.23 326.86,80.97 328.22,77.59 329.36,74.1 330.26,70.51 330.91,66.84 
	331.31,63.07 331.44,59.24 331.31,55.41 330.91,51.65 330.26,47.97 329.36,44.38 328.22,40.89 326.86,37.51 325.28,34.25 
	323.49,31.12 321.51,28.12 319.33,25.27 316.97,22.57 314.43,20.04 311.73,17.68 308.88,15.5 305.88,13.51 302.75,11.72 
	299.49,10.14 296.11,8.78 292.62,7.64 289.03,6.75 285.36,6.09 281.59,5.69 "/>
<polygon fill-rule="evenodd" clip-rule="evenodd" fill="#FFFFFF" points="277.71,4.6 273.97,4.73 270.3,5.1 266.71,5.71 263.2,6.55 
	259.78,7.61 256.46,8.89 253.25,10.37 250.16,12.05 247.19,13.92 244.35,15.97 241.66,18.2 239.11,20.59 236.72,23.14 234.49,25.83 
	232.44,28.67 230.57,31.64 228.89,34.73 227.41,37.94 226.13,41.26 225.07,44.68 224.23,48.19 223.62,51.78 223.25,55.45 
	223.12,59.19 223.25,62.93 223.62,66.6 224.23,70.19 225.07,73.7 226.13,77.12 227.41,80.44 228.89,83.65 230.57,86.74 
	232.44,89.71 234.49,92.55 236.72,95.24 239.11,97.79 241.66,100.18 244.35,102.41 247.19,104.46 250.16,106.33 253.25,108.01 
	256.46,109.49 259.78,110.77 263.2,111.83 266.71,112.67 270.3,113.28 273.97,113.65 277.71,113.78 277.71,111.91 273.78,111.77 
	269.92,111.34 266.15,110.64 262.48,109.68 258.92,108.47 255.49,107.01 252.17,105.33 249,103.42 245.98,101.3 243.12,98.98 
	240.43,96.47 237.92,93.78 235.6,90.92 233.48,87.9 231.58,84.73 229.89,81.42 228.43,77.98 227.22,74.42 226.26,70.75 
	225.56,66.98 225.13,63.13 224.99,59.19 225.13,55.26 225.56,51.4 226.26,47.63 227.22,43.96 228.43,40.4 229.89,36.96 
	231.58,33.65 233.48,30.48 235.6,27.46 237.92,24.6 240.43,21.91 243.12,19.4 245.98,17.08 249,14.96 252.17,13.05 255.49,11.37 
	258.92,9.91 262.48,8.7 266.15,7.74 269.92,7.04 273.78,6.61 277.71,6.47 291.89,6.47 288.71,5.71 285.12,5.1 281.45,4.73 "/>
<polygon fill-rule="evenodd" clip-rule="evenodd" fill="#FFFFFF" points="291.89,6.47 277.71,6.47 281.65,6.61 285.5,7.04 
	289.27,7.74 292.94,8.7 296.5,9.91 299.94,11.37 303.25,13.05 306.42,14.96 309.44,17.08 312.3,19.4 314.99,21.91 317.5,24.6 
	319.82,27.46 321.94,30.48 323.85,33.65 325.53,36.96 326.99,40.4 328.2,43.96 329.16,47.63 329.86,51.4 330.29,55.26 330.43,59.19 
	330.29,63.13 329.86,66.98 329.16,70.75 328.2,74.42 326.99,77.98 325.53,81.42 323.85,84.73 321.94,87.9 319.82,90.92 317.5,93.78 
	314.99,96.47 312.3,98.98 309.44,101.3 306.42,103.42 303.25,105.33 299.94,107.01 296.5,108.47 292.94,109.68 289.27,110.64 
	285.5,111.34 281.65,111.77 277.71,111.91 277.71,113.78 281.45,113.65 285.12,113.28 288.71,112.67 292.22,111.83 295.64,110.77 
	298.96,109.49 302.17,108.01 305.26,106.33 308.23,104.46 311.07,102.41 313.77,100.18 316.31,97.79 318.7,95.24 320.93,92.55 
	322.98,89.71 324.85,86.74 326.53,83.65 328.01,80.44 329.29,77.12 330.35,73.7 331.19,70.19 331.8,66.6 332.18,62.93 332.3,59.19 
	332.18,55.45 331.8,51.78 331.19,48.19 330.35,44.68 329.29,41.26 328.01,37.94 326.53,34.73 324.85,31.64 322.98,28.67 
	320.93,25.83 318.7,23.14 316.31,20.59 313.77,18.2 311.07,15.97 308.23,13.92 305.26,12.05 302.17,10.37 298.96,8.89 295.64,7.61 
	292.22,6.55 "/>
<polygon fill-rule="evenodd" clip-rule="evenodd" fill="#8042FF" points="59.85,197.56 56.07,197.69 52.26,198.09 48.48,198.76 
	44.81,199.67 41.26,200.83 37.83,202.22 34.53,203.83 31.38,205.65 28.37,207.67 25.51,209.87 22.82,212.26 20.3,214.81 
	17.96,217.53 15.8,220.39 13.84,223.39 12.08,226.52 10.53,229.76 9.19,233.11 8.08,236.56 7.2,240.1 6.56,243.71 6.17,247.39 
	6.04,251.12 6.17,254.9 6.57,258.72 7.24,262.5 8.15,266.16 9.31,269.72 10.7,273.14 12.31,276.44 14.13,279.6 16.15,282.61 
	18.35,285.46 20.74,288.15 23.29,290.67 26.01,293.02 28.87,295.17 31.87,297.14 35,298.9 38.24,300.45 41.59,301.78 45.04,302.89 
	48.58,303.77 52.19,304.41 55.87,304.8 59.6,304.93 63.38,304.81 67.2,304.41 70.98,303.74 74.64,302.82 78.2,301.66 81.62,300.27 
	84.92,298.66 88.08,296.85 91.09,294.83 93.94,292.62 96.63,290.23 99.15,287.68 101.5,284.97 103.65,282.1 105.62,279.1 
	107.38,275.98 108.93,272.73 110.26,269.38 111.37,265.93 112.25,262.4 112.89,258.78 113.28,255.1 113.41,251.37 113.29,247.59 
	112.89,243.78 112.22,240 111.3,236.33 110.14,232.78 108.75,229.35 107.14,226.05 105.33,222.9 103.31,219.89 101.1,217.03 
	98.71,214.34 96.16,211.82 93.45,209.48 90.58,207.32 87.58,205.36 84.46,203.6 81.21,202.05 77.86,200.71 74.41,199.6 
	70.88,198.72 67.26,198.08 63.59,197.69 "/>
<polygon fill-rule="evenodd" clip-rule="evenodd" fill="#FFFFFF" points="59.54,196.72 55.85,196.86 52.13,197.26 48.44,197.9 
	44.86,198.78 41.38,199.89 38.02,201.21 34.77,202.74 31.66,204.46 28.69,206.38 25.85,208.47 23.17,210.74 20.65,213.16 
	18.28,215.74 16.09,218.46 14.08,221.32 12.25,224.3 10.61,227.39 9.17,230.59 7.93,233.89 6.91,237.27 6.11,240.74 5.53,244.27 
	5.18,247.86 5.08,251.51 5.22,255.2 5.62,258.91 6.26,262.6 7.14,266.18 8.25,269.65 9.57,273.01 11.1,276.25 12.83,279.36 
	14.75,282.33 16.85,285.16 19.11,287.84 21.54,290.36 24.12,292.72 26.85,294.91 29.71,296.93 32.69,298.75 35.79,300.39 
	38.99,301.83 42.29,303.06 45.68,304.08 49.15,304.89 52.68,305.46 56.28,305.81 59.93,305.91 63.62,305.77 67.34,305.38 
	67.16,304.04 59.28,304.04 55.45,303.87 51.68,303.43 47.98,302.73 44.37,301.77 40.85,300.56 37.44,299.11 34.15,297.43 
	30.99,295.53 27.97,293.42 25.11,291.11 22.41,288.6 19.89,285.9 17.56,283.02 15.42,279.98 13.5,276.78 11.81,273.42 10.34,269.92 
	9.12,266.29 8.16,262.53 7.47,258.65 7.07,254.74 6.95,250.86 7.12,247.03 7.56,243.26 8.27,239.57 9.23,235.96 10.44,232.45 
	11.89,229.04 13.57,225.76 15.47,222.6 17.58,219.59 19.9,216.73 22.42,214.03 25.12,211.51 27.99,209.18 31.04,207.05 
	34.25,205.13 37.61,203.44 41.11,201.98 44.75,200.76 48.51,199.8 52.39,199.11 56.31,198.7 60.19,198.59 73.93,198.59 
	73.79,198.55 70.33,197.75 66.79,197.17 63.19,196.82 "/>
<polygon fill-rule="evenodd" clip-rule="evenodd" fill="#FFFFFF" points="73.93,198.59 60.19,198.59 64.03,198.76 67.8,199.2 
	71.49,199.91 75.11,200.87 78.62,202.08 82.03,203.52 85.32,205.2 88.48,207.1 91.5,209.21 94.36,211.53 97.06,214.04 99.58,216.73 
	101.92,219.61 104.05,222.65 105.97,225.86 107.67,229.21 109.13,232.71 110.35,236.34 111.31,240.1 112,243.98 112.41,247.9 
	112.52,251.77 112.35,255.6 111.91,259.37 111.2,263.06 110.24,266.67 109.03,270.18 107.58,273.59 105.9,276.87 104,280.03 
	101.89,283.04 99.57,285.91 97.06,288.6 94.36,291.12 91.48,293.45 88.43,295.58 85.23,297.5 81.87,299.19 78.36,300.66 
	74.73,301.87 70.96,302.83 67.08,303.52 67.34,305.38 71.03,304.73 74.62,303.85 78.09,302.75 81.46,301.42 84.7,299.9 
	87.81,298.17 90.79,296.25 93.62,294.16 96.3,291.89 98.83,289.47 101.19,286.89 103.38,284.17 105.4,281.31 107.23,278.34 
	108.86,275.24 110.3,272.04 111.54,268.74 112.56,265.36 113.37,261.89 113.94,258.36 114.29,254.77 114.39,251.12 114.25,247.44 
	113.86,243.72 113.21,240.04 112.33,236.45 111.22,232.98 109.9,229.62 108.37,226.38 106.64,223.27 104.72,220.3 102.63,217.47 
	100.36,214.79 97.93,212.27 95.35,209.91 92.63,207.72 89.77,205.71 86.79,203.88 83.69,202.24 80.48,200.8 77.18,199.57 "/>
<polygon fill-rule="evenodd" clip-rule="evenodd" fill="#FFFFFF" points="67.08,303.52 63.16,303.93 59.28,304.04 67.16,304.04 "/>
<polygon fill-rule="evenodd" clip-rule="evenodd" fill="#8042FF" points="491.49,197.56 487.71,197.69 483.9,198.09 480.12,198.76 
	476.45,199.67 472.9,200.83 469.47,202.22 466.17,203.83 463.02,205.65 460.01,207.67 457.15,209.87 454.46,212.26 451.94,214.81 
	449.6,217.53 447.44,220.39 445.48,223.39 443.72,226.52 442.17,229.76 440.83,233.11 439.72,236.56 438.84,240.1 438.2,243.71 
	437.81,247.39 437.68,251.12 437.81,254.9 438.21,258.72 438.88,262.5 439.79,266.16 440.95,269.72 442.34,273.14 443.95,276.44 
	445.77,279.6 447.79,282.61 449.99,285.46 452.38,288.15 454.93,290.67 457.65,293.02 460.51,295.17 463.51,297.14 466.64,298.9 
	469.88,300.45 473.23,301.78 476.68,302.89 480.22,303.77 483.83,304.41 487.51,304.8 491.24,304.93 495.02,304.81 498.84,304.41 
	502.62,303.74 506.28,302.82 509.84,301.66 513.26,300.27 516.56,298.66 519.72,296.85 522.73,294.83 525.58,292.62 528.27,290.23 
	530.79,287.68 533.14,284.97 535.29,282.1 537.26,279.1 539.02,275.98 540.57,272.73 541.9,269.38 543.01,265.93 543.89,262.4 
	544.53,258.78 544.92,255.1 545.05,251.37 544.93,247.59 544.53,243.78 543.86,240 542.94,236.33 541.78,232.78 540.39,229.35 
	538.78,226.05 536.97,222.9 534.95,219.89 532.74,217.03 530.35,214.34 527.8,211.82 525.09,209.48 522.22,207.32 519.22,205.36 
	516.1,203.6 512.85,202.05 509.5,200.71 506.05,199.6 502.52,198.72 498.9,198.08 495.23,197.69 "/>
<polygon fill-rule="evenodd" clip-rule="evenodd" fill="#FFFFFF" points="491.18,196.72 487.49,196.86 483.77,197.26 480.08,197.9 
	476.5,198.78 473.02,199.89 469.66,201.21 466.41,202.74 463.3,204.46 460.33,206.38 457.49,208.47 454.81,210.74 452.29,213.16 
	449.92,215.74 447.73,218.46 445.72,221.32 443.89,224.3 442.25,227.39 440.81,230.59 439.57,233.89 438.55,237.27 437.75,240.74 
	437.17,244.27 436.82,247.86 436.72,251.51 436.86,255.2 437.26,258.91 437.9,262.6 438.78,266.18 439.89,269.65 441.21,273.01 
	442.74,276.25 444.47,279.36 446.39,282.33 448.49,285.16 450.75,287.84 453.18,290.36 455.76,292.72 458.49,294.91 461.35,296.93 
	464.33,298.75 467.43,300.39 470.63,301.83 473.93,303.06 477.32,304.08 480.79,304.89 484.32,305.46 487.92,305.81 491.57,305.91 
	495.26,305.77 498.98,305.38 498.79,304.04 490.92,304.04 487.09,303.87 483.32,303.43 479.62,302.73 476.01,301.77 472.49,300.56 
	469.08,299.11 465.79,297.43 462.63,295.53 459.61,293.42 456.75,291.11 454.05,288.6 451.53,285.9 449.2,283.02 447.06,279.98 
	445.14,276.78 443.45,273.42 441.98,269.92 440.76,266.29 439.8,262.53 439.11,258.65 438.71,254.74 438.59,250.86 438.76,247.03 
	439.2,243.26 439.91,239.57 440.87,235.96 442.08,232.45 443.53,229.04 445.21,225.76 447.11,222.6 449.22,219.59 451.54,216.73 
	454.06,214.03 456.76,211.51 459.63,209.18 462.68,207.05 465.89,205.13 469.25,203.44 472.75,201.97 476.39,200.76 480.15,199.8 
	484.03,199.11 487.95,198.7 491.83,198.59 505.57,198.59 505.43,198.55 501.97,197.75 498.43,197.17 494.83,196.82 "/>
<polygon fill-rule="evenodd" clip-rule="evenodd" fill="#FFFFFF" points="505.57,198.59 491.83,198.59 495.67,198.76 499.44,199.2 
	503.13,199.9 506.75,200.87 510.26,202.08 513.67,203.52 516.96,205.2 520.12,207.1 523.14,209.21 526,211.53 528.7,214.04 
	531.22,216.73 533.56,219.61 535.69,222.65 537.61,225.86 539.31,229.21 540.77,232.71 541.99,236.34 542.95,240.1 543.64,243.98 
	544.05,247.9 544.16,251.77 543.99,255.6 543.55,259.37 542.84,263.06 541.88,266.67 540.67,270.18 539.22,273.59 537.54,276.87 
	535.64,280.03 533.53,283.05 531.21,285.91 528.7,288.6 526,291.12 523.12,293.45 520.07,295.58 516.87,297.5 513.51,299.2 
	510,300.66 506.37,301.87 502.6,302.83 498.72,303.52 498.98,305.38 502.67,304.73 506.26,303.85 509.73,302.75 513.1,301.42 
	516.34,299.9 519.45,298.17 522.43,296.25 525.26,294.16 527.94,291.9 530.47,289.47 532.83,286.89 535.02,284.17 537.04,281.31 
	538.87,278.34 540.51,275.24 541.95,272.04 543.18,268.74 544.2,265.36 545.01,261.89 545.58,258.36 545.93,254.77 546.03,251.12 
	545.89,247.44 545.5,243.72 544.85,240.04 543.97,236.45 542.86,232.98 541.54,229.62 540.01,226.38 538.28,223.27 536.36,220.3 
	534.27,217.47 532,214.79 529.57,212.27 526.99,209.91 524.27,207.72 521.41,205.71 518.43,203.88 515.33,202.24 512.12,200.8 
	508.82,199.57 "/>
<polygon fill-rule="evenodd" clip-rule="evenodd" fill="#FFFFFF" points="498.72,303.52 494.8,303.93 490.92,304.04 498.79,304.04 
	"/>
<line fill="none" stroke="#FFFFFF" stroke-width="1.92" stroke-linejoin="round" stroke-miterlimit="10" x1="277.12" y1="134.2" x2="277.12" y2="284.05"/>
<polygon fill-rule="evenodd" clip-rule="evenodd" fill="#FFFFFF" points="280.82,280.48 273.4,280.48 277.11,290.78 "/>
<rect x="95.506" y="148.362" transform="matrix(0.7071 -0.7071 0.7071 0.7071 -57.2005 160.4961)" fill-rule="evenodd" clip-rule="evenodd" fill="#FFFFFF" width="139.258" height="1.867"/>
<polygon fill-rule="evenodd" clip-rule="evenodd" fill="#FFFFFF" points="115.79,193.36 111.16,203.28 121.08,198.66 "/>
<rect x="387.662" y="83.594" transform="matrix(0.7072 -0.707 0.707 0.7072 7.101 318.8979)" fill-rule="evenodd" clip-rule="evenodd" fill="#FFFFFF" width="1.867" height="134.562"/>
<polygon fill-rule="evenodd" clip-rule="evenodd" fill="#FFFFFF" points="436.26,193.36 430.96,198.66 440.88,203.28 "/>
<polygon fill-rule="evenodd" clip-rule="evenodd" fill="#8042FF" points="276.78,310.96 272.95,311.16 269.2,311.63 265.54,312.34 
	261.97,313.3 258.5,314.5 255.15,315.92 251.92,317.55 248.82,319.39 245.86,321.43 243.05,323.66 240.39,326.06 237.91,328.64 
	235.59,331.38 233.47,334.27 231.53,337.29 229.8,340.46 228.28,343.74 226.98,347.14 225.9,350.65 225.07,354.25 224.48,357.94 
	224.15,361.7 224.08,365.53 224.28,369.36 224.75,373.11 225.46,376.78 226.42,380.35 227.62,383.81 229.03,387.17 230.67,390.4 
	232.51,393.5 234.55,396.46 236.78,399.27 239.18,401.92 241.76,404.41 244.5,406.72 247.38,408.85 250.41,410.78 253.58,412.52 
	256.86,414.04 260.26,415.34 263.77,416.41 267.37,417.25 271.06,417.83 274.82,418.17 278.65,418.23 282.48,418.03 286.23,417.57 
	289.9,416.85 293.47,415.89 296.93,414.7 300.28,413.28 303.52,411.64 306.62,409.8 309.58,407.76 312.39,405.54 315.04,403.13 
	317.53,400.55 319.84,397.82 321.97,394.93 323.9,391.9 325.64,388.74 327.16,385.45 328.46,382.05 329.53,378.55 330.37,374.95 
	330.95,371.26 331.29,367.49 331.35,363.66 331.15,359.83 330.69,356.08 329.97,352.42 329.01,348.85 327.82,345.38 326.4,342.03 
	324.76,338.8 322.92,335.7 320.88,332.74 318.66,329.93 316.25,327.27 313.67,324.79 310.94,322.47 308.05,320.35 305.02,318.41 
	301.86,316.68 298.57,315.16 295.17,313.86 291.67,312.78 288.07,311.95 284.38,311.36 280.61,311.03 "/>
<polygon fill-rule="evenodd" clip-rule="evenodd" fill="#FFFFFF" points="276.75,310 273.01,310.19 269.35,310.63 265.77,311.3 
	262.27,312.21 258.87,313.33 255.58,314.67 252.39,316.21 249.33,317.94 246.39,319.87 243.59,321.97 240.94,324.24 238.43,326.68 
	236.09,329.27 233.91,332.01 231.91,334.88 230.09,337.89 228.47,341.01 227.04,344.25 225.82,347.6 224.82,351.04 224.04,354.56 
	223.49,358.17 223.18,361.85 223.12,365.6 223.31,369.34 223.75,373 224.42,376.59 225.32,380.09 226.45,383.49 227.78,386.79 
	229.32,389.98 231.05,393.05 232.97,395.98 235.08,398.79 237.35,401.45 239.78,403.95 242.37,406.3 245.1,408.48 247.97,410.49 
	250.98,412.31 254.1,413.93 257.33,415.36 260.67,416.58 264.11,417.59 267.63,418.37 271.24,418.92 274.92,419.22 278.65,419.28 
	278.62,417.41 274.69,417.34 270.82,416.98 267.04,416.34 263.36,415.45 259.78,414.29 256.31,412.9 252.97,411.27 249.77,409.41 
	246.71,407.35 243.81,405.07 241.08,402.61 238.52,399.96 236.15,397.14 233.98,394.15 232.02,391.01 230.28,387.73 228.76,384.31 
	227.49,380.77 226.46,377.11 225.7,373.35 225.2,369.5 224.99,365.56 225.06,361.62 225.42,357.75 226.06,353.97 226.95,350.28 
	228.11,346.7 229.5,343.23 231.13,339.89 232.98,336.68 235.05,333.62 237.31,330.72 239.78,327.98 242.42,325.42 245.24,323.05 
	248.23,320.87 251.36,318.91 254.65,317.16 258.06,315.65 261.6,314.37 265.25,313.35 269,312.58 272.85,312.08 276.78,311.87 
	291.88,311.87 291.29,311.7 287.77,310.92 284.16,310.37 280.49,310.06 "/>
<polygon fill-rule="evenodd" clip-rule="evenodd" fill="#FFFFFF" points="291.88,311.87 276.78,311.87 280.72,311.95 284.58,312.31 
	288.36,312.94 292.05,313.84 295.63,314.99 299.09,316.39 302.43,318.02 305.63,319.87 308.69,321.94 311.59,324.21 314.33,326.68 
	316.88,329.33 319.25,332.15 321.42,335.14 323.39,338.28 325.13,341.56 326.64,344.98 327.92,348.52 328.94,352.17 329.71,355.93 
	330.2,359.78 330.42,363.72 330.34,367.66 329.98,371.53 329.35,375.31 328.45,379 327.3,382.59 325.9,386.05 324.28,389.4 
	322.42,392.6 320.36,395.66 318.09,398.57 315.63,401.31 312.98,403.87 310.16,406.24 307.18,408.41 304.04,410.38 300.76,412.12 
	297.35,413.64 293.81,414.91 290.16,415.94 286.4,416.71 282.55,417.2 278.62,417.41 278.65,419.28 282.39,419.09 286.05,418.66 
	289.64,417.98 293.13,417.08 296.53,415.96 299.83,414.62 303.01,413.08 306.07,411.34 309.02,409.41 311.81,407.32 314.47,405.04 
	316.97,402.61 319.32,400.01 321.49,397.28 323.49,394.4 325.31,391.4 326.94,388.27 328.37,385.03 329.58,381.69 330.59,378.25 
	331.37,374.72 331.91,371.11 332.22,367.43 332.28,363.69 332.09,359.95 331.66,356.28 330.98,352.7 330.08,349.2 328.96,345.79 
	327.62,342.49 326.09,339.31 324.35,336.24 322.43,333.3 320.33,330.5 318.06,327.84 315.62,325.33 313.04,322.98 310.3,320.8 
	307.43,318.8 304.43,316.98 301.31,315.35 298.07,313.92 294.73,312.7 "/>
<polygon fill-rule="evenodd" clip-rule="evenodd" fill="#FFFFFF" points="269.09,74.68 256.58,74.68 246.52,85.01 247.86,86.31 
	257.37,76.55 270.91,76.55 "/>
<polygon fill-rule="evenodd" clip-rule="evenodd" fill="#FFFFFF" points="301.86,76.55 299.25,76.55 308.76,86.31 310.1,85.01 "/>
<polygon fill-rule="evenodd" clip-rule="evenodd" fill="#FFFFFF" points="270.91,76.55 268.3,76.55 273.17,81.54 283.91,81.52 
	285.71,79.67 273.96,79.67 "/>
<polygon fill-rule="evenodd" clip-rule="evenodd" fill="#FFFFFF" points="300.04,74.68 287.96,74.68 283.12,79.65 273.96,79.67 
	285.71,79.67 288.75,76.55 301.86,76.55 "/>
<polygon fill-rule="evenodd" clip-rule="evenodd" fill="#FFFFFF" points="309.21,83.08 308.29,83.26 307.48,83.78 306.94,84.57 
	306.76,85.47 306.94,86.37 307.48,87.17 308.29,87.69 309.21,87.87 310.14,87.69 310.95,87.17 311.49,86.37 311.67,85.47 
	311.49,84.57 310.95,83.78 310.14,83.26 "/>
<polygon fill-rule="evenodd" clip-rule="evenodd" fill="#FFFFFF" points="247.35,83.08 246.45,83.26 245.66,83.78 245.14,84.57 
	244.96,85.47 245.14,86.37 245.66,87.17 246.45,87.69 247.35,87.87 248.25,87.69 249.05,87.17 249.57,86.37 249.75,85.47 
	249.57,84.57 249.05,83.78 248.25,83.26 "/>
<polygon fill-rule="evenodd" clip-rule="evenodd" fill="#FFFFFF" points="284.89,26.92 272.19,26.92 262.84,36.18 262.84,55.11 
	271.64,63.82 271.64,69.96 273.51,69.96 273.51,63.04 264.71,54.33 264.71,36.96 272.96,28.79 286.78,28.79 "/>
<polygon fill-rule="evenodd" clip-rule="evenodd" fill="#FFFFFF" points="286.78,28.79 284.12,28.79 292.37,36.96 292.37,54.33 
	283.57,63.04 283.57,69.96 285.44,69.96 285.44,63.82 294.24,55.11 294.24,36.18 "/>
<polygon fill-rule="evenodd" clip-rule="evenodd" fill="#FFFFFF" points="272.67,67.36 271.74,67.55 270.98,68.08 270.47,68.86 
	270.28,69.81 270.47,70.77 270.98,71.55 271.74,72.07 272.67,72.27 273.61,72.07 274.37,71.55 274.88,70.77 275.07,69.81 
	274.88,68.86 274.37,68.08 273.61,67.55 "/>
<polygon fill-rule="evenodd" clip-rule="evenodd" fill="#FFFFFF" points="284.43,67.36 283.5,67.55 282.74,68.08 282.23,68.86 
	282.04,69.81 282.23,70.77 282.74,71.55 283.5,72.07 284.43,72.27 285.37,72.07 286.13,71.55 286.64,70.77 286.83,69.81 
	286.64,68.86 286.13,68.08 285.37,67.55 "/>
<line fill="none" stroke="#FFFFFF" stroke-width="1.92" stroke-linejoin="round" stroke-miterlimit="10" x1="28.24" y1="278.44" x2="87.62" y2="278.44"/>
<polygon fill-rule="evenodd" clip-rule="evenodd" fill="#FFFFFF" points="28.35,276.4 27.56,276.56 26.91,276.99 26.48,277.64 
	26.32,278.43 26.48,279.21 26.91,279.86 27.56,280.29 28.35,280.45 29.13,280.29 29.78,279.86 30.21,279.21 30.37,278.43 
	30.21,277.64 29.78,276.99 29.13,276.56 "/>
<polygon fill-rule="evenodd" clip-rule="evenodd" fill="#FFFFFF" points="87.51,276.4 86.72,276.56 86.07,276.99 85.64,277.64 
	85.48,278.43 85.64,279.21 86.07,279.86 86.72,280.29 87.51,280.45 88.29,280.29 88.94,279.86 89.37,279.21 89.53,278.43 
	89.37,277.64 88.94,276.99 88.29,276.56 "/>
<line fill="none" stroke="#FFFFFF" stroke-width="1.92" stroke-linejoin="round" stroke-miterlimit="10" x1="73.6" y1="246.52" x2="73.6" y2="272.63"/>
<polygon fill-rule="evenodd" clip-rule="evenodd" fill="#FFFFFF" points="73.59,244.6 72.8,244.76 72.15,245.19 71.72,245.84 
	71.56,246.62 71.72,247.41 72.15,248.06 72.8,248.49 73.59,248.65 74.37,248.49 75.02,248.06 75.45,247.41 75.61,246.62 
	75.45,245.84 75.02,245.19 74.37,244.76 "/>
<line fill="none" stroke="#FFFFFF" stroke-width="1.92" stroke-linejoin="round" stroke-miterlimit="10" x1="81.64" y1="246.52" x2="81.64" y2="272.63"/>
<polygon fill-rule="evenodd" clip-rule="evenodd" fill="#FFFFFF" points="81.63,244.6 80.84,244.76 80.19,245.19 79.76,245.84 
	79.6,246.62 79.76,247.41 80.19,248.06 80.84,248.49 81.63,248.65 82.41,248.49 83.06,248.06 83.49,247.41 83.65,246.62 
	83.49,245.84 83.06,245.19 82.41,244.76 "/>
<line fill="none" stroke="#FFFFFF" stroke-width="1.92" stroke-linejoin="round" stroke-miterlimit="10" x1="34.24" y1="246.52" x2="34.24" y2="272.63"/>
<polygon fill-rule="evenodd" clip-rule="evenodd" fill="#FFFFFF" points="34.23,244.6 33.44,244.76 32.79,245.19 32.36,245.84 
	32.2,246.62 32.36,247.41 32.79,248.06 33.44,248.49 34.23,248.65 35.01,248.49 35.66,248.06 36.09,247.41 36.25,246.62 
	36.09,245.84 35.66,245.19 35.01,244.76 "/>
<line fill="none" stroke="#FFFFFF" stroke-width="1.92" stroke-linejoin="round" stroke-miterlimit="10" x1="42.16" y1="246.52" x2="42.16" y2="272.63"/>
<polygon fill-rule="evenodd" clip-rule="evenodd" fill="#FFFFFF" points="42.15,244.6 41.36,244.76 40.71,245.19 40.28,245.84 
	40.12,246.62 40.28,247.41 40.71,248.06 41.36,248.49 42.15,248.65 42.93,248.49 43.58,248.06 44.01,247.41 44.17,246.62 
	44.01,245.84 43.58,245.19 42.93,244.76 "/>
<polygon fill-rule="evenodd" clip-rule="evenodd" fill="#FFFFFF" points="57.97,216.52 28.24,233.66 28.24,240.73 87.6,240.73 
	87.6,239.79 85.73,239.79 85.73,238.86 30.11,238.86 30.11,234.73 57.96,218.68 61.7,218.68 "/>
<polygon fill-rule="evenodd" clip-rule="evenodd" fill="#FFFFFF" points="61.7,218.68 57.96,218.68 85.73,234.73 85.73,239.79 
	86.66,239.79 86.66,238.86 87.6,238.86 87.6,233.66 "/>
<rect x="86.66" y="238.855" fill-rule="evenodd" clip-rule="evenodd" fill="#FFFFFF" width="0.936" height="0.935"/>
<rect x="57.08" y="247.12" fill-rule="evenodd" clip-rule="evenodd" fill="#FFFFFF" width="1.64" height="23.64"/>
<polygon fill-rule="evenodd" clip-rule="evenodd" fill="#FFFFFF" points="52.42,264.34 51.24,265.5 53.73,268.04 57.08,268.04 
	57.08,266.39 54.42,266.39 "/>
<polygon fill-rule="evenodd" clip-rule="evenodd" fill="#FFFFFF" points="61.72,258.11 58.72,258.11 58.72,259.76 61.02,259.76 
	63.15,261.94 63.15,264.22 61.02,266.39 58.72,266.39 58.72,268.04 61.72,268.04 64.79,264.89 64.79,261.26 "/>
<polygon fill-rule="evenodd" clip-rule="evenodd" fill="#FFFFFF" points="57.08,249.84 54.63,249.84 51.16,252.96 51.16,256.61 
	54.23,259.76 57.08,259.76 57.08,258.11 54.93,258.11 52.81,255.94 52.81,253.69 55.26,251.49 57.08,251.49 "/>
<polygon fill-rule="evenodd" clip-rule="evenodd" fill="#FFFFFF" points="61.56,249.84 58.72,249.84 58.72,251.49 60.87,251.49 
	62.63,253.3 63.81,252.15 "/>
<g>
	<defs>
		<rect id="SVGID_1_" x="251.08" y="339.642" width="53.281" height="54.238"/>
	</defs>
	<clipPath id="SVGID_2_">
		<use xlink:href="#SVGID_1_"  overflow="visible"/>
	</clipPath>
	<g clip-path="url(#SVGID_2_)">
		<defs>
			<rect id="SVGID_3_" x="251.179" y="339.642" width="53.078" height="54.287"/>
		</defs>
		<clipPath id="SVGID_4_">
			<use xlink:href="#SVGID_3_"  overflow="visible"/>
		</clipPath>
		<polygon clip-path="url(#SVGID_4_)" fill="#FFFFFF" points="258.54,382.716 254.125,390.343 254.124,389.487 255.93,392.598 
			255.193,392.173 258.805,392.173 258.067,392.598 259.873,389.487 259.873,390.344 258.067,387.232 258.805,387.657 
			255.193,387.657 255.193,385.951 259.296,385.951 261.597,389.915 259.296,393.879 254.702,393.879 252.401,389.916 
			257.063,381.861 		"/>
	</g>
	<g clip-path="url(#SVGID_2_)">
		<defs>
			<rect id="SVGID_5_" x="251.179" y="339.642" width="53.078" height="54.287"/>
		</defs>
		<clipPath id="SVGID_6_">
			<use xlink:href="#SVGID_5_"  overflow="visible"/>
		</clipPath>
		<polygon clip-path="url(#SVGID_6_)" fill="#FFFFFF" points="252.885,340.595 258.554,340.595 258.554,382.389 257.701,381.536 
			293.915,381.536 298.72,389.918 296.42,393.879 291.926,393.879 289.625,389.915 291.926,385.951 295.929,385.951 
			295.929,387.657 292.417,387.657 293.155,387.232 291.349,390.344 291.349,389.487 293.155,392.598 292.417,392.173 
			295.929,392.173 295.191,392.598 296.998,389.487 296.995,390.34 292.681,382.813 293.42,383.242 256.848,383.242 
			256.848,341.447 257.701,342.301 252.885,342.301 		"/>
	</g>
	<g clip-path="url(#SVGID_2_)">
		<defs>
			<rect id="SVGID_7_" x="251.179" y="339.642" width="53.078" height="54.287"/>
		</defs>
		<clipPath id="SVGID_8_">
			<use xlink:href="#SVGID_7_"  overflow="visible"/>
		</clipPath>
		<path clip-path="url(#SVGID_8_)" fill="#FFFFFF" d="M252.985,343.254c-1.003,0-1.806-0.804-1.806-1.807s0.803-1.806,1.806-1.806
			s1.806,0.803,1.806,1.806S253.989,343.254,252.985,343.254"/>
	</g>
	<g clip-path="url(#SVGID_2_)">
		<defs>
			<rect id="SVGID_9_" x="251.179" y="339.642" width="53.078" height="54.287"/>
		</defs>
		<clipPath id="SVGID_10_">
			<use xlink:href="#SVGID_9_"  overflow="visible"/>
		</clipPath>
		<path clip-path="url(#SVGID_10_)" fill="#FFFFFF" d="M257.701,347.218h46.606v18.039l-4.673,8.151h-41.933v-1.706h41.439
			l-0.74,0.429l4.314-7.526l-0.113,0.425V348.07l0.853,0.853h-45.753V347.218z M295.628,357.252h-30.101v-1.705h30.101V357.252z
			 M295.628,365.28h-30.101v-1.706h30.101V365.28z"/>
	</g>
</g>
<g>
	<defs>
		<rect id="SVGID_11_" x="461.8" y="219.041" width="59.16" height="60.719"/>
	</defs>
	<clipPath id="SVGID_12_">
		<use xlink:href="#SVGID_11_"  overflow="visible"/>
	</clipPath>
	<path clip-path="url(#SVGID_12_)" fill="#FFFFFF" d="M495.014,239.477l0.21-0.521v3.443l-0.747-0.748h5.453v8.311h-5.453
		l0.747-0.748v22.311h-8.291v-22.311l0.747,0.748h-4.631v-8.311h4.631l-0.747,0.748v-6.596l6.56-6.655h7.035v8.311h-3.884
		l0.537-0.229L495.014,239.477z M496.326,235.961h3.454l-0.747,0.749v-6.813l0.747,0.749h-5.976l0.531-0.223l-6.125,6.215
		l0.216-0.527v7.038h-4.631l0.747-0.749v6.814l-0.747-0.75h4.631v22.312l-0.747-0.748h6.797l-0.747,0.748v-22.312h5.452l-0.747,0.75
		v-6.814l0.747,0.749h-5.452v-4.495L496.326,235.961z"/>
	<g clip-path="url(#SVGID_12_)">
		<defs>
			<rect id="SVGID_13_" x="461.8" y="219.04" width="59.155" height="60.796"/>
		</defs>
		<clipPath id="SVGID_14_">
			<use xlink:href="#SVGID_13_"  overflow="visible"/>
		</clipPath>
		<path clip-path="url(#SVGID_14_)" fill="#FFFFFF" d="M509.114,219.043l3.862,0.489l2.965,1.41l2.17,1.923l1.407,2.216l0.841,2.184
			l0.44,1.91l0.2,1.35v0.525v36.965l-0.488,3.866l-1.36,2.977l-1.967,2.175l-2.159,1.409l-2.182,0.845l-1.906,0.441l-1.348,0.2
			h-0.523h-35.287l-3.855-0.489l-3.022-1.363l-2.118-1.972l-1.453-2.158l-0.845-2.192l-0.44-1.911l-0.2-1.351v-0.523v-36.966
			l0.488-3.869l1.408-3.022l1.917-2.124l2.205-1.458l2.184-0.846l1.906-0.44l1.348-0.2h0.522L509.114,219.043z M473.827,220.54
			h-0.468l0.109-0.009l-1.264,0.188l0.059-0.012l-1.825,0.422l0.101-0.031l-2.059,0.798l0.142-0.073l-2.059,1.36l0.143-0.122
			l-1.778,1.97l0.123-0.186l-1.311,2.814l0.064-0.223l-0.468,3.706l0.006-0.094v36.918v0.469l-0.008-0.11l0.187,1.267l-0.011-0.059
			l0.421,1.83l-0.031-0.102l0.795,2.063l-0.078-0.148l1.357,2.018l-0.111-0.13l1.965,1.829l-0.202-0.134l2.808,1.267l-0.213-0.061
			l3.697,0.469l-0.093-0.006h35.24h0.468l-0.109,0.009l1.264-0.188l-0.059,0.012l1.825-0.422l-0.101,0.03l2.059-0.797l-0.139,0.071
			l2.012-1.314l-0.146,0.125l1.825-2.018l-0.126,0.191l1.264-2.767l-0.063,0.217l0.468-3.706l-0.006,0.095V231.05v-0.47l0.008,0.109
			l-0.188-1.267l0.012,0.06l-0.421-1.83l0.031,0.102l-0.796-2.064l0.067,0.133l-1.311-2.064l0.136,0.159l-2.013-1.782l0.175,0.115
			l-2.761-1.313l0.227,0.066l-3.697-0.47l0.094,0.007H473.827z"/>
	</g>
</g>
</svg>
