<?xml version="1.0" encoding="utf-8"?>
<!-- Generator: Adobe Illustrator 16.0.0, SVG Export Plug-In . SVG Version: 6.00 Build 0)  -->
<!DOCTYPE svg PUBLIC "-//W3C//DTD SVG 1.1//EN" "http://www.w3.org/Graphics/SVG/1.1/DTD/svg11.dtd">
<svg version="1.1" id="Layer_1" xmlns="http://www.w3.org/2000/svg" xmlns:xlink="http://www.w3.org/1999/xlink" x="0px" y="0px"
	 width="217.412px" height="417.565px" viewBox="0 0 217.412 417.565" enable-background="new 0 0 217.412 417.565"
	 xml:space="preserve">
<line fill="none" stroke="#FFFFFF" stroke-width="1.68" stroke-linejoin="round" stroke-miterlimit="10" x1="8.813" y1="9.38" x2="8.813" y2="104.25"/>
<line fill="none" stroke="#FFFFFF" stroke-width="1.68" stroke-linejoin="round" stroke-miterlimit="10" x1="8.813" y1="231.98" x2="8.813" y2="393.34"/>
<line fill="none" stroke="#FFFFFF" stroke-width="1.68" stroke-linejoin="round" stroke-miterlimit="10" x1="8.813" y1="101.9" x2="8.813" y2="233.5"/>
<polygon fill-rule="evenodd" clip-rule="evenodd" fill="#FFFFFF" points="172.662,83.54 57.582,83.54 56.702,83.58 51.322,84.58 
	47.702,86.01 44.052,88.38 40.842,91.94 38.582,96.89 37.952,99.95 37.732,103.38 37.732,106.25 38.042,109.26 38.772,112.41 
	40.192,116.03 42.563,119.69 46.122,122.9 51.072,125.16 54.122,125.79 57.582,126.01 195.842,126.01 196.712,125.97 198.952,125.7 
	202.092,124.97 203.782,124.31 57.582,124.31 54.353,124.1 49.132,122.63 44.563,119.38 42.672,116.96 40.393,111.92 39.662,108.66 
	39.432,103.38 39.632,100.17 41.103,94.95 44.362,90.38 46.772,88.49 51.813,86.21 55.072,85.48 57.563,85.24 172.662,85.24 "/>
<polygon fill-rule="evenodd" clip-rule="evenodd" fill="#FFFFFF" points="204.652,85.24 195.842,85.24 199.072,85.45 201.882,86.03 
	206.353,88.07 208.853,90.17 210.742,92.58 213.022,97.63 213.752,100.89 213.982,106.25 213.782,109.38 212.313,114.6 
	209.063,119.17 206.652,121.06 201.603,123.34 198.353,124.07 195.862,124.31 203.782,124.31 207.572,122.49 211.063,119.55 
	213.862,115.32 215.472,109.6 215.682,106.25 215.692,103.38 215.652,102.53 214.652,97.14 213.222,93.52 210.853,89.86 
	207.292,86.65 205.002,85.37 "/>
<polygon fill-rule="evenodd" clip-rule="evenodd" fill="#FFFFFF" points="195.842,83.54 172.662,83.54 172.662,85.24 204.652,85.24 
	202.342,84.39 199.292,83.76 "/>
<line fill="none" stroke="#FFFFFF" stroke-width="1.68" stroke-linejoin="round" stroke-miterlimit="10" x1="7.972" y1="104.78" x2="37.732" y2="104.78"/>
<line fill="none" stroke="#FFFFFF" stroke-width="1.68" stroke-linejoin="round" stroke-miterlimit="10" x1="9.772" y1="236.3" x2="36.643" y2="236.3"/>
<g>
	<polygon fill-rule="evenodd" clip-rule="evenodd" fill="#FFFFFF" points="171.582,215.06 56.502,215.06 55.622,215.1 50.242,216.1 
		46.622,217.53 42.972,219.9 39.762,223.459 37.502,228.41 36.872,231.47 36.652,234.9 36.652,237.77 36.962,240.78 37.692,243.93 
		39.112,247.55 41.482,251.209 45.042,254.419 49.992,256.68 53.042,257.31 56.502,257.53 194.762,257.53 195.632,257.49 
		197.872,257.22 201.012,256.49 202.702,255.83 56.502,255.83 53.272,255.62 48.052,254.15 43.482,250.9 41.592,248.48 
		39.313,243.44 38.582,240.18 38.353,234.9 38.552,231.69 40.022,226.47 43.282,221.9 45.692,220.01 50.732,217.73 53.992,217 
		56.482,216.76 171.582,216.76 	"/>
	<polygon fill-rule="evenodd" clip-rule="evenodd" fill="#FFFFFF" points="203.572,216.76 194.762,216.76 197.992,216.97 
		200.802,217.55 205.272,219.59 207.772,221.69 209.662,224.1 211.942,229.15 212.672,232.41 212.902,237.77 212.702,240.9 
		211.232,246.12 207.982,250.69 205.572,252.58 200.522,254.86 197.272,255.59 194.782,255.83 202.702,255.83 206.492,254.01 
		209.982,251.07 212.782,246.84 214.393,241.12 214.603,237.77 214.612,234.9 214.572,234.05 213.572,228.66 212.143,225.04 
		209.772,221.38 206.212,218.169 203.922,216.89 	"/>
	<polygon fill-rule="evenodd" clip-rule="evenodd" fill="#FFFFFF" points="194.762,215.06 171.582,215.06 171.582,216.76 
		203.572,216.76 201.262,215.91 198.212,215.28 	"/>
</g>
<line fill="none" stroke="#FFFFFF" stroke-width="1.68" stroke-linejoin="round" stroke-miterlimit="10" x1="9.772" y1="392.54" x2="36.643" y2="392.54"/>
<g>
	<polygon fill-rule="evenodd" clip-rule="evenodd" fill="#FFFFFF" points="171.582,371.3 56.502,371.3 55.622,371.34 50.242,372.34 
		46.622,373.77 42.972,376.14 39.762,379.7 37.502,384.65 36.872,387.709 36.652,391.14 36.652,394 36.962,397.02 37.692,400.169 
		39.112,403.79 41.482,407.45 45.042,410.66 49.992,412.919 53.042,413.55 56.502,413.77 194.762,413.77 195.632,413.73 
		197.872,413.459 201.012,412.73 202.702,412.07 56.502,412.07 53.272,411.86 48.052,410.39 43.482,407.14 41.592,404.72 
		39.313,399.68 38.582,396.419 38.353,391.14 38.552,387.93 40.022,382.709 43.282,378.14 45.692,376.25 50.732,373.97 
		53.992,373.24 56.482,373 171.582,373 	"/>
	<polygon fill-rule="evenodd" clip-rule="evenodd" fill="#FFFFFF" points="203.572,373 194.762,373 197.992,373.209 200.802,373.79 
		205.272,375.83 207.772,377.93 209.662,380.34 211.942,385.39 212.672,388.65 212.902,394 212.702,397.14 211.232,402.36 
		207.982,406.93 205.572,408.82 200.522,411.1 197.272,411.83 194.782,412.07 202.702,412.07 206.492,410.25 209.982,407.31 
		212.782,403.08 214.393,397.36 214.603,394 214.612,391.14 214.572,390.29 213.572,384.9 212.143,381.28 209.772,377.62 
		206.212,374.41 203.922,373.13 	"/>
	<polygon fill-rule="evenodd" clip-rule="evenodd" fill="#FFFFFF" points="194.762,371.3 171.582,371.3 171.582,373 203.572,373 
		201.262,372.15 198.212,371.52 	"/>
</g>
<g>
	<path fill="#FFFFFF" d="M77.272,109.171h-6.99v-9.385h6.976v1.359h-5.477v2.647h5.057v1.345h-5.057v2.675h5.491V109.171z"/>
	<path fill="#FFFFFF" d="M85.979,109.171h-1.457v-0.798c-0.635,0.663-1.476,0.995-2.521,0.995c-0.943,0-1.753-0.343-2.43-1.03
		c-0.678-0.687-1.016-1.566-1.016-2.641c0-1.064,0.341-1.942,1.022-2.633s1.489-1.037,2.423-1.037c1.046,0,1.887,0.332,2.521,0.995
		v-0.798h1.457V109.171z M83.836,107.413c0.458-0.444,0.687-1.016,0.687-1.716c0-0.7-0.229-1.272-0.687-1.716
		c-0.457-0.443-0.989-0.665-1.597-0.665c-0.653,0-1.195,0.217-1.625,0.651c-0.43,0.434-0.645,1.011-0.645,1.729
		c0,0.719,0.215,1.296,0.645,1.73c0.43,0.435,0.972,0.651,1.625,0.651C82.847,108.078,83.379,107.856,83.836,107.413z"/>
	<path fill="#FFFFFF" d="M89.056,107c0.047,0.393,0.227,0.687,0.54,0.883c0.313,0.196,0.712,0.294,1.197,0.294
		c0.42,0,0.754-0.084,1.002-0.252c0.247-0.168,0.371-0.392,0.371-0.672c0-0.411-0.313-0.687-0.938-0.827l-1.513-0.308
		c-1.261-0.28-1.892-0.911-1.892-1.891c0-0.653,0.25-1.184,0.75-1.59c0.499-0.406,1.165-0.609,1.996-0.609
		c0.784,0,1.436,0.185,1.954,0.554c0.518,0.369,0.843,0.852,0.973,1.45l-1.387,0.294c-0.056-0.345-0.224-0.621-0.504-0.826
		c-0.28-0.206-0.64-0.309-1.078-0.309c-0.402,0-0.708,0.086-0.918,0.259s-0.315,0.39-0.315,0.651c0,0.392,0.28,0.654,0.841,0.785
		l1.652,0.364c0.57,0.122,1.014,0.343,1.331,0.666s0.477,0.726,0.477,1.212c0,0.709-0.267,1.26-0.799,1.653
		c-0.532,0.392-1.242,0.588-2.129,0.588c-0.821,0-1.518-0.175-2.087-0.525c-0.57-0.35-0.896-0.861-0.98-1.534L89.056,107z"/>
	<path fill="#FFFFFF" d="M97.821,111.552h-1.624l1.134-2.549l-2.997-6.794h1.625l2.171,5.015l2.228-5.015h1.625L97.821,111.552z"/>
	<path fill="#FFFFFF" d="M111.347,108.834c-0.598,0.355-1.173,0.533-1.724,0.533c-0.774,0-1.387-0.217-1.835-0.651
		c-0.448-0.435-0.672-1.072-0.672-1.912v-3.376h-1.499v-1.205h1.499v-2.157h1.457v2.157h2.381v1.205h-2.381v3.278
		c0,0.42,0.103,0.74,0.308,0.959c0.205,0.22,0.485,0.329,0.841,0.329c0.401,0,0.794-0.126,1.177-0.378L111.347,108.834z"/>
	<path fill="#FFFFFF" d="M118.298,103.084c0.714,0.677,1.071,1.548,1.071,2.612c0,1.065-0.359,1.938-1.078,2.62
		c-0.72,0.682-1.597,1.022-2.634,1.022c-1.046,0-1.931-0.341-2.654-1.022s-1.086-1.555-1.086-2.62c0-1.064,0.362-1.935,1.086-2.612
		c0.724-0.677,1.608-1.016,2.654-1.016S117.583,102.408,118.298,103.084z M117.269,107.413c0.457-0.444,0.687-1.016,0.687-1.716
		c0-0.7-0.229-1.272-0.687-1.716c-0.458-0.443-0.995-0.665-1.611-0.665c-0.635,0-1.179,0.222-1.632,0.665
		c-0.453,0.444-0.68,1.016-0.68,1.716c0,0.701,0.227,1.272,0.68,1.716c0.453,0.443,0.997,0.665,1.632,0.665
		C116.273,108.078,116.811,107.856,117.269,107.413z"/>
	<path fill="#FFFFFF" d="M129.07,108.834c-0.598,0.355-1.172,0.533-1.724,0.533c-0.774,0-1.387-0.217-1.835-0.651
		c-0.448-0.435-0.672-1.072-0.672-1.912v-3.376h-1.499v-1.205h1.499v-2.157h1.457v2.157h2.381v1.205h-2.381v3.278
		c0,0.42,0.103,0.74,0.308,0.959c0.205,0.22,0.485,0.329,0.841,0.329c0.401,0,0.794-0.126,1.177-0.378L129.07,108.834z"/>
	<path fill="#FFFFFF" d="M134.838,102.195l-0.098,1.4c-0.075-0.009-0.211-0.014-0.406-0.014c-0.859,0-1.514,0.278-1.962,0.833
		s-0.672,1.324-0.672,2.304v2.451h-1.457v-6.948h1.457v1.485c0.635-1.046,1.518-1.569,2.647-1.569
		C134.553,102.139,134.717,102.158,134.838,102.195z"/>
	<path fill="#FFFFFF" d="M142.917,109.171h-1.457v-0.798c-0.635,0.663-1.476,0.995-2.521,0.995c-0.943,0-1.753-0.343-2.43-1.03
		c-0.678-0.687-1.016-1.566-1.016-2.641c0-1.064,0.341-1.942,1.022-2.633s1.489-1.037,2.423-1.037c1.046,0,1.887,0.332,2.521,0.995
		v-0.798h1.457V109.171z M140.773,107.413c0.458-0.444,0.687-1.016,0.687-1.716c0-0.7-0.229-1.272-0.687-1.716
		c-0.457-0.443-0.989-0.665-1.597-0.665c-0.653,0-1.195,0.217-1.625,0.651c-0.43,0.434-0.645,1.011-0.645,1.729
		c0,0.719,0.215,1.296,0.645,1.73c0.43,0.435,0.972,0.651,1.625,0.651C139.784,108.078,140.316,107.856,140.773,107.413z"/>
	<path fill="#FFFFFF" d="M151.009,102.847c0.513,0.546,0.77,1.253,0.77,2.122v4.202h-1.471v-3.908c0-0.569-0.151-1.027-0.455-1.373
		c-0.304-0.346-0.702-0.519-1.197-0.519c-0.645,0-1.151,0.22-1.521,0.659c-0.368,0.439-0.553,1.083-0.553,1.933v3.208h-1.457v-6.948
		h1.457v0.854c0.588-0.7,1.392-1.051,2.409-1.051C149.822,102.027,150.495,102.3,151.009,102.847z"/>
	<path fill="#FFFFFF" d="M154.673,107c0.047,0.393,0.227,0.687,0.54,0.883c0.313,0.196,0.712,0.294,1.197,0.294
		c0.42,0,0.754-0.084,1.002-0.252c0.247-0.168,0.371-0.392,0.371-0.672c0-0.411-0.313-0.687-0.938-0.827l-1.513-0.308
		c-1.261-0.28-1.892-0.911-1.892-1.891c0-0.653,0.25-1.184,0.75-1.59c0.499-0.406,1.165-0.609,1.996-0.609
		c0.784,0,1.436,0.185,1.954,0.554c0.518,0.369,0.843,0.852,0.973,1.45l-1.387,0.294c-0.056-0.345-0.224-0.621-0.504-0.826
		c-0.28-0.206-0.64-0.309-1.078-0.309c-0.402,0-0.708,0.086-0.918,0.259s-0.315,0.39-0.315,0.651c0,0.392,0.28,0.654,0.841,0.785
		l1.652,0.364c0.57,0.122,1.014,0.343,1.331,0.666s0.477,0.726,0.477,1.212c0,0.709-0.267,1.26-0.799,1.653
		c-0.532,0.392-1.242,0.588-2.129,0.588c-0.821,0-1.518-0.175-2.087-0.525c-0.57-0.35-0.896-0.861-0.98-1.534L154.673,107z"/>
	<path fill="#FFFFFF" d="M162.626,103.428v5.743h-1.456v-5.743h-1.135v-1.205h1.135v-0.827c0-0.775,0.233-1.389,0.7-1.842
		s1.088-0.679,1.863-0.679c0.41,0,0.808,0.084,1.19,0.252l-0.351,1.19c-0.242-0.093-0.49-0.14-0.742-0.14
		c-0.364,0-0.656,0.107-0.875,0.322c-0.22,0.215-0.33,0.514-0.33,0.896v0.827h2.312v1.205H162.626z"/>
	<path fill="#FFFFFF" d="M172.414,106.047h-5.631c0.065,0.625,0.299,1.125,0.7,1.499s0.868,0.561,1.4,0.561
		c0.962,0,1.644-0.402,2.046-1.205l1.303,0.28c-0.28,0.719-0.713,1.263-1.296,1.632c-0.584,0.369-1.268,0.554-2.053,0.554
		c-0.971,0-1.805-0.341-2.5-1.023c-0.695-0.682-1.044-1.559-1.044-2.633c0-1.083,0.349-1.968,1.044-2.654s1.548-1.03,2.557-1.03
		c0.943,0,1.748,0.33,2.416,0.988s1.021,1.501,1.058,2.528V106.047z M167.596,103.764c-0.411,0.299-0.668,0.714-0.771,1.247h4.09
		c-0.112-0.551-0.346-0.971-0.7-1.261s-0.779-0.434-1.274-0.434C168.454,103.316,168.006,103.465,167.596,103.764z"/>
	<path fill="#FFFFFF" d="M178.615,102.195l-0.098,1.4c-0.075-0.009-0.211-0.014-0.406-0.014c-0.859,0-1.514,0.278-1.962,0.833
		s-0.672,1.324-0.672,2.304v2.451h-1.457v-6.948h1.457v1.485c0.635-1.046,1.518-1.569,2.647-1.569
		C178.33,102.139,178.494,102.158,178.615,102.195z"/>
</g>
<g>
	<path fill="#FFFFFF" d="M82.478,240.691h-6.99v-9.385h6.976v1.359h-5.477v2.646h5.057v1.346h-5.057v2.675h5.491V240.691z"/>
	<path fill="#FFFFFF" d="M91.185,240.691h-1.457v-0.798c-0.635,0.663-1.476,0.995-2.521,0.995c-0.943,0-1.753-0.344-2.43-1.03
		c-0.678-0.687-1.016-1.566-1.016-2.641c0-1.064,0.341-1.942,1.022-2.634c0.682-0.69,1.489-1.036,2.423-1.036
		c1.046,0,1.887,0.331,2.521,0.995v-0.799h1.457V240.691z M89.041,238.933c0.458-0.443,0.687-1.016,0.687-1.716
		s-0.229-1.272-0.687-1.716c-0.457-0.443-0.989-0.665-1.597-0.665c-0.653,0-1.195,0.217-1.625,0.651
		c-0.43,0.434-0.645,1.011-0.645,1.729c0,0.72,0.215,1.296,0.645,1.729c0.43,0.436,0.972,0.652,1.625,0.652
		C88.052,239.599,88.584,239.376,89.041,238.933z"/>
	<path fill="#FFFFFF" d="M94.261,238.52c0.047,0.393,0.227,0.687,0.54,0.883c0.313,0.196,0.712,0.294,1.197,0.294
		c0.42,0,0.754-0.084,1.002-0.252c0.247-0.168,0.371-0.393,0.371-0.672c0-0.412-0.313-0.688-0.938-0.827l-1.513-0.308
		c-1.261-0.281-1.892-0.911-1.892-1.892c0-0.653,0.25-1.184,0.75-1.59c0.499-0.406,1.165-0.609,1.996-0.609
		c0.784,0,1.436,0.185,1.954,0.554c0.518,0.369,0.843,0.852,0.973,1.449l-1.387,0.295c-0.056-0.346-0.224-0.621-0.504-0.826
		c-0.28-0.206-0.64-0.309-1.078-0.309c-0.402,0-0.708,0.086-0.918,0.259s-0.315,0.39-0.315,0.651c0,0.393,0.28,0.654,0.841,0.785
		l1.652,0.363c0.57,0.121,1.014,0.344,1.331,0.666s0.477,0.726,0.477,1.211c0,0.71-0.267,1.261-0.799,1.653
		c-0.532,0.392-1.242,0.589-2.129,0.589c-0.821,0-1.518-0.176-2.087-0.525c-0.57-0.351-0.896-0.861-0.98-1.534L94.261,238.52z"/>
	<path fill="#FFFFFF" d="M103.026,243.073h-1.624l1.134-2.55l-2.997-6.793h1.625l2.171,5.014l2.228-5.014h1.625L103.026,243.073z"/>
	<path fill="#FFFFFF" d="M116.552,240.355c-0.598,0.355-1.173,0.533-1.724,0.533c-0.774,0-1.387-0.218-1.835-0.652
		c-0.448-0.434-0.672-1.071-0.672-1.912v-3.375h-1.499v-1.205h1.499v-2.157h1.457v2.157h2.381v1.205h-2.381v3.277
		c0,0.42,0.103,0.74,0.308,0.959c0.205,0.221,0.485,0.33,0.841,0.33c0.401,0,0.794-0.127,1.177-0.379L116.552,240.355z"/>
	<path fill="#FFFFFF" d="M123.503,234.605c0.714,0.678,1.071,1.548,1.071,2.612c0,1.065-0.359,1.938-1.078,2.62
		c-0.72,0.682-1.597,1.021-2.634,1.021c-1.046,0-1.931-0.34-2.654-1.021s-1.086-1.555-1.086-2.62c0-1.064,0.362-1.935,1.086-2.612
		c0.724-0.677,1.608-1.016,2.654-1.016S122.788,233.928,123.503,234.605z M122.474,238.933c0.457-0.443,0.687-1.016,0.687-1.716
		s-0.229-1.272-0.687-1.716c-0.458-0.443-0.995-0.665-1.611-0.665c-0.635,0-1.179,0.222-1.632,0.665s-0.68,1.016-0.68,1.716
		s0.227,1.272,0.68,1.716s0.997,0.666,1.632,0.666C121.479,239.599,122.016,239.376,122.474,238.933z"/>
	<path fill="#FFFFFF" d="M134.766,238.085l1.345,0.351c-0.188,0.737-0.596,1.331-1.226,1.779c-0.631,0.448-1.353,0.673-2.165,0.673
		c-1.018,0-1.884-0.344-2.598-1.03c-0.715-0.687-1.072-1.566-1.072-2.641c0-1.064,0.357-1.942,1.072-2.634
		c0.714-0.69,1.58-1.036,2.598-1.036c0.794,0,1.504,0.222,2.13,0.665c0.625,0.443,1.046,1.035,1.261,1.772l-1.401,0.406
		c-0.131-0.495-0.373-0.868-0.729-1.12c-0.354-0.252-0.774-0.379-1.261-0.379c-0.644,0-1.179,0.217-1.604,0.651
		s-0.638,0.992-0.638,1.674c0,0.7,0.211,1.263,0.631,1.688c0.42,0.425,0.957,0.637,1.61,0.637
		C133.757,239.542,134.438,239.057,134.766,238.085z"/>
	<path fill="#FFFFFF" d="M143.509,234.605c0.714,0.678,1.071,1.548,1.071,2.612c0,1.065-0.359,1.938-1.078,2.62
		c-0.72,0.682-1.597,1.021-2.634,1.021c-1.046,0-1.931-0.34-2.654-1.021s-1.086-1.555-1.086-2.62c0-1.064,0.362-1.935,1.086-2.612
		c0.724-0.677,1.608-1.016,2.654-1.016S142.794,233.928,143.509,234.605z M142.479,238.933c0.457-0.443,0.687-1.016,0.687-1.716
		s-0.229-1.272-0.687-1.716c-0.458-0.443-0.995-0.665-1.611-0.665c-0.635,0-1.179,0.222-1.632,0.665s-0.68,1.016-0.68,1.716
		s0.227,1.272,0.68,1.716s0.997,0.666,1.632,0.666C141.484,239.599,142.021,239.376,142.479,238.933z"/>
	<path fill="#FFFFFF" d="M152.084,234.367c0.513,0.547,0.77,1.254,0.77,2.123v4.201h-1.471v-3.908c0-0.568-0.151-1.027-0.455-1.372
		c-0.304-0.346-0.702-0.519-1.197-0.519c-0.645,0-1.151,0.22-1.521,0.658c-0.368,0.439-0.553,1.084-0.553,1.934v3.207H146.2v-6.947
		h1.457v0.854c0.588-0.7,1.392-1.051,2.409-1.051C150.897,233.547,151.57,233.821,152.084,234.367z"/>
	<path fill="#FFFFFF" d="M159.503,240.355c-0.598,0.355-1.173,0.533-1.724,0.533c-0.774,0-1.387-0.218-1.835-0.652
		c-0.448-0.434-0.672-1.071-0.672-1.912v-3.375h-1.499v-1.205h1.499v-2.157h1.457v2.157h2.381v1.205h-2.381v3.277
		c0,0.42,0.103,0.74,0.308,0.959c0.205,0.221,0.485,0.33,0.841,0.33c0.401,0,0.794-0.127,1.177-0.379L159.503,240.355z"/>
	<path fill="#FFFFFF" d="M165.271,233.716l-0.099,1.4c-0.074-0.01-0.21-0.014-0.405-0.014c-0.859,0-1.514,0.277-1.962,0.833
		s-0.672,1.323-0.672,2.304v2.451h-1.457v-6.947h1.457v1.484c0.635-1.045,1.518-1.568,2.647-1.568
		C164.985,233.66,165.149,233.678,165.271,233.716z"/>
	<path fill="#FFFFFF" d="M172.334,234.605c0.714,0.678,1.071,1.548,1.071,2.612c0,1.065-0.359,1.938-1.078,2.62
		c-0.72,0.682-1.597,1.021-2.634,1.021c-1.046,0-1.931-0.34-2.654-1.021s-1.086-1.555-1.086-2.62c0-1.064,0.362-1.935,1.086-2.612
		c0.724-0.677,1.608-1.016,2.654-1.016S171.619,233.928,172.334,234.605z M171.305,238.933c0.457-0.443,0.687-1.016,0.687-1.716
		s-0.229-1.272-0.687-1.716c-0.458-0.443-0.995-0.665-1.611-0.665c-0.635,0-1.179,0.222-1.632,0.665s-0.68,1.016-0.68,1.716
		s0.227,1.272,0.68,1.716s0.997,0.666,1.632,0.666C170.31,239.599,170.847,239.376,171.305,238.933z"/>
	<path fill="#FFFFFF" d="M175.026,240.691v-10.085h1.457v10.085H175.026z"/>
</g>
<g>
	<path fill="#FFFFFF" d="M75.23,396.932h-6.99v-9.386h6.976v1.359h-5.477v2.647h5.057v1.345h-5.057v2.676h5.491V396.932z"/>
	<path fill="#FFFFFF" d="M83.938,396.932H82.48v-0.798c-0.635,0.662-1.476,0.994-2.521,0.994c-0.943,0-1.753-0.344-2.43-1.029
		c-0.678-0.688-1.016-1.566-1.016-2.641c0-1.064,0.341-1.943,1.022-2.634s1.489-1.036,2.423-1.036c1.046,0,1.887,0.331,2.521,0.994
		v-0.799h1.457V396.932z M81.794,395.174c0.458-0.444,0.687-1.016,0.687-1.716c0-0.701-0.229-1.272-0.687-1.717
		c-0.457-0.443-0.989-0.664-1.597-0.664c-0.653,0-1.195,0.217-1.625,0.65c-0.43,0.435-0.645,1.012-0.645,1.73
		s0.215,1.295,0.645,1.729s0.972,0.651,1.625,0.651C80.805,395.839,81.337,395.618,81.794,395.174z"/>
	<path fill="#FFFFFF" d="M87.014,394.761c0.047,0.393,0.227,0.686,0.54,0.883c0.313,0.195,0.712,0.293,1.197,0.293
		c0.42,0,0.754-0.084,1.002-0.252c0.247-0.168,0.371-0.392,0.371-0.672c0-0.411-0.313-0.687-0.938-0.826l-1.513-0.309
		c-1.261-0.28-1.892-0.91-1.892-1.891c0-0.654,0.25-1.184,0.75-1.59c0.499-0.406,1.165-0.609,1.996-0.609
		c0.784,0,1.436,0.184,1.954,0.553c0.518,0.369,0.843,0.853,0.973,1.45l-1.387,0.294c-0.056-0.346-0.224-0.621-0.504-0.826
		s-0.64-0.309-1.078-0.309c-0.402,0-0.708,0.086-0.918,0.26c-0.21,0.172-0.315,0.39-0.315,0.65c0,0.393,0.28,0.654,0.841,0.785
		l1.652,0.363c0.57,0.122,1.014,0.344,1.331,0.666s0.477,0.727,0.477,1.212c0,0.71-0.267,1.261-0.799,1.653
		c-0.532,0.392-1.242,0.588-2.129,0.588c-0.821,0-1.518-0.176-2.087-0.525c-0.57-0.35-0.896-0.861-0.98-1.533L87.014,394.761z"/>
	<path fill="#FFFFFF" d="M95.779,399.314h-1.624l1.134-2.55l-2.997-6.794h1.625l2.171,5.015l2.228-5.015h1.625L95.779,399.314z"/>
	<path fill="#FFFFFF" d="M109.305,396.595c-0.598,0.355-1.173,0.533-1.724,0.533c-0.774,0-1.387-0.217-1.835-0.651
		s-0.672-1.071-0.672-1.912v-3.376h-1.499v-1.205h1.499v-2.156h1.457v2.156h2.381v1.205h-2.381v3.277c0,0.421,0.103,0.74,0.308,0.96
		s0.485,0.329,0.841,0.329c0.401,0,0.794-0.126,1.177-0.378L109.305,396.595z"/>
	<path fill="#FFFFFF" d="M116.256,390.845c0.714,0.678,1.071,1.549,1.071,2.613s-0.359,1.938-1.078,2.619
		c-0.72,0.682-1.597,1.022-2.634,1.022c-1.046,0-1.931-0.341-2.654-1.022s-1.086-1.555-1.086-2.619s0.362-1.936,1.086-2.613
		c0.724-0.676,1.608-1.016,2.654-1.016S115.541,390.169,116.256,390.845z M115.227,395.174c0.457-0.444,0.687-1.016,0.687-1.716
		c0-0.701-0.229-1.272-0.687-1.717c-0.458-0.443-0.995-0.664-1.611-0.664c-0.635,0-1.179,0.221-1.632,0.664
		c-0.453,0.444-0.68,1.016-0.68,1.717c0,0.7,0.227,1.271,0.68,1.716c0.453,0.443,0.997,0.665,1.632,0.665
		C114.231,395.839,114.769,395.618,115.227,395.174z"/>
	<path fill="#FFFFFF" d="M132.862,390.544c0.509,0.504,0.764,1.158,0.764,1.961v4.427h-1.443V392.8c0-0.505-0.147-0.908-0.441-1.212
		s-0.67-0.456-1.127-0.456c-0.579,0-1.037,0.201-1.373,0.604c-0.336,0.4-0.504,0.984-0.504,1.75v3.446h-1.457V392.8
		c0-0.505-0.147-0.908-0.441-1.212s-0.67-0.456-1.128-0.456c-0.569,0-1.02,0.201-1.352,0.604c-0.331,0.4-0.497,0.984-0.497,1.75
		v3.446h-1.457v-6.948h1.457v0.785c0.532-0.654,1.274-0.98,2.228-0.98c0.504,0,0.959,0.111,1.365,0.336s0.722,0.537,0.945,0.938
		c0.607-0.85,1.471-1.274,2.592-1.274C131.729,389.789,132.354,390.041,132.862,390.544z"/>
	<path fill="#FFFFFF" d="M141.456,390.845c0.714,0.678,1.071,1.549,1.071,2.613s-0.359,1.938-1.078,2.619
		c-0.72,0.682-1.597,1.022-2.634,1.022c-1.046,0-1.931-0.341-2.654-1.022s-1.086-1.555-1.086-2.619s0.362-1.936,1.086-2.613
		c0.724-0.676,1.608-1.016,2.654-1.016S140.741,390.169,141.456,390.845z M140.427,395.174c0.457-0.444,0.687-1.016,0.687-1.716
		c0-0.701-0.229-1.272-0.687-1.717c-0.458-0.443-0.995-0.664-1.611-0.664c-0.635,0-1.179,0.221-1.632,0.664
		c-0.453,0.444-0.68,1.016-0.68,1.717c0,0.7,0.227,1.271,0.68,1.716c0.453,0.443,0.997,0.665,1.632,0.665
		C139.432,395.839,139.969,395.618,140.427,395.174z"/>
	<path fill="#FFFFFF" d="M150.031,390.608c0.513,0.546,0.77,1.253,0.77,2.122v4.202h-1.471v-3.908c0-0.569-0.151-1.027-0.455-1.372
		c-0.304-0.346-0.702-0.52-1.197-0.52c-0.645,0-1.151,0.221-1.521,0.659c-0.368,0.438-0.553,1.083-0.553,1.933v3.208h-1.457v-6.948
		h1.457v0.855c0.588-0.701,1.392-1.051,2.409-1.051C148.845,389.789,149.518,390.062,150.031,390.608z"/>
	<path fill="#FFFFFF" d="M159.299,393.808h-5.631c0.065,0.626,0.299,1.125,0.7,1.499s0.868,0.561,1.4,0.561
		c0.962,0,1.644-0.401,2.046-1.204l1.302,0.279c-0.279,0.719-0.712,1.264-1.295,1.632c-0.584,0.369-1.268,0.554-2.053,0.554
		c-0.971,0-1.805-0.341-2.5-1.023c-0.695-0.682-1.044-1.559-1.044-2.633c0-1.083,0.349-1.968,1.044-2.654s1.548-1.029,2.557-1.029
		c0.943,0,1.748,0.329,2.416,0.987s1.021,1.501,1.058,2.528V393.808z M154.48,391.525c-0.411,0.299-0.668,0.715-0.771,1.247h4.09
		c-0.112-0.552-0.346-0.972-0.7-1.261s-0.779-0.434-1.274-0.434C155.339,391.078,154.891,391.226,154.48,391.525z"/>
	<path fill="#FFFFFF" d="M165.528,396.595c-0.598,0.355-1.172,0.533-1.724,0.533c-0.774,0-1.387-0.217-1.835-0.651
		s-0.672-1.071-0.672-1.912v-3.376h-1.499v-1.205h1.499v-2.156h1.457v2.156h2.381v1.205h-2.381v3.277c0,0.421,0.103,0.74,0.308,0.96
		s0.485,0.329,0.841,0.329c0.401,0,0.794-0.126,1.177-0.378L165.528,396.595z"/>
	<path fill="#FFFFFF" d="M168.2,387.253c0.178,0.177,0.266,0.392,0.266,0.645c0,0.261-0.086,0.476-0.259,0.644
		s-0.395,0.253-0.665,0.253c-0.271,0-0.495-0.085-0.673-0.253c-0.177-0.168-0.266-0.383-0.266-0.644
		c0-0.253,0.089-0.468,0.266-0.645c0.178-0.178,0.401-0.267,0.673-0.267C167.804,386.987,168.022,387.076,168.2,387.253z
		 M166.813,396.932v-6.948h1.457v6.948H166.813z"/>
	<path fill="#FFFFFF" d="M176.126,396.932h-6.093v-0.966l4.132-4.777h-4.02v-1.205h5.813v0.98l-4.132,4.764h4.3V396.932z"/>
	<path fill="#FFFFFF" d="M184.261,393.808h-5.631c0.065,0.626,0.299,1.125,0.7,1.499s0.868,0.561,1.4,0.561
		c0.962,0,1.644-0.401,2.046-1.204l1.303,0.279c-0.28,0.719-0.713,1.264-1.296,1.632c-0.584,0.369-1.268,0.554-2.053,0.554
		c-0.971,0-1.805-0.341-2.5-1.023c-0.695-0.682-1.044-1.559-1.044-2.633c0-1.083,0.349-1.968,1.044-2.654s1.548-1.029,2.557-1.029
		c0.943,0,1.748,0.329,2.416,0.987s1.021,1.501,1.058,2.528V393.808z M179.442,391.525c-0.411,0.299-0.668,0.715-0.771,1.247h4.09
		c-0.112-0.552-0.346-0.972-0.7-1.261s-0.779-0.434-1.274-0.434C180.301,391.078,179.853,391.226,179.442,391.525z"/>
</g>
<circle fill="#FFFFFF" cx="8.813" cy="9.38" r="2.875"/>
<circle fill="#FFFFFF" cx="8.813" cy="104.775" r="2.875"/>
<circle fill="#FFFFFF" cx="8.813" cy="236.3" r="2.875"/>
<circle fill="#FFFFFF" cx="8.813" cy="392.535" r="2.875"/>
</svg>
