<?xml version="1.0" encoding="utf-8"?>
<!-- Generator: Adobe Illustrator 16.0.0, SVG Export Plug-In . SVG Version: 6.00 Build 0)  -->
<!DOCTYPE svg PUBLIC "-//W3C//DTD SVG 1.1//EN" "http://www.w3.org/Graphics/SVG/1.1/DTD/svg11.dtd">
<svg version="1.1" xmlns="http://www.w3.org/2000/svg" xmlns:xlink="http://www.w3.org/1999/xlink" x="0px" y="0px" width="220px"
	 height="419px" viewBox="0 0 220 419" enable-background="new 0 0 220 419" xml:space="preserve">
<g id="Layer_1">
	<rect x="-739" y="-198" fill-rule="evenodd" clip-rule="evenodd" fill="none" width="1365.96" height="768"/>
	<rect x="-723.625" y="-195" fill-rule="evenodd" clip-rule="evenodd" fill="none" width="1365.96" height="768"/>
	<rect x="-739" y="-198" fill-rule="evenodd" clip-rule="evenodd" fill="none" width="1365.96" height="768"/>
	
		<line fill="none" stroke="#FFFFFF" stroke-width="1.68" stroke-linejoin="round" stroke-miterlimit="10" x1="10.4" y1="9.48" x2="10.4" y2="104.35"/>
	<rect x="-739" y="-198" fill-rule="evenodd" clip-rule="evenodd" fill="none" width="1365.96" height="768"/>
	
		<line fill="none" stroke="#FFFFFF" stroke-width="1.68" stroke-linejoin="round" stroke-miterlimit="10" x1="10.4" y1="232.08" x2="10.4" y2="393.44"/>
	
		<line fill="none" stroke="#FFFFFF" stroke-width="1.68" stroke-linejoin="round" stroke-miterlimit="10" x1="10.4" y1="102" x2="10.4" y2="233.6"/>
	<rect x="-739" y="-198" fill-rule="evenodd" clip-rule="evenodd" fill="none" width="1365.96" height="768"/>
	<polygon fill-rule="evenodd" clip-rule="evenodd" fill="#FFFFFF" points="171.25,83.64 56.17,83.64 55.29,83.68 49.91,84.68 
		46.29,86.11 42.64,88.48 39.43,92.04 37.17,96.99 36.54,100.05 36.32,103.48 36.32,106.35 36.63,109.36 37.36,112.51 38.78,116.13 
		41.15,119.79 44.71,123 49.66,125.26 52.71,125.89 56.17,126.11 194.43,126.11 195.3,126.07 197.54,125.8 200.68,125.07 
		202.37,124.41 56.17,124.41 52.94,124.2 47.72,122.73 43.15,119.48 41.26,117.06 38.98,112.02 38.25,108.76 38.02,103.48 
		38.22,100.27 39.69,95.05 42.95,90.48 45.36,88.59 50.4,86.31 53.66,85.58 56.15,85.34 171.25,85.34 	"/>
	<polygon fill-rule="evenodd" clip-rule="evenodd" fill="#FFFFFF" points="203.24,85.34 194.43,85.34 197.66,85.55 200.47,86.13 
		204.94,88.17 207.44,90.27 209.33,92.68 211.61,97.73 212.34,100.99 212.57,106.35 212.37,109.48 210.9,114.7 207.65,119.27 
		205.24,121.16 200.19,123.44 196.94,124.17 194.45,124.41 202.37,124.41 206.16,122.59 209.65,119.65 212.45,115.42 214.06,109.7 
		214.27,106.35 214.28,103.48 214.24,102.63 213.24,97.24 211.81,93.62 209.44,89.96 205.88,86.75 203.59,85.47 	"/>
	<polygon fill-rule="evenodd" clip-rule="evenodd" fill="#FFFFFF" points="194.43,83.64 171.25,83.64 171.25,85.34 203.24,85.34 
		200.93,84.49 197.88,83.86 	"/>
	
		<line fill="none" stroke="#FFFFFF" stroke-width="1.68" stroke-linejoin="round" stroke-miterlimit="10" x1="9.56" y1="104.88" x2="36.43" y2="104.88"/>
	
		<line fill="none" stroke="#FFFFFF" stroke-width="1.68" stroke-linejoin="round" stroke-miterlimit="10" x1="11.36" y1="236.4" x2="38.23" y2="236.4"/>
	<polygon fill-rule="evenodd" clip-rule="evenodd" fill="#FFFFFF" points="173.17,215.16 58.09,215.16 57.21,215.2 51.83,216.2 
		48.21,217.63 44.56,220 41.35,223.56 39.09,228.51 38.46,231.57 38.24,235 38.24,237.87 38.55,240.88 39.28,244.03 40.7,247.65 
		43.07,251.31 46.63,254.52 51.58,256.78 54.63,257.41 58.09,257.63 196.35,257.63 197.22,257.59 199.46,257.32 202.6,256.59 
		204.29,255.93 58.09,255.93 54.86,255.72 49.64,254.25 45.07,251 43.18,248.58 40.9,243.54 40.17,240.28 39.94,235 40.14,231.79 
		41.61,226.57 44.87,222 47.28,220.11 52.32,217.83 55.58,217.1 58.07,216.86 173.17,216.86 	"/>
	<polygon fill-rule="evenodd" clip-rule="evenodd" fill="#FFFFFF" points="205.16,216.86 196.35,216.86 199.58,217.07 
		202.39,217.65 206.86,219.69 209.36,221.79 211.25,224.2 213.53,229.25 214.26,232.51 214.49,237.87 214.29,241 212.82,246.22 
		209.57,250.79 207.16,252.68 202.11,254.96 198.86,255.69 196.37,255.93 204.29,255.93 208.08,254.11 211.57,251.17 214.37,246.94 
		215.98,241.22 216.19,237.87 216.2,235 216.16,234.15 215.16,228.76 213.73,225.14 211.36,221.48 207.8,218.27 205.51,216.99 	"/>
	<polygon fill-rule="evenodd" clip-rule="evenodd" fill="#FFFFFF" points="196.35,215.16 173.17,215.16 173.17,216.86 
		205.16,216.86 202.85,216.01 199.8,215.38 	"/>
	
		<line fill="none" stroke="#FFFFFF" stroke-width="1.68" stroke-linejoin="round" stroke-miterlimit="10" x1="11.36" y1="392.64" x2="38.23" y2="392.64"/>
	<polygon fill-rule="evenodd" clip-rule="evenodd" fill="#FFFFFF" points="173.17,371.4 58.09,371.4 57.21,371.44 51.83,372.44 
		48.21,373.87 44.56,376.24 41.35,379.8 39.09,384.75 38.46,387.81 38.24,391.24 38.24,394.1 38.55,397.12 39.28,400.27 
		40.7,403.89 43.07,407.55 46.63,410.76 51.58,413.02 54.63,413.65 58.09,413.87 196.35,413.87 197.22,413.83 199.46,413.56 
		202.6,412.83 204.29,412.17 58.09,412.17 54.86,411.96 49.64,410.49 45.07,407.24 43.18,404.82 40.9,399.78 40.17,396.52 
		39.94,391.24 40.14,388.03 41.61,382.81 44.87,378.24 47.28,376.35 52.32,374.07 55.58,373.34 58.07,373.1 173.17,373.1 	"/>
	<polygon fill-rule="evenodd" clip-rule="evenodd" fill="#FFFFFF" points="205.16,373.1 196.35,373.1 199.58,373.31 202.39,373.89 
		206.86,375.93 209.36,378.03 211.25,380.44 213.53,385.49 214.26,388.75 214.49,394.1 214.29,397.24 212.82,402.46 209.57,407.03 
		207.16,408.92 202.11,411.2 198.86,411.93 196.37,412.17 204.29,412.17 208.08,410.35 211.57,407.41 214.37,403.18 215.98,397.46 
		216.19,394.1 216.2,391.24 216.16,390.39 215.16,385 213.73,381.38 211.36,377.72 207.8,374.51 205.51,373.23 	"/>
	<polygon fill-rule="evenodd" clip-rule="evenodd" fill="#FFFFFF" points="196.35,371.4 173.17,371.4 173.17,373.1 205.16,373.1 
		202.85,372.25 199.8,371.62 	"/>
	<g>
		<path fill="#FFFFFF" d="M77.146,110.171h-1.499v-4.034h-5.07v4.034h-1.499v-9.385h1.499v3.979h5.07v-3.979h1.499V110.171z"/>
		<path fill="#FFFFFF" d="M86.147,110.171H84.69v-0.798c-0.635,0.663-1.476,0.995-2.521,0.995c-0.943,0-1.753-0.343-2.43-1.03
			c-0.678-0.687-1.016-1.566-1.016-2.641c0-1.064,0.341-1.942,1.022-2.633s1.489-1.037,2.423-1.037c1.046,0,1.887,0.332,2.521,0.995
			v-0.798h1.457V110.171z M84.004,108.413c0.458-0.444,0.687-1.016,0.687-1.716c0-0.7-0.229-1.272-0.687-1.716
			c-0.457-0.443-0.989-0.665-1.597-0.665c-0.653,0-1.195,0.217-1.625,0.651c-0.43,0.434-0.645,1.011-0.645,1.729
			c0,0.719,0.215,1.296,0.645,1.73c0.43,0.435,0.972,0.651,1.625,0.651C83.015,109.078,83.547,108.856,84.004,108.413z"/>
		<path fill="#FFFFFF" d="M92.95,103.195l-0.099,1.4c-0.074-0.009-0.21-0.014-0.405-0.014c-0.859,0-1.514,0.278-1.962,0.833
			s-0.672,1.324-0.672,2.304v2.451h-1.457v-6.948h1.457v1.485c0.635-1.046,1.518-1.569,2.647-1.569
			C92.665,103.139,92.829,103.158,92.95,103.195z"/>
		<path fill="#FFFFFF" d="M101.071,110.171h-1.471v-0.785c-0.654,0.654-1.494,0.981-2.521,0.981c-0.934,0-1.741-0.346-2.424-1.037
			c-0.682-0.691-1.022-1.569-1.022-2.634c0-1.064,0.341-1.942,1.022-2.633c0.683-0.691,1.49-1.037,2.424-1.037
			c1.036,0,1.877,0.332,2.521,0.995v-3.936h1.471V110.171z M98.914,108.42c0.458-0.439,0.687-1.013,0.687-1.723
			c0-0.7-0.229-1.272-0.687-1.716c-0.458-0.443-0.99-0.665-1.597-0.665c-0.645,0-1.182,0.219-1.611,0.658s-0.645,1.013-0.645,1.723
			c0,0.719,0.215,1.296,0.645,1.73c0.43,0.435,0.967,0.651,1.611,0.651C97.924,109.078,98.456,108.859,98.914,108.42z"/>
		<path fill="#FFFFFF" d="M111.347,109.834c-0.598,0.355-1.173,0.533-1.724,0.533c-0.774,0-1.387-0.217-1.835-0.651
			c-0.448-0.435-0.672-1.072-0.672-1.912v-3.376h-1.499v-1.205h1.499v-2.157h1.457v2.157h2.381v1.205h-2.381v3.278
			c0,0.42,0.103,0.74,0.308,0.959c0.205,0.22,0.485,0.329,0.841,0.329c0.401,0,0.794-0.126,1.177-0.378L111.347,109.834z"/>
		<path fill="#FFFFFF" d="M118.298,104.084c0.714,0.677,1.071,1.548,1.071,2.612c0,1.065-0.359,1.938-1.078,2.62
			c-0.72,0.682-1.597,1.022-2.634,1.022c-1.046,0-1.931-0.341-2.654-1.022s-1.086-1.555-1.086-2.62c0-1.064,0.362-1.935,1.086-2.612
			c0.724-0.677,1.608-1.016,2.654-1.016S117.583,103.408,118.298,104.084z M117.269,108.413c0.457-0.444,0.687-1.016,0.687-1.716
			c0-0.7-0.229-1.272-0.687-1.716c-0.458-0.443-0.995-0.665-1.611-0.665c-0.635,0-1.179,0.222-1.632,0.665
			c-0.453,0.444-0.68,1.016-0.68,1.716c0,0.701,0.227,1.272,0.68,1.716c0.453,0.443,0.997,0.665,1.632,0.665
			C116.273,109.078,116.811,108.856,117.269,108.413z"/>
		<path fill="#FFFFFF" d="M129.07,109.834c-0.598,0.355-1.172,0.533-1.724,0.533c-0.774,0-1.387-0.217-1.835-0.651
			c-0.448-0.435-0.672-1.072-0.672-1.912v-3.376h-1.499v-1.205h1.499v-2.157h1.457v2.157h2.381v1.205h-2.381v3.278
			c0,0.42,0.103,0.74,0.308,0.959c0.205,0.22,0.485,0.329,0.841,0.329c0.401,0,0.794-0.126,1.177-0.378L129.07,109.834z"/>
		<path fill="#FFFFFF" d="M134.838,103.195l-0.098,1.4c-0.075-0.009-0.211-0.014-0.406-0.014c-0.859,0-1.514,0.278-1.962,0.833
			s-0.672,1.324-0.672,2.304v2.451h-1.457v-6.948h1.457v1.485c0.635-1.046,1.518-1.569,2.647-1.569
			C134.553,103.139,134.717,103.158,134.838,103.195z"/>
		<path fill="#FFFFFF" d="M142.917,110.171h-1.457v-0.798c-0.635,0.663-1.476,0.995-2.521,0.995c-0.943,0-1.753-0.343-2.43-1.03
			c-0.678-0.687-1.016-1.566-1.016-2.641c0-1.064,0.341-1.942,1.022-2.633s1.489-1.037,2.423-1.037c1.046,0,1.887,0.332,2.521,0.995
			v-0.798h1.457V110.171z M140.773,108.413c0.458-0.444,0.687-1.016,0.687-1.716c0-0.7-0.229-1.272-0.687-1.716
			c-0.457-0.443-0.989-0.665-1.597-0.665c-0.653,0-1.195,0.217-1.625,0.651c-0.43,0.434-0.645,1.011-0.645,1.729
			c0,0.719,0.215,1.296,0.645,1.73c0.43,0.435,0.972,0.651,1.625,0.651C139.784,109.078,140.316,108.856,140.773,108.413z"/>
		<path fill="#FFFFFF" d="M151.009,103.847c0.513,0.546,0.77,1.253,0.77,2.122v4.202h-1.471v-3.908c0-0.569-0.151-1.027-0.455-1.373
			c-0.304-0.346-0.702-0.519-1.197-0.519c-0.645,0-1.151,0.22-1.521,0.659c-0.368,0.439-0.553,1.083-0.553,1.933v3.208h-1.457
			v-6.948h1.457v0.854c0.588-0.7,1.392-1.051,2.409-1.051C149.822,103.027,150.495,103.3,151.009,103.847z"/>
		<path fill="#FFFFFF" d="M154.673,108c0.047,0.393,0.227,0.687,0.54,0.883c0.313,0.196,0.712,0.294,1.197,0.294
			c0.42,0,0.754-0.084,1.002-0.252c0.247-0.168,0.371-0.392,0.371-0.672c0-0.411-0.313-0.687-0.938-0.827l-1.513-0.308
			c-1.261-0.28-1.892-0.911-1.892-1.891c0-0.653,0.25-1.184,0.75-1.59c0.499-0.406,1.165-0.609,1.996-0.609
			c0.784,0,1.436,0.185,1.954,0.554c0.518,0.369,0.843,0.852,0.973,1.45l-1.387,0.294c-0.056-0.345-0.224-0.621-0.504-0.826
			c-0.28-0.206-0.64-0.309-1.078-0.309c-0.402,0-0.708,0.086-0.918,0.259s-0.315,0.39-0.315,0.651c0,0.392,0.28,0.654,0.841,0.785
			l1.652,0.364c0.57,0.122,1.014,0.343,1.331,0.666s0.477,0.726,0.477,1.212c0,0.709-0.267,1.26-0.799,1.653
			c-0.532,0.392-1.242,0.588-2.129,0.588c-0.821,0-1.518-0.175-2.087-0.525c-0.57-0.35-0.896-0.861-0.98-1.534L154.673,108z"/>
		<path fill="#FFFFFF" d="M162.625,104.428v5.743h-1.456v-5.743h-1.135v-1.205h1.135v-0.827c0-0.775,0.233-1.389,0.7-1.842
			s1.088-0.679,1.863-0.679c0.41,0,0.808,0.084,1.19,0.252l-0.351,1.19c-0.242-0.093-0.49-0.14-0.742-0.14
			c-0.364,0-0.656,0.107-0.875,0.322c-0.22,0.215-0.33,0.514-0.33,0.896v0.827h2.312v1.205H162.625z"/>
		<path fill="#FFFFFF" d="M172.414,107.047h-5.631c0.065,0.625,0.299,1.125,0.7,1.499s0.868,0.561,1.4,0.561
			c0.962,0,1.644-0.402,2.046-1.205l1.303,0.28c-0.28,0.719-0.713,1.263-1.296,1.632c-0.584,0.369-1.268,0.554-2.053,0.554
			c-0.971,0-1.805-0.341-2.5-1.023c-0.695-0.682-1.044-1.559-1.044-2.633c0-1.083,0.349-1.968,1.044-2.654s1.548-1.03,2.557-1.03
			c0.943,0,1.748,0.33,2.416,0.988s1.021,1.501,1.058,2.528V107.047z M167.596,104.764c-0.411,0.299-0.668,0.714-0.771,1.247h4.09
			c-0.112-0.551-0.346-0.971-0.7-1.261s-0.779-0.434-1.274-0.434C168.454,104.316,168.006,104.465,167.596,104.764z"/>
		<path fill="#FFFFFF" d="M178.615,103.195l-0.098,1.4c-0.075-0.009-0.211-0.014-0.406-0.014c-0.859,0-1.514,0.278-1.962,0.833
			s-0.672,1.324-0.672,2.304v2.451h-1.457v-6.948h1.457v1.485c0.635-1.046,1.518-1.569,2.647-1.569
			C178.33,103.139,178.494,103.158,178.615,103.195z"/>
	</g>
	<g>
		<path fill="#FFFFFF" d="M82.351,241.691h-1.499v-4.034h-5.07v4.034h-1.499v-9.385h1.499v3.979h5.07v-3.979h1.499V241.691z"/>
		<path fill="#FFFFFF" d="M91.352,241.691h-1.457v-0.799c-0.635,0.664-1.476,0.995-2.521,0.995c-0.943,0-1.753-0.343-2.43-1.03
			c-0.678-0.686-1.016-1.566-1.016-2.641c0-1.064,0.341-1.941,1.022-2.633s1.489-1.037,2.423-1.037c1.046,0,1.887,0.332,2.521,0.995
			v-0.798h1.457V241.691z M89.208,239.934c0.458-0.443,0.687-1.016,0.687-1.717c0-0.699-0.229-1.271-0.687-1.715
			c-0.457-0.443-0.989-0.666-1.597-0.666c-0.653,0-1.195,0.217-1.625,0.652c-0.43,0.434-0.645,1.01-0.645,1.729
			c0,0.72,0.215,1.297,0.645,1.73c0.43,0.435,0.972,0.651,1.625,0.651C88.219,240.599,88.751,240.377,89.208,239.934z"/>
		<path fill="#FFFFFF" d="M98.154,234.716l-0.098,1.4c-0.075-0.009-0.211-0.014-0.406-0.014c-0.859,0-1.514,0.278-1.962,0.833
			c-0.448,0.557-0.672,1.324-0.672,2.305v2.451H93.56v-6.947h1.457v1.484c0.635-1.046,1.518-1.568,2.647-1.568
			C97.869,234.66,98.033,234.678,98.154,234.716z"/>
		<path fill="#FFFFFF" d="M106.275,241.691h-1.471v-0.785c-0.654,0.654-1.494,0.981-2.521,0.981c-0.934,0-1.741-0.346-2.424-1.036
			c-0.682-0.691-1.022-1.569-1.022-2.635c0-1.064,0.341-1.941,1.022-2.633c0.683-0.691,1.49-1.037,2.424-1.037
			c1.036,0,1.877,0.332,2.521,0.995v-3.937h1.471V241.691z M104.118,239.94c0.458-0.438,0.687-1.013,0.687-1.724
			c0-0.699-0.229-1.271-0.687-1.715s-0.99-0.666-1.597-0.666c-0.645,0-1.182,0.22-1.611,0.658c-0.43,0.439-0.645,1.014-0.645,1.723
			c0,0.72,0.215,1.297,0.645,1.73c0.43,0.435,0.967,0.651,1.611,0.651C103.128,240.599,103.66,240.379,104.118,239.94z"/>
		<path fill="#FFFFFF" d="M116.551,241.355c-0.598,0.354-1.172,0.532-1.724,0.532c-0.774,0-1.387-0.218-1.835-0.651
			c-0.448-0.435-0.672-1.072-0.672-1.912v-3.376h-1.499v-1.204h1.499v-2.158h1.457v2.158h2.381v1.204h-2.381v3.278
			c0,0.42,0.103,0.74,0.308,0.959c0.205,0.22,0.485,0.329,0.841,0.329c0.401,0,0.794-0.126,1.177-0.378L116.551,241.355z"/>
		<path fill="#FFFFFF" d="M123.502,235.605c0.714,0.677,1.071,1.547,1.071,2.611c0,1.065-0.359,1.938-1.078,2.62
			c-0.72,0.682-1.597,1.022-2.634,1.022c-1.046,0-1.931-0.341-2.654-1.022s-1.086-1.555-1.086-2.62c0-1.064,0.362-1.935,1.086-2.611
			c0.724-0.678,1.608-1.016,2.654-1.016S122.787,234.928,123.502,235.605z M122.473,239.934c0.457-0.443,0.687-1.016,0.687-1.717
			c0-0.699-0.229-1.271-0.687-1.715c-0.458-0.443-0.995-0.666-1.611-0.666c-0.635,0-1.179,0.223-1.632,0.666s-0.68,1.016-0.68,1.715
			c0,0.701,0.227,1.273,0.68,1.717s0.997,0.665,1.632,0.665C121.478,240.599,122.015,240.377,122.473,239.934z"/>
		<path fill="#FFFFFF" d="M134.765,239.086l1.345,0.35c-0.188,0.738-0.596,1.332-1.226,1.779c-0.631,0.449-1.353,0.673-2.165,0.673
			c-1.018,0-1.884-0.343-2.598-1.03c-0.715-0.686-1.072-1.566-1.072-2.641c0-1.064,0.357-1.941,1.072-2.633
			c0.714-0.691,1.58-1.037,2.598-1.037c0.794,0,1.504,0.223,2.13,0.666c0.625,0.443,1.046,1.034,1.261,1.771l-1.401,0.406
			c-0.131-0.494-0.373-0.868-0.729-1.12c-0.354-0.252-0.774-0.378-1.261-0.378c-0.644,0-1.179,0.217-1.604,0.65
			c-0.425,0.436-0.638,0.992-0.638,1.674c0,0.701,0.211,1.264,0.631,1.688s0.957,0.638,1.61,0.638
			C133.756,240.543,134.438,240.057,134.765,239.086z"/>
		<path fill="#FFFFFF" d="M143.508,235.605c0.714,0.677,1.071,1.547,1.071,2.611c0,1.065-0.359,1.938-1.078,2.62
			c-0.72,0.682-1.597,1.022-2.634,1.022c-1.046,0-1.931-0.341-2.654-1.022s-1.086-1.555-1.086-2.62c0-1.064,0.362-1.935,1.086-2.611
			c0.724-0.678,1.608-1.016,2.654-1.016S142.793,234.928,143.508,235.605z M142.479,239.934c0.457-0.443,0.687-1.016,0.687-1.717
			c0-0.699-0.229-1.271-0.687-1.715c-0.458-0.443-0.995-0.666-1.611-0.666c-0.635,0-1.179,0.223-1.632,0.666s-0.68,1.016-0.68,1.715
			c0,0.701,0.227,1.273,0.68,1.717s0.997,0.665,1.632,0.665C141.483,240.599,142.021,240.377,142.479,239.934z"/>
		<path fill="#FFFFFF" d="M152.083,235.367c0.513,0.546,0.77,1.254,0.77,2.122v4.202h-1.471v-3.908c0-0.569-0.151-1.027-0.455-1.373
			s-0.702-0.518-1.197-0.518c-0.645,0-1.151,0.219-1.521,0.658c-0.368,0.439-0.553,1.083-0.553,1.934v3.207h-1.457v-6.947h1.457
			v0.854c0.588-0.699,1.392-1.051,2.409-1.051C150.896,234.547,151.569,234.82,152.083,235.367z"/>
		<path fill="#FFFFFF" d="M159.502,241.355c-0.598,0.354-1.172,0.532-1.724,0.532c-0.774,0-1.387-0.218-1.835-0.651
			c-0.448-0.435-0.672-1.072-0.672-1.912v-3.376h-1.499v-1.204h1.499v-2.158h1.457v2.158h2.381v1.204h-2.381v3.278
			c0,0.42,0.103,0.74,0.308,0.959c0.205,0.22,0.485,0.329,0.841,0.329c0.401,0,0.794-0.126,1.177-0.378L159.502,241.355z"/>
		<path fill="#FFFFFF" d="M165.27,234.716l-0.098,1.4c-0.075-0.009-0.211-0.014-0.406-0.014c-0.859,0-1.514,0.278-1.962,0.833
			c-0.448,0.557-0.672,1.324-0.672,2.305v2.451h-1.457v-6.947h1.457v1.484c0.635-1.046,1.518-1.568,2.647-1.568
			C164.984,234.66,165.148,234.678,165.27,234.716z"/>
		<path fill="#FFFFFF" d="M172.333,235.605c0.714,0.677,1.071,1.547,1.071,2.611c0,1.065-0.359,1.938-1.078,2.62
			c-0.72,0.682-1.597,1.022-2.634,1.022c-1.046,0-1.931-0.341-2.654-1.022s-1.086-1.555-1.086-2.62c0-1.064,0.362-1.935,1.086-2.611
			c0.724-0.678,1.608-1.016,2.654-1.016S171.618,234.928,172.333,235.605z M171.304,239.934c0.457-0.443,0.687-1.016,0.687-1.717
			c0-0.699-0.229-1.271-0.687-1.715c-0.458-0.443-0.995-0.666-1.611-0.666c-0.635,0-1.179,0.223-1.632,0.666s-0.68,1.016-0.68,1.715
			c0,0.701,0.227,1.273,0.68,1.717s0.997,0.665,1.632,0.665C170.309,240.599,170.846,240.377,171.304,239.934z"/>
		<path fill="#FFFFFF" d="M175.024,241.691v-10.086h1.457v10.086H175.024z"/>
	</g>
	<g>
		<path fill="#FFFFFF" d="M75.104,397.932h-1.499v-4.033h-5.07v4.033h-1.499v-9.385h1.499v3.979h5.07v-3.979h1.499V397.932z"/>
		<path fill="#FFFFFF" d="M84.104,397.932h-1.457v-0.798c-0.635,0.663-1.476,0.995-2.521,0.995c-0.943,0-1.753-0.344-2.43-1.03
			c-0.678-0.687-1.016-1.566-1.016-2.641c0-1.064,0.341-1.942,1.022-2.634c0.682-0.69,1.489-1.036,2.423-1.036
			c1.046,0,1.887,0.331,2.521,0.995v-0.799h1.457V397.932z M81.961,396.174c0.458-0.443,0.687-1.016,0.687-1.716
			s-0.229-1.272-0.687-1.716c-0.457-0.443-0.989-0.665-1.597-0.665c-0.653,0-1.195,0.217-1.625,0.651
			c-0.43,0.434-0.645,1.011-0.645,1.729c0,0.72,0.215,1.296,0.645,1.729c0.43,0.436,0.972,0.652,1.625,0.652
			C80.972,396.84,81.504,396.617,81.961,396.174z"/>
		<path fill="#FFFFFF" d="M90.907,390.957l-0.098,1.4c-0.075-0.01-0.211-0.014-0.406-0.014c-0.859,0-1.514,0.277-1.962,0.833
			s-0.672,1.323-0.672,2.304v2.451h-1.457v-6.947h1.457v1.484c0.635-1.045,1.518-1.568,2.647-1.568
			C90.622,390.9,90.786,390.919,90.907,390.957z"/>
		<path fill="#FFFFFF" d="M99.028,397.932h-1.471v-0.784c-0.654,0.653-1.494,0.981-2.521,0.981c-0.934,0-1.741-0.346-2.424-1.037
			c-0.682-0.691-1.022-1.568-1.022-2.634c0-1.064,0.341-1.942,1.022-2.634c0.683-0.69,1.49-1.036,2.424-1.036
			c1.036,0,1.877,0.331,2.521,0.995v-3.937h1.471V397.932z M96.871,396.182c0.458-0.439,0.687-1.014,0.687-1.724
			c0-0.7-0.229-1.272-0.687-1.716s-0.99-0.665-1.597-0.665c-0.645,0-1.182,0.22-1.611,0.658s-0.645,1.013-0.645,1.723
			c0,0.72,0.215,1.296,0.645,1.729c0.43,0.436,0.967,0.652,1.611,0.652C95.881,396.84,96.413,396.62,96.871,396.182z"/>
		<path fill="#FFFFFF" d="M109.304,397.596c-0.598,0.355-1.172,0.533-1.724,0.533c-0.774,0-1.387-0.218-1.835-0.652
			c-0.448-0.434-0.672-1.071-0.672-1.912v-3.375h-1.499v-1.205h1.499v-2.157h1.457v2.157h2.381v1.205h-2.381v3.277
			c0,0.42,0.103,0.74,0.308,0.959c0.205,0.221,0.485,0.33,0.841,0.33c0.401,0,0.794-0.127,1.177-0.379L109.304,397.596z"/>
		<path fill="#FFFFFF" d="M116.255,391.846c0.714,0.678,1.071,1.548,1.071,2.612c0,1.065-0.359,1.938-1.078,2.62
			c-0.72,0.682-1.597,1.021-2.634,1.021c-1.046,0-1.931-0.34-2.654-1.021s-1.086-1.555-1.086-2.62c0-1.064,0.362-1.935,1.086-2.612
			c0.724-0.677,1.608-1.016,2.654-1.016S115.54,391.169,116.255,391.846z M115.226,396.174c0.457-0.443,0.687-1.016,0.687-1.716
			s-0.229-1.272-0.687-1.716c-0.458-0.443-0.995-0.665-1.611-0.665c-0.635,0-1.179,0.222-1.632,0.665s-0.68,1.016-0.68,1.716
			s0.227,1.272,0.68,1.716s0.997,0.666,1.632,0.666C114.23,396.84,114.768,396.617,115.226,396.174z"/>
		<path fill="#FFFFFF" d="M132.861,391.545c0.509,0.504,0.763,1.158,0.763,1.961v4.426h-1.442V393.8
			c0-0.505-0.147-0.908-0.441-1.212c-0.294-0.303-0.67-0.455-1.127-0.455c-0.579,0-1.037,0.201-1.373,0.603
			s-0.504,0.985-0.504,1.751v3.445h-1.457V393.8c0-0.505-0.147-0.908-0.441-1.212c-0.294-0.303-0.67-0.455-1.128-0.455
			c-0.569,0-1.02,0.201-1.352,0.603c-0.331,0.401-0.497,0.985-0.497,1.751v3.445h-1.457v-6.947h1.457v0.784
			c0.532-0.653,1.274-0.98,2.228-0.98c0.504,0,0.959,0.112,1.365,0.337c0.406,0.224,0.722,0.537,0.945,0.938
			c0.607-0.85,1.471-1.274,2.592-1.274C131.729,390.788,132.353,391.041,132.861,391.545z"/>
		<path fill="#FFFFFF" d="M141.454,391.846c0.714,0.678,1.071,1.548,1.071,2.612c0,1.065-0.359,1.938-1.078,2.62
			c-0.72,0.682-1.597,1.021-2.634,1.021c-1.046,0-1.931-0.34-2.654-1.021s-1.086-1.555-1.086-2.62c0-1.064,0.362-1.935,1.086-2.612
			c0.724-0.677,1.608-1.016,2.654-1.016S140.739,391.169,141.454,391.846z M140.425,396.174c0.457-0.443,0.687-1.016,0.687-1.716
			s-0.229-1.272-0.687-1.716c-0.458-0.443-0.995-0.665-1.611-0.665c-0.635,0-1.179,0.222-1.632,0.665s-0.68,1.016-0.68,1.716
			s0.227,1.272,0.68,1.716s0.997,0.666,1.632,0.666C139.43,396.84,139.967,396.617,140.425,396.174z"/>
		<path fill="#FFFFFF" d="M150.03,391.607c0.513,0.547,0.77,1.254,0.77,2.123v4.201h-1.471v-3.908c0-0.568-0.151-1.027-0.455-1.372
			c-0.304-0.346-0.702-0.519-1.197-0.519c-0.645,0-1.151,0.22-1.521,0.658c-0.368,0.439-0.553,1.084-0.553,1.934v3.207h-1.457
			v-6.947h1.457v0.854c0.588-0.7,1.392-1.051,2.409-1.051C148.844,390.788,149.517,391.062,150.03,391.607z"/>
		<path fill="#FFFFFF" d="M159.298,394.809h-5.631c0.065,0.625,0.299,1.125,0.7,1.498c0.401,0.374,0.868,0.561,1.4,0.561
			c0.962,0,1.644-0.401,2.046-1.204l1.303,0.28c-0.28,0.719-0.713,1.263-1.296,1.631c-0.584,0.369-1.268,0.555-2.053,0.555
			c-0.971,0-1.805-0.342-2.5-1.023s-1.044-1.559-1.044-2.633c0-1.084,0.349-1.969,1.044-2.654c0.695-0.688,1.548-1.03,2.557-1.03
			c0.943,0,1.748,0.329,2.416,0.987s1.021,1.502,1.058,2.529V394.809z M154.479,392.525c-0.411,0.299-0.668,0.715-0.771,1.246h4.09
			c-0.112-0.551-0.346-0.971-0.7-1.26c-0.354-0.29-0.779-0.435-1.274-0.435C155.338,392.077,154.89,392.227,154.479,392.525z"/>
		<path fill="#FFFFFF" d="M165.527,397.596c-0.598,0.355-1.173,0.533-1.724,0.533c-0.774,0-1.387-0.218-1.835-0.652
			c-0.448-0.434-0.672-1.071-0.672-1.912v-3.375h-1.499v-1.205h1.499v-2.157h1.457v2.157h2.381v1.205h-2.381v3.277
			c0,0.42,0.103,0.74,0.308,0.959c0.205,0.221,0.485,0.33,0.841,0.33c0.401,0,0.794-0.127,1.177-0.379L165.527,397.596z"/>
		<path fill="#FFFFFF" d="M168.199,388.253c0.178,0.177,0.266,0.392,0.266,0.645c0,0.261-0.086,0.476-0.259,0.644
			s-0.395,0.253-0.665,0.253c-0.271,0-0.495-0.085-0.673-0.253c-0.177-0.168-0.266-0.383-0.266-0.644
			c0-0.253,0.089-0.468,0.266-0.645c0.178-0.177,0.401-0.267,0.673-0.267C167.803,387.986,168.021,388.076,168.199,388.253z
			 M166.813,397.932v-6.947h1.457v6.947H166.813z"/>
		<path fill="#FFFFFF" d="M176.125,397.932h-6.093v-0.966l4.132-4.776h-4.021v-1.205h5.813v0.98l-4.132,4.763h4.3V397.932z"/>
		<path fill="#FFFFFF" d="M184.26,394.809h-5.631c0.065,0.625,0.299,1.125,0.7,1.498c0.401,0.374,0.868,0.561,1.4,0.561
			c0.962,0,1.644-0.401,2.046-1.204l1.302,0.28c-0.279,0.719-0.712,1.263-1.295,1.631c-0.584,0.369-1.268,0.555-2.053,0.555
			c-0.971,0-1.805-0.342-2.5-1.023s-1.044-1.559-1.044-2.633c0-1.084,0.349-1.969,1.044-2.654c0.695-0.688,1.548-1.03,2.557-1.03
			c0.943,0,1.748,0.329,2.416,0.987s1.021,1.502,1.058,2.529V394.809z M179.441,392.525c-0.411,0.299-0.668,0.715-0.771,1.246h4.09
			c-0.112-0.551-0.346-0.971-0.7-1.26c-0.354-0.29-0.779-0.435-1.274-0.435C180.3,392.077,179.852,392.227,179.441,392.525z"/>
	</g>
	<circle fill="#FFFFFF" cx="10.4" cy="9.48" r="2.875"/>
	<circle fill="#FFFFFF" cx="10.4" cy="104.88" r="2.875"/>
	<circle fill="#FFFFFF" cx="10.4" cy="236.4" r="2.875"/>
	<circle fill="#FFFFFF" cx="10.4" cy="392.635" r="2.875"/>
</g>
<g id="Layer_3">
</g>
</svg>
