<?xml version="1.0" encoding="utf-8"?>
<!-- Generator: Adobe Illustrator 16.0.0, SVG Export Plug-In . SVG Version: 6.00 Build 0)  -->
<!DOCTYPE svg PUBLIC "-//W3C//DTD SVG 1.1//EN" "http://www.w3.org/Graphics/SVG/1.1/DTD/svg11.dtd">
<svg version="1.1" id="Layer_1" xmlns="http://www.w3.org/2000/svg" xmlns:xlink="http://www.w3.org/1999/xlink" x="0px" y="0px"
	 width="554.05px" height="425px" viewBox="0 0 554.05 425" enable-background="new 0 0 554.05 425" xml:space="preserve">
<rect x="-128.93" y="-204" fill-rule="evenodd" clip-rule="evenodd" fill="none" width="1365.96" height="768"/>
<polygon fill-rule="evenodd" clip-rule="evenodd" fill="#8042FF" points="61.86,198.24 58.08,198.37 54.27,198.77 50.5,199.43 
	46.84,200.35 43.29,201.51 39.86,202.9 36.57,204.5 33.42,206.32 30.41,208.33 27.56,210.54 24.87,212.92 22.35,215.47 
	20.01,218.19 17.86,221.04 15.9,224.04 14.14,227.16 12.59,230.4 11.26,233.75 10.15,237.2 9.27,240.73 8.63,244.34 8.24,248.01 
	8.11,251.74 8.24,255.52 8.64,259.33 9.3,263.1 10.22,266.77 11.38,270.31 12.77,273.74 14.37,277.03 16.19,280.18 18.2,283.19 
	20.41,286.04 22.79,288.73 25.34,291.25 28.06,293.59 30.91,295.74 33.91,297.7 37.03,299.46 40.27,301.01 43.62,302.34 
	47.07,303.45 50.6,304.33 54.21,304.97 57.88,305.36 61.61,305.49 65.39,305.36 69.2,304.96 72.97,304.3 76.64,303.38 80.18,302.22 
	83.61,300.84 86.9,299.23 90.05,297.41 93.06,295.4 95.91,293.19 98.6,290.81 101.12,288.26 103.46,285.55 105.61,282.69 
	107.57,279.69 109.33,276.57 110.88,273.33 112.21,269.98 113.32,266.53 114.2,263 114.84,259.39 115.23,255.72 115.36,251.99 
	115.23,248.21 114.83,244.4 114.17,240.63 113.25,236.97 112.09,233.42 110.71,229.99 109.1,226.7 107.28,223.55 105.27,220.54 
	103.06,217.69 100.68,215 98.13,212.48 95.42,210.14 92.56,207.99 89.56,206.03 86.44,204.27 83.2,202.72 79.85,201.39 76.4,200.28 
	72.87,199.4 69.26,198.76 65.59,198.37 "/>
<polygon fill-rule="evenodd" clip-rule="evenodd" fill="#FFFFFF" points="61.49,197.28 57.81,197.42 54.1,197.82 50.42,198.46 
	46.84,199.34 43.37,200.44 40.01,201.76 36.78,203.29 33.67,205.01 30.7,206.93 27.88,209.02 25.2,211.28 22.68,213.71 
	20.32,216.28 18.14,219 16.13,221.85 14.3,224.83 12.67,227.92 11.23,231.11 10,234.41 8.98,237.79 8.17,241.25 7.6,244.78 
	7.25,248.37 7.15,252.01 7.29,255.69 7.69,259.4 8.33,263.08 9.21,266.66 10.31,270.13 11.63,273.49 13.16,276.72 14.88,279.83 
	16.8,282.8 18.89,285.62 21.15,288.3 23.58,290.82 26.15,293.18 28.87,295.36 31.72,297.37 34.7,299.2 37.79,300.83 40.98,302.27 
	44.28,303.5 47.66,304.52 51.12,305.33 54.65,305.9 58.24,306.25 61.88,306.35 65.56,306.21 69.27,305.81 69.09,304.48 
	61.23,304.48 57.4,304.31 53.64,303.87 49.95,303.16 46.35,302.2 42.84,301 39.44,299.55 36.16,297.87 33,295.98 29.99,293.87 
	27.14,291.56 24.45,289.05 21.93,286.36 19.6,283.49 17.47,280.45 15.56,277.25 13.86,273.89 12.4,270.4 11.19,266.77 10.23,263.02 
	9.54,259.14 9.14,255.23 9.02,251.36 9.19,247.53 9.63,243.77 10.34,240.08 11.3,236.48 12.5,232.97 13.95,229.57 15.62,226.29 
	17.52,223.13 19.63,220.12 21.94,217.27 24.45,214.57 27.14,212.06 30.01,209.73 33.05,207.6 36.25,205.69 39.61,203.99 
	43.1,202.53 46.73,201.32 50.48,200.36 54.36,199.67 58.27,199.27 62.14,199.15 75.86,199.15 75.71,199.11 72.25,198.3 
	68.72,197.73 65.13,197.38 "/>
<polygon fill-rule="evenodd" clip-rule="evenodd" fill="#FFFFFF" points="75.86,199.15 62.14,199.15 65.97,199.32 69.73,199.76 
	73.42,200.47 77.02,201.43 80.53,202.63 83.93,204.08 87.21,205.75 90.36,207.65 93.38,209.76 96.23,212.07 98.92,214.58 
	101.44,217.27 103.77,220.14 105.9,223.18 107.81,226.38 109.51,229.74 110.97,233.23 112.18,236.86 113.14,240.61 113.83,244.49 
	114.23,248.4 114.35,252.27 114.18,256.1 113.74,259.86 113.03,263.55 112.07,267.15 110.87,270.66 109.42,274.06 107.74,277.34 
	105.85,280.49 103.74,283.51 101.43,286.36 98.92,289.05 96.23,291.57 93.36,293.9 90.32,296.02 87.12,297.94 83.76,299.64 
	80.27,301.1 76.64,302.31 72.89,303.27 69.01,303.96 69.27,305.81 72.95,305.17 76.53,304.29 80,303.19 83.36,301.87 86.59,300.34 
	89.7,298.62 92.66,296.7 95.49,294.61 98.17,292.35 100.69,289.92 103.05,287.35 105.23,284.63 107.24,281.78 109.07,278.8 
	110.7,275.71 112.14,272.52 113.37,269.22 114.39,265.84 115.2,262.38 115.77,258.85 116.12,255.26 116.22,251.62 116.08,247.94 
	115.68,244.23 115.04,240.55 114.16,236.97 113.06,233.5 111.74,230.14 110.21,226.91 108.49,223.8 106.57,220.83 104.48,218.01 
	102.22,215.33 99.79,212.81 97.22,210.45 94.5,208.27 91.65,206.26 88.67,204.43 85.58,202.8 82.39,201.36 79.09,200.13 "/>
<polygon fill-rule="evenodd" clip-rule="evenodd" fill="#FFFFFF" points="69.01,303.96 65.1,304.36 61.23,304.48 69.09,304.48 "/>
<polygon fill-rule="evenodd" clip-rule="evenodd" fill="#8042FF" points="492.66,198.24 488.88,198.37 485.07,198.77 481.3,199.43 
	477.64,200.35 474.09,201.51 470.66,202.9 467.37,204.5 464.22,206.32 461.21,208.33 458.36,210.54 455.67,212.92 453.15,215.47 
	450.81,218.19 448.66,221.04 446.7,224.04 444.94,227.16 443.39,230.4 442.06,233.75 440.95,237.2 440.07,240.73 439.43,244.34 
	439.04,248.01 438.91,251.74 439.04,255.52 439.44,259.33 440.1,263.1 441.02,266.77 442.18,270.31 443.57,273.74 445.17,277.03 
	446.99,280.18 449,283.19 451.21,286.04 453.59,288.73 456.14,291.25 458.86,293.59 461.71,295.74 464.71,297.7 467.83,299.46 
	471.07,301.01 474.42,302.34 477.87,303.45 481.4,304.33 485.01,304.97 488.68,305.36 492.41,305.49 496.19,305.36 500,304.96 
	503.77,304.3 507.44,303.38 510.98,302.22 514.41,300.84 517.7,299.23 520.85,297.41 523.86,295.4 526.71,293.19 529.4,290.81 
	531.92,288.26 534.26,285.55 536.41,282.69 538.37,279.69 540.13,276.57 541.68,273.33 543.01,269.98 544.12,266.53 545,263 
	545.64,259.39 546.03,255.72 546.16,251.99 546.03,248.21 545.63,244.4 544.97,240.63 544.05,236.97 542.89,233.42 541.51,229.99 
	539.9,226.7 538.08,223.55 536.07,220.54 533.86,217.69 531.48,215 528.93,212.48 526.22,210.14 523.36,207.99 520.36,206.03 
	517.24,204.27 514,202.72 510.65,201.39 507.2,200.28 503.67,199.4 500.06,198.76 496.39,198.37 "/>
<polygon fill-rule="evenodd" clip-rule="evenodd" fill="#FFFFFF" points="439.41,259.27 438.51,259.52 438.51,259.55 439.13,263.08 
	440.01,266.66 441.11,270.13 442.43,273.49 443.96,276.72 445.68,279.83 447.6,282.79 449.69,285.62 451.95,288.3 454.38,290.82 
	456.95,293.18 459.67,295.36 462.52,297.37 465.5,299.2 468.59,300.83 471.78,302.27 475.08,303.5 478.46,304.52 481.92,305.33 
	485.45,305.9 489.04,306.25 492.68,306.35 496.36,306.21 500.07,305.81 499.89,304.48 492.03,304.48 488.2,304.31 484.44,303.87 
	480.75,303.16 477.15,302.2 473.64,301 470.24,299.55 466.96,297.87 463.8,295.98 460.79,293.87 457.94,291.56 455.25,289.05 
	452.73,286.36 450.4,283.49 448.27,280.45 446.36,277.25 444.66,273.89 443.2,270.4 441.99,266.77 441.03,263.02 440.53,260.2 
	439.54,260.2 "/>
<polygon fill-rule="evenodd" clip-rule="evenodd" fill="#FFFFFF" points="506.66,199.15 492.94,199.15 496.77,199.32 500.53,199.76 
	504.22,200.47 507.82,201.43 511.33,202.63 514.73,204.08 518.01,205.75 521.16,207.65 524.18,209.76 527.03,212.07 529.72,214.58 
	532.24,217.27 534.57,220.14 536.7,223.18 538.61,226.38 540.31,229.74 541.77,233.23 542.98,236.86 543.94,240.61 544.63,244.49 
	545.03,248.4 545.15,252.27 544.98,256.1 544.54,259.86 543.83,263.55 542.87,267.15 541.67,270.66 540.22,274.06 538.54,277.34 
	536.65,280.49 534.54,283.51 532.23,286.36 529.72,289.05 527.03,291.57 524.16,293.9 521.12,296.02 517.92,297.94 514.56,299.64 
	511.07,301.1 507.44,302.31 503.69,303.27 499.81,303.96 500.07,305.81 503.75,305.17 507.33,304.29 510.8,303.19 514.16,301.87 
	517.39,300.34 520.5,298.62 523.47,296.7 526.29,294.61 528.97,292.35 531.49,289.92 533.85,287.35 536.03,284.63 538.04,281.78 
	539.87,278.8 541.5,275.71 542.94,272.52 544.17,269.22 545.19,265.84 546,262.38 546.57,258.85 546.92,255.26 547.02,251.62 
	546.88,247.94 546.48,244.23 545.84,240.55 544.96,236.97 543.86,233.5 542.54,230.14 541.01,226.91 539.29,223.8 537.37,220.83 
	535.28,218.01 533.02,215.33 530.59,212.81 528.02,210.45 525.3,208.27 522.45,206.26 519.47,204.43 516.38,202.8 513.19,201.36 
	509.89,200.13 "/>
<polygon fill-rule="evenodd" clip-rule="evenodd" fill="#FFFFFF" points="499.81,303.96 495.9,304.36 492.03,304.48 499.89,304.48 
	"/>
<polygon fill-rule="evenodd" clip-rule="evenodd" fill="#FFFFFF" points="439.41,259.27 439.54,260.2 439.7,260.18 439.87,260.11 
	439.99,260.01 "/>
<path fill-rule="evenodd" clip-rule="evenodd" fill="#FFFFFF" d="M439.7,260.18l-0.16,0.021L439.7,260.18z"/>
<polygon fill-rule="evenodd" clip-rule="evenodd" fill="#FFFFFF" points="440.36,259.23 440.36,259.27 440.37,259.33 440.37,259.4 
	440.31,259.64 440.2,259.78 440.18,259.81 440.11,259.92 440.09,259.93 440.01,260.03 439.79,260.16 439.7,260.18 439.54,260.2 
	440.53,260.2 "/>
<polygon fill-rule="evenodd" clip-rule="evenodd" fill="#FFFFFF" points="440.09,259.93 439.87,260.11 439.7,260.18 439.79,260.16 
	440.01,260.03 "/>
<polygon fill-rule="evenodd" clip-rule="evenodd" fill="#FFFFFF" points="439.41,259.27 439.99,260.01 440.09,259.93 440.2,259.78 
	440.23,259.72 "/>
<polygon fill-rule="evenodd" clip-rule="evenodd" fill="#FFFFFF" points="440.2,259.78 440.09,259.93 440.11,259.92 440.18,259.81 
	"/>
<polygon fill-rule="evenodd" clip-rule="evenodd" fill="#FFFFFF" points="440.35,259.25 440.34,259.39 440.33,259.44 440.32,259.55 
	440.23,259.72 440.2,259.78 440.31,259.64 440.37,259.4 440.37,259.33 "/>
<polygon fill-rule="evenodd" clip-rule="evenodd" fill="#FFFFFF" points="439.41,259.27 440.23,259.72 440.32,259.55 440.33,259.44 
	440.34,259.37 "/>
<path fill-rule="evenodd" clip-rule="evenodd" fill="#FFFFFF" d="M438.5,259.48l0.01,0.039L438.5,259.48z"/>
<polygon fill-rule="evenodd" clip-rule="evenodd" fill="#FFFFFF" points="439.41,259.27 438.49,259.4 438.5,259.48 438.51,259.52 
	"/>
<polygon fill-rule="evenodd" clip-rule="evenodd" fill="#FFFFFF" points="438.48,259.36 438.49,259.48 438.48,259.39 "/>
<polygon fill-rule="evenodd" clip-rule="evenodd" fill="#FFFFFF" points="439.28,258.35 438.47,259.23 438.48,259.27 438.49,259.4 
	439.41,259.27 439.4,259.18 "/>
<polygon fill-rule="evenodd" clip-rule="evenodd" fill="#FFFFFF" points="440.34,259.14 439.42,259.27 440.34,259.37 440.35,259.27 
	"/>
<polygon fill-rule="evenodd" clip-rule="evenodd" fill="#FFFFFF" points="438.47,259.23 438.48,259.36 438.47,259.25 "/>
<polygon fill-rule="evenodd" clip-rule="evenodd" fill="#FFFFFF" points="440.26,258.35 439.28,258.35 439.41,259.27 440.32,259.03 
	440.33,259.03 "/>
<polygon fill-rule="evenodd" clip-rule="evenodd" fill="#FFFFFF" points="440.32,259.03 439.42,259.27 440.33,259.14 "/>
<polygon fill-rule="evenodd" clip-rule="evenodd" fill="#FFFFFF" points="440.34,259.15 440.35,259.18 440.35,259.22 "/>
<polygon fill-rule="evenodd" clip-rule="evenodd" fill="#FFFFFF" points="492.29,197.28 488.61,197.42 484.9,197.82 481.22,198.46 
	477.64,199.34 474.17,200.44 470.81,201.76 467.58,203.29 464.47,205.01 461.5,206.93 458.68,209.02 456,211.28 453.48,213.71 
	451.12,216.28 448.94,219 446.93,221.85 445.1,224.83 443.47,227.92 442.03,231.11 440.8,234.41 439.78,237.79 438.97,241.25 
	438.4,244.78 438.05,248.37 437.95,252.01 438.09,255.69 438.47,259.2 438.51,259.02 438.61,258.72 438.84,258.53 438.96,258.44 
	439.13,258.37 439.28,258.35 440.26,258.35 439.94,255.23 439.82,251.36 439.99,247.53 440.43,243.77 441.13,240.08 442.1,236.48 
	443.3,232.97 444.75,229.57 446.42,226.29 448.32,223.13 450.43,220.12 452.74,217.27 455.25,214.57 457.94,212.06 460.81,209.73 
	463.85,207.6 467.05,205.69 470.41,203.99 473.9,202.53 477.53,201.32 481.28,200.36 485.16,199.67 489.07,199.27 492.94,199.15 
	506.66,199.15 506.51,199.11 503.05,198.3 499.52,197.73 495.93,197.38 "/>
<polygon fill-rule="evenodd" clip-rule="evenodd" fill="#FFFFFF" points="440.33,259.03 440.32,259.03 440.33,259.09 440.34,259.14 
	"/>
<polygon fill-rule="evenodd" clip-rule="evenodd" fill="#FFFFFF" points="440.32,259.03 440.34,259.14 440.33,259.09 "/>
<polygon fill-rule="evenodd" clip-rule="evenodd" fill="#8042FF" points="278.31,311.4 274.49,311.6 270.74,312.06 267.08,312.78 
	263.51,313.74 260.05,314.93 256.7,316.35 253.48,317.98 250.38,319.82 247.42,321.86 244.62,324.08 241.96,326.49 239.48,329.06 
	237.17,331.79 235.05,334.68 233.11,337.7 231.38,340.86 229.86,344.14 228.56,347.54 227.49,351.04 226.66,354.64 226.07,358.32 
	225.74,362.08 225.67,365.91 225.87,369.73 226.33,373.48 227.05,377.14 228.01,380.71 229.2,384.17 230.62,387.52 232.25,390.75 
	234.09,393.84 236.13,396.8 238.35,399.61 240.76,402.26 243.33,404.74 246.06,407.05 248.95,409.18 251.97,411.11 255.13,412.84 
	258.41,414.36 261.81,415.66 265.31,416.73 268.91,417.57 272.59,418.15 276.35,418.48 280.18,418.55 284,418.35 287.75,417.89 
	291.41,417.17 294.98,416.21 298.44,415.02 301.79,413.6 305.01,411.97 308.11,410.13 311.07,408.09 313.88,405.87 316.53,403.46 
	319.01,400.89 321.32,398.16 323.45,395.27 325.38,392.25 327.11,389.09 328.63,385.81 329.93,382.41 331,378.91 331.83,375.31 
	332.42,371.63 332.75,367.87 332.82,364.04 332.62,360.22 332.16,356.47 331.44,352.81 330.48,349.24 329.29,345.78 327.87,342.43 
	326.24,339.21 324.4,336.11 322.36,333.15 320.14,330.35 317.73,327.69 315.16,325.21 312.43,322.9 309.54,320.78 306.52,318.84 
	303.36,317.11 300.08,315.59 296.68,314.29 293.18,313.22 289.58,312.39 285.9,311.8 282.14,311.47 "/>
<polygon fill-rule="evenodd" clip-rule="evenodd" fill="#FFFFFF" points="278.34,310.44 274.61,310.63 270.96,311.07 267.38,311.74 
	263.9,312.64 260.51,313.76 257.22,315.1 254.04,316.63 250.98,318.36 248.05,320.28 245.26,322.38 242.61,324.65 240.11,327.08 
	237.77,329.67 235.6,332.4 233.6,335.27 231.79,338.26 230.16,341.38 228.74,344.62 227.52,347.95 226.52,351.38 225.75,354.9 
	225.2,358.51 224.89,362.18 224.83,365.91 225.02,369.64 225.46,373.3 226.13,376.88 227.03,380.37 228.15,383.77 229.48,387.06 
	231.02,390.24 232.75,393.3 234.66,396.23 236.76,399.03 239.02,401.68 241.45,404.19 244.04,406.53 246.76,408.7 249.63,410.7 
	252.62,412.52 255.74,414.14 258.97,415.57 262.3,416.78 265.73,417.79 269.25,418.57 272.84,419.11 276.51,419.42 280.24,419.48 
	280.21,417.61 276.28,417.54 272.43,417.18 268.66,416.54 264.98,415.65 261.41,414.5 257.95,413.11 254.62,411.48 251.42,409.63 
	248.37,407.57 245.48,405.3 242.75,402.84 240.2,400.2 237.84,397.38 235.67,394.4 233.71,391.27 231.97,387.99 230.46,384.58 
	229.19,381.05 228.17,377.4 227.4,373.65 226.91,369.81 226.7,365.88 226.77,361.95 227.13,358.09 227.77,354.31 228.66,350.63 
	229.81,347.06 231.2,343.6 232.82,340.26 234.67,337.06 236.73,334.01 239,331.11 241.45,328.38 244.09,325.83 246.91,323.46 
	249.88,321.29 253.01,319.33 256.29,317.59 259.69,316.08 263.22,314.81 266.86,313.78 270.61,313.02 274.45,312.52 278.37,312.31 
	293.45,312.31 292.85,312.13 289.34,311.36 285.74,310.81 282.07,310.5 "/>
<polygon fill-rule="evenodd" clip-rule="evenodd" fill="#FFFFFF" points="293.45,312.31 278.37,312.31 282.3,312.39 286.16,312.75 
	289.93,313.38 293.6,314.27 297.17,315.42 300.63,316.82 303.96,318.44 307.16,320.29 310.21,322.35 313.1,324.62 315.83,327.08 
	318.38,329.73 320.74,332.54 322.91,335.52 324.87,338.65 326.61,341.93 328.12,345.34 329.39,348.87 330.41,352.52 331.18,356.27 
	331.67,360.11 331.88,364.04 331.81,367.97 331.45,371.83 330.82,375.61 329.92,379.29 328.77,382.86 327.38,386.32 325.76,389.66 
	323.91,392.86 321.85,395.91 319.59,398.81 317.13,401.54 314.49,404.09 311.67,406.46 308.7,408.63 305.57,410.59 302.3,412.33 
	298.89,413.84 295.36,415.12 291.72,416.14 287.97,416.9 284.13,417.4 280.21,417.61 280.24,419.48 283.97,419.29 287.62,418.86 
	291.2,418.18 294.69,417.28 298.08,416.16 301.37,414.83 304.54,413.29 307.6,411.56 310.53,409.64 313.32,407.54 315.97,405.27 
	318.47,402.84 320.81,400.25 322.98,397.52 324.98,394.66 326.8,391.66 328.42,388.54 329.84,385.31 331.06,381.97 332.06,378.54 
	332.84,375.02 333.38,371.42 333.69,367.74 333.75,364.01 333.56,360.28 333.12,356.62 332.45,353.04 331.55,349.55 330.43,346.15 
	329.1,342.86 327.57,339.68 325.84,336.62 323.92,333.69 321.82,330.89 319.56,328.24 317.13,325.74 314.55,323.39 311.82,321.22 
	308.95,319.22 305.96,317.4 302.84,315.78 299.61,314.35 296.28,313.14 "/>
<polygon fill-rule="evenodd" clip-rule="evenodd" fill="#8042FF" points="279.29,6.6 275.46,6.73 271.7,7.13 268.03,7.78 
	264.44,8.68 260.96,9.81 257.58,11.17 254.33,12.75 251.2,14.53 248.2,16.51 245.36,18.69 242.66,21.04 240.13,23.57 237.77,26.26 
	235.59,29.11 233.61,32.1 231.82,35.23 230.24,38.48 228.88,41.85 227.75,45.33 226.85,48.91 226.2,52.58 225.8,56.33 225.67,60.16 
	225.8,63.98 226.2,67.74 226.85,71.41 227.75,74.99 228.88,78.47 230.24,81.84 231.82,85.09 233.61,88.22 235.59,91.21 
	237.77,94.05 240.13,96.75 242.66,99.27 245.36,101.63 248.2,103.8 251.2,105.79 254.33,107.57 257.58,109.15 260.96,110.51 
	264.44,111.64 268.03,112.53 271.7,113.19 275.46,113.58 279.29,113.72 283.12,113.58 286.87,113.19 290.55,112.53 294.13,111.64 
	297.62,110.51 300.99,109.15 304.25,107.57 307.38,105.79 310.37,103.8 313.22,101.63 315.92,99.27 318.45,96.75 320.81,94.05 
	322.98,91.21 324.97,88.22 326.76,85.09 328.33,81.84 329.69,78.47 330.83,74.99 331.72,71.41 332.38,67.74 332.77,63.98 
	332.91,60.16 332.77,56.33 332.38,52.58 331.72,48.91 330.83,45.33 329.69,41.85 328.33,38.48 326.76,35.23 324.97,32.1 
	322.98,29.11 320.81,26.26 318.45,23.57 315.92,21.04 313.22,18.69 310.37,16.51 307.38,14.53 304.25,12.75 300.99,11.17 
	297.62,9.81 294.13,8.68 290.55,7.78 286.87,7.13 283.12,6.73 "/>
<polygon fill-rule="evenodd" clip-rule="evenodd" fill="#FFFFFF" points="279.24,5.64 275.51,5.77 271.84,6.14 268.25,6.75 
	264.74,7.59 261.33,8.65 258.01,9.93 254.81,11.41 251.72,13.09 248.75,14.95 245.92,17 243.23,19.22 240.68,21.61 238.29,24.16 
	236.07,26.85 234.02,29.68 232.16,32.65 230.48,35.74 229,38.94 227.72,42.26 226.66,45.67 225.82,49.18 225.21,52.77 224.84,56.44 
	224.71,60.17 224.84,63.9 225.21,67.57 225.82,71.16 226.66,74.67 227.72,78.08 229,81.39 230.48,84.6 232.16,87.69 234.02,90.66 
	236.07,93.49 238.29,96.18 240.68,98.73 243.23,101.11 245.92,103.34 248.75,105.38 251.72,107.25 254.81,108.93 258.01,110.41 
	261.33,111.69 264.74,112.75 268.25,113.59 271.84,114.2 275.51,114.57 279.24,114.7 279.24,112.83 275.31,112.68 271.46,112.26 
	267.69,111.56 264.03,110.6 260.48,109.39 257.04,107.93 253.73,106.25 250.57,104.34 247.55,102.23 244.69,99.91 242,97.4 
	239.5,94.72 237.18,91.86 235.06,88.84 233.16,85.67 231.47,82.37 230.02,78.93 228.81,75.38 227.85,71.71 227.15,67.95 
	226.73,64.1 226.58,60.17 226.73,56.24 227.15,52.39 227.85,48.62 228.81,44.96 230.02,41.41 231.47,37.97 233.16,34.66 
	235.06,31.5 237.18,28.48 239.5,25.62 242,22.93 244.69,20.43 247.55,18.11 250.57,15.99 253.73,14.09 257.04,12.4 260.48,10.95 
	264.03,9.74 267.69,8.78 271.46,8.08 275.31,7.66 279.24,7.51 293.41,7.51 290.23,6.75 286.64,6.14 282.97,5.77 "/>
<polygon fill-rule="evenodd" clip-rule="evenodd" fill="#FFFFFF" points="293.41,7.51 279.24,7.51 283.17,7.66 287.02,8.08 
	290.78,8.78 294.45,9.74 298,10.95 301.44,12.4 304.74,14.09 307.91,15.99 310.93,18.11 313.79,20.43 316.47,22.93 318.98,25.62 
	321.3,28.48 323.41,31.5 325.32,34.66 327,37.97 328.46,41.41 329.67,44.96 330.63,48.62 331.33,52.39 331.75,56.24 331.9,60.17 
	331.75,64.1 331.33,67.95 330.63,71.71 329.67,75.38 328.46,78.93 327,82.37 325.32,85.67 323.41,88.84 321.3,91.86 318.98,94.72 
	316.47,97.4 313.79,99.91 310.93,102.23 307.91,104.34 304.74,106.25 301.44,107.93 298,109.39 294.45,110.6 290.78,111.56 
	287.02,112.26 283.17,112.68 279.24,112.83 279.24,114.7 282.97,114.57 286.64,114.2 290.23,113.59 293.74,112.75 297.15,111.69 
	300.46,110.41 303.67,108.93 306.76,107.25 309.73,105.38 312.56,103.34 315.25,101.11 317.8,98.73 320.18,96.18 322.41,93.49 
	324.45,90.66 326.32,87.69 328,84.6 329.48,81.39 330.76,78.08 331.82,74.67 332.66,71.16 333.27,67.57 333.64,63.9 333.77,60.17 
	333.64,56.44 333.27,52.77 332.66,49.18 331.82,45.67 330.76,42.26 329.48,38.94 328,35.74 326.32,32.65 324.45,29.68 322.41,26.85 
	320.18,24.16 317.8,21.61 315.25,19.22 312.56,17 309.73,14.95 306.76,13.09 303.67,11.41 300.46,9.93 297.15,8.65 293.74,7.59 "/>
<polygon fill-rule="evenodd" clip-rule="evenodd" fill="#FFFFFF" points="270.64,75.6 258.15,75.6 248.11,85.91 249.45,87.21 
	258.94,77.47 272.46,77.47 "/>
<polygon fill-rule="evenodd" clip-rule="evenodd" fill="#FFFFFF" points="303.33,77.47 300.72,77.47 310.21,87.21 311.55,85.91 "/>
<polygon fill-rule="evenodd" clip-rule="evenodd" fill="#FFFFFF" points="272.46,77.47 269.85,77.47 274.7,82.45 285.42,82.43 
	287.22,80.58 275.49,80.58 "/>
<polygon fill-rule="evenodd" clip-rule="evenodd" fill="#FFFFFF" points="301.51,75.6 289.46,75.6 284.63,80.56 275.49,80.58 
	287.22,80.58 290.25,77.47 303.33,77.47 "/>
<polygon fill-rule="evenodd" clip-rule="evenodd" fill="#FFFFFF" points="310.74,83.88 309.84,84.06 309.05,84.6 308.52,85.41 
	308.35,86.33 308.52,87.25 309.05,88.06 309.84,88.6 310.74,88.78 311.64,88.6 312.43,88.06 312.95,87.25 313.13,86.33 
	312.95,85.41 312.43,84.6 311.64,84.06 "/>
<polygon fill-rule="evenodd" clip-rule="evenodd" fill="#FFFFFF" points="249,83.88 248.08,84.06 247.27,84.6 246.73,85.41 
	246.55,86.33 246.73,87.25 247.27,88.06 248.08,88.6 249,88.78 249.92,88.6 250.73,88.06 251.27,87.25 251.45,86.33 251.27,85.41 
	250.73,84.6 249.92,84.06 "/>
<polygon fill-rule="evenodd" clip-rule="evenodd" fill="#FFFFFF" points="286.42,27.84 273.75,27.84 264.43,37.11 264.43,56.04 
	273.2,64.76 273.2,70.9 275.08,70.9 275.08,63.98 266.3,55.26 266.3,37.88 274.53,29.71 288.31,29.71 "/>
<polygon fill-rule="evenodd" clip-rule="evenodd" fill="#FFFFFF" points="288.31,29.71 285.65,29.71 293.88,37.88 293.88,55.26 
	285.1,63.98 285.1,70.9 286.97,70.9 286.97,64.76 295.75,56.04 295.75,37.11 "/>
<polygon fill-rule="evenodd" clip-rule="evenodd" fill="#FFFFFF" points="274.26,68.28 273.33,68.47 272.57,69 272.06,69.78 
	271.87,70.73 272.06,71.68 272.57,72.46 273.33,72.99 274.26,73.18 275.19,72.99 275.95,72.46 276.46,71.68 276.65,70.73 
	276.46,69.78 275.95,69 275.19,68.47 "/>
<polygon fill-rule="evenodd" clip-rule="evenodd" fill="#FFFFFF" points="286.02,68.28 285.09,68.47 284.33,69 283.82,69.78 
	283.63,70.73 283.82,71.68 284.33,72.46 285.09,72.99 286.02,73.18 286.95,72.99 287.71,72.46 288.22,71.68 288.41,70.73 
	288.22,69.78 287.71,69 286.95,68.47 "/>
<line fill="none" stroke="#FFFFFF" stroke-width="1.92" stroke-linejoin="round" stroke-miterlimit="10" x1="278.71" y1="138.24" x2="278.71" y2="284.49"/>
<polygon fill-rule="evenodd" clip-rule="evenodd" fill="#FFFFFF" points="278.69,132 275.47,140.95 281.92,140.95 "/>
<polygon fill-rule="evenodd" clip-rule="evenodd" fill="#FFFFFF" points="282.41,281.04 274.99,281.04 278.7,291.34 "/>
<polygon fill-rule="evenodd" clip-rule="evenodd" fill="#FFFFFF" points="213.18,102.48 117.19,198.47 118.51,199.8 214.51,103.8 
	"/>
<polygon fill-rule="evenodd" clip-rule="evenodd" fill="#FFFFFF" points="218.21,98.76 209.59,102.78 214.19,107.38 "/>
<polygon fill-rule="evenodd" clip-rule="evenodd" fill="#FFFFFF" points="117.74,194.04 113.11,203.84 123.03,199.27 "/>
<rect x="390.151" y="87.316" transform="matrix(0.707 -0.7072 0.7072 0.707 6.5208 321.3682)" fill-rule="evenodd" clip-rule="evenodd" fill="#FFFFFF" width="1.867" height="130.998"/>
<polygon fill-rule="evenodd" clip-rule="evenodd" fill="#FFFFFF" points="340.39,102.12 344.41,110.74 349.01,106.14 "/>
<polygon fill-rule="evenodd" clip-rule="evenodd" fill="#FFFFFF" points="437.49,194.04 432.19,199.27 442.11,203.85 "/>
<polygon fill-rule="evenodd" clip-rule="evenodd" fill="#8042FF" points="165.95,115.56 162.22,115.88 158.55,116.6 155.05,117.68 
	151.74,119.09 148.62,120.83 145.74,122.85 143.09,125.14 140.7,127.68 138.58,130.45 136.76,133.41 135.25,136.54 134.06,139.83 
	133.23,143.25 132.76,146.78 132.67,150.38 132.98,154.05 133.69,157.66 134.77,161.1 136.19,164.36 137.94,167.42 139.98,170.25 
	142.3,172.85 144.87,175.2 147.66,177.27 150.66,179.05 153.84,180.52 157.17,181.67 160.64,182.48 164.22,182.93 167.88,183 
	171.6,182.67 175.27,181.96 178.78,180.88 182.09,179.46 185.2,177.73 188.09,175.71 190.74,173.41 193.13,170.87 195.25,168.11 
	197.07,165.15 198.58,162.02 199.76,158.73 200.6,155.31 201.07,151.78 201.16,148.18 200.84,144.51 200.13,140.9 199.05,137.45 
	197.63,134.2 195.89,131.14 193.84,128.3 191.53,125.71 188.96,123.36 186.16,121.29 183.17,119.51 179.99,118.04 176.65,116.89 
	173.18,116.08 169.61,115.63 "/>
<polygon fill-rule="evenodd" clip-rule="evenodd" fill="#8042FF" points="390.53,115.56 386.81,115.88 383.15,116.6 379.65,117.68 
	376.34,119.09 373.24,120.83 370.35,122.85 367.71,125.14 365.32,127.68 363.21,130.45 361.39,133.41 359.88,136.54 358.7,139.83 
	357.87,143.25 357.4,146.78 357.31,150.38 357.62,154.05 358.33,157.66 359.41,161.1 360.83,164.36 362.57,167.42 364.61,170.25 
	366.92,172.85 369.49,175.2 372.28,177.27 375.27,179.05 378.44,180.52 381.77,181.67 385.23,182.48 388.8,182.93 392.46,183 
	396.18,182.67 399.84,181.96 403.33,180.88 406.64,179.46 409.75,177.73 412.63,175.71 415.28,173.41 417.66,170.88 419.78,168.11 
	421.6,165.15 423.1,162.02 424.28,158.73 425.12,155.31 425.59,151.78 425.68,148.18 425.36,144.51 424.65,140.9 423.58,137.45 
	422.16,134.2 420.41,131.14 418.38,128.3 416.06,125.71 413.5,123.36 410.71,121.29 407.72,119.51 404.54,118.04 401.22,116.89 
	397.75,116.08 394.18,115.63 "/>
<polygon fill-rule="evenodd" clip-rule="evenodd" fill="#8042FF" points="275.87,176.28 272.14,176.6 268.47,177.32 264.97,178.39 
	261.66,179.81 258.54,181.54 255.66,183.56 253.01,185.85 250.62,188.38 248.5,191.14 246.68,194.09 245.17,197.23 243.98,200.51 
	243.15,203.92 242.68,207.44 242.59,211.04 242.9,214.7 243.61,218.3 244.69,221.74 246.11,224.99 247.86,228.05 249.9,230.88 
	252.22,233.47 254.79,235.81 257.58,237.88 260.58,239.66 263.76,241.13 267.09,242.27 270.56,243.08 274.14,243.53 277.8,243.6 
	281.52,243.28 285.19,242.56 288.7,241.48 292.01,240.07 295.12,238.34 298.01,236.32 300.66,234.03 303.05,231.5 305.17,228.74 
	306.99,225.78 308.5,222.65 309.68,219.37 310.52,215.96 310.99,212.44 311.08,208.84 310.76,205.18 310.05,201.57 308.97,198.14 
	307.55,194.88 305.81,191.83 303.76,189 301.45,186.41 298.88,184.07 296.08,182 293.09,180.22 289.91,178.75 286.57,177.6 
	283.1,176.8 279.53,176.35 "/>
<g>
	<defs>
		<rect id="SVGID_1_" x="-128.93" y="-204" width="1365.96" height="768"/>
	</defs>
	<clipPath id="SVGID_2_">
		<use xlink:href="#SVGID_1_"  overflow="visible"/>
	</clipPath>
	<g clip-path="url(#SVGID_2_)">
		<defs>
			<rect id="SVGID_3_" x="253.27" y="340.321" width="53.161" height="54.238"/>
		</defs>
		<clipPath id="SVGID_4_">
			<use xlink:href="#SVGID_3_"  overflow="visible"/>
		</clipPath>
		<g clip-path="url(#SVGID_4_)">
			<defs>
				<rect id="SVGID_5_" x="253.369" y="340.321" width="52.958" height="54.288"/>
			</defs>
			<clipPath id="SVGID_6_">
				<use xlink:href="#SVGID_5_"  overflow="visible"/>
			</clipPath>
			<polygon clip-path="url(#SVGID_6_)" fill="#FFFFFF" points="260.712,383.396 256.308,391.022 256.307,390.167 258.109,393.277 
				257.374,392.854 260.978,392.854 260.242,393.277 262.043,390.167 262.043,391.023 260.242,387.913 260.978,388.338 
				257.374,388.338 257.374,386.632 261.467,386.632 263.763,390.596 261.467,394.559 256.883,394.559 254.588,390.596 
				259.24,382.541 			"/>
		</g>
		<g clip-path="url(#SVGID_4_)">
			<defs>
				<rect id="SVGID_7_" x="253.369" y="340.321" width="52.958" height="54.288"/>
			</defs>
			<clipPath id="SVGID_8_">
				<use xlink:href="#SVGID_7_"  overflow="visible"/>
			</clipPath>
			<polygon clip-path="url(#SVGID_8_)" fill="#FFFFFF" points="255.071,341.274 260.727,341.274 260.727,383.069 259.876,382.216 
				296.008,382.216 300.802,390.598 298.508,394.559 294.024,394.559 291.728,390.596 294.024,386.632 298.018,386.632 
				298.018,388.338 294.514,388.338 295.25,387.913 293.448,391.023 293.448,390.167 295.25,393.277 294.514,392.854 
				298.018,392.854 297.282,393.277 299.083,390.167 299.081,391.02 294.777,383.494 295.515,383.922 259.025,383.922 
				259.025,342.128 259.876,342.98 255.071,342.98 			"/>
		</g>
		<g clip-path="url(#SVGID_4_)">
			<defs>
				<rect id="SVGID_9_" x="253.369" y="340.321" width="52.958" height="54.288"/>
			</defs>
			<clipPath id="SVGID_10_">
				<use xlink:href="#SVGID_9_"  overflow="visible"/>
			</clipPath>
			<path clip-path="url(#SVGID_10_)" fill="#FFFFFF" d="M255.171,343.934c-1.001,0-1.802-0.803-1.802-1.806
				c0-1.004,0.801-1.807,1.802-1.807s1.802,0.803,1.802,1.807C256.973,343.131,256.172,343.934,255.171,343.934"/>
		</g>
		<g clip-path="url(#SVGID_4_)">
			<defs>
				<rect id="SVGID_11_" x="253.369" y="340.321" width="52.958" height="54.288"/>
			</defs>
			<clipPath id="SVGID_12_">
				<use xlink:href="#SVGID_11_"  overflow="visible"/>
			</clipPath>
			<path clip-path="url(#SVGID_12_)" fill="#FFFFFF" d="M259.876,347.897h46.5l0,18.039l-4.663,8.151h-41.838v-1.705h41.346
				l-0.739,0.429l4.305-7.526l-0.113,0.424V348.75l0.851,0.854h-45.65V347.897z M297.717,357.933h-30.033v-1.706h30.033V357.933z
				 M297.717,365.96h-30.033v-1.706h30.033V365.96z"/>
		</g>
	</g>
</g>
<line fill="none" stroke="#FFFFFF" stroke-width="1.92" stroke-linejoin="round" stroke-miterlimit="10" x1="30.91" y1="278.88" x2="90.17" y2="278.88"/>
<polygon fill-rule="evenodd" clip-rule="evenodd" fill="#FFFFFF" points="31.02,276.96 30.23,277.12 29.58,277.55 29.15,278.2 
	28.99,278.99 29.15,279.77 29.58,280.42 30.23,280.85 31.02,281.01 31.8,280.85 32.45,280.42 32.88,279.77 33.04,278.99 
	32.88,278.2 32.45,277.55 31.8,277.12 "/>
<polygon fill-rule="evenodd" clip-rule="evenodd" fill="#FFFFFF" points="90.11,276.96 89.3,277.12 88.64,277.55 88.19,278.2 
	88.03,278.99 88.19,279.77 88.64,280.42 89.3,280.85 90.11,281.01 90.93,280.85 91.59,280.42 92.04,279.77 92.2,278.99 92.04,278.2 
	91.59,277.55 90.93,277.12 "/>
<line fill="none" stroke="#FFFFFF" stroke-width="1.92" stroke-linejoin="round" stroke-miterlimit="10" x1="76.27" y1="246.96" x2="76.27" y2="273.07"/>
<polygon fill-rule="evenodd" clip-rule="evenodd" fill="#FFFFFF" points="76.26,245.04 75.47,245.2 74.82,245.63 74.39,246.28 
	74.23,247.06 74.39,247.85 74.82,248.5 75.47,248.93 76.26,249.09 77.04,248.93 77.69,248.5 78.12,247.85 78.28,247.06 
	78.12,246.28 77.69,245.63 77.04,245.2 "/>
<line fill="none" stroke="#FFFFFF" stroke-width="1.92" stroke-linejoin="round" stroke-miterlimit="10" x1="84.31" y1="246.96" x2="84.31" y2="273.07"/>
<polygon fill-rule="evenodd" clip-rule="evenodd" fill="#FFFFFF" points="84.3,245.04 83.51,245.2 82.86,245.63 82.43,246.28 
	82.27,247.06 82.43,247.85 82.86,248.5 83.51,248.93 84.3,249.09 85.08,248.93 85.73,248.5 86.16,247.85 86.32,247.06 86.16,246.28 
	85.73,245.63 85.08,245.2 "/>
<line fill="none" stroke="#FFFFFF" stroke-width="1.92" stroke-linejoin="round" stroke-miterlimit="10" x1="36.79" y1="246.96" x2="36.79" y2="273.07"/>
<polygon fill-rule="evenodd" clip-rule="evenodd" fill="#FFFFFF" points="36.9,245.04 36.11,245.2 35.46,245.63 35.03,246.28 
	34.87,247.06 35.03,247.85 35.46,248.5 36.11,248.93 36.9,249.09 37.68,248.93 38.33,248.5 38.76,247.85 38.92,247.06 38.76,246.28 
	38.33,245.63 37.68,245.2 "/>
<line fill="none" stroke="#FFFFFF" stroke-width="1.92" stroke-linejoin="round" stroke-miterlimit="10" x1="44.83" y1="246.96" x2="44.83" y2="273.07"/>
<polygon fill-rule="evenodd" clip-rule="evenodd" fill="#FFFFFF" points="44.82,245.04 44.03,245.2 43.38,245.63 42.95,246.28 
	42.79,247.06 42.95,247.85 43.38,248.5 44.03,248.93 44.82,249.09 45.6,248.93 46.25,248.5 46.68,247.85 46.84,247.06 46.68,246.28 
	46.25,245.63 45.6,245.2 "/>
<polygon fill-rule="evenodd" clip-rule="evenodd" fill="#FFFFFF" points="60.64,217.08 30.91,234.22 30.91,241.29 90.27,241.29 
	90.27,240.35 88.4,240.35 88.4,239.42 32.78,239.42 32.78,235.29 60.63,219.24 64.37,219.24 "/>
<polygon fill-rule="evenodd" clip-rule="evenodd" fill="#FFFFFF" points="64.37,219.24 60.63,219.24 88.4,235.29 88.4,240.35 
	89.33,240.35 89.33,239.42 90.27,239.42 90.27,234.22 "/>
<rect x="89.33" y="239.415" fill-rule="evenodd" clip-rule="evenodd" fill="#FFFFFF" width="0.936" height="0.935"/>
<rect x="59.75" y="247.68" fill-rule="evenodd" clip-rule="evenodd" fill="#FFFFFF" width="1.64" height="23.641"/>
<polygon fill-rule="evenodd" clip-rule="evenodd" fill="#FFFFFF" points="55.09,264.9 53.91,266.06 56.4,268.6 59.75,268.6 
	59.75,266.95 57.09,266.95 "/>
<polygon fill-rule="evenodd" clip-rule="evenodd" fill="#FFFFFF" points="64.39,258.67 61.39,258.67 61.39,260.32 63.69,260.32 
	65.82,262.5 65.82,264.78 63.69,266.95 61.39,266.95 61.39,268.6 64.39,268.6 67.46,265.45 67.46,261.82 "/>
<polygon fill-rule="evenodd" clip-rule="evenodd" fill="#FFFFFF" points="59.75,250.4 57.3,250.4 53.83,253.52 53.83,257.17 
	56.9,260.32 59.75,260.32 59.75,258.67 57.6,258.67 55.48,256.5 55.48,254.25 57.93,252.05 59.75,252.05 "/>
<polygon fill-rule="evenodd" clip-rule="evenodd" fill="#FFFFFF" points="64.23,250.4 61.39,250.4 61.39,252.05 63.54,252.05 
	65.3,253.86 66.48,252.71 "/>
<g>
	<defs>
		<rect id="SVGID_13_" x="-128.93" y="-204" width="1365.96" height="768"/>
	</defs>
	<clipPath id="SVGID_14_">
		<use xlink:href="#SVGID_13_"  overflow="visible"/>
	</clipPath>
	<g clip-path="url(#SVGID_14_)">
		<defs>
			<rect id="SVGID_15_" x="464.95" y="221.521" width="59.16" height="60.72"/>
		</defs>
		<clipPath id="SVGID_16_">
			<use xlink:href="#SVGID_15_"  overflow="visible"/>
		</clipPath>
		<path clip-path="url(#SVGID_16_)" fill="#FFFFFF" d="M498.164,241.956l0.21-0.521v3.444l-0.747-0.749h5.453v8.312h-5.453
			l0.747-0.749v22.312h-8.291v-22.312l0.747,0.749h-4.631v-8.312h4.631l-0.747,0.749v-6.597l6.56-6.655h7.035v8.311h-3.884
			l0.537-0.229L498.164,241.956z M499.476,238.441h3.454l-0.747,0.748v-6.813l0.747,0.748h-5.976l0.531-0.223l-6.125,6.215
			l0.216-0.526v7.038h-4.631l0.747-0.749v6.813l-0.747-0.749h4.631v22.312l-0.747-0.749h6.797l-0.747,0.749v-22.312h5.452
			l-0.747,0.749v-6.813l0.747,0.749h-5.452v-4.496L499.476,238.441z"/>
		<g clip-path="url(#SVGID_16_)">
			<defs>
				<rect id="SVGID_17_" x="464.949" y="221.521" width="59.155" height="60.795"/>
			</defs>
			<clipPath id="SVGID_18_">
				<use xlink:href="#SVGID_17_"  overflow="visible"/>
			</clipPath>
			<path clip-path="url(#SVGID_18_)" fill="#FFFFFF" d="M512.264,221.522l3.862,0.489l2.965,1.411l2.17,1.923l1.407,2.215
				l0.841,2.184l0.44,1.91l0.2,1.351v0.524v36.965l-0.488,3.866l-1.359,2.978l-1.968,2.175l-2.159,1.409l-2.182,0.845l-1.906,0.44
				l-1.348,0.2h-0.523h-35.287l-3.855-0.489l-3.022-1.362l-2.118-1.972l-1.453-2.159l-0.845-2.192l-0.439-1.91l-0.2-1.351v-0.524
				v-36.965l0.488-3.869l1.408-3.023l1.917-2.124l2.205-1.457l2.184-0.846l1.906-0.44l1.348-0.2h0.522H512.264z M476.977,223.02
				h-0.468l0.109-0.008l-1.264,0.188l0.059-0.011l-1.825,0.422l0.101-0.031l-2.059,0.797l0.142-0.072l-2.059,1.36l0.143-0.123
				l-1.778,1.971l0.123-0.187l-1.311,2.814l0.064-0.223l-0.468,3.706l0.006-0.094v36.918v0.47l-0.008-0.11l0.187,1.267l-0.011-0.059
				l0.421,1.83l-0.031-0.103l0.796,2.064l-0.078-0.149l1.357,2.018l-0.111-0.13l1.966,1.829l-0.202-0.134l2.808,1.267l-0.213-0.06
				l3.697,0.469l-0.094-0.006h35.24h0.468l-0.109,0.008l1.264-0.188l-0.059,0.011l1.825-0.422l-0.101,0.031l2.06-0.798l-0.139,0.071
				l2.012-1.313l-0.146,0.124l1.825-2.017l-0.126,0.191l1.264-2.768l-0.063,0.217l0.468-3.705l-0.006,0.094v-36.918v-0.469
				l0.008,0.109l-0.188-1.267l0.012,0.059l-0.421-1.829l0.031,0.102l-0.796-2.064l0.067,0.132l-1.311-2.063l0.135,0.159
				l-2.012-1.782l0.175,0.114l-2.761-1.313l0.227,0.066l-3.697-0.469l0.094,0.006H476.977z"/>
		</g>
	</g>
</g>
<g>
	<defs>
		<rect id="SVGID_19_" x="-129.93" y="-202" width="1365.96" height="768"/>
	</defs>
	<clipPath id="SVGID_20_">
		<use xlink:href="#SVGID_19_"  overflow="visible"/>
	</clipPath>
	<g clip-path="url(#SVGID_20_)">
		<defs>
			<rect id="SVGID_21_" x="380.07" y="134.36" width="23.28" height="30.72"/>
		</defs>
		<clipPath id="SVGID_22_">
			<use xlink:href="#SVGID_21_"  overflow="visible"/>
		</clipPath>
		<g clip-path="url(#SVGID_22_)">
			<defs>
				<rect id="SVGID_23_" x="380.219" y="134.36" width="22.965" height="30.758"/>
			</defs>
			<clipPath id="SVGID_24_">
				<use xlink:href="#SVGID_23_"  overflow="visible"/>
			</clipPath>
			<path clip-path="url(#SVGID_24_)" fill="#FFFFFF" d="M403.185,147.064c-0.074-0.743-0.595-0.966-1.115-0.966l-0.521-0.594
				h-16.796c-0.297-0.372-0.892-0.52-1.412-0.148c-0.595,0.817-0.074,1.634,0.669,1.634c0.297,0,0.594-0.148,0.743-0.371h16.351
				l0.223,0.223c0,0.297,0.074,0.594,0.223,0.817C402.07,148.253,403.036,148.03,403.185,147.064"/>
		</g>
		<g clip-path="url(#SVGID_22_)">
			<defs>
				<rect id="SVGID_25_" x="380.219" y="134.36" width="22.965" height="30.758"/>
			</defs>
			<clipPath id="SVGID_26_">
				<use xlink:href="#SVGID_25_"  overflow="visible"/>
			</clipPath>
			<path clip-path="url(#SVGID_26_)" fill="#FFFFFF" d="M382.077,154.048h15.979c0.297,0.372,0.892,0.52,1.412,0.149
				c0.595-0.817,0.074-1.635-0.669-1.635c-0.297,0-0.594,0.148-0.743,0.371h-15.533l-0.223-0.223
				c0.074-0.446-0.223-0.966-0.892-1.114c-0.966,0.148-1.189,1.114-0.669,1.635c0.223,0.222,0.52,0.297,0.743,0.222L382.077,154.048
				z"/>
		</g>
		<g clip-path="url(#SVGID_22_)">
			<defs>
				<rect id="SVGID_27_" x="380.219" y="134.36" width="22.965" height="30.758"/>
			</defs>
			<clipPath id="SVGID_28_">
				<use xlink:href="#SVGID_27_"  overflow="visible"/>
			</clipPath>
			<path clip-path="url(#SVGID_28_)" fill="#FFFFFF" d="M383.267,149.145l-1.858-1.932v-2.155l1.858-1.931h17.243
				c0.297,0.372,0.892,0.52,1.412,0.148c0.594-0.817,0.074-1.634-0.669-1.634c-0.297,0-0.595,0.148-0.743,0.371h-17.763l-2.527,2.6
				v3.121l2.527,2.6h16.797l1.858,1.932v2.377l-1.858,1.857h-15.831c-0.297-0.371-0.892-0.52-1.412-0.148
				c-0.595,0.817-0.074,1.635,0.669,1.635c0.297,0,0.595-0.149,0.743-0.372h16.276l2.527-2.6v-3.343l-2.527-2.6L383.267,149.145z"/>
		</g>
		<g clip-path="url(#SVGID_22_)">
			<defs>
				<rect id="SVGID_29_" x="380.219" y="134.36" width="22.965" height="30.758"/>
			</defs>
			<clipPath id="SVGID_30_">
				<use xlink:href="#SVGID_29_"  overflow="visible"/>
			</clipPath>
			<path clip-path="url(#SVGID_30_)" fill="#FFFFFF" d="M386.016,135.995c0.595,0.446,1.115,0.297,1.413-0.149h8.175
				c0.297,0.372,0.892,0.52,1.412,0.149c0.669-0.743,0.075-1.635-0.668-1.635c-0.297,0-0.595,0.149-0.744,0.372h-8.175
				c-0.149-0.223-0.372-0.372-0.669-0.372C386.016,134.36,385.422,135.251,386.016,135.995"/>
		</g>
		<g clip-path="url(#SVGID_22_)">
			<defs>
				<rect id="SVGID_31_" x="380.219" y="134.36" width="22.965" height="30.758"/>
			</defs>
			<clipPath id="SVGID_32_">
				<use xlink:href="#SVGID_31_"  overflow="visible"/>
			</clipPath>
			<path clip-path="url(#SVGID_32_)" fill="#FFFFFF" d="M382.895,139.561c0.594,0.446,1.115,0.297,1.412-0.148h14.418
				c0.298,0.372,0.893,0.52,1.412,0.148c0.669-0.817,0.149-1.634-0.594-1.634c-0.298,0-0.595,0.148-0.744,0.372h-14.418
				c-0.223-0.224-0.521-0.372-0.817-0.372C382.895,137.926,382.3,138.743,382.895,139.561"/>
		</g>
		<g clip-path="url(#SVGID_22_)">
			<defs>
				<rect id="SVGID_33_" x="380.219" y="134.36" width="22.965" height="30.758"/>
			</defs>
			<clipPath id="SVGID_34_">
				<use xlink:href="#SVGID_33_"  overflow="visible"/>
			</clipPath>
			<path clip-path="url(#SVGID_34_)" fill="#FFFFFF" d="M398.948,159.917c-0.595-0.446-1.115-0.297-1.412,0.149h-11.743
				c-0.297-0.372-0.892-0.52-1.412-0.149c-0.595,0.817-0.074,1.635,0.669,1.635c0.297,0,0.595-0.149,0.743-0.372h11.743
				c0.149,0.223,0.446,0.372,0.743,0.372C399.023,161.552,399.543,160.734,398.948,159.917"/>
		</g>
		<g clip-path="url(#SVGID_22_)">
			<defs>
				<rect id="SVGID_35_" x="380.219" y="134.36" width="22.965" height="30.758"/>
			</defs>
			<clipPath id="SVGID_36_">
				<use xlink:href="#SVGID_35_"  overflow="visible"/>
			</clipPath>
			<path clip-path="url(#SVGID_36_)" fill="#FFFFFF" d="M395.752,163.483c-0.595-0.446-1.115-0.297-1.412,0.148h-5.203
				c-0.223-0.372-0.446-0.52-1.188-0.297c-0.818,0.817-0.224,1.783,0.594,1.783c0.298,0,0.446-0.148,0.595-0.372h5.203
				c0.149,0.223,0.446,0.372,0.743,0.372C395.827,165.118,396.347,164.226,395.752,163.483"/>
		</g>
	</g>
</g>
<g>
	<defs>
		<rect id="SVGID_37_" x="-133.82" y="-204" width="1365.96" height="768"/>
	</defs>
	<clipPath id="SVGID_38_">
		<use xlink:href="#SVGID_37_"  overflow="visible"/>
	</clipPath>
	<g clip-path="url(#SVGID_38_)">
		<defs>
			<rect id="SVGID_39_" x="264.849" y="194.88" width="22.965" height="30.878"/>
		</defs>
		<clipPath id="SVGID_40_">
			<use xlink:href="#SVGID_39_"  overflow="visible"/>
		</clipPath>
		<path clip-path="url(#SVGID_40_)" fill="#FFFFFF" d="M287.814,207.634c-0.074-0.745-0.595-0.97-1.115-0.97l-0.52-0.597h-16.796
			c-0.297-0.372-0.892-0.521-1.412-0.148c-0.595,0.82-0.074,1.641,0.669,1.641c0.297,0,0.595-0.148,0.743-0.373h16.351l0.223,0.225
			c0,0.298,0.074,0.596,0.223,0.82C286.699,208.828,287.666,208.604,287.814,207.634"/>
	</g>
	<g clip-path="url(#SVGID_38_)">
		<defs>
			<rect id="SVGID_41_" x="264.849" y="194.88" width="22.965" height="30.878"/>
		</defs>
		<clipPath id="SVGID_42_">
			<use xlink:href="#SVGID_41_"  overflow="visible"/>
		</clipPath>
		<path clip-path="url(#SVGID_42_)" fill="#FFFFFF" d="M266.707,214.645h15.979c0.297,0.373,0.892,0.522,1.412,0.149
			c0.595-0.82,0.074-1.641-0.669-1.641c-0.297,0-0.594,0.149-0.743,0.373h-15.533l-0.223-0.224c0.074-0.447-0.223-0.97-0.892-1.119
			c-0.966,0.149-1.189,1.119-0.669,1.641c0.223,0.224,0.52,0.299,0.743,0.224L266.707,214.645z"/>
	</g>
	<g clip-path="url(#SVGID_38_)">
		<defs>
			<rect id="SVGID_43_" x="264.849" y="194.88" width="22.965" height="30.878"/>
		</defs>
		<clipPath id="SVGID_44_">
			<use xlink:href="#SVGID_43_"  overflow="visible"/>
		</clipPath>
		<path clip-path="url(#SVGID_44_)" fill="#FFFFFF" d="M267.896,209.723l-1.858-1.939v-2.163l1.858-1.938h17.243
			c0.297,0.373,0.892,0.521,1.412,0.148c0.594-0.82,0.074-1.641-0.669-1.641c-0.297,0-0.595,0.149-0.743,0.373h-17.763l-2.527,2.61
			v3.133l2.527,2.61h16.797l1.858,1.939v2.387l-1.858,1.864h-15.831c-0.297-0.373-0.892-0.522-1.412-0.149
			c-0.595,0.82-0.074,1.641,0.669,1.641c0.297,0,0.595-0.148,0.743-0.373h16.276l2.527-2.61v-3.356l-2.527-2.609L267.896,209.723z"
			/>
	</g>
	<g clip-path="url(#SVGID_38_)">
		<defs>
			<rect id="SVGID_45_" x="264.849" y="194.88" width="22.965" height="30.878"/>
		</defs>
		<clipPath id="SVGID_46_">
			<use xlink:href="#SVGID_45_"  overflow="visible"/>
		</clipPath>
		<path clip-path="url(#SVGID_46_)" fill="#FFFFFF" d="M270.646,196.521c0.594,0.447,1.114,0.298,1.412-0.149h8.175
			c0.297,0.373,0.892,0.522,1.412,0.149c0.669-0.746,0.075-1.642-0.668-1.642c-0.297,0-0.595,0.149-0.744,0.374h-8.175
			c-0.149-0.225-0.372-0.374-0.669-0.374C270.646,194.88,270.052,195.775,270.646,196.521"/>
	</g>
	<g clip-path="url(#SVGID_38_)">
		<defs>
			<rect id="SVGID_47_" x="264.849" y="194.88" width="22.965" height="30.878"/>
		</defs>
		<clipPath id="SVGID_48_">
			<use xlink:href="#SVGID_47_"  overflow="visible"/>
		</clipPath>
		<path clip-path="url(#SVGID_48_)" fill="#FFFFFF" d="M267.525,200.102c0.594,0.447,1.115,0.299,1.412-0.149h14.418
			c0.297,0.373,0.892,0.521,1.412,0.149c0.669-0.82,0.149-1.641-0.594-1.641c-0.298,0-0.595,0.148-0.744,0.372h-14.418
			c-0.223-0.224-0.521-0.372-0.817-0.372C267.525,198.461,266.93,199.281,267.525,200.102"/>
	</g>
	<g clip-path="url(#SVGID_38_)">
		<defs>
			<rect id="SVGID_49_" x="264.849" y="194.88" width="22.965" height="30.878"/>
		</defs>
		<clipPath id="SVGID_50_">
			<use xlink:href="#SVGID_49_"  overflow="visible"/>
		</clipPath>
		<path clip-path="url(#SVGID_50_)" fill="#FFFFFF" d="M283.578,220.537c-0.595-0.447-1.115-0.299-1.412,0.149h-11.743
			c-0.297-0.373-0.892-0.522-1.412-0.149c-0.595,0.82-0.074,1.641,0.669,1.641c0.297,0,0.594-0.149,0.743-0.373h11.743
			c0.149,0.224,0.446,0.373,0.743,0.373C283.652,222.178,284.173,221.357,283.578,220.537"/>
	</g>
	<g clip-path="url(#SVGID_38_)">
		<defs>
			<rect id="SVGID_51_" x="264.849" y="194.88" width="22.965" height="30.878"/>
		</defs>
		<clipPath id="SVGID_52_">
			<use xlink:href="#SVGID_51_"  overflow="visible"/>
		</clipPath>
		<path clip-path="url(#SVGID_52_)" fill="#FFFFFF" d="M280.382,224.117c-0.595-0.447-1.115-0.299-1.412,0.149h-5.203
			c-0.223-0.373-0.446-0.522-1.188-0.299c-0.818,0.82-0.224,1.79,0.594,1.79c0.298,0,0.446-0.149,0.595-0.373h5.203
			c0.149,0.224,0.446,0.373,0.743,0.373C280.457,225.758,280.977,224.863,280.382,224.117"/>
	</g>
	<rect x="264.7" y="194.88" clip-path="url(#SVGID_38_)" fill="none" width="23.28" height="30.84"/>
</g>
<g>
	<defs>
		<rect id="SVGID_53_" x="-129.93" y="-204" width="1365.96" height="768"/>
	</defs>
	<clipPath id="SVGID_54_">
		<use xlink:href="#SVGID_53_"  overflow="visible"/>
	</clipPath>
	<g clip-path="url(#SVGID_54_)">
		<defs>
			<rect id="SVGID_55_" x="154.35" y="134.76" width="23.161" height="30.84"/>
		</defs>
		<clipPath id="SVGID_56_">
			<use xlink:href="#SVGID_55_"  overflow="visible"/>
		</clipPath>
		<g clip-path="url(#SVGID_56_)">
			<defs>
				<rect id="SVGID_57_" x="154.499" y="134.76" width="22.848" height="30.877"/>
			</defs>
			<clipPath id="SVGID_58_">
				<use xlink:href="#SVGID_57_"  overflow="visible"/>
			</clipPath>
			<path clip-path="url(#SVGID_58_)" fill="#FFFFFF" d="M177.346,147.514c-0.074-0.746-0.592-0.97-1.109-0.97l-0.518-0.597h-16.71
				c-0.296-0.373-0.887-0.521-1.405-0.149c-0.591,0.82-0.074,1.641,0.666,1.641c0.296,0,0.591-0.149,0.739-0.373h16.267l0.222,0.224
				c0,0.298,0.074,0.596,0.222,0.82C176.237,148.708,177.198,148.484,177.346,147.514"/>
		</g>
		<g clip-path="url(#SVGID_56_)">
			<defs>
				<rect id="SVGID_59_" x="154.499" y="134.76" width="22.848" height="30.877"/>
			</defs>
			<clipPath id="SVGID_60_">
				<use xlink:href="#SVGID_59_"  overflow="visible"/>
			</clipPath>
			<path clip-path="url(#SVGID_60_)" fill="#FFFFFF" d="M156.347,154.525h15.897c0.295,0.373,0.887,0.522,1.405,0.149
				c0.592-0.82,0.074-1.641-0.666-1.641c-0.295,0-0.591,0.149-0.739,0.373h-15.454l-0.222-0.223c0.074-0.448-0.222-0.97-0.887-1.119
				c-0.961,0.149-1.183,1.119-0.666,1.641c0.222,0.224,0.518,0.298,0.739,0.224L156.347,154.525z"/>
		</g>
		<g clip-path="url(#SVGID_56_)">
			<defs>
				<rect id="SVGID_61_" x="154.499" y="134.76" width="22.848" height="30.877"/>
			</defs>
			<clipPath id="SVGID_62_">
				<use xlink:href="#SVGID_61_"  overflow="visible"/>
			</clipPath>
			<path clip-path="url(#SVGID_62_)" fill="#FFFFFF" d="M157.53,149.603l-1.849-1.939V145.5l1.849-1.938h17.154
				c0.296,0.373,0.888,0.521,1.405,0.149c0.591-0.82,0.073-1.641-0.666-1.641c-0.295,0-0.592,0.149-0.739,0.373h-17.671l-2.514,2.61
				v3.133l2.514,2.61h16.71l1.849,1.939v2.387l-1.849,1.865h-15.75c-0.295-0.373-0.887-0.522-1.405-0.149
				c-0.591,0.82-0.074,1.641,0.666,1.641c0.296,0,0.591-0.149,0.739-0.374h16.193l2.514-2.61v-3.356l-2.514-2.61L157.53,149.603z"/>
		</g>
		<g clip-path="url(#SVGID_56_)">
			<defs>
				<rect id="SVGID_63_" x="154.499" y="134.76" width="22.848" height="30.877"/>
			</defs>
			<clipPath id="SVGID_64_">
				<use xlink:href="#SVGID_63_"  overflow="visible"/>
			</clipPath>
			<path clip-path="url(#SVGID_64_)" fill="#FFFFFF" d="M160.266,136.401c0.591,0.448,1.108,0.298,1.405-0.149h8.133
				c0.295,0.373,0.887,0.522,1.405,0.149c0.666-0.746,0.074-1.641-0.665-1.641c-0.296,0-0.592,0.149-0.74,0.374h-8.133
				c-0.148-0.224-0.37-0.374-0.666-0.374C160.266,134.76,159.674,135.655,160.266,136.401"/>
		</g>
		<g clip-path="url(#SVGID_56_)">
			<defs>
				<rect id="SVGID_65_" x="154.499" y="134.76" width="22.848" height="30.877"/>
			</defs>
			<clipPath id="SVGID_66_">
				<use xlink:href="#SVGID_65_"  overflow="visible"/>
			</clipPath>
			<path clip-path="url(#SVGID_66_)" fill="#FFFFFF" d="M157.161,139.981c0.591,0.447,1.109,0.298,1.405-0.149h14.344
				c0.296,0.373,0.888,0.521,1.405,0.149c0.666-0.82,0.148-1.641-0.591-1.641c-0.296,0-0.592,0.148-0.74,0.373h-14.344
				c-0.222-0.224-0.518-0.373-0.813-0.373C157.161,138.341,156.569,139.161,157.161,139.981"/>
		</g>
		<g clip-path="url(#SVGID_56_)">
			<defs>
				<rect id="SVGID_67_" x="154.499" y="134.76" width="22.848" height="30.877"/>
			</defs>
			<clipPath id="SVGID_68_">
				<use xlink:href="#SVGID_67_"  overflow="visible"/>
			</clipPath>
			<path clip-path="url(#SVGID_68_)" fill="#FFFFFF" d="M173.131,160.417c-0.592-0.447-1.109-0.298-1.405,0.149h-11.683
				c-0.295-0.373-0.887-0.522-1.405-0.149c-0.591,0.82-0.074,1.641,0.666,1.641c0.296,0,0.591-0.149,0.739-0.373h11.683
				c0.148,0.224,0.443,0.373,0.739,0.373C173.206,162.058,173.723,161.237,173.131,160.417"/>
		</g>
		<g clip-path="url(#SVGID_56_)">
			<defs>
				<rect id="SVGID_69_" x="154.499" y="134.76" width="22.848" height="30.877"/>
			</defs>
			<clipPath id="SVGID_70_">
				<use xlink:href="#SVGID_69_"  overflow="visible"/>
			</clipPath>
			<path clip-path="url(#SVGID_70_)" fill="#FFFFFF" d="M169.952,163.997c-0.592-0.447-1.109-0.298-1.405,0.149h-5.176
				c-0.222-0.373-0.444-0.522-1.183-0.298c-0.813,0.821-0.222,1.79,0.591,1.79c0.296,0,0.443-0.149,0.592-0.373h5.176
				c0.148,0.224,0.443,0.373,0.739,0.373C170.026,165.638,170.544,164.743,169.952,163.997"/>
		</g>
	</g>
</g>
</svg>
