<?xml version="1.0" encoding="utf-8"?>
<!-- Generator: Adobe Illustrator 16.0.0, SVG Export Plug-In . SVG Version: 6.00 Build 0)  -->
<!DOCTYPE svg PUBLIC "-//W3C//DTD SVG 1.1//EN" "http://www.w3.org/Graphics/SVG/1.1/DTD/svg11.dtd">
<svg version="1.1" xmlns="http://www.w3.org/2000/svg" xmlns:xlink="http://www.w3.org/1999/xlink" x="0px" y="0px"
	 width="76.306px" height="38.639px" viewBox="0 0 76.306 38.639" enable-background="new 0 0 76.306 38.639" xml:space="preserve">
<g id="Layer_2" display="none">
	<ellipse display="inline" fill="#515151" cx="50.847" cy="23.586" rx="90" ry="36.333"/>
</g>
<g id="Layer_1">
	<rect x="-268.299" y="-358.089" fill-rule="evenodd" clip-rule="evenodd" fill="none" width="1365.96" height="768"/>
	<rect x="-268.299" y="-358.089" fill-rule="evenodd" clip-rule="evenodd" fill="none" width="1365.96" height="768"/>
	<rect x="-268.299" y="-358.089" fill-rule="evenodd" clip-rule="evenodd" fill="none" width="1365.96" height="768"/>
	<polyline fill="none" stroke="#FFFFFF" stroke-width="1.68" stroke-linejoin="round" stroke-miterlimit="10" points="
		51.031,10.671 53.871,13.521 53.871,16.691 50.601,19.541 47.131,19.541 36.861,19.541 	"/>
	<polyline fill="none" stroke="#FFFFFF" stroke-width="1.68" stroke-linejoin="round" stroke-miterlimit="10" points="
		36.931,10.691 71.371,10.691 74.631,7.871 74.631,4.731 71.801,1.911 14.851,1.911 1.821,13.211 1.821,25.741 13.121,37.041 
		50.681,37.041 53.941,34.221 53.941,31.081 51.111,28.261 41.221,28.261 36.931,28.261 	"/>
	<rect x="-268.299" y="-358.089" fill="none" width="1365.96" height="768"/>
	<polyline fill="none" stroke="#FFFFFF" stroke-width="1.68" stroke-linejoin="round" stroke-miterlimit="10" points="
		50.564,19.476 53.404,22.326 53.404,25.496 50.134,28.347 	"/>
	<path fill="none" stroke="#FFFFFF" stroke-width="1.68" stroke-linejoin="round" stroke-miterlimit="10" d="M54.913,20.411"/>
	<circle fill="#FFFFFF" cx="36.861" cy="10.671" r="2.875"/>
	<circle fill="#FFFFFF" cx="36.861" cy="19.541" r="2.875"/>
	<circle fill="#FFFFFF" cx="36.861" cy="28.347" r="2.875"/>
</g>
</svg>
