<?xml version="1.0" encoding="utf-8"?>
<!-- Generator: Adobe Illustrator 16.0.0, SVG Export Plug-In . SVG Version: 6.00 Build 0)  -->
<!DOCTYPE svg PUBLIC "-//W3C//DTD SVG 1.1//EN" "http://www.w3.org/Graphics/SVG/1.1/DTD/svg11.dtd">
<svg version="1.1" id="Layer_1" xmlns="http://www.w3.org/2000/svg" xmlns:xlink="http://www.w3.org/1999/xlink" x="0px" y="0px"
	 width="115.5px" height="233px" viewBox="0 0 115.5 233" enable-background="new 0 0 115.5 233" xml:space="preserve">
<polyline fill="none" stroke="#FFFFFF" stroke-width="1.68" stroke-linejoin="round" stroke-miterlimit="10" points="109.8,6.755 
	105.92,6.825 102.08,7.025 98.279,7.345 94.529,7.805 90.83,8.385 87.18,9.095 83.58,9.916 80.04,10.865 76.55,11.925 73.11,13.105 
	69.74,14.396 66.42,15.785 63.17,17.295 59.98,18.905 56.86,20.625 53.81,22.445 50.82,24.355 47.91,26.375 45.07,28.485 
	42.3,30.686 39.61,32.975 37,35.355 34.47,37.815 32.02,40.365 29.66,43.005 27.38,45.715 25.19,48.505 23.09,51.365 21.08,54.305 
	19.16,57.305 17.34,60.385 15.61,63.525 13.98,66.735 12.45,70.005 11.03,73.325 9.7,76.715 8.49,80.155 7.38,83.646 6.38,87.195 
	5.49,90.785 4.71,94.436 4.05,98.115 3.5,101.845 3.08,105.615 2.77,109.416 2.58,113.256 2.52,117.135 2.58,121.006 2.77,124.855 
	3.08,128.656 3.5,132.426 4.05,136.156 4.71,139.836 5.49,143.475 6.38,147.076 7.38,150.615 8.49,154.115 9.7,157.555 
	11.03,160.936 12.45,164.266 13.98,167.535 15.61,170.746 17.34,173.885 19.16,176.955 21.08,179.965 23.09,182.906 25.19,185.766 
	27.38,188.555 29.66,191.266 32.02,193.895 34.47,196.445 37,198.916 39.61,201.295 42.3,203.586 45.07,205.785 47.91,207.895 
	50.82,209.906 53.81,211.826 56.86,213.645 59.98,215.355 63.17,216.975 66.42,218.475 69.74,219.875 73.11,221.166 76.55,222.346 
	80.04,223.406 83.58,224.346 87.18,225.176 90.83,225.875 94.529,226.465 98.279,226.916 102.08,227.246 105.92,227.445 
	109.8,227.516 "/>
<circle fill="#FFFFFF" stroke="#FFFFFF" stroke-miterlimit="10" cx="109.8" cy="6.755" r="3.231"/>
<circle fill="#FFFFFF" stroke="#FFFFFF" stroke-miterlimit="10" cx="109.8" cy="227.516" r="3.231"/>
</svg>
