<?xml version="1.0" encoding="utf-8"?>
<!-- Generator: Adobe Illustrator 16.0.0, SVG Export Plug-In . SVG Version: 6.00 Build 0)  -->
<!DOCTYPE svg PUBLIC "-//W3C//DTD SVG 1.1//EN" "http://www.w3.org/Graphics/SVG/1.1/DTD/svg11.dtd">
<svg version="1.1" id="Layer_1" xmlns="http://www.w3.org/2000/svg" xmlns:xlink="http://www.w3.org/1999/xlink" x="0px" y="0px"
	 width="1208px" height="350px" viewBox="0 0 1208 350" enable-background="new 0 0 1208 350" xml:space="preserve">
<rect x="-78" y="-203" fill-rule="evenodd" clip-rule="evenodd" fill="none" width="1365.96" height="768"/>
<g>
	<defs>
		<rect id="SVGID_1_" x="4.8" y="1.004" width="510.838" height="345.715"/>
	</defs>
	<clipPath id="SVGID_2_">
		<use xlink:href="#SVGID_1_"  overflow="visible"/>
	</clipPath>
	<g clip-path="url(#SVGID_2_)">
		<defs>
			<rect id="SVGID_3_" x="5.121" y="1.004" width="510.254" height="345.637"/>
		</defs>
		<clipPath id="SVGID_4_">
			<use xlink:href="#SVGID_3_"  overflow="visible"/>
		</clipPath>
		<polygon clip-path="url(#SVGID_4_)" fill="#FFFFFF" points="216.961,344.854 174.181,344.854 165.51,344.634 156.888,343.971 
			140.111,341.396 123.921,337.2 108.386,331.386 93.592,324.247 79.679,315.635 66.725,305.847 54.728,294.807 43.835,282.665 
			34.045,269.49 25.654,255.36 18.516,240.422 12.848,224.751 8.652,208.338 6.151,191.349 5.488,182.649 5.268,173.892 
			5.488,165.133 6.151,156.443 8.726,139.455 12.921,123.12 18.588,107.371 25.728,92.432 34.192,78.373 43.907,65.201 
			54.801,53.055 66.798,42.012 79.753,32.229 93.739,23.617 108.464,16.479 123.99,10.661 140.189,6.462 156.966,3.895 
			165.588,3.23 174.259,3.006 512.689,3.006 512.689,4.705 174.269,4.705 174.289,4.705 165.646,4.929 165.695,4.929 157.122,5.583 
			157.19,5.574 140.492,8.142 140.57,8.122 124.458,12.301 124.546,12.271 109.098,18.052 109.167,18.022 94.52,25.13 
			94.594,25.091 80.679,33.654 80.746,33.605 67.856,43.35 67.919,43.291 55.981,54.275 56.039,54.227 45.2,66.304 45.252,66.246 
			35.584,79.349 35.628,79.28 27.207,93.272 27.246,93.194 20.142,108.064 20.174,107.986 14.535,123.657 14.558,123.579 
			10.384,139.835 10.401,139.748 7.838,156.668 7.845,156.6 7.186,165.241 7.188,165.202 6.968,173.921 6.968,173.872 
			7.188,182.591 7.186,182.542 7.845,191.183 7.838,191.124 10.328,208.045 10.311,207.957 14.485,224.282 14.461,224.204 
			20.101,239.807 20.068,239.729 27.172,254.592 27.136,254.524 35.485,268.584 35.436,268.511 45.177,281.619 45.127,281.559 
			55.966,293.642 55.908,293.584 67.846,304.567 67.783,304.515 80.673,314.255 80.607,314.21 94.449,322.777 94.371,322.734 
			109.088,329.839 109.02,329.808 124.478,335.592 124.39,335.565 140.502,339.739 140.414,339.723 157.112,342.285 
			157.054,342.278 165.617,342.938 165.578,342.935 174.22,343.154 174.191,343.154 216.961,343.154 		"/>
	</g>
	<g clip-path="url(#SVGID_2_)">
		<defs>
			<rect id="SVGID_5_" x="5.121" y="1.004" width="510.254" height="345.637"/>
		</defs>
		<clipPath id="SVGID_6_">
			<use xlink:href="#SVGID_5_"  overflow="visible"/>
		</clipPath>
		<path clip-path="url(#SVGID_6_)" fill="#FFFFFF" d="M216.912,346.641c1.514,0,2.802-1.288,2.802-2.811
			c0-1.523-1.289-2.812-2.802-2.812c-1.523,0-2.813,1.288-2.813,2.812C214.217,345.47,215.389,346.641,216.912,346.641"/>
	</g>
	<g clip-path="url(#SVGID_2_)">
		<defs>
			<rect id="SVGID_7_" x="5.121" y="1.004" width="510.254" height="345.637"/>
		</defs>
		<clipPath id="SVGID_8_">
			<use xlink:href="#SVGID_7_"  overflow="visible"/>
		</clipPath>
		<path clip-path="url(#SVGID_8_)" fill="#FFFFFF" d="M512.563,6.628c1.523,0,2.812-1.289,2.812-2.812
			c0-1.523-1.289-2.813-2.812-2.813c-1.523,0-2.813,1.289-2.813,2.813C509.867,5.339,511.039,6.628,512.563,6.628"/>
	</g>
</g>
<rect x="-78" y="-203" fill-rule="evenodd" clip-rule="evenodd" fill="none" width="1365.96" height="768"/>
<g>
	<defs>
		<rect id="SVGID_9_" x="692.28" y="1.004" width="510.838" height="345.715"/>
	</defs>
	<clipPath id="SVGID_10_">
		<use xlink:href="#SVGID_9_"  overflow="visible"/>
	</clipPath>
	<g clip-path="url(#SVGID_10_)">
		<defs>
			<rect id="SVGID_11_" x="692.601" y="1.004" width="510.254" height="345.637"/>
		</defs>
		<clipPath id="SVGID_12_">
			<use xlink:href="#SVGID_11_"  overflow="visible"/>
		</clipPath>
		<polygon clip-path="url(#SVGID_12_)" fill="#FFFFFF" points="991.084,343.154 1033.854,343.154 1033.835,343.154 
			1042.477,342.935 1042.428,342.938 1051.002,342.278 1050.934,342.285 1067.631,339.723 1067.553,339.739 1083.665,335.565 
			1083.577,335.592 1099.025,329.808 1098.957,329.839 1113.604,322.735 1113.525,322.777 1127.372,314.21 1127.304,314.254 
			1140.271,304.514 1140.203,304.567 1152.146,293.584 1152.087,293.642 1162.926,281.559 1162.867,281.622 1172.535,268.514 
			1172.496,268.581 1180.913,254.521 1180.874,254.592 1187.982,239.729 1187.953,239.807 1193.588,224.204 1193.568,224.292 
			1197.67,207.957 1197.65,208.035 1200.208,191.124 1200.208,191.183 1200.862,182.542 1200.862,182.591 1201.077,173.872 
			1201.077,173.921 1200.862,165.202 1200.862,165.241 1200.208,156.6 1200.208,156.668 1197.65,139.748 1197.67,139.835 
			1193.568,123.579 1193.588,123.657 1187.953,107.986 1187.982,108.064 1180.874,93.194 1180.913,93.272 1172.496,79.28 
			1172.535,79.349 1162.867,66.246 1162.926,66.304 1152.087,54.227 1152.146,54.275 1140.203,43.291 1140.271,43.35 
			1127.304,33.605 1127.372,33.654 1113.525,25.082 1113.604,25.13 1098.889,18.022 1098.957,18.052 1083.499,12.271 
			1083.587,12.301 1067.475,8.122 1067.563,8.142 1050.865,5.574 1050.924,5.583 1042.428,4.929 1042.477,4.929 1033.835,4.705 
			1033.854,4.705 695.429,4.705 695.429,3.006 1033.864,3.006 1042.535,3.23 1051.09,3.895 1067.865,6.462 1084.056,10.661 
			1099.592,16.479 1114.385,23.617 1128.3,32.229 1141.326,42.012 1153.327,53.055 1164.215,65.201 1173.932,78.373 
			1182.397,92.432 1189.535,107.371 1195.199,123.12 1199.319,139.455 1201.897,156.443 1202.562,165.133 1202.786,173.892 
			1202.562,182.649 1201.897,191.349 1199.319,208.338 1195.199,224.741 1189.535,240.422 1182.397,255.361 1173.932,269.49 
			1164.215,282.664 1153.327,294.807 1141.326,305.848 1128.3,315.635 1114.385,324.247 1099.66,331.386 1084.134,337.2 
			1067.934,341.396 1051.158,343.971 1042.535,344.634 1033.864,344.854 991.084,344.854 		"/>
	</g>
	<g clip-path="url(#SVGID_10_)">
		<defs>
			<rect id="SVGID_13_" x="692.601" y="1.004" width="510.254" height="345.637"/>
		</defs>
		<clipPath id="SVGID_14_">
			<use xlink:href="#SVGID_13_"  overflow="visible"/>
		</clipPath>
		<path clip-path="url(#SVGID_14_)" fill="#FFFFFF" d="M991.064,346.641c-1.514,0-2.802-1.288-2.802-2.811
			c0-1.523,1.288-2.812,2.802-2.812c1.523,0,2.813,1.288,2.813,2.812C993.877,345.47,992.588,346.641,991.064,346.641"/>
	</g>
	<g clip-path="url(#SVGID_10_)">
		<defs>
			<rect id="SVGID_15_" x="692.601" y="1.004" width="510.254" height="345.637"/>
		</defs>
		<clipPath id="SVGID_16_">
			<use xlink:href="#SVGID_15_"  overflow="visible"/>
		</clipPath>
		<path clip-path="url(#SVGID_16_)" fill="#FFFFFF" d="M695.412,6.628c-1.522,0-2.812-1.289-2.812-2.812
			c0-1.523,1.289-2.813,2.812-2.813s2.812,1.289,2.812,2.813C698.224,5.339,696.935,6.628,695.412,6.628"/>
	</g>
</g>
<rect x="-78" y="-203" fill-rule="evenodd" clip-rule="evenodd" fill="none" width="1365.96" height="768"/>
<g>
	<defs>
		<rect id="SVGID_17_" x="-78" y="-203" width="1365.96" height="768"/>
	</defs>
	<clipPath id="SVGID_18_">
		<use xlink:href="#SVGID_17_"  overflow="visible"/>
	</clipPath>
	<g clip-path="url(#SVGID_18_)">
		<defs>
			<rect id="SVGID_19_" x="414.24" y="139.004" width="179.641" height="207.715"/>
		</defs>
		<clipPath id="SVGID_20_">
			<use xlink:href="#SVGID_19_"  overflow="visible"/>
		</clipPath>
		<polygon clip-path="url(#SVGID_20_)" fill="#FFFFFF" points="591.746,142.106 591.746,239.425 591.183,250.16 589.664,260.679 
			587.094,270.721 583.557,280.438 579.149,289.673 573.923,298.347 567.901,306.457 561.156,313.925 553.774,320.751 
			545.744,326.775 537.151,332.075 527.996,336.494 518.442,340.028 508.405,342.599 498.049,344.204 487.39,344.766 
			417.426,344.766 417.426,343.125 487.369,343.125 487.325,343.126 497.92,342.568 497.838,342.577 508.115,340.983 
			508.037,340.999 517.995,338.449 517.913,338.475 527.391,334.969 527.316,334.999 536.397,330.617 536.323,330.657 
			544.852,325.398 544.789,325.44 552.754,319.465 552.691,319.518 560.02,312.744 559.966,312.798 566.658,305.388 
			566.615,305.448 572.585,297.399 572.542,297.466 577.715,288.86 577.683,288.929 582.059,279.766 582.027,279.84 
			585.532,270.198 585.511,270.275 588.06,260.314 588.05,260.4 589.558,249.963 589.547,250.037 590.11,239.361 590.11,239.404 
			590.11,142.106 		"/>
		<path clip-path="url(#SVGID_20_)" fill="#FFFFFF" d="M590.917,139.004c-1.657,0-3.07,1.402-3.07,3.07
			c0,1.657,1.413,3.06,3.07,3.06c1.657,0,3.069-1.403,3.069-3.06C593.859,140.407,592.574,139.004,590.917,139.004"/>
		<path clip-path="url(#SVGID_20_)" fill="#FFFFFF" d="M417.405,340.807c-1.661,0-3.066,1.406-3.066,3.067
			c0,1.662,1.406,3.067,3.066,3.067c1.661,0,3.066-1.405,3.066-3.067C420.471,342.085,419.066,340.807,417.405,340.807"/>
	</g>
</g>
<g>
	<defs>
		<rect id="SVGID_21_" x="-78" y="-203" width="1365.96" height="768"/>
	</defs>
	<clipPath id="SVGID_22_">
		<use xlink:href="#SVGID_21_"  overflow="visible"/>
	</clipPath>
	<g clip-path="url(#SVGID_22_)">
		<defs>
			<rect id="SVGID_23_" x="617.4" y="139.004" width="178.438" height="206.276"/>
		</defs>
		<clipPath id="SVGID_24_">
			<use xlink:href="#SVGID_23_"  overflow="visible"/>
		</clipPath>
		<polygon clip-path="url(#SVGID_24_)" fill="#FFFFFF" points="621.644,142.085 621.644,238.708 621.643,238.655 622.196,249.253 
			622.187,249.155 623.69,259.521 623.668,259.408 626.199,269.3 626.168,269.198 629.65,278.773 629.609,278.676 633.961,287.775 
			633.912,287.686 639.056,296.231 638.998,296.145 644.933,304.137 644.867,304.057 651.514,311.416 651.445,311.346 
			658.725,318.072 658.641,318.001 666.553,323.936 666.468,323.879 675.014,329.102 674.923,329.052 683.864,333.404 
			683.764,333.361 693.26,336.843 693.156,336.811 703.047,339.343 702.944,339.322 713.152,340.904 713.043,340.894 
			723.568,341.447 723.505,341.445 792.905,341.445 792.905,343.604 723.484,343.604 712.876,343.045 702.562,341.446 
			692.567,338.888 682.97,335.368 673.934,330.969 665.299,325.692 657.302,319.694 649.944,312.898 643.23,305.464 
			637.234,297.389 632.037,288.754 627.641,279.56 624.123,269.886 621.563,259.888 620.044,249.416 619.486,238.739 
			619.486,142.085 		"/>
		<path clip-path="url(#SVGID_24_)" fill="#FFFFFF" d="M620.544,139.004c1.649,0,3.046,1.393,3.046,3.049
			c0,1.646-1.396,3.039-3.046,3.039c-1.65,0-3.046-1.393-3.046-3.039C617.498,140.397,618.894,139.004,620.544,139.004"/>
		<path clip-path="url(#SVGID_24_)" fill="#FFFFFF" d="M792.895,339.408c1.646,0,3.05,1.396,3.05,3.046s-1.403,3.046-3.05,3.046
			c-1.646,0-3.049-1.396-3.049-3.046C789.846,340.677,791.122,339.408,792.895,339.408"/>
	</g>
</g>
</svg>
