<?xml version="1.0" encoding="utf-8"?>
<!-- Generator: Adobe Illustrator 16.0.0, SVG Export Plug-In . SVG Version: 6.00 Build 0)  -->
<!DOCTYPE svg PUBLIC "-//W3C//DTD SVG 1.1//EN" "http://www.w3.org/Graphics/SVG/1.1/DTD/svg11.dtd">
<svg version="1.1" id="Layer_1" xmlns="http://www.w3.org/2000/svg" xmlns:xlink="http://www.w3.org/1999/xlink" x="0px" y="0px"
	 width="791px" height="120px" viewBox="0 0 791 120" enable-background="new 0 0 791 120" xml:space="preserve">
<g>
	<defs>
		<rect id="SVGID_1_" x="118.72" y="58" width="556.814" height="4.44"/>
	</defs>
	<clipPath id="SVGID_2_">
		<use xlink:href="#SVGID_1_"  overflow="visible"/>
	</clipPath>
	<rect x="118.72" y="59.254" clip-path="url(#SVGID_2_)" fill="#FFFFFF" width="556.96" height="2.284"/>
</g>
<g>
	<defs>
		<rect id="SVGID_3_" x="7" y="3.875" width="111.719" height="111.725"/>
	</defs>
	<clipPath id="SVGID_4_">
		<use xlink:href="#SVGID_3_"  overflow="visible"/>
	</clipPath>
	<path clip-path="url(#SVGID_4_)" fill="#8042FF" d="M62.869,114.939c30.49,0,55.194-24.706,55.194-55.193
		c0-30.487-24.704-55.19-55.194-55.191c-30.487,0-55.193,24.704-55.193,55.191S32.382,114.939,62.869,114.939"/>
	<path clip-path="url(#SVGID_4_)" fill="#FFFFFF" d="M117.163,54.154l0.006,0.065l-0.843-5.48l0.012,0.056l-1.356-5.293L115,43.564
		l-1.875-5.062l0.019,0.05l-2.293-4.825l0.031,0.057l-2.769-4.543l0.038,0.05l-3.187-4.269l0.038,0.05l-3.563-3.893l0.044,0.043
		l-3.937-3.562l0.043,0.038l-4.218-3.187l0.05,0.038l-4.543-2.769l0.056,0.031L84.11,9.518l0.05,0.019l-5.105-1.875l0.056,0.019
		l-5.25-1.356l0.063,0.013l-5.48-0.844L68.508,5.5l-5.671-0.281h0.064L57.276,5.5l0.065-0.006l-5.484,0.844l0.062-0.013
		l-5.296,1.356l0.063-0.019l-5.062,1.875l0.052-0.019l-4.828,2.293l0.058-0.031l-4.546,2.769l0.05-0.038l-4.265,3.187l0.049-0.038
		l-3.89,3.562l0.04-0.043l-3.562,3.893l0.041-0.05l-3.187,4.268l0.034-0.05l-2.765,4.543l0.03-0.057l-2.296,4.825l0.022-0.05
		l-1.875,5.062l0.02-0.063l-1.359,5.293l0.013-0.056l-0.844,5.48l0.006-0.065L8.34,59.779v-0.064l0.281,5.671L8.615,65.32
		l0.844,5.484l-0.013-0.063l1.359,5.25l-0.019-0.06l1.875,5.109l-0.023-0.054l2.296,4.828l-0.03-0.058l2.765,4.546l-0.036-0.053
		l3.187,4.218l-0.036-0.043l3.562,3.937l-0.042-0.042l3.89,3.562l-0.049-0.041l4.265,3.187l-0.05-0.034l4.546,2.765l-0.058-0.031
		l4.828,2.297l-0.052-0.022l5.062,1.875l-0.063-0.02l5.296,1.359l-0.062-0.013l5.484,0.844l-0.065-0.007l5.625,0.281h-0.064
		l5.671-0.281l-0.065,0.007l5.48-0.844l-0.063,0.013l5.25-1.359l-0.056,0.019l5.105-1.875l-0.05,0.023l4.824-2.297l-0.056,0.031
		l4.543-2.765l-0.05,0.036l4.218-3.187l-0.043,0.036l3.937-3.562l-0.044,0.045l3.563-3.937l-0.038,0.043l3.187-4.218l-0.038,0.053
		l2.769-4.546l-0.031,0.058l2.293-4.828l-0.019,0.054L115,75.931l-0.019,0.06l1.356-5.25l-0.012,0.063l0.843-5.484l-0.006,0.066
		l0.281-5.671v0.064L117.163,54.154z M118.719,59.746l-0.281,5.736l-0.856,5.548l-1.375,5.311l-1.894,5.166l-2.325,4.884
		l-2.799,4.601l-3.225,4.267l-3.6,3.982l-3.981,3.602l-4.269,3.224l-4.599,2.798l-4.887,2.324l-5.168,1.896l-5.306,1.375
		l-5.551,0.854l-5.735,0.284l-5.689-0.284l-5.547-0.854l-5.359-1.375l-5.12-1.896l-4.883-2.323l-4.6-2.798l-4.315-3.225L23.42,99.24
		l-3.602-3.98l-3.223-4.267l-2.799-4.602l-2.323-4.884l-1.896-5.166L8.202,71.03l-0.854-5.548l-0.285-5.736l0.285-5.688l0.853-5.55
		l1.375-5.355l1.896-5.118l2.323-4.887l2.799-4.6l3.224-4.312l3.603-3.937l3.935-3.6l4.315-3.225l4.6-2.8l4.883-2.325l5.12-1.894
		l5.359-1.375l5.547-0.856l5.688-0.281l5.736,0.281l5.551,0.856l5.306,1.375l5.168,1.894l4.887,2.325l4.599,2.8l4.269,3.225
		l3.981,3.6l3.6,3.937l3.225,4.312l2.799,4.6l2.325,4.887l1.894,5.118l1.375,5.355l0.856,5.55L118.719,59.746z"/>
	<g clip-path="url(#SVGID_4_)">
		<defs>
			<polyline id="SVGID_5_" points="7,3.875 118.738,3.875 118.738,115.615 7,115.615 			"/>
		</defs>
		<clipPath id="SVGID_6_">
			<use xlink:href="#SVGID_5_"  overflow="visible"/>
		</clipPath>
		
			<rect x="58.791" y="50.531" transform="matrix(-0.6882 0.7255 -0.7255 -0.6882 158.5715 35.0949)" clip-path="url(#SVGID_6_)" fill="#FFFFFF" width="25.908" height="2.175"/>
	</g>
	<path clip-path="url(#SVGID_4_)" fill="#FFFFFF" d="M82.692,44.276c1.125-1.125,1.05-3-0.075-4.056
		c-1.125-1.125-3-1.05-4.056,0.075c-1.125,1.131-1.05,3.006,0.075,4.056C79.767,45.477,81.567,45.477,82.692,44.276"/>
	<rect x="39.815" y="59.972" clip-path="url(#SVGID_4_)" fill="#FFFFFF" width="22.903" height="2.178"/>
	<path clip-path="url(#SVGID_4_)" fill="#FFFFFF" d="M39.966,63.877c-1.577,0-2.854-1.277-2.854-2.854
		c0-1.577,1.276-2.854,2.854-2.854c1.577,0,2.854,1.277,2.854,2.854C42.819,62.6,41.542,63.877,39.966,63.877"/>
	<path clip-path="url(#SVGID_4_)" fill="#FFFFFF" d="M62.568,63.877c1.577,0,2.854-1.277,2.854-2.854
		c0-1.577-1.276-2.854-2.854-2.854c-1.577,0-2.854,1.277-2.854,2.854C59.715,62.6,60.992,63.877,62.568,63.877"/>
	<path clip-path="url(#SVGID_4_)" fill="#FFFFFF" d="M62.944,98.495h-0.075c-1.202,0-2.253-1.051-2.253-2.253
		c0-1.277,0.976-2.253,2.178-2.253c0,0,0.075,0,0.15,0c1.277,0,2.253,0.976,2.253,2.253C65.122,97.443,64.146,98.495,62.944,98.495
		 M81.042,93.613c-0.825,0-1.575-0.451-1.956-1.126c-0.6-1.126-0.225-2.478,0.906-3.079c1.05-0.601,2.475-0.225,3.075,0.826
		c0.6,1.051,0.3,2.403-0.75,3.004l-0.15,0.075C81.792,93.538,81.417,93.613,81.042,93.613 M44.696,93.613
		c-0.375,0-0.751-0.075-1.126-0.3l1.126-1.952l-1.202,1.952c-1.051-0.601-1.501-1.952-0.901-3.079
		c0.601-1.051,1.953-1.501,3.004-0.901l0.15,0.075c1.051,0.602,1.427,2.028,0.826,3.079C46.198,93.238,45.448,93.613,44.696,93.613
		 M94.409,80.322c-0.375,0-0.75-0.075-1.125-0.301c-1.056-0.601-1.431-1.952-0.831-3.079l0.075-0.15
		c0.6-1.051,2.031-1.427,3.081-0.826c1.05,0.601,1.425,2.027,0.825,3.079l-1.95-1.126l1.875,1.201
		C95.909,79.946,95.159,80.322,94.409,80.322 M31.255,80.247c-0.751,0-1.427-0.375-1.877-1.052c0,0,0-0.075-0.075-0.075
		c-0.601-1.051-0.301-2.478,0.826-3.078c1.051-0.602,2.403-0.301,3.078,0.75c0.601,1.052,0.301,2.479-0.75,3.154
		C32.081,80.172,31.63,80.247,31.255,80.247 M99.365,62.149c-1.275,0-2.256-0.976-2.256-2.252v-0.075v-0.15
		c0-1.277,0.981-2.253,2.256-2.253s2.25,0.976,2.25,2.253v0.075v0.075v0.075C101.615,61.099,100.565,62.149,99.365,62.149
		 M26.374,62c-1.277,0-2.253-0.977-2.253-2.178v-0.075c0-1.276,0.976-2.252,2.253-2.252c1.276,0,2.252,0.976,2.252,2.252
		C28.626,60.948,27.65,62,26.374,62 M31.255,43.827c-0.375,0-0.751-0.075-1.126-0.3c-1.052-0.6-1.427-2.024-0.826-3.081l1.952,1.131
		l-1.877-1.206c0.601-1.05,2.027-1.425,3.079-0.825c1.051,0.6,1.427,2.031,0.826,3.081l-0.075,0.15
		C32.756,43.452,32.006,43.827,31.255,43.827 M94.409,43.751c-0.75,0-1.581-0.375-1.956-1.125c-0.6-1.05-0.3-2.481,0.831-3.156
		c1.05-0.6,2.4-0.3,3,0.75l0.075,0.15c0.6,1.056,0.225,2.481-0.825,3.081C95.234,43.677,94.859,43.751,94.409,43.751 M81.117,30.384
		c-0.375,0-0.75-0.075-1.05-0.3l-0.15-0.075c-1.056-0.6-1.431-2.025-0.831-3.081c0.606-1.05,2.031-1.425,3.081-0.825l-1.125,1.956
		l1.2-1.956c1.05,0.6,1.5,1.956,0.9,3.081C82.617,30.009,81.867,30.384,81.117,30.384 M44.622,30.384
		c-0.751,0-1.578-0.375-1.953-1.125c-0.601-1.05-0.3-2.406,0.751-3.006l0.15-0.075c1.051-0.6,2.478-0.225,3.079,0.825
		c0.601,1.056,0.226,2.481-0.826,3.081C45.372,30.31,44.997,30.384,44.622,30.384 M62.869,25.504c-1.276,0-2.328-0.975-2.328-2.25
		c0-1.281,0.976-2.256,2.178-2.256h0.15c1.277,0,2.253,0.975,2.253,2.256C65.122,24.529,64.146,25.504,62.869,25.504"/>
</g>
<g>
	<defs>
		<rect id="SVGID_7_" x="342.64" y="3.875" width="111.719" height="111.725"/>
	</defs>
	<clipPath id="SVGID_8_">
		<use xlink:href="#SVGID_7_"  overflow="visible"/>
	</clipPath>
	<path clip-path="url(#SVGID_8_)" fill="#8042FF" d="M398.509,114.939c30.49,0,55.194-24.706,55.194-55.193
		c0-30.487-24.704-55.19-55.194-55.191c-30.487,0-55.193,24.704-55.193,55.191S368.021,114.939,398.509,114.939"/>
	<path clip-path="url(#SVGID_8_)" fill="#FFFFFF" d="M452.803,54.154l0.007,0.065l-0.844-5.48l0.013,0.056l-1.356-5.293l0.019,0.063
		l-1.875-5.062l0.019,0.05l-2.293-4.825l0.031,0.057l-2.769-4.543l0.037,0.05l-3.187-4.269l0.037,0.05l-3.562-3.893l0.043,0.043
		l-3.937-3.562l0.044,0.038l-4.219-3.187l0.05,0.038l-4.543-2.769l0.057,0.031l-4.825-2.293l0.05,0.019l-5.106-1.875l0.057,0.019
		l-5.25-1.356l0.063,0.013l-5.481-0.844l0.065,0.006l-5.671-0.281h0.063L392.917,5.5l0.065-0.006l-5.484,0.844l0.062-0.013
		l-5.296,1.356l0.063-0.019l-5.062,1.875l0.053-0.019l-4.828,2.293l0.058-0.031L368,14.549l0.05-0.038l-4.265,3.187l0.049-0.038
		l-3.89,3.562l0.04-0.043l-3.563,3.893l0.041-0.05l-3.188,4.268l0.035-0.05l-2.766,4.543l0.031-0.057l-2.296,4.825l0.022-0.05
		l-1.875,5.062l0.02-0.063l-1.359,5.293l0.013-0.056l-0.844,5.48l0.007-0.065l-0.281,5.625v-0.064l0.281,5.671l-0.007-0.066
		l0.844,5.484l-0.013-0.063l1.359,5.25l-0.019-0.06l1.875,5.109l-0.023-0.054l2.296,4.828l-0.031-0.058l2.766,4.546l-0.036-0.053
		l3.187,4.218l-0.036-0.043l3.562,3.937l-0.042-0.042l3.89,3.562l-0.049-0.041l4.265,3.187l-0.05-0.034l4.546,2.765l-0.058-0.031
		l4.828,2.297l-0.053-0.022l5.062,1.875l-0.063-0.02l5.296,1.359l-0.062-0.013l5.484,0.844l-0.065-0.007l5.625,0.281h-0.064
		l5.671-0.281l-0.065,0.007l5.48-0.844l-0.063,0.013l5.25-1.359l-0.056,0.019l5.105-1.875l-0.05,0.023l4.825-2.297l-0.057,0.031
		l4.543-2.765l-0.05,0.036l4.219-3.187l-0.044,0.036l3.937-3.562l-0.043,0.045l3.562-3.937l-0.037,0.043l3.187-4.218l-0.037,0.053
		l2.769-4.546l-0.031,0.058l2.294-4.828l-0.02,0.054l1.875-5.109l-0.019,0.06l1.356-5.25l-0.013,0.063l0.844-5.484l-0.007,0.066
		l0.281-5.671v0.064L452.803,54.154z M454.359,59.746l-0.281,5.736l-0.856,5.548l-1.375,5.311l-1.894,5.166l-2.324,4.884l-2.8,4.601
		l-3.225,4.267l-3.6,3.982l-3.981,3.602l-4.268,3.224l-4.6,2.798l-4.887,2.324l-5.169,1.896l-5.306,1.375l-5.55,0.854l-5.736,0.284
		l-5.688-0.284l-5.548-0.854l-5.358-1.375l-5.12-1.896l-4.883-2.323l-4.6-2.798l-4.315-3.225l-3.936-3.604l-3.602-3.98l-3.223-4.267
		l-2.799-4.602l-2.323-4.884l-1.896-5.166l-1.375-5.311l-0.854-5.548l-0.284-5.736l0.284-5.688l0.854-5.55l1.375-5.355l1.896-5.118
		l2.323-4.887l2.798-4.6l3.224-4.312l3.603-3.937l3.935-3.6l4.315-3.225l4.6-2.8l4.883-2.325l5.12-1.894l5.358-1.375l5.548-0.856
		l5.688-0.281l5.736,0.281l5.55,0.856l5.306,1.375l5.168,1.894l4.888,2.325l4.6,2.8l4.268,3.225l3.981,3.6l3.6,3.937l3.225,4.312
		l2.8,4.6l2.324,4.887l1.894,5.118l1.375,5.355l0.856,5.55L454.359,59.746z"/>
	<path clip-path="url(#SVGID_8_)" fill="#FFFFFF" d="M398.584,90.985h-0.075c-1.202,0-2.253-1.051-2.253-2.253
		c0-1.277,0.977-2.253,2.178-2.253c0,0,0.075,0,0.15,0c1.276,0,2.253,0.976,2.253,2.253
		C400.762,90.009,399.786,90.985,398.584,90.985"/>
	<path clip-path="url(#SVGID_8_)" fill="#FFFFFF" d="M409.32,58.395c-0.075-0.676-0.6-0.976-1.05-0.901l-0.525-0.526h-15.77
		c-0.3-0.375-0.826-0.525-1.352-0.15c-0.525,0.751-0.075,1.577,0.676,1.577c0.3,0,0.525-0.15,0.675-0.375h15.395l0.225,0.225
		c0,0.3,0,0.526,0.225,0.751C408.271,59.521,409.17,59.296,409.32,58.395"/>
	<path clip-path="url(#SVGID_8_)" fill="#FFFFFF" d="M389.422,65.003h15.019c0.3,0.376,0.823,0.526,1.354,0.15
		c0.525-0.751,0.075-1.577-0.679-1.577c-0.3,0-0.525,0.15-0.675,0.376h-14.568l-0.225-0.226c0.075-0.451-0.15-0.901-0.826-1.051
		c-0.901,0.15-1.126,1.051-0.601,1.577c0.225,0.226,0.451,0.301,0.751,0.226L389.422,65.003z"/>
	<path clip-path="url(#SVGID_8_)" fill="#FFFFFF" d="M390.549,60.422l-1.802-1.802v-2.027l1.802-1.802h16.221
		c0.3,0.375,0.825,0.525,1.35,0.15c0.525-0.75,0.075-1.577-0.675-1.577c-0.3,0-0.525,0.15-0.675,0.375h-16.672l-2.403,2.328v2.928
		l2.403,2.478h15.847l1.8,1.802v2.178l-1.8,1.802H391c-0.3-0.375-0.826-0.525-1.352-0.15c-0.525,0.75-0.075,1.577,0.676,1.577
		c0.3,0,0.526-0.15,0.676-0.375h15.321l2.4-2.478V62.75l-2.4-2.478L390.549,60.422z"/>
	<path clip-path="url(#SVGID_8_)" fill="#FFFFFF" d="M393.178,48.032c0.525,0.375,1.051,0.225,1.351-0.15h7.66
		c0.301,0.375,0.826,0.525,1.352,0.15c0.526-0.75,0.075-1.575-0.676-1.575c-0.3,0-0.526,0.15-0.676,0.375h-7.66
		c-0.15-0.225-0.375-0.375-0.676-0.375C393.178,46.458,392.651,47.282,393.178,48.032"/>
	<path clip-path="url(#SVGID_8_)" fill="#FFFFFF" d="M390.249,51.338c0.525,0.375,1.052,0.225,1.352-0.15h13.589
		c0.3,0.375,0.831,0.525,1.356,0.15c0.525-0.75,0.075-1.581-0.675-1.581c-0.3,0-0.531,0.15-0.681,0.375H391.6
		c-0.15-0.225-0.375-0.375-0.675-0.375C390.173,49.757,389.648,50.588,390.249,51.338"/>
	<path clip-path="url(#SVGID_8_)" fill="#FFFFFF" d="M405.339,70.56c-0.522-0.375-1.048-0.226-1.349,0.15h-11.039
		c-0.301-0.375-0.826-0.525-1.352-0.15c-0.525,0.751-0.075,1.577,0.676,1.577c0.3,0,0.525-0.15,0.676-0.375h11.039
		c0.15,0.225,0.451,0.375,0.676,0.375C405.415,72.062,405.945,71.235,405.339,70.56"/>
	<path clip-path="url(#SVGID_8_)" fill="#FFFFFF" d="M402.338,73.864c-0.525-0.375-1.051-0.225-1.352,0.075h-4.881
		c-0.226-0.3-0.375-0.451-1.126-0.225c-0.751,0.75-0.225,1.727,0.526,1.727c0.3,0,0.451-0.15,0.601-0.375h4.881
		c0.15,0.225,0.375,0.375,0.676,0.375C402.414,75.44,402.939,74.615,402.338,73.864"/>
	<path clip-path="url(#SVGID_8_)" fill="#FFFFFF" d="M403.765,35.978h-11.939v-1.275h11.939V35.978z M421.525,29.653v62.438
		l-6.85,6.291h-32.335l-6.848-6.291V29.653l6.848-6.287h32.335L421.525,29.653z M413.995,24.473l0.431,0.168h-31.836l0.432-0.168
		l-6.458,5.931l0.207-0.469v61.877l-0.207-0.471l6.458,5.933l-0.432-0.168h31.836l-0.431,0.168l6.461-5.933l-0.206,0.471V29.935
		l0.206,0.469L413.995,24.473z"/>
</g>
<circle fill="none" stroke="#FFFFFF" stroke-width="1.56" stroke-miterlimit="8" cx="730.665" cy="60.465" r="55.133"/>
<g>
	<defs>
		<rect id="SVGID_9_" x="712.84" y="24.759" width="37.2" height="68.521"/>
	</defs>
	<clipPath id="SVGID_10_">
		<use xlink:href="#SVGID_9_"  overflow="visible"/>
	</clipPath>
	<g clip-path="url(#SVGID_10_)">
		<defs>
			<rect id="SVGID_11_" x="712.987" y="24.759" width="36.88" height="68.492"/>
		</defs>
		<clipPath id="SVGID_12_">
			<use xlink:href="#SVGID_11_"  overflow="visible"/>
		</clipPath>
		<path clip-path="url(#SVGID_12_)" fill="#FFFFFF" d="M746.08,41.542l-5.766-5.899l0.544,0.229h-6.728h-11.413l0.504-0.192
			l-8.528,7.583l0.256-0.57v8.546l-0.219-0.534l7.568,7.704l-0.542-0.228h5.526h0.359h14.014l8.01,8.154v9.17l-8.01,8.153h-21.779
			l-6.711-6.849l1.085-1.067l6.486,6.621l-0.542-0.228h21.143l-0.542,0.227l7.569-7.703l-0.219,0.534v-8.546l0.219,0.535
			l-7.569-7.705l0.542,0.228h-13.695h-0.359h-5.845l-8.01-8.153v-9.2l9.001-8.003h11.701h7.046l5.99,6.126L746.08,41.542z
			 M730.487,93.251V79.047V24.759h1.52v54.288v14.204H730.487z"/>
	</g>
</g>
</svg>
