<svg xmlns="http://www.w3.org/2000/svg" viewBox="0 0 500 500"><defs><style>.cls-1{fill:#404040;}.cls-2{fill:#fafafa;}.cls-3{fill:#804cfb;}</style></defs><title>consumers_ico</title><g id="Warstwa_3" data-name="Warstwa 3"><path class="cls-1" d="M120.14,372.6l.39-200.78a9.3,9.3,0,0,1,9.33-9.3l152.07.24a9.32,9.32,0,0,1,9.3,9.34l-.38,200.77a9.33,9.33,0,0,1-9.34,9.31l-152.07-.25A9.31,9.31,0,0,1,120.14,372.6Z"/><path class="cls-2" d="M281.53,383.18h0l-152.07-.25a10.31,10.31,0,0,1-10.3-10.33h0l.39-200.78a10.31,10.31,0,0,1,10.31-10.3h0l152.07.24a10.33,10.33,0,0,1,10.3,10.34l-.39,200.78A10.32,10.32,0,0,1,281.53,383.18ZM121.14,372.6a8.32,8.32,0,0,0,8.3,8.33l152.07.25h0a8.32,8.32,0,0,0,8.31-8.31l.39-200.77a8.21,8.21,0,0,0-2.42-5.89,8.32,8.32,0,0,0-5.88-2.45l-152.07-.24h0a8.3,8.3,0,0,0-8.31,8.3l-.39,200.78Z"/><path class="cls-1" d="M147,342.12l.39-200.78a9.32,9.32,0,0,1,9.33-9.3l152.08.25a9.31,9.31,0,0,1,9.3,9.33l-.39,200.78a9.32,9.32,0,0,1-9.33,9.3l-152.08-.25A9.32,9.32,0,0,1,147,342.12Z"/><path class="cls-2" d="M308.42,352.7h0l-152.07-.25A10.31,10.31,0,0,1,146,342.12l.39-200.78A10.31,10.31,0,0,1,156.74,131h0l152.07.25a10.31,10.31,0,0,1,10.3,10.33l-.39,200.78A10.33,10.33,0,0,1,308.42,352.7ZM148,342.12a8.31,8.31,0,0,0,8.31,8.33l152.07.25h0a8.33,8.33,0,0,0,8.32-8.31l.39-200.77a8.31,8.31,0,0,0-8.31-8.33L156.75,133h0a8.33,8.33,0,0,0-8.32,8.3Z"/><path class="cls-2" d="M302.12,264.05h0l-132.47-.21a1,1,0,0,1-1-1,1,1,0,0,1,1-1h0l132.47.21a1,1,0,0,1,0,2Z"/><path class="cls-2" d="M302.1,278.64h0l-132.46-.22a1,1,0,0,1,0-2h0l132.47.22a1,1,0,0,1,0,2Z"/><path class="cls-2" d="M302.07,293.23h0L169.6,293a1,1,0,0,1,0-2h0l132.46.22a1,1,0,0,1,0,2Z"/><path class="cls-2" d="M257.79,307.71h0l-88.21-.11a1,1,0,0,1,0-2h0l88.21.11a1,1,0,0,1,0,2Z"/><path class="cls-1" d="M200,117.27h65.06a0,0,0,0,1,0,0v26a4.23,4.23,0,0,1-4.23,4.23h-56.6a4.23,4.23,0,0,1-4.23-4.23v-26A0,0,0,0,1,200,117.27Z"/><path class="cls-2" d="M260.88,148.52h-56.6a5.24,5.24,0,0,1-5.23-5.23v-26a1,1,0,0,1,1-1h65.06a1,1,0,0,1,1,1v26A5.24,5.24,0,0,1,260.88,148.52Zm-59.83-30.25v25a3.23,3.23,0,0,0,3.23,3.23h56.6a3.23,3.23,0,0,0,3.23-3.23v-25Z"/><polygon class="cls-2" points="184.62 132.1 199.46 132.1 199.46 117.27 184.62 132.1"/><path class="cls-2" d="M199.45,133.1H184.62a1,1,0,0,1-.92-.61,1,1,0,0,1,.21-1.09l14.84-14.84a1,1,0,0,1,1.7.71V132.1A1,1,0,0,1,199.45,133.1Zm-12.42-2h11.42V119.68Z"/><path class="cls-3" d="M245.22,222.28c-.13.19-.27.37-.42.55s-.16.21-.25.31-.29.35-.44.51l-.28.29c-.26.27-.52.54-.8.79l-.36.32-.47.38c-.15.12-.3.24-.46.35s-.43.31-.65.45l-.59.38-.44.25-.63.32-.36.18c-.32.15-.65.29-1,.41l-.35.12c-.27.1-.53.18-.8.26l-.33.09c-.37.1-.74.18-1.11.25l-.23,0-1,.13-.33,0c-.4,0-.8.05-1.2.05h0c-.41,0-.81,0-1.21-.06l-.33,0c-.32,0-.63-.08-.94-.13l-.26,0c-.37-.07-.74-.15-1.1-.25l-.35-.1-.76-.25-.39-.14c-.33-.12-.65-.26-1-.4l-.4-.2-.57-.31-.49-.28-.45-.28c-.31-.21-.61-.42-.91-.65a3.15,3.15,0,0,1-.29-.22l-.55-.46-.24-.21a16.42,16.42,0,0,1-1.67-1.77,1.83,1.83,0,0,0-.13-.16l-.5-.66h0a35.3,35.3,0,0,0-16.32,15.05,43.18,43.18,0,0,0,26.43,10.76h4.16a43.16,43.16,0,0,0,26.68-10.75A35.34,35.34,0,0,0,245.22,222.28Z"/><path class="cls-2" d="M234.58,248.94h-4.22a44.47,44.47,0,0,1-27.08-11,1,1,0,0,1-.21-1.25,36.44,36.44,0,0,1,16.79-15.46,1,1,0,0,1,1.22.34c.15.21.31.42.47.62l.09.11a15.26,15.26,0,0,0,1.59,1.7l.23.2c.16.15.33.29.51.43l.27.21c.28.21.56.41.86.6l.42.27.45.26.54.28.15.08.22.11c.3.14.6.26.9.38l.37.13.71.23.32.09c.34.09.69.17,1,.24l.24,0,.88.13.32,0a10.45,10.45,0,0,0,1.13.05c.38,0,.75,0,1.11-.05l.31,0c.31,0,.61-.07.91-.12l.11,0h.1c.35-.07.69-.14,1-.23l.32-.09.74-.24.32-.11c.32-.12.62-.25.92-.39l.34-.16c.2-.1.4-.2.59-.31l.41-.23.55-.35.61-.43.43-.32.44-.36.33-.3c.26-.24.52-.48.76-.74l.25-.27a6.27,6.27,0,0,0,.42-.48l.24-.29c.13-.17.27-.34.4-.52a1,1,0,0,1,1.22-.32,36,36,0,0,1,16.44,15.33,1,1,0,0,1-.21,1.24A44.41,44.41,0,0,1,234.58,248.94Zm-29.36-12a42.48,42.48,0,0,0,25.2,10h4.11a42.45,42.45,0,0,0,25.4-10,34.58,34.58,0,0,0-14.4-13.46l-.21.26-.47.55-.21.22-.08.08c-.28.29-.56.57-.86.84l-.38.34-.5.41-.49.37-.69.48-.63.4-.46.26-.68.35-.11.06-.27.13c-.35.16-.7.3-1.05.44l-.3.1c-.35.13-.64.22-.92.3l-.36.1c-.39.1-.78.19-1.18.27l-.17,0c-.42.07-.76.12-1.11.15l-.35,0c-.42,0-.84,0-1.28.06s-.86,0-1.29-.06l-.3,0c-.39,0-.73-.09-1.06-.14l-.28,0c-.39-.07-.78-.16-1.17-.26l-.37-.11-.81-.26-.1,0-.32-.11c-.35-.14-.69-.28-1-.44l-.29-.14-.13-.07-.62-.32-.52-.3-.47-.3c-.34-.22-.66-.45-1-.69l-.31-.24c-.2-.15-.39-.32-.58-.48l-.25-.23a17.58,17.58,0,0,1-1.78-1.88l-.13-.17,0,0A34.5,34.5,0,0,0,205.22,237Z"/><path class="cls-2" d="M234.3,229.66a1,1,0,0,1-1-.9.41.41,0,0,1,0-.11,1,1,0,0,1,.9-1c.31,0,.61-.07.91-.12a1,1,0,0,1,1.15.82,1,1,0,0,1,0,.17,1,1,0,0,1-.84,1c-.34.06-.68.11-1,.14Z"/><path class="cls-2" d="M235.5,229.49a1,1,0,0,1-1-.82,1.09,1.09,0,0,1,0-.18,1,1,0,0,1,.82-1c.35-.07.69-.14,1-.23a1,1,0,0,1,1.22.71.73.73,0,0,1,0,.25,1,1,0,0,1-.75,1c-.39.1-.78.19-1.18.27Z"/><path class="cls-2" d="M236.94,229.15a1,1,0,0,1-1-.73.84.84,0,0,1,0-.27,1,1,0,0,1,.72-1l.75-.24a1,1,0,0,1,1.27.61,1,1,0,0,1,.06.33,1,1,0,0,1-.67,1c-.28.1-.57.19-.85.27A.9.9,0,0,1,236.94,229.15Z"/><path class="cls-2" d="M232.78,229.74a1,1,0,0,1-1-1h0a1,1,0,0,1,1-1h0a10.61,10.61,0,0,0,1.12-.05,1,1,0,0,1,1.08.92v.08a1,1,0,0,1-.92,1C233.63,229.72,233.21,229.74,232.78,229.74Z"/><path class="cls-2" d="M232.77,229.74h0c-.44,0-.86,0-1.29-.06a1,1,0,0,1-.92-1,.25.25,0,0,1,0-.08,1,1,0,0,1,1.07-.91c.38,0,.75.05,1.13.05a1,1,0,0,1,1,1h0A1,1,0,0,1,232.77,229.74Z"/><path class="cls-2" d="M228.58,229.13a.9.9,0,0,1-.28,0l-.81-.26a1,1,0,0,1-.67-1,1.26,1.26,0,0,1,.05-.33,1,1,0,0,1,1.28-.61l.71.23a1,1,0,0,1,.72,1,.9.9,0,0,1,0,.28A1,1,0,0,1,228.58,229.13Z"/><path class="cls-2" d="M230,229.48l-.18,0c-.4-.07-.79-.16-1.18-.26a1,1,0,0,1-.74-1,1.15,1.15,0,0,1,0-.26,1,1,0,0,1,1.22-.71c.34.09.69.17,1,.24a1,1,0,0,1,.82,1,1.1,1.1,0,0,1,0,.18A1,1,0,0,1,230,229.48Z"/><path class="cls-2" d="M231.23,229.65h-.1c-.34,0-.68-.08-1-.13a1,1,0,0,1-.83-1,1,1,0,0,1,0-.17,1,1,0,0,1,1.15-.81l.88.12a1,1,0,0,1,.9,1v.1A1,1,0,0,1,231.23,229.65Z"/><path class="cls-2" d="M239.43,228.18a1,1,0,0,1-.9-.55,1,1,0,0,1-.1-.44,1,1,0,0,1,.56-.9c.2-.1.4-.2.59-.31a1,1,0,1,1,1,1.75l-.68.35A1,1,0,0,1,239.43,228.18Z"/><path class="cls-2" d="M244.55,224.14a1,1,0,0,1-.64-.23,1,1,0,0,1-.36-.77,1,1,0,0,1,.23-.64l.24-.29a1,1,0,0,1,1.4-.17,1,1,0,0,1,.38.79,1,1,0,0,1-.21.62l-.27.33A1,1,0,0,1,244.55,224.14Z"/><path class="cls-2" d="M242.67,226.05a1,1,0,0,1-.65-1.76l.33-.3a1,1,0,0,1,1.42.06,1.05,1.05,0,0,1,.26.68,1,1,0,0,1-.33.74l-.38.34A1,1,0,0,1,242.67,226.05Z"/><path class="cls-2" d="M243.83,224.94a1,1,0,0,1-.69-.28,1,1,0,0,1-.31-.72,1,1,0,0,1,.28-.69l.25-.27a1,1,0,0,1,1.75.68,1,1,0,0,1-.26.67l-.21.22-.08.08A1,1,0,0,1,243.83,224.94Z"/><path class="cls-2" d="M232.58,249c-.76,0-1.51,0-2.26-.05a1,1,0,0,1,.05-2h4.16a1,1,0,0,1,.05,2C233.91,249,233.25,249,232.58,249Z"/><path class="cls-2" d="M238.09,228.77a1,1,0,0,1-.94-.65,1,1,0,0,1,.59-1.29h0c.3-.12.6-.24.89-.38a1,1,0,0,1,.84,1.82h0c-.34.16-.69.3-1,.44A1.07,1.07,0,0,1,238.09,228.77Z"/><path class="cls-2" d="M227.43,228.74a1.13,1.13,0,0,1-.36-.06l-.53-.21-.5-.22h0a1,1,0,0,1-.48-1.32,1,1,0,0,1,1.32-.49l.46.2.44.18h0a1,1,0,0,1-.35,1.93Z"/><path class="cls-2" d="M240.5,227.61a1,1,0,0,1-.86-.49.94.94,0,0,1-.14-.51,1,1,0,0,1,.48-.86h0l.55-.34a1,1,0,0,1,1.38.28,1,1,0,0,1-.29,1.39l-.63.4A1.06,1.06,0,0,1,240.5,227.61Z"/><path class="cls-2" d="M241.74,226.78a1,1,0,0,1-.81-.41,1,1,0,0,1-.19-.59,1,1,0,0,1,.41-.8l.43-.33a1,1,0,0,1,1.24,1.57l-.49.37A1,1,0,0,1,241.74,226.78Z"/><path class="cls-2" d="M220.11,223.59l.78-.63-.78.63.78-.63-.8.6-.11-.14a1,1,0,0,1-.22-.62,1,1,0,0,1,1.79-.62l.09.11Z"/><path class="cls-2" d="M222.8,225.94a1,1,0,0,1-.66-.25l-.25-.22a1,1,0,0,1-.33-.74,1,1,0,0,1,.26-.67,1,1,0,0,1,1.41-.07l.23.2a1,1,0,0,1,.34.75,1,1,0,0,1-1,1Z"/><path class="cls-2" d="M225,227.55a1,1,0,0,1-.52-.14l-.47-.3a1,1,0,1,1,1.09-1.68l.42.27a1,1,0,0,1,.48.85,1,1,0,0,1-.15.52A1,1,0,0,1,225,227.55Z"/><path class="cls-2" d="M247.75,186.93a1,1,0,0,1-.81-.42,17.55,17.55,0,0,0-11.9-7.13,1,1,0,0,1-.83-.71,1,1,0,0,1,.32-1l.18-.16c2.74-2.29,8-6,12.57-5.08a6.5,6.5,0,0,1,4.59,3.66c1.93,3.73-.28,8.37-3.54,10.7A1,1,0,0,1,247.75,186.93Zm-10.25-9.12a19.68,19.68,0,0,1,10.42,6.69c2.1-1.92,3.44-5.09,2.18-7.54a4.56,4.56,0,0,0-3.22-2.62C244.52,173.86,241.09,175.15,237.5,177.81Z"/><path class="cls-2" d="M223.64,226.62a1,1,0,0,1-.61-.2l-.31-.24a1,1,0,0,1-.16-1.4,1,1,0,0,1,1.41-.16l.27.21a1,1,0,0,1,.4.8,1,1,0,0,1-1,1Z"/><path class="cls-2" d="M226.06,228.14a1,1,0,0,1-.44-.11l-.62-.32a1,1,0,0,1-.51-.88,1,1,0,0,1,.12-.48A1,1,0,0,1,226,226l.54.28a1,1,0,0,1,.55.9,1,1,0,0,1-.1.44A1,1,0,0,1,226.06,228.14Z"/><path class="cls-2" d="M261.21,238.19H261a1,1,0,0,1-.7-.49,34.54,34.54,0,0,0-15.53-14.5,1,1,0,0,1-.39-1.5,15.42,15.42,0,0,0,2.51-5.42,17.28,17.28,0,0,0,.34-2l.19-1a1,1,0,0,1,1.24-.76,2.92,2.92,0,0,0,.93.14,3.52,3.52,0,0,0,2.52-1.05,3.55,3.55,0,0,0-2.08-6.06,1,1,0,0,1-.68-.4,1,1,0,0,1-.17-.78,58.52,58.52,0,0,0,1.13-7.31,18,18,0,0,0-3.41-10.61,1,1,0,0,1-.18-.75,1,1,0,0,1,.41-.65c2.51-1.79,4.34-5.42,2.93-8.15a4.56,4.56,0,0,0-3.22-2.62c-2.69-.54-6.76,1.2-10.88,4.66l-.18.15a1,1,0,0,1-.78.23,16.57,16.57,0,0,0-2.19-.15h0a17.25,17.25,0,0,0-12.37,5.21,17.92,17.92,0,0,0-5.16,12.63,18.52,18.52,0,0,0,.36,3.62l.72,3.65a1,1,0,0,1-.19.8,1,1,0,0,1-.72.39,3.58,3.58,0,0,0-3.32,3.55,3.57,3.57,0,0,0,3.57,3.58h0a3.59,3.59,0,0,0,1.11-.19,1,1,0,0,1,.82.08,1,1,0,0,1,.47.67l.19,1a18,18,0,0,0,.35,2,15.48,15.48,0,0,0,2.43,5.34,1,1,0,0,1-.42,1.49,34.48,34.48,0,0,0-15.85,14.62,1,1,0,0,1-.71.5,1,1,0,0,1-.82-.24,44.39,44.39,0,1,1,58.59,0A1,1,0,0,1,261.21,238.19Zm-14.5-16.32a36.1,36.1,0,0,1,14.74,13.76,42.39,42.39,0,1,0-57.75,0,36.49,36.49,0,0,1,15.09-13.91,17,17,0,0,1-2.08-5,19.88,19.88,0,0,1-.37-2.07,4.44,4.44,0,0,1-.63,0h0a5.57,5.57,0,0,1-1.5-10.93l-.52-2.65a20.22,20.22,0,0,1-.4-4A19.93,19.93,0,0,1,219,183a19.19,19.19,0,0,1,13.82-5.8,20,20,0,0,1,2,.11c2.77-2.3,7.94-5.86,12.42-5a6.5,6.5,0,0,1,4.59,3.66c1.78,3.43,0,7.62-2.77,10.09a20,20,0,0,1,3.25,11,45.14,45.14,0,0,1-1,6.72,5.56,5.56,0,0,1,2.2,9.24,5.53,5.53,0,0,1-3.93,1.63,2.75,2.75,0,0,1-.4,0,17.1,17.1,0,0,1-2.52,7.17Z"/><path class="cls-2" d="M232.78,229.74c-.45,0-.87,0-1.3-.06l-.3,0c-.39,0-.73-.09-1.06-.14l-.28,0c-.39-.07-.78-.16-1.17-.26l-.29-.09c-.35-.1-.63-.19-.89-.28l-.1,0-.32-.11-1-.43-.31-.16-.12-.06-.61-.32-.52-.3-.47-.3c-.34-.22-.66-.45-1-.69l-.3-.23c-.21-.16-.4-.33-.59-.5l-.25-.22a18.53,18.53,0,0,1-1.78-1.88l-.13-.17c-.18-.23-.36-.46-.53-.71a17.38,17.38,0,0,1-2.74-6,19.88,19.88,0,0,1-.37-2.07,4.44,4.44,0,0,1-.63,0h0a5.57,5.57,0,0,1-1.5-10.93l-.52-2.65a20.22,20.22,0,0,1-.4-4A19.93,19.93,0,0,1,219,183a19.19,19.19,0,0,1,13.82-5.8,18.81,18.81,0,0,1,2.45.17h0a19.53,19.53,0,0,1,13.26,7.94h0a20,20,0,0,1,3.79,11.79,45.14,45.14,0,0,1-1,6.72,5.56,5.56,0,0,1,2.2,9.24,5.53,5.53,0,0,1-3.93,1.63,2.75,2.75,0,0,1-.4,0,17.55,17.55,0,0,1-.35,2v0a17.33,17.33,0,0,1-2.84,6.13c-.14.2-.29.39-.44.58l-.27.33-.47.55-.21.22-.08.08c-.28.29-.56.57-.86.84l-.38.34-.5.41-.49.37-.68.48-.64.4-.46.26-.68.35-.11.06-.27.13c-.35.16-.7.3-1.05.44l-.29.1c-.36.13-.65.22-.93.3l-.36.1c-.39.1-.78.19-1.18.27l-.17,0c-.42.07-.76.12-1.11.15l-.35,0C233.63,229.72,233.21,229.74,232.78,229.74Zm-15.65-17.32a1,1,0,0,1,.51.13,1,1,0,0,1,.47.67l.19,1a18,18,0,0,0,.35,2,15.48,15.48,0,0,0,2.43,5.34c.15.21.31.42.47.62l.09.11a15.2,15.2,0,0,0,1.59,1.7l.23.2.51.43.27.21c.28.21.57.41.86.6l.42.27.45.26.54.28.14.07.23.12c.3.14.6.26.9.38l.37.13.71.23.32.09c.34.09.69.17,1,.24l.24,0,.88.13.32,0a10.45,10.45,0,0,0,1.13.05c.38,0,.75,0,1.11-.05l.31,0c.31,0,.61-.07.91-.12l.11,0h.1c.35-.07.69-.14,1-.23l.24-.07c.32-.1.57-.17.82-.26l.09,0,.23-.08c.32-.12.62-.25.92-.39l.34-.16c.2-.1.4-.2.59-.31l.4-.23.57-.35.6-.42.43-.33.44-.36.33-.3c.26-.24.52-.48.76-.74l.25-.27a6.27,6.27,0,0,0,.42-.48l.24-.29c.13-.17.27-.34.4-.52a15.42,15.42,0,0,0,2.51-5.42h0a15.63,15.63,0,0,0,.34-2l.19-1a1,1,0,0,1,1.24-.76,2.92,2.92,0,0,0,.93.14,3.52,3.52,0,0,0,2.52-1.05,3.55,3.55,0,0,0-1.75-6l-3.17,2a7,7,0,0,1-6.95,6.4h0a6.91,6.91,0,0,1-5.07-2.21l.7,3.85a1.09,1.09,0,0,1,0,.18,1,1,0,0,1-1.28,1l-3.55-1a1,1,0,0,1-.72-1,.9.9,0,0,1,0-.28,1,1,0,0,1,1.24-.68l2,.58-.94-5.15a7,7,0,0,1-6.61,4.73h0a7,7,0,0,1-6.94-6.34l-3.72-2.13a3.57,3.57,0,0,0-3.27,3.54,3.57,3.57,0,0,0,3.57,3.58h0a3.59,3.59,0,0,0,1.11-.19A.84.84,0,0,1,217.13,212.42Zm30.77,4.08h0Zm-7.62-14.44a5,5,0,0,0,0,10h0a5,5,0,0,0,0-10ZM226.08,212h0a5,5,0,1,0,0-10h0a5,5,0,1,0,0,10Zm-9.83-8.3,3,1.74a7,7,0,0,1,6.8-5.41h0a6.93,6.93,0,0,1,4.93,2.05c.16.16.31.33.45.5l-.39-2.14a1.09,1.09,0,0,1,0-.18,1,1,0,0,1,2-.18l.77,4.26a7,7,0,0,1,6.45-4.29h0a7,7,0,0,1,6.77,5.32L249.3,204a54.48,54.48,0,0,0,1-6.88,18,18,0,0,0-2.88-9.83,11.28,11.28,0,0,1-5.79,1.42,6.38,6.38,0,0,1-2,3.61,8.52,8.52,0,0,1-5.8,2,22.21,22.21,0,0,1-8.76-2.65c-.63,3.59-3.08,8.48-9.27,8.38a1.13,1.13,0,0,1-.32-.05c0,.24.08.49.13.74Zm16.5-24.48a17.25,17.25,0,0,0-12.3,5.21,17.92,17.92,0,0,0-5.16,12.63c0,.36,0,.72,0,1.08a1.06,1.06,0,0,1,.54-.15H216c6.92,0,7.26-7.73,7.27-8.07a1,1,0,0,1,.54-.85,1,1,0,0,1,1,0,21.2,21.2,0,0,0,9.07,3.13,6.53,6.53,0,0,0,4.45-1.44,4.42,4.42,0,0,0,1.43-3v-.12s0-.06,0-.08a1,1,0,0,1,1.09-1,9.82,9.82,0,0,0,5.45-1,17.59,17.59,0,0,0-10.81-6.22,33.15,33.15,0,0,0-5.55,6.18,1,1,0,0,1-1.39.28,1,1,0,0,1-.44-.83,1,1,0,0,1,.17-.56A32.83,32.83,0,0,1,232.75,179.23Z"/><path class="cls-2" d="M226.08,214h0a7,7,0,0,1,0-14h0a7,7,0,0,1,0,14Zm0-12a5,5,0,1,0,0,10h0a5,5,0,0,0,0-10Z"/><path class="cls-2" d="M240.28,214h0a7,7,0,0,1,0-14h0a7,7,0,0,1,0,14Zm0-12a5,5,0,0,0,0,10h0a5,5,0,0,0,0-10Z"/><path class="cls-3" d="M240.5,226.61l-.44.25Z"/><path class="cls-3" d="M220.89,223a16.42,16.42,0,0,0,1.67,1.77A16.42,16.42,0,0,1,220.89,223Z"/><path class="cls-3" d="M239.43,227.18l-.36.18Z"/><path class="cls-3" d="M244.55,223.14c-.15.17-.29.35-.44.51C244.26,223.49,244.4,223.31,244.55,223.14Z"/><path class="cls-3" d="M244.8,222.83c.15-.18.29-.36.42-.55h0C245.09,222.47,245,222.65,244.8,222.83Z"/><path class="cls-3" d="M241.74,225.78c-.21.16-.43.31-.65.45C241.31,226.09,241.53,225.94,241.74,225.78Z"/><path class="cls-3" d="M243,224.73c.28-.25.54-.52.8-.79C243.57,224.21,243.31,224.48,243,224.73Z"/><path class="cls-3" d="M242.67,225.05l-.47.38Z"/><path class="cls-3" d="M227.82,227.88l-.39-.14Z"/><path class="cls-3" d="M224.55,226.27c-.31-.21-.62-.42-.91-.65C223.94,225.85,224.24,226.06,224.55,226.27Z"/><path class="cls-3" d="M230.29,228.52l-.26,0Z"/><path class="cls-3" d="M231.56,228.68l-.33,0Z"/><path class="cls-3" d="M225.49,226.83l-.49-.28Z"/><path class="cls-3" d="M226.46,227.34l-.4-.2Z"/><path class="cls-3" d="M228.93,228.23l-.35-.1Z"/><path class="cls-3" d="M235.5,228.49l-.23,0Z"/><path class="cls-3" d="M238.09,227.77l-.35.12Z"/><path class="cls-3" d="M236.94,228.15l-.33.09Z"/><path class="cls-3" d="M220.76,222.8l-.5-.66Z"/><path class="cls-3" d="M234.3,228.66l-.33,0Z"/><path class="cls-3" d="M223.35,225.4l-.55-.46Z"/><path class="cls-3" d="M370.53,259.44a89.37,89.37,0,0,1-53.4-17.57,89.4,89.4,0,0,1-53.41,17.57,92.8,92.8,0,0,1-9.33-.48v45.55c0,29.64,15.62,49.65,41.28,65.21l21.46,13,21.46-13c25.65-15.56,41.27-35.57,41.27-65.21V259A92.65,92.65,0,0,1,370.53,259.44Z"/><path class="cls-3" d="M370.53,259.44a89.37,89.37,0,0,1-53.4-17.57,89.4,89.4,0,0,1-53.41,17.57,92.8,92.8,0,0,1-9.33-.48v45.55c0,29.64,15.62,49.65,41.28,65.21l21.46,13,21.46-13c25.65-15.56,41.27-35.57,41.27-65.21V259A92.65,92.65,0,0,1,370.53,259.44Z"/><path class="cls-2" d="M317.13,383.73a1.07,1.07,0,0,1-.52-.14l-21.46-13c-28.49-17.27-41.76-38.26-41.76-66.06V259a1,1,0,0,1,.33-.74,1.05,1.05,0,0,1,.78-.25,89.55,89.55,0,0,0,9.22.48,88,88,0,0,0,52.81-17.37,1,1,0,0,1,1.19,0,88,88,0,0,0,52.81,17.37,89.74,89.74,0,0,0,9.23-.48,1,1,0,0,1,.77.25,1,1,0,0,1,.33.74v45.56c0,27.8-13.26,48.79-41.75,66.06l-21.46,13A1.07,1.07,0,0,1,317.13,383.73ZM255.39,260.06v44.45c0,27,13,47.48,40.79,64.35l20.95,12.7,20.94-12.7c27.83-16.87,40.79-37.32,40.79-64.35V260.06c-2.78.25-5.58.38-8.33.38a89.94,89.94,0,0,1-53.4-17.33,90,90,0,0,1-53.41,17.33C261,260.44,258.18,260.31,255.39,260.06Z"/><path class="cls-2" d="M310.21,329.2a1,1,0,0,1-.71-.29l-17.08-17.08a1,1,0,0,1,0-1.41,1,1,0,0,1,1.42,0l16.36,16.35,30.21-31.07a1,1,0,0,1,1.43,1.4l-30.92,31.8a1,1,0,0,1-.71.3Z"/></g></svg>