<?xml version="1.0" encoding="utf-8"?>
<!-- Generator: Adobe Illustrator 23.0.3, SVG Export Plug-In . SVG Version: 6.00 Build 0)  -->
<svg version="1.1" id="Warstwa_1" xmlns="http://www.w3.org/2000/svg" xmlns:xlink="http://www.w3.org/1999/xlink" x="0px" y="0px"
	 viewBox="0 0 500 500" style="enable-background:new 0 0 500 500;" xml:space="preserve">
<style type="text/css">
	.st0{fill:#8042F8;}
	.st1{fill:#FAFAFA;}
</style>
<title>data_processing_consent_ico</title>
<g id="Warstwa_3">
	<path class="st0" d="M437.3,73.3C370.3,73.6,304.8,53,250,14.5C195.2,53,129.7,73.6,62.7,73.3c-11,0-22-0.6-32.7-1.6V224
		c0,99.1,54.8,166,144.7,218l75.3,43.4l75.3-43.5C415.2,390,470,323,470,223.9V71.7C459.2,72.7,448.3,73.3,437.3,73.3z"/>
	<path d="M250,487.4c-0.4,0-0.7-0.1-1-0.3l-75.3-43.5C74.3,386.2,28,316.4,28,223.9V71.7c0-0.6,0.2-1.1,0.7-1.5
		c0.4-0.4,1-0.6,1.5-0.5c10.9,1.1,21.8,1.6,32.5,1.6c66.6,0.4,131.6-20,186.1-58.4c0.7-0.5,1.6-0.5,2.3,0
		c54.5,38.3,119.5,58.7,186.1,58.4c10.7,0,21.7-0.5,32.5-1.6c0.6-0.1,1.1,0.1,1.5,0.5c0.4,0.4,0.7,0.9,0.7,1.5V224
		c0,92.4-46.3,162.2-145.7,219.8L251,487.2C250.7,487.3,250.4,487.4,250,487.4z M32,73.9V224c0,90.9,45.7,159.6,143.7,216.3
		l74.3,42.9l74.3-42.9C422.3,383.5,468,314.8,468,224V73.9c-10.2,0.9-20.6,1.4-30.7,1.4C370.3,75.6,304.9,55.3,250,17
		C195.1,55.3,129.7,75.6,62.7,75.3C52.6,75.3,42.2,74.8,32,73.9L32,73.9z"/>
	<path class="st1" d="M250,14.5C195.2,53,129.7,73.6,62.7,73.3c-11,0-22-0.6-32.7-1.6V224c0,99.1,54.8,166,144.7,218l75.3,43.4V14.5
		z"/>
	<path d="M250,487.4c-0.4,0-0.7-0.1-1-0.3l-75.3-43.5C74.3,386.2,28,316.4,28,223.9V71.7c0-0.6,0.2-1.1,0.7-1.5
		c0.4-0.4,1-0.6,1.5-0.5c10.9,1.1,21.8,1.6,32.5,1.6c66.6,0.4,131.6-20,186.1-58.4c0.6-0.4,1.4-0.5,2-0.2c0.7,0.3,1.1,1,1.1,1.8
		v470.9c0,0.7-0.4,1.4-1,1.7C250.6,487.3,250.3,487.4,250,487.4z M32,73.9V224c0,90.9,45.7,159.6,143.7,216.3L248,482V18.5
		C193.5,55.9,128.8,75.7,62.7,75.4C52.6,75.3,42.2,74.8,32,73.9L32,73.9z"/>
	<path d="M250,487.4c-1.1,0-2-0.9-2-2V14.5c0-1.1,0.9-2,2-2s2,0.9,2,2v470.9C252,486.6,251.1,487.4,250,487.4
		C250,487.4,250,487.4,250,487.4z"/>
	<path d="M203.2,185.3c0,2.4-4.9,4.3-11,4.3c-6.1,0-11-2-11-4.3v24.3h22L203.2,185.3z"/>
	<path d="M203.2,211.6h-22c-1.1,0-2-0.9-2-2v-24.3c0-1.1,0.9-2,2-2c1.1,0,2,0.9,2,2c0.3,0.6,3.3,2.3,9,2.3s8.7-1.6,9-2.3
		c0,0,0-0.2,0-0.3c0.1-1,1-1.7,2-1.7c1.1,0,2,0.9,2,2v24.3C205.3,210.7,204.4,211.6,203.2,211.6
		C203.3,211.6,203.3,211.6,203.2,211.6z M183.3,207.6h18v-17.6c-5.8,2.1-12.2,2.1-18,0V207.6z"/>
	<path class="st1" d="M203.2,185.3c0-3.1-4.9-5.7-11-5.7c-6.1,0-11,2.5-11,5.7c0,3.1,4.9,5.7,11,5.7S203.2,188.5,203.2,185.3z"/>
	<path d="M192.2,193c-7.4,0-13-3.3-13-7.7s5.6-7.7,13-7.7s13,3.3,13,7.7S199.7,193,192.2,193z M192.2,181.7c-5.4,0-9,2.2-9,3.7
		s3.6,3.7,9,3.7c5.4,0,9-2.2,9-3.7C201.3,183.9,197.7,181.7,192.2,181.7z"/>
	<path class="st1" d="M319.1,209.6v-68.1c0-38.1-30.9-68.9-68.9-68.9c-38.1,0-68.9,30.9-68.9,68.9l0,0v20.9c0,0,0,0,0-0.1
		c0.1,2.3,5,4.2,11,4.2c6,0,10.9-1.9,11-4.2c0,0,0,0,0,0.1v-20.9c-0.5-25.9,20-47.3,45.9-47.8c25.9-0.5,47.3,20,47.8,45.9
		c0,0.6,0,1.3,0,1.9v68.1"/>
	<path d="M319.1,211.6c-1.1,0-2-0.9-2-2v-68.1c0-37-30-66.9-66.9-66.9s-66.9,30-66.9,66.9v20.5c0,0.1,0,0.1,0,0.2
		c0.2,0.6,3.3,2.3,9,2.3c5.7,0,8.8-1.7,9-2.4v-20.7c-0.5-27,20.9-49.3,47.9-49.9c27-0.5,49.3,20.9,49.9,47.9c0,0.7,0,1.3,0,2v68.1
		c0,1.1-0.9,2-2,2c-1.1,0-2-0.9-2-2v-68.1c0.5-24.8-19.1-45.3-43.9-45.8c-24.8-0.5-45.3,19.1-45.8,43.9c0,0.6,0,1.3,0,1.9v20.9
		c0,0.2,0,0.5-0.1,0.7c-0.9,3.7-7.1,5.4-12.9,5.4c-5.8,0-12-1.7-12.9-5.4c-0.1-0.2-0.1-0.4-0.1-0.7v-20.9
		c0-39.2,31.8-70.9,70.9-70.9s70.9,31.8,70.9,70.9l0,0v68.1C321,210.7,320.2,211.6,319.1,211.6z"/>
	<path class="st1" d="M141.5,209.6h217l0,0v157.8c0,9.7-7.9,17.6-17.6,17.6H159.1c-9.7,0-17.6-7.9-17.6-17.6L141.5,209.6
		L141.5,209.6z"/>
	<path d="M340.9,387.1H159.1c-10.8,0-19.6-8.8-19.6-19.6V209.7c0-1.1,0.9-2,2-2h217.1c1.1,0,2,0.9,2,2v157.8
		C360.5,378.3,351.7,387.1,340.9,387.1z M143.5,211.6v155.8c0,8.6,7,15.6,15.6,15.6h181.8c8.6,0,15.6-7,15.6-15.6V211.6L143.5,211.6
		z"/>
	<path class="st0" d="M274,316.2L258.1,289c7.9-4.4,10.7-14.4,6.3-22.3c-4.4-7.9-14.4-10.7-22.3-6.3c-7.9,4.4-10.7,14.4-6.3,22.3
		c1.5,2.6,3.7,4.8,6.3,6.3l-15.9,27.2H274z"/>
	<path d="M274,318.2h-47.7c-0.7,0-1.4-0.4-1.7-1c-0.4-0.6-0.4-1.4,0-2l14.9-25.5c-8.3-5.9-10.2-17.4-4.2-25.6s17.4-10.2,25.6-4.2
		c8.3,5.9,10.2,17.4,4.2,25.6c-1.2,1.6-2.6,3.1-4.2,4.2l14.9,25.5c0.6,1,0.2,2.2-0.7,2.7C274.7,318.1,274.4,318.2,274,318.2
		L274,318.2z M229.7,314.2h40.8l-14.1-24.2c-0.3-0.5-0.3-1-0.2-1.5c0.1-0.5,0.5-1,1-1.2c6.9-3.9,9.4-12.6,5.6-19.5
		c-3.9-6.9-12.6-9.4-19.5-5.6c-6.9,3.9-9.4,12.6-5.6,19.5c1.3,2.3,3.2,4.3,5.6,5.6c0.5,0.3,0.8,0.7,1,1.2c0.1,0.5,0.1,1.1-0.2,1.5
		L229.7,314.2z"/>
	<path d="M181.2,211.6c-1.1,0-2-0.9-2-2v-24.3c0-1.1,0.9-2,2-2c1.1,0,2,0.9,2,2v24.3C183.2,210.7,182.3,211.6,181.2,211.6z"/>
	<path d="M203.2,210.6c-1.1,0-2-0.9-2-2v-23.2c0-1.1,0.9-2,2-2c1.1,0,2,0.9,2,2v23.2C205.2,209.7,204.4,210.6,203.2,210.6z"/>
	<path d="M319.1,209.6v-68.1c0-38.1-30.9-68.9-68.9-68.9c-38.1,0-68.9,30.9-68.9,68.9l0,0v20.9c0,0,0,0,0-0.1c0.1,2.3,5,4.2,11,4.2
		c6,0,10.9-1.9,11-4.2c0,0,0,0,0,0.1v-20.9c-0.5-25.9,20-47.3,45.9-47.8c25.9-0.5,47.3,20,47.8,45.9c0,0.6,0,1.3,0,1.9v68.1"/>
	<path d="M319.1,211.6c-1.1,0-2-0.9-2-2v-68.1c0-37-30-66.9-66.9-66.9s-66.9,30-66.9,66.9v20.5c0,0.1,0,0.1,0,0.2
		c0.2,0.6,3.3,2.3,9,2.3c5.7,0,8.8-1.7,9-2.4v-20.7c-0.5-27,20.9-49.3,47.9-49.9c27-0.5,49.3,20.9,49.9,47.9c0,0.7,0,1.3,0,2v68.1
		c0,1.1-0.9,2-2,2c-1.1,0-2-0.9-2-2v-68.1c0.5-24.8-19.1-45.3-43.9-45.8c-24.8-0.5-45.3,19.1-45.8,43.9c0,0.6,0,1.3,0,1.9v20.9
		c0,0.2,0,0.5-0.1,0.7c-0.9,3.7-7.1,5.4-12.9,5.4c-5.8,0-12-1.7-12.9-5.4c-0.1-0.2-0.1-0.4-0.1-0.7v-20.9
		c0-39.2,31.8-70.9,70.9-70.9s70.9,31.8,70.9,70.9l0,0v68.1C321,210.7,320.2,211.6,319.1,211.6z"/>
	<path class="st0" d="M192.2,179.7c-6,0-11,2.5-11,5.7c0,3.1,4.9,5.7,11,5.7s11-2.6,11-5.7C203.2,182.2,198.3,179.7,192.2,179.7z"/>
	<path d="M192.2,193c-7.4,0-13-3.3-13-7.7s5.6-7.7,13-7.7s13,3.3,13,7.7S199.7,193,192.2,193z M192.2,181.7c-5.4,0-9,2.2-9,3.7
		s3.6,3.7,9,3.7c5.4,0,9-2.2,9-3.7C201.3,183.9,197.7,181.7,192.2,181.7z"/>
	<path d="M141.5,366.8h217l0,0v2.6c0,8.7-7,15.7-15.7,15.7l0,0H157.2c-8.7,0-15.7-7-15.7-15.7l0,0L141.5,366.8L141.5,366.8z"/>
	<path d="M342.8,387.1H157.2c-9.8,0-17.7-7.9-17.7-17.7v-2.7c0-1.1,0.9-2,2-2h217c1.1,0,2,0.9,2,2v2.7
		C360.5,379.2,352.6,387.1,342.8,387.1z M143.5,368.8v0.7c0,7.6,6.1,13.7,13.7,13.7h185.6c7.6,0,13.7-6.1,13.7-13.7v-0.7H143.5z"/>
</g>
</svg>
