<?xml version="1.0" encoding="utf-8"?>
<!-- Generator: Adobe Illustrator 23.0.3, SVG Export Plug-In . SVG Version: 6.00 Build 0)  -->
<svg version="1.1" id="Warstwa_1" xmlns="http://www.w3.org/2000/svg" xmlns:xlink="http://www.w3.org/1999/xlink" x="0px" y="0px"
	 viewBox="0 0 500 500" style="enable-background:new 0 0 500 500;" xml:space="preserve">
<style type="text/css">
	.st0{fill:#FAFAFA;}
	.st1{fill:#8042F8;}
	.st2{fill:none;}
</style>
<title>digital_receipts</title>
<g id="Warstwa_3">
	<path class="st0" d="M316.5,481.4H118.2C94.3,481.4,75,462,75,438.2V88.6c0-23.9,19.3-43.2,43.2-43.2h198.3
		c23.9,0,43.2,19.3,43.2,43.2v349.6C359.7,462,340.3,481.4,316.5,481.4z"/>
	<path d="M316.5,483.4H118.3c-25,0-45.2-20.3-45.2-45.2V88.6c0-25,20.3-45.2,45.2-45.2h198.3c24.9,0.1,45.1,20.3,45.2,45.2v349.6
		C361.7,463.2,341.5,483.4,316.5,483.4z M118.3,47.4c-22.8,0-41.2,18.5-41.2,41.2v349.6c0,22.8,18.4,41.2,41.2,41.3h198.3
		c22.8-0.1,41.2-18.5,41.2-41.3V88.6c0-22.8-18.5-41.2-41.2-41.2H118.3z"/>
	<rect x="99.5" y="95.4" class="st1" width="235.5" height="331.5"/>
	<path d="M335.1,428.9H99.6c-1.1,0-2-0.9-2-2V95.4c0-1.1,0.9-2,2-2h235.4c1.1,0,2,0.9,2,2v331.5C337.1,428,336.2,428.9,335.1,428.9z
		 M101.6,424.9h231.4V97.4H101.6V424.9z"/>
	<path d="M217.4,471.1c-9.5,0-17.2-7.7-17.2-17.2c0-9.5,7.7-17.2,17.2-17.2c9.5,0,17.2,7.7,17.2,17.2
		C234.6,463.4,226.9,471.1,217.4,471.1z M217.4,440.7c-7.3,0-13.2,5.9-13.2,13.2c0,7.3,5.9,13.2,13.2,13.2c7.3,0,13.2-5.9,13.2-13.2
		C230.6,446.6,224.7,440.7,217.4,440.7z"/>
	<path d="M185.8,34.7c-0.9-9.6-9.5-16.7-19.1-15.8c-8.9,0.8-15.7,8.3-15.8,17.2v7.4h34.8v-7.4C185.7,35.6,185.7,35.1,185.8,34.7z"/>
	<path d="M185.7,45.6h-34.8c-1.1,0-2-0.9-2-2v-7.4c-0.1-10.8,8.6-19.5,19.4-19.6c10.2,0,18.7,7.8,19.5,18c0,0.1,0,0.2,0,0.3
		c0,0.4,0,0.9,0,1.3v7.4C187.8,44.7,186.9,45.6,185.7,45.6C185.7,45.6,185.7,45.6,185.7,45.6z M152.9,41.6h30.8v-5.4
		c0-0.5,0-1,0-1.4c-0.7-8.5-8.3-14.8-16.8-14.1c-8,0.7-14.2,7.4-14.1,15.5L152.9,41.6z"/>
	<rect x="185.7" y="59.9" class="st0" width="0.1" height="265.6"/>
	<path d="M185.8,327.5c-1.1,0-2.1-0.9-2.1-2V59.9c0-1.1,0.9-2,2-2c1.1,0,2.1,0.9,2.1,2v265.6C187.8,326.6,186.9,327.5,185.8,327.5z"
		/>
	<path class="st0" d="M185.8,36.1c0-0.5,0-1,0-1.5C185.8,35.1,185.8,35.6,185.8,36.1v23.8h0.1L185.8,36.1z"/>
	<path d="M185.8,61.9c-1.1,0-2.1-0.9-2.1-2V36.1c0-0.6,0-1.1,0-1.6c0-1.1,0.9-2,2-2s2,0.9,2,2c0,0.5,0,1.1,0,1.6v23.8
		C187.7,61,186.9,61.8,185.8,61.9z M185.8,59.9L185.8,59.9z"/>
	<path class="st0" d="M203.2,360.5L203.2,360.5z"/>
	<path d="M203.3,362.5c-1.1,0-2-0.9-2-2c0-1,0.8-1.9,1.9-2h0.3c1.1,0,2,0.9,2,2s-0.9,2-2,2l0,0H203.3z"/>
	<path class="st0" d="M185.8,343c0,0.5,0,1,0,1.4c0.8,9,8.4,16,17.4,16l0,0C193.7,360.4,185.9,352.6,185.8,343z"/>
	<path d="M203.3,362.5c-0.7,0-1.3,0-2-0.1c-9.3-1-16.6-8.4-17.4-17.8v-0.3c0-0.4,0-0.9,0-1.3c0-1.1,0.9-2,2-2s2,0.9,2,2
		c0,8.5,6.9,15.4,15.4,15.5c1.1,0,2,0.9,2,2S204.4,362.5,203.3,362.5z"/>
	<path class="st0" d="M431.4,18.6h-263c9.1,0,16.6,6.9,17.4,16c0,0.5,0,1,0,1.5V343c-0.3,9.6,7.2,17.7,16.8,18
		c9.6,0.3,17.7-7.2,18-16.8c0-0.4,0-0.8,0-1.2v-6h227.1V35C447.7,26,440.4,18.6,431.4,18.6C431.4,18.6,431.4,18.6,431.4,18.6z"/>
	<path d="M203.3,362.5c-10.7-0.1-19.4-8.7-19.4-19.5V36.1c0-0.4,0-0.9,0-1.3c-0.7-8.1-7.4-14.3-15.5-14.3c-1.1,0-2-0.9-2-2
		s0.9-2,2-2h263c10.2,0,18.4,8.2,18.4,18.4v302.2c0,1.1-0.9,2-2,2H222.7v4C222.6,353.8,214,362.4,203.3,362.5z M180.1,20.6
		c4.4,3.4,7.2,8.4,7.6,14c0,0.5,0,1.1,0,1.6V343c0,8.5,6.9,15.4,15.4,15.4c8.5,0,15.4-6.9,15.4-15.4v-6c0-1.1,0.9-2,2-2h225.1V35
		c0-8-6.5-14.4-14.4-14.4L180.1,20.6z"/>
	<path class="st0" d="M185.8,344.5c0-0.5,0-1,0-1.4v-17.5h-0.1V343C185.7,343.5,185.7,344,185.8,344.5z"/>
	<path d="M185.8,346.5c-1,0-1.9-0.8-2-1.8c0-0.5,0-1.1,0-1.6v-17.5c0-1.1,0.9-2,2-2c1.1,0,2.1,0.9,2.1,2V343c0,0.5,0,1.1,0,1.6
		C187.8,345.7,186.9,346.6,185.8,346.5z"/>
	<path d="M448,325.8c-0.4,6.3-5.8,11.1-12.1,10.8c-5.8-0.3-10.4-5-10.8-10.8h-14.4c-0.4,6.3-5.8,11.1-12.1,10.8
		c-5.8-0.3-10.4-5-10.8-10.8h-15c-0.4,6.3-5.8,11.1-12.1,10.8c-5.8-0.3-10.4-5-10.8-10.8h-15c-0.4,6.3-5.8,11.1-12.1,10.8
		c-5.8-0.3-10.4-5-10.8-10.8h-15c-0.3,6.3-5.6,11.2-11.9,11c-6-0.2-10.7-5-11-11h-15c-0.3,6.3-5.6,11.2-11.9,11c-6-0.2-10.7-5-11-11
		h-15.8v17.5c0,9.5-7.7,17.2-17.2,17.2h243.6c9.5,0,17.2-7.7,17.2-17.2v-17.5H448z"/>
	<path d="M446.8,362.5H203.4c-1.1,0-2-0.9-2-2s0.9-2,2-2c8.4,0,15.2-6.9,15.2-15.2v-17.5c0-1.1,0.9-2,2-2h15.8c1.1,0,1.9,0.8,2,1.9
		c0.2,5.2,4.7,9.3,9.9,9c4.9-0.2,8.8-4.1,9-9c0.1-1.1,0.9-1.9,2-1.9h15c1.1,0,1.9,0.8,2,1.9c0.2,5.2,4.7,9.3,9.9,9
		c4.9-0.2,8.8-4.1,9-9c0.1-1.1,0.9-1.9,2-1.9h15c1.1,0,1.9,0.8,2,1.9c0.2,5.2,4.7,9.3,9.9,9c4.9-0.2,8.8-4.1,9-9
		c0.1-1.1,0.9-1.9,2-1.9h15c1.1,0,1.9,0.8,2,1.9c0.3,5.2,4.8,9.2,10.1,8.8c4.8-0.3,8.5-4.1,8.8-8.8c0.1-1.1,0.9-1.9,2-1.9h15
		c1.1,0,1.9,0.8,2,1.9c0.3,5.2,4.8,9.2,10.1,8.8c4.8-0.3,8.5-4.1,8.8-8.8c0.1-1.1,0.9-1.9,2-1.9h14.4c1.1,0,1.9,0.8,2,1.9
		c0.3,5.2,4.8,9.2,10.1,8.8c4.8-0.3,8.5-4.1,8.8-8.8c0.1-1.1,0.9-1.9,2-1.9h16c1.1,0,2,0.9,2,2v17.5c0,7.5-4.3,14.2-11.1,17.4
		C452.5,361.9,449.7,362.6,446.8,362.5z M214.9,358.5h231.9c8.4,0,15.2-6.8,15.2-15.2v0v-15.5h-12.3c-1.4,7.3-8.5,12.1-15.8,10.6
		c-5.4-1.1-9.6-5.3-10.6-10.6h-10.8c-1.4,7.3-8.5,12.1-15.8,10.6c-5.4-1.1-9.6-5.3-10.6-10.6h-11.5c-1.4,7.3-8.5,12.1-15.8,10.6
		c-5.4-1.1-9.6-5.3-10.6-10.6h-11.5c-1.4,7.3-8.5,12.1-15.8,10.6c-5.4-1.1-9.6-5.3-10.6-10.6h-11.5c-1.4,7.3-8.5,12.1-15.8,10.6
		c-5.4-1.1-9.6-5.3-10.6-10.6h-11.5c-1.4,7.3-8.5,12.1-15.8,10.6c-5.4-1.1-9.6-5.3-10.6-10.6h-12v15.5
		C222.5,349.3,219.7,354.9,214.9,358.5L214.9,358.5z"/>
	<line class="st2" x1="219.1" y1="124.1" x2="414.3" y2="124.1"/>
	<path d="M408.6,124.1c0-1.1,0.9-2,2-2l0,0c1.1,0,2,0.9,2,2l0,0c0,1.1-0.9,2-2,2l0,0C409.5,126.1,408.6,125.2,408.6,124.1z
		 M400.7,124.1c0-1.1,0.9-2,2-2l0,0c1.1,0,2,0.9,2,2l0,0c0,1.1-0.9,2-2,2l0,0C401.6,126.1,400.7,125.2,400.7,124.1L400.7,124.1z
		 M392.7,124.1c0-1.1,0.9-2,2-2l0,0c1.1,0,2,0.9,2,2l0,0c0,1.1-0.9,2-2,2l0,0C393.6,126.1,392.7,125.2,392.7,124.1z M384.7,124.1
		c0-1.1,0.9-2,2-2l0,0c1.1,0,2,0.9,2,2l0,0c0,1.1-0.9,2-2,2l0,0C385.6,126.1,384.7,125.2,384.7,124.1L384.7,124.1z M376.7,124.1
		c0-1.1,0.9-2,2-2l0,0c1.1,0,2,0.9,2,2l0,0c0,1.1-0.9,2-2,2l0,0C377.6,126.1,376.7,125.2,376.7,124.1z M368.7,124.1c0-1.1,0.9-2,2-2
		l0,0c1.1,0,2,0.9,2,2l0,0c0,1.1-0.9,2-2,2l0,0C369.6,126.1,368.7,125.2,368.7,124.1L368.7,124.1z M360.7,124.1c0-1.1,0.9-2,2-2l0,0
		c1.1,0,2,0.9,2,2l0,0c0,1.1-0.9,2-2,2l0,0C361.6,126.1,360.7,125.2,360.7,124.1z M352.8,124.1c0-1.1,0.9-2,2-2l0,0c1.1,0,2,0.9,2,2
		l0,0c0,1.1-0.9,2-2,2l0,0C353.7,126.1,352.8,125.2,352.8,124.1L352.8,124.1z M344.8,124.1c0-1.1,0.9-2,2-2l0,0c1.1,0,2,0.9,2,2l0,0
		c0,1.1-0.9,2-2,2l0,0C345.7,126.1,344.8,125.2,344.8,124.1z M336.8,124.1c0-1.1,0.9-2,2-2l0,0c1.1,0,2,0.9,2,2l0,0c0,1.1-0.9,2-2,2
		l0,0C337.7,126.1,336.8,125.2,336.8,124.1L336.8,124.1z M328.8,124.1c0-1.1,0.9-2,2-2l0,0c1.1,0,2,0.9,2,2l0,0c0,1.1-0.9,2-2,2l0,0
		C329.7,126.1,328.8,125.2,328.8,124.1z M320.8,124.1c0-1.1,0.9-2,2-2l0,0c1.1,0,2,0.9,2,2l0,0c0,1.1-0.9,2-2,2l0,0
		C321.7,126.1,320.9,125.2,320.8,124.1L320.8,124.1z M312.9,124.1c0-1.1,0.9-2,2-2l0,0c1.1,0,2,0.9,2,2l0,0c0,1.1-0.9,2-2,2l0,0
		C313.8,126.1,312.9,125.2,312.9,124.1z M304.9,124.1c0-1.1,0.9-2,2-2l0,0c1.1,0,2,0.9,2,2l0,0c0,1.1-0.9,2-2,2l0,0
		C305.8,126.1,304.9,125.2,304.9,124.1L304.9,124.1z M296.9,124.1c0-1.1,0.9-2,2-2l0,0c1.1,0,2,0.9,2,2l0,0c0,1.1-0.9,2-2,2l0,0
		C297.8,126.1,296.9,125.2,296.9,124.1z M288.9,124.1c0-1.1,0.9-2,2-2l0,0c1.1,0,2,0.9,2,2l0,0c0,1.1-0.9,2-2,2l0,0
		C289.8,126.1,288.9,125.2,288.9,124.1L288.9,124.1z M280.9,124.1c0-1.1,0.9-2,2-2l0,0c1.1,0,2,0.9,2,2l0,0c0,1.1-0.9,2-2,2l0,0
		C281.8,126.1,280.9,125.2,280.9,124.1z M273,124.1c0-1.1,0.9-2,2-2l0,0c1.1,0,2,0.9,2,2l0,0c0,1.1-0.9,2-2,2l0,0
		C273.9,126.1,273,125.2,273,124.1L273,124.1z M265,124.1c0-1.1,0.9-2,2-2l0,0c1.1,0,2,0.9,2,2l0,0c0,1.1-0.9,2-2,2l0,0
		C265.9,126.1,265,125.2,265,124.1z M257,124.1c0-1.1,0.9-2,2-2l0,0c1.1,0,2,0.9,2,2l0,0c0,1.1-0.9,2-2,2l0,0
		C257.9,126.1,257,125.2,257,124.1L257,124.1z M249,124.1c0-1.1,0.9-2,2-2l0,0c1.1,0,2,0.9,2,2l0,0c0,1.1-0.9,2-2,2l0,0
		C249.9,126.1,249,125.2,249,124.1L249,124.1z M241,124.1c0-1.1,0.9-2,2-2l0,0c1.1,0,2,0.9,2,2l0,0c0,1.1-0.9,2-2,2l0,0
		C241.9,126.1,241.1,125.2,241,124.1L241,124.1z M233.1,124.1c0-1.1,0.9-2,2-2l0,0c1.1,0,2,0.9,2,2l0,0c0,1.1-0.9,2-2,2l0,0
		C233.9,126.1,233.1,125.2,233.1,124.1L233.1,124.1z M225.1,124.1c0-1.1,0.9-2,2-2l0,0c1.1,0,2,0.9,2,2l0,0c0,1.1-0.9,2-2,2l0,0
		C226,126.1,225.1,125.2,225.1,124.1L225.1,124.1z M217.1,124.1c0-1.1,0.9-2,2-2l0,0c1.1,0,2,0.9,2,2l0,0c0,1.1-0.9,2-2,2l0,0
		C218,126.1,217.1,125.2,217.1,124.1L217.1,124.1z"/>
	<path d="M347.7,94.2h-62.2c-1.1,0-2-0.9-2-2s0.9-2,2-2h62.2c1.1,0,2,0.9,2,2S348.8,94.2,347.7,94.2z"/>
	<path d="M347.7,59.4h-62.2c-1.1,0-2-0.9-2-2c0-1.1,0.9-2,2-2h62.2c1.1,0,2,0.9,2,2C349.7,58.5,348.8,59.4,347.7,59.4z"/>
	<path d="M372,76.4H261.4c-1.1,0-2-0.9-2-2c0-1.1,0.9-2,2-2H372c1.1,0,2,0.9,2,2C374,75.5,373.1,76.4,372,76.4L372,76.4z"/>
	<path d="M414.3,153.3h-24.5c-1.1,0-2-0.9-2-2c0-1.1,0.9-2,2-2h24.5c1.1,0,2,0.9,2,2C416.3,152.4,415.4,153.3,414.3,153.3z"/>
	<path d="M414.3,174.6h-48.7c-1.1,0-2-0.9-2-2s0.9-2,2-2h48.7c1.1,0,2,0.9,2,2S415.4,174.6,414.3,174.6z"/>
	<path d="M414.3,196h-21.1c-1.1,0-2-0.9-2-2c0-1.1,0.9-2,2-2h21.1c1.1,0,2,0.9,2,2C416.3,195.1,415.4,196,414.3,196z"/>
	<path d="M414.3,217.3h-41.9c-1.1,0-2-0.9-2-2c0-1.1,0.9-2,2-2h41.9c1.1,0,2,0.9,2,2C416.3,216.4,415.4,217.3,414.3,217.3z"/>
	<path d="M414.3,238.6h-27.9c-1.1,0-2-0.9-2-2s0.9-2,2-2h27.9c1.1,0,2,0.9,2,2S415.4,238.6,414.3,238.6z"/>
	<path d="M414.3,260h-21.1c-1.1,0-2-0.9-2-2c0-1.1,0.9-2,2-2h21.1c1.1,0,2,0.9,2,2C416.3,259.1,415.4,260,414.3,260z"/>
	<path d="M414.3,281.2h-38.3c-1.1,0-2-0.9-2-2s0.9-2,2-2h38.3c1.1,0,2,0.9,2,2S415.4,281.2,414.3,281.2z"/>
	<path d="M414.3,302.5h-27.9c-1.1,0-2-0.9-2-2s0.9-2,2-2h27.9c1.1,0,2,0.9,2,2S415.4,302.5,414.3,302.5z"/>
	<path d="M243.6,302.5h-24.5c-1.1,0-2-0.9-2-2s0.9-2,2-2h24.5c1.1,0,2,0.9,2,2S244.7,302.5,243.6,302.5L243.6,302.5z"/>
	<path d="M267.8,281.2h-48.7c-1.1,0-2-0.9-2-2s0.9-2,2-2h48.7c1.1,0,2,0.9,2,2S268.9,281.2,267.8,281.2z"/>
	<path d="M240.2,260h-21.1c-1.1,0-2-0.9-2-2c0-1.1,0.9-2,2-2h21.1c1.1,0,2,0.9,2,2C242.2,259.1,241.3,260,240.2,260z"/>
	<path d="M260.9,238.6h-41.8c-1.1,0-2-0.9-2-2s0.9-2,2-2h41.8c1.1,0,2,0.9,2,2S262,238.6,260.9,238.6z"/>
	<path d="M247.1,217.3h-27.9c-1.1,0-2-0.9-2-2c0-1.1,0.9-2,2-2h27.9c1.1,0,2,0.9,2,2C249.1,216.4,248.2,217.3,247.1,217.3z"/>
	<path d="M240.2,196h-21.1c-1.1,0-2-0.9-2-2c0-1.1,0.9-2,2-2h21.1c1.1,0,2,0.9,2,2C242.2,195.1,241.3,196,240.2,196z"/>
	<path d="M257.4,174.6h-38.3c-1.1,0-2-0.9-2-2s0.9-2,2-2h38.3c1.1,0,2,0.9,2,2S258.5,174.6,257.4,174.6L257.4,174.6z"/>
	<path d="M247.1,153.3h-27.9c-1.1,0-2-0.9-2-2c0-1.1,0.9-2,2-2h27.9c1.1,0,2,0.9,2,2C249.1,152.4,248.2,153.3,247.1,153.3z"/>
	<rect x="35.9" y="181.4" class="st0" width="110.3" height="110.3"/>
	<path d="M146.2,293.7H35.9c-1.1,0-2-0.9-2-2V181.4c0-1.1,0.9-2,2-2h110.4c1.1,0,2,0.9,2,2v110.3
		C148.2,292.8,147.3,293.7,146.2,293.7C146.2,293.7,146.2,293.7,146.2,293.7z M37.9,289.7h106.3V183.4H37.9L37.9,289.7z"/>
	<polygon points="75,181.4 35.9,181.4 75,142.3 	"/>
	<path d="M75,183.4H35.9c-1.1,0-2-0.9-2-2c0-0.5,0.2-1.1,0.6-1.4l39.1-39.1c0.6-0.6,1.4-0.7,2.2-0.4c0.7,0.3,1.2,1,1.2,1.8v39.1
		C77,182.6,76.1,183.4,75,183.4L75,183.4z M40.7,179.5H73v-32.3L40.7,179.5z"/>
	<polyline class="st0" points="66.7,241.3 82.7,257.2 115.3,227.5 	"/>
	<path d="M82.7,259.2c-0.5,0-1-0.2-1.4-0.6l-16-16c-0.8-0.8-0.8-2,0-2.8c0.8-0.8,2-0.8,2.8,0c0,0,0,0,0,0l14.6,14.6l31.3-28.5
		c0.8-0.8,2-0.8,2.8,0c0.8,0.8,0.8,2,0,2.8c-0.1,0.1-0.1,0.1-0.2,0.2L84,258.8C83.6,259.1,83.1,259.3,82.7,259.2z"/>
</g>
</svg>
