<?xml version="1.0" encoding="utf-8"?>
<!-- Generator: Adobe Illustrator 23.0.3, SVG Export Plug-In . SVG Version: 6.00 Build 0)  -->
<svg version="1.1" id="Warstwa_1" xmlns="http://www.w3.org/2000/svg" xmlns:xlink="http://www.w3.org/1999/xlink" x="0px" y="0px"
	 viewBox="0 0 500 500" style="enable-background:new 0 0 500 500;" xml:space="preserve">
<style type="text/css">
	.st0{fill:#FAFAFA;}
	.st1{fill:none;}
	.st2{fill:#8042F8;}
	.st3{clip-path:url(#SVGID_2_);}
</style>
<title>efficient_kyc_ico</title>
<g id="Warstwa_3">
	<circle cx="204.7" cy="242.8" r="172.8"/>
	<circle class="st0" cx="224.7" cy="215.2" r="172.8"/>
	<path d="M224.7,389.9c-96.5,0-174.8-78.2-174.8-174.7c0-96.5,78.2-174.8,174.7-174.8c46.4,0,90.9,18.4,123.6,51.2l0,0
		c68.3,68.2,68.3,178.8,0.1,247C315.6,371.5,271.1,389.9,224.7,389.9L224.7,389.9z M224.7,44.5C130.4,44.5,54,121,54,215.3
		c0.1,94.3,76.6,170.7,170.8,170.6c94.3-0.1,170.7-76.6,170.6-170.8c0-45.3-18-88.7-50.1-120.7C313.4,62.4,270,44.4,224.7,44.5z"/>
	<line class="st1" x1="346.8" y1="337.4" x2="374.5" y2="365"/>
	<path d="M374.5,367c-0.5,0-1-0.2-1.4-0.6l-27.6-27.6c-0.8-0.8-0.8-2,0-2.8c0,0,0,0,0,0c0.8-0.8,2-0.8,2.8,0l27.7,27.7
		c0.8,0.8,0.8,2,0,2.8C375.5,366.8,375,367,374.5,367z"/>
	<path class="st2" d="M364.4,375.1l20.1-20.1l0,0l79.3,79.3c4.4,4.4,4.4,11.5,0,15.9l0,0l-4.2,4.2c-4.4,4.4-11.5,4.4-15.9,0l0,0
		L364.4,375.1L364.4,375.1z"/>
	<path d="M451.6,459.6c-3.5,0-6.9-1.4-9.4-3.9l-79.1-79.3c-0.8-0.8-0.8-2,0-2.8c0,0,0,0,0,0l19.9-20c0.8-0.8,2-0.8,2.8,0l79.3,79.3
		c5.2,5.2,5.2,13.5,0,18.7l-4.2,4.2C458.4,458.3,455.1,459.6,451.6,459.6z M367.3,375.1l77.8,77.8c3.6,3.6,9.5,3.6,13.1,0l4.2-4.2
		l0,0c3.6-3.6,3.6-9.5,0-13.1l-77.8-77.8L367.3,375.1z"/>
	<circle class="st0" cx="224.7" cy="215.2" r="145.2"/>
	<g>
		<defs>
			<circle id="SVGID_1_" cx="224.7" cy="215.2" r="145.2"/>
		</defs>
		<clipPath id="SVGID_2_">
			<use xlink:href="#SVGID_1_"  style="overflow:visible;"/>
		</clipPath>
		<g class="st3">
			<path d="M335.5,362.4L335.5,362.4l-221.7-0.4c-0.6,0-1.2-0.3-1.6-0.8c-0.4-0.5-0.5-1.1-0.4-1.7c9.5-40.1,35.9-73.1,70.4-88.3
				c0.9-0.4,1.9-0.1,2.4,0.7c15.4,22.5,46,28.2,68.5,12.8c4.9-3.3,9.1-7.5,12.5-12.4c0.6-0.8,1.6-1,2.4-0.6
				c34.1,15.4,60,48.3,69.3,88.2c0.1,0.6,0,1.2-0.4,1.7C336.7,362.1,336.1,362.4,335.5,362.4z M116.3,358.1l216.6,0.3
				c-9.3-36.9-33.4-67.5-65-82.3c-10.1,13.4-25.8,21.3-42.6,21.3l0,0c-16.9-0.2-32.8-8.2-42.9-21.8
				C150.4,290.2,126,320.8,116.3,358.1L116.3,358.1z"/>
			<path d="M225.4,297.4L225.4,297.4c-25.1,0-46.8-17.7-52.9-43l0,0c-0.6-2.4-1-4.8-1.2-7.2l-0.2-0.9c-1.1,0.3-2.2,0.4-3.3,0.3
				c-9.6,0-17.4-7.9-17.3-17.5c0-8.2,5.8-15.3,13.9-17l-2-10.3c-4.4-21.6,2.2-43.9,17.6-59.7c12-12.3,28.4-19.2,45.6-19.2l0,0
				c35.6,0,64.5,29.6,64.4,65.8c0,3-1.2,10.8-3.5,23.7c9.3,2.3,15,11.8,12.7,21.1c-1.9,7.8-8.9,13.2-16.9,13.2
				c-0.8,0-1.6-0.1-2.5-0.2l-0.2,1c-0.3,2.4-0.7,4.7-1.2,7c0,0,0,0.1,0,0.1l0,0C272.2,279.9,250.4,297.4,225.4,297.4z M176.3,253.6
				c5.6,23.4,25.8,39.9,49,39.9l0,0c23.2,0,43.3-16.3,49-39.9v-0.1c0.5-2.2,0.9-4.4,1.2-6.7l0.6-3.1c0.1-0.5,0.4-1,0.9-1.3
				c0.5-0.3,1-0.4,1.6-0.2c1.1,0.3,2.3,0.5,3.4,0.5l0,0c7.4,0,13.4-6,13.5-13.4c0-6.8-5-12.5-11.8-13.4c-1.1-0.1-1.9-1.1-1.7-2.2
				c0,0,0-0.1,0-0.1c3.2-17,3.8-22.9,3.8-24.9c0-34-27-61.8-60.4-61.8l0,0c-16.1,0-31.5,6.4-42.7,17.9
				c-14.5,14.8-20.7,35.8-16.6,56.1l2.4,12.3c0.1,0.6,0,1.2-0.4,1.6c-0.4,0.4-0.9,0.7-1.5,0.8c-7.4,0.4-13.1,6.7-12.7,14.1
				c0.4,7.2,6.4,12.9,13.6,12.7l0,0c1.4,0,2.8-0.3,4.2-0.7c0.5-0.2,1.1-0.1,1.6,0.2c0.5,0.3,0.8,0.8,1,1.3l0.6,3.2
				c0.3,2.3,0.7,4.7,1.2,7L176.3,253.6z"/>
			<path d="M182.2,224.1c-0.3,0-0.7-0.1-1-0.3l-14.8-8.5c-1-0.6-1.3-1.8-0.7-2.7c0.6-1,1.8-1.3,2.7-0.7l14.8,8.5
				c0.9,0.6,1.3,1.8,0.7,2.7C183.5,223.7,182.9,224.1,182.2,224.1L182.2,224.1z"/>
			<path d="M202.7,244.3L202.7,244.3c-12.3,0-22.2-9.9-22.2-22.2c0-12.2,9.9-22.2,22.2-22.2l0,0c12.2,0,22.1,9.9,22.1,22.1
				c0,0,0,0.1,0,0.1l0,0C224.9,234.4,214.9,244.3,202.7,244.3L202.7,244.3z M202.7,204c-10,0-18.2,8.2-18.2,18.2
				c0,10,8.1,18.2,18.2,18.2l0,0c10,0,18.2-8.1,18.2-18.2c0,0,0,0,0,0l0,0C221,212.1,212.8,204,202.7,204
				C202.8,204,202.8,204,202.7,204L202.7,204z"/>
			<path d="M250.6,244.4L250.6,244.4c-12.3,0-22.2-9.9-22.2-22.2c0-12.2,9.9-22.2,22.2-22.2l0,0c12.2,0,22.2,10,22.1,22.2l0,0
				C272.7,234.5,262.8,244.4,250.6,244.4L250.6,244.4z M250.6,204c-10,0-18.2,8.2-18.2,18.2c0,10,8.1,18.2,18.2,18.2l0,0
				c10,0,18.2-8.1,18.2-18.2l0,0C268.8,212.2,260.7,204.1,250.6,204L250.6,204z"/>
			<path d="M270.8,224.3c-0.7,0-1.4-0.4-1.7-1c-0.5-1-0.2-2.2,0.8-2.7l12.6-7.2c0.9-0.6,2.2-0.3,2.8,0.6c0.6,0.9,0.3,2.2-0.6,2.8
				c0,0-0.1,0.1-0.1,0.1l-12.6,7.3C271.5,224.2,271.2,224.3,270.8,224.3z"/>
			<path d="M212.9,150.1c-0.4,0-0.8-0.1-1.1-0.3c-0.9-0.6-1.2-1.8-0.6-2.8c6.1-8.8,13.3-16.7,21.5-23.5c0.8-0.8,2.1-0.7,2.8,0
				c0.8,0.8,0.7,2.1,0,2.8c-0.1,0.1-0.1,0.1-0.2,0.2c-7.9,6.6-14.9,14.2-20.7,22.7C214.2,149.7,213.6,150.1,212.9,150.1z"/>
			<path d="M168.8,197.1h-0.6c-1.1,0-2-0.9-2-2s0.9-2,2-2c9.8,0.6,18.8-5,22.7-14c2.1-4.6,3.4-9.5,3.7-14.6c0-0.7,0.4-1.4,1.1-1.7
				c0.6-0.3,1.4-0.3,2,0.1c10,6.4,24.2,10.7,31.3,10.8c5.8,0.3,11.5-1.5,15.9-5.2c3.2-2.8,5.1-6.8,5.3-11V157c0-0.6,0.2-1.1,0.6-1.6
				c0.4-0.4,1-0.6,1.6-0.6c7.3,0.8,14.6-0.8,20.9-4.5c9.8-6.1,17-19.9,11.7-30.2c-2.2-4.9-6.6-8.4-11.8-9.6c-9.6-2-23.4,4-37.9,15.9
				c-0.8,0.8-2.1,0.7-2.8,0c-0.8-0.8-0.7-2.1,0-2.8c0.1-0.1,0.1-0.1,0.2-0.2c15.3-13,30.4-19,41.2-17c6.4,1.4,11.8,5.7,14.6,11.7
				c6.4,12.3-1.7,28.3-13.1,35.4c-6.4,3.8-13.8,5.7-21.2,5.3c-0.6,4.8-2.9,9.3-6.5,12.6c-5.2,4.3-11.9,6.5-18.6,6.2
				c-8,0-21.1-4.3-30.7-9.8C197.1,176.3,191.7,197.1,168.8,197.1z"/>
			<path d="M232.5,254c-0.2,0-0.4,0-0.6,0l-12-3.5c-1.1-0.3-1.7-1.4-1.4-2.5c0.3-1.1,1.4-1.7,2.5-1.4c0,0,0,0,0,0l8.9,2.6l-8.9-49.4
				c-0.2-1.1,0.5-2.2,1.6-2.4c1.1-0.2,2.2,0.5,2.4,1.6l9.5,52.6c0.1,0.7-0.1,1.4-0.6,1.9C233.5,253.9,233,254,232.5,254z"/>
			<path d="M227.6,267.8L227.6,267.8c-6,0.2-11.9-2-16.3-6.1c-0.8-0.8-0.8-2,0-2.8c0.8-0.8,2-0.8,2.8,0l0,0
				c3.7,3.3,8.5,5.1,13.5,4.9c1.1,0,2,0.9,2,2C229.6,266.9,228.7,267.8,227.6,267.8z"/>
			<path d="M227.7,267.8c-1.1,0-2-0.9-2-2c0-1.1,0.9-2,2-2l0,0c4.9,0.1,9.7-1.6,13.5-4.9c0.8-0.7,2.1-0.6,2.8,0.2
				c0.6,0.8,0.6,1.9,0,2.6C239.5,265.8,233.7,268,227.7,267.8z"/>
			<ellipse transform="matrix(1.570732e-03 -1 1 1.570732e-03 -20.0984 424.1592)" cx="202.4" cy="222.1" rx="6.2" ry="4.5"/>
			<ellipse transform="matrix(1.570732e-03 -1 1 1.570732e-03 27.6341 472.1267)" cx="250.3" cy="222.2" rx="6.2" ry="4.5"/>
			<path class="st2" d="M267.3,273.6c-16.3,23.2-48.2,28.8-71.4,12.5c-5-3.5-9.4-7.9-12.8-13c-33.9,14.8-59.8,47-69.3,86.9
				l221.7,0.4C326.3,320.8,300.7,288.7,267.3,273.6z"/>
			<path d="M335.5,362.4L335.5,362.4l-221.7-0.4c-0.6,0-1.2-0.3-1.6-0.8c-0.4-0.5-0.5-1.1-0.4-1.7c9.5-40.1,35.9-73.1,70.4-88.3
				c0.9-0.4,1.9-0.1,2.4,0.7c15.4,22.5,46,28.2,68.5,12.8c4.9-3.3,9.1-7.5,12.5-12.4c0.6-0.8,1.6-1,2.4-0.6
				c34.1,15.4,60,48.3,69.3,88.2c0.1,0.6,0,1.2-0.4,1.7C336.7,362.1,336.1,362.4,335.5,362.4z M116.3,358.1l216.6,0.3
				c-9.3-36.9-33.4-67.5-65-82.3c-10.1,13.4-25.8,21.3-42.6,21.3l0,0c-16.9-0.2-32.8-8.2-42.9-21.8
				C150.4,290.2,126,320.8,116.3,358.1L116.3,358.1z"/>
		</g>
	</g>
	<path d="M224.7,362.3c-81.3,0-147.1-65.9-147.1-147.1S143.4,68,224.7,68s147.1,65.9,147.1,147.1
		C371.7,296.4,305.9,362.2,224.7,362.3z M224.7,72c-79.1,0-143.2,64.1-143.2,143.2s64.1,143.2,143.2,143.2s143.2-64.1,143.2-143.2
		l0,0C367.7,136.2,303.7,72.1,224.7,72L224.7,72z"/>
</g>
</svg>
