<svg xmlns="http://www.w3.org/2000/svg" viewBox="0 0 1000 1000"><defs><style>.cls-1{fill:#fafafa;}.cls-2{fill:#ddd;}.cls-3{fill:#231f20;}.cls-4{fill:none;}.cls-5{fill:#8b8b8b;}.cls-6{fill:#fff;}.cls-7{fill:#8042ff;}</style></defs><title>endgame_ico</title><g id="Warstwa_2" data-name="Warstwa 2"><rect class="cls-1" x="320.21" y="260.22" width="287.22" height="460.49" rx="21.66" transform="translate(927.64 980.93) rotate(-180)"/><path d="M585.77,721.71H341.87a22.69,22.69,0,0,1-22.66-22.66V281.88a22.69,22.69,0,0,1,22.66-22.66h243.9a22.69,22.69,0,0,1,22.66,22.66V699.05A22.69,22.69,0,0,1,585.77,721.71ZM341.87,261.22a20.69,20.69,0,0,0-20.66,20.66V699.05a20.69,20.69,0,0,0,20.66,20.66h243.9a20.69,20.69,0,0,0,20.66-20.66V281.88a20.69,20.69,0,0,0-20.66-20.66Z"/><rect class="cls-2" x="344.97" y="310.67" width="237.62" height="355.01" transform="translate(927.56 976.36) rotate(-180)"/><rect class="cls-3" x="344.97" y="652.62" width="237.62" height="13.07" transform="translate(927.56 1318.31) rotate(-180)"/><path d="M463.82,709.33A16.36,16.36,0,1,1,480.18,693,16.38,16.38,0,0,1,463.82,709.33Zm0-30.71A14.36,14.36,0,1,0,478.18,693,14.37,14.37,0,0,0,463.82,678.62Z"/><path class="cls-4" d="M535.28,371l.24.12Z"/><path class="cls-4" d="M542.47,376.19l0,0Z"/><path class="cls-4" d="M544,378a.41.41,0,0,0,.07.11A.41.41,0,0,1,544,378Z"/><path class="cls-4" d="M537.23,371.94c.08,0,.15.1.22.14S537.31,372,537.23,371.94Z"/><path class="cls-4" d="M540.83,374.56a8.21,8.21,0,0,1,.59.59A8.21,8.21,0,0,0,540.83,374.56Z"/><path class="cls-4" d="M539.08,373.13l.08.07Z"/><path class="cls-4" d="M545.42,380.17a30.27,30.27,0,0,1,2,4A30.27,30.27,0,0,0,545.42,380.17Z"/><path class="cls-1" d="M627.38,453.49a25.88,25.88,0,0,1,2.23,2.9A25.88,25.88,0,0,0,627.38,453.49Z"/><path d="M629.61,457.39a1,1,0,0,1-.83-.44,24,24,0,0,0-2.14-2.79,1,1,0,0,1-.26-.67,1,1,0,0,1,1.74-.67,25.77,25.77,0,0,1,2.32,3,1,1,0,0,1,.17.56,1,1,0,0,1-.44.83A1,1,0,0,1,629.61,457.39Z"/><path class="cls-1" d="M635.11,475.41h0a34.62,34.62,0,0,0-4.78-17.94,34.62,34.62,0,0,1,4.78,17.94Z"/><path d="M635.11,476.41a1,1,0,0,1-1-1h0A33.91,33.91,0,0,0,629.48,458a1,1,0,0,1-.15-.52,1,1,0,0,1,1.85-.52l.09.14a35.93,35.93,0,0,1,4.84,18.32h0A1,1,0,0,1,635.11,476.41Z"/><path class="cls-1" d="M620.19,448.28c.3.12.58.29.86.42C620.77,448.57,620.49,448.4,620.19,448.28Z"/><path d="M621.05,449.7a1.11,1.11,0,0,1-.43-.09l-.33-.17a5.24,5.24,0,0,0-.48-.23,1,1,0,0,1-.62-.93,1,1,0,0,1,1.38-.92,6.09,6.09,0,0,1,.63.3l.29.14a1,1,0,0,1,.56.9,1,1,0,0,1-1,1Z"/><path class="cls-1" d="M622.14,449.24c.23.13.45.29.68.43C622.59,449.53,622.37,449.37,622.14,449.24Z"/><path d="M622.82,450.67a1,1,0,0,1-.53-.15l-.3-.2-.34-.21a1,1,0,0,1-.38-1.37,1,1,0,0,1,1.36-.37,4.66,4.66,0,0,1,.47.3l.25.15a1,1,0,0,1,.32,1.38A1,1,0,0,1,622.82,450.67Z"/><path class="cls-1" d="M618.16,447.58c.15,0,.3.11.46.16C618.46,447.69,618.31,447.62,618.16,447.58Z"/><path d="M618.62,448.74a.92.92,0,0,1-.29,0h0l-.26-.1-.17-.05a1,1,0,0,1-.73-1,1.22,1.22,0,0,1,0-.26,1,1,0,0,1,1.23-.7l.34.11.15,0a1,1,0,0,1-.29,2Z"/><path class="cls-1" d="M624,450.43l.07.07Z"/><path d="M624.05,451.49a.93.93,0,0,1-.57-.19l-.09-.07a1.08,1.08,0,0,1-.37-.79,1,1,0,0,1,1.56-.82l.11.08a1.08,1.08,0,0,1,.36.79,1,1,0,0,1-1,1Z"/><path class="cls-1" d="M625.75,451.86c.41.37.79.77,1.18,1.18C626.54,452.63,626.16,452.23,625.75,451.86Z"/><path d="M626.93,454a1,1,0,0,1-.71-.29h0l-.07-.07,0,0c-.37-.39-.69-.72-1-1a1,1,0,0,1,1.34-1.49c.4.37.78.77,1.16,1.17l.07.07a1,1,0,0,1,0,1.41A1,1,0,0,1,626.93,454Z"/><path d="M545.42,380.17c-.43-.71-.89-1.39-1.37-2A.41.41,0,0,1,544,378c-.48-.63-1-1.23-1.49-1.8l0,0c-.34-.37-.69-.7-1.05-1a8.21,8.21,0,0,0-.59-.59,21.13,21.13,0,0,0-1.67-1.36l-.08-.07c-.52-.38-1.07-.72-1.63-1.05-.07,0-.14-.1-.22-.14a16.9,16.9,0,0,0-1.71-.84l-.24-.12A16.39,16.39,0,0,0,529,369.7h0c-11.72,0-21.22,12.72-21.22,28.41h42.45a36.16,36.16,0,0,0-2.56-13.54c-.06-.15-.13-.28-.19-.42A30.27,30.27,0,0,0,545.42,380.17Z"/><path d="M550.19,399.11H507.73a1,1,0,0,1-1-1c0-16.22,10-29.41,22.23-29.41a17.33,17.33,0,0,1,6.7,1.36l.2.09a19,19,0,0,1,1.86.92,1,1,0,0,1,.19.12,19.65,19.65,0,0,1,1.76,1.13l.1.08c.61.45,1.2.93,1.73,1.41l.4.4.44.43c.3.29.59.57.87.88l.07.08c.49.54,1,1.18,1.5,1.83l.07.1c.5.68,1,1.39,1.42,2.12h0a31,31,0,0,1,2.09,4.11l.07.15c0,.09.09.18.13.28a37.42,37.42,0,0,1,2.63,13.92A1,1,0,0,1,550.19,399.11Zm-41.44-2h40.43A35.15,35.15,0,0,0,546.7,385a1.42,1.42,0,0,0-.08-.18l-.1-.23a30.11,30.11,0,0,0-2-3.85h0c-.41-.68-.85-1.34-1.31-2l-.08-.11a21.39,21.39,0,0,0-1.42-1.73l-.07-.09c-.2-.21-.46-.46-.73-.72l-.22-.22a3.19,3.19,0,0,1-.26-.26c-.1-.1-.2-.21-.31-.3-.49-.44-1-.88-1.59-1.3l-.1-.07a15.65,15.65,0,0,0-1.52-1l-.16-.11c-.51-.29-1-.54-1.67-.83l-.18-.08a15.38,15.38,0,0,0-6-1.23C518.06,370.7,509.14,382.46,508.75,397.11Z"/><path class="cls-1" d="M535.52,371.1a16.9,16.9,0,0,1,1.71.84A16.9,16.9,0,0,0,535.52,371.1Z"/><path d="M537.23,372.94a1,1,0,0,1-.49-.13l-.52-.28c-.33-.17-.69-.34-1.1-.52a1,1,0,1,1,.79-1.83h0c.45.2.84.38,1.21.57.21.1.4.21.59.32h0a1,1,0,0,1,.38,1.36A1,1,0,0,1,537.23,372.94Z"/><path class="cls-1" d="M535.28,371A16.39,16.39,0,0,0,529,369.7h0A16.39,16.39,0,0,1,535.28,371Z"/><path d="M535.28,372a.91.91,0,0,1-.39-.08,15.46,15.46,0,0,0-5.92-1.2,1,1,0,0,1,0-2h0a17.32,17.32,0,0,1,6.69,1.36,1,1,0,0,1,.62.92,1.09,1.09,0,0,1-.08.39A1,1,0,0,1,535.28,372Z"/><path class="cls-1" d="M544.05,378.13c.48.65.94,1.33,1.37,2C545,379.46,544.53,378.78,544.05,378.13Z"/><path d="M545.42,381.17a1,1,0,0,1-.86-.48c-.41-.68-.85-1.34-1.31-2a1,1,0,0,1-.2-.59,1,1,0,0,1,1.8-.6c.5.67,1,1.38,1.42,2.11a1,1,0,0,1-.85,1.52Z"/><path class="cls-1" d="M542.49,376.22c.51.57,1,1.17,1.49,1.8C543.5,377.39,543,376.79,542.49,376.22Z"/><path d="M544,379a1,1,0,0,1-.81-.4,21.39,21.39,0,0,0-1.42-1.73,1,1,0,1,1,1.48-1.34c.54.59,1.06,1.23,1.55,1.88a1,1,0,0,1,.19.59,1,1,0,0,1-.4.81A1,1,0,0,1,544,379Z"/><path class="cls-1" d="M547.63,384.57c-.06-.15-.13-.28-.19-.42C547.5,384.29,547.57,384.42,547.63,384.57Z"/><path d="M547.63,385.57a1,1,0,0,1-.93-.62,1.42,1.42,0,0,0-.08-.18l-.1-.23a.91.91,0,0,1-.08-.39,1,1,0,0,1,.6-.92,1,1,0,0,1,1.32.52l.07.16c0,.09.09.18.13.28a1,1,0,0,1-.55,1.3A.84.84,0,0,1,547.63,385.57Z"/><path class="cls-1" d="M537.45,372.08c.56.33,1.11.67,1.63,1.05C538.56,372.75,538,372.41,537.45,372.08Z"/><path d="M539.08,374.13a1,1,0,0,1-.58-.19c-.45-.32-.94-.64-1.55-1a1,1,0,0,1-.5-.87,1,1,0,0,1,.14-.5,1,1,0,0,1,1.37-.36,19,19,0,0,1,1.71,1.1,1,1,0,0,1,.41.81,1,1,0,0,1-1,1Z"/><path class="cls-1" d="M541.42,375.15c.36.34.71.67,1.05,1C542.13,375.82,541.78,375.49,541.42,375.15Z"/><path d="M542.47,377.19a1,1,0,0,1-.74-.33h0c-.25-.27-.51-.53-.77-.78l-.22-.22a1,1,0,0,1-.31-.71,1,1,0,0,1,1.7-.72l.22.21c.3.29.59.57.87.87h0a1,1,0,0,1-.07,1.41A1,1,0,0,1,542.47,377.19Z"/><path class="cls-1" d="M539.16,373.2a21.13,21.13,0,0,1,1.67,1.36A21.13,21.13,0,0,0,539.16,373.2Z"/><path d="M540.83,375.56a1,1,0,0,1-.67-.26A20.09,20.09,0,0,0,538.6,374h0l0,0a1,1,0,0,1-.41-.81,1,1,0,0,1,1.59-.8c.62.46,1.21.93,1.75,1.42h0a1,1,0,0,1,.08,1.42A1,1,0,0,1,540.83,375.56Z"/><path class="cls-1" d="M672.49,397.65a34.84,34.84,0,0,0-.59-6.92c-2.42-12.11-10.67-21-20.49-21H529a16.39,16.39,0,0,1,6.31,1.28l.24.12a16.9,16.9,0,0,1,1.71.84c.08,0,.15.1.22.14.56.33,1.11.67,1.63,1.05l.08.07a21.13,21.13,0,0,1,1.67,1.36,8.21,8.21,0,0,1,.59.59c.36.34.71.67,1.05,1l0,0c.51.57,1,1.17,1.49,1.8a.41.41,0,0,0,.07.11c.48.65.94,1.33,1.37,2a30.27,30.27,0,0,1,2,4c.06.14.13.27.19.42a36.16,36.16,0,0,1,2.56,13.54V527.9h0c0,15.69,9.51,28.4,21.23,28.4h0c11.72,0,21.23-12.71,21.23-28.4V475.41c0-15.69,9.5-28.41,21.23-28.41h58.61Z"/><path d="M571.42,557.3c-12.26,0-22.23-13.19-22.23-29.4V398.11A35.25,35.25,0,0,0,546.7,385a1.42,1.42,0,0,0-.08-.18l-.1-.23a30.11,30.11,0,0,0-2-3.85c-.41-.68-.85-1.34-1.31-2l-.07-.1a22.05,22.05,0,0,0-1.43-1.74l-.07-.09c-.2-.21-.47-.47-.73-.72l-.22-.22a3.19,3.19,0,0,1-.26-.26c-.1-.1-.2-.21-.31-.3a19,19,0,0,0-1.59-1.3l-.1-.07a15.65,15.65,0,0,0-1.52-1l-.16-.11a16.24,16.24,0,0,0-1.67-.83l-.18-.08a15.38,15.38,0,0,0-6-1.23,1,1,0,0,1,0-2H651.41c10.07,0,18.9,9,21.47,21.83a35.38,35.38,0,0,1,.61,7.12V447a1,1,0,0,1-1,1h-58.7c-11.07,0-20.14,12.3-20.14,27.41V527.9C593.65,544.11,583.68,557.3,571.42,557.3ZM537,370.7c.24.12.46.24.68.37a1,1,0,0,1,.19.12,19.65,19.65,0,0,1,1.76,1.13l.1.08a21.67,21.67,0,0,1,1.73,1.41l.4.4.44.43c.29.28.59.57.87.88l.07.09c.49.53,1,1.17,1.5,1.82l.07.1c.5.68,1,1.39,1.42,2.12a32.22,32.22,0,0,1,2.09,4.11l.07.15c0,.09.09.18.13.28a37.42,37.42,0,0,1,2.63,13.92V527.9a32.68,32.68,0,0,0,6,19.49c3.82,5.1,8.86,7.91,14.21,7.91,11.15,0,20.23-12.29,20.23-27.4V475.41c0-16.21,10-29.41,22.23-29.41h57.61V397.65a33.62,33.62,0,0,0-.57-6.72c-2.39-11.91-10.41-20.23-19.51-20.23Z"/><path d="M635.11,475.41a34.62,34.62,0,0,0-4.78-17.94c-.23-.37-.48-.72-.72-1.08a25.88,25.88,0,0,0-2.23-2.9c-.14-.16-.3-.3-.45-.45-.39-.41-.77-.81-1.18-1.18a19.59,19.59,0,0,0-1.68-1.36l-.07-.07c-.38-.27-.79-.51-1.18-.76-.23-.14-.45-.3-.68-.43s-.72-.36-1.09-.54-.56-.3-.86-.42c-.51-.21-1-.38-1.57-.54-.16-.05-.31-.12-.46-.16a16.24,16.24,0,0,0-4.24-.57h0c-11.73,0-21.23,12.72-21.23,28.41V527.9c0,15.69-9.51,28.4-21.23,28.4h63.69V475.41Z"/><path d="M635.11,557.3H571.42a1,1,0,1,1,0-2c11.15,0,20.23-12.29,20.23-27.4V475.41c0-16.21,10-29.41,22.23-29.41H614a16.94,16.94,0,0,1,4.42.61l.34.11.15,0c.56.18,1.12.35,1.67.58.21.09.42.19.62.3l.59.29a8.22,8.22,0,0,1,.84.42,4.66,4.66,0,0,1,.47.3l.25.15.24.16c.34.2.67.41,1,.65l.1.07c.6.45,1.19.93,1.73,1.41s.79.77,1.17,1.17l.23.24a2.13,2.13,0,0,1,.3.3,25.77,25.77,0,0,1,2.32,3l.18.27c.19.28.39.56.56.85a35.81,35.81,0,0,1,4.93,18.46V556.3A1,1,0,0,1,635.11,557.3Zm-55.63-2h54.63V475.41A33.91,33.91,0,0,0,629.48,458c-.16-.26-.34-.51-.51-.76l-.19-.28a24,24,0,0,0-2.14-2.79l-.2-.2c-.08-.08-.16-.15-.23-.23-.42-.43-.77-.8-1.13-1.13s-1-.88-1.6-1.3l-.09-.07c-.26-.19-.55-.37-.85-.55l-.25-.16-.3-.2-.34-.21c-.23-.13-.46-.24-.7-.35l-.66-.32a5.24,5.24,0,0,0-.48-.23,13,13,0,0,0-1.49-.51l-.26-.09a.49.49,0,0,0-.17-.06,14.79,14.79,0,0,0-4-.54h-.12c-11.08,0-20.15,12.3-20.15,27.41V527.9C593.65,540.35,587.76,551,579.48,555.3Z"/><path class="cls-1" d="M618.62,447.74c.53.16,1.06.33,1.57.54C619.68,448.07,619.15,447.9,618.62,447.74Z"/><path d="M620.19,449.28a1,1,0,0,1-.38-.07,13,13,0,0,0-1.49-.51,1,1,0,0,1-.7-1,1,1,0,0,1,0-.29,1,1,0,0,1,1.25-.67c.56.18,1.12.35,1.67.58a1,1,0,0,1,.61.92.91.91,0,0,1-.08.39A1,1,0,0,1,620.19,449.28Z"/><path class="cls-1" d="M629.61,456.39c.24.36.49.71.72,1.08C630.1,457.1,629.85,456.75,629.61,456.39Z"/><path d="M630.33,458.47a1,1,0,0,1-.85-.48h0c-.16-.26-.34-.51-.51-.76l-.19-.28a1,1,0,0,1-.17-.56,1,1,0,0,1,.44-.83,1,1,0,0,1,1.39.27l.18.27c.19.27.38.55.56.84h0a1,1,0,0,1-.33,1.37A1,1,0,0,1,630.33,458.47Z"/><path class="cls-1" d="M613.92,447a16.24,16.24,0,0,1,4.24.57A16.24,16.24,0,0,0,613.92,447Z"/><path d="M618.16,448.58l-.27,0a14.79,14.79,0,0,0-4-.54,1,1,0,0,1-1-1h0a1,1,0,0,1,1-1h0a17.07,17.07,0,0,1,4.5.61,1,1,0,0,1,.74,1,.84.84,0,0,1,0,.27A1,1,0,0,1,618.16,448.58Z"/><path class="cls-1" d="M622.82,449.67c.39.25.8.49,1.18.76C623.62,450.16,623.21,449.92,622.82,449.67Z"/><path d="M624,451.43a1,1,0,0,1-.59-.19h0q-.42-.28-.84-.54l-.27-.17a1,1,0,1,1,1.06-1.7l.24.16c.34.2.67.41,1,.65a1,1,0,0,1-.59,1.8Z"/><path class="cls-1" d="M624.07,450.5a19.59,19.59,0,0,1,1.68,1.36A19.59,19.59,0,0,0,624.07,450.5Z"/><path d="M625.75,452.86a1,1,0,0,1-.67-.26c-.49-.44-1-.87-1.57-1.28h0l0,0a1,1,0,0,1-.41-.8,1,1,0,0,1,.2-.6,1,1,0,0,1,1.4-.21c.62.46,1.2.93,1.74,1.42h0a1,1,0,0,1,.07,1.42A1,1,0,0,1,625.75,452.86Z"/><path class="cls-1" d="M621.05,448.7c.37.18.74.34,1.09.54C621.79,449,621.42,448.88,621.05,448.7Z"/><path d="M622.14,450.24a1,1,0,0,1-.49-.13c-.23-.13-.46-.24-.7-.35l-.33-.15a1,1,0,0,1-.57-.91,1.12,1.12,0,0,1,.1-.43,1,1,0,0,1,1.34-.47l.3.15a8.22,8.22,0,0,1,.84.42,1,1,0,0,1,.51.87,1,1,0,0,1-1,1Z"/><path class="cls-1" d="M626.93,453c.15.15.31.29.45.45C627.24,453.33,627.08,453.19,626.93,453Z"/><path d="M627.38,454.49a1,1,0,0,1-.74-.33l-.2-.2c-.08-.08-.16-.15-.23-.23a1,1,0,0,1,1.44-1.38l.17.16.3.31a1,1,0,0,1,.26.67,1,1,0,0,1-.33.74A1,1,0,0,1,627.38,454.49Z"/><path class="cls-1" d="M635.11,605.2h0c0,15.69,9.5,28.4,21.22,28.4h0C644.61,633.6,635.11,620.89,635.11,605.2Z"/><path d="M656.34,634.6h0c-12.17,0-22.09-13-22.22-29.08v-.32a1,1,0,0,1,2,0v.26c.1,15,9.14,27.14,20.23,27.14a1,1,0,0,1,0,2Z"/><path class="cls-1" d="M736.32,447H613.92a16.24,16.24,0,0,1,4.24.57c.15,0,.3.11.46.16.53.16,1.06.33,1.57.54.3.12.58.29.86.42s.74.34,1.09.54.45.29.68.43c.39.25.8.49,1.18.76l.07.07a19.59,19.59,0,0,1,1.68,1.36c.41.37.79.77,1.18,1.18.15.15.31.29.45.45a25.88,25.88,0,0,1,2.23,2.9c.24.36.49.71.72,1.08a34.62,34.62,0,0,1,4.78,17.94h0V605.2c0,15.69,9.5,28.4,21.22,28.4s21.23-12.71,21.23-28.4V592.09H757.4V475a35.6,35.6,0,0,0-.58-6.92C754.39,455.92,746.14,447,736.32,447Z"/><path d="M656.34,634.6c-12.26,0-22.23-13.19-22.23-29.4V475.41A33.91,33.91,0,0,0,629.48,458c-.16-.26-.34-.51-.51-.76l-.19-.28a24,24,0,0,0-2.14-2.79l-.21-.21c-.07-.07-.15-.14-.22-.22-.42-.43-.77-.8-1.13-1.13a19.22,19.22,0,0,0-1.6-1.3l-.09-.07c-.26-.19-.55-.37-.83-.54l-.27-.17-.31-.2-.33-.21c-.23-.13-.46-.24-.7-.35l-.33-.15-.34-.18a5,5,0,0,0-.47-.22,14.33,14.33,0,0,0-1.48-.51l-.27-.09a.49.49,0,0,0-.17-.06,14.79,14.79,0,0,0-4-.54h-.14a1,1,0,0,1-.94-1,1,1,0,0,1,1-1H736.32c10.07,0,18.9,9,21.48,21.83a36.19,36.19,0,0,1,.6,7.12V592.09a1,1,0,0,1-1,1H678.56V605.2C678.56,621.41,668.59,634.6,656.34,634.6ZM621.92,448c.24.12.48.23.71.37l.47.29.25.16.25.16c.34.21.67.41,1,.65l.1.07c.6.45,1.19.92,1.73,1.41s.79.77,1.17,1.17l.23.23.3.31a26.91,26.91,0,0,1,2.32,3l.18.27c.19.28.39.56.56.85a35.83,35.83,0,0,1,4.93,18.46V605.2c0,15.11,9.07,27.4,20.23,27.4s20.22-12.29,20.22-27.4V592.09a1,1,0,0,1,1-1H756.4V475a34.45,34.45,0,0,0-.56-6.72C753.45,456.32,745.43,448,736.32,448Z"/><path d="M757.4,592.09H677.56V605.2c0,15.69-9.5,28.4-21.23,28.4h122.3c11.27,0,20.46-11.74,21.16-26.57h.07V592.09Z"/><path d="M778.63,634.6H656.34a1,1,0,0,1,0-2c11.15,0,20.22-12.29,20.22-27.4V592.09a1,1,0,0,1,1-1h122.3a1,1,0,0,1,1,1V607a1,1,0,0,1-.09.41C799.9,622.7,790.23,634.6,778.63,634.6Zm-114.24-2H778.63c10.62,0,19.48-11.25,20.16-25.62a1.14,1.14,0,0,1,.07-.32V593.09H678.56V605.2C678.56,617.65,672.68,628.33,664.39,632.6Z"/><path class="cls-2" d="M654.38,433.59a1,1,0,0,1,1-1h0a1,1,0,0,1,1,1h0a1,1,0,0,1-1,1h0A1,1,0,0,1,654.38,433.59Zm-2,0a1,1,0,0,1,1-1h0a1,1,0,0,1,1,1h0a1,1,0,0,1-1,1h0A1,1,0,0,1,652.38,433.59Zm-2,0a1,1,0,0,1,1-1h0a1,1,0,0,1,1,1h0a1,1,0,0,1-1,1h0A1,1,0,0,1,650.38,433.59Zm-2,0a1,1,0,0,1,1-1h0a1,1,0,0,1,1,1h0a1,1,0,0,1-1,1h0A1,1,0,0,1,648.38,433.59Zm-2,0a1,1,0,0,1,1-1h0a1,1,0,0,1,1,1h0a1,1,0,0,1-1,1h0A1,1,0,0,1,646.38,433.59Zm-2,0a1,1,0,0,1,1-1h0a1,1,0,0,1,1,1h0a1,1,0,0,1-1,1h0A1,1,0,0,1,644.38,433.59Zm-2,0a1,1,0,0,1,1-1h0a1,1,0,0,1,1,1h0a1,1,0,0,1-1,1h0A1,1,0,0,1,642.38,433.59Zm-2,0a1,1,0,0,1,1-1h0a1,1,0,0,1,1,1h0a1,1,0,0,1-1,1h0A1,1,0,0,1,640.38,433.59Zm-2,0a1,1,0,0,1,1-1h0a1,1,0,0,1,1,1h0a1,1,0,0,1-1,1h0A1,1,0,0,1,638.38,433.59Zm-2,0a1,1,0,0,1,1-1h0a1,1,0,0,1,1,1h0a1,1,0,0,1-1,1h0A1,1,0,0,1,636.38,433.59Zm-2,0a1,1,0,0,1,1-1h0a1,1,0,0,1,1,1h0a1,1,0,0,1-1,1h0A1,1,0,0,1,634.38,433.59Zm-2,0a1,1,0,0,1,1-1h0a1,1,0,0,1,1,1h0a1,1,0,0,1-1,1h0A1,1,0,0,1,632.38,433.59Zm-2,0a1,1,0,0,1,1-1h0a1,1,0,0,1,1,1h0a1,1,0,0,1-1,1h0A1,1,0,0,1,630.38,433.59Zm-2,0a1,1,0,0,1,1-1h0a1,1,0,0,1,1,1h0a1,1,0,0,1-1,1h0A1,1,0,0,1,628.38,433.59Zm-2,0a1,1,0,0,1,1-1h0a1,1,0,0,1,1,1h0a1,1,0,0,1-1,1h0A1,1,0,0,1,626.38,433.59Zm-2,0a1,1,0,0,1,1-1h0a1,1,0,0,1,1,1h0a1,1,0,0,1-1,1h0A1,1,0,0,1,624.38,433.59Zm-2,0a1,1,0,0,1,1-1h0a1,1,0,0,1,1,1h0a1,1,0,0,1-1,1h0A1,1,0,0,1,622.38,433.59Zm-2,0a1,1,0,0,1,1-1h0a1,1,0,0,1,1,1h0a1,1,0,0,1-1,1h0A1,1,0,0,1,620.38,433.59Zm-2,0a1,1,0,0,1,1-1h0a1,1,0,0,1,1,1h0a1,1,0,0,1-1,1h0A1,1,0,0,1,618.38,433.59Zm-2,0a1,1,0,0,1,1-1h0a1,1,0,0,1,1,1h0a1,1,0,0,1-1,1h0A1,1,0,0,1,616.38,433.59Zm-2,0a1,1,0,0,1,1-1h0a1,1,0,0,1,1,1h0a1,1,0,0,1-1,1h0A1,1,0,0,1,614.38,433.59Zm-2,0a1,1,0,0,1,1-1h0a1,1,0,0,1,1,1h0a1,1,0,0,1-1,1h0A1,1,0,0,1,612.38,433.59Zm-2,0a1,1,0,0,1,1-1h0a1,1,0,0,1,1,1h0a1,1,0,0,1-1,1h0A1,1,0,0,1,610.38,433.59Zm-2,0a1,1,0,0,1,1-1h0a1,1,0,0,1,1,1h0a1,1,0,0,1-1,1h0A1,1,0,0,1,608.38,433.59Zm-2,0a1,1,0,0,1,1-1h0a1,1,0,0,1,1,1h0a1,1,0,0,1-1,1h0A1,1,0,0,1,606.38,433.59Zm-2,0a1,1,0,0,1,1-1h0a1,1,0,0,1,1,1h0a1,1,0,0,1-1,1h0A1,1,0,0,1,604.38,433.59Zm-2,0a1,1,0,0,1,1-1h0a1,1,0,0,1,1,1h0a1,1,0,0,1-1,1h0A1,1,0,0,1,602.38,433.59Zm-2,0a1,1,0,0,1,1-1h0a1,1,0,0,1,1,1h0a1,1,0,0,1-1,1h0A1,1,0,0,1,600.38,433.59Zm-2,0a1,1,0,0,1,1-1h0a1,1,0,0,1,1,1h0a1,1,0,0,1-1,1h0A1,1,0,0,1,598.38,433.59Zm-2,0a1,1,0,0,1,1-1h0a1,1,0,0,1,1,1h0a1,1,0,0,1-1,1h0A1,1,0,0,1,596.38,433.59Zm-2,0a1,1,0,0,1,1-1h0a1,1,0,0,1,1,1h0a1,1,0,0,1-1,1h0A1,1,0,0,1,594.38,433.59Zm-2,0a1,1,0,0,1,1-1h0a1,1,0,0,1,1,1h0a1,1,0,0,1-1,1h0A1,1,0,0,1,592.38,433.59Zm-2,0a1,1,0,0,1,1-1h0a1,1,0,0,1,1,1h0a1,1,0,0,1-1,1h0A1,1,0,0,1,590.38,433.59Zm-2,0a1,1,0,0,1,1-1h0a1,1,0,0,1,1,1h0a1,1,0,0,1-1,1h0A1,1,0,0,1,588.38,433.59Zm-2,0a1,1,0,0,1,1-1h0a1,1,0,0,1,1,1h0a1,1,0,0,1-1,1h0A1,1,0,0,1,586.38,433.59Zm-2,0a1,1,0,0,1,1-1h0a1,1,0,0,1,1,1h0a1,1,0,0,1-1,1h0A1,1,0,0,1,584.38,433.59Zm-2,0a1,1,0,0,1,1-1h0a1,1,0,0,1,1,1h0a1,1,0,0,1-1,1h0A1,1,0,0,1,582.38,433.59Zm-2,0a1,1,0,0,1,1-1h0a1,1,0,0,1,1,1h0a1,1,0,0,1-1,1h0A1,1,0,0,1,580.38,433.59Zm-2,0a1,1,0,0,1,1-1h0a1,1,0,0,1,1,1h0a1,1,0,0,1-1,1h0A1,1,0,0,1,578.38,433.59Zm-2,0a1,1,0,0,1,1-1h0a1,1,0,0,1,1,1h0a1,1,0,0,1-1,1h0A1,1,0,0,1,576.38,433.59Zm-2,0a1,1,0,0,1,1-1h0a1,1,0,0,1,1,1h0a1,1,0,0,1-1,1h0A1,1,0,0,1,574.38,433.59Zm-2,0a1,1,0,0,1,1-1h0a1,1,0,0,1,1,1h0a1,1,0,0,1-1,1h0A1,1,0,0,1,572.38,433.59Zm-2,0a1,1,0,0,1,1-1h0a1,1,0,0,1,1,1h0a1,1,0,0,1-1,1h0A1,1,0,0,1,570.38,433.59Zm-2,0a1,1,0,0,1,1-1h0a1,1,0,0,1,1,1h0a1,1,0,0,1-1,1h0A1,1,0,0,1,568.38,433.59Zm-2,0a1,1,0,0,1,1-1h0a1,1,0,0,1,1,1h0a1,1,0,0,1-1,1h0A1,1,0,0,1,566.38,433.59Zm-2,0a1,1,0,0,1,1-1h0a1,1,0,0,1,1,1h0a1,1,0,0,1-1,1h0A1,1,0,0,1,564.38,433.59Zm-2,0a1,1,0,0,1-1,1h0a1,1,0,0,1-1-1h0a1,1,0,0,1,1-1h0a1,1,0,0,1,1,1h0a1,1,0,0,1,1-1h0a1,1,0,0,1,1,1h0a1,1,0,0,1-1,1h0A1,1,0,0,1,562.38,433.63Z"/><path class="cls-5" d="M626.86,420.75H590.05a1,1,0,0,1,0-2h36.81a1,1,0,1,1,0,2Z"/><path class="cls-5" d="M626.86,402.47H590.05a1,1,0,0,1,0-2h36.81a1,1,0,0,1,0,2Z"/><path class="cls-5" d="M637.28,411.81H579.63a1,1,0,0,1,0-2h57.65a1,1,0,0,1,0,2Z"/><path class="cls-5" d="M572,515.49H561.38a1,1,0,1,1,0-2H572a1,1,0,0,1,0,2Z"/><path class="cls-2" d="M582.38,505.72h-21a1,1,0,1,1,0-2h21a1,1,0,0,1,0,2Z"/><path class="cls-2" d="M570.47,496h-9.09a1,1,0,0,1,0-2h9.09a1,1,0,0,1,0,2Z"/><path class="cls-2" d="M579.4,486.17h-18a1,1,0,0,1,0-2h18a1,1,0,0,1,0,2Z"/><path class="cls-2" d="M573.45,476.4H561.38a1,1,0,0,1,0-2h12.07a1,1,0,0,1,0,2Z"/><path class="cls-2" d="M570.47,466.63h-9.09a1,1,0,0,1,0-2h9.09a1,1,0,0,1,0,2Z"/><path class="cls-2" d="M577.92,456.86H561.38a1,1,0,0,1,0-2h16.54a1,1,0,0,1,0,2Z"/><path class="cls-2" d="M573.45,447.09H561.38a1,1,0,0,1,0-2h12.07a1,1,0,0,1,0,2Z"/><path class="cls-2" d="M742.18,503.75a1,1,0,0,1,1-1h0a1,1,0,0,1,1,1h0a1,1,0,0,1-1,1h0A1,1,0,0,1,742.18,503.75Zm-2,0a1,1,0,0,1,1-1h0a1,1,0,0,1,1,1h0a1,1,0,0,1-1,1h0A1,1,0,0,1,740.18,503.75Zm-2,0a1,1,0,0,1,1-1h0a1,1,0,0,1,1,1h0a1,1,0,0,1-1,1h0A1,1,0,0,1,738.18,503.75Zm-2,0a1,1,0,0,1,1-1h0a1,1,0,0,1,1,1h0a1,1,0,0,1-1,1h0A1,1,0,0,1,736.18,503.75Zm-2,0a1,1,0,0,1,1-1h0a1,1,0,0,1,1,1h0a1,1,0,0,1-1,1h0A1,1,0,0,1,734.18,503.75Zm-2,0a1,1,0,0,1,1-1h0a1,1,0,0,1,1,1h0a1,1,0,0,1-1,1h0A1,1,0,0,1,732.18,503.75Zm-2,0a1,1,0,0,1,1-1h0a1,1,0,0,1,1,1h0a1,1,0,0,1-1,1h0A1,1,0,0,1,730.18,503.75Zm-2,0a1,1,0,0,1,1-1h0a1,1,0,0,1,1,1h0a1,1,0,0,1-1,1h0A1,1,0,0,1,728.18,503.75Zm-2,0a1,1,0,0,1,1-1h0a1,1,0,0,1,1,1h0a1,1,0,0,1-1,1h0A1,1,0,0,1,726.18,503.75Zm-2,0a1,1,0,0,1,1-1h0a1,1,0,0,1,1,1h0a1,1,0,0,1-1,1h0A1,1,0,0,1,724.18,503.75Zm-2,0a1,1,0,0,1,1-1h0a1,1,0,0,1,1,1h0a1,1,0,0,1-1,1h0A1,1,0,0,1,722.18,503.75Zm-2,0a1,1,0,0,1,1-1h0a1,1,0,0,1,1,1h0a1,1,0,0,1-1,1h0A1,1,0,0,1,720.18,503.75Zm-2,0a1,1,0,0,1,1-1h0a1,1,0,0,1,1,1h0a1,1,0,0,1-1,1h0A1,1,0,0,1,718.18,503.75Zm-2,0a1,1,0,0,1,1-1h0a1,1,0,0,1,1,1h0a1,1,0,0,1-1,1h0A1,1,0,0,1,716.18,503.75Zm-2,0a1,1,0,0,1,1-1h0a1,1,0,0,1,1,1h0a1,1,0,0,1-1,1h0A1,1,0,0,1,714.18,503.75Zm-2,0a1,1,0,0,1,1-1h0a1,1,0,0,1,1,1h0a1,1,0,0,1-1,1h0A1,1,0,0,1,712.18,503.75Zm-2,0a1,1,0,0,1,1-1h0a1,1,0,0,1,1,1h0a1,1,0,0,1-1,1h0A1,1,0,0,1,710.18,503.75Zm-2,0a1,1,0,0,1,1-1h0a1,1,0,0,1,1,1h0a1,1,0,0,1-1,1h0A1,1,0,0,1,708.18,503.75Zm-2,0a1,1,0,0,1,1-1h0a1,1,0,0,1,1,1h0a1,1,0,0,1-1,1h0A1,1,0,0,1,706.18,503.75Zm-2,0a1,1,0,0,1,1-1h0a1,1,0,0,1,1,1h0a1,1,0,0,1-1,1h0A1,1,0,0,1,704.18,503.75Zm-2,0a1,1,0,0,1,1-1h0a1,1,0,0,1,1,1h0a1,1,0,0,1-1,1h0A1,1,0,0,1,702.18,503.75Zm-2,0a1,1,0,0,1,1-1h0a1,1,0,0,1,1,1h0a1,1,0,0,1-1,1h0A1,1,0,0,1,700.18,503.75Zm-2,0a1,1,0,0,1,1-1h0a1,1,0,0,1,1,1h0a1,1,0,0,1-1,1h0A1,1,0,0,1,698.18,503.75Zm-2,0a1,1,0,0,1,1-1h0a1,1,0,0,1,1,1h0a1,1,0,0,1-1,1h0A1,1,0,0,1,696.18,503.75Zm-2,0a1,1,0,0,1,1-1h0a1,1,0,0,1,1,1h0a1,1,0,0,1-1,1h0A1,1,0,0,1,694.18,503.75Zm-2,0a1,1,0,0,1,1-1h0a1,1,0,0,1,1,1h0a1,1,0,0,1-1,1h0A1,1,0,0,1,692.18,503.75Zm-2,0a1,1,0,0,1,1-1h0a1,1,0,0,1,1,1h0a1,1,0,0,1-1,1h0A1,1,0,0,1,690.18,503.75Zm-2,0a1,1,0,0,1,1-1h0a1,1,0,0,1,1,1h0a1,1,0,0,1-1,1h0A1,1,0,0,1,688.18,503.75Zm-2,0a1,1,0,0,1,1-1h0a1,1,0,0,1,1,1h0a1,1,0,0,1-1,1h0A1,1,0,0,1,686.18,503.75Zm-2,0a1,1,0,0,1,1-1h0a1,1,0,0,1,1,1h0a1,1,0,0,1-1,1h0A1,1,0,0,1,684.18,503.75Zm-2,0a1,1,0,0,1,1-1h0a1,1,0,0,1,1,1h0a1,1,0,0,1-1,1h0A1,1,0,0,1,682.18,503.75Zm-2,0a1,1,0,0,1,1-1h0a1,1,0,0,1,1,1h0a1,1,0,0,1-1,1h0A1,1,0,0,1,680.18,503.75Zm-2,0a1,1,0,0,1,1-1h0a1,1,0,0,1,1,1h0a1,1,0,0,1-1,1h0A1,1,0,0,1,678.18,503.75Zm-2,0a1,1,0,0,1,1-1h0a1,1,0,0,1,1,1h0a1,1,0,0,1-1,1h0A1,1,0,0,1,676.18,503.75Zm-2,0a1,1,0,0,1,1-1h0a1,1,0,0,1,1,1h0a1,1,0,0,1-1,1h0A1,1,0,0,1,674.18,503.75Zm-2,0a1,1,0,0,1,1-1h0a1,1,0,0,1,1,1h0a1,1,0,0,1-1,1h0A1,1,0,0,1,672.18,503.75Zm-2,0a1,1,0,0,1,1-1h0a1,1,0,0,1,1,1h0a1,1,0,0,1-1,1h0A1,1,0,0,1,670.18,503.75Zm-2,0a1,1,0,0,1,1-1h0a1,1,0,0,1,1,1h0a1,1,0,0,1-1,1h0A1,1,0,0,1,668.18,503.75Zm-2,0a1,1,0,0,1,1-1h0a1,1,0,0,1,1,1h0a1,1,0,0,1-1,1h0A1,1,0,0,1,666.18,503.75Zm-2,0a1,1,0,0,1,1-1h0a1,1,0,0,1,1,1h0a1,1,0,0,1-1,1h0A1,1,0,0,1,664.18,503.75Zm-2,0a1,1,0,0,1,1-1h0a1,1,0,0,1,1,1h0a1,1,0,0,1-1,1h0A1,1,0,0,1,662.18,503.75Zm-2,0a1,1,0,0,1,1-1h0a1,1,0,0,1,1,1h0a1,1,0,0,1-1,1h0A1,1,0,0,1,660.18,503.75Zm-2,0a1,1,0,0,1,1-1h0a1,1,0,0,1,1,1h0a1,1,0,0,1-1,1h0A1,1,0,0,1,658.18,503.75Zm-2,0a1,1,0,0,1,1-1h0a1,1,0,0,1,1,1h0a1,1,0,0,1-1,1h0A1,1,0,0,1,656.18,503.75Zm-2,0a1,1,0,0,1,1-1h0a1,1,0,0,1,1,1h0a1,1,0,0,1-1,1h0A1,1,0,0,1,654.18,503.75Zm-2,0a1,1,0,0,1,1-1h0a1,1,0,0,1,1,1h0a1,1,0,0,1-1,1h0A1,1,0,0,1,652.18,503.75Zm-2,0a1,1,0,0,1,1-1h0a1,1,0,0,1,1,1h0a1,1,0,0,1-1,1h0A1,1,0,0,1,650.18,503.75Zm-2,0a1,1,0,0,1,1-1h0a1,1,0,0,1,1,1h0a1,1,0,0,1-1,1h0A1,1,0,0,1,648.18,503.75Z"/><path class="cls-5" d="M714.66,490.9H677.85a1,1,0,0,1,0-2h36.81a1,1,0,0,1,0,2Z"/><path class="cls-5" d="M714.66,472.63H677.85a1,1,0,0,1,0-2h36.81a1,1,0,0,1,0,2Z"/><path class="cls-5" d="M725.08,482H667.43a1,1,0,0,1,0-2h57.65a1,1,0,1,1,0,2Z"/><path class="cls-2" d="M743.33,517.25H732.75a1,1,0,0,1,0-2h10.58a1,1,0,0,1,0,2Z"/><path class="cls-2" d="M743.33,527h-21a1,1,0,1,1,0-2h21a1,1,0,0,1,0,2Z"/><path class="cls-2" d="M743.33,536.79h-9.09a1,1,0,0,1,0-2h9.09a1,1,0,0,1,0,2Z"/><path class="cls-2" d="M743.33,546.56h-18a1,1,0,0,1,0-2h18a1,1,0,0,1,0,2Z"/><path class="cls-2" d="M743.33,556.33H731.26a1,1,0,0,1,0-2h12.07a1,1,0,0,1,0,2Z"/><path class="cls-2" d="M743.33,566.11h-9.09a1,1,0,0,1,0-2h9.09a1,1,0,0,1,0,2Z"/><path class="cls-2" d="M743.33,575.88H726.79a1,1,0,0,1,0-2h16.54a1,1,0,0,1,0,2Z"/><path class="cls-5" d="M743.33,585.65H731.26a1,1,0,0,1,0-2h12.07a1,1,0,0,1,0,2Z"/><path class="cls-5" d="M659.76,585.65H649.18a1,1,0,0,1,0-2h10.58a1,1,0,0,1,0,2Z"/><path class="cls-2" d="M670.18,575.88h-21a1,1,0,0,1,0-2h21a1,1,0,0,1,0,2Z"/><path class="cls-2" d="M658.27,566.11h-9.09a1,1,0,0,1,0-2h9.09a1,1,0,0,1,0,2Z"/><path class="cls-2" d="M667.21,556.33h-18a1,1,0,0,1,0-2h18a1,1,0,0,1,0,2Z"/><path class="cls-2" d="M661.25,546.56H649.18a1,1,0,1,1,0-2h12.07a1,1,0,0,1,0,2Z"/><path class="cls-2" d="M658.27,536.79h-9.09a1,1,0,1,1,0-2h9.09a1,1,0,0,1,0,2Z"/><path class="cls-2" d="M665.72,527H649.18a1,1,0,1,1,0-2h16.54a1,1,0,0,1,0,2Z"/><path class="cls-2" d="M661.25,517.25H649.18a1,1,0,1,1,0-2h12.07a1,1,0,0,1,0,2Z"/><path class="cls-6" d="M507.05,475.42a3.56,3.56,0,0,0-3-1l-2.15-2.16h-65a3.63,3.63,0,1,0,0,4.39h63.2l.87.87a3.57,3.57,0,0,0,1,3,3.63,3.63,0,0,0,5.13-5.13"/><path class="cls-6" d="M426.62,504.41h61.82a3.63,3.63,0,1,0,0-4.39h-60l-.87-.87a3.53,3.53,0,0,0-1-3,3.63,3.63,0,0,0-5.13,5.13,3.53,3.53,0,0,0,3,1Z"/><path class="cls-6" d="M431.13,486l-7.3-7.3V470.5l7.3-7.3h66.66a3.59,3.59,0,0,0,2.87,1.44,3.63,3.63,0,0,0,0-7.26,3.59,3.59,0,0,0-2.87,1.44H429.32l-9.87,9.86v11.88l9.87,9.87,65-.12,7.3,7.3v8.87l-7.3,7.29H433.05a3.63,3.63,0,1,0,0,4.39h63.06l9.87-9.87v-12.5l-9.87-9.87Z"/><path class="cls-6" d="M444.64,437.29a3.61,3.61,0,0,0,2.87-1.43h31.63a3.63,3.63,0,1,0,0-4.39H447.51a3.62,3.62,0,1,0-2.87,5.82"/><path class="cls-6" d="M432.51,450.7a3.58,3.58,0,0,0,2.87-1.43h55.89a3.62,3.62,0,1,0,0-4.38H435.38a3.59,3.59,0,0,0-2.87-1.44,3.63,3.63,0,0,0,0,7.25"/><path class="cls-6" d="M489.31,525.68a3.62,3.62,0,0,0-2.87,1.44l-45.42,0a3.62,3.62,0,1,0,0,4.39l45.41,0a3.62,3.62,0,1,0,2.87-5.82"/><path class="cls-6" d="M477,539.07a3.61,3.61,0,0,0-2.88,1.43l-19.61,0a3.63,3.63,0,1,0,0,4.39l19.62,0a3.58,3.58,0,0,0,2.86,1.44,3.63,3.63,0,1,0,0-7.25"/><path d="M248.5,466.16c-3.95,0-7.16-1.25-7.16-2.78v53.54a7.16,7.16,0,1,0,14.32,0V463.38C255.66,464.91,252.46,466.16,248.5,466.16Z"/><path d="M248.5,525.08a8.17,8.17,0,0,1-8.16-8.16V463.38a1,1,0,0,1,2,0c0,.52,2.16,1.78,6.16,1.78s6.16-1.26,6.16-1.78a1,1,0,0,1,2,0v53.54A8.17,8.17,0,0,1,248.5,525.08Zm-6.16-59.14v51a6.16,6.16,0,1,0,12.32,0v-51C251.52,467.55,245.49,467.55,242.34,465.94Z"/><path d="M286.11,350.69a44.83,44.83,0,0,0-44.77,44.78v38.09s0,0,0-.06c.09,1.51,3.25,2.72,7.15,2.72s7.06-1.21,7.15-2.72c0,0,0,0,0,.06V395.47a30.46,30.46,0,0,1,60.91,0V507.38a7.16,7.16,0,1,0,14.32,0V395.47A44.83,44.83,0,0,0,286.11,350.69Z"/><path d="M323.73,515.55a8.17,8.17,0,0,1-8.16-8.17V395.47a29.46,29.46,0,0,0-58.91,0v38.09a1,1,0,0,1-.06.36c-.5,2.26-4.46,3.3-8.1,3.3s-7.59-1-8.09-3.3a.86.86,0,0,1-.07-.36V395.47a45.78,45.78,0,1,1,91.55,0V507.38A8.17,8.17,0,0,1,323.73,515.55ZM286.11,364a31.49,31.49,0,0,1,31.46,31.45V507.38a6.16,6.16,0,1,0,12.32,0V395.47a43.78,43.78,0,1,0-87.55,0v37.85a.53.53,0,0,1,0,.13c0,.51,2.22,1.77,6.15,1.77s6.12-1.26,6.15-1.77c0-.05,0-.09,0-.13V395.47A31.49,31.49,0,0,1,286.11,364Z"/><path d="M248.5,467.16c-4.65,0-8.16-2-8.16-4.69s3.51-4.69,8.16-4.69,8.16,2,8.16,4.69S253.15,467.16,248.5,467.16Zm0-7.38c-3.53,0-6.16,1.42-6.16,2.69s2.63,2.69,6.16,2.69,6.16-1.42,6.16-2.69S252,459.78,248.5,459.78Z"/><path class="cls-1" d="M213.14,505h146a0,0,0,0,1,0,0V611.8a8.83,8.83,0,0,1-8.83,8.83H222a8.83,8.83,0,0,1-8.83-8.83V505A0,0,0,0,1,213.14,505Z"/><path d="M350.27,621.63H222a9.84,9.84,0,0,1-9.82-9.83V505a1,1,0,0,1,1-1h146a1,1,0,0,1,1,1V611.8A9.84,9.84,0,0,1,350.27,621.63ZM214.14,506V611.8a7.83,7.83,0,0,0,7.82,7.83H350.27a7.83,7.83,0,0,0,7.82-7.83V506Z"/><path d="M359.09,599.37H213.14a1,1,0,0,1,0-2h146a1,1,0,1,1,0,2Z"/><path d="M304.54,577.23l-12.25-21a12.62,12.62,0,1,0-12.35,0l-12.25,21Z"/><path d="M304.54,578.23H267.69a1,1,0,0,1-.87-.51,1,1,0,0,1,0-1l11.76-20.12a13.62,13.62,0,1,1,15.07,0l11.76,20.12a1,1,0,0,1,0,1A1,1,0,0,1,304.54,578.23Zm-35.11-2H302.8l-11.37-19.46a1,1,0,0,1-.11-.77,1,1,0,0,1,.48-.61,11.62,11.62,0,1,0-11.37,0,1,1,0,0,1,.48.61,1,1,0,0,1-.11.77Z"/><circle class="cls-7" cx="262.29" cy="290.75" r="2.47"/><path class="cls-7" d="M262.29,294.22a3.48,3.48,0,1,1,3.47-3.47A3.48,3.48,0,0,1,262.29,294.22Zm0-5a1.48,1.48,0,1,0,1.47,1.48A1.48,1.48,0,0,0,262.29,289.27Z"/><path class="cls-7" d="M232.59,321.72a1,1,0,0,1-1-1v-60a1,1,0,0,1,2,0v60A1,1,0,0,1,232.59,321.72Z"/><path class="cls-7" d="M262.56,291.75H202.61a1,1,0,0,1,0-2h59.95a1,1,0,0,1,0,2Z"/><circle class="cls-7" cx="232.59" cy="260.77" r="2.47"/><path class="cls-7" d="M232.59,264.25a3.48,3.48,0,1,1,3.47-3.48A3.48,3.48,0,0,1,232.59,264.25Zm0-4.95a1.48,1.48,0,1,0,1.47,1.47A1.47,1.47,0,0,0,232.59,259.3Z"/><circle class="cls-7" cx="232.93" cy="320.72" r="2.47"/><path class="cls-7" d="M232.93,324.19a3.47,3.47,0,1,1,3.48-3.47A3.47,3.47,0,0,1,232.93,324.19Zm0-4.94a1.47,1.47,0,1,0,1.48,1.47A1.47,1.47,0,0,0,232.93,319.25Z"/><circle class="cls-7" cx="202.61" cy="290.75" r="2.47"/><path class="cls-7" d="M202.61,294.22a3.48,3.48,0,1,1,3.48-3.47A3.48,3.48,0,0,1,202.61,294.22Zm0-5a1.48,1.48,0,1,0,1.48,1.48A1.47,1.47,0,0,0,202.61,289.27Z"/><path class="cls-7" d="M644.49,740.23a1,1,0,0,1-.75-.33,1,1,0,0,1,.08-1.42l41.92-37.78a1,1,0,1,1,1.34,1.48L645.16,740A1,1,0,0,1,644.49,740.23Z"/><circle class="cls-7" cx="686.41" cy="701.44" r="2.47"/><path class="cls-7" d="M686.41,704.91h-.18a3.47,3.47,0,0,1-2.4-1.15,3.42,3.42,0,0,1-.89-2.5,3.47,3.47,0,1,1,3.47,3.65Zm0-4.95a1.48,1.48,0,0,0-1,.38,1.47,1.47,0,1,0,1.06-.37h-.08Z"/><circle class="cls-7" cx="644.49" cy="739.23" r="2.47"/><path class="cls-7" d="M644.49,742.7h-.18a3.47,3.47,0,1,1,.36-6.93h0a3.4,3.4,0,0,1,2.4,1.14,3.47,3.47,0,0,1-2.58,5.8Zm0-5a1.48,1.48,0,0,0-.08,3,1.45,1.45,0,0,0,1.06-.38,1.46,1.46,0,0,0,.11-2.08,1.46,1.46,0,0,0-1-.49Z"/></g></svg>