<svg xmlns="http://www.w3.org/2000/svg" viewBox="0 0 1000 1000"><defs><style>.cls-1{fill:#fafafa;}.cls-2{fill:#ddd;}.cls-3{fill:#8b8b8b;}.cls-4{fill:#8042ff;}</style></defs><title>features_ico</title><g id="Warstwa_2" data-name="Warstwa 2"><path class="cls-1" d="M533.66,468.38V437.74H691.24a45,45,0,0,1,23.29,6.19c.48.3.94.62,1.4.94a33.09,33.09,0,0,1,3.76,2.89c.21.19.39.4.59.59.52.5,1.05,1,1.53,1.53a27.66,27.66,0,0,1,1.77,2.18.87.87,0,0,1,.08.1c.36.49.67,1,1,1.53.18.29.39.57.56.88s.47.93.7,1.41.38.74.54,1.12a20.49,20.49,0,0,1,.71,2c.06.2.15.39.2.6a21,21,0,0,1,.75,5.5V306.34c0-12.74-11.57-23.45-27.29-26.6a45.87,45.87,0,0,0-9-.76H533.66V248.33l-105.13,110Z"/><path d="M533.66,469.38a1,1,0,0,1-.72-.31l-105.13-110a1,1,0,0,1,0-1.38l105.13-110a1,1,0,0,1,1.09-.23,1,1,0,0,1,.63.92V278H691.83a46.54,46.54,0,0,1,9.19.78c16.54,3.32,28.09,14.66,28.09,27.58v159a1,1,0,1,1-2,0,20.7,20.7,0,0,0-.71-5.29l-.09-.24c0-.11-.08-.22-.11-.33a20.33,20.33,0,0,0-.67-1.95c-.09-.21-.2-.42-.3-.63l-.23-.44-.2-.43c-.14-.31-.29-.62-.46-.92s-.19-.31-.29-.46-.17-.26-.25-.39l-.21-.32c-.23-.39-.47-.77-.74-1.15a.39.39,0,0,1-.08-.1,25.33,25.33,0,0,0-1.7-2.09c-.42-.46-.88-.91-1.37-1.38l-.11-.1a4,4,0,0,1-.29-.29c-.09-.09-.18-.19-.28-.28a32.47,32.47,0,0,0-3.65-2.8l-.36-.25c-.33-.23-.66-.45-1-.66a44.25,44.25,0,0,0-22.76-6.05H534.66v29.64a1,1,0,0,1-.63.93A.94.94,0,0,1,533.66,469.38Zm-103.75-111L532.66,465.89V437.74a1,1,0,0,1,1-1H691.24a46.3,46.3,0,0,1,23.81,6.34c.37.23.73.47,1.09.72l.35.24a35.22,35.22,0,0,1,3.87,3,4.54,4.54,0,0,1,.38.38l.23.23.11.1c.49.47,1,1,1.48,1.48.62.7,1.24,1.46,1.83,2.25l.08.11c.3.41.56.84.83,1.27l.2.32c.06.11.14.21.21.32s.26.39.37.59c.2.35.37.71.54,1.07l.19.4c.06.14.13.27.19.4a1.39,1.39,0,0,1,.11.21V306.34c0-11.95-10.89-22.49-26.49-25.62a44.79,44.79,0,0,0-8.79-.74H533.66a1,1,0,0,1-1-1V250.83Z"/><path class="cls-2" d="M652.09,418.41a1,1,0,0,1,1-1h0a1,1,0,0,1-1-1h0a1,1,0,0,1,1-1h0a1,1,0,0,1-1-1h0a1,1,0,0,1,1-1h0a1,1,0,0,1-1-1h0a1,1,0,0,1,1-1h0a1,1,0,0,1-1-1h0a1,1,0,0,1,1-1h0a1,1,0,0,1-1-1h0a1,1,0,0,1,1-1h0a1,1,0,0,1-1-1h0a1,1,0,0,1,1-1h0a1,1,0,0,1-1-1h0a1,1,0,0,1,1-1h0a1,1,0,0,1-1-1h0a1,1,0,0,1,1-1h0a1,1,0,0,1-1-1h0a1,1,0,0,1,1-1h0a1,1,0,0,1-1-1h0a1,1,0,0,1,1-1h0a1,1,0,0,1-1-1h0a1,1,0,0,1,1-1h0a1,1,0,0,1-1-1h0a1,1,0,0,1,1-1h0a1,1,0,0,1-1-1h0a1,1,0,0,1,1-1h0a1,1,0,0,1-1-1h0a1,1,0,0,1,1-1h0a1,1,0,0,1-1-1h0a1,1,0,0,1,1-1h0a1,1,0,0,1-1-1h0a1,1,0,0,1,1-1h0a1,1,0,0,1-1-1h0a1,1,0,0,1,1-1h0a1,1,0,0,1-1-1h0a1,1,0,0,1,1-1h0a1,1,0,0,1-1-1h0a1,1,0,0,1,1-1h0a1,1,0,0,1-1-1h0a1,1,0,0,1,1-1h0a1,1,0,0,1-1-1h0a1,1,0,0,1,1-1h0a1,1,0,0,1-1-1h0a1,1,0,0,1,1-1h0a1,1,0,0,1-1-1h0a1,1,0,0,1,1-1h0a1,1,0,0,1-1-1h0a1,1,0,0,1,1-1h0a1,1,0,0,1-1-1h0a1,1,0,0,1,1-1h0a1,1,0,0,1-1-1h0a1,1,0,0,1,1-1h0a1,1,0,0,1-1-1h0a1,1,0,0,1,1-1h0a1,1,0,0,1-1-1h0a1,1,0,0,1,1-1h0a1,1,0,0,1-1-1h0a1,1,0,0,1,1-1h0a1,1,0,0,1-1-1h0a1,1,0,0,1,1-1h0a1,1,0,0,1-1-1h0a1,1,0,0,1,1-1h0a1,1,0,0,1-1-1h0a1,1,0,0,1,1-1h0a1,1,0,0,1-1-1h0a1,1,0,0,1,1-1h0a1,1,0,0,1-1-1h0a1,1,0,0,1,1-1h0a1,1,0,0,1-1-1h0a1,1,0,0,1,1-1h0a1,1,0,0,1-1-1h0a1,1,0,0,1,1-1h0a1,1,0,0,1-1-1h0a1,1,0,0,1,1-1h0a1,1,0,0,1-1-1h0a1,1,0,0,1,1-1h0a1,1,0,0,1-1-1h0a1,1,0,0,1,1-1h0a1,1,0,0,1-1-1h0a1,1,0,0,1,1-1h0a1,1,0,0,1-1-1h0a1,1,0,0,1,1-1h0a1,1,0,0,1-1-1h0a1,1,0,0,1,1-1h0a1,1,0,0,1-1-1h0a1,1,0,0,1,1-1h0a1,1,0,0,1-1-1h0a1,1,0,0,1,1-1h0a1,1,0,0,1-1-1h0a1,1,0,0,1,1-1h0a1,1,0,0,1-1-1h0a1,1,0,0,1,1-1h0a1,1,0,0,1-1-1h0a1,1,0,0,1,1-1h0a1,1,0,0,1-1-1h0a1,1,0,0,1,1-1h0a1,1,0,0,1-1-1h0a1,1,0,0,1,1-1h0a1,1,0,0,1-1-1h0a1,1,0,0,1,1-1h0a1,1,0,0,1-1-1h0a1,1,0,0,1,1-1h0a1,1,0,0,1-1-1h0a1,1,0,0,1,1-1h0a1,1,0,0,1-1-1h0a1,1,0,0,1,1-1h0a1,1,0,0,1-1-1h0a1,1,0,0,1,1-1h0a1,1,0,0,1-1-1h0a1,1,0,0,1,1-1h0a1,1,0,0,1-1-1h0a1,1,0,0,1,1-1h0a1,1,0,0,1-1-1h0a1,1,0,0,1,1-1h0a1,1,0,0,1-1-1h0a1,1,0,0,1,1-1h0a1,1,0,0,1-1-1h0a1,1,0,0,1,1-1h0a1,1,0,0,1-1-1h0a1,1,0,0,1,1-1h0a1,1,0,0,1,1,1h0a1,1,0,0,1-1,1h0a1,1,0,0,1,1,1h0a1,1,0,0,1-1,1h0a1,1,0,0,1,1,1h0a1,1,0,0,1-1,1h0a1,1,0,0,1,1,1h0a1,1,0,0,1-1,1h0a1,1,0,0,1,1,1h0a1,1,0,0,1-1,1h0a1,1,0,0,1,1,1h0a1,1,0,0,1-1,1h0a1,1,0,0,1,1,1h0a1,1,0,0,1-1,1h0a1,1,0,0,1,1,1h0a1,1,0,0,1-1,1h0a1,1,0,0,1,1,1h0a1,1,0,0,1-1,1h0a1,1,0,0,1,1,1h0a1,1,0,0,1-1,1h0a1,1,0,0,1,1,1h0a1,1,0,0,1-1,1h0a1,1,0,0,1,1,1h0a1,1,0,0,1-1,1h0a1,1,0,0,1,1,1h0a1,1,0,0,1-1,1h0a1,1,0,0,1,1,1h0a1,1,0,0,1-1,1h0a1,1,0,0,1,1,1h0a1,1,0,0,1-1,1h0a1,1,0,0,1,1,1h0a1,1,0,0,1-1,1h0a1,1,0,0,1,1,1h0a1,1,0,0,1-1,1h0a1,1,0,0,1,1,1h0a1,1,0,0,1-1,1h0a1,1,0,0,1,1,1h0a1,1,0,0,1-1,1h0a1,1,0,0,1,1,1h0a1,1,0,0,1-1,1h0a1,1,0,0,1,1,1h0a1,1,0,0,1-1,1h0a1,1,0,0,1,1,1h0a1,1,0,0,1-1,1h0a1,1,0,0,1,1,1h0a1,1,0,0,1-1,1h0a1,1,0,0,1,1,1h0a1,1,0,0,1-1,1h0a1,1,0,0,1,1,1h0a1,1,0,0,1-1,1h0a1,1,0,0,1,1,1h0a1,1,0,0,1-1,1h0a1,1,0,0,1,1,1h0a1,1,0,0,1-1,1h0a1,1,0,0,1,1,1h0a1,1,0,0,1-1,1h0a1,1,0,0,1,1,1h0a1,1,0,0,1-1,1h0a1,1,0,0,1,1,1h0a1,1,0,0,1-1,1h0a1,1,0,0,1,1,1h0a1,1,0,0,1-1,1h0a1,1,0,0,1,1,1h0a1,1,0,0,1-1,1h0a1,1,0,0,1,1,1h0a1,1,0,0,1-1,1h0a1,1,0,0,1,1,1h0a1,1,0,0,1-1,1h0a1,1,0,0,1,1,1h0a1,1,0,0,1-1,1h0a1,1,0,0,1,1,1h0a1,1,0,0,1-1,1h0a1,1,0,0,1,1,1h0a1,1,0,0,1-1,1h0a1,1,0,0,1,1,1h0a1,1,0,0,1-1,1h0a1,1,0,0,1,1,1h0a1,1,0,0,1-1,1h0a1,1,0,0,1,1,1h0a1,1,0,0,1-1,1h0a1,1,0,0,1,1,1h0a1,1,0,0,1-1,1h0a1,1,0,0,1,1,1h0a1,1,0,0,1-1,1h0a1,1,0,0,1,1,1h0a1,1,0,0,1-1,1h0a1,1,0,0,1,1,1h0a1,1,0,0,1-1,1h0a1,1,0,0,1,1,1h0a1,1,0,0,1-1,1h0a1,1,0,0,1,1,1h0a1,1,0,0,1-1,1h0a1,1,0,0,1,1,1h0a1,1,0,0,1-1,1h0a1,1,0,0,1,1,1h0a1,1,0,0,1-1,1h0a1,1,0,0,1,1,1h0a1,1,0,0,1-1,1h0a1,1,0,0,1,1,1h0a1,1,0,0,1-1,1h0a1,1,0,0,1,1,1h0a1,1,0,0,1-1,1h0a1,1,0,0,1,1,1h0a1,1,0,0,1-1,1h0a1,1,0,0,1,1,1h0a1,1,0,0,1-1,1h0a1,1,0,0,1,1,1h0a1,1,0,0,1-1,1h0a1,1,0,0,1,1,1h0a1,1,0,0,1-1,1h0a1,1,0,0,1,1,1h0a1,1,0,0,1-1,1h0a1,1,0,0,1,1,1h0a1,1,0,0,1-1,1h0a1,1,0,0,1,1,1h0a1,1,0,0,1-1,1h0a1,1,0,0,1,1,1h0a1,1,0,0,1-1,1h0a1,1,0,0,1,1,1h0a1,1,0,0,1-1,1h0a1,1,0,0,1,1,1h0a1,1,0,0,1-1,1h0A1,1,0,0,1,652.09,418.41Z"/><path class="cls-1" d="M719.69,447.76a33.09,33.09,0,0,0-3.76-2.89A33.09,33.09,0,0,1,719.69,447.76Z"/><path d="M719.69,448.76a1,1,0,0,1-.67-.25,31.32,31.32,0,0,0-3.65-2.81,1,1,0,0,1-.44-.83,1,1,0,0,1,.17-.56,1,1,0,0,1,1.39-.27h0l.12.08a34.3,34.3,0,0,1,3.73,2.88h0a1,1,0,0,1-.67,1.74Z"/><path class="cls-1" d="M691.24,437.74h0a45,45,0,0,1,23.29,6.19,45,45,0,0,0-23.29-6.19Z"/><path d="M714.52,444.93a1,1,0,0,1-.52-.14,44.25,44.25,0,0,0-22.76-6.05,1,1,0,0,1,0-2,46.3,46.3,0,0,1,23.81,6.34,1,1,0,0,1,.48.85,1,1,0,0,1-.15.52A1,1,0,0,1,714.52,444.93Z"/><path class="cls-1" d="M726.45,457.1c-.16-.38-.36-.75-.55-1.12C726.09,456.35,726.29,456.72,726.45,457.1Z"/><path d="M726.45,458.1a1,1,0,0,1-.92-.62c-.09-.21-.2-.42-.3-.63l-.23-.44a1.11,1.11,0,0,1-.09-.43,1,1,0,0,1,.56-.9,1,1,0,0,1,1.34.46c.06.14.13.27.19.4a7.85,7.85,0,0,1,.38.77,1.07,1.07,0,0,1,.07.39,1,1,0,0,1-.61.92A1.09,1.09,0,0,1,726.45,458.1Z"/><path class="cls-1" d="M725.21,454.57c-.17-.31-.38-.59-.56-.88C724.83,454,725,454.26,725.21,454.57Z"/><path d="M725.21,455.57a1,1,0,0,1-.87-.51,4.43,4.43,0,0,0-.29-.46c-.08-.13-.17-.25-.25-.39a1,1,0,0,1,.32-1.37,1,1,0,0,1,1.38.32l.21.32c.13.2.26.39.37.59h0a1,1,0,0,1-.37,1.37A1.13,1.13,0,0,1,725.21,455.57Z"/><path class="cls-1" d="M727.36,459.74c-.05-.21-.14-.4-.2-.6C727.22,459.34,727.31,459.53,727.36,459.74Z"/><path d="M727.36,460.74a1,1,0,0,1-1-.74l-.09-.24c0-.11-.08-.22-.11-.33a.92.92,0,0,1,0-.29,1,1,0,0,1,2-.29l.08.21c0,.14.1.27.14.41a1.24,1.24,0,0,1,0,.27,1,1,0,0,1-.73,1A.84.84,0,0,1,727.36,460.74Z"/><path class="cls-1" d="M723.66,452.16a.87.87,0,0,0-.08-.1A.87.87,0,0,1,723.66,452.16Z"/><path d="M723.66,453.16a1,1,0,0,1-.8-.4l-.08-.11a1,1,0,0,1-.2-.59,1,1,0,0,1,.4-.81,1,1,0,0,1,1.4.21l.09.11a1,1,0,0,1,.19.59,1,1,0,0,1-.42.81A1,1,0,0,1,723.66,453.16Z"/><path class="cls-1" d="M721.81,449.88c-.48-.53-1-1-1.53-1.53C720.8,448.85,721.33,449.35,721.81,449.88Z"/><path d="M721.81,450.88a1,1,0,0,1-.74-.32h0c-.42-.47-.89-.92-1.38-1.39l-.1-.1a1,1,0,1,1,1.38-1.44l.1.09c.5.48,1,1,1.48,1.49h0a1,1,0,0,1-.07,1.42A1,1,0,0,1,721.81,450.88Z"/><path class="cls-1" d="M727.16,459.14a20.49,20.49,0,0,0-.71-2A20.49,20.49,0,0,1,727.16,459.14Z"/><path d="M727.16,460.14a1,1,0,0,1-1-.71,18.52,18.52,0,0,0-.67-1.95,1.08,1.08,0,0,1-.08-.38,1,1,0,0,1,1.93-.39,22.39,22.39,0,0,1,.73,2.14,1,1,0,0,1,0,.29,1,1,0,0,1-1,1Z"/><path class="cls-1" d="M715.93,444.87c-.47-.32-.92-.64-1.4-.94C715,444.23,715.47,444.55,715.93,444.87Z"/><path d="M715.93,445.87a1,1,0,0,1-.56-.17l-.37-.25c-.32-.23-.65-.45-1-.66a1,1,0,0,1-.47-.86,1,1,0,0,1,.14-.52,1,1,0,0,1,1.38-.33q.56.35,1.08.72l.36.24a1,1,0,0,1,.44.83,1,1,0,0,1-.17.56A1,1,0,0,1,715.93,445.87Z"/><path class="cls-1" d="M728.11,465.24a21,21,0,0,0-.75-5.5A21,21,0,0,1,728.11,465.24Z"/><path d="M728.11,466.24a1,1,0,0,1-1-1,20.56,20.56,0,0,0-.71-5.24.82.82,0,0,1,0-.26,1,1,0,0,1,.74-1,1,1,0,0,1,1.23.7,22.46,22.46,0,0,1,.78,5.76h0a1,1,0,0,1-1,1Z"/><path class="cls-1" d="M724.65,453.69c-.32-.52-.63-1-1-1.53C724,452.65,724.33,453.17,724.65,453.69Z"/><path d="M724.65,454.69a1,1,0,0,1-.85-.47l-.21-.33c-.23-.38-.46-.76-.73-1.13v0a1,1,0,0,1-.19-.58,1,1,0,0,1,.41-.81,1,1,0,0,1,1.4.22c.3.41.57.84.83,1.27l.2.32a1,1,0,0,1-.32,1.37A1,1,0,0,1,724.65,454.69Z"/><path class="cls-1" d="M723.58,452.06a27.66,27.66,0,0,0-1.77-2.18A27.66,27.66,0,0,1,723.58,452.06Z"/><path d="M723.58,453.06a1,1,0,0,1-.81-.41,25.5,25.5,0,0,0-1.7-2.1,1,1,0,0,1-.26-.67,1,1,0,0,1,.33-.74,1,1,0,0,1,1.42.07c.63.7,1.24,1.46,1.83,2.26a1,1,0,0,1,.19.59,1,1,0,0,1-.41.8A1,1,0,0,1,723.58,453.06Z"/><path class="cls-1" d="M725.9,456c-.22-.48-.43-1-.69-1.41C725.47,455,725.68,455.51,725.9,456Z"/><path d="M725.91,457a1,1,0,0,1-.91-.57l-.2-.43c-.14-.31-.29-.62-.46-.92a1.12,1.12,0,0,1-.13-.49,1,1,0,0,1,.51-.88,1,1,0,0,1,1.36.38c.2.35.37.71.53,1.06l.2.41a1.13,1.13,0,0,1,.1.44,1,1,0,0,1-.57.9A1,1,0,0,1,725.91,457Z"/><path class="cls-1" d="M720.28,448.35c-.2-.19-.38-.4-.59-.59C719.9,448,720.08,448.16,720.28,448.35Z"/><path d="M720.28,449.35a1,1,0,0,1-.69-.28h0l-.27-.28-.29-.28a1,1,0,0,1-.33-.75,1,1,0,0,1,.26-.67,1,1,0,0,1,1.41-.07l0,0,.37.36.22.23a1,1,0,0,1,0,1.41A1,1,0,0,1,720.28,449.35Z"/><path class="cls-1" d="M720,447.56a33.43,33.43,0,0,0-3.76-2.9A33.43,33.43,0,0,1,720,447.56Z"/><path d="M720,448.56a1.05,1.05,0,0,1-.68-.26,31.32,31.32,0,0,0-3.65-2.81,1,1,0,0,1,1.12-1.66,35.4,35.4,0,0,1,3.88,3,1,1,0,0,1,.07,1.41A1,1,0,0,1,720,448.56Z"/><path class="cls-1" d="M691.53,437.53h0a44.94,44.94,0,0,1,23.29,6.2,44.94,44.94,0,0,0-23.29-6.2Z"/><path d="M714.82,444.73a1,1,0,0,1-.52-.15l0,0a44.3,44.3,0,0,0-22.72-6,1,1,0,0,1,0-2,46.21,46.21,0,0,1,23.81,6.35,1,1,0,0,1,.33,1.37A1,1,0,0,1,714.82,444.73Z"/><path class="cls-1" d="M726.75,456.89c-.16-.38-.37-.74-.55-1.12C726.38,456.15,726.59,456.51,726.75,456.89Z"/><path d="M726.75,457.89a1,1,0,0,1-.93-.61,6.09,6.09,0,0,0-.3-.63c-.08-.15-.15-.3-.22-.45a.94.94,0,0,1-.1-.43,1,1,0,0,1,1.9-.43c.06.13.13.26.2.39s.26.51.37.78a1,1,0,0,1,.08.38,1,1,0,0,1-.62.93A1,1,0,0,1,726.75,457.89Z"/><path class="cls-1" d="M725.51,454.36c-.17-.3-.39-.58-.57-.88C725.12,453.78,725.34,454.06,725.51,454.36Z"/><path d="M725.51,455.36a1,1,0,0,1-.87-.51c-.09-.15-.19-.3-.3-.46l-.25-.38a1,1,0,0,1,.32-1.38,1,1,0,0,1,1.38.32l.21.33c.13.19.26.39.38.59a1.05,1.05,0,0,1,.13.49,1,1,0,0,1-1,1Z"/><path class="cls-1" d="M727.66,459.53c-.06-.2-.15-.39-.21-.59C727.51,459.14,727.6,459.33,727.66,459.53Z"/><path d="M727.65,460.53a1,1,0,0,1-1-.73,1.83,1.83,0,0,0-.08-.25l-.12-.32a1,1,0,0,1,1.92-.59c0,.08.05.15.07.22s.1.27.14.41a1.27,1.27,0,0,1,0,.26,1,1,0,0,1-.74,1Z"/><path class="cls-1" d="M724,452l-.08-.1Z"/><path d="M724,453a1,1,0,0,1-.8-.39l-.06-.07,0-.06a1,1,0,0,1-.19-.58,1,1,0,0,1,1.82-.58l-.76.62.83-.53-.08.05.08-.05A1,1,0,0,1,724,453Z"/><path class="cls-1" d="M722.11,449.68c-.48-.53-1-1-1.54-1.54C721.1,448.65,721.63,449.15,722.11,449.68Z"/><path d="M722.11,450.68a1,1,0,0,1-.74-.33c-.43-.47-.9-.92-1.4-1.4l-.09-.08a1,1,0,0,1-.31-.73,1,1,0,0,1,1.69-.72l.09.09c.5.48,1,1,1.5,1.5a1,1,0,0,1,.26.67,1,1,0,0,1-.33.74A1,1,0,0,1,722.11,450.68Z"/><path class="cls-1" d="M623.4,547.76h0c-20.37,0-36.88-12.34-36.88-27.56h0c0-15.22,16.51-27.56,36.88-27.56h68.13c20.37,0,36.87-12.33,36.87-27.55V389H828.75V547.76Z"/><path d="M828.75,548.76H623.4c-20.89,0-37.88-12.81-37.88-28.56s17-28.56,37.88-28.56h68.13c19.78,0,35.88-11.91,35.88-26.55h0V389a1,1,0,0,1,1-1H828.75a1,1,0,0,1,1,1V547.76A1,1,0,0,1,828.75,548.76ZM623.4,493.64c-19.78,0-35.88,11.92-35.88,26.56s16.1,26.56,35.88,26.56H827.75V390H729.41v75.09s0,.06,0,.09c-.1,15.73-17,28.46-37.87,28.46Z"/><path d="M691.53,437.53a44.94,44.94,0,0,1,23.29,6.2c.48.3.94.62,1.4.93a33.43,33.43,0,0,1,3.76,2.9c.21.19.39.39.59.58.53.51,1.06,1,1.54,1.54a27.38,27.38,0,0,1,1.76,2.17l.08.1c.36.5.67,1,1,1.53.18.3.4.58.57.88.26.46.46.94.69,1.41s.39.74.55,1.12c.27.67.49,1.36.7,2.05.06.2.15.39.21.59a21.08,21.08,0,0,1,.74,5.5v.06c0,15.22-16.5,27.55-36.87,27.55H623.4c-20.37,0-36.88,12.34-36.88,27.56V437.53h105Z"/><path d="M586.52,521.2a1,1,0,0,1-1-1V437.53a1,1,0,0,1,1-1h105a46.21,46.21,0,0,1,23.81,6.35c.37.22.72.46,1.08.7l.36.25a35.4,35.4,0,0,1,3.88,3l.38.38c.07.07.14.15.22.22l.09.09c.5.48,1,1,1.5,1.5a27.93,27.93,0,0,1,1.83,2.25l.08.1c.3.42.57.85.83,1.28l.2.31.21.33c.13.19.26.39.38.59.19.35.36.7.53,1.06l.19.41c.06.13.13.26.2.39s.26.51.37.78c.29.69.5,1.38.74,2.13,0,.08.05.15.07.22s.1.27.14.41a21.92,21.92,0,0,1,.78,5.76c0,15.8-17,28.61-37.87,28.61H623.4c-19.78,0-35.88,11.92-35.88,26.56A1,1,0,0,1,586.52,521.2Zm1-82.67V511c5.08-11.27,19.24-19.4,35.88-19.4h68.13c19.78,0,35.88-11.91,35.88-26.55a20.16,20.16,0,0,0-.72-5.29,1.83,1.83,0,0,0-.08-.25l-.12-.32a17.76,17.76,0,0,0-.67-2,6.09,6.09,0,0,0-.3-.63c-.08-.15-.15-.3-.22-.45l-.21-.43c-.14-.31-.28-.62-.45-.92s-.19-.3-.3-.46l-.25-.38-.2-.33c-.24-.38-.48-.77-.74-1.14l-.09-.11c-.54-.73-1.11-1.43-1.69-2.08-.43-.47-.9-.92-1.4-1.4l-.09-.08-.28-.29-.29-.28a31.32,31.32,0,0,0-3.65-2.81l-.37-.25c-.33-.23-.65-.45-1-.66a44.28,44.28,0,0,0-22.77-6.05Z"/><path class="cls-1" d="M727.45,458.94c-.21-.69-.43-1.38-.7-2.05C727,457.56,727.24,458.25,727.45,458.94Z"/><path d="M727.45,459.94a1,1,0,0,1-1-.71h0a17.76,17.76,0,0,0-.67-2,1.07,1.07,0,0,1-.07-.39,1,1,0,0,1,1.92-.38h0c.28.67.49,1.35.7,2a1,1,0,0,1-.67,1.25A.93.93,0,0,1,727.45,459.94Z"/><path class="cls-1" d="M716.22,444.66c-.46-.31-.92-.63-1.4-.93C715.3,444,715.76,444.35,716.22,444.66Z"/><path d="M716.22,445.66a1,1,0,0,1-.56-.17l-.37-.25c-.33-.23-.65-.45-1-.66a1,1,0,0,1-.48-.85,1.07,1.07,0,0,1,.14-.52,1,1,0,0,1,1.38-.33h0c.36.23.71.47,1.06.71l.35.23a1,1,0,0,1,.27,1.39A1,1,0,0,1,716.22,445.66Z"/><path class="cls-1" d="M728.4,465a21.08,21.08,0,0,0-.74-5.5A21.08,21.08,0,0,1,728.4,465Z"/><path d="M728.4,466a1,1,0,0,1-1-1,19.63,19.63,0,0,0-.71-5.23,1.24,1.24,0,0,1,0-.27,1,1,0,0,1,2-.26,21.92,21.92,0,0,1,.78,5.76h0a1,1,0,0,1-1,1Z"/><path class="cls-1" d="M724.94,453.48c-.32-.51-.63-1-1-1.53C724.31,452.45,724.62,453,724.94,453.48Z"/><path d="M724.94,454.48a1,1,0,0,1-.85-.47l-.2-.33c-.24-.38-.48-.77-.74-1.14a1,1,0,0,1-.2-.59,1,1,0,0,1,1.81-.59c.3.42.57.85.83,1.28l.2.31a1,1,0,0,1,.15.53,1,1,0,0,1-.47.85A1,1,0,0,1,724.94,454.48Z"/><path class="cls-1" d="M723.87,451.85a27.38,27.38,0,0,0-1.76-2.17A27.38,27.38,0,0,1,723.87,451.85Z"/><path d="M723.87,452.85a1,1,0,0,1-.8-.41c-.55-.74-1.12-1.44-1.7-2.09a1,1,0,0,1-.26-.67,1,1,0,0,1,1.74-.67,27.93,27.93,0,0,1,1.83,2.25,1,1,0,0,1,.19.59,1,1,0,0,1-.41.81A1,1,0,0,1,723.87,452.85Z"/><path class="cls-1" d="M726.2,455.77c-.23-.47-.43-.95-.69-1.41C725.77,454.82,726,455.3,726.2,455.77Z"/><path d="M726.2,456.77a1,1,0,0,1-.9-.56l-.21-.44c-.14-.31-.28-.62-.45-.92a1,1,0,0,1-.13-.49,1,1,0,0,1,.5-.87,1,1,0,0,1,1.37.38c.19.35.36.7.53,1.06l.19.41a.94.94,0,0,1,.1.43,1,1,0,0,1-.57.9A1,1,0,0,1,726.2,456.77Z"/><path class="cls-1" d="M720.57,448.14c-.2-.19-.38-.39-.59-.58C720.19,447.75,720.37,448,720.57,448.14Z"/><path d="M720.57,449.14a1,1,0,0,1-.69-.27l-.28-.29-.29-.28a1,1,0,0,1-.32-.74,1,1,0,0,1,.26-.67,1,1,0,0,1,1.41-.07l.38.38c.07.07.14.15.22.22a1,1,0,0,1,.31.72,1,1,0,0,1-1,1Z"/><path class="cls-3" d="M769.41,493.18a1,1,0,0,1-1-1v-47.6a1,1,0,0,1,2,0v47.6A1,1,0,0,1,769.41,493.18Z"/><path class="cls-3" d="M793,493.18a1,1,0,0,1-1-1v-47.6a1,1,0,1,1,2,0v47.6A1,1,0,0,1,793,493.18Z"/><path class="cls-3" d="M781,506.65a1,1,0,0,1-1-1V431.11a1,1,0,0,1,2,0v74.54A1,1,0,0,1,781,506.65Z"/><path class="cls-2" d="M735.35,422.2a1,1,0,0,1-1-1V407.52a1,1,0,1,1,2,0V421.2A1,1,0,0,1,735.35,422.2Z"/><path class="cls-3" d="M646.91,530.24a1,1,0,0,1-1-1V515.56a1,1,0,0,1,2,0v13.68A1,1,0,0,1,646.91,530.24Z"/><path class="cls-2" d="M659.54,530.24a1,1,0,0,1-1-1V502.09a1,1,0,1,1,2,0v27.15A1,1,0,0,1,659.54,530.24Z"/><path class="cls-2" d="M672.18,530.24a1,1,0,0,1-1-1V517.49a1,1,0,0,1,2,0v11.75A1,1,0,0,1,672.18,530.24Z"/><path class="cls-2" d="M684.81,530.24a1,1,0,0,1-1-1v-23.3a1,1,0,0,1,2,0v23.3A1,1,0,0,1,684.81,530.24Z"/><path class="cls-2" d="M697.45,530.24a1,1,0,0,1-1-1v-15.6a1,1,0,0,1,2,0v15.6A1,1,0,0,1,697.45,530.24Z"/><path class="cls-2" d="M710.08,530.24a1,1,0,0,1-1-1V517.49a1,1,0,0,1,2,0v11.75A1,1,0,0,1,710.08,530.24Z"/><path class="cls-2" d="M722.71,530.24a1,1,0,0,1-1-1V507.87a1,1,0,1,1,2,0v21.37A1,1,0,0,1,722.71,530.24Z"/><path class="cls-2" d="M735.35,530.24a1,1,0,0,1-1-1v-15.6a1,1,0,0,1,2,0v15.6A1,1,0,0,1,735.35,530.24Z"/><path class="cls-3" d="M286.61,401.34a52.38,52.38,0,0,1-28-8.13A28.86,28.86,0,0,1,244.06,395a28.4,28.4,0,0,1-11.9-4.48,1,1,0,0,1-.45-1,1,1,0,0,1,.69-.82,26.74,26.74,0,0,0,12.31-8.28A52,52,0,0,1,234,348.71a52.63,52.63,0,1,1,52.62,52.63Zm-27.93-10.25a1,1,0,0,1,.54.15,50.71,50.71,0,1,0-12.45-11.36,1,1,0,0,1,0,1.24A28.83,28.83,0,0,1,235,389.93a26.39,26.39,0,0,0,9.32,3.11,26.76,26.76,0,0,0,14-1.88A1,1,0,0,1,258.68,391.09Z"/><path class="cls-3" d="M671,382.34a1,1,0,0,1-1-1v-47.6a1,1,0,0,1,2,0v47.6A1,1,0,0,1,671,382.34Z"/><path class="cls-3" d="M694.61,382.34a1,1,0,0,1-1-1v-47.6a1,1,0,1,1,2,0v47.6A1,1,0,0,1,694.61,382.34Z"/><path class="cls-3" d="M682.53,395.82a1,1,0,0,1-1-1V320.27a1,1,0,0,1,2,0v74.55A1,1,0,0,1,682.53,395.82Z"/><path class="cls-2" d="M636.92,311.36a1,1,0,0,1-1-1V296.68a1,1,0,1,1,2,0v13.68A1,1,0,0,1,636.92,311.36Z"/><path class="cls-2" d="M624.28,324.83a1,1,0,0,1-1-1V296.68a1,1,0,0,1,2,0v27.15A1,1,0,0,1,624.28,324.83Z"/><path class="cls-2" d="M611.65,309.43a1,1,0,0,1-1-1V296.68a1,1,0,1,1,2,0v11.75A1,1,0,0,1,611.65,309.43Z"/><path class="cls-2" d="M599,321a1,1,0,0,1-1-1v-23.3a1,1,0,0,1,2,0V320A1,1,0,0,1,599,321Z"/><path class="cls-2" d="M586.38,313.28a1,1,0,0,1-1-1v-15.6a1,1,0,1,1,2,0v15.6A1,1,0,0,1,586.38,313.28Z"/><path class="cls-2" d="M573.75,309.43a1,1,0,0,1-1-1V296.68a1,1,0,0,1,2,0v11.75A1,1,0,0,1,573.75,309.43Z"/><path class="cls-2" d="M561.11,319.06a1,1,0,0,1-1-1V296.68a1,1,0,1,1,2,0v21.38A1,1,0,0,1,561.11,319.06Z"/><path class="cls-3" d="M548.48,313.28a1,1,0,0,1-1-1v-15.6a1,1,0,0,1,2,0v15.6A1,1,0,0,1,548.48,313.28Z"/><path class="cls-3" d="M548.48,419.41a1,1,0,0,1-1-1V404.73a1,1,0,0,1,2,0v13.68A1,1,0,0,1,548.48,419.41Z"/><path class="cls-2" d="M561.11,419.41a1,1,0,0,1-1-1V391.25a1,1,0,0,1,2,0v27.16A1,1,0,0,1,561.11,419.41Z"/><path class="cls-2" d="M573.75,419.41a1,1,0,0,1-1-1V406.65a1,1,0,0,1,2,0v11.76A1,1,0,0,1,573.75,419.41Z"/><path class="cls-2" d="M586.38,419.41a1,1,0,0,1-1-1V395.1a1,1,0,0,1,2,0v23.31A1,1,0,0,1,586.38,419.41Z"/><path class="cls-2" d="M599,419.41a1,1,0,0,1-1-1V402.8a1,1,0,1,1,2,0v15.61A1,1,0,0,1,599,419.41Z"/><path class="cls-2" d="M611.65,419.41a1,1,0,0,1-1-1V406.65a1,1,0,0,1,2,0v11.76A1,1,0,0,1,611.65,419.41Z"/><path class="cls-2" d="M624.28,419.41a1,1,0,0,1-1-1V397a1,1,0,0,1,2,0v21.38A1,1,0,0,1,624.28,419.41Z"/><path class="cls-2" d="M636.92,419.41a1,1,0,0,1-1-1V402.8a1,1,0,0,1,2,0v15.61A1,1,0,0,1,636.92,419.41Z"/><path class="cls-2" d="M750.49,529.24a1,1,0,0,1,1-1h0a1,1,0,0,1-1-1h0a1,1,0,0,1,1-1h0a1,1,0,0,1-1-1h0a1,1,0,0,1,1-1h0a1,1,0,0,1-1-1h0a1,1,0,0,1,1-1h0a1,1,0,0,1-1-1h0a1,1,0,0,1,1-1h0a1,1,0,0,1-1-1h0a1,1,0,0,1,1-1h0a1,1,0,0,1-1-1h0a1,1,0,0,1,1-1h0a1,1,0,0,1-1-1h0a1,1,0,0,1,1-1h0a1,1,0,0,1-1-1h0a1,1,0,0,1,1-1h0a1,1,0,0,1-1-1h0a1,1,0,0,1,1-1h0a1,1,0,0,1-1-1h0a1,1,0,0,1,1-1h0a1,1,0,0,1-1-1h0a1,1,0,0,1,1-1h0a1,1,0,0,1-1-1h0a1,1,0,0,1,1-1h0a1,1,0,0,1-1-1h0a1,1,0,0,1,1-1h0a1,1,0,0,1-1-1h0a1,1,0,0,1,1-1h0a1,1,0,0,1-1-1h0a1,1,0,0,1,1-1h0a1,1,0,0,1-1-1h0a1,1,0,0,1,1-1h0a1,1,0,0,1-1-1h0a1,1,0,0,1,1-1h0a1,1,0,0,1-1-1h0a1,1,0,0,1,1-1h0a1,1,0,0,1-1-1h0a1,1,0,0,1,1-1h0a1,1,0,0,1-1-1h0a1,1,0,0,1,1-1h0a1,1,0,0,1-1-1h0a1,1,0,0,1,1-1h0a1,1,0,0,1-1-1h0a1,1,0,0,1,1-1h0a1,1,0,0,1-1-1h0a1,1,0,0,1,1-1h0a1,1,0,0,1-1-1h0a1,1,0,0,1,1-1h0a1,1,0,0,1-1-1h0a1,1,0,0,1,1-1h0a1,1,0,0,1-1-1h0a1,1,0,0,1,1-1h0a1,1,0,0,1-1-1h0a1,1,0,0,1,1-1h0a1,1,0,0,1-1-1h0a1,1,0,0,1,1-1h0a1,1,0,0,1-1-1h0a1,1,0,0,1,1-1h0a1,1,0,0,1-1-1h0a1,1,0,0,1,1-1h0a1,1,0,0,1-1-1h0a1,1,0,0,1,1-1h0a1,1,0,0,1-1-1h0a1,1,0,0,1,1-1h0a1,1,0,0,1-1-1h0a1,1,0,0,1,1-1h0a1,1,0,0,1-1-1h0a1,1,0,0,1,1-1h0a1,1,0,0,1-1-1h0a1,1,0,0,1,1-1h0a1,1,0,0,1-1-1h0a1,1,0,0,1,1-1h0a1,1,0,0,1-1-1h0a1,1,0,0,1,1-1h0a1,1,0,0,1-1-1h0a1,1,0,0,1,1-1h0a1,1,0,0,1-1-1h0a1,1,0,0,1,1-1h0a1,1,0,0,1-1-1h0a1,1,0,0,1,1-1h0a1,1,0,0,1-1-1h0a1,1,0,0,1,1-1h0a1,1,0,0,1-1-1h0a1,1,0,0,1,1-1h0a1,1,0,0,1-1-1h0a1,1,0,0,1,1-1h0a1,1,0,0,1-1-1h0a1,1,0,0,1,1-1h0a1,1,0,0,1-1-1h0a1,1,0,0,1,1-1h0a1,1,0,0,1-1-1h0a1,1,0,0,1,1-1h0a1,1,0,0,1-1-1h0a1,1,0,0,1,1-1h0a1,1,0,0,1-1-1h0a1,1,0,0,1,1-1h0a1,1,0,0,1-1-1h0a1,1,0,0,1,1-1h0a1,1,0,0,1-1-1h0a1,1,0,0,1,1-1h0a1,1,0,0,1-1-1h0a1,1,0,0,1,1-1h0a1,1,0,0,1-1-1h0a1,1,0,0,1,1-1h0a1,1,0,0,1-1-1h0a1,1,0,0,1,1-1h0a1,1,0,0,1-1-1h0a1,1,0,0,1,1-1h0a1,1,0,0,1-1-1h0a1,1,0,0,1,1-1h0a1,1,0,0,1-1-1h0a1,1,0,0,1,1-1h0a1,1,0,0,1-1-1h0a1,1,0,0,1,1-1h0a1,1,0,0,1-1-1h0a1,1,0,0,1,1-1h0a1,1,0,0,1-1-1h0a1,1,0,0,1,1-1h0a1,1,0,0,1-1-1h0a1,1,0,0,1,1-1h0a1,1,0,0,1,1,1h0a1,1,0,0,1-1,1h0a1,1,0,0,1,1,1h0a1,1,0,0,1-1,1h0a1,1,0,0,1,1,1h0a1,1,0,0,1-1,1h0a1,1,0,0,1,1,1h0a1,1,0,0,1-1,1h0a1,1,0,0,1,1,1h0a1,1,0,0,1-1,1h0a1,1,0,0,1,1,1h0a1,1,0,0,1-1,1h0a1,1,0,0,1,1,1h0a1,1,0,0,1-1,1h0a1,1,0,0,1,1,1h0a1,1,0,0,1-1,1h0a1,1,0,0,1,1,1h0a1,1,0,0,1-1,1h0a1,1,0,0,1,1,1h0a1,1,0,0,1-1,1h0a1,1,0,0,1,1,1h0a1,1,0,0,1-1,1h0a1,1,0,0,1,1,1h0a1,1,0,0,1-1,1h0a1,1,0,0,1,1,1h0a1,1,0,0,1-1,1h0a1,1,0,0,1,1,1h0a1,1,0,0,1-1,1h0a1,1,0,0,1,1,1h0a1,1,0,0,1-1,1h0a1,1,0,0,1,1,1h0a1,1,0,0,1-1,1h0a1,1,0,0,1,1,1h0a1,1,0,0,1-1,1h0a1,1,0,0,1,1,1h0a1,1,0,0,1-1,1h0a1,1,0,0,1,1,1h0a1,1,0,0,1-1,1h0a1,1,0,0,1,1,1h0a1,1,0,0,1-1,1h0a1,1,0,0,1,1,1h0a1,1,0,0,1-1,1h0a1,1,0,0,1,1,1h0a1,1,0,0,1-1,1h0a1,1,0,0,1,1,1h0a1,1,0,0,1-1,1h0a1,1,0,0,1,1,1h0a1,1,0,0,1-1,1h0a1,1,0,0,1,1,1h0a1,1,0,0,1-1,1h0a1,1,0,0,1,1,1h0a1,1,0,0,1-1,1h0a1,1,0,0,1,1,1h0a1,1,0,0,1-1,1h0a1,1,0,0,1,1,1h0a1,1,0,0,1-1,1h0a1,1,0,0,1,1,1h0a1,1,0,0,1-1,1h0a1,1,0,0,1,1,1h0a1,1,0,0,1-1,1h0a1,1,0,0,1,1,1h0a1,1,0,0,1-1,1h0a1,1,0,0,1,1,1h0a1,1,0,0,1-1,1h0a1,1,0,0,1,1,1h0a1,1,0,0,1-1,1h0a1,1,0,0,1,1,1h0a1,1,0,0,1-1,1h0a1,1,0,0,1,1,1h0a1,1,0,0,1-1,1h0a1,1,0,0,1,1,1h0a1,1,0,0,1-1,1h0a1,1,0,0,1,1,1h0a1,1,0,0,1-1,1h0a1,1,0,0,1,1,1h0a1,1,0,0,1-1,1h0a1,1,0,0,1,1,1h0a1,1,0,0,1-1,1h0a1,1,0,0,1,1,1h0a1,1,0,0,1-1,1h0a1,1,0,0,1,1,1h0a1,1,0,0,1-1,1h0a1,1,0,0,1,1,1h0a1,1,0,0,1-1,1h0a1,1,0,0,1,1,1h0a1,1,0,0,1-1,1h0a1,1,0,0,1,1,1h0a1,1,0,0,1-1,1h0a1,1,0,0,1,1,1h0a1,1,0,0,1-1,1h0a1,1,0,0,1,1,1h0a1,1,0,0,1-1,1h0a1,1,0,0,1,1,1h0a1,1,0,0,1-1,1h0a1,1,0,0,1,1,1h0a1,1,0,0,1-1,1h0a1,1,0,0,1,1,1h0a1,1,0,0,1-1,1h0a1,1,0,0,1,1,1h0a1,1,0,0,1-1,1h0a1,1,0,0,1,1,1h0a1,1,0,0,1-1,1h0a1,1,0,0,1,1,1h0a1,1,0,0,1-1,1h0a1,1,0,0,1,1,1h0a1,1,0,0,1-1,1h0a1,1,0,0,1,1,1h0a1,1,0,0,1-1,1h0a1,1,0,0,1,1,1h0a1,1,0,0,1-1,1h0a1,1,0,0,1,1,1h0a1,1,0,0,1-1,1h0a1,1,0,0,1,1,1h0a1,1,0,0,1-1,1h0a1,1,0,0,1,1,1h0a1,1,0,0,1-1,1h0a1,1,0,0,1,1,1h0a1,1,0,0,1-1,1h0a1,1,0,0,1,1,1h0a1,1,0,0,1-1,1h0a1,1,0,0,1,1,1h0a1,1,0,0,1-1,1h0A1,1,0,0,1,750.49,529.24Z"/><path class="cls-1" d="M466.34,531.94v30.65H308.76a45,45,0,0,1-23.29-6.2c-.48-.3-.94-.62-1.4-.94a33.09,33.09,0,0,1-3.76-2.89c-.21-.19-.39-.39-.59-.59-.52-.5-1.05-1-1.53-1.53a27.52,27.52,0,0,1-1.77-2.17.87.87,0,0,0-.08-.1c-.36-.5-.67-1-1-1.53-.18-.3-.39-.58-.56-.88-.26-.46-.47-.94-.7-1.41s-.38-.74-.54-1.12a21.6,21.6,0,0,1-.71-2.05c-.06-.2-.15-.39-.2-.59a21.09,21.09,0,0,1-.75-5.5V694c0,12.74,11.57,23.45,27.29,26.6a45.87,45.87,0,0,0,9,.76H466.34V752L571.47,642Z"/><path d="M466.34,753a1.16,1.16,0,0,1-.37-.07,1,1,0,0,1-.63-.93V722.34H308.17a46.61,46.61,0,0,1-9.19-.78c-16.54-3.32-28.09-14.66-28.09-27.58V535a1,1,0,0,1,2,0,20.64,20.64,0,0,0,.71,5.29c0,.08.06.16.08.24a2.19,2.19,0,0,1,.12.33,20.15,20.15,0,0,0,.67,2c.09.22.2.42.3.63s.15.3.23.44l.2.43c.14.31.29.62.46.92a4.43,4.43,0,0,0,.29.46l.25.39.2.32c.24.39.48.78.75,1.15l.07.09a26,26,0,0,0,1.71,2.1c.43.47.9.93,1.41,1.41l.07.07.29.28a3.83,3.83,0,0,0,.28.29,33.68,33.68,0,0,0,3.65,2.81l.36.24c.33.23.66.45,1,.66a44.16,44.16,0,0,0,22.76,6.06H465.34V531.94a1,1,0,0,1,1.72-.69l105.13,110a1,1,0,0,1,0,1.39l-105.13,110A1,1,0,0,1,466.34,753ZM272.89,544.18V694c0,12,10.89,22.49,26.49,25.62a44,44,0,0,0,8.79.74H466.34a1,1,0,0,1,1,1v28.15L570.09,642,467.34,534.44v28.15a1,1,0,0,1-1,1H308.76A46.3,46.3,0,0,1,285,557.24c-.37-.23-.73-.47-1.09-.72l-.35-.24a34,34,0,0,1-3.87-3c-.14-.12-.26-.25-.39-.38s-.14-.15-.22-.22l-.07-.08c-.51-.48-1-1-1.52-1.51-.63-.7-1.24-1.46-1.83-2.25l-.08-.11c-.3-.41-.57-.84-.83-1.27l-.2-.31-.21-.33c-.13-.2-.26-.39-.37-.59a11.64,11.64,0,0,1-.53-1.06l-.2-.41-.19-.39A2.12,2.12,0,0,1,272.89,544.18Z"/><path class="cls-2" d="M345.92,701.92a1,1,0,0,1,1-1h0a1,1,0,0,1,1,1h0a1,1,0,0,1-1,1h0A1,1,0,0,1,345.92,701.92Zm0-2a1,1,0,0,1,1-1h0a1,1,0,0,1,1,1h0a1,1,0,0,1-1,1h0A1,1,0,0,1,345.92,699.91Zm0-2a1,1,0,0,1,1-1h0a1,1,0,0,1,1,1h0a1,1,0,0,1-1,1h0A1,1,0,0,1,345.92,697.91Zm0-2a1,1,0,0,1,1-1h0a1,1,0,0,1,1,1h0a1,1,0,0,1-1,1h0A1,1,0,0,1,345.92,695.91Zm0-2a1,1,0,0,1,1-1h0a1,1,0,0,1,1,1h0a1,1,0,0,1-1,1h0A1,1,0,0,1,345.92,693.92Zm0-2a1,1,0,0,1,1-1h0a1,1,0,0,1,1,1h0a1,1,0,0,1-1,1h0A1,1,0,0,1,345.92,691.92Zm0-2a1,1,0,0,1,1-1h0a1,1,0,0,1,1,1h0a1,1,0,0,1-1,1h0A1,1,0,0,1,345.92,689.92Zm0-2a1,1,0,0,1,1-1h0a1,1,0,0,1,1,1h0a1,1,0,0,1-1,1h0A1,1,0,0,1,345.92,687.92Zm0-2a1,1,0,0,1,1-1h0a1,1,0,0,1,1,1h0a1,1,0,0,1-1,1h0A1,1,0,0,1,345.92,685.92Zm0-2a1,1,0,0,1,1-1h0a1,1,0,0,1,1,1h0a1,1,0,0,1-1,1h0A1,1,0,0,1,345.92,683.92Zm0-2a1,1,0,0,1,1-1h0a1,1,0,0,1,1,1h0a1,1,0,0,1-1,1h0A1,1,0,0,1,345.92,681.91Zm0-2a1,1,0,0,1,1-1h0a1,1,0,0,1,1,1h0a1,1,0,0,1-1,1h0A1,1,0,0,1,345.92,679.91Zm0-2a1,1,0,0,1,1-1h0a1,1,0,0,1,1,1h0a1,1,0,0,1-1,1h0A1,1,0,0,1,345.92,677.92Zm0-2a1,1,0,0,1,1-1h0a1,1,0,0,1,1,1h0a1,1,0,0,1-1,1h0A1,1,0,0,1,345.92,675.92Zm0-2a1,1,0,0,1,1-1h0a1,1,0,0,1,1,1h0a1,1,0,0,1-1,1h0A1,1,0,0,1,345.92,673.92Zm0-2a1,1,0,0,1,1-1h0a1,1,0,0,1,1,1h0a1,1,0,0,1-1,1h0A1,1,0,0,1,345.92,671.92Zm0-2a1,1,0,0,1,1-1h0a1,1,0,0,1,1,1h0a1,1,0,0,1-1,1h0A1,1,0,0,1,345.92,669.92Zm0-2a1,1,0,0,1,1-1h0a1,1,0,0,1,1,1h0a1,1,0,0,1-1,1h0A1,1,0,0,1,345.92,667.92Zm0-2a1,1,0,0,1,1-1h0a1,1,0,0,1,1,1h0a1,1,0,0,1-1,1h0A1,1,0,0,1,345.92,665.91Zm0-2a1,1,0,0,1,1-1h0a1,1,0,0,1,1,1h0a1,1,0,0,1-1,1h0A1,1,0,0,1,345.92,663.91Zm0-2a1,1,0,0,1,1-1h0a1,1,0,0,1,1,1h0a1,1,0,0,1-1,1h0A1,1,0,0,1,345.92,661.91Zm0-2a1,1,0,0,1,1-1h0a1,1,0,0,1,1,1h0a1,1,0,0,1-1,1h0A1,1,0,0,1,345.92,659.92Zm0-2a1,1,0,0,1,1-1h0a1,1,0,0,1,1,1h0a1,1,0,0,1-1,1h0A1,1,0,0,1,345.92,657.92Zm0-2a1,1,0,0,1,1-1h0a1,1,0,0,1,1,1h0a1,1,0,0,1-1,1h0A1,1,0,0,1,345.92,655.92Zm0-2a1,1,0,0,1,1-1h0a1,1,0,0,1,1,1h0a1,1,0,0,1-1,1h0A1,1,0,0,1,345.92,653.92Zm0-2a1,1,0,0,1,1-1h0a1,1,0,0,1,1,1h0a1,1,0,0,1-1,1h0A1,1,0,0,1,345.92,651.92Zm0-2a1,1,0,0,1,1-1h0a1,1,0,0,1,1,1h0a1,1,0,0,1-1,1h0A1,1,0,0,1,345.92,649.91Zm0-2a1,1,0,0,1,1-1h0a1,1,0,0,1,1,1h0a1,1,0,0,1-1,1h0A1,1,0,0,1,345.92,647.91Zm0-2a1,1,0,0,1,1-1h0a1,1,0,0,1,1,1h0a1,1,0,0,1-1,1h0A1,1,0,0,1,345.92,645.91Zm0-2a1,1,0,0,1,1-1h0a1,1,0,0,1,1,1h0a1,1,0,0,1-1,1h0A1,1,0,0,1,345.92,643.92Zm0-2a1,1,0,0,1,1-1h0a1,1,0,0,1,1,1h0a1,1,0,0,1-1,1h0A1,1,0,0,1,345.92,641.92Zm0-2a1,1,0,0,1,1-1h0a1,1,0,0,1,1,1h0a1,1,0,0,1-1,1h0A1,1,0,0,1,345.92,639.92Zm0-2a1,1,0,0,1,1-1h0a1,1,0,0,1,1,1h0a1,1,0,0,1-1,1h0A1,1,0,0,1,345.92,637.92Zm0-2a1,1,0,0,1,1-1h0a1,1,0,0,1,1,1h0a1,1,0,0,1-1,1h0A1,1,0,0,1,345.92,635.92Zm0-2a1,1,0,0,1,1-1h0a1,1,0,0,1,1,1h0a1,1,0,0,1-1,1h0A1,1,0,0,1,345.92,633.92Zm0-2a1,1,0,0,1,1-1h0a1,1,0,0,1,1,1h0a1,1,0,0,1-1,1h0A1,1,0,0,1,345.92,631.91Zm0-2a1,1,0,0,1,1-1h0a1,1,0,0,1,1,1h0a1,1,0,0,1-1,1h0A1,1,0,0,1,345.92,629.91Zm0-2a1,1,0,0,1,1-1h0a1,1,0,0,1,1,1h0a1,1,0,0,1-1,1h0A1,1,0,0,1,345.92,627.91Zm0-2a1,1,0,0,1,1-1h0a1,1,0,0,1,1,1h0a1,1,0,0,1-1,1h0A1,1,0,0,1,345.92,625.92Zm0-2a1,1,0,0,1,1-1h0a1,1,0,0,1,1,1h0a1,1,0,0,1-1,1h0A1,1,0,0,1,345.92,623.92Zm0-2a1,1,0,0,1,1-1h0a1,1,0,0,1,1,1h0a1,1,0,0,1-1,1h0A1,1,0,0,1,345.92,621.92Zm0-2a1,1,0,0,1,1-1h0a1,1,0,0,1,1,1h0a1,1,0,0,1-1,1h0A1,1,0,0,1,345.92,619.92Zm0-2a1,1,0,0,1,1-1h0a1,1,0,0,1,1,1h0a1,1,0,0,1-1,1h0A1,1,0,0,1,345.92,617.92Zm0-2a1,1,0,0,1,1-1h0a1,1,0,0,1,1,1h0a1,1,0,0,1-1,1h0A1,1,0,0,1,345.92,615.91Zm0-2a1,1,0,0,1,1-1h0a1,1,0,0,1,1,1h0a1,1,0,0,1-1,1h0A1,1,0,0,1,345.92,613.91Zm0-2a1,1,0,0,1,1-1h0a1,1,0,0,1,1,1h0a1,1,0,0,1-1,1h0A1,1,0,0,1,345.92,611.91Zm0-2a1,1,0,0,1,1-1h0a1,1,0,0,1,1,1h0a1,1,0,0,1-1,1h0A1,1,0,0,1,345.92,609.92Zm0-2a1,1,0,0,1,1-1h0a1,1,0,0,1,1,1h0a1,1,0,0,1-1,1h0A1,1,0,0,1,345.92,607.92Zm0-2a1,1,0,0,1,1-1h0a1,1,0,0,1,1,1h0a1,1,0,0,1-1,1h0A1,1,0,0,1,345.92,605.92Zm0-2a1,1,0,0,1,1-1h0a1,1,0,0,1,1,1h0a1,1,0,0,1-1,1h0A1,1,0,0,1,345.92,603.92Zm0-2a1,1,0,0,1,1-1h0a1,1,0,0,1,1,1h0a1,1,0,0,1-1,1h0A1,1,0,0,1,345.92,601.92Zm0-2a1,1,0,0,1,1-1h0a1,1,0,0,1,1,1h0a1,1,0,0,1-1,1h0A1,1,0,0,1,345.92,599.92Zm0-2a1,1,0,0,1,1-1h0a1,1,0,0,1,1,1h0a1,1,0,0,1-1,1h0A1,1,0,0,1,345.92,597.91Zm0-2a1,1,0,0,1,1-1h0a1,1,0,0,1,1,1h0a1,1,0,0,1-1,1h0A1,1,0,0,1,345.92,595.91Zm0-2a1,1,0,0,1,1-1h0a1,1,0,0,1,1,1h0a1,1,0,0,1-1,1h0A1,1,0,0,1,345.92,593.92Zm0-2a1,1,0,0,1,1-1h0a1,1,0,0,1,1,1h0a1,1,0,0,1-1,1h0A1,1,0,0,1,345.92,591.92Zm0-2a1,1,0,0,1,1-1h0a1,1,0,0,1,1,1h0a1,1,0,0,1-1,1h0A1,1,0,0,1,345.92,589.92Zm0-2a1,1,0,0,1,1-1h0a1,1,0,0,1,1,1h0a1,1,0,0,1-1,1h0A1,1,0,0,1,345.92,587.92Zm0-2a1,1,0,0,1,1-1h0a1,1,0,0,1,1,1h0a1,1,0,0,1-1,1h0A1,1,0,0,1,345.92,585.92Zm0-2a1,1,0,0,1,1-1h0a1,1,0,0,1,1,1h0a1,1,0,0,1-1,1h0A1,1,0,0,1,345.92,583.92Zm0-2a1,1,0,0,1,1-1h0a1,1,0,0,1,1,1h0a1,1,0,0,1-1,1h0A1,1,0,0,1,345.92,581.92Z"/><path class="cls-1" d="M280.31,552.56a33.09,33.09,0,0,0,3.76,2.89A33.09,33.09,0,0,1,280.31,552.56Z"/><path d="M284.07,556.45a1,1,0,0,1-.56-.17,33.16,33.16,0,0,1-3.87-3,1,1,0,0,1-.33-.74,1,1,0,0,1,.26-.67,1,1,0,0,1,1.41-.07,33.68,33.68,0,0,0,3.65,2.81,1,1,0,0,1,.44.83,1,1,0,0,1-.17.55A1,1,0,0,1,284.07,556.45Z"/><path class="cls-1" d="M308.76,562.59h0a45,45,0,0,1-23.29-6.2,45,45,0,0,0,23.29,6.2Z"/><path d="M308.76,563.59h0a46.31,46.31,0,0,1-23.61-6.23l-.18-.11h0a1,1,0,0,1-.48-.85,1,1,0,0,1,.15-.52,1,1,0,0,1,1.38-.34,44.16,44.16,0,0,0,22.76,6.06,1,1,0,0,1,0,2Z"/><path class="cls-1" d="M273.55,543.23c.16.38.36.74.55,1.12C273.91,544,273.71,543.61,273.55,543.23Z"/><path d="M274.1,545.35a1,1,0,0,1-.9-.57l-.2-.38c-.13-.26-.27-.52-.38-.79a1.06,1.06,0,0,1-.07-.38,1,1,0,0,1,1.92-.39c.09.22.2.43.31.64s.15.29.22.43a1.12,1.12,0,0,1,.1.43,1,1,0,0,1-.57.91A1.12,1.12,0,0,1,274.1,545.35Z"/><path class="cls-1" d="M274.79,545.76c.17.3.38.58.56.88C275.17,546.34,275,546.06,274.79,545.76Z"/><path d="M275.35,547.64a1,1,0,0,1-.84-.47l-.22-.33c-.13-.19-.26-.39-.37-.59a1,1,0,0,1-.13-.49,1,1,0,0,1,.5-.87,1,1,0,0,1,1.37.37c.09.16.19.31.29.47s.17.25.25.38a1,1,0,0,1-.32,1.37A.92.92,0,0,1,275.35,547.64Z"/><path class="cls-1" d="M272.64,540.59c.05.2.14.39.2.59C272.78,541,272.69,540.79,272.64,540.59Z"/><path d="M272.84,542.18a1,1,0,0,1-.95-.7,1.8,1.8,0,0,0-.08-.21c-.05-.14-.1-.28-.14-.42a1.22,1.22,0,0,1,0-.26,1,1,0,0,1,2-.27,2.34,2.34,0,0,0,.09.24c0,.11.08.22.11.33a1,1,0,0,1-.66,1.25A1,1,0,0,1,272.84,542.18Z"/><path class="cls-1" d="M276.34,548.17a.87.87,0,0,1,.08.1A.87.87,0,0,0,276.34,548.17Z"/><path d="M276.42,549.27a1,1,0,0,1-.8-.41.87.87,0,0,1-.09-.11,1,1,0,0,1-.19-.58,1,1,0,0,1,.42-.82,1,1,0,0,1,1.38.22l.08.1a1,1,0,0,1,.2.6,1,1,0,0,1-.4.8A1,1,0,0,1,276.42,549.27Z"/><path class="cls-1" d="M278.19,550.44c.48.53,1,1,1.53,1.53C279.2,551.47,278.67,551,278.19,550.44Z"/><path d="M279.72,553a1,1,0,0,1-.69-.27l-.11-.11c-.49-.47-1-1-1.48-1.48a1,1,0,0,1-.25-.67,1,1,0,0,1,.33-.74,1,1,0,0,1,1.41.07c.42.46.88.91,1.38,1.38l.1.1a1,1,0,0,1,.31.72,1,1,0,0,1-1,1Z"/><path class="cls-1" d="M272.84,541.18a21.6,21.6,0,0,0,.71,2.05A21.6,21.6,0,0,1,272.84,541.18Z"/><path d="M273.55,544.23a1,1,0,0,1-.93-.62,22.46,22.46,0,0,1-.73-2.14.93.93,0,0,1-.05-.29,1,1,0,0,1,2-.29c.21.68.41,1.33.67,2a1.09,1.09,0,0,1,.08.39,1,1,0,0,1-1,1Z"/><path class="cls-1" d="M284.07,555.45c.47.32.92.64,1.4.94C285,556.09,284.53,555.77,284.07,555.45Z"/><path d="M285.47,557.39a1,1,0,0,1-.52-.15h0c-.37-.23-.72-.47-1.07-.71l-.37-.25a1,1,0,0,1-.44-.83.94.94,0,0,1,.17-.55,1,1,0,0,1,1.39-.27l.38.25c.32.22.64.45,1,.65a1,1,0,0,1-.53,1.86Z"/><path class="cls-1" d="M271.89,535.09a21.09,21.09,0,0,0,.75,5.5A21.09,21.09,0,0,1,271.89,535.09Z"/><path d="M272.64,541.59a1,1,0,0,1-1-.74,22.34,22.34,0,0,1-.78-5.76h0a1,1,0,0,1,1-1h0a1,1,0,0,1,1,1,20.5,20.5,0,0,0,.71,5.24.84.84,0,0,1,0,.27,1,1,0,0,1-.74,1A1.27,1.27,0,0,1,272.64,541.59Z"/><path class="cls-1" d="M275.35,546.64c.32.51.63,1,1,1.53C276,547.67,275.67,547.15,275.35,546.64Z"/><path d="M276.34,549.17a1,1,0,0,1-.81-.42h0c-.3-.42-.57-.85-.83-1.28l-.19-.3a1,1,0,0,1,1.7-1h0l.2.32c.23.38.46.76.73,1.13h0a1,1,0,0,1,.19.58,1,1,0,0,1-.41.82A1.09,1.09,0,0,1,276.34,549.17Z"/><path class="cls-1" d="M276.42,548.27a27.52,27.52,0,0,0,1.77,2.17A27.52,27.52,0,0,1,276.42,548.27Z"/><path d="M278.19,551.44a1,1,0,0,1-.74-.33,25.93,25.93,0,0,1-1.83-2.25,1,1,0,0,1,.21-1.4,1,1,0,0,1,1.4.21l.21.3c.48.63,1,1.23,1.48,1.79h0a1,1,0,0,1,.26.67,1,1,0,0,1-.33.74A1,1,0,0,1,278.19,551.44Z"/><path class="cls-1" d="M274.1,544.35c.22.47.43.95.69,1.41C274.53,545.3,274.32,544.82,274.1,544.35Z"/><path d="M274.79,546.76a1,1,0,0,1-.87-.51c-.2-.35-.37-.71-.54-1.07l-.19-.4a1.11,1.11,0,0,1-.09-.43,1,1,0,0,1,.56-.91,1,1,0,0,1,1.34.47l.19.42a10.12,10.12,0,0,0,.47.93,1.13,1.13,0,0,1,.13.5,1,1,0,0,1-.51.87A1,1,0,0,1,274.79,546.76Z"/><path class="cls-1" d="M279.72,552c.2.2.38.4.59.59C280.1,552.37,279.92,552.17,279.72,552Z"/><path d="M280.31,553.56a1,1,0,0,1-.67-.26c-.14-.12-.26-.25-.39-.38a2.28,2.28,0,0,0-.22-.22,1,1,0,0,1,0-1.42,1,1,0,0,1,1.41,0l.29.29a3.57,3.57,0,0,0,.28.27h0a1,1,0,0,1,.33.74,1,1,0,0,1-.26.67A1,1,0,0,1,280.31,553.56Z"/><path class="cls-1" d="M280,552.76a32.3,32.3,0,0,0,3.76,2.9A32.3,32.3,0,0,1,280,552.76Z"/><path d="M283.78,556.66a1,1,0,0,1-.56-.17,34.2,34.2,0,0,1-3.88-3,1,1,0,0,1-.33-.74,1,1,0,0,1,1.68-.74,31.32,31.32,0,0,0,3.65,2.81,1,1,0,0,1,.44.83,1,1,0,0,1-.18.56A1,1,0,0,1,283.78,556.66Z"/><path class="cls-1" d="M308.47,562.79h0a44.94,44.94,0,0,1-23.29-6.2,44.94,44.94,0,0,0,23.29,6.2Z"/><path d="M308.47,563.79a46.3,46.3,0,0,1-23.81-6.34,1,1,0,0,1-.48-.86,1,1,0,0,1,.15-.52,1,1,0,0,1,1.37-.33,44.28,44.28,0,0,0,22.77,6,1,1,0,0,1,0,2Z"/><path class="cls-1" d="M273.25,543.43c.16.38.37.75.55,1.12C273.62,544.18,273.41,543.81,273.25,543.43Z"/><path d="M273.8,545.55a1,1,0,0,1-.9-.57c-.06-.13-.13-.26-.2-.39s-.26-.51-.37-.77a1.09,1.09,0,0,1-.08-.39,1,1,0,0,1,1.93-.38q.13.32.3.63c.08.14.15.29.22.44a1,1,0,0,1,.1.43,1,1,0,0,1-.57.9A.94.94,0,0,1,273.8,545.55Z"/><path class="cls-1" d="M274.49,546c.17.3.39.59.57.88C274.88,546.55,274.66,546.26,274.49,546Z"/><path d="M275.06,547.84a1,1,0,0,1-.85-.47L274,547c-.13-.19-.26-.38-.38-.58h0a1,1,0,0,1,1.74-1c.09.15.19.3.3.46l.25.38a1,1,0,0,1,.15.53,1,1,0,0,1-.47.85A1,1,0,0,1,275.06,547.84Z"/><path class="cls-1" d="M272.34,540.79c.06.2.15.4.21.6C272.49,541.19,272.4,541,272.34,540.79Z"/><path d="M272.55,542.39a1,1,0,0,1-1-.71l-.07-.21c0-.14-.1-.28-.14-.42a1.09,1.09,0,0,1,0-.26,1,1,0,0,1,2-.26,2.25,2.25,0,0,0,.08.24l.12.32a1,1,0,0,1,0,.3,1,1,0,0,1-.71,1A.93.93,0,0,1,272.55,542.39Z"/><path class="cls-1" d="M276.05,548.37a.39.39,0,0,0,.08.1A.39.39,0,0,1,276.05,548.37Z"/><path d="M276.13,549.47a1,1,0,0,1-.8-.4l-.1-.12a1,1,0,0,1-.18-.58,1,1,0,0,1,.42-.81,1,1,0,0,1,1.38.21l.08.1a1,1,0,0,1,.2.6,1,1,0,0,1-.41.8A.94.94,0,0,1,276.13,549.47Z"/><path class="cls-1" d="M277.89,550.64c.48.53,1,1,1.54,1.54C278.9,551.67,278.37,551.17,277.89,550.64Z"/><path d="M279.43,553.18a1,1,0,0,1-.69-.28l-.09-.09c-.5-.47-1-1-1.49-1.49h0a1,1,0,0,1,1.48-1.34h0c.43.47.89.91,1.38,1.38l.11.11a1,1,0,0,1,0,1.41A1,1,0,0,1,279.43,553.18Z"/><path class="cls-1" d="M376.6,452.56h0c20.37,0,36.88,12.34,36.88,27.56h0c0,15.22-16.51,27.56-36.88,27.56H308.47c-20.37,0-36.87,12.34-36.87,27.55v76.09H171.25V452.56Z"/><path d="M271.6,612.32H171.25a1,1,0,0,1-1-1V452.56a1,1,0,0,1,1-1H376.61c20.88,0,37.87,12.81,37.87,28.56s-17,28.56-37.87,28.56H308.47c-19.76,0-35.85,11.89-35.88,26.51a.06.06,0,0,1,0,0h0v76.08A1,1,0,0,1,271.6,612.32Zm-99.35-2H270.6V535.16c.09-15.74,17-28.48,37.87-28.48h68.14c19.78,0,35.87-11.92,35.87-26.56s-16.09-26.56-35.87-26.56H172.25Z"/><path d="M308.47,562.79a44.94,44.94,0,0,1-23.29-6.2c-.48-.29-.94-.62-1.4-.93a32.3,32.3,0,0,1-3.76-2.9c-.21-.18-.39-.39-.59-.58-.53-.51-1.06-1-1.54-1.54a25.68,25.68,0,0,1-1.76-2.17.39.39,0,0,1-.08-.1c-.36-.49-.67-1-1-1.53-.18-.29-.4-.58-.57-.88-.26-.46-.46-.94-.69-1.41s-.39-.74-.55-1.12c-.27-.67-.49-1.35-.7-2-.06-.2-.15-.4-.21-.6a21.08,21.08,0,0,1-.74-5.5v-.06c0-15.21,16.5-27.55,36.87-27.55H376.6c20.37,0,36.88-12.34,36.88-27.56v82.67h-105Z"/><path d="M413.48,563.79h-105a46.3,46.3,0,0,1-23.81-6.34c-.37-.23-.73-.47-1.09-.72l-.35-.24a34.2,34.2,0,0,1-3.88-3c-.13-.12-.26-.24-.38-.37a2.39,2.39,0,0,0-.22-.23l-.11-.1c-.5-.48-1-1-1.48-1.49a25.93,25.93,0,0,1-1.83-2.25l-.09-.11c-.29-.4-.56-.83-.82-1.26l-.2-.32L274,547c-.13-.19-.26-.39-.38-.59s-.36-.7-.53-1.06l-.19-.4c-.06-.14-.13-.27-.2-.4s-.26-.51-.37-.77c-.29-.7-.5-1.38-.74-2.14l-.07-.21c0-.14-.1-.28-.14-.42a21.92,21.92,0,0,1-.78-5.76c0-15.8,17-28.61,37.87-28.61h68.14c19.78,0,35.87-11.92,35.87-26.56a1,1,0,0,1,2,0v82.67A1,1,0,0,1,413.48,563.79Zm-105-55.11c-19.78,0-35.88,11.91-35.88,26.55a20.29,20.29,0,0,0,.72,5.3,2.25,2.25,0,0,0,.08.24l.12.32a18,18,0,0,0,.67,2q.13.32.3.63c.08.14.15.29.22.44l.21.43c.14.31.28.62.45.92a4.53,4.53,0,0,0,.3.46l.25.38.2.33c.24.39.47.77.75,1.14l.07.09c.55.75,1.12,1.45,1.7,2.1.43.47.89.91,1.38,1.38l.11.11a3.7,3.7,0,0,1,.28.28l.29.28a31.32,31.32,0,0,0,3.65,2.81l.36.25c.33.22.66.45,1,.66a44.28,44.28,0,0,0,22.77,6h104v-72.5c-5.08,11.26-19.24,19.39-35.87,19.39Z"/><path class="cls-1" d="M272.55,541.39c.21.69.43,1.37.7,2C273,542.76,272.76,542.08,272.55,541.39Z"/><path d="M273.25,544.43a1,1,0,0,1-.92-.62c-.29-.69-.5-1.37-.74-2.13a1,1,0,0,1,1.92-.59,18,18,0,0,0,.67,2,1,1,0,0,1,.07.38,1,1,0,0,1-.61.92A.91.91,0,0,1,273.25,544.43Z"/><path class="cls-1" d="M283.78,555.66c.46.31.92.64,1.4.93C284.7,556.3,284.24,556,283.78,555.66Z"/><path d="M285.18,557.59a1,1,0,0,1-.52-.14c-.37-.23-.73-.48-1.09-.72l-.35-.24a1,1,0,0,1-.44-.83,1,1,0,0,1,.17-.56,1,1,0,0,1,1.39-.27l.36.25c.33.22.66.45,1,.66a1,1,0,0,1,.48.86,1.06,1.06,0,0,1-.14.51A1,1,0,0,1,285.18,557.59Z"/><path class="cls-1" d="M271.6,535.29a21.08,21.08,0,0,0,.74,5.5A21.08,21.08,0,0,1,271.6,535.29Z"/><path d="M272.34,541.79a1,1,0,0,1-1-.74,21.9,21.9,0,0,1-.78-5.75h0a1,1,0,0,1,1-1h0a1,1,0,0,1,1,1,19.76,19.76,0,0,0,.71,5.24,1.09,1.09,0,0,1,0,.26,1,1,0,0,1-.73,1A.84.84,0,0,1,272.34,541.79Z"/><path class="cls-1" d="M275.06,546.84c.32.51.63,1,1,1.53C275.69,547.88,275.38,547.35,275.06,546.84Z"/><path d="M276.05,549.37a1,1,0,0,1-.81-.41c-.3-.41-.57-.84-.83-1.27l-.2-.32a1,1,0,0,1,.32-1.38,1,1,0,0,1,1.38.32l.2.33c.24.39.47.77.75,1.14a1.09,1.09,0,0,1,.19.59,1,1,0,0,1-.41.81A1,1,0,0,1,276.05,549.37Z"/><path class="cls-1" d="M276.13,548.47a25.68,25.68,0,0,0,1.76,2.17A25.68,25.68,0,0,1,276.13,548.47Z"/><path d="M277.89,551.64a1,1,0,0,1-.74-.33,25.93,25.93,0,0,1-1.83-2.25,1,1,0,0,1-.19-.59,1,1,0,0,1,1.8-.59c.55.74,1.12,1.44,1.7,2.09a1,1,0,0,1,.26.67,1,1,0,0,1-1,1Z"/><path class="cls-1" d="M273.8,544.55c.23.47.43,1,.69,1.41C274.23,545.5,274,545,273.8,544.55Z"/><path d="M274.49,547a1,1,0,0,1-.87-.51c-.19-.34-.36-.7-.53-1.06l-.19-.4a1,1,0,0,1,.47-1.34,1,1,0,0,1,1.33.47l.21.43c.14.31.28.62.45.92a1,1,0,0,1,.13.49,1,1,0,0,1-.5.87A1,1,0,0,1,274.49,547Z"/><path class="cls-1" d="M279.43,552.18c.2.19.38.4.59.58C279.81,552.58,279.63,552.37,279.43,552.18Z"/><path d="M280,553.76a1,1,0,0,1-.67-.26h0l-.38-.38-.22-.22a1,1,0,0,1,1.38-1.44h0c.1.09.19.19.28.28l.29.28a1,1,0,0,1,.07,1.42A1,1,0,0,1,280,553.76Z"/><path class="cls-3" d="M230.59,556.74a1,1,0,0,1-1-1v-47.6a1,1,0,0,1,2,0v47.6A1,1,0,0,1,230.59,556.74Z"/><path class="cls-3" d="M207,556.74a1,1,0,0,1-1-1v-47.6a1,1,0,0,1,2,0v47.6A1,1,0,0,1,207,556.74Z"/><path class="cls-3" d="M219,570.21a1,1,0,0,1-1-1V494.67a1,1,0,0,1,2,0v74.54A1,1,0,0,1,219,570.21Z"/><path class="cls-2" d="M264.65,593.8a1,1,0,0,1-1-1V579.13a1,1,0,0,1,2,0V592.8A1,1,0,0,1,264.65,593.8Z"/><path class="cls-3" d="M353.09,485.76a1,1,0,0,1-1-1V471.08a1,1,0,0,1,2,0v13.68A1,1,0,0,1,353.09,485.76Z"/><path class="cls-2" d="M340.46,499.23a1,1,0,0,1-1-1V471.08a1,1,0,0,1,2,0v27.15A1,1,0,0,1,340.46,499.23Z"/><path class="cls-2" d="M327.82,483.83a1,1,0,0,1-1-1V471.08a1,1,0,0,1,2,0v11.75A1,1,0,0,1,327.82,483.83Z"/><path class="cls-2" d="M315.19,495.38a1,1,0,0,1-1-1v-23.3a1,1,0,0,1,2,0v23.3A1,1,0,0,1,315.19,495.38Z"/><path class="cls-2" d="M302.55,487.68a1,1,0,0,1-1-1v-15.6a1,1,0,0,1,2,0v15.6A1,1,0,0,1,302.55,487.68Z"/><path class="cls-2" d="M289.92,483.83a1,1,0,0,1-1-1V471.08a1,1,0,0,1,2,0v11.75A1,1,0,0,1,289.92,483.83Z"/><path class="cls-2" d="M277.29,493.46a1,1,0,0,1-1-1V471.08a1,1,0,0,1,2,0v21.38A1,1,0,0,1,277.29,493.46Z"/><path class="cls-2" d="M264.65,487.68a1,1,0,0,1-1-1v-15.6a1,1,0,0,1,2,0v15.6A1,1,0,0,1,264.65,487.68Z"/><path class="cls-3" d="M329,667.58a1,1,0,0,1-1-1V619a1,1,0,0,1,2,0v47.6A1,1,0,0,1,329,667.58Z"/><path class="cls-3" d="M305.39,667.58a1,1,0,0,1-1-1V619a1,1,0,0,1,2,0v47.6A1,1,0,0,1,305.39,667.58Z"/><path class="cls-3" d="M317.47,681.05a1,1,0,0,1-1-1V605.51a1,1,0,0,1,2,0v74.54A1,1,0,0,1,317.47,681.05Z"/><path class="cls-2" d="M363.08,704.64a1,1,0,0,1-1-1V690a1,1,0,0,1,2,0v13.68A1,1,0,0,1,363.08,704.64Z"/><path class="cls-2" d="M375.72,704.64a1,1,0,0,1-1-1V676.49a1,1,0,0,1,2,0v27.15A1,1,0,0,1,375.72,704.64Z"/><path class="cls-2" d="M388.35,704.64a1,1,0,0,1-1-1V691.89a1,1,0,0,1,2,0v11.75A1,1,0,0,1,388.35,704.64Z"/><path class="cls-2" d="M401,704.64a1,1,0,0,1-1-1v-23.3a1,1,0,0,1,2,0v23.3A1,1,0,0,1,401,704.64Z"/><path class="cls-2" d="M413.62,704.64a1,1,0,0,1-1-1V688a1,1,0,0,1,2,0v15.6A1,1,0,0,1,413.62,704.64Z"/><path class="cls-2" d="M426.25,704.64a1,1,0,0,1-1-1V691.89a1,1,0,1,1,2,0v11.75A1,1,0,0,1,426.25,704.64Z"/><path class="cls-2" d="M438.89,704.64a1,1,0,0,1-1-1V682.26a1,1,0,0,1,2,0v21.38A1,1,0,0,1,438.89,704.64Z"/><path class="cls-3" d="M451.52,704.64a1,1,0,0,1-1-1V688a1,1,0,0,1,2,0v15.6A1,1,0,0,1,451.52,704.64Z"/><path class="cls-3" d="M451.52,596.59a1,1,0,0,1-1-1V581.92a1,1,0,0,1,2,0v13.67A1,1,0,0,1,451.52,596.59Z"/><path class="cls-2" d="M438.89,610.07a1,1,0,0,1-1-1V581.92a1,1,0,0,1,2,0v27.15A1,1,0,0,1,438.89,610.07Z"/><path class="cls-2" d="M426.25,594.67a1,1,0,0,1-1-1V581.92a1,1,0,0,1,2,0v11.75A1,1,0,0,1,426.25,594.67Z"/><path class="cls-2" d="M413.62,606.22a1,1,0,0,1-1-1v-23.3a1,1,0,0,1,2,0v23.3A1,1,0,0,1,413.62,606.22Z"/><path class="cls-2" d="M401,598.52a1,1,0,0,1-1-1v-15.6a1,1,0,0,1,2,0v15.6A1,1,0,0,1,401,598.52Z"/><path class="cls-2" d="M388.35,594.67a1,1,0,0,1-1-1V581.92a1,1,0,0,1,2,0v11.75A1,1,0,0,1,388.35,594.67Z"/><path class="cls-2" d="M375.72,604.29a1,1,0,0,1-1-1V581.92a1,1,0,0,1,2,0v21.37A1,1,0,0,1,375.72,604.29Z"/><path class="cls-2" d="M363.08,598.52a1,1,0,0,1-1-1v-15.6a1,1,0,0,1,2,0v15.6A1,1,0,0,1,363.08,598.52Z"/><path class="cls-2" d="M247.52,591.08a1,1,0,0,1,1-1h0a1,1,0,0,1,1,1h0a1,1,0,0,1-1,1h0A1,1,0,0,1,247.52,591.08Zm0-2a1,1,0,0,1,1-1h0a1,1,0,0,1,1,1h0a1,1,0,0,1-1,1h0A1,1,0,0,1,247.52,589.08Zm0-2a1,1,0,0,1,1-1h0a1,1,0,0,1,1,1h0a1,1,0,0,1-1,1h0A1,1,0,0,1,247.52,587.08Zm0-2a1,1,0,0,1,1-1h0a1,1,0,0,1,1,1h0a1,1,0,0,1-1,1h0A1,1,0,0,1,247.52,585.08Zm0-2a1,1,0,0,1,1-1h0a1,1,0,0,1,1,1h0a1,1,0,0,1-1,1h0A1,1,0,0,1,247.52,583.08Zm0-2a1,1,0,0,1,1-1h0a1,1,0,0,1,1,1h0a1,1,0,0,1-1,1h0A1,1,0,0,1,247.52,581.08Zm0-2a1,1,0,0,1,1-1h0a1,1,0,0,1,1,1h0a1,1,0,0,1-1,1h0A1,1,0,0,1,247.52,579.08Zm0-2a1,1,0,0,1,1-1h0a1,1,0,0,1,1,1h0a1,1,0,0,1-1,1h0A1,1,0,0,1,247.52,577.08Zm0-2a1,1,0,0,1,1-1h0a1,1,0,0,1,1,1h0a1,1,0,0,1-1,1h0A1,1,0,0,1,247.52,575.08Zm0-2a1,1,0,0,1,1-1h0a1,1,0,0,1,1,1h0a1,1,0,0,1-1,1h0A1,1,0,0,1,247.52,573.08Zm0-2a1,1,0,0,1,1-1h0a1,1,0,0,1,1,1h0a1,1,0,0,1-1,1h0A1,1,0,0,1,247.52,571.08Zm0-2a1,1,0,0,1,1-1h0a1,1,0,0,1,1,1h0a1,1,0,0,1-1,1h0A1,1,0,0,1,247.52,569.08Zm0-2a1,1,0,0,1,1-1h0a1,1,0,0,1,1,1h0a1,1,0,0,1-1,1h0A1,1,0,0,1,247.52,567.08Zm0-2a1,1,0,0,1,1-1h0a1,1,0,0,1,1,1h0a1,1,0,0,1-1,1h0A1,1,0,0,1,247.52,565.08Zm0-2a1,1,0,0,1,1-1h0a1,1,0,0,1,1,1h0a1,1,0,0,1-1,1h0A1,1,0,0,1,247.52,563.08Zm0-2a1,1,0,0,1,1-1h0a1,1,0,0,1,1,1h0a1,1,0,0,1-1,1h0A1,1,0,0,1,247.52,561.08Zm0-2a1,1,0,0,1,1-1h0a1,1,0,0,1,1,1h0a1,1,0,0,1-1,1h0A1,1,0,0,1,247.52,559.08Zm0-2a1,1,0,0,1,1-1h0a1,1,0,0,1,1,1h0a1,1,0,0,1-1,1h0A1,1,0,0,1,247.52,557.08Zm0-2a1,1,0,0,1,1-1h0a1,1,0,0,1,1,1h0a1,1,0,0,1-1,1h0A1,1,0,0,1,247.52,555.08Zm0-2a1,1,0,0,1,1-1h0a1,1,0,0,1,1,1h0a1,1,0,0,1-1,1h0A1,1,0,0,1,247.52,553.08Zm0-2a1,1,0,0,1,1-1h0a1,1,0,0,1,1,1h0a1,1,0,0,1-1,1h0A1,1,0,0,1,247.52,551.08Zm0-2a1,1,0,0,1,1-1h0a1,1,0,0,1,1,1h0a1,1,0,0,1-1,1h0A1,1,0,0,1,247.52,549.08Zm0-2a1,1,0,0,1,1-1h0a1,1,0,0,1,1,1h0a1,1,0,0,1-1,1h0A1,1,0,0,1,247.52,547.08Zm0-2a1,1,0,0,1,1-1h0a1,1,0,0,1,1,1h0a1,1,0,0,1-1,1h0A1,1,0,0,1,247.52,545.08Zm0-2a1,1,0,0,1,1-1h0a1,1,0,0,1,1,1h0a1,1,0,0,1-1,1h0A1,1,0,0,1,247.52,543.08Zm0-2a1,1,0,0,1,1-1h0a1,1,0,0,1,1,1h0a1,1,0,0,1-1,1h0A1,1,0,0,1,247.52,541.08Zm0-2a1,1,0,0,1,1-1h0a1,1,0,0,1,1,1h0a1,1,0,0,1-1,1h0A1,1,0,0,1,247.52,539.08Zm0-2a1,1,0,0,1,1-1h0a1,1,0,0,1,1,1h0a1,1,0,0,1-1,1h0A1,1,0,0,1,247.52,537.08Zm0-2a1,1,0,0,1,1-1h0a1,1,0,0,1,1,1h0a1,1,0,0,1-1,1h0A1,1,0,0,1,247.52,535.08Zm0-2a1,1,0,0,1,1-1h0a1,1,0,0,1,1,1h0a1,1,0,0,1-1,1h0A1,1,0,0,1,247.52,533.08Zm0-2a1,1,0,0,1,1-1h0a1,1,0,0,1,1,1h0a1,1,0,0,1-1,1h0A1,1,0,0,1,247.52,531.08Zm0-2a1,1,0,0,1,1-1h0a1,1,0,0,1,1,1h0a1,1,0,0,1-1,1h0A1,1,0,0,1,247.52,529.08Zm0-2a1,1,0,0,1,1-1h0a1,1,0,0,1,1,1h0a1,1,0,0,1-1,1h0A1,1,0,0,1,247.52,527.08Zm0-2a1,1,0,0,1,1-1h0a1,1,0,0,1,1,1h0a1,1,0,0,1-1,1h0A1,1,0,0,1,247.52,525.08Zm0-2a1,1,0,0,1,1-1h0a1,1,0,0,1,1,1h0a1,1,0,0,1-1,1h0A1,1,0,0,1,247.52,523.08Zm0-2a1,1,0,0,1,1-1h0a1,1,0,0,1,1,1h0a1,1,0,0,1-1,1h0A1,1,0,0,1,247.52,521.08Zm0-2a1,1,0,0,1,1-1h0a1,1,0,0,1,1,1h0a1,1,0,0,1-1,1h0A1,1,0,0,1,247.52,519.08Zm0-2a1,1,0,0,1,1-1h0a1,1,0,0,1,1,1h0a1,1,0,0,1-1,1h0A1,1,0,0,1,247.52,517.08Zm0-2a1,1,0,0,1,1-1h0a1,1,0,0,1,1,1h0a1,1,0,0,1-1,1h0A1,1,0,0,1,247.52,515.08Zm0-2a1,1,0,0,1,1-1h0a1,1,0,0,1,1,1h0a1,1,0,0,1-1,1h0A1,1,0,0,1,247.52,513.08Zm0-2a1,1,0,0,1,1-1h0a1,1,0,0,1,1,1h0a1,1,0,0,1-1,1h0A1,1,0,0,1,247.52,511.08Zm0-2a1,1,0,0,1,1-1h0a1,1,0,0,1,1,1h0a1,1,0,0,1-1,1h0A1,1,0,0,1,247.52,509.08Zm0-2a1,1,0,0,1,1-1h0a1,1,0,0,1,1,1h0a1,1,0,0,1-1,1h0A1,1,0,0,1,247.52,507.08Zm0-2a1,1,0,0,1,1-1h0a1,1,0,0,1,1,1h0a1,1,0,0,1-1,1h0A1,1,0,0,1,247.52,505.08Zm0-2a1,1,0,0,1,1-1h0a1,1,0,0,1,1,1h0a1,1,0,0,1-1,1h0A1,1,0,0,1,247.52,503.08Zm0-2a1,1,0,0,1,1-1h0a1,1,0,0,1,1,1h0a1,1,0,0,1-1,1h0A1,1,0,0,1,247.52,501.08Zm0-2a1,1,0,0,1,1-1h0a1,1,0,0,1,1,1h0a1,1,0,0,1-1,1h0A1,1,0,0,1,247.52,499.08Zm0-2a1,1,0,0,1,1-1h0a1,1,0,0,1,1,1h0a1,1,0,0,1-1,1h0A1,1,0,0,1,247.52,497.08Zm0-2a1,1,0,0,1,1-1h0a1,1,0,0,1,1,1h0a1,1,0,0,1-1,1h0A1,1,0,0,1,247.52,495.08Zm0-2a1,1,0,0,1,1-1h0a1,1,0,0,1,1,1h0a1,1,0,0,1-1,1h0A1,1,0,0,1,247.52,493.08Zm0-2a1,1,0,0,1,1-1h0a1,1,0,0,1,1,1h0a1,1,0,0,1-1,1h0A1,1,0,0,1,247.52,491.08Zm0-2a1,1,0,0,1,1-1h0a1,1,0,0,1,1,1h0a1,1,0,0,1-1,1h0A1,1,0,0,1,247.52,489.08Zm0-2a1,1,0,0,1,1-1h0a1,1,0,0,1,1,1h0a1,1,0,0,1-1,1h0A1,1,0,0,1,247.52,487.08Zm0-2a1,1,0,0,1,1-1h0a1,1,0,0,1,1,1h0a1,1,0,0,1-1,1h0A1,1,0,0,1,247.52,485.08Zm0-2a1,1,0,0,1,1-1h0a1,1,0,0,1,1,1h0a1,1,0,0,1-1,1h0A1,1,0,0,1,247.52,483.08Zm0-2a1,1,0,0,1,1-1h0a1,1,0,0,1,1,1h0a1,1,0,0,1-1,1h0A1,1,0,0,1,247.52,481.08Zm0-2a1,1,0,0,1,1-1h0a1,1,0,0,1,1,1h0a1,1,0,0,1-1,1h0A1,1,0,0,1,247.52,479.08Zm0-2a1,1,0,0,1,1-1h0a1,1,0,0,1,1,1h0a1,1,0,0,1-1,1h0A1,1,0,0,1,247.52,477.08Zm0-2a1,1,0,0,1,1-1h0a1,1,0,0,1,1,1h0a1,1,0,0,1-1,1h0A1,1,0,0,1,247.52,475.08Zm0-2a1,1,0,0,1,.95-1h0a1,1,0,0,1-.95-1h0a1,1,0,0,1,1-1h0a1,1,0,0,1,1,1h0a1,1,0,0,1-1,1h0a1,1,0,0,1,1,1h0a1,1,0,0,1-1,1h0A1,1,0,0,1,247.52,473.08Z"/><circle class="cls-4" cx="420.06" cy="276.12" r="2.47"/><path class="cls-4" d="M420.06,279.59a3.48,3.48,0,1,1,3.47-3.47A3.48,3.48,0,0,1,420.06,279.59Zm0-4.95a1.48,1.48,0,1,0,1.47,1.48A1.48,1.48,0,0,0,420.06,274.64Z"/><path class="cls-4" d="M394.43,302.74a1,1,0,0,1-1-1V250.49a1,1,0,0,1,2,0v51.25A1,1,0,0,1,394.43,302.74Z"/><path class="cls-4" d="M420.06,277.12H368.8a1,1,0,0,1,0-2h51.26a1,1,0,1,1,0,2Z"/><circle class="cls-4" cx="394.43" cy="250.49" r="2.47"/><path class="cls-4" d="M394.43,254a3.48,3.48,0,1,1,3.47-3.47A3.48,3.48,0,0,1,394.43,254Zm0-5a1.48,1.48,0,1,0,1.47,1.48A1.48,1.48,0,0,0,394.43,249Z"/><circle class="cls-4" cx="394.43" cy="301.74" r="2.47"/><path class="cls-4" d="M394.43,305.22a3.48,3.48,0,1,1,3.47-3.48A3.48,3.48,0,0,1,394.43,305.22Zm0-5a1.48,1.48,0,1,0,1.47,1.47A1.48,1.48,0,0,0,394.43,300.27Z"/><circle class="cls-4" cx="368.8" cy="276.12" r="2.47"/><path class="cls-4" d="M368.8,279.59a3.48,3.48,0,1,1,3.47-3.47A3.47,3.47,0,0,1,368.8,279.59Zm0-4.95a1.48,1.48,0,1,0,1.47,1.48A1.47,1.47,0,0,0,368.8,274.64Z"/><path class="cls-3" d="M286.73,374.3c-8.16,0-14.8-5.89-14.8-13.13a1,1,0,0,1,2,0c0,6.13,5.74,11.13,12.8,11.13s12.8-5,12.8-11.13S293.78,350,286.73,350c-8.16,0-14.8-5.89-14.8-13.13s6.64-13.13,14.8-13.13,14.8,5.89,14.8,13.13a1,1,0,1,1-2,0c0-6.14-5.75-11.13-12.8-11.13s-12.8,5-12.8,11.13S279.67,348,286.73,348c8.16,0,14.8,5.89,14.8,13.13S294.89,374.3,286.73,374.3Z"/><path class="cls-3" d="M286.73,385.79a1,1,0,0,1-1-1V313.28a1,1,0,0,1,2,0v71.51A1,1,0,0,1,286.73,385.79Z"/><circle class="cls-3" cx="286.73" cy="312.62" r="2.04"/><path class="cls-3" d="M286.73,315.66a3,3,0,1,1,3-3A3,3,0,0,1,286.73,315.66Zm0-4.08a1,1,0,1,0,1,1A1,1,0,0,0,286.73,311.58Z"/><circle class="cls-3" cx="286.73" cy="384.79" r="2.04"/><path class="cls-3" d="M286.73,387.83a3,3,0,1,1,3-3A3,3,0,0,1,286.73,387.83Zm0-4.07a1,1,0,1,0,1,1A1,1,0,0,0,286.73,383.76Z"/><circle class="cls-3" cx="272.93" cy="361.17" r="2.04"/><path class="cls-3" d="M272.93,364.21a3,3,0,1,1,3-3A3,3,0,0,1,272.93,364.21Zm0-4.07a1,1,0,1,0,1,1A1,1,0,0,0,272.93,360.14Z"/><circle class="cls-3" cx="300.53" cy="337" r="2.04"/><path class="cls-3" d="M300.53,340a3,3,0,1,1,3-3A3,3,0,0,1,300.53,340Zm0-4.08a1,1,0,1,0,1,1A1,1,0,0,0,300.53,336Z"/><path class="cls-3" d="M713.39,703.92A52.63,52.63,0,1,1,766,651.29a52.05,52.05,0,0,1-10.72,31.77,26.92,26.92,0,0,0,12.31,8.28,1,1,0,0,1,.24,1.78,28.4,28.4,0,0,1-11.9,4.48,28.73,28.73,0,0,1-14.52-1.81A52.38,52.38,0,0,1,713.39,703.92Zm0-103.26a50.63,50.63,0,1,0,27.39,93.17,1,1,0,0,1,.93-.08,26.75,26.75,0,0,0,14,1.87,26.39,26.39,0,0,0,9.32-3.11,28.83,28.83,0,0,1-11.76-8.81,1,1,0,0,1,0-1.24A50.09,50.09,0,0,0,764,651.29,50.68,50.68,0,0,0,713.39,600.66Z"/><circle class="cls-4" cx="579.94" cy="723.88" r="2.47"/><path class="cls-4" d="M579.94,727.36a3.48,3.48,0,1,1,3.48-3.47A3.48,3.48,0,0,1,579.94,727.36Zm0-5a1.48,1.48,0,1,0,1.48,1.48A1.47,1.47,0,0,0,579.94,722.41Z"/><path class="cls-4" d="M605.57,750.51a1,1,0,0,1-1-1V698.26a1,1,0,0,1,2,0v51.25A1,1,0,0,1,605.57,750.51Z"/><path class="cls-4" d="M631.2,724.89H579.94a1,1,0,0,1,0-2H631.2a1,1,0,0,1,0,2Z"/><circle class="cls-4" cx="605.57" cy="749.51" r="2.47"/><path class="cls-4" d="M605.57,753a3.48,3.48,0,1,1,3.48-3.48A3.48,3.48,0,0,1,605.57,753Zm0-5a1.48,1.48,0,1,0,1.48,1.47A1.47,1.47,0,0,0,605.57,748Z"/><circle class="cls-4" cx="605.57" cy="698.26" r="2.47"/><path class="cls-4" d="M605.57,701.73a3.48,3.48,0,1,1,3.48-3.47A3.48,3.48,0,0,1,605.57,701.73Zm0-5a1.48,1.48,0,1,0,1.48,1.48A1.47,1.47,0,0,0,605.57,696.78Z"/><circle class="cls-4" cx="631.2" cy="723.88" r="2.47"/><path class="cls-4" d="M631.2,727.36a3.48,3.48,0,1,1,3.47-3.47A3.48,3.48,0,0,1,631.2,727.36Zm0-5a1.48,1.48,0,1,0,1.47,1.48A1.47,1.47,0,0,0,631.2,722.41Z"/><path class="cls-3" d="M713.27,676.88c-8.16,0-14.8-5.89-14.8-13.13a1,1,0,0,1,2,0c0,6.14,5.75,11.13,12.8,11.13s12.8-5,12.8-11.13-5.74-11.13-12.8-11.13c-8.16,0-14.8-5.89-14.8-13.13s6.64-13.13,14.8-13.13,14.8,5.89,14.8,13.13a1,1,0,0,1-2,0c0-6.14-5.74-11.13-12.8-11.13s-12.8,5-12.8,11.13,5.75,11.13,12.8,11.13c8.16,0,14.8,5.89,14.8,13.13S721.43,676.88,713.27,676.88Z"/><path class="cls-3" d="M713.27,688.38a1,1,0,0,1-1-1V615.86a1,1,0,0,1,2,0v71.52A1,1,0,0,1,713.27,688.38Z"/><circle class="cls-3" cx="713.27" cy="615.21" r="2.04"/><path class="cls-3" d="M713.27,618.24a3,3,0,1,1,3-3A3,3,0,0,1,713.27,618.24Zm0-4.07a1,1,0,1,0,1,1A1,1,0,0,0,713.27,614.17Z"/><circle class="cls-3" cx="713.27" cy="687.38" r="2.04"/><path class="cls-3" d="M713.27,690.42a3,3,0,1,1,3-3A3.05,3.05,0,0,1,713.27,690.42Zm0-4.08a1,1,0,1,0,1,1A1,1,0,0,0,713.27,686.34Z"/><circle class="cls-3" cx="699.47" cy="663.76" r="2.04"/><path class="cls-3" d="M699.47,666.8a3,3,0,1,1,3-3A3,3,0,0,1,699.47,666.8Zm0-4.08a1,1,0,1,0,1,1A1,1,0,0,0,699.47,662.72Z"/><circle class="cls-3" cx="727.07" cy="639.58" r="2.04"/><path class="cls-3" d="M727.07,642.62a3,3,0,1,1,3-3A3,3,0,0,1,727.07,642.62Zm0-4.08a1,1,0,1,0,1,1A1,1,0,0,0,727.07,638.54Z"/></g></svg>