<svg xmlns="http://www.w3.org/2000/svg" viewBox="0 0 503 503"><defs><style>.cls-1{fill:#323232;}.cls-2{fill:#fafafa;}.cls-3{fill:#804cfb;}</style></defs><title>hard_to_monetize</title><g id="Warstwa_3" data-name="Warstwa 3"><rect class="cls-1" x="130.33" y="112.69" width="197.94" height="197.94" rx="11.48"/><path class="cls-2" d="M316.78,311.63h-175a12.49,12.49,0,0,1-12.48-12.48v-175a12.49,12.49,0,0,1,12.48-12.48h175a12.5,12.5,0,0,1,12.48,12.48v175A12.5,12.5,0,0,1,316.78,311.63Zm-175-197.94a10.5,10.5,0,0,0-10.48,10.48v175a10.49,10.49,0,0,0,10.48,10.48h175a10.49,10.49,0,0,0,10.48-10.48v-175a10.5,10.5,0,0,0-10.48-10.48Z"/><path class="cls-1" d="M259.47,249.86a36.26,36.26,0,0,1-59.57-.34c-23.91,10.44-42.33,32.79-49,61l156.77.25C301.16,282.77,283.07,260.5,259.47,249.86Z"/><path class="cls-2" d="M308.94,311.76l-159.29-.25.29-1.23c6.6-27.95,25.13-51,49.56-61.68l.75-.32.47.66a35.36,35.36,0,0,0,29,15.33h.06a35.43,35.43,0,0,0,28.85-15l.48-.66.74.33c24.09,10.86,42.33,33.88,48.77,61.58Zm-156.76-2.25,154.23.25c-6.48-26.27-23.81-48.07-46.62-58.65a37.34,37.34,0,0,1-30,15.16h-.07a37.32,37.32,0,0,1-30.17-15.51C176.43,261.16,158.81,283,152.18,309.51Z"/><path class="cls-2" d="M229.81,266.27h-.07c-17.53,0-32.74-12.39-37-30.07a42.07,42.07,0,0,1-.88-5.1l-.22-1.12a10.58,10.58,0,0,1-2.64.32,11.9,11.9,0,0,1-1.94-23.64L185.58,199A46.61,46.61,0,0,1,198,157.19a44.49,44.49,0,0,1,31.92-13.44h.07c24.93.05,45.18,20.72,45.14,46.09,0,2.1-.87,7.84-2.57,17.06A11.9,11.9,0,0,1,270,230.43h0a10.49,10.49,0,0,1-2-.2l-.22,1.06a40.55,40.55,0,0,1-.86,4.94l0,.09h0C262.53,254,247.31,266.27,229.81,266.27Zm-37.37-38.56a1,1,0,0,1,.5.14,1,1,0,0,1,.48.67l.44,2.27a42.3,42.3,0,0,0,.85,4.94c4,16.78,18.43,28.52,35,28.54h.06c16.58,0,31-11.68,35.06-28.42v0a.11.11,0,0,0,0-.05,40.74,40.74,0,0,0,.84-4.78l.44-2.16a1,1,0,0,1,1.24-.76,8.42,8.42,0,0,0,2.56.37,9.9,9.9,0,0,0,1.24-19.72,1,1,0,0,1-.68-.4,1,1,0,0,1-.18-.78c2.25-12.06,2.72-16.28,2.73-17.69,0-24.27-19.32-44.05-43.14-44.09h-.07a42.55,42.55,0,0,0-30.5,12.84,44.14,44.14,0,0,0-12.71,31.11,44.79,44.79,0,0,0,.88,8.91l1.72,8.72a1,1,0,0,1-.19.8,1,1,0,0,1-.72.39A9.9,9.9,0,0,0,189,228.3h0a9.56,9.56,0,0,0,3.07-.54A1.19,1.19,0,0,1,192.44,227.71Z"/><path class="cls-2" d="M199.27,214.44a1,1,0,0,1-.5-.14l-10.44-6a1,1,0,0,1,1-1.73l10.45,6a1,1,0,0,1-.5,1.87Z"/><path class="cls-2" d="M213.8,228.73h0a15.27,15.27,0,0,1,0-30.54h0a15.27,15.27,0,0,1,0,30.54Zm0-28.54a13.27,13.27,0,1,0,0,26.54h0a13.27,13.27,0,0,0,0-26.54Z"/><path class="cls-2" d="M247.66,228.79h0a15.28,15.28,0,0,1,0-30.55h0a15.28,15.28,0,0,1,0,30.55Zm0-28.55a13.28,13.28,0,0,0,0,26.55h0a13.28,13.28,0,0,0,0-26.55Z"/><path class="cls-2" d="M261.93,214.54a1,1,0,0,1-.49-1.87l8.91-5.1a1,1,0,0,1,1,1.73l-8.91,5.11A1,1,0,0,1,261.93,214.54Z"/><path class="cls-2" d="M221,162.07a1,1,0,0,1-.56-.17,1,1,0,0,1-.27-1.38A82.48,82.48,0,0,1,235.27,144a1,1,0,1,1,1.29,1.53,80.32,80.32,0,0,0-14.74,16.1A1,1,0,0,1,221,162.07Z"/><path class="cls-2" d="M189.78,195.33h-.41a1,1,0,0,1-1-1,1,1,0,0,1,1-1h0c7.57.11,13.13-3.27,16.4-10.08a29.6,29.6,0,0,0,2.7-10.49A1,1,0,0,1,210,172c7.3,4.68,17.29,7.63,22.36,7.69,4.66.05,8.75-1.29,11.56-3.79a11.63,11.63,0,0,0,3.87-8.12l0-.38a1,1,0,0,1,.29-.78,1,1,0,0,1,.78-.29,24.45,24.45,0,0,0,15-3.29c7.06-4.39,12.26-14.47,8.42-21.9-2-3.89-4.91-6.23-8.63-7-6.92-1.39-16.82,2.77-27.14,11.41a1,1,0,0,1-1.29-1.53c10.79-9,21.29-13.36,28.83-11.84,4.33.87,7.7,3.57,10,8,4.41,8.53-1.16,19.56-9.13,24.52a26.12,26.12,0,0,1-15.17,3.65,13.75,13.75,0,0,1-4.51,9c-3.18,2.83-7.74,4.36-12.91,4.3-5.73-.06-15.28-3.2-22-7.16C209.68,179.67,206.31,195.33,189.78,195.33Z"/><path class="cls-2" d="M234.83,235.52a1.45,1.45,0,0,1-.28,0L226.08,233a1,1,0,1,1,.56-1.92l6.92,2-6.45-35.58a1,1,0,0,1,.81-1.16,1,1,0,0,1,1.16.81l6.74,37.17a1,1,0,0,1-.32.92A1,1,0,0,1,234.83,235.52Z"/><path class="cls-2" d="M231.42,245.32h0a15.92,15.92,0,0,1-11.22-4.17,1,1,0,1,1,1.41-1.42,14.13,14.13,0,0,0,9.81,3.59,1,1,0,0,1,1,1A1,1,0,0,1,231.42,245.32Z"/><path class="cls-2" d="M231.45,245.32a1,1,0,0,1-1-1,1,1,0,0,1,1-1h0a14.17,14.17,0,0,0,9.8-3.56,1,1,0,0,1,1.41,0,1,1,0,0,1,0,1.42A16,16,0,0,1,231.45,245.32Z"/><ellipse class="cls-2" cx="213.54" cy="213.46" rx="4.42" ry="3.19" transform="translate(-0.26 426.66) rotate(-89.91)"/><ellipse class="cls-2" cx="247.4" cy="213.52" rx="4.42" ry="3.19" transform="translate(33.49 460.57) rotate(-89.91)"/><path class="cls-2" d="M364.57,193.21a14,14,0,0,1-7.65-2.34,13.74,13.74,0,0,1-5.73-7.76,10.76,10.76,0,0,1,1.3-8.89,1,1,0,1,1,1.67,1.11,8.77,8.77,0,0,0-1,7.26A11.66,11.66,0,0,0,358,189.2c5,3.31,11.41,2.46,14.28-1.88a8.8,8.8,0,0,0,1-7.26,11.65,11.65,0,0,0-4.9-6.61,13.69,13.69,0,0,1-5.74-7.75,10.57,10.57,0,0,1,9-13.57,14.06,14.06,0,0,1,15.12,10,10.76,10.76,0,0,1-1.3,8.89,1,1,0,0,1-1.67-1.11,8.84,8.84,0,0,0,1-7.26A12.06,12.06,0,0,0,372,154.11a8.57,8.57,0,0,0-7.32,11.06,11.67,11.67,0,0,0,4.91,6.61,13.63,13.63,0,0,1,5.73,7.75,10.75,10.75,0,0,1-1.3,8.89A11.05,11.05,0,0,1,364.57,193.21Z"/><path class="cls-2" d="M353.68,196.78a1,1,0,0,1-.55-.17,1,1,0,0,1-.28-1.39l30.61-46.32a1,1,0,1,1,1.67,1.11l-30.61,46.32A1,1,0,0,1,353.68,196.78Z"/><path class="cls-2" d="M94.4,339.7a13.12,13.12,0,0,1-2.16-.18,10.75,10.75,0,0,1-7.51-4.92,1,1,0,0,1,.33-1.38,1,1,0,0,1,1.37.33,8.8,8.8,0,0,0,6.15,4,11.7,11.7,0,0,0,8.06-1.66c5.11-3.15,7-9.31,4.32-13.74s-9.11-5.49-14.21-2.34c-6,3.72-13.66,2.38-17-3s-1.08-12.77,5-16.49a13.67,13.67,0,0,1,9.44-1.93,10.75,10.75,0,0,1,7.52,4.93A1,1,0,0,1,94,304.37a8.79,8.79,0,0,0-6.14-4A11.68,11.68,0,0,0,79.8,302c-5.1,3.14-7,9.3-4.31,13.74s9.1,5.48,14.21,2.34c6-3.73,13.65-2.38,17,3s1.08,12.77-5,16.49A13.93,13.93,0,0,1,94.4,339.7Z"/><path class="cls-2" d="M104.77,343.6a1,1,0,0,1-.85-.48l-29.1-47.28a1,1,0,0,1,.33-1.38,1,1,0,0,1,1.37.33l29.11,47.29a1,1,0,0,1-.33,1.37A1,1,0,0,1,104.77,343.6Z"/><circle class="cls-2" cx="330.44" cy="304.63" r="68.5"/><circle class="cls-1" cx="334.12" cy="294.68" r="68.5"/><path class="cls-2" d="M334.12,364.18a69.5,69.5,0,1,1,49.15-20.35A69.05,69.05,0,0,1,334.12,364.18Zm0-137A67.5,67.5,0,1,0,381.86,247h0A67.08,67.08,0,0,0,334.12,227.18Z"/><circle class="cls-3" cx="334.12" cy="294.68" r="57.55"/><path class="cls-2" d="M334.12,353.23a58.55,58.55,0,1,1,58.55-58.55A58.61,58.61,0,0,1,334.12,353.23Zm0-115.1a56.55,56.55,0,1,0,56.55,56.55A56.61,56.61,0,0,0,334.12,238.13Z"/><path class="cls-2" d="M334.12,320c-8.16,0-14.81-5.9-14.81-13.14a1,1,0,0,1,2,0c0,6.14,5.75,11.14,12.81,11.14s12.81-5,12.81-11.14-5.74-11.14-12.81-11.14c-8.16,0-14.81-5.89-14.81-13.14S326,269.4,334.12,269.4s14.81,5.9,14.81,13.14a1,1,0,0,1-2,0c0-6.14-5.74-11.14-12.81-11.14s-12.81,5-12.81,11.14,5.75,11.14,12.81,11.14c8.17,0,14.81,5.89,14.81,13.14S342.29,320,334.12,320Z"/><path class="cls-2" d="M334.12,328a1,1,0,0,1-1-1V262.4a1,1,0,0,1,2,0V327A1,1,0,0,1,334.12,328Z"/><rect class="cls-2" x="387.05" y="340.85" width="2" height="15.5" transform="translate(-132.84 376.52) rotate(-45)"/><path class="cls-2" d="M424.11,391.31a6.56,6.56,0,0,1-4.69-1.95l-31.29-31.29,9.38-9.39L428.81,380a6.66,6.66,0,0,1,0,9.39h0A6.59,6.59,0,0,1,424.11,391.31ZM391,358.07,420.83,388a4.64,4.64,0,0,0,6.56-6.56l-29.88-29.88Z"/></g></svg>