<svg xmlns="http://www.w3.org/2000/svg" viewBox="0 0 503 503"><defs><style>.cls-1{fill:#323232;}.cls-2{fill:#fafafa;}.cls-3{fill:#804cfb;}</style></defs><title>hard_to_transfer</title><g id="Warstwa_3" data-name="Warstwa 3"><polygon class="cls-1" points="454.19 298.63 369.05 213.49 369.05 238.43 309.02 238.43 309.02 358.84 369.05 358.84 369.05 383.77 454.19 298.63"/><path class="cls-2" d="M369.05,384.78a1.09,1.09,0,0,1-.39-.08,1,1,0,0,1-.61-.92V359.84H309a1,1,0,0,1-1-1V238.43a1,1,0,0,1,1-1h59V213.49a1,1,0,0,1,1.7-.71l85.15,85.15a1,1,0,0,1,.29.7,1,1,0,0,1-.29.71l-85.15,85.14A1,1,0,0,1,369.05,384.78Zm-59-26.94h59a1,1,0,0,1,1,1v22.52l82.72-82.73-82.72-82.72v22.52a1,1,0,0,1-1,1H310Z"/><path class="cls-2" d="M299.24,348.86h0l-240.45-.42a11,11,0,0,1-11-11l.25-152.72a11,11,0,0,1,11-11h0l240.44.42a11,11,0,0,1,11,11l-.24,152.72a11,11,0,0,1-11,11Zm0-2h0a9,9,0,0,0,9-9l.24-152.72a9,9,0,0,0-9-9l-240.45-.42h0a9,9,0,0,0-9,9l-.25,152.72a9,9,0,0,0,9,9l240.44.42Z"/><path class="cls-2" d="M288.14,215.48h0l-94.22-.18a1,1,0,0,1,0-2h0l94.23.18a1,1,0,0,1,0,2Z"/><path class="cls-2" d="M288.11,233.47h0l-94.22-.18a1,1,0,0,1,0-2h0l94.23.18a1,1,0,0,1,0,2Z"/><path class="cls-2" d="M288.08,251.46h0l-94.22-.18a1,1,0,0,1-1-1,1,1,0,0,1,1-1h0l94.23.18a1,1,0,0,1,0,2Z"/><path class="cls-2" d="M288.06,269.44h0l-94.22-.18a1,1,0,0,1,0-2h0l94.22.18a1,1,0,0,1,1,1A1,1,0,0,1,288.06,269.44Z"/><path class="cls-2" d="M232.42,287.34h0l-38.62-.09a1,1,0,0,1,0-2h0l38.61.09a1,1,0,1,1,0,2Z"/><rect class="cls-2" x="48.82" y="323.95" width="260.43" height="2"/><path class="cls-2" d="M318.74,129a1,1,0,0,1-1-1V114.15a1,1,0,1,1,2,0V128A1,1,0,0,1,318.74,129Z"/><path class="cls-2" d="M318.74,157.37a1,1,0,0,1-1-1V142.56a1,1,0,0,1,2,0v13.81A1,1,0,0,1,318.74,157.37Z"/><path class="cls-2" d="M339.86,136.26H326a1,1,0,0,1,0-2h13.82a1,1,0,0,1,0,2Z"/><path class="cls-2" d="M311.44,136.26H297.63a1,1,0,0,1,0-2h13.81a1,1,0,0,1,0,2Z"/><path class="cls-3" d="M136.91,271.34a20,20,0,0,1-32.78-.19C91,276.9,80.84,289.45,77.18,305l86.25.14C159.85,289.7,149.89,277.19,136.91,271.34Z"/><path class="cls-2" d="M120.59,280.82h0a21.6,21.6,0,0,1-20.78-16.89,22.32,22.32,0,0,1-.49-2.87l0-.13a5.18,5.18,0,0,1-1.1.1,7,7,0,0,1-1.6-13.81l-.74-3.78a26.14,26.14,0,0,1-.51-5.21,25.81,25.81,0,0,1,7.44-18.2,24.94,24.94,0,0,1,17.88-7.52h0a24.91,24.91,0,0,1,17.9,7.58,25.8,25.8,0,0,1,7.38,18.23,74,74,0,0,1-1.34,9.05,7,7,0,0,1-1.92,13.73,7.25,7.25,0,0,1-.77-.05l0,.16a23,23,0,0,1-.48,2.73A21.61,21.61,0,0,1,120.59,280.82ZM100,258.7a1,1,0,0,1,.5.14,1,1,0,0,1,.48.67l.24,1.25a20.43,20.43,0,0,0,.47,2.7,19.6,19.6,0,0,0,18.83,15.36h0a19.6,19.6,0,0,0,18.85-15.3,20.27,20.27,0,0,0,.46-2.62l.25-1.23a1,1,0,0,1,.46-.65,1,1,0,0,1,.78-.11,5,5,0,0,0,1.29.19h0a5,5,0,0,0,.62-10,1,1,0,0,1-.68-.4,1,1,0,0,1-.18-.77c1.23-6.61,1.49-8.9,1.49-9.66a23.81,23.81,0,0,0-6.81-16.82,22.93,22.93,0,0,0-16.47-7h0a23,23,0,0,0-16.46,6.93,24.16,24.16,0,0,0-6.39,21.61l1,4.8a1,1,0,0,1-.19.8,1,1,0,0,1-.72.39,5,5,0,0,0,.35,10,5.31,5.31,0,0,0,1.55-.28A1.19,1.19,0,0,1,100,258.7Z"/><path class="cls-2" d="M103.78,252.3a1.09,1.09,0,0,1-.49-.13l-5.75-3.3a1,1,0,0,1,1-1.74l5.74,3.3a1,1,0,0,1-.5,1.87Z"/><path class="cls-2" d="M111.78,260.16h0a8.85,8.85,0,0,1,0-17.7h0a8.84,8.84,0,0,1,8.84,8.86h0A8.86,8.86,0,0,1,111.78,260.16Zm0-15.7a6.85,6.85,0,1,0,0,13.7h0a6.85,6.85,0,0,0,0-13.7Zm7.85,6.86h0Z"/><path class="cls-2" d="M130.41,260.19h0a8.85,8.85,0,0,1-8.84-8.86,8.84,8.84,0,0,1,8.85-8.84h0a8.84,8.84,0,0,1,8.84,8.86h0A8.86,8.86,0,0,1,130.41,260.19Zm0-15.7a6.85,6.85,0,0,0,0,13.7h0a6.85,6.85,0,0,0,6.85-6.84,6.85,6.85,0,0,0-6.84-6.86Zm7.85,6.86h0Z"/><path class="cls-2" d="M138.26,252.35a1,1,0,0,1-.49-1.86l4.9-2.81a1,1,0,1,1,1,1.73l-4.9,2.81A1,1,0,0,1,138.26,252.35Z"/><path class="cls-2" d="M115.73,223.48a1,1,0,0,1-.83-1.55,45.71,45.71,0,0,1,8.41-9.19,1,1,0,0,1,1.28,1.53,43.74,43.74,0,0,0-8,8.77A1,1,0,0,1,115.73,223.48Z"/><path class="cls-2" d="M98.57,241.78h-.24a1,1,0,0,1-1-1,1,1,0,0,1,1-1,8.75,8.75,0,0,0,8.61-5.29,15.77,15.77,0,0,0,1.44-5.59,1,1,0,0,1,.54-.85,1,1,0,0,1,1,0c3.83,2.45,9.33,4.13,12.07,4.16a8.88,8.88,0,0,0,6-2,6,6,0,0,0,2-4.12l0-.18a1,1,0,0,1,.29-.79,1,1,0,0,1,.79-.29,13,13,0,0,0,8-1.74c3.72-2.32,6.47-7.59,4.47-11.46a6.26,6.26,0,0,0-4.43-3.61c-3.69-.74-9,1.52-14.56,6.18a1,1,0,1,1-1.28-1.53c6-5.06,12-7.47,16.23-6.61a8.25,8.25,0,0,1,5.82,4.65c2.54,4.91-.63,11.24-5.19,14.08A14.69,14.69,0,0,1,132,227a8,8,0,0,1-2.59,4.82,10.79,10.79,0,0,1-7.4,2.48c-3.06,0-8-1.62-11.77-3.67C109.65,234,107.39,241.78,98.57,241.78Z"/><path class="cls-2" d="M123.35,263.9a1.45,1.45,0,0,1-.28,0l-4.66-1.37a1,1,0,1,1,.56-1.92l3.11.91-3.42-18.86a1,1,0,0,1,2-.36l3.71,20.46a1,1,0,0,1-.32.92A1,1,0,0,1,123.35,263.9Z"/><path class="cls-2" d="M121.47,269.29h0a9.23,9.23,0,0,1-6.49-2.43,1,1,0,0,1,1.41-1.42,7.32,7.32,0,0,0,5.09,1.85,1,1,0,0,1,0,2Z"/><path class="cls-2" d="M121.49,269.29a1,1,0,0,1-1-1,1,1,0,0,1,1-1h0a7.35,7.35,0,0,0,5.08-1.83,1,1,0,0,1,1.41,0,1,1,0,0,1,0,1.42A9.25,9.25,0,0,1,121.49,269.29Z"/><ellipse class="cls-2" cx="111.64" cy="251.31" rx="2.43" ry="1.76" transform="translate(-139.85 362.54) rotate(-89.91)"/><ellipse class="cls-2" cx="130.27" cy="251.34" rx="2.43" ry="1.76" transform="translate(-121.28 381.2) rotate(-89.91)"/><path class="cls-2" d="M163.43,306.1h0L77.18,306a1,1,0,0,1-.79-.38,1,1,0,0,1-.18-.85c3.7-15.69,14-28.59,27.52-34.5a1,1,0,0,1,1.22.34,19,19,0,0,0,15.6,8.25h0a19,19,0,0,0,15.51-8.07,1,1,0,0,1,1.22-.32c13.34,6,23.47,18.89,27.09,34.44a1,1,0,0,1-.2.85A1,1,0,0,1,163.43,306.1Zm-85-2.14,83.7.14c-3.65-14.12-12.87-25.79-24.94-31.51a21,21,0,0,1-16.63,8.23h0a21.26,21.26,0,0,1-16.74-8.43C91.56,278,82.18,289.72,78.46,304Z"/><path class="cls-2" d="M174.76,305.78H65.85a1,1,0,0,1-1-1V195.87a1,1,0,0,1,1-1H174.76a1,1,0,0,1,1,1V304.78A1,1,0,0,1,174.76,305.78Zm-107.91-2H173.76V196.87H66.85Z"/><polygon class="cls-2" points="339.43 268.44 309.17 268.44 309.17 238.57 339.43 268.44"/><path class="cls-2" d="M339.43,269.44H309.17a1,1,0,0,1-1-1V238.57a1,1,0,0,1,1.71-.72l30.25,29.88a1,1,0,0,1-.7,1.71Zm-29.26-2H337L310.17,241Z"/><rect class="cls-3" x="219.02" y="268.44" width="120.41" height="120.41"/><path class="cls-2" d="M339.43,389.85H219a1,1,0,0,1-1-1V268.44a1,1,0,0,1,1-1H339.43a1,1,0,0,1,1,1V388.85A1,1,0,0,1,339.43,389.85Zm-119.41-2H338.43V269.44H220Z"/><path class="cls-2" d="M279.22,365.54a36.9,36.9,0,1,1,36.9-36.89A36.93,36.93,0,0,1,279.22,365.54Zm0-71.79a34.9,34.9,0,1,0,34.9,34.9A34.94,34.94,0,0,0,279.22,293.75Z"/><polygon class="cls-2" points="275.02 340.31 263.3 328.59 264.71 327.18 275.08 337.55 296.96 317.63 298.31 319.11 275.02 340.31"/><path class="cls-2" d="M354.06,174.5a1,1,0,0,1-1-1v-9.29a1,1,0,1,1,2,0v9.29A1,1,0,0,1,354.06,174.5Z"/><path class="cls-2" d="M354.06,193.62a1,1,0,0,1-1-1v-9.29a1,1,0,1,1,2,0v9.29A1,1,0,0,1,354.06,193.62Z"/><path class="cls-2" d="M368.27,179.42H359a1,1,0,0,1,0-2h9.29a1,1,0,0,1,0,2Z"/><path class="cls-2" d="M349.15,179.42h-9.29a1,1,0,0,1,0-2h9.29a1,1,0,0,1,0,2Z"/></g></svg>