<svg xmlns="http://www.w3.org/2000/svg" viewBox="0 0 503 503"><defs><style>.cls-1{fill:#323232;}.cls-2{fill:#fafafa;}.cls-3{fill:#804cfb;}</style></defs><title>hard_to_control</title><g id="Warstwa_3" data-name="Warstwa 3"><path class="cls-1" d="M119,377l.39-200.78a9.32,9.32,0,0,1,9.33-9.3l152.08.25a9.31,9.31,0,0,1,9.3,9.33l-.39,200.78a9.32,9.32,0,0,1-9.33,9.3l-152.08-.25A9.32,9.32,0,0,1,119,377Z"/><path class="cls-2" d="M280.35,387.53h0l-152.07-.25A10.32,10.32,0,0,1,118,377h0l.39-200.78a10.33,10.33,0,0,1,10.32-10.3h0l152.07.25a10.32,10.32,0,0,1,10.3,10.33l-.39,200.78A10.33,10.33,0,0,1,280.35,387.53ZM120,377a8.33,8.33,0,0,0,8.31,8.33l152.07.25h0a8.33,8.33,0,0,0,8.32-8.31l.39-200.77a8.32,8.32,0,0,0-8.31-8.33l-152.07-.25h0a8.33,8.33,0,0,0-8.32,8.3L120,377Z"/><path class="cls-1" d="M158.86,345.47l.39-200.78a9.31,9.31,0,0,1,9.33-9.3l152.07.25A9.3,9.3,0,0,1,330,145l-.39,200.78a9.31,9.31,0,0,1-9.33,9.3l-152.07-.25A9.31,9.31,0,0,1,158.86,345.47Z"/><path class="cls-2" d="M320.25,356.05h0l-152.07-.25a10.32,10.32,0,0,1-10.3-10.33h0l.39-200.78a10.31,10.31,0,0,1,10.31-10.3h0l152.07.25A10.32,10.32,0,0,1,331,145l-.39,200.78A10.33,10.33,0,0,1,320.25,356.05ZM159.86,345.47a8.31,8.31,0,0,0,8.3,8.33l152.07.25h0a8.31,8.31,0,0,0,8.31-8.3L329,145a8.31,8.31,0,0,0-8.3-8.33l-152.07-.25h0a8.31,8.31,0,0,0-8.31,8.3l-.39,200.78Z"/><path class="cls-2" d="M313.94,267.4h0l-132.47-.21a1,1,0,0,1,0-2h0L314,265.4a1,1,0,0,1,0,2Z"/><path class="cls-2" d="M313.92,282h0l-132.47-.21a1,1,0,0,1-1-1,1,1,0,0,1,1-1l132.47.21a1,1,0,1,1,0,2Z"/><path class="cls-2" d="M313.9,296.58h0l-132.46-.22a1,1,0,0,1-1-1,1,1,0,0,1,1-1l132.47.22a1,1,0,0,1,0,2Z"/><path class="cls-2" d="M269.61,311.06h0L181.4,311a1,1,0,0,1,0-2h0l88.2.11a1,1,0,0,1,0,2Z"/><path class="cls-1" d="M211.87,120.62h65.06a0,0,0,0,1,0,0v26a4.23,4.23,0,0,1-4.23,4.23H216.1a4.23,4.23,0,0,1-4.23-4.23v-26A0,0,0,0,1,211.87,120.62Z"/><path class="cls-2" d="M272.71,151.87H216.1a5.24,5.24,0,0,1-5.23-5.23v-26a1,1,0,0,1,1-1h65.07a1,1,0,0,1,1,1v26A5.24,5.24,0,0,1,272.71,151.87Zm-59.84-30.25v25a3.23,3.23,0,0,0,3.23,3.23h56.61a3.23,3.23,0,0,0,3.23-3.23v-25Z"/><polygon class="cls-2" points="196.44 135.45 211.28 135.45 211.28 120.62 196.44 135.45"/><path class="cls-2" d="M211.28,136.45H196.44a1,1,0,0,1-.7-1.7l14.83-14.84a1,1,0,0,1,1.71.71v14.83A1,1,0,0,1,211.28,136.45Zm-12.42-2h11.42V123Z"/><path class="cls-3" d="M257.05,225.63l-.42.55-.26.31c-.14.18-.29.35-.44.52l-.27.28c-.26.27-.53.54-.81.79l-.36.32-.46.38-.47.35c-.21.16-.42.31-.64.45l-.6.38-.43.25-.63.33-.37.17c-.32.15-.65.29-1,.41l-.35.13-.79.25-.34.09c-.36.1-.73.18-1.11.25l-.22,0-1,.13-.33,0c-.4,0-.8.05-1.21.05h0q-.6,0-1.2-.06l-.33,0c-.32,0-.64-.08-.95-.13l-.26,0c-.37-.07-.74-.15-1.1-.25l-.34-.1-.77-.25-.39-.14a10.2,10.2,0,0,1-1-.4l-.4-.2-.58-.3-.49-.29c-.15-.09-.3-.18-.44-.28-.32-.2-.62-.42-.92-.65l-.29-.22-.55-.46-.24-.21a17.48,17.48,0,0,1-1.67-1.77l-.12-.16-.5-.66h0a35.3,35.3,0,0,0-16.33,15,43.23,43.23,0,0,0,26.43,10.76h4.17A43.2,43.2,0,0,0,273,240.54,35.34,35.34,0,0,0,257.05,225.63Z"/><path class="cls-2" d="M246.4,252.29h-4.21a44.5,44.5,0,0,1-27.09-11,1,1,0,0,1-.21-1.24,36.43,36.43,0,0,1,16.8-15.47,1,1,0,0,1,1.21.34c.16.21.31.42.47.62l.09.11a15.33,15.33,0,0,0,1.6,1.7l.22.2.51.43.28.21c.28.21.56.41.85.6l.42.27c.15.09.3.18.46.26s.35.19.53.28l.15.08.23.11c.29.14.59.26.9.38l.3.11.78.25.32.09c.34.09.68.17,1,.24l.23,0c.3.05.59.09.89.12l.31,0c.37,0,.75.05,1.12.05h0c.37,0,.74,0,1.11-.05l.31,0q.45,0,.9-.12l.11,0h.1c.35-.06.7-.14,1-.23l.31-.09c.25-.07.5-.15.74-.24l.33-.11.92-.38.34-.17.59-.31.4-.23.56-.35.6-.42.43-.33.44-.36.34-.3c.26-.24.51-.48.76-.74l.25-.26.42-.49.24-.29c.14-.18.27-.35.39-.52a1,1,0,0,1,1.22-.32,36,36,0,0,1,16.44,15.33,1,1,0,0,1-.2,1.24A44.46,44.46,0,0,1,246.4,252.29Zm-29.36-12a42.5,42.5,0,0,0,25.2,10h4.12a42.4,42.4,0,0,0,25.39-10,34.58,34.58,0,0,0-14.4-13.46l-.21.26c-.15.19-.31.37-.47.55l-.2.21-.09.09c-.27.29-.56.57-.86.84l-.38.34-.49.41-.49.37c-.23.17-.46.32-.69.48l-.64.4c-.15.09-.3.18-.46.26s-.44.24-.67.35l-.13.06-.26.13c-.34.16-.69.3-1.05.44l-.37.13c-.28.1-.56.19-.85.27l-.36.1c-.38.1-.78.19-1.18.27l-.17,0c-.41.07-.75.12-1.1.15l-.35,0c-.43,0-.87.06-1.29.06s-.86,0-1.28-.06l-.36,0-1-.14-.27-.05c-.4-.07-.79-.16-1.18-.26l-.36-.11-.82-.26-.42-.15c-.35-.14-.69-.28-1-.43l-.31-.16-.12-.06-.62-.32-.51-.3-.48-.3c-.33-.22-.66-.45-1-.69l-.31-.23-.59-.49-.25-.23a17.49,17.49,0,0,1-1.77-1.88l-.13-.16,0-.05A34.52,34.52,0,0,0,217,240.32Z"/><path class="cls-2" d="M246.13,233a1,1,0,0,1-1-.9V232a1,1,0,0,1,.9-1q.45,0,.9-.12a1,1,0,0,1,.33,2c-.34.06-.68.11-1,.14Z"/><path class="cls-2" d="M247.32,232.84a1,1,0,0,1-1-.82,1.1,1.1,0,0,1,0-.18,1,1,0,0,1,.82-1c.35-.06.7-.14,1-.23a1,1,0,0,1,1.22.71,1.13,1.13,0,0,1,0,.25,1,1,0,0,1-.74,1c-.39.1-.79.19-1.19.27Z"/><path class="cls-2" d="M248.76,232.5a1,1,0,0,1-1-.73,1.24,1.24,0,0,1,0-.27,1,1,0,0,1,.72-1c.25-.07.5-.15.74-.24a1,1,0,0,1,1.28.62,1.26,1.26,0,0,1,.05.33,1,1,0,0,1-.67.94c-.28.1-.56.19-.85.27A.86.86,0,0,1,248.76,232.5Z"/><path class="cls-2" d="M244.61,233.09h0a1,1,0,0,1-1-1h0a1,1,0,0,1,1-1h0c.37,0,.74,0,1.11-.05a1,1,0,0,1,1.07.92.22.22,0,0,1,0,.08,1,1,0,0,1-.93,1C245.46,233.07,245,233.09,244.61,233.09Z"/><path class="cls-2" d="M244.59,233.09h0c-.43,0-.86,0-1.28-.06a1,1,0,0,1-.92-1V232a1,1,0,0,1,1.08-.91c.37,0,.75.05,1.12.05a1,1,0,0,1,1,1h0A1,1,0,0,1,244.59,233.09Z"/><path class="cls-2" d="M240.41,232.48a.86.86,0,0,1-.28,0l-.41-.12-.41-.14a1,1,0,0,1,.66-1.89l.35.12.37.11a1,1,0,0,1-.28,2Z"/><path class="cls-2" d="M241.85,232.83a.55.55,0,0,1-.18,0c-.39-.07-.78-.16-1.17-.26h0a1,1,0,0,1-.71-1.23,1,1,0,0,1,1.23-.71c.34.09.68.17,1,.24a1,1,0,0,1,.81,1,1.09,1.09,0,0,1,0,.18A1,1,0,0,1,241.85,232.83Z"/><path class="cls-2" d="M243.06,233H243l-1-.14h0a1,1,0,0,1-.82-1.16,1,1,0,0,1,1.16-.81c.29,0,.58.09.88.12a1,1,0,0,1,.9,1s0,.07,0,.1A1,1,0,0,1,243.06,233Z"/><path class="cls-2" d="M251.26,231.54a1,1,0,0,1-.45-1.9l.6-.31a1,1,0,0,1,1.35.39,1,1,0,0,1,.13.48,1,1,0,0,1-.52.88c-.22.12-.44.24-.67.35h0A1.06,1.06,0,0,1,251.26,231.54Z"/><path class="cls-2" d="M256.37,227.49a1,1,0,0,1-.64-.23,1,1,0,0,1-.36-.77,1,1,0,0,1,.24-.64l.24-.29a1,1,0,0,1,1.78.62,1,1,0,0,1-.22.62l-.27.33A1,1,0,0,1,256.37,227.49Z"/><path class="cls-2" d="M254.49,229.4a1,1,0,0,1-.65-1.76l.32-.28h0a1,1,0,0,1,1.35,1.48l-.39.34A1,1,0,0,1,254.49,229.4Zm.36-1.32.68.74Z"/><path class="cls-2" d="M255.66,228.29a1,1,0,0,1-.72-1.69l.25-.26a1,1,0,0,1,1.74.67,1,1,0,0,1-.26.67l-.2.21-.09.09A1,1,0,0,1,255.66,228.29Z"/><path class="cls-2" d="M244.41,252.34c-.76,0-1.52,0-2.27-.05a1,1,0,0,1,.05-2h4.17a1,1,0,0,1,1,1,1,1,0,0,1-1,1C245.74,252.32,245.07,252.34,244.41,252.34Z"/><path class="cls-2" d="M249.91,232.12a1,1,0,0,1-.93-.65.84.84,0,0,1-.07-.35,1,1,0,0,1,.65-.93c.31-.12.62-.25.92-.39a1,1,0,0,1,.83,1.82h0c-.34.16-.69.3-1.05.44A1,1,0,0,1,249.91,232.12Z"/><path class="cls-2" d="M239.25,232.09a1.13,1.13,0,0,1-.36-.06c-.35-.14-.69-.28-1-.43a1,1,0,0,1-.58-.91,1,1,0,0,1,.09-.42,1,1,0,0,1,1.33-.49c.29.14.59.26.9.38a1,1,0,0,1,.64.93.92.92,0,0,1-.07.36A1,1,0,0,1,239.25,232.09Z"/><path class="cls-2" d="M252.32,231a1,1,0,0,1-.86-.49.94.94,0,0,1-.14-.51,1,1,0,0,1,.49-.86h0l.55-.35a1,1,0,0,1,1.38.28,1,1,0,0,1-.28,1.39l-.64.4A1,1,0,0,1,252.32,231Z"/><path class="cls-2" d="M253.57,230.13a1,1,0,0,1-.81-.4,1,1,0,0,1-.2-.59,1,1,0,0,1,.41-.81l.43-.33a1,1,0,1,1,1.25,1.57l-.49.37A1,1,0,0,1,253.57,230.13Z"/><path class="cls-2" d="M231.94,226.94l.77-.63-.77.63.77-.63-.8.59-.1-.12a1,1,0,1,1,1.56-1.25l.09.11-.75.67Z"/><path class="cls-2" d="M234.62,229.29a1,1,0,0,1-.65-.24l-.26-.23a1,1,0,0,1-.33-.74,1,1,0,0,1,.27-.68,1,1,0,0,1,1.41-.06l.22.2a1,1,0,0,1,.34.75,1,1,0,0,1-.24.66A1,1,0,0,1,234.62,229.29Z"/><path class="cls-2" d="M236.82,230.9a1,1,0,0,1-.51-.14l-.25-.15-.23-.15a1,1,0,0,1,1.09-1.68l.25.16.17.11a1,1,0,0,1-.52,1.85Z"/><path class="cls-2" d="M259.58,190.28a1,1,0,0,1-.82-.42,17.53,17.53,0,0,0-11.89-7.13,1,1,0,0,1-.52-1.75l.19-.17c2.73-2.29,8-6,12.56-5.08a6.5,6.5,0,0,1,4.6,3.67c1.93,3.72-.29,8.36-3.54,10.69A1,1,0,0,1,259.58,190.28Zm-10.26-9.12a19.67,19.67,0,0,1,10.43,6.69c2.09-1.92,3.44-5.09,2.17-7.54a4.57,4.57,0,0,0-3.21-2.62C256.34,177.21,252.92,178.5,249.32,181.16Z"/><path class="cls-2" d="M235.46,230a1,1,0,0,1-.6-.21l-.31-.23a1,1,0,0,1-.38-.79,1,1,0,0,1,.22-.62,1,1,0,0,1,1.4-.16l.28.21a1,1,0,0,1,.39.79,1,1,0,0,1-.2.61A1,1,0,0,1,235.46,230Z"/><path class="cls-2" d="M237.89,231.49a1,1,0,0,1-.45-.11h0l-.21-.1-.41-.22a1,1,0,0,1,1-1.75l.36.2.17.08a1,1,0,0,1-.44,1.9Z"/><path class="cls-2" d="M273,241.54h-.17a1,1,0,0,1-.7-.49,34.59,34.59,0,0,0-15.53-14.5,1,1,0,0,1-.56-.65,1,1,0,0,1,.16-.85,15.42,15.42,0,0,0,2.51-5.42,17,17,0,0,0,.35-2l.19-1a1,1,0,0,1,.45-.65,1,1,0,0,1,.79-.11,3.67,3.67,0,0,0,.91.14h0a3.58,3.58,0,0,0,3.58-3.58A3.58,3.58,0,0,0,261.9,209a1,1,0,0,1-.68-.4,1,1,0,0,1-.18-.78,58.52,58.52,0,0,0,1.13-7.31,17.9,17.9,0,0,0-3.41-10.61,1,1,0,0,1-.17-.75,1,1,0,0,1,.4-.65c2.51-1.79,4.34-5.42,2.93-8.15a4.57,4.57,0,0,0-3.21-2.62c-2.7-.54-6.76,1.2-10.89,4.66l-.09.07-.08.08a1.05,1.05,0,0,1-.78.23,16.83,16.83,0,0,0-2.2-.15h0a17.72,17.72,0,0,0-17.53,17.84,18.52,18.52,0,0,0,.36,3.62l.72,3.65a1,1,0,0,1-.19.8,1,1,0,0,1-.72.39,3.57,3.57,0,0,0,.24,7.13h0a3.64,3.64,0,0,0,1.11-.19,1,1,0,0,1,.81.08,1,1,0,0,1,.48.67l.19,1a16,16,0,0,0,.35,2v0a15.6,15.6,0,0,0,2.42,5.31,1,1,0,0,1,.15.84,1,1,0,0,1-.56.65A34.52,34.52,0,0,0,216.63,241a1,1,0,0,1-1.53.25,44.38,44.38,0,1,1,58.6,0A1,1,0,0,1,273,241.54Zm-14.51-16.32A36,36,0,0,1,273.27,239a42.38,42.38,0,1,0-57.75,0,36.61,36.61,0,0,1,15.09-13.91,17.54,17.54,0,0,1-2.08-5v0a19.11,19.11,0,0,1-.35-2,2.25,2.25,0,0,1-.64,0,5.58,5.58,0,0,1-5.57-5.59,5.58,5.58,0,0,1,4.08-5.34l-.53-2.65a21,21,0,0,1-.39-4,19.72,19.72,0,0,1,19.53-19.83h0a19.61,19.61,0,0,1,2,.11c2.77-2.29,7.94-5.86,12.42-5a6.5,6.5,0,0,1,4.6,3.67c1.77,3.42.05,7.61-2.77,10.08a19.92,19.92,0,0,1,3.24,11c0,.33,0,1.32-1,6.73A5.57,5.57,0,0,1,267,212.5a5.58,5.58,0,0,1-5.58,5.57l-.39,0a16.2,16.2,0,0,1-.36,2A17.4,17.4,0,0,1,258.53,225.22Z"/><path class="cls-2" d="M244.61,233.09c-.43,0-.87,0-1.3-.06l-.36,0-1-.14-.27-.05c-.4-.07-.79-.16-1.17-.26l-.29-.08-.9-.29-.42-.15c-.35-.14-.69-.28-1-.43l-.31-.16-.12-.06c-.21-.1-.41-.21-.61-.32l-.53-.3-.41-.27c-.39-.25-.72-.48-1-.72l-.31-.23-.59-.49-.25-.23a18.42,18.42,0,0,1-1.77-1.88l-.13-.16q-.28-.36-.54-.72a17.3,17.3,0,0,1-2.74-6v0a19.11,19.11,0,0,1-.35-2,2.25,2.25,0,0,1-.64,0,5.58,5.58,0,0,1-5.57-5.59,5.58,5.58,0,0,1,4.08-5.34l-.53-2.65a21,21,0,0,1-.39-4,19.72,19.72,0,0,1,19.53-19.83h0a18.93,18.93,0,0,1,2.45.17h0a19.53,19.53,0,0,1,13.26,7.94h0a19.94,19.94,0,0,1,3.78,11.79c0,.33,0,1.32-1,6.73A5.57,5.57,0,0,1,267,212.5a5.58,5.58,0,0,1-5.58,5.57l-.39,0a16.2,16.2,0,0,1-.36,2v0a17.6,17.6,0,0,1-2.84,6.13l-.43.56-.29.35c-.15.19-.31.37-.47.55l-.2.21-.09.09c-.27.29-.56.57-.85.84l-.39.34-.49.41-.49.37c-.23.17-.46.32-.69.48l-.64.4c-.15.09-.3.18-.46.26l-.67.35-.13.07-.26.12c-.34.16-.69.3-1.05.44l-.37.13c-.28.1-.56.19-.85.27l-.36.1c-.38.1-.78.19-1.18.27l-.17,0c-.41.07-.76.12-1.1.15l-.35,0C245.46,233.07,245,233.09,244.61,233.09ZM230.48,219.6a15.6,15.6,0,0,0,2.42,5.31c.16.21.31.42.47.62l.09.11a15.28,15.28,0,0,0,1.6,1.7l.22.2.51.43.28.21c.28.21.56.41.85.6l.42.27c.15.09.3.18.46.26s.35.19.53.28l.15.08.23.11c.29.14.59.26.9.38l.3.11.77.25.33.09c.34.09.68.17,1,.24l.23,0c.3,0,.59.09.89.12l.31,0c.37,0,.75.05,1.12.05h0c.37,0,.74,0,1.11-.05l.31,0q.45,0,.9-.12l.11,0h.1c.35-.06.7-.14,1-.23l.22-.07a8.38,8.38,0,0,0,.83-.26l.33-.11c.31-.12.62-.25.92-.39l.34-.16.59-.31.4-.23.56-.35.6-.42.43-.33.44-.36.32-.28c.28-.26.53-.5.78-.76l.25-.26.42-.49.24-.29.39-.51a15.46,15.46,0,0,0,2.51-5.43h0a18.16,18.16,0,0,0,.35-2l.19-1a1,1,0,0,1,.45-.65,1,1,0,0,1,.79-.11,3.67,3.67,0,0,0,.91.14h0a3.57,3.57,0,0,0,.78-7l-3.17,2a7,7,0,0,1-7,6.4h0a6.9,6.9,0,0,1-4.93-2l-.15-.15.7,3.84a1.1,1.1,0,0,1,0,.18,1,1,0,0,1-1.28,1l-3.56-1a1,1,0,0,1-.72-1,1.45,1.45,0,0,1,0-.28,1,1,0,0,1,1.24-.68l2,.59-.93-5.16a7,7,0,0,1-6.61,4.73h0A7,7,0,0,1,231,211l-3.72-2.13a3.57,3.57,0,0,0,.29,7.12h0a3.64,3.64,0,0,0,1.11-.19,1,1,0,0,1,.81.08,1,1,0,0,1,.48.67l.19,1a16,16,0,0,0,.35,2Zm29.24.25h0Zm-7.62-14.43a5,5,0,0,0,0,10h0a5,5,0,0,0,5-5h0a5,5,0,0,0-5-5Zm-14.19,0a5,5,0,0,0,0,10h0a5,5,0,0,0,0-10Zm-9.84,1.67,3,1.74a7,7,0,0,1,6.8-5.41h0a7,7,0,0,1,4.94,2.06c.15.16.31.32.45.5l-.39-2.15a1.1,1.1,0,0,1,0-.18,1,1,0,0,1,2-.18l.77,4.26a7.18,7.18,0,0,1,1.51-2.25,7,7,0,0,1,11.71,3.29l2.24-1.39a54.48,54.48,0,0,0,1.05-6.88,17.9,17.9,0,0,0-2.87-9.83,11.23,11.23,0,0,1-5.79,1.42,6.34,6.34,0,0,1-2,3.61,8.47,8.47,0,0,1-5.8,2,22.17,22.17,0,0,1-8.75-2.65c-.64,3.59-3.08,8.48-9.28,8.38a1.13,1.13,0,0,1-.32,0c0,.25.09.49.14.74Zm16.51-24.48a17.72,17.72,0,0,0-17.46,17.84c0,.36,0,.72,0,1.09a1,1,0,0,1,.54-.16h.15c6.88,0,7.26-7.73,7.27-8.07a1,1,0,0,1,.54-.85,1,1,0,0,1,1,.05,21.17,21.17,0,0,0,9.06,3.13h.11a6.47,6.47,0,0,0,4.34-1.44,4.37,4.37,0,0,0,1.43-3V191a1,1,0,0,1,.29-.71,1,1,0,0,1,.79-.29,9.78,9.78,0,0,0,5.45-1,17.56,17.56,0,0,0-10.8-6.22,32.46,32.46,0,0,0-5.55,6.18,1,1,0,0,1-1.84-.55,1,1,0,0,1,.17-.56A33.36,33.36,0,0,1,244.58,182.58Z"/><path class="cls-2" d="M237.91,217.36h0a7,7,0,0,1,0-14h0a7,7,0,0,1,0,14Zm0-12a5,5,0,0,0,0,10h0a5,5,0,0,0,0-10h0Z"/><path class="cls-2" d="M252.1,217.38h0a7,7,0,1,1,0-14,7,7,0,0,1,0,14Zm0-12a5,5,0,0,0,0,10h0a5,5,0,0,0,0-10Z"/><path class="cls-3" d="M252.32,230l-.43.25Z"/><path class="cls-3" d="M232.71,226.31a17.48,17.48,0,0,0,1.67,1.77A18.67,18.67,0,0,1,232.71,226.31Z"/><path class="cls-3" d="M251.26,230.54l-.37.17Z"/><path class="cls-3" d="M256.37,226.49c-.14.18-.29.35-.44.52C256.08,226.84,256.23,226.67,256.37,226.49Z"/><path class="cls-3" d="M256.63,226.18l.42-.55h0Z"/><path class="cls-3" d="M253.56,229.13c-.21.16-.42.31-.64.45C253.14,229.44,253.35,229.29,253.56,229.13Z"/><path class="cls-3" d="M254.85,228.08c.28-.25.55-.52.81-.79C255.4,227.56,255.13,227.83,254.85,228.08Z"/><path class="cls-3" d="M254.49,228.4l-.46.38Z"/><path class="cls-3" d="M239.64,231.23l-.39-.14Z"/><path class="cls-3" d="M236.38,229.62c-.32-.2-.62-.42-.92-.65C235.76,229.2,236.06,229.42,236.38,229.62Z"/><path class="cls-3" d="M242.11,231.87l-.26,0Z"/><path class="cls-3" d="M243.39,232l-.33,0Z"/><path class="cls-3" d="M237.31,230.19l-.49-.29Z"/><path class="cls-3" d="M238.29,230.69l-.4-.2Z"/><path class="cls-3" d="M240.75,231.58l-.34-.1Z"/><path class="cls-3" d="M247.32,231.84l-.22,0Z"/><path class="cls-3" d="M249.91,231.12l-.35.13Z"/><path class="cls-3" d="M248.77,231.5l-.34.09Z"/><path class="cls-3" d="M232.59,226.15l-.5-.66Z"/><path class="cls-3" d="M246.13,232l-.33,0Z"/><path class="cls-3" d="M235.17,228.75l-.55-.46Z"/><polygon class="cls-2" points="329.79 252.39 329.79 280.4 384.04 280.4 329.79 252.39"/><path class="cls-2" d="M384,281.4H329.79a1,1,0,0,1-1-1v-28a1,1,0,0,1,1.46-.89l54.25,28a1,1,0,0,1-.46,1.89Zm-53.25-2h49.13L330.79,254Z"/><rect class="cls-3" x="259.08" y="280.99" width="124.96" height="124.37"/><path class="cls-2" d="M384,406.36h-125a1,1,0,0,1-1-1V281a1,1,0,0,1,1-1H384a1,1,0,0,1,1,1V405.36A1,1,0,0,1,384,406.36Zm-124-2H383V282h-123Z"/><path class="cls-2" d="M314.64,359.78a1,1,0,0,1-.71-.3l-17.07-17.07a1,1,0,0,1,1.41-1.41l16.36,16.35,30.21-31.07a1,1,0,0,1,1.44,1.4l-30.92,31.79a1,1,0,0,1-.71.31Z"/><path class="cls-2" d="M344.32,123.14a1,1,0,0,1-.73-.33,1,1,0,0,1,.06-1.41l9.06-8.35a1,1,0,0,1,1.35,1.47L345,122.87A1,1,0,0,1,344.32,123.14Z"/><path class="cls-2" d="M367.15,144.59h0l-12.31-.5a1,1,0,0,1,.08-2l12.32.5a1,1,0,0,1,0,2Z"/><path class="cls-2" d="M324.3,111h-.05a1,1,0,0,1-.95-1l.5-12.31a1,1,0,0,1,1-1,1,1,0,0,1,1,1L325.29,110A1,1,0,0,1,324.3,111Z"/></g></svg>