<?xml version="1.0" encoding="UTF-8"?>
<svg xmlns="http://www.w3.org/2000/svg" xmlns:xlink="http://www.w3.org/1999/xlink" width="145pt" height="145pt" viewBox="0 0 145 145" version="1.1">
<g id="surface1">
<path style=" stroke:none;fill-rule:nonzero;fill:rgb(128,66,255);fill-opacity:1;" d="M 108.75 72.5 C 103.746094 72.5 99.6875 76.558594 99.6875 81.5625 C 99.6875 86.566406 103.746094 90.625 108.75 90.625 C 113.753906 90.625 117.8125 86.566406 117.8125 81.5625 C 117.8125 76.558594 113.753906 72.5 108.75 72.5 Z M 131.40625 27.1875 L 126.875 27.1875 L 126.875 22.65625 C 126.875 15.148438 120.789062 9.0625 113.28125 9.0625 L 27.1875 9.0625 C 12.171875 9.0625 0 21.234375 0 36.25 L 0 108.75 C 0 123.765625 12.171875 135.9375 27.1875 135.9375 L 126.875 135.9375 C 136.886719 135.9375 145 127.824219 145 117.8125 L 145 40.78125 C 145 33.273438 138.914062 27.1875 131.40625 27.1875 Z M 135.9375 117.8125 C 135.9375 122.808594 131.871094 126.875 126.875 126.875 L 27.1875 126.875 C 17.191406 126.875 9.0625 118.746094 9.0625 108.75 L 9.0625 36.25 C 9.0625 26.253906 17.191406 18.125 27.1875 18.125 L 113.28125 18.125 C 115.777344 18.125 117.8125 20.160156 117.8125 22.65625 L 117.8125 27.1875 L 31.71875 27.1875 C 29.214844 27.1875 27.1875 29.214844 27.1875 31.71875 C 27.1875 34.222656 29.214844 36.25 31.71875 36.25 L 131.40625 36.25 C 133.902344 36.25 135.9375 38.285156 135.9375 40.78125 Z M 135.9375 117.8125 "/>
</g>
</svg>
