<?xml version="1.0" encoding="utf-8"?>
<!-- Generator: Adobe Illustrator 16.0.0, SVG Export Plug-In . SVG Version: 6.00 Build 0)  -->
<!DOCTYPE svg PUBLIC "-//W3C//DTD SVG 1.1//EN" "http://www.w3.org/Graphics/SVG/1.1/DTD/svg11.dtd">
<svg version="1.1" id="Layer_1" xmlns="http://www.w3.org/2000/svg" xmlns:xlink="http://www.w3.org/1999/xlink" x="0px" y="0px"
	 width="160px" height="160px" viewBox="0 0 160 160" enable-background="new 0 0 160 160" xml:space="preserve">
<g>
	<path fill="#8042FF" d="M76.646,36.036c-10.719,0-19.439,8.72-19.439,19.44v8.7c1.94-1.38,4.04-2.55,6.25-3.5v-4.7
		c0-7.27,5.92-13.18,13.189-13.18c7.271,0,13.181,5.91,13.181,13.18v4.7c2.21,0.95,4.31,2.12,6.25,3.5v-8.7
		C96.076,44.756,87.356,36.036,76.646,36.036z"/>
	<circle fill="#8042FF" stroke="#000000" stroke-miterlimit="10" cx="76.509" cy="88.615" r="7.188"/>
	<ellipse fill="none" stroke="#000000" stroke-miterlimit="10" cx="76.509" cy="100.167" rx="0" ry="4.765"/>
	<g>
		<path fill="#FF0000" stroke="#000000" stroke-miterlimit="10" d="M63.956,51.668"/>
	</g>
	<path d="M76.646,35.036c-11.27,0-20.439,9.17-20.439,20.44v10.67h0.06c0.14-0.13,0.29-0.24,0.44-0.35c0.17-0.13,0.33-0.26,0.5-0.38
		c1.93-1.44,4.03-2.67,6.25-3.65c0.17-0.08,0.34-0.15,0.5-0.22c0.17-0.07,0.33-0.14,0.5-0.2v-5.37c0-6.72,5.471-12.18,12.189-12.18
		c6.721,0,12.181,5.46,12.181,12.18v5.37c0.17,0.06,0.34,0.13,0.5,0.2c0.17,0.07,0.34,0.14,0.5,0.22
		c2.229,0.98,4.319,2.21,6.25,3.65c0.17,0.12,0.33,0.25,0.5,0.38c0.149,0.11,0.3,0.22,0.44,0.35h0.06v-10.67
		C97.076,44.206,87.916,35.036,76.646,35.036z M96.076,64.176c-1.94-1.38-4.04-2.55-6.25-3.5v-4.7c0-7.27-5.91-13.18-13.181-13.18
		c-7.27,0-13.189,5.91-13.189,13.18v4.7c-2.21,0.95-4.31,2.12-6.25,3.5v-8.7c0-10.72,8.721-19.44,19.439-19.44
		c10.711,0,19.431,8.72,19.431,19.44V64.176z"/>
	<g>
		<path fill="#FF0000" stroke="#000000" stroke-miterlimit="10" d="M56.706,66.147"/>
	</g>
	<circle fill="none" stroke="#000000" stroke-miterlimit="10" cx="76.643" cy="91.654" r="33.167"/>
	<line fill="none" x1="64.456" y1="60.266" x2="64.456" y2="59.626"/>
	<line fill="none" x1="88.826" y1="60.266" x2="88.826" y2="57.506"/>
	<ellipse fill="none" stroke="#000000" stroke-miterlimit="10" cx="119.751" cy="92.875" rx="1.813" ry="2.313"/>
	<ellipse fill="none" stroke="#000000" stroke-miterlimit="10" cx="130.054" cy="93.125" rx="1.813" ry="2.313"/>
	<ellipse fill="none" stroke="#000000" stroke-miterlimit="10" cx="124.497" cy="100.61" rx="1.813" ry="2.313"/>
	<ellipse fill="none" stroke="#000000" stroke-miterlimit="10" cx="115.652" cy="100.61" rx="1.813" ry="2.313"/>
	<ellipse fill="none" stroke="#000000" stroke-miterlimit="10" cx="115.652" cy="108.188" rx="1.813" ry="2.313"/>
	<ellipse fill="none" stroke="#000000" stroke-miterlimit="10" cx="124.497" cy="108.188" rx="1.813" ry="2.313"/>
	<polyline fill="none" stroke="#000000" stroke-miterlimit="10" points="119.085,98.298 120.418,98.298 120.418,103.423 	"/>
	<polyline fill="none" stroke="#000000" stroke-miterlimit="10" points="123.831,90.563 125.163,90.563 125.163,95.688 	"/>
	<polyline fill="none" stroke="#000000" stroke-miterlimit="10" points="113.085,79.298 114.418,79.298 114.418,84.423 	"/>
	<circle fill="none" stroke="#000000" stroke-miterlimit="10" cx="35.976" cy="51.702" r="2.313"/>
	<circle fill="none" stroke="#000000" stroke-miterlimit="10" cx="117.685" cy="67.266" r="2.313"/>
	<circle fill="none" stroke="#000000" stroke-miterlimit="10" cx="33.664" cy="73.859" r="2.313"/>
	<line fill="none" stroke="#000000" stroke-miterlimit="10" x1="104.862" y1="51.442" x2="101.091" y2="55.212"/>
	<line fill="none" stroke="#000000" stroke-miterlimit="10" x1="104.861" y1="55.213" x2="101.091" y2="51.442"/>
	<line fill="none" stroke="#000000" stroke-miterlimit="10" x1="51.195" y1="58.783" x2="47.424" y2="62.553"/>
	<line fill="none" stroke="#000000" stroke-miterlimit="10" x1="51.195" y1="62.554" x2="47.424" y2="58.783"/>
	<polygon points="71.097,91.863 44.68,101.313 43.687,95.4 43.477,90.063 	"/>
	<g>
		<rect x="28.134" y="79.198" fill="#FFFFFF" stroke="#000000" stroke-miterlimit="10" width="48.375" height="13"/>
		<g>
			<g>
				<g>
					<rect x="36.048" y="83.186" width="1" height="5.023"/>
				</g>
				<g>
					<rect x="34.035" y="85.196" transform="matrix(-0.7071 -0.7071 0.7071 -0.7071 1.793 172.1353)" width="5.024" height="1"/>
				</g>
				<g>
					<rect x="34.036" y="85.198" transform="matrix(-0.7072 0.707 -0.707 -0.7072 122.985 120.4643)" width="5.025" height="1"/>
				</g>
			</g>
			<g>
				<g>
					<rect x="67.595" y="83.186" width="1" height="5.023"/>
				</g>
				<g>
					<rect x="65.582" y="85.196" transform="matrix(-0.7071 -0.7071 0.7071 -0.7071 55.6469 194.4423)" width="5.024" height="1"/>
				</g>
				<g>
					<rect x="65.583" y="85.198" transform="matrix(-0.7072 0.707 -0.707 -0.7072 176.8419 98.1604)" width="5.025" height="1"/>
				</g>
			</g>
			<g>
				<g>
					<rect x="57.334" y="83.186" width="1" height="5.023"/>
				</g>
				<g>
					<rect x="55.322" y="85.196" transform="matrix(-0.7071 -0.7071 0.7071 -0.7071 38.1324 187.1875)" width="5.024" height="1"/>
				</g>
				<g>
					<rect x="55.323" y="85.198" transform="matrix(-0.7071 0.7071 -0.7071 -0.7071 159.3283 105.4006)" width="5.024" height="1"/>
				</g>
			</g>
			<g>
				<g>
					<rect x="46.309" y="83.186" width="1" height="5.023"/>
				</g>
				<g>
					<rect x="44.296" y="85.196" transform="matrix(-0.7071 -0.7071 0.7071 -0.7071 19.3108 179.3914)" width="5.024" height="1"/>
				</g>
				<g>
					<rect x="44.297" y="85.198" transform="matrix(-0.7071 0.7071 -0.7071 -0.7071 140.5067 113.1967)" width="5.024" height="1"/>
				</g>
			</g>
		</g>
	</g>
</g>
</svg>
