<?xml version="1.0" encoding="UTF-8"?>
<svg xmlns="http://www.w3.org/2000/svg" xmlns:xlink="http://www.w3.org/1999/xlink" width="145pt" height="128pt" viewBox="0 0 145 128" version="1.1">
<g id="surface1">
<path style=" stroke:none;fill-rule:nonzero;fill:rgb(128,66,255);fill-opacity:1;" d="M 127.527344 64 C 114.359375 64 109.398438 75.628906 105.558594 70.875 C 100.492188 64.605469 105.046875 44.066406 106.433594 37.890625 C 97.816406 39.484375 71.882812 43.960938 65.191406 38.433594 C 61.007812 34.984375 73.070312 27.5625 73.070312 16.824219 C 73.070312 6.507812 64.558594 0 54.082031 0 C 43.117188 0 32.738281 6.402344 32.738281 17.207031 C 32.738281 30.460938 44.292969 35.105469 38.867188 39.359375 C 31.714844 44.960938 8.898438 40.132812 0 38.011719 L 0 124.339844 C 8.386719 126.339844 17.792969 128 26.726562 128 C 37.367188 128 48.332031 125.039062 48.332031 114.46875 C 48.332031 107.132812 40.277344 104.261719 40.277344 96 C 40.277344 89.890625 45.949219 88 52.105469 88 C 61.84375 88 64.445312 93.027344 64.445312 96 C 64.445312 103.195312 55.816406 105.085938 55.816406 115.144531 C 55.816406 118.582031 57.078125 121.507812 59.464844 123.601562 C 68.316406 131.371094 86.332031 125.183594 106.5625 125.171875 C 106.320312 124.316406 99.8125 103.492188 104.625 97.195312 C 108.832031 91.691406 116.851562 104.472656 127.914062 104.472656 C 138.511719 104.472656 145 94.402344 145 84 C 145 73.292969 138.398438 64 127.527344 64 Z M 127.914062 96.472656 C 120.363281 96.472656 117.5 88 107.394531 88 C 93.910156 88 93.589844 104.246094 96.25 117.453125 C 87.085938 118.308594 69.308594 121.5625 64.800781 117.609375 C 59.734375 113.160156 72.5 107.070312 72.5 96 C 72.5 86.578125 64.113281 80 52.105469 80 C 33.226562 80 26.203125 94.957031 37.964844 110.507812 C 39.152344 112.082031 40.277344 113.570312 40.277344 114.46875 C 40.277344 122.890625 16.613281 119.625 8.054688 117.949219 L 8.054688 47.992188 C 23.980469 50.90625 48.332031 52.527344 48.332031 36.367188 C 48.332031 29.226562 40.792969 25.621094 40.792969 17.207031 C 40.792969 11.035156 47.898438 8 54.082031 8 C 59.128906 8 65.015625 10.3125 65.015625 16.824219 C 65.015625 24.179688 56.390625 27.011719 56.390625 36.976562 C 56.390625 51.433594 81.773438 49.710938 96.21875 47.75 C 94.183594 61.324219 94.140625 80 108.015625 80 C 115.351562 80 119.011719 72 127.527344 72 C 133.808594 72 136.945312 77.824219 136.945312 84 C 136.945312 92.601562 131.664062 96.472656 127.914062 96.472656 Z M 127.914062 96.472656 "/>
</g>
</svg>
