<?xml version="1.0" encoding="UTF-8"?>
<svg xmlns="http://www.w3.org/2000/svg" xmlns:xlink="http://www.w3.org/1999/xlink" width="145pt" height="165pt" viewBox="0 0 145 165" version="1.1">
<g id="surface1">
<path style=" stroke:none;fill-rule:nonzero;fill:rgb(128,66,255);fill-opacity:1;" d="M 134.644531 0 L 20.714844 0 C 9.273438 0 0 9.234375 0 20.625 L 0 144.375 C 0 155.765625 9.273438 165 20.714844 165 L 134.644531 165 C 140.363281 165 145 160.382812 145 154.6875 L 145 10.3125 C 145 4.617188 140.363281 0 134.644531 0 Z M 134.644531 154.6875 L 20.714844 154.6875 C 15.003906 154.6875 10.355469 150.058594 10.355469 144.375 L 10.355469 20.625 C 10.355469 14.941406 15.003906 10.3125 20.714844 10.3125 L 134.644531 10.3125 Z M 36.25 134.0625 L 108.75 134.0625 C 111.597656 134.0625 113.929688 131.742188 113.929688 128.90625 C 113.929688 126.070312 111.597656 123.75 108.75 123.75 L 36.25 123.75 C 33.402344 123.75 31.070312 126.070312 31.070312 128.90625 C 31.070312 131.742188 33.402344 134.0625 36.25 134.0625 Z M 72.5 103.125 C 95.378906 103.125 113.929688 84.65625 113.929688 61.875 C 113.929688 39.09375 95.378906 20.625 72.5 20.625 C 49.621094 20.625 31.070312 39.09375 31.070312 61.875 C 31.070312 84.65625 49.621094 103.125 72.5 103.125 Z M 103.046875 56.71875 L 90.394531 56.71875 C 89.914062 48.007812 88.277344 40.171875 85.796875 34.027344 C 94.765625 38.292969 101.339844 46.65625 103.046875 56.71875 Z M 90.394531 67.03125 L 103.046875 67.03125 C 101.335938 77.09375 94.765625 85.457031 85.796875 89.722656 C 88.28125 83.578125 89.914062 75.742188 90.394531 67.03125 Z M 72.5 31.359375 C 74.988281 33.761719 79.222656 42.453125 80.082031 56.71875 L 64.914062 56.71875 C 65.777344 42.457031 70.011719 33.761719 72.5 31.359375 Z M 80.082031 67.03125 C 79.222656 81.292969 74.988281 89.988281 72.5 92.390625 C 70.011719 89.988281 65.777344 81.296875 64.917969 67.03125 Z M 59.203125 34.027344 C 56.71875 40.171875 55.085938 48.007812 54.605469 56.71875 L 41.953125 56.71875 C 43.660156 46.65625 50.234375 38.292969 59.203125 34.027344 Z M 54.605469 67.03125 C 55.085938 75.742188 56.722656 83.578125 59.203125 89.722656 C 50.234375 85.457031 43.660156 77.09375 41.953125 67.03125 Z M 54.605469 67.03125 "/>
</g>
</svg>
