<?xml version="1.0" encoding="utf-8"?>
<!-- Generator: Adobe Illustrator 16.0.0, SVG Export Plug-In . SVG Version: 6.00 Build 0)  -->
<!DOCTYPE svg PUBLIC "-//W3C//DTD SVG 1.1//EN" "http://www.w3.org/Graphics/SVG/1.1/DTD/svg11.dtd">
<svg version="1.1" id="Layer_1" xmlns="http://www.w3.org/2000/svg" xmlns:xlink="http://www.w3.org/1999/xlink" x="0px" y="0px"
	 width="145px" height="193px" viewBox="0 0 145 193" enable-background="new 0 0 145 193" xml:space="preserve">
<g id="surface1">
	<path style="fill:rgb(128,66,255);" d="M126.875,24.125H93.418c0.152-0.98,0.227-1.996,0.227-3.016C93.645,9.461,84.168,0,72.5,0S51.355,9.461,51.355,21.109
		c0,1.02,0.074,2.035,0.227,3.016H18.125C8.117,24.125,0,32.23,0,42.219v132.688C0,184.895,8.117,193,18.125,193h108.75
		c10.008,0,18.125-8.105,18.125-18.094V42.219C145,32.23,136.883,24.125,126.875,24.125z M72.5,12.063
		c5.023,0,9.063,4.035,9.063,9.047s-4.039,9.047-9.063,9.047s-9.063-4.035-9.063-9.047S67.477,12.063,72.5,12.063z M132.918,174.906
		c0,3.316-2.719,6.031-6.043,6.031H18.125c-3.324,0-6.043-2.715-6.043-6.031V42.219c0-3.316,2.719-6.031,6.043-6.031H36.25v7.539
		c0,2.488,2.039,4.523,4.531,4.523h63.438c2.492,0,4.531-2.035,4.531-4.523v-7.539h18.125c3.324,0,6.043,2.715,6.043,6.031V174.906z
		"/>
</g>
<line fill="none" stroke="rgb(128,66,255)" stroke-width="10" stroke-linecap="round" stroke-miterlimit="10" x1="31.155" y1="74.002" x2="112.39" y2="74.002"/>
<line fill="none" stroke="rgb(128,66,255)" stroke-width="10" stroke-linecap="round" stroke-miterlimit="10" x1="31.155" y1="114" x2="112.39" y2="114"/>
<line fill="none" stroke="rgb(128,66,255)" stroke-width="10" stroke-linecap="round" stroke-miterlimit="10" x1="31.155" y1="155.335" x2="112.39" y2="155.335"/>
</svg>
