<?xml version="1.0" encoding="utf-8"?>
<!-- Generator: Adobe Illustrator 16.0.0, SVG Export Plug-In . SVG Version: 6.00 Build 0)  -->
<!DOCTYPE svg PUBLIC "-//W3C//DTD SVG 1.1//EN" "http://www.w3.org/Graphics/SVG/1.1/DTD/svg11.dtd">
<svg version="1.1" id="Layer_1" xmlns="http://www.w3.org/2000/svg" xmlns:xlink="http://www.w3.org/1999/xlink" x="0px" y="0px"
	 width="160px" height="160px" viewBox="0 0 160 160" enable-background="new 0 0 160 160" xml:space="preserve">
<g>
	<path fill="none" stroke="#FFFFFF" stroke-miterlimit="10" d="M22.757,51.696"/>
	<path fill="none" stroke="#FFFFFF" stroke-miterlimit="10" d="M131.134,46.449v75.467c0,4.504-3.566,8.156-7.965,8.156H25.264
		c-4.399,0-7.965-3.652-7.965-8.156V48.012c0-4.506,3.566-8.156,7.965-8.156h91.229"/>
	<line fill="none" stroke="#FFFFFF" stroke-miterlimit="10" x1="17.299" y1="51.696" x2="116.493" y2="51.696"/>
	<line fill="none" stroke="#FFFFFF" stroke-miterlimit="10" x1="22.757" y1="46.449" x2="31.48" y2="46.449"/>
	<polygon fill="#FFFFFF" points="131.444,67.943 142.701,60.452 131.421,59.734 	"/>
	
		<rect x="112.045" y="29.785" fill="#8042FF" stroke="#FFFFFF" stroke-linecap="square" stroke-miterlimit="10" width="30.167" height="30.167"/>
	<path fill="#FFFFFF" stroke="#8042FF" stroke-width="0.5" stroke-linecap="square" stroke-miterlimit="10" d="M131.534,47.83
		c-0.164,1.313-0.985,2.369-2.263,2.885c-0.388,0.164-0.821,0.27-1.279,0.317l-0.198,0.022v1.701h-1.596v-1.782l-0.188-0.035
		c-1.161-0.247-2.299-0.786-3.318-1.561l0.996-1.231c1.15,0.856,2.439,1.338,3.659,1.338c0.48,0,0.95-0.083,1.325-0.247
		c0.75-0.305,1.185-0.856,1.278-1.595c0.188-1.501-0.716-2.041-4.175-2.533c-1.466-0.211-2.568-1.079-2.873-2.275
		c-0.317-1.255,0.27-2.568,1.571-3.53c0.47-0.351,0.984-0.586,1.536-0.715l0.188-0.047v-1.56h1.596v1.571l0.188,0.035
		c0.27,0.059,0.563,0.141,0.855,0.258c0.855,0.316,1.513,0.762,1.829,0.985l-1.031,1.231c-0.27-0.188-0.774-0.516-1.396-0.75
		c-1.103-0.399-2.041-0.305-2.827,0.27c-0.75,0.563-1.113,1.254-0.961,1.853c0.142,0.575,0.715,0.985,1.549,1.102
		c1.44,0.2,2.825,0.423,3.857,0.975C131.136,45.202,131.711,46.353,131.534,47.83z"/>
	<path fill="#FFFFFF" d="M38.547,66.782c-2.677,0-4.852,2.175-4.852,4.852v9.556h0.579h9.125v-9.556
		C43.399,68.957,41.224,66.782,38.547,66.782z M38.542,80.398c-0.473-0.332-0.875-0.716-1.211-1.135
		c-2.382-2.932-1.761-7.529-1.761-7.529h5.962c0,0,0.609,4.598-1.778,7.529C39.416,79.683,39.014,80.066,38.542,80.398z"/>
	<g>
		<path fill="#8042FF" d="M38.547,87.522c-2.693,0-5.251-0.86-7.399-2.489l-0.375-0.284l0.261-0.392
			c0.676-1.182,1.677-2.158,2.918-2.858c0.984-0.559,2.13-0.935,3.313-1.088l0.279-0.037l0.176,0.22
			c0.244,0.304,0.519,0.579,0.821,0.822c0.303-0.243,0.578-0.52,0.821-0.822l0.175-0.219l0.278,0.035
			c1.401,0.178,2.737,0.672,3.862,1.428c1.021,0.675,1.853,1.557,2.404,2.548l0.21,0.379l-0.345,0.262
			C43.803,86.659,41.244,87.522,38.547,87.522z"/>
		<g>
			<path fill="#FFFFFF" d="M39.753,80.906c1.347,0.171,2.6,0.644,3.646,1.347c0.939,0.621,1.72,1.431,2.246,2.376
				c-1.979,1.507-4.438,2.394-7.097,2.394c-2.66,0-5.118-0.887-7.097-2.388c0.012-0.018,0.029-0.041,0.042-0.064
				c0.626-1.1,1.566-1.992,2.707-2.636c0.928-0.526,1.997-0.881,3.132-1.028c0.337,0.42,0.738,0.804,1.211,1.135
				C39.014,81.71,39.416,81.326,39.753,80.906 M37.758,79.842l-0.557,0.072c-1.247,0.162-2.456,0.56-3.497,1.15
				c-1.318,0.744-2.384,1.785-3.082,3.011l-0.522,0.783l0.746,0.573c2.235,1.695,4.898,2.591,7.701,2.591
				c2.807,0,5.47-0.898,7.703-2.598l0.689-0.524l-0.421-0.757c-0.59-1.063-1.478-2.004-2.568-2.725
				c-1.183-0.796-2.593-1.317-4.071-1.505l-0.556-0.07l-0.35,0.437c-0.134,0.167-0.278,0.324-0.432,0.471
				c-0.154-0.146-0.298-0.304-0.432-0.471L37.758,79.842L37.758,79.842z"/>
		</g>
	</g>
	<circle fill="none" stroke="#FFFFFF" stroke-miterlimit="10" cx="38.547" cy="75.469" r="12.195"/>
	<g>
		<line fill="none" stroke="#FFFFFF" stroke-miterlimit="10" x1="60.138" y1="72.469" x2="75.327" y2="72.469"/>
		<line fill="none" stroke="#FFFFFF" stroke-miterlimit="10" x1="60.138" y1="78.469" x2="92.663" y2="78.469"/>
	</g>
	
		<rect x="27.847" y="102.939" fill="#8042FF" stroke="#FFFFFF" stroke-linecap="square" stroke-miterlimit="10" width="21.4" height="14.803"/>
	<polyline fill="none" stroke="#FFFFFF" stroke-miterlimit="10" points="49.248,102.939 38.547,110.34 27.847,102.939 	"/>
	<g>
		<line fill="none" stroke="#FFFFFF" stroke-miterlimit="10" x1="60.138" y1="107.34" x2="75.327" y2="107.34"/>
		<line fill="none" stroke="#FFFFFF" stroke-miterlimit="10" x1="60.138" y1="113.34" x2="92.663" y2="113.34"/>
	</g>
</g>
</svg>
