<?xml version="1.0" encoding="utf-8"?>
<!-- Generator: Adobe Illustrator 16.0.0, SVG Export Plug-In . SVG Version: 6.00 Build 0)  -->
<!DOCTYPE svg PUBLIC "-//W3C//DTD SVG 1.1//EN" "http://www.w3.org/Graphics/SVG/1.1/DTD/svg11.dtd">
<svg version="1.1" id="Layer_1" xmlns="http://www.w3.org/2000/svg" xmlns:xlink="http://www.w3.org/1999/xlink" x="0px" y="0px"
	 width="160px" height="160px" viewBox="0 0 160 160" enable-background="new 0 0 160 160" xml:space="preserve">
<g>
	<path fill="none" stroke="#FFFFFF" stroke-miterlimit="10" d="M99.829,121.518v7.246c0,3.131-2.665,5.67-5.954,5.67H20.68
		c-3.289,0-5.955-2.539-5.955-5.67v-51.37c0-3.132,2.666-5.67,5.955-5.67h34.321"/>
	<polygon fill="#FFFFFF" points="55.502,72.571 43.744,64.85 55.492,64.4 	"/>
	<path fill="none" stroke="#000000" stroke-miterlimit="10" d="M18.805,79.955"/>
	<line fill="none" stroke="#FFFFFF" stroke-miterlimit="10" x1="14.725" y1="79.955" x2="55.502" y2="79.955"/>
	<line fill="none" stroke="#FFFFFF" stroke-miterlimit="10" x1="18.805" y1="76.308" x2="25.327" y2="76.308"/>
	<polyline fill="none" stroke="#FFFFFF" stroke-miterlimit="10" points="120.873,93.549 145.275,93.549 145.275,25.424 
		96.895,25.424 96.895,38.139 	"/>
	<line fill="none" stroke="#FFFFFF" stroke-miterlimit="10" x1="124.318" y1="62.675" x2="139.859" y2="62.675"/>
	<line fill="none" stroke="#FFFFFF" stroke-miterlimit="10" x1="124.318" y1="67.675" x2="139.859" y2="67.675"/>
	<line fill="none" stroke="#FFFFFF" stroke-miterlimit="10" x1="124.318" y1="73.676" x2="139.859" y2="73.676"/>
	<line fill="none" stroke="#FFFFFF" stroke-miterlimit="10" x1="133.297" y1="87.736" x2="139.859" y2="87.736"/>
	<path fill="#FFFFFF" d="M87.592,57.583c-4.529,0-8.209,3.68-8.209,8.21v16.17l0.85-0.684l15.57,0.684v-16.17
		C95.803,61.263,92.122,57.583,87.592,57.583z M87.582,80.623c-0.8-0.561-1.479-1.21-2.05-1.92c-4.03-4.96-2.979-12.74-2.979-12.74
		h10.09c0,0,1.029,7.78-3.01,12.74C89.063,79.413,88.383,80.063,87.582,80.623z"/>
	<g>
		<path fill="#8042FF" d="M87.592,91.24c-4.48,0-8.738-1.432-12.312-4.141l-0.372-0.282l0.311-0.476
			c1.075-1.885,2.724-3.492,4.768-4.646c1.627-0.923,3.522-1.545,5.481-1.8l0.278-0.037l0.176,0.219
			c0.486,0.605,1.043,1.146,1.66,1.615c0.617-0.468,1.175-1.01,1.661-1.615l0.175-0.218l0.278,0.035
			c2.317,0.295,4.526,1.111,6.386,2.36c1.682,1.111,3.052,2.563,3.958,4.192l0.21,0.379l-0.345,0.262
			C96.336,89.805,92.078,91.24,87.592,91.24z"/>
		<g>
			<path fill="#FFFFFF" d="M89.633,80.391c2.279,0.29,4.399,1.09,6.17,2.279c1.59,1.051,2.91,2.42,3.8,4.021
				c-3.351,2.55-7.511,4.05-12.011,4.05s-8.66-1.5-12.01-4.039c0.021-0.031,0.051-0.07,0.07-0.111
				c1.061-1.859,2.65-3.369,4.58-4.459c1.57-0.891,3.38-1.49,5.3-1.74c0.57,0.71,1.25,1.359,2.05,1.92
				C88.383,81.75,89.063,81.101,89.633,80.391 M85.96,79.327l-0.557,0.072c-2.022,0.263-3.98,0.907-5.664,1.862
				c-2.122,1.198-3.835,2.87-4.956,4.834l-0.009,0.017l-0.028,0.041l-0.513,0.781l0.745,0.564c3.661,2.775,8.023,4.242,12.614,4.242
				c4.597,0,8.959-1.471,12.616-4.254l0.689-0.524l-0.421-0.757c-0.945-1.701-2.37-3.212-4.122-4.369
				c-1.918-1.288-4.2-2.132-6.596-2.438l-0.555-0.07l-0.351,0.436c-0.38,0.473-0.806,0.905-1.271,1.29
				c-0.465-0.385-0.891-0.817-1.271-1.29L85.96,79.327L85.96,79.327z"/>
		</g>
	</g>
	<circle fill="none" stroke="#FFFFFF" stroke-miterlimit="10" cx="87.592" cy="70.555" r="20.637"/>
	
		<rect x="44.156" y="34.233" fill="#8042FF" stroke="#FFFFFF" stroke-linecap="square" stroke-miterlimit="10" width="30.167" height="30.167"/>
	<g>
		<g>
			<g>
				<g>
					<path fill="#FFFFFF" d="M60.043,56.606h-1.542c-0.294,0-0.379,0-1.18-1.981l-0.534-0.218c-1.646,0.747-1.843,0.747-1.929,0.747
						c-0.108,0-0.23-0.047-0.308-0.124l-1.09-1.067c-0.217-0.214-0.273-0.27,0.592-2.23l-0.216-0.509
						c-2.034-0.728-2.034-0.816-2.034-1.121v-1.511c0-0.302,0-0.379,2.027-1.164l0.216-0.51c-0.913-1.924-0.851-1.986-0.631-2.202
						l1.092-1.067c0.076-0.075,0.199-0.122,0.307-0.122c0.079,0,0.285,0,1.959,0.706l0.53-0.216c0.744-1.99,0.839-1.99,1.134-1.99
						h1.542c0.293,0,0.379,0,1.179,1.983l0.533,0.215c1.645-0.744,1.842-0.744,1.929-0.744c0.107,0,0.229,0.046,0.307,0.121
						l1.093,1.066c0.213,0.21,0.272,0.27-0.593,2.231l0.216,0.512c2.035,0.727,2.035,0.814,2.035,1.117v1.511
						c0,0.303-0.001,0.381-2.029,1.166l-0.214,0.51c0.913,1.923,0.85,1.985,0.633,2.202l-1.095,1.069
						c-0.077,0.075-0.199,0.122-0.307,0.122l0,0c-0.078,0-0.283,0-1.956-0.708l-0.534,0.216
						C60.432,56.606,60.344,56.606,60.043,56.606z M58.723,55.781h1.093c0.146-0.312,0.426-1.016,0.651-1.622
						c0.04-0.109,0.124-0.195,0.231-0.239l0.859-0.348c0.102-0.041,0.216-0.04,0.316,0.003c0.618,0.263,1.349,0.557,1.68,0.668
						l0.765-0.75c-0.123-0.324-0.433-1.011-0.709-1.589c-0.05-0.106-0.053-0.229-0.008-0.338l0.354-0.842
						c0.043-0.103,0.127-0.185,0.231-0.224c0.623-0.241,1.348-0.538,1.665-0.688v-1.049c-0.321-0.144-1.04-0.416-1.659-0.636
						c-0.109-0.038-0.197-0.121-0.242-0.229l-0.354-0.843c-0.044-0.105-0.044-0.224,0.003-0.327c0.265-0.598,0.56-1.304,0.676-1.633
						l-0.766-0.748c-0.328,0.118-1.04,0.425-1.641,0.699c-0.102,0.047-0.221,0.05-0.325,0.007l-0.859-0.347
						c-0.104-0.042-0.188-0.125-0.229-0.229c-0.245-0.61-0.548-1.32-0.702-1.629h-1.092c-0.146,0.313-0.427,1.017-0.651,1.623
						c-0.039,0.108-0.124,0.196-0.231,0.238l-0.856,0.349c-0.103,0.041-0.216,0.04-0.317-0.002
						c-0.618-0.264-1.351-0.558-1.681-0.667l-0.766,0.749c0.124,0.324,0.432,1.012,0.708,1.591c0.051,0.106,0.053,0.229,0.008,0.338
						l-0.355,0.841c-0.044,0.103-0.127,0.185-0.231,0.224c-0.623,0.24-1.347,0.536-1.663,0.688v1.049
						c0.32,0.145,1.039,0.418,1.658,0.639c0.109,0.039,0.197,0.122,0.241,0.228l0.354,0.841c0.045,0.104,0.043,0.223-0.002,0.326
						c-0.265,0.598-0.561,1.305-0.676,1.633l0.765,0.748c0.327-0.119,1.039-0.426,1.641-0.699c0.103-0.047,0.221-0.049,0.325-0.008
						l0.859,0.35c0.104,0.042,0.187,0.124,0.228,0.228C58.266,54.765,58.568,55.474,58.723,55.781z M59.239,51.934
						c-1.469,0-2.665-1.175-2.665-2.616s1.196-2.615,2.665-2.615s2.664,1.174,2.664,2.615S60.708,51.934,59.239,51.934z
						 M59.239,47.527c-1.015,0-1.84,0.803-1.84,1.79c0,0.988,0.825,1.792,1.84,1.792s1.84-0.805,1.84-1.792
						C61.079,48.329,60.254,47.527,59.239,47.527z"/>
				</g>
			</g>
		</g>
	</g>
	<line fill="none" stroke="#FFFFFF" stroke-miterlimit="10" x1="66.677" y1="99.555" x2="91.105" y2="99.555"/>
	<line fill="none" stroke="#FFFFFF" stroke-miterlimit="10" x1="66.677" y1="105.555" x2="91.105" y2="105.555"/>
	<path fill="none" stroke="#FFFFFF" stroke-linecap="square" stroke-miterlimit="10" d="M128.113,38.637v-1.874
		c0-2.197,1.779-3.977,3.977-3.977c2.195,0,3.977,1.779,3.977,3.977v1.874"/>
	<path fill="#8042FF" stroke="#FFFFFF" stroke-linecap="square" stroke-miterlimit="10" d="M138.584,46.754
		c0,2.493-2.021,4.514-4.514,4.514h-3.961c-2.493,0-4.514-2.021-4.514-4.514v-3.961c0-2.493,2.021-4.514,4.514-4.514h3.961
		c2.492,0,4.514,2.021,4.514,4.514V46.754z"/>
	<g>
		<circle fill="#8042FF" stroke="#FFFFFF" stroke-linecap="square" stroke-miterlimit="10" cx="132.09" cy="43.751" r="1.609"/>
		
			<ellipse fill="#8042FF" stroke="#FFFFFF" stroke-linecap="square" stroke-miterlimit="10" cx="132.09" cy="46.337" rx="0" ry="1.067"/>
	</g>
	<line fill="none" stroke="#FFFFFF" stroke-miterlimit="10" x1="18.6" y1="114.691" x2="51.125" y2="114.691"/>
	<line fill="none" stroke="#FFFFFF" stroke-miterlimit="10" x1="18.6" y1="120.691" x2="51.125" y2="120.691"/>
	
		<rect x="18.805" y="88.059" fill="#8042FF" stroke="#FFFFFF" stroke-linecap="square" stroke-miterlimit="10" width="21.4" height="14.803"/>
	<polyline fill="none" stroke="#FFFFFF" stroke-miterlimit="10" points="40.205,88.059 29.505,95.459 18.805,88.059 	"/>
	<path fill="none" stroke="#FFFFFF" stroke-miterlimit="10" d="M55.502,64.419v51.683c0,3.131,2.538,5.67,5.67,5.67h54.031
		c3.131,0,5.67-2.539,5.67-5.67V43.809c0-3.132-2.539-5.67-5.67-5.67h-40.88"/>
</g>
</svg>
