<?xml version="1.0" encoding="utf-8"?>
<!-- Generator: Adobe Illustrator 16.0.0, SVG Export Plug-In . SVG Version: 6.00 Build 0)  -->
<!DOCTYPE svg PUBLIC "-//W3C//DTD SVG 1.1//EN" "http://www.w3.org/Graphics/SVG/1.1/DTD/svg11.dtd">
<svg version="1.1" id="Layer_1" xmlns="http://www.w3.org/2000/svg" xmlns:xlink="http://www.w3.org/1999/xlink" x="0px" y="0px"
	 width="160px" height="160px" viewBox="0 0 160 160" enable-background="new 0 0 160 160" xml:space="preserve">
<g>
	<circle fill="#8042FF" stroke="#000000" stroke-miterlimit="10" cx="56.584" cy="50.373" r="12.548"/>
	<circle fill="none" stroke="#000000" stroke-miterlimit="10" cx="56.583" cy="50.373" r="16.167"/>
	<g>
		<polyline fill="none" stroke="#000000" stroke-miterlimit="10" points="49.584,46.546 51.943,46.546 52.891,51.484 53.379,54.032 
			60.354,54.032 		"/>
		<polyline fill="none" stroke="#000000" stroke-miterlimit="10" points="52.891,51.058 60.354,51.058 61.584,48.289 54.405,48.289 
					"/>
		<circle cx="54.694" cy="55.519" r="0.681"/>
		<circle cx="58.673" cy="55.519" r="0.681"/>
	</g>
	<path d="M71.196,43.447h38.767l0,0c2.574,0,4.668,2.096,4.668,4.67v71.008h1V48.117c0-3.118-2.551-5.67-5.668-5.67l0,0H70.678
		L71.196,43.447z"/>
	<path d="M50.261,65.256v54.869c0,3.119,2.551,5.67,5.669,5.67h0.653l1.246-0.783l-1.899-0.217c-2.575,0-4.669-2.095-4.669-4.67
		V65.643L50.261,65.256z"/>
	<path fill="none" stroke="#000000" stroke-miterlimit="10" d="M115.416,125.325c0,0,3.334-0.416,4.168-6.083H115H60.75
		c-0.833,5.667-4.167,6.083-4.167,6.083H115.416z"/>
	<path d="M107.543,108.729c-0.117,0.938-0.703,1.689-1.615,2.059c-0.275,0.117-0.586,0.191-0.912,0.227l-0.141,0.018v1.213h-1.139
		v-1.271l-0.135-0.025c-0.828-0.176-1.64-0.561-2.367-1.112l0.713-0.878c0.818,0.609,1.738,0.954,2.609,0.954
		c0.342,0,0.678-0.06,0.944-0.177c0.535-0.217,0.845-0.61,0.912-1.139c0.133-1.07-0.511-1.455-2.979-1.807
		c-1.047-0.15-1.832-0.77-2.051-1.623c-0.225-0.895,0.193-1.832,1.121-2.518c0.336-0.252,0.703-0.418,1.096-0.512l0.135-0.033
		v-1.111h1.14v1.121l0.133,0.023c0.193,0.043,0.402,0.102,0.611,0.186c0.608,0.226,1.077,0.543,1.305,0.703l-0.735,0.877
		c-0.191-0.133-0.554-0.367-0.996-0.535c-0.785-0.284-1.455-0.217-2.017,0.193c-0.534,0.399-0.795,0.895-0.687,1.32
		c0.101,0.41,0.511,0.702,1.104,0.786c1.029,0.144,2.019,0.302,2.753,0.694C107.258,106.854,107.668,107.674,107.543,108.729z"/>
	<g>
		<g>
			<rect x="58.328" y="70.541" width="49.236" height="1"/>
		</g>
		<g>
			<rect x="58.328" y="76.541" width="49.236" height="1"/>
		</g>
	</g>
	<g>
		<rect x="58.328" y="82.541" width="49.236" height="1"/>
	</g>
	<g>
		<rect x="58.328" y="88.541" width="49.236" height="1"/>
	</g>
	<path d="M99.873,108.729c-0.117,0.938-0.701,1.689-1.613,2.059c-0.277,0.117-0.586,0.191-0.912,0.227l-0.143,0.018v1.213h-1.139
		v-1.271l-0.133-0.025c-0.828-0.176-1.642-0.561-2.367-1.112l0.711-0.878c0.82,0.609,1.74,0.954,2.609,0.954
		c0.344,0,0.678-0.06,0.944-0.177c0.535-0.217,0.847-0.61,0.912-1.139c0.135-1.07-0.511-1.455-2.979-1.807
		c-1.045-0.15-1.832-0.77-2.049-1.623c-0.227-0.895,0.191-1.832,1.121-2.518c0.334-0.252,0.703-0.418,1.096-0.512l0.133-0.033
		v-1.111h1.14v1.121l0.135,0.023c0.19,0.043,0.399,0.102,0.609,0.186c0.61,0.226,1.079,0.543,1.305,0.703L98.52,103.9
		c-0.192-0.133-0.553-0.367-0.996-0.535c-0.787-0.284-1.457-0.217-2.018,0.193c-0.535,0.399-0.793,0.895-0.686,1.32
		c0.102,0.41,0.512,0.702,1.104,0.786c1.027,0.144,2.017,0.302,2.753,0.694C99.59,106.854,100,107.674,99.873,108.729z"/>
	<g>
		<g>
			<rect x="78.828" y="58.541" width="28.736" height="1"/>
		</g>
		<g>
			<rect x="78.828" y="64.541" width="28.736" height="1"/>
		</g>
	</g>
</g>
</svg>
