<?xml version="1.0" encoding="UTF-8"?>
<svg xmlns="http://www.w3.org/2000/svg" xmlns:xlink="http://www.w3.org/1999/xlink" width="145pt" height="149pt" viewBox="0 0 145 149" version="1.1">
<g id="surface1">
<path style=" stroke:none;fill-rule:nonzero;fill:rgb(128,66,255);fill-opacity:1;" d="M 77.460938 79.4375 C 80.203125 76.710938 80.203125 72.289062 77.460938 69.5625 C 74.722656 66.835938 70.277344 66.835938 67.539062 69.5625 C 64.796875 72.289062 64.796875 76.710938 67.539062 79.4375 C 70.277344 82.164062 74.722656 82.164062 77.460938 79.4375 Z M 102.738281 36.375 C 102.078125 36.375 101.421875 36.484375 100.777344 36.714844 L 55.496094 52.96875 C 53.304688 53.753906 51.664062 55.386719 50.875 57.566406 L 34.546875 102.648438 C 32.898438 107.207031 37.570312 112.621094 42.265625 112.621094 C 42.925781 112.621094 43.585938 112.511719 44.226562 112.28125 L 89.511719 96.03125 C 91.699219 95.242188 93.339844 93.609375 94.128906 91.429688 L 110.457031 46.351562 C 112.105469 41.792969 107.4375 36.375 102.738281 36.375 Z M 85.59375 87.535156 L 44.636719 102.234375 L 59.402344 61.460938 L 100.363281 46.761719 Z M 72.5 2.328125 C 32.457031 2.328125 0 34.640625 0 74.5 C 0 114.359375 32.457031 146.671875 72.5 146.671875 C 112.542969 146.671875 145 114.359375 145 74.5 C 145 34.640625 112.542969 2.328125 72.5 2.328125 Z M 72.5 137.359375 C 37.683594 137.359375 9.355469 109.160156 9.355469 74.5 C 9.355469 39.839844 37.683594 11.640625 72.5 11.640625 C 107.316406 11.640625 135.644531 39.839844 135.644531 74.5 C 135.644531 109.160156 107.316406 137.359375 72.5 137.359375 Z M 72.5 137.359375 "/>
</g>
</svg>
