<?xml version="1.0" encoding="UTF-8"?>
<svg xmlns="http://www.w3.org/2000/svg" xmlns:xlink="http://www.w3.org/1999/xlink" width="145pt" height="128pt" viewBox="0 0 145 128" version="1.1">
<g id="surface1">
<path style=" stroke:none;fill-rule:nonzero;fill:rgb(128,66,255);fill-opacity:1;" d="M 132.917969 0 L 12.082031 0 C 5.414062 0 0 5.375 0 12 L 0 84 C 0 90.625 5.414062 96 12.082031 96 L 60.417969 96 L 54.375 120 L 36.25 120 C 34.035156 120 32.222656 121.800781 32.222656 124 C 32.222656 126.199219 34.035156 128 36.25 128 L 108.75 128 C 110.964844 128 112.777344 126.199219 112.777344 124 C 112.777344 121.800781 110.964844 120 108.75 120 L 90.625 120 L 84.582031 96 L 132.917969 96 C 139.585938 96 145 90.625 145 84 L 145 12 C 145 5.375 139.585938 0 132.917969 0 Z M 62.683594 120 L 66.710938 104 L 78.289062 104 L 82.316406 120 Z M 136.945312 84 C 136.945312 86.199219 135.132812 88 132.917969 88 L 12.082031 88 C 9.867188 88 8.054688 86.199219 8.054688 84 L 8.054688 72 L 136.945312 72 Z M 136.945312 64 L 8.054688 64 L 8.054688 12 C 8.054688 9.800781 9.867188 8 12.082031 8 L 132.917969 8 C 135.132812 8 136.945312 9.800781 136.945312 12 Z M 136.945312 64 "/>
</g>
</svg>
