<?xml version="1.0" encoding="utf-8"?>
<!-- Generator: Adobe Illustrator 16.0.0, SVG Export Plug-In . SVG Version: 6.00 Build 0)  -->
<!DOCTYPE svg PUBLIC "-//W3C//DTD SVG 1.1//EN" "http://www.w3.org/Graphics/SVG/1.1/DTD/svg11.dtd">
<svg version="1.1" id="Layer_1" xmlns="http://www.w3.org/2000/svg" xmlns:xlink="http://www.w3.org/1999/xlink" x="0px" y="0px"
	 width="160px" height="160px" viewBox="0 0 160 160" enable-background="new 0 0 160 160" xml:space="preserve">
<g>
	<g>
		<g>
			<path fill="none" stroke="#000000" stroke-miterlimit="10" d="M102.57,107.862c0,3.118-2.551,5.669-5.669,5.669H55.74
				c-3.118,0-5.669-2.551-5.669-5.669V106.7c0-3.118,2.551-5.669,5.669-5.669h41.162c3.118,0,5.669,2.551,5.669,5.669V107.862z"/>
		</g>
		<g>
			<g>
				<g>
					<rect x="59.667" y="104.771" width="1" height="5.023"/>
				</g>
				<g>
					<rect x="57.655" y="106.781" transform="matrix(-0.7071 -0.7071 0.7071 -0.7071 26.8522 225.685)" width="5.024" height="1"/>
				</g>
				<g>
					<rect x="57.656" y="106.782" transform="matrix(-0.7071 0.7071 -0.7071 -0.7071 178.5731 140.597)" width="5.024" height="1"/>
				</g>
			</g>
			<g>
				<g>
					<rect x="69.691" y="104.771" width="1" height="5.023"/>
				</g>
				<g>
					<rect x="67.678" y="106.781" transform="matrix(-0.7071 -0.7071 0.7071 -0.7071 43.9633 232.7727)" width="5.024" height="1"/>
				</g>
				<g>
					<rect x="67.679" y="106.782" transform="matrix(-0.7072 0.707 -0.707 -0.7072 195.6814 133.5263)" width="5.025" height="1"/>
				</g>
			</g>
			<g>
				<g>
					<rect x="80.84" y="104.77" width="1" height="5.023"/>
				</g>
				<g>
					<rect x="78.828" y="106.78" transform="matrix(-0.7071 -0.7071 0.7071 -0.7071 62.9972 240.6548)" width="5.024" height="1"/>
				</g>
				<g>
					
						<rect x="78.829" y="106.781" transform="matrix(-0.7071 0.7071 -0.7071 -0.7071 214.7168 125.6239)" width="5.024" height="1"/>
				</g>
			</g>
			<g>
				<g>
					<rect x="91.972" y="104.769" width="1" height="5.023"/>
				</g>
				<g>
					<rect x="89.96" y="106.779" transform="matrix(-0.7071 -0.7071 0.7071 -0.7071 82.0011 248.5246)" width="5.024" height="1"/>
				</g>
				<g>
					<rect x="89.96" y="106.78" transform="matrix(-0.7071 0.7071 -0.7071 -0.7071 233.7193 117.7508)" width="5.024" height="1"/>
				</g>
			</g>
		</g>
	</g>
	<path fill="none" stroke="#000000" stroke-miterlimit="10" d="M37.848,63.977"/>
	<path fill="none" stroke="#000000" stroke-miterlimit="10" d="M118.873,79.482v32.929c0,3.131-2.666,5.669-5.955,5.669H39.723
		c-3.289,0-5.955-2.538-5.955-5.669V61.041c0-3.131,2.666-5.669,5.955-5.669h57.085"/>
	<line fill="none" stroke="#000000" stroke-miterlimit="10" x1="33.768" y1="63.977" x2="96.808" y2="63.977"/>
	<line fill="none" stroke="#000000" stroke-miterlimit="10" x1="37.848" y1="60.33" x2="44.37" y2="60.33"/>
	<polygon points="119.016,87.482 96.432,80.316 119.016,79.857 	"/>
	<rect x="96.807" y="49.69" fill="none" stroke="#000000" stroke-miterlimit="10" width="30.168" height="30.167"/>
	<path fill="none" stroke="#000000" stroke-miterlimit="10" d="M107.914,61.383v-1.874c0-2.197,1.78-3.977,3.977-3.977
		s3.977,1.78,3.977,3.977v1.874"/>
	<path fill="#8042FF" stroke="#000000" stroke-miterlimit="10" d="M118.385,69.5c0,2.493-2.021,4.514-4.514,4.514h-3.961
		c-2.492,0-4.514-2.021-4.514-4.514V65.54c0-2.493,2.021-4.514,4.514-4.514h3.961c2.492,0,4.514,2.021,4.514,4.514V69.5z"/>
	<ellipse fill="none" stroke="#000000" stroke-miterlimit="10" cx="131.574" cy="44.09" rx="1.813" ry="2.313"/>
	<ellipse fill="none" stroke="#000000" stroke-miterlimit="10" cx="131.574" cy="51.825" rx="1.813" ry="2.313"/>
	<ellipse fill="none" stroke="#000000" stroke-miterlimit="10" cx="131.574" cy="59.402" rx="1.813" ry="2.313"/>
	<ellipse fill="none" stroke="#000000" stroke-miterlimit="10" cx="136.42" cy="59.402" rx="1.813" ry="2.313"/>
	<polyline fill="none" stroke="#000000" stroke-miterlimit="10" points="126.162,41.777 127.495,41.777 127.495,46.902 	"/>
	<polyline fill="none" stroke="#000000" stroke-miterlimit="10" points="122.875,41.777 124.208,41.777 124.208,46.902 	"/>
	<g>
		<circle fill="#FFFFFF" stroke="#000000" stroke-miterlimit="10" cx="111.891" cy="66.498" r="1.609"/>
		<ellipse fill="#8042FF" stroke="#000000" stroke-miterlimit="10" cx="111.891" cy="69.084" rx="0" ry="1.067"/>
	</g>
	<path stroke="#000000" stroke-miterlimit="10" d="M76.32,73.748c-2.678,0-4.852,2.175-4.852,4.852v9.555h0.578h9.125v-9.555
		C81.172,75.922,78.996,73.748,76.32,73.748z M76.314,87.363c-0.474-0.332-0.875-0.715-1.212-1.135
		c-2.382-2.932-1.761-7.529-1.761-7.529h5.962c0,0,0.608,4.597-1.778,7.529C77.188,86.648,76.787,87.031,76.314,87.363z"/>
	<g>
		<path fill="#8042FF" d="M76.32,94.175c-2.695,0-5.253-0.86-7.4-2.489l-0.375-0.284l0.261-0.392
			c0.677-1.183,1.678-2.158,2.918-2.858c0.981-0.557,2.127-0.934,3.313-1.089l0.279-0.036l0.176,0.22
			c0.244,0.304,0.519,0.579,0.821,0.822c0.302-0.243,0.578-0.519,0.821-0.822l0.175-0.219l0.278,0.035
			c1.401,0.179,2.736,0.673,3.861,1.429c1.02,0.673,1.853,1.555,2.404,2.547l0.21,0.379l-0.345,0.262
			C81.576,93.312,79.018,94.175,76.32,94.175z"/>
		<g>
			<path d="M77.525,87.559c1.348,0.172,2.6,0.645,3.646,1.348c0.939,0.62,1.72,1.43,2.245,2.375
				c-1.979,1.508-4.438,2.394-7.097,2.394c-2.66,0-5.118-0.886-7.098-2.388c0.012-0.018,0.029-0.041,0.041-0.064
				c0.627-1.1,1.566-1.992,2.707-2.636c0.928-0.526,1.997-0.88,3.132-1.028c0.337,0.42,0.738,0.804,1.212,1.135
				C76.787,88.362,77.188,87.979,77.525,87.559 M75.531,86.494l-0.558,0.073c-1.249,0.163-2.457,0.561-3.496,1.149
				c-1.314,0.741-2.378,1.78-3.078,3.003l-0.522,0.767l0.741,0.598c2.234,1.695,4.897,2.591,7.702,2.591
				c2.808,0,5.472-0.898,7.703-2.598l0.688-0.525l-0.421-0.756c-0.591-1.063-1.479-2.005-2.568-2.725
				c-1.183-0.794-2.593-1.316-4.071-1.505l-0.556-0.07l-0.351,0.437c-0.134,0.167-0.278,0.324-0.432,0.471
				c-0.154-0.146-0.298-0.304-0.432-0.471L75.531,86.494L75.531,86.494z"/>
		</g>
	</g>
	<circle fill="none" stroke="#000000" stroke-miterlimit="10" cx="76.32" cy="82.121" r="12.196"/>
</g>
</svg>
