<?xml version="1.0" encoding="UTF-8"?>
<svg xmlns="http://www.w3.org/2000/svg" xmlns:xlink="http://www.w3.org/1999/xlink" width="145pt" height="128pt" viewBox="0 0 145 128" version="1.1">
<g id="surface1">
<path style=" stroke:none;fill-rule:nonzero;fill:rgb(128,66,255);fill-opacity:1;" d="M 132.917969 8 L 12.082031 8 C 5.414062 8 0 13.375 0 20 L 0 108 C 0 114.625 5.414062 120 12.082031 120 L 132.917969 120 C 139.585938 120 145 114.625 145 108 L 145 20 C 145 13.375 139.585938 8 132.917969 8 Z M 12.082031 16 L 132.917969 16 C 135.132812 16 136.945312 17.800781 136.945312 20 L 136.945312 32 L 8.054688 32 L 8.054688 20 C 8.054688 17.800781 9.867188 16 12.082031 16 Z M 132.917969 112 L 12.082031 112 C 9.867188 112 8.054688 110.199219 8.054688 108 L 8.054688 56 L 136.945312 56 L 136.945312 108 C 136.945312 110.199219 135.132812 112 132.917969 112 Z M 48.332031 91 L 48.332031 93 C 48.332031 94.648438 46.972656 96 45.3125 96 L 27.1875 96 C 25.527344 96 24.167969 94.648438 24.167969 93 L 24.167969 91 C 24.167969 89.351562 25.527344 88 27.1875 88 L 45.3125 88 C 46.972656 88 48.332031 89.351562 48.332031 91 Z M 96.667969 91 L 96.667969 93 C 96.667969 94.648438 95.308594 96 93.644531 96 L 59.410156 96 C 57.75 96 56.390625 94.648438 56.390625 93 L 56.390625 91 C 56.390625 89.351562 57.75 88 59.410156 88 L 93.644531 88 C 95.308594 88 96.667969 89.351562 96.667969 91 Z M 96.667969 91 "/>
</g>
</svg>
