<?xml version="1.0" encoding="UTF-8"?>
<svg xmlns="http://www.w3.org/2000/svg" xmlns:xlink="http://www.w3.org/1999/xlink" width="145pt" height="193pt" viewBox="0 0 145 193" version="1.1">
<g id="surface1">
<path style=" stroke:none;fill-rule:nonzero;fill:rgb(128,66,255);fill-opacity:1;" d="M 117.8125 156.8125 L 87.605469 156.8125 C 85.933594 156.8125 84.582031 158.160156 84.582031 159.828125 L 84.582031 165.859375 C 84.582031 167.527344 85.933594 168.875 87.605469 168.875 L 117.8125 168.875 C 119.480469 168.875 120.832031 167.527344 120.832031 165.859375 L 120.832031 159.828125 C 120.832031 158.160156 119.480469 156.8125 117.8125 156.8125 Z M 24.167969 90.46875 L 24.167969 126.65625 C 24.167969 129.988281 27.257812 132.6875 31.074219 132.6875 L 113.929688 132.6875 C 117.746094 132.6875 120.835938 129.988281 120.835938 126.65625 L 120.835938 90.46875 C 120.835938 87.136719 117.746094 84.4375 113.929688 84.4375 L 31.074219 84.4375 C 27.257812 84.4375 24.167969 87.136719 24.167969 90.46875 Z M 36.25 96.5 L 108.75 96.5 L 108.75 120.625 L 36.25 120.625 Z M 27.1875 36.1875 L 69.480469 36.1875 C 71.148438 36.1875 72.5 34.839844 72.5 33.171875 L 72.5 27.140625 C 72.5 25.472656 71.148438 24.125 69.480469 24.125 L 27.1875 24.125 C 25.519531 24.125 24.167969 25.472656 24.167969 27.140625 L 24.167969 33.171875 C 24.167969 34.839844 25.519531 36.1875 27.1875 36.1875 Z M 27.1875 60.3125 L 69.480469 60.3125 C 71.148438 60.3125 72.5 58.964844 72.5 57.296875 L 72.5 51.265625 C 72.5 49.597656 71.148438 48.25 69.480469 48.25 L 27.1875 48.25 C 25.519531 48.25 24.167969 49.597656 24.167969 51.265625 L 24.167969 57.296875 C 24.167969 58.964844 25.519531 60.3125 27.1875 60.3125 Z M 139.675781 36.933594 L 108.003906 5.316406 C 104.605469 1.921875 99.996094 0 95.207031 0 L 18.121094 0 C 8.117188 0.0390625 0 8.140625 0 18.128906 L 0 174.910156 C 0 184.894531 8.117188 193 18.121094 193 L 126.878906 193 C 136.882812 193 145 184.894531 145 174.910156 L 145 49.746094 C 145 44.964844 143.074219 40.328125 139.675781 36.933594 Z M 96.679688 12.285156 C 97.734375 12.546875 98.679688 13.078125 99.472656 13.867188 L 131.144531 45.488281 C 131.9375 46.277344 132.46875 47.222656 132.730469 48.277344 L 96.679688 48.277344 Z M 132.921875 174.910156 C 132.921875 178.226562 130.203125 180.941406 126.878906 180.941406 L 18.121094 180.941406 C 14.796875 180.941406 12.078125 178.226562 12.078125 174.910156 L 12.078125 18.128906 C 12.078125 14.808594 14.796875 12.0625 18.121094 12.0625 L 84.59375 12.0625 L 84.59375 51.292969 C 84.59375 56.304688 88.636719 60.3125 93.65625 60.3125 L 132.921875 60.3125 Z M 132.921875 174.910156 "/>
</g>
</svg>
