<?xml version="1.0" encoding="utf-8"?>
<!-- Generator: Adobe Illustrator 16.0.0, SVG Export Plug-In . SVG Version: 6.00 Build 0)  -->
<!DOCTYPE svg PUBLIC "-//W3C//DTD SVG 1.1//EN" "http://www.w3.org/Graphics/SVG/1.1/DTD/svg11.dtd">
<svg version="1.1" id="Layer_1" xmlns="http://www.w3.org/2000/svg" xmlns:xlink="http://www.w3.org/1999/xlink" x="0px" y="0px"
	 width="160px" height="160px" viewBox="0 0 160 160" enable-background="new 0 0 160 160" xml:space="preserve">
<g>
	<path fill="#8042FF" d="M76.646,36.107c-10.721,0-19.44,8.72-19.44,19.44v8.7c1.94-1.38,4.04-2.55,6.25-3.5v-4.7
		c0-7.27,5.92-13.18,13.19-13.18c7.27,0,13.18,5.91,13.18,13.18v4.7c2.21,0.95,4.311,2.12,6.25,3.5v-8.7
		C96.076,44.827,87.355,36.107,76.646,36.107z"/>
	<circle fill="#8042FF" stroke="#FFFFFF" stroke-miterlimit="10" cx="76.509" cy="88.686" r="7.187"/>
	<ellipse fill="none" stroke="#FFFFFF" stroke-miterlimit="10" cx="76.509" cy="100.238" rx="0" ry="4.765"/>
	<g>
		<path fill="#FF0000" stroke="#000000" stroke-miterlimit="10" d="M63.955,51.739"/>
	</g>
	<path fill="#FFFFFF" d="M76.646,35.107c-11.271,0-20.44,9.17-20.44,20.44v10.669h0.06c0.141-0.129,0.291-0.24,0.44-0.35
		c0.17-0.13,0.33-0.26,0.5-0.38c1.931-1.44,4.03-2.67,6.25-3.65c0.17-0.08,0.34-0.15,0.5-0.22c0.17-0.07,0.33-0.14,0.5-0.2v-5.37
		c0-6.72,5.47-12.18,12.19-12.18c6.72,0,12.18,5.46,12.18,12.18v5.37c0.17,0.06,0.34,0.13,0.5,0.2c0.17,0.07,0.34,0.14,0.5,0.22
		c2.23,0.98,4.32,2.209,6.25,3.65c0.17,0.12,0.33,0.25,0.5,0.38c0.15,0.109,0.3,0.221,0.439,0.35h0.061V55.547
		C97.076,44.277,87.916,35.107,76.646,35.107z M96.076,64.247c-1.939-1.38-4.04-2.55-6.25-3.5v-4.7c0-7.27-5.91-13.18-13.18-13.18
		c-7.271,0-13.19,5.91-13.19,13.18v4.7c-2.21,0.95-4.31,2.12-6.25,3.5v-8.7c0-10.72,8.72-19.44,19.44-19.44
		c10.709,0,19.43,8.72,19.43,19.44V64.247z"/>
	<g>
		<path fill="#FF0000" stroke="#000000" stroke-miterlimit="10" d="M56.705,66.219"/>
	</g>
	<circle fill="none" stroke="#FFFFFF" stroke-miterlimit="10" cx="76.643" cy="91.726" r="33.167"/>
	<line fill="none" x1="64.456" y1="60.337" x2="64.456" y2="59.697"/>
	<line fill="none" x1="88.826" y1="60.337" x2="88.826" y2="57.577"/>
	<ellipse fill="none" stroke="#FFFFFF" stroke-miterlimit="10" cx="119.752" cy="92.946" rx="1.813" ry="2.313"/>
	<ellipse fill="none" stroke="#FFFFFF" stroke-miterlimit="10" cx="130.054" cy="93.196" rx="1.813" ry="2.313"/>
	<ellipse fill="none" stroke="#FFFFFF" stroke-miterlimit="10" cx="124.497" cy="100.682" rx="1.813" ry="2.313"/>
	<ellipse fill="none" stroke="#FFFFFF" stroke-miterlimit="10" cx="115.652" cy="100.682" rx="1.813" ry="2.313"/>
	<ellipse fill="none" stroke="#FFFFFF" stroke-miterlimit="10" cx="115.652" cy="108.259" rx="1.813" ry="2.313"/>
	<ellipse fill="none" stroke="#FFFFFF" stroke-miterlimit="10" cx="124.497" cy="108.259" rx="1.813" ry="2.313"/>
	<polyline fill="none" stroke="#FFFFFF" stroke-miterlimit="10" points="119.085,98.369 120.418,98.369 120.418,103.494 	"/>
	<polyline fill="none" stroke="#FFFFFF" stroke-miterlimit="10" points="123.83,90.634 125.164,90.634 125.164,95.759 	"/>
	<polyline fill="none" stroke="#FFFFFF" stroke-miterlimit="10" points="113.085,79.369 114.418,79.369 114.418,84.494 	"/>
	<circle fill="none" stroke="#FFFFFF" stroke-miterlimit="10" cx="35.977" cy="51.773" r="2.313"/>
	<circle fill="none" stroke="#FFFFFF" stroke-miterlimit="10" cx="117.685" cy="67.338" r="2.313"/>
	<circle fill="none" stroke="#FFFFFF" stroke-miterlimit="10" cx="33.664" cy="73.93" r="2.313"/>
	<line fill="none" stroke="#FFFFFF" stroke-miterlimit="10" x1="104.861" y1="51.513" x2="101.09" y2="55.284"/>
	<line fill="none" stroke="#FFFFFF" stroke-miterlimit="10" x1="104.861" y1="55.284" x2="101.09" y2="51.513"/>
	<line fill="none" stroke="#FFFFFF" stroke-miterlimit="10" x1="51.195" y1="58.854" x2="47.424" y2="62.625"/>
	<line fill="none" stroke="#FFFFFF" stroke-miterlimit="10" x1="51.195" y1="62.625" x2="47.424" y2="58.854"/>
	<polygon fill="#FFFFFF" points="71.097,91.935 44.68,101.385 43.687,95.472 42.9,92.27 	"/>
	<rect x="28.134" y="79.27" fill="#404040" stroke="#FFFFFF" stroke-miterlimit="10" width="48.375" height="13"/>
	<g>
		<g>
			<g>
				<rect x="36.048" y="83.258" fill="#FFFFFF" width="1" height="5.023"/>
			</g>
			<g>
				
					<rect x="34.035" y="85.269" transform="matrix(-0.7071 -0.7071 0.7071 -0.7071 1.7419 172.2586)" fill="#FFFFFF" width="5.024" height="1"/>
			</g>
			<g>
				
					<rect x="34.036" y="85.271" transform="matrix(-0.7072 0.707 -0.707 -0.7072 123.036 120.5877)" fill="#FFFFFF" width="5.025" height="1"/>
			</g>
		</g>
		<g>
			<g>
				<rect x="67.595" y="83.258" fill="#FFFFFF" width="1" height="5.023"/>
			</g>
			<g>
				
					<rect x="65.582" y="85.269" transform="matrix(-0.7071 -0.7071 0.7071 -0.7071 55.5958 194.5656)" fill="#FFFFFF" width="5.024" height="1"/>
			</g>
			<g>
				
					<rect x="65.583" y="85.271" transform="matrix(-0.7072 0.707 -0.707 -0.7072 176.893 98.2838)" fill="#FFFFFF" width="5.025" height="1"/>
			</g>
		</g>
		<g>
			<g>
				<rect x="57.334" y="83.258" fill="#FFFFFF" width="1" height="5.023"/>
			</g>
			<g>
				
					<rect x="55.322" y="85.269" transform="matrix(-0.7071 -0.7071 0.7071 -0.7071 38.0813 187.3109)" fill="#FFFFFF" width="5.024" height="1"/>
			</g>
			<g>
				
					<rect x="55.323" y="85.271" transform="matrix(-0.7071 0.7071 -0.7071 -0.7071 159.3794 105.5239)" fill="#FFFFFF" width="5.024" height="1"/>
			</g>
		</g>
		<g>
			<g>
				<rect x="46.309" y="83.258" fill="#FFFFFF" width="1" height="5.023"/>
			</g>
			<g>
				
					<rect x="44.296" y="85.269" transform="matrix(-0.7071 -0.7071 0.7071 -0.7071 19.2597 179.5148)" fill="#FFFFFF" width="5.024" height="1"/>
			</g>
			<g>
				
					<rect x="44.297" y="85.271" transform="matrix(-0.7071 0.7071 -0.7071 -0.7071 140.5578 113.3201)" fill="#FFFFFF" width="5.024" height="1"/>
			</g>
		</g>
	</g>
</g>
</svg>
