<?xml version="1.0" encoding="utf-8"?>
<!-- Generator: Adobe Illustrator 16.0.0, SVG Export Plug-In . SVG Version: 6.00 Build 0)  -->
<!DOCTYPE svg PUBLIC "-//W3C//DTD SVG 1.1//EN" "http://www.w3.org/Graphics/SVG/1.1/DTD/svg11.dtd">
<svg version="1.1" id="Layer_1" xmlns="http://www.w3.org/2000/svg" xmlns:xlink="http://www.w3.org/1999/xlink" x="0px" y="0px"
	 width="160px" height="160px" viewBox="0 0 160 160" enable-background="new 0 0 160 160" xml:space="preserve">
<g>
	<circle fill="#717171" stroke="#FFFFFF" stroke-miterlimit="10" cx="76.32" cy="82.193" r="12.195"/>
	<g>
		<path fill="#717171" d="M102.57,107.933c0,3.118-2.551,5.669-5.669,5.669H55.74c-3.118,0-5.668-2.551-5.668-5.669v-1.162
			c0-3.118,2.55-5.669,5.668-5.669h41.162c3.118,0,5.669,2.551,5.669,5.669V107.933z"/>
		<path fill="none" stroke="#FFFFFF" stroke-miterlimit="10" d="M102.57,107.933c0,3.118-2.551,5.669-5.669,5.669H55.74
			c-3.118,0-5.668-2.551-5.668-5.669v-1.162c0-3.118,2.55-5.669,5.668-5.669h41.162c3.118,0,5.669,2.551,5.669,5.669V107.933z"/>
	</g>
	<g>
		<g>
			<g>
				<rect x="59.667" y="104.842" fill="#FFFFFF" width="1" height="5.023"/>
			</g>
			<g>
				
					<rect x="57.655" y="106.853" transform="matrix(-0.7072 -0.7071 0.7071 -0.7072 26.8112 225.8096)" fill="#FFFFFF" width="5.025" height="1"/>
			</g>
			<g>
				
					<rect x="57.656" y="106.853" transform="matrix(-0.7072 0.7071 -0.7071 -0.7072 178.6218 140.7247)" fill="#FFFFFF" width="5.025" height="1"/>
			</g>
		</g>
		<g>
			<g>
				<rect x="69.692" y="104.842" fill="#FFFFFF" width="1" height="5.023"/>
			</g>
			<g>
				
					<rect x="67.679" y="106.853" transform="matrix(-0.7071 -0.7072 0.7072 -0.7071 43.9055 232.8931)" fill="#FFFFFF" width="5.024" height="1"/>
			</g>
			<g>
				
					<rect x="67.68" y="106.853" transform="matrix(-0.7072 0.7071 -0.7071 -0.7072 195.7342 133.6372)" fill="#FFFFFF" width="5.025" height="1"/>
			</g>
		</g>
		<g>
			<g>
				<rect x="80.842" y="104.84" fill="#FFFFFF" width="1" height="5.023"/>
			</g>
			<g>
				
					<rect x="78.829" y="106.851" transform="matrix(-0.7071 -0.7072 0.7072 -0.7071 62.9404 240.7745)" fill="#FFFFFF" width="5.024" height="1"/>
			</g>
			<g>
				
					<rect x="78.83" y="106.853" transform="matrix(-0.7072 0.7071 -0.7071 -0.7072 214.7688 125.7536)" fill="#FFFFFF" width="5.025" height="1"/>
			</g>
		</g>
		<g>
			<g>
				<rect x="91.973" y="104.84" fill="#FFFFFF" width="1" height="5.023"/>
			</g>
			<g>
				
					<rect x="89.96" y="106.851" transform="matrix(-0.7071 -0.7071 0.7071 -0.7071 81.9507 248.6463)" fill="#FFFFFF" width="5.024" height="1"/>
			</g>
			<g>
				
					<rect x="89.961" y="106.851" transform="matrix(-0.7071 0.7071 -0.7071 -0.7071 233.7707 117.8702)" fill="#FFFFFF" width="5.024" height="1"/>
			</g>
		</g>
	</g>
	<path fill="none" stroke="#000000" stroke-miterlimit="10" d="M37.849,64.048"/>
	<path fill="none" stroke="#FFFFFF" stroke-miterlimit="10" d="M118.873,79.553v32.929c0,3.131-2.666,5.67-5.955,5.67H39.723
		c-3.289,0-5.955-2.539-5.955-5.67V61.111c0-3.131,2.666-5.669,5.955-5.669h57.085"/>
	<line fill="none" stroke="#FFFFFF" stroke-miterlimit="10" x1="33.768" y1="64.048" x2="96.809" y2="64.048"/>
	<line fill="none" stroke="#FFFFFF" stroke-miterlimit="10" x1="37.849" y1="60.401" x2="44.371" y2="60.401"/>
	<polygon fill="#FFFFFF" points="119.016,87.553 96.432,80.386 119.016,79.928 	"/>
	<rect x="96.807" y="49.762" fill="none" stroke="#FFFFFF" stroke-miterlimit="10" width="30.168" height="30.167"/>
	<path fill="none" stroke="#FFFFFF" stroke-miterlimit="10" d="M107.914,61.454v-1.874c0-2.197,1.781-3.977,3.977-3.977
		c2.197,0,3.977,1.779,3.977,3.977v1.874"/>
	<path fill="#717171" stroke="#FFFFFF" stroke-miterlimit="10" d="M118.385,69.571c0,2.494-2.021,4.514-4.514,4.514h-3.961
		c-2.492,0-4.514-2.021-4.514-4.514V65.61c0-2.493,2.021-4.514,4.514-4.514h3.961c2.492,0,4.514,2.021,4.514,4.514V69.571z"/>
	<ellipse fill="none" stroke="#FFFFFF" stroke-miterlimit="10" cx="131.574" cy="44.161" rx="1.813" ry="2.313"/>
	<ellipse fill="none" stroke="#FFFFFF" stroke-miterlimit="10" cx="131.574" cy="51.896" rx="1.813" ry="2.313"/>
	<ellipse fill="none" stroke="#FFFFFF" stroke-miterlimit="10" cx="131.574" cy="59.473" rx="1.813" ry="2.313"/>
	<ellipse fill="none" stroke="#FFFFFF" stroke-miterlimit="10" cx="136.42" cy="59.473" rx="1.813" ry="2.313"/>
	<polyline fill="none" stroke="#FFFFFF" stroke-miterlimit="10" points="126.162,41.849 127.496,41.849 127.496,46.974 	"/>
	<polyline fill="none" stroke="#FFFFFF" stroke-miterlimit="10" points="122.875,41.849 124.209,41.849 124.209,46.974 	"/>
	<g>
		<circle fill="none" stroke="#FFFFFF" stroke-miterlimit="10" cx="111.891" cy="66.569" r="1.609"/>
		<ellipse fill="none" stroke="#FFFFFF" stroke-miterlimit="10" cx="111.891" cy="69.155" rx="0" ry="1.067"/>
	</g>
	<path fill="#FFFFFF" stroke="#FFFFFF" stroke-miterlimit="10" d="M76.321,73.819c-2.677,0-4.852,2.175-4.852,4.852v9.556h0.578
		h9.125V78.67C81.172,75.994,78.998,73.819,76.321,73.819z M76.315,87.434c-0.474-0.33-0.875-0.715-1.212-1.135
		c-2.382-2.93-1.761-7.528-1.761-7.528h5.963c0,0,0.608,4.598-1.778,7.528C77.19,86.719,76.788,87.104,76.315,87.434z"/>
	<g>
		<path fill="#404040" d="M76.321,94.246c-2.694,0-5.253-0.861-7.399-2.49l-0.375-0.284l0.261-0.392
			c0.676-1.18,1.677-2.156,2.917-2.857c0.986-0.558,2.132-0.935,3.313-1.09l0.278-0.036l0.176,0.22
			c0.245,0.305,0.521,0.581,0.822,0.823c0.302-0.243,0.577-0.52,0.822-0.823l0.175-0.219l0.278,0.035
			c1.401,0.179,2.736,0.673,3.861,1.429c1.021,0.676,1.854,1.558,2.404,2.55l0.21,0.378l-0.345,0.262
			C81.576,93.384,79.018,94.246,76.321,94.246z"/>
		<g>
			<path fill="#FFFFFF" d="M77.527,87.629c1.347,0.172,2.6,0.645,3.645,1.348c0.939,0.621,1.721,1.43,2.246,2.377
				c-1.979,1.506-4.438,2.393-7.097,2.393c-2.66,0-5.118-0.887-7.097-2.389c0.012-0.018,0.029-0.041,0.041-0.064
				c0.626-1.098,1.566-1.99,2.707-2.635c0.928-0.525,1.997-0.881,3.132-1.029c0.337,0.42,0.738,0.805,1.212,1.135
				C76.788,88.434,77.19,88.049,77.527,87.629 M75.531,86.564l-0.558,0.073c-1.244,0.162-2.453,0.561-3.495,1.15
				c-1.315,0.743-2.379,1.781-3.078,3.002l-0.522,0.766l0.741,0.599c2.235,1.695,4.898,2.592,7.702,2.592
				c2.808,0,5.47-0.898,7.703-2.597l0.688-0.524l-0.419-0.757c-0.589-1.062-1.478-2.004-2.569-2.726
				c-1.183-0.795-2.591-1.317-4.07-1.506l-0.557-0.07l-0.351,0.437c-0.134,0.167-0.278,0.324-0.432,0.472
				c-0.153-0.146-0.298-0.305-0.432-0.472L75.531,86.564L75.531,86.564z"/>
		</g>
	</g>
</g>
</svg>
