<svg xmlns="http://www.w3.org/2000/svg" viewBox="0 0 503 503"><defs><style>.cls-1{fill:#804cfb;}.cls-2{fill:#fafafa;}.cls-3{fill:#ddd;}.cls-4{fill:#8b8b8b;}.cls-5{fill:#fff;}</style></defs><title>Identity_subject</title><g id="Warstwa_3" data-name="Warstwa 3"><path class="cls-1" d="M181.7,228.4h0l-102.93-.17a12.09,12.09,0,0,1-12-12.1l.09-60.73a12.09,12.09,0,0,1,12.08-12.06h0l102.92.17a12.09,12.09,0,0,1,12.06,12.09l-.1,60.74A12.09,12.09,0,0,1,181.7,228.4Zm0-3h0a9.09,9.09,0,0,0,9.07-9.06l.1-60.74a9.08,9.08,0,0,0-9.06-9.09l-102.92-.17h0a9.08,9.08,0,0,0-9.08,9.06l-.09,60.74a9.08,9.08,0,0,0,9.06,9.09Z"/><polygon points="433.87 278.19 398.13 278.19 398.13 244.44 433.87 262.46 433.87 278.19"/><path d="M433.87,279.19H398.13a1,1,0,0,1-1-1V244.44a1,1,0,0,1,.48-.85,1,1,0,0,1,1,0l35.74,18a1,1,0,0,1,.55.9v15.73A1,1,0,0,1,433.87,279.19Zm-34.74-2h33.74V263.07l-33.74-17Z"/><rect class="cls-2" x="111.48" y="167.94" width="285.72" height="188.58" rx="10.58" transform="translate(0.43 -0.41) rotate(0.09)"/><path d="M386.49,357.73h0l-264.57-.42a11.6,11.6,0,0,1-11.56-11.6l.27-167.42a11.59,11.59,0,0,1,11.58-11.56h0l264.57.43a11.59,11.59,0,0,1,11.56,11.59l-.28,167.43A11.58,11.58,0,0,1,386.49,357.73Zm0-2h0a9.57,9.57,0,0,0,9.57-9.56l.28-167.42a9.6,9.6,0,0,0-9.57-9.59l-264.57-.43h0a9.58,9.58,0,0,0-9.58,9.56l-.27,167.42a9.59,9.59,0,0,0,9.56,9.6Z"/><path d="M375.37,208.06h0l-114.54-.19a1,1,0,0,1,0-2h0l114.55.19a1,1,0,0,1,0,2Z"/><path d="M375.34,226.59h0l-114.55-.19a1,1,0,0,1,0-2h0l114.55.19a1,1,0,0,1,0,2Z"/><path d="M375.31,245.12h0l-114.55-.19a1,1,0,0,1,0-2h0l114.55.19a1,1,0,0,1,0,2Z"/><path d="M375.28,263.64h0l-114.55-.18a1,1,0,0,1,0-2h0l114.55.18a1,1,0,0,1,0,2Z"/><path d="M318,282.08h0L260.7,282a1,1,0,0,1,0-2h0l57.27.09a1,1,0,0,1,0,2Z"/><rect class="cls-3" x="357.52" y="315.37" width="18.36" height="18.36" transform="translate(41.56 690.73) rotate(-89.91)"/><rect class="cls-3" x="319.34" y="315.31" width="18.36" height="18.36" transform="translate(3.5 652.48) rotate(-89.91)"/><rect class="cls-3" x="281.16" y="315.24" width="18.36" height="18.36" transform="translate(-34.56 614.24) rotate(-89.91)"/><rect class="cls-3" x="242.98" y="315.18" width="18.36" height="18.36" transform="translate(-72.61 575.99) rotate(-89.91)"/><rect class="cls-3" x="204.79" y="315.12" width="18.36" height="18.36" transform="translate(-110.67 537.75) rotate(-89.91)"/><rect class="cls-3" x="166.61" y="315.06" width="18.36" height="18.36" transform="translate(-148.73 499.5) rotate(-89.91)"/><rect class="cls-3" x="128.43" y="315" width="18.36" height="18.36" transform="translate(-186.79 461.26) rotate(-89.91)"/><rect class="cls-3" x="128.56" y="185.32" width="113.06" height="113.06" transform="translate(0.39 -0.3) rotate(0.09)"/><path class="cls-4" d="M140.58,298.31c5.21-22.1,23.16-38.36,44.48-38.33s39.22,16.36,44.36,38.47"/><circle class="cls-2" cx="208.05" cy="245.9" r="6.19"/><circle class="cls-2" cx="162.19" cy="245.83" r="6.19"/><path class="cls-2" d="M210.38,229.66a25.06,25.06,0,1,0-50.11-.08,26.63,26.63,0,0,0,.51,5.16L164.36,253a23.56,23.56,0,0,0,.49,2.81h0a20.88,20.88,0,0,0,40.86.06h0v-.05a22.72,22.72,0,0,0,.49-2.78S210.37,233,210.38,229.66Z"/><path d="M187.24,244.06H184.3a1,1,0,0,1,0-2h2.93a1,1,0,0,1,0,2Z"/><path d="M168,244a1,1,0,0,1-.5-.13l-5.92-3.4a1,1,0,1,1,1-1.73l5.92,3.39A1,1,0,0,1,168,244Z"/><path d="M176.22,252.13h0a9.09,9.09,0,0,1,0-18.18h0a9.09,9.09,0,0,1,0,18.18Zm0-16.18a7.09,7.09,0,1,0,0,14.18h0a7.1,7.1,0,0,0,7.09-7.08h0a7.1,7.1,0,0,0-7.08-7.1Z"/><path d="M195.41,252.16h0a9.09,9.09,0,0,1,0-18.18h0a9.09,9.09,0,0,1,0,18.18Zm0-16.18a7.08,7.08,0,0,0-7.09,7.08,7.08,7.08,0,0,0,7.07,7.1h0a7.09,7.09,0,0,0,0-14.18Z"/><path d="M203.5,244.09a1,1,0,0,1-.5-1.87l5.05-2.89a1,1,0,0,1,1,1.73L204,244A1,1,0,0,1,203.5,244.09Z"/><path d="M162.61,233.2h-.25a1,1,0,0,1-1-1,1,1,0,0,1,1-1,9.08,9.08,0,0,0,8.9-5.47,16.11,16.11,0,0,0,1.49-5.77,1,1,0,0,1,.53-.85,1,1,0,0,1,1,0c3.94,2.53,9.62,4.26,12.45,4.29a9.22,9.22,0,0,0,6.25-2,6.17,6.17,0,0,0,2-3.64,20.28,20.28,0,0,1-4.8-1.26c-1.89-.74-2.89-2-2.75-3.36a3,3,0,0,1,2.19-2.42,5.12,5.12,0,0,1,4,.42,6.5,6.5,0,0,1,3.17,3.78,5.76,5.76,0,0,1,.22,1,13.26,13.26,0,0,0,7.39-1.85c3.84-2.39,6.68-7.84,4.61-11.84a6.41,6.41,0,0,0-5.62-3.86c-6.76-.36-17.16,7.89-22.26,15.54a1,1,0,0,1-1.66-1.11c4.79-7.18,15.79-16.9,24-16.43a8.49,8.49,0,0,1,7.29,4.94c2.61,5-.65,11.55-5.34,14.46a15.14,15.14,0,0,1-8.43,2.15,8.21,8.21,0,0,1-2.66,5,11.22,11.22,0,0,1-7.61,2.54c-3.15,0-8.3-1.68-12.15-3.8C174,225.16,171.71,233.2,162.61,233.2Zm28.48-20.7a2.53,2.53,0,0,0-.83.13c-.38.12-.79.39-.82.7-.05.48.72,1,1.5,1.31a18,18,0,0,0,4,1.09l-.06-.23a4.51,4.51,0,0,0-2.18-2.59A3.59,3.59,0,0,0,191.09,212.5Z"/><path d="M188.14,256a1,1,0,0,1-1-.82l-3.81-21.07a1,1,0,0,1,2-.36l3.82,21.07a1,1,0,0,1-.8,1.16Z"/><path d="M188.14,256a1.35,1.35,0,0,1-.28,0l-4.81-1.41a1,1,0,1,1,.56-1.92l4.81,1.41a1,1,0,0,1,.68,1.24A1,1,0,0,1,188.14,256Z"/><path d="M186.2,261.53h0a9.47,9.47,0,0,1-6.66-2.49,1,1,0,0,1,0-1.41,1,1,0,0,1,1.42,0,7.54,7.54,0,0,0,5.26,1.91,1,1,0,0,1,1,1A1,1,0,0,1,186.2,261.53Z"/><path d="M186.22,261.53a1,1,0,1,1,0-2h0a7.58,7.58,0,0,0,5.25-1.89,1,1,0,0,1,1.4,1.42A9.47,9.47,0,0,1,186.22,261.53Z"/><ellipse cx="176.07" cy="243.04" rx="2.5" ry="1.81" transform="translate(-67.26 418.72) rotate(-89.91)"/><ellipse cx="195.26" cy="243.07" rx="2.5" ry="1.81" transform="translate(-48.13 437.94) rotate(-89.91)"/><rect class="cls-1" x="320.26" y="262.46" width="113.62" height="113.62"/><path d="M433.87,377.07H320.26a1,1,0,0,1-1-1V262.46a1,1,0,0,1,1-1H433.87a1,1,0,0,1,1,1V376.07A1,1,0,0,1,433.87,377.07Zm-112.61-2H432.87V263.46H321.26Z"/><path class="cls-5" d="M398,313.1a1.7,1.7,0,0,0-1.45-.47l-1-1H364.06a1.75,1.75,0,1,0-1.39,2.81,1.77,1.77,0,0,0,1.39-.69h30.55l.42.42a1.73,1.73,0,0,0,.47,1.45A1.75,1.75,0,1,0,398,313.1"/><path class="cls-5" d="M359.1,327.11H389a1.73,1.73,0,0,0,1.38.69,1.75,1.75,0,1,0,0-3.5A1.73,1.73,0,0,0,389,325H360l-.42-.42a1.75,1.75,0,1,0-1.5,1.5Z"/><path class="cls-5" d="M361.28,318.23l-3.52-3.53v-4l3.53-3.53H393.5a1.75,1.75,0,1,0,0-2.12H360.41l-4.77,4.77v5.74l4.77,4.77,31.41-.06,3.53,3.53v4.29l-3.53,3.53H362.21a1.75,1.75,0,1,0-1.39,2.81,1.77,1.77,0,0,0,1.39-.69H392.7l4.76-4.77v-6.05l-4.77-4.77Z"/><path class="cls-5" d="M367.82,294.67a1.74,1.74,0,0,0,1.38-.7h15.29a1.76,1.76,0,1,0,0-2.11H369.2a1.74,1.74,0,0,0-1.38-.7,1.76,1.76,0,1,0,0,3.51"/><path class="cls-5" d="M362,301.15a1.74,1.74,0,0,0,1.39-.69h27a1.75,1.75,0,1,0,0-2.12h-27a1.75,1.75,0,1,0-1.39,2.81"/><path class="cls-5" d="M389.41,337.39a1.75,1.75,0,0,0-1.39.7l-21.95,0a1.75,1.75,0,1,0,0,2.12l21.95,0a1.75,1.75,0,0,0,3.14-1.06,1.76,1.76,0,0,0-1.75-1.76"/><path class="cls-5" d="M383.47,343.86a1.75,1.75,0,0,0-1.39.7l-9.48,0a1.75,1.75,0,1,0-1.39,2.81,1.77,1.77,0,0,0,1.39-.69l9.48,0a1.73,1.73,0,0,0,1.38.7,1.76,1.76,0,0,0,0-3.51"/><path class="cls-1" d="M408,157.21a1.49,1.49,0,0,1-1.1-.48,1.51,1.51,0,0,1,.08-2.12l10.65-9.81a1.51,1.51,0,0,1,2.12.08,1.49,1.49,0,0,1-.08,2.12L409,156.82A1.53,1.53,0,0,1,408,157.21Z"/><path class="cls-1" d="M434.81,182.44h-.07l-14.47-.59a1.5,1.5,0,0,1,.12-3l14.48.59a1.5,1.5,0,0,1-.06,3Z"/><path class="cls-1" d="M384.44,142.9h-.06a1.5,1.5,0,0,1-1.44-1.56l.59-14.47a1.5,1.5,0,0,1,3,.13l-.59,14.47A1.51,1.51,0,0,1,384.44,142.9Z"/></g></svg>