<svg xmlns="http://www.w3.org/2000/svg" viewBox="0 0 503 503"><defs><style>.cls-1{fill:#fafafa;}.cls-2{fill:#ddd;}.cls-3{fill:#8b8b8b;}.cls-4,.cls-6{fill:none;stroke-linecap:round;stroke-width:2px;}.cls-4{stroke:#ddd;stroke-linejoin:round;}.cls-5{fill:#804cfb;}.cls-6{stroke:#8042ff;stroke-miterlimit:10;}</style></defs><title>identity_provider</title><g id="Warstwa_3" data-name="Warstwa 3"><path class="cls-1" d="M133.77,384.94l.44-250.42A10.57,10.57,0,0,1,144.8,124l172.61.28A10.58,10.58,0,0,1,328,134.83l-.44,250.42a10.58,10.58,0,0,1-10.6,10.56l-172.6-.28A10.58,10.58,0,0,1,133.77,384.94Z"/><path d="M317,396.81h0l-172.6-.28a11.57,11.57,0,0,1-11.56-11.6h0l.44-250.42A11.57,11.57,0,0,1,144.79,123h0l172.6.28A11.58,11.58,0,0,1,329,134.83l-.44,250.42A11.59,11.59,0,0,1,317,396.81ZM134.77,384.94a9.58,9.58,0,0,0,9.56,9.59l172.61.28h0a9.6,9.6,0,0,0,9.58-9.56L327,134.83a9.58,9.58,0,0,0-9.56-9.59L144.8,125h0a9.58,9.58,0,0,0-9.58,9.56l-.44,250.42Z"/><path d="M309.8,273.66h0l-150.36-.25a1,1,0,0,1,0-2h0l150.36.25a1,1,0,0,1,0,2Z"/><path d="M309.77,290.22h0L159.42,290a1,1,0,1,1,0-2h0l150.35.25a1,1,0,0,1,0,2Z"/><path d="M309.74,306.77h0l-150.35-.24a1,1,0,0,1,0-2h0l150.36.24a1,1,0,0,1,0,2Z"/><path d="M259.48,323.21h0l-100.12-.12a1,1,0,0,1,0-2h0l100.12.12a1,1,0,0,1,0,2Z"/><rect class="cls-2" x="159.44" y="153.64" width="101.04" height="101.04" transform="translate(0.33 -0.34) rotate(0.09)"/><path class="cls-3" d="M170.18,254.61c4.66-19.74,20.71-34.28,39.76-34.25s35,14.62,39.64,34.38"/><circle class="cls-1" cx="230.48" cy="207.78" r="5.53"/><circle class="cls-1" cx="189.5" cy="207.71" r="5.53"/><path class="cls-1" d="M232.56,193.26a22.39,22.39,0,1,0-44.78-.07,23.33,23.33,0,0,0,.46,4.61l3.2,16.3a20.71,20.71,0,0,0,.43,2.52h0a18.66,18.66,0,0,0,36.52.06h0v0a20.23,20.23,0,0,0,.44-2.49S232.56,196.28,232.56,193.26Z"/><path d="M211.88,206.24h-2.62a1,1,0,0,1,0-2h2.62a1,1,0,0,1,0,2Z"/><path d="M202,213.45h0a8.23,8.23,0,0,1-8.22-8.24A8.24,8.24,0,0,1,202,197h0a8.23,8.23,0,0,1,8.22,8.24,8.23,8.23,0,0,1-8.23,8.21ZM202,199a6.22,6.22,0,0,0-4.41,10.62,6.16,6.16,0,0,0,4.4,1.83h0A6.23,6.23,0,0,0,202,199Z"/><path d="M219.18,213.48h0a8.23,8.23,0,1,1,8.24-8.21,8.23,8.23,0,0,1-8.23,8.21Zm0-14.46a6.23,6.23,0,0,0,0,12.46h0a6.23,6.23,0,0,0,6.23-6.22h0a6.23,6.23,0,0,0-6.22-6.24Z"/><path d="M221,182.89c-.44,0-.88,0-1.33-.06a1,1,0,0,1,.16-2,11.84,11.84,0,0,0,7.29-1.6c3.4-2.11,5.91-6.92,4.09-10.44a5.64,5.64,0,0,0-4.94-3.39c-6-.34-15.25,7-19.79,13.83a1,1,0,0,1-1.67-1.1c4.29-6.44,14.17-15.14,21.57-14.73a7.68,7.68,0,0,1,6.6,4.47c2.36,4.56-.58,10.43-4.8,13.06A13.5,13.5,0,0,1,221,182.89Z"/><path d="M189.86,196.53h-.21a1,1,0,0,1,0-2c8.73.14,9.16-9.53,9.18-9.94a1,1,0,0,1,1.53-.81c3.51,2.25,8.56,3.79,11.07,3.82a8,8,0,0,0,5.52-1.79,5.45,5.45,0,0,0,1.8-3.93,1,1,0,0,1,1-1h0a1,1,0,0,1,1,1,7.4,7.4,0,0,1-2.47,5.41,10.08,10.08,0,0,1-6.87,2.3c-2.79,0-7.31-1.46-10.74-3.32C200,190.53,197.23,196.53,189.86,196.53Z"/><path d="M212.69,216.89a1,1,0,0,1-1-.82l-1.61-8.92a1,1,0,1,1,2-.36l1.62,8.92a1,1,0,0,1-.81,1.16A.52.52,0,0,1,212.69,216.89Z"/><path d="M212.69,216.89a.86.86,0,0,1-.28,0l-4.3-1.25a1,1,0,1,1,.56-1.92l4.3,1.25a1,1,0,0,1-.28,2Z"/><path class="cls-1" d="M198.95,107.19h73.85a0,0,0,0,1,0,0V137.3a4.23,4.23,0,0,1-4.23,4.23H203.18a4.23,4.23,0,0,1-4.23-4.23V107.19A0,0,0,0,1,198.95,107.19Z"/><path d="M268.56,142.53H203.18A5.23,5.23,0,0,1,198,137.3V107.19a1,1,0,0,1,1-1h73.84a1,1,0,0,1,1,1V137.3A5.23,5.23,0,0,1,268.56,142.53ZM200,108.19V137.3a3.23,3.23,0,0,0,3.23,3.23h65.38a3.23,3.23,0,0,0,3.23-3.23V108.19Z"/><rect class="cls-4" x="278.3" y="153.72" width="31.47" height="101.02"/><line class="cls-4" x1="278.3" y1="254.74" x2="309.77" y2="153.72"/><line class="cls-4" x1="278.3" y1="153.72" x2="309.77" y2="254.74"/><polygon points="182.11 124.03 198.95 124.03 198.95 107.19 182.11 124.03"/><path d="M199,125H182.11a1,1,0,0,1-.71-1.71l16.84-16.84a1,1,0,0,1,1.71.71V124A1,1,0,0,1,199,125Zm-14.43-2H198V109.6Z"/><path class="cls-5" d="M259.95,246.56H446.3a9,9,0,0,1,9,9v0a9,9,0,0,1-9,9H259.95a0,0,0,0,1,0,0v-18a0,0,0,0,1,0,0Z" transform="translate(-46.5 428.47) rotate(-58.71)"/><path d="M314.6,344.72a1,1,0,0,1-.52-.14l-15.4-9.36a1,1,0,0,1-.45-.62,1,1,0,0,1,.12-.75l96.77-159.26a10,10,0,0,1,18.28,2.83,9.91,9.91,0,0,1-1.17,7.57L315.46,344.24A1,1,0,0,1,314.6,344.72Zm-14-10.69,13.69,8.32L410.52,184h0a8,8,0,0,0-13.69-8.32Z"/><polygon class="cls-1" points="314.6 343.72 295.67 357.52 299.2 334.36 314.6 343.72"/><path d="M295.67,358.52a1,1,0,0,1-.52-.14,1,1,0,0,1-.47-1l3.53-23.16a1,1,0,0,1,.57-.75,1,1,0,0,1,.94.05l15.4,9.36a1,1,0,0,1,.48.81,1,1,0,0,1-.41.85l-18.93,13.8A1,1,0,0,1,295.67,358.52ZM300,336l-3,19.3,15.78-11.5Z"/><path class="cls-3" d="M146.54,220.42a.77.77,0,0,1-.25,0L90.06,205.71a1,1,0,0,1-.61-.46,1.06,1.06,0,0,1-.11-.76l3.58-13.71a1,1,0,0,1,1.22-.71l56.23,14.67a1,1,0,0,1,.61.46,1,1,0,0,1,.11.76l-3.58,13.71A1,1,0,0,1,146.54,220.42ZM91.53,204l54.3,14.17,3.07-11.78L94.6,192.25Z"/><path class="cls-6" d="M273.86,189.06c7.75-4.42,11.71,2.53,19.46-1.89s3.79-11.37,11.54-15.79,11.72,2.52,19.47-1.9,3.79-11.37,11.55-15.79,11.71,2.53,19.47-1.89"/></g></svg>