<svg xmlns="http://www.w3.org/2000/svg" viewBox="0 0 503 503"><defs><style>.cls-1{fill:#fafafa;}.cls-2{fill:#ddd;}.cls-3{fill:#804cfb;}.cls-4{fill:#8042ff;}</style></defs><title>identity_consumer</title><g id="Warstwa_3" data-name="Warstwa 3"><path d="M127,137.65a11.33,11.33,0,0,0-22.62.93v11.34h22.57V138.58C126.94,138.27,127,138,127,137.65Z"/><path d="M126.94,150.92H104.37a1,1,0,0,1-1-1V138.58a12.33,12.33,0,0,1,24.61-1,.43.43,0,0,1,0,.16c0,.28,0,.57,0,.85v11.34A1,1,0,0,1,126.94,150.92Zm-21.57-2h20.57V138.58c0-.31,0-.62,0-.93a10.33,10.33,0,0,0-20.61.93Z"/><rect class="cls-1" x="126.94" y="153.99" width="0.09" height="199.09"/><path d="M127,354.08a1.08,1.08,0,0,1-1.1-1V154a1,1,0,0,1,1-1,1.09,1.09,0,0,1,1.1,1V353.08A1,1,0,0,1,127,354.08Z"/><path class="cls-1" d="M127,138.58c0-.31,0-.62-.05-.93,0,.31,0,.62,0,.93V154h.1Z"/><path d="M127,155a1.09,1.09,0,0,1-1.1-1V138.58c0-.34,0-.68,0-1a1,1,0,0,1,1-.92h0a1,1,0,0,1,1,.92c0,.33.06.67.06,1V154A1,1,0,0,1,127,155Zm0-1h0Z"/><path class="cls-1" d="M138.27,375.75h0Z"/><path d="M138.37,376.75h-.1a1,1,0,0,1,0-2h.17a1,1,0,0,1,0,2Z"/><path class="cls-1" d="M127,364.42c0,.31,0,.62-.05.93a11.32,11.32,0,0,0,11.28,10.4h0A11.33,11.33,0,0,1,127,364.42Z"/><path d="M138.32,376.75A12.4,12.4,0,0,1,126,365.43v-.16c0-.28.05-.57.05-.85a1,1,0,1,1,2,0,10.35,10.35,0,0,0,10.28,10.33,1,1,0,0,1,0,2Z"/><path class="cls-1" d="M301.08,127.25H115.7A11.33,11.33,0,0,1,127,137.65c0,.31.05.62.05.93V364.42a11.29,11.29,0,1,0,22.57,0V353.08H311.7V137.87A10.63,10.63,0,0,0,301.08,127.25Z"/><path d="M138.32,376.75A12.35,12.35,0,0,1,126,364.42V138.58c0-.28,0-.57-.05-.85a10.38,10.38,0,0,0-10.29-9.48,1,1,0,1,1,0-2H301.08a11.64,11.64,0,0,1,11.62,11.62V353.08a1,1,0,0,1-1,1H150.6v10.34A12.35,12.35,0,0,1,138.32,376.75Zm-15.93-248.5a12.35,12.35,0,0,1,5.59,9.32c0,.33.06.67.06,1V364.42a10.28,10.28,0,1,0,20.56,0V353.08a1,1,0,0,1,1-1H310.7V137.87a9.64,9.64,0,0,0-9.62-9.62Z"/><path class="cls-1" d="M127,365.35c0-.31.05-.62.05-.93V353.08h-.1v11.34C126.94,364.73,127,365,127,365.35Z"/><path d="M127,366.35h0a1,1,0,0,1-1-.92c0-.33,0-.67,0-1V353.08a1,1,0,0,1,1-1,1.09,1.09,0,0,1,1.1,1v11.34c0,.34,0,.68-.06,1A1,1,0,0,1,127,366.35Z"/><path d="M311.7,353.08H149.61v11.34a11.34,11.34,0,0,1-11.29,11.33H313.44a11.17,11.17,0,0,0,4.79-1.08,11.32,11.32,0,0,0,6.54-10.25V353.08Z"/><path d="M313.44,376.75H138.27a1,1,0,0,1-.94-1,1,1,0,0,1,1-1,10.35,10.35,0,0,0,10.28-10.33V353.08a1,1,0,0,1,1-1H324.77a1,1,0,0,1,1,1v11.34a12.36,12.36,0,0,1-12.33,12.33ZM150.6,354.08v10.34A12.32,12.32,0,0,1,145,374.75H313.44a10.25,10.25,0,0,0,4.37-1,10.38,10.38,0,0,0,6-9.35V354.08Z"/><rect class="cls-2" x="148.57" y="149.92" width="141.44" height="50.03"/><path d="M290,220.49h0l-141.39-.22a1,1,0,0,1-1-1,1,1,0,0,1,1-1h0l141.38.22a1,1,0,0,1,0,2Z"/><path d="M290,238.8h0l-141.39-.22a1,1,0,0,1,0-2h0L290,236.8a1,1,0,0,1,0,2Z"/><path d="M290,257h0l-141.47-.1a1,1,0,1,1,0-2h0L290,255a1,1,0,0,1,0,2Z"/><path d="M290,275.44h0l-141.39-.22a1,1,0,0,1,0-2h0l141.38.22a1,1,0,0,1,0,2Z"/><path d="M290,293.76h0l-141.39-.22a1,1,0,1,1,0-2h0l141.38.22a1,1,0,0,1,0,2Z"/><path d="M242.72,312h0l-94.15-.11a1,1,0,0,1,0-2h0l94.15.11a1,1,0,0,1,0,2Z"/><path class="cls-1" d="M360.42,193a80.86,80.86,0,0,1-48.87-16.35A80.86,80.86,0,0,1,262.68,193a82.83,82.83,0,0,1-8.53-.45v42.37c0,27.58,14.29,46.2,37.76,60.67l19.64,12.1,19.64-12.1C354.66,281.07,369,262.45,369,234.87V192.5A83.17,83.17,0,0,1,360.42,193Z"/><path d="M311.55,308.64a1,1,0,0,1-.52-.15l-19.64-12.1c-26.09-16.09-38.24-35.63-38.24-61.52V192.5a1,1,0,0,1,.33-.74,1,1,0,0,1,.77-.26A80.07,80.07,0,0,0,311,175.8a1,1,0,0,1,1.2,0,80.07,80.07,0,0,0,56.7,15.7,1,1,0,0,1,.77.26,1,1,0,0,1,.34.74v42.37c0,25.89-12.16,45.43-38.24,61.52l-19.64,12.1A1,1,0,0,1,311.55,308.64Zm-56.4-115v41.27c0,25.13,11.84,44.13,37.28,59.81l19.12,11.79,19.12-11.79C356.11,279,368,260,368,234.87V193.6c-2.53.23-5.06.35-7.54.35a81.54,81.54,0,0,1-48.87-16.1A81.54,81.54,0,0,1,262.68,194C260.2,194,257.67,193.83,255.15,193.6Z"/><circle class="cls-3" cx="311.55" cy="240.12" r="30.83"/><path d="M311.55,272a31.84,31.84,0,1,1,31.83-31.84A31.87,31.87,0,0,1,311.55,272Zm0-61.67a29.84,29.84,0,1,0,29.83,29.83A29.86,29.86,0,0,0,311.55,210.29Z"/><path class="cls-1" d="M308,250a1,1,0,0,1-.71-.29l-9.48-9.48a1,1,0,0,1,1.41-1.42l8.81,8.81,18.69-17A1,1,0,0,1,328,232l-19.4,17.66A1,1,0,0,1,308,250Z"/><path class="cls-4" d="M349.89,141.32a1,1,0,0,1-1-1V127.85a1,1,0,0,1,2,0v12.47A1,1,0,0,1,349.89,141.32Z"/><path class="cls-4" d="M349.89,167a1,1,0,0,1-1-1V153.51a1,1,0,0,1,2,0V166A1,1,0,0,1,349.89,167Z"/><path class="cls-4" d="M369,147.92H356.48a1,1,0,0,1,0-2H369a1,1,0,0,1,0,2Z"/><path class="cls-4" d="M343.3,147.92H330.83a1,1,0,0,1,0-2H343.3a1,1,0,0,1,0,2Z"/><path class="cls-4" d="M385.8,164.54a1,1,0,0,1-1-1v-8.39a1,1,0,0,1,2,0v8.39A1,1,0,0,1,385.8,164.54Z"/><path class="cls-4" d="M385.8,181.81a1,1,0,0,1-1-1v-8.39a1,1,0,0,1,2,0v8.39A1,1,0,0,1,385.8,181.81Z"/><path class="cls-4" d="M398.63,169h-8.39a1,1,0,0,1,0-2h8.39a1,1,0,0,1,0,2Z"/><path class="cls-4" d="M381.36,169H373a1,1,0,0,1,0-2h8.39a1,1,0,0,1,0,2Z"/></g></svg>