<svg xmlns="http://www.w3.org/2000/svg" viewBox="0 0 1000 1000"><defs><style>.cls-1{fill:#fafafa;}.cls-2{fill:#ddd;}.cls-3{fill:#8b8b8b;}.cls-4{fill:#8042ff;}</style></defs><title>innovative_potencial</title><g id="Warstwa_2" data-name="Warstwa 2"><path class="cls-1" d="M281.85,459.42a27.79,27.79,0,0,0,3.11,2.39A27.79,27.79,0,0,1,281.85,459.42Z"/><path d="M285,462.81a1,1,0,0,1-.56-.17,28.83,28.83,0,0,1-3.22-2.48,1,1,0,0,1-.33-.75,1,1,0,0,1,.26-.67,1,1,0,0,1,1.41-.07,25.85,25.85,0,0,0,3,2.31,1,1,0,0,1,.44.83,1,1,0,0,1-.17.56A1,1,0,0,1,285,462.81Z"/><path class="cls-1" d="M305.38,467.71h0a37.17,37.17,0,0,1-19.26-5.13,37.17,37.17,0,0,0,19.26,5.13Z"/><path d="M305.38,468.71a38.45,38.45,0,0,1-19.78-5.27,1,1,0,0,1-.48-.86,1,1,0,0,1,.15-.52,1,1,0,0,1,1.37-.33,36.44,36.44,0,0,0,18.74,5,1,1,0,0,1,0,2Z"/><path class="cls-1" d="M276.26,451.7c.13.31.3.61.45.92C276.56,452.31,276.39,452,276.26,451.7Z"/><path d="M276.71,453.62a1,1,0,0,1-.9-.56l-.16-.32c-.11-.21-.22-.43-.32-.66a1,1,0,0,1-.07-.38,1,1,0,0,1,1.92-.39,5,5,0,0,0,.25.52l.18.36a1,1,0,0,1,.1.43,1,1,0,0,1-.56.9A1,1,0,0,1,276.71,453.62Z"/><path class="cls-1" d="M277.28,453.79c.14.25.32.48.47.73C277.6,454.27,277.42,454,277.28,453.79Z"/><path d="M277.75,455.52a1,1,0,0,1-.85-.47c0-.09-.11-.18-.17-.27s-.22-.33-.32-.5a1,1,0,0,1-.13-.49,1,1,0,0,1,.51-.87,1,1,0,0,1,1.36.38c.07.12.16.25.24.37l.21.32a1,1,0,0,1-.32,1.38A1,1,0,0,1,277.75,455.52Z"/><path class="cls-1" d="M275.51,449.51c0,.17.11.33.16.5C275.62,449.84,275.55,449.68,275.51,449.51Z"/><path d="M275.68,451a1,1,0,0,1-1-.71l-.06-.16c0-.12-.09-.24-.12-.36a1.24,1.24,0,0,1,0-.27,1,1,0,0,1,2-.26,1.46,1.46,0,0,0,.07.19l.09.27a1,1,0,0,1,.05.3,1,1,0,0,1-.71.95A1,1,0,0,1,275.68,451Z"/><path class="cls-1" d="M278.57,455.78l.06.09Z"/><path d="M278.63,456.87a1,1,0,0,1-.81-.42l-.06-.08a1,1,0,0,1-.19-.59,1,1,0,0,1,1.79-.6l.08.1a1,1,0,0,1,.19.58,1,1,0,0,1-.41.82A1.06,1.06,0,0,1,278.63,456.87Z"/><path class="cls-1" d="M280.09,457.66c.4.44.84.86,1.27,1.27C280.93,458.51,280.49,458.1,280.09,457.66Z"/><path d="M281.36,459.93a1,1,0,0,1-.69-.28l-.07-.07c-.42-.4-.84-.8-1.23-1.23h0a1,1,0,0,1-.26-.67,1,1,0,0,1,1.74-.67h0c.35.39.73.75,1.11,1.12l.1.09a1,1,0,0,1,0,1.41A1,1,0,0,1,281.36,459.93Z"/><path d="M305.38,467.71a37.17,37.17,0,0,1-19.26-5.13c-.4-.24-.78-.51-1.16-.77a27.79,27.79,0,0,1-3.11-2.39l-.49-.49c-.43-.41-.87-.83-1.27-1.27s-1-1.18-1.46-1.79l-.06-.09c-.3-.41-.55-.84-.82-1.26-.15-.25-.33-.48-.47-.73s-.38-.78-.57-1.17-.32-.61-.45-.92c-.23-.56-.41-1.12-.59-1.69-.05-.17-.12-.33-.16-.5a16.88,16.88,0,0,1-.62-4.55v0c0-12.59,13.65-22.79,30.49-22.79h198v45.58Z"/><path d="M503.38,468.71h-198a38.45,38.45,0,0,1-19.78-5.27q-.47-.29-.9-.6l-.3-.2a28.83,28.83,0,0,1-3.22-2.48l-.33-.32a1.62,1.62,0,0,0-.18-.19l-.07-.07c-.43-.41-.86-.82-1.25-1.25s-1-1.21-1.52-1.87l-.07-.09c-.26-.35-.48-.71-.7-1.07l-.16-.25c0-.09-.11-.18-.17-.27s-.22-.33-.32-.5-.31-.6-.45-.9l-.31-.64c-.11-.21-.22-.43-.32-.66-.24-.59-.43-1.18-.61-1.78l-.06-.16c0-.12-.09-.24-.12-.36a18.22,18.22,0,0,1-.65-4.81c0-13.17,14.12-23.84,31.49-23.84h198a1,1,0,0,1,1,1v45.58A1,1,0,0,1,503.38,468.71Zm-198-45.58c-16.26,0-29.49,9.77-29.49,21.79a16.44,16.44,0,0,0,.58,4.33,1.46,1.46,0,0,0,.07.19l.09.27c.18.58.34,1.1.55,1.6a5,5,0,0,0,.25.52l.18.36.16.35c.12.25.24.51.38.76s.16.25.24.37l.21.32.16.26c.2.32.39.64.62.94l.06.09a22,22,0,0,0,1.4,1.71c.35.4.75.77,1.14,1.15l.08.07.24.24.22.22a25.85,25.85,0,0,0,3,2.31l.31.21c.27.19.53.37.81.54a36.44,36.44,0,0,0,18.74,5h197V423.13Z"/><path class="cls-1" d="M275.67,450c.18.57.36,1.13.59,1.69C276,451.14,275.85,450.58,275.67,450Z"/><path d="M276.26,452.7a1,1,0,0,1-.93-.62c-.24-.59-.43-1.18-.61-1.78a1,1,0,0,1,0-.3,1,1,0,0,1,.7-.95,1,1,0,0,1,1.25.66c.18.58.34,1.1.55,1.6a1.09,1.09,0,0,1,.08.39,1,1,0,0,1-.62.92A1.08,1.08,0,0,1,276.26,452.7Z"/><path class="cls-1" d="M285,461.81c.38.26.76.53,1.16.77C285.72,462.34,285.34,462.07,285,461.81Z"/><path d="M286.12,463.58a1,1,0,0,1-.52-.14c-.32-.2-.62-.4-.92-.61l-.28-.19a1,1,0,0,1,1.12-1.66h0l.31.21c.26.18.53.36.81.53h0a1,1,0,0,1,.48.85,1.07,1.07,0,0,1-.14.52A1,1,0,0,1,286.12,463.58Z"/><path class="cls-1" d="M274.89,445a16.88,16.88,0,0,0,.62,4.55A16.88,16.88,0,0,1,274.89,445Z"/><path d="M275.5,450.51a1,1,0,0,1-1-.73,18.22,18.22,0,0,1-.65-4.81h0a1,1,0,0,1,1-1h0a1,1,0,0,1,1,1,16.37,16.37,0,0,0,.58,4.29,1.27,1.27,0,0,1,0,.26,1,1,0,0,1-.74,1Z"/><path class="cls-1" d="M277.75,454.52c.27.42.52.85.82,1.26C278.27,455.37,278,454.94,277.75,454.52Z"/><path d="M278.57,456.78a1,1,0,0,1-.81-.41c-.26-.35-.48-.71-.7-1.07l-.16-.25a1,1,0,0,1,1.7-1.06h0l.16.26c.19.31.38.63.6.93h0a1.09,1.09,0,0,1,.19.59,1,1,0,0,1-1,1Z"/><path class="cls-1" d="M278.63,455.87c.46.61.94,1.21,1.46,1.79C279.57,457.08,279.09,456.48,278.63,455.87Z"/><path d="M280.09,458.66a1,1,0,0,1-.74-.33c-.52-.58-1-1.21-1.52-1.87a1,1,0,0,1-.2-.59,1,1,0,0,1,1.81-.6,20.48,20.48,0,0,0,1.4,1.72,1,1,0,0,1,.25.67,1,1,0,0,1-.33.74A1,1,0,0,1,280.09,458.66Z"/><path class="cls-1" d="M276.71,452.62c.19.39.36.79.57,1.17C277.07,453.41,276.9,453,276.71,452.62Z"/><path d="M277.28,454.79a1,1,0,0,1-.87-.51c-.17-.29-.31-.6-.45-.9l-.15-.32a1,1,0,0,1,.47-1.34,1,1,0,0,1,1.33.47h0l.16.34c.12.26.23.51.37.76a1,1,0,0,1,.13.49,1,1,0,0,1-.51.87A1,1,0,0,1,277.28,454.79Z"/><path class="cls-1" d="M281.36,458.93l.49.49Z"/><path d="M281.85,460.42a1,1,0,0,1-.67-.26h0c-.11-.1-.21-.21-.32-.32s-.11-.12-.17-.17h0a1,1,0,0,1,0-1.41,1,1,0,0,1,1.42,0h0l.24.24.22.22a1,1,0,0,1,.33.75,1,1,0,0,1-.26.67A1,1,0,0,1,281.85,460.42Z"/><rect class="cls-1" x="421.69" y="350.73" width="368.64" height="235.38" rx="6.66" transform="translate(1305.74 156.93) rotate(118.3)"/><path d="M619.52,685.14a7.61,7.61,0,0,1-3.62-.92L420.39,578.94a7.67,7.67,0,0,1-3.12-10.37L585.73,255.72a7.67,7.67,0,0,1,10.38-3.11L791.62,357.89a7.66,7.66,0,0,1,3.12,10.38L626.28,681.11a7.64,7.64,0,0,1-4.55,3.71A7.93,7.93,0,0,1,619.52,685.14Zm-27-431.44a5.66,5.66,0,0,0-5,3L419,569.51a5.67,5.67,0,0,0,2.3,7.67L616.85,682.46a5.66,5.66,0,0,0,7.67-2.3L793,367.32a5.68,5.68,0,0,0-2.3-7.67L595.16,254.37A5.6,5.6,0,0,0,592.49,253.7ZM418.15,569h0Z"/><rect class="cls-2" x="622.46" y="342.83" width="111.11" height="111.11" transform="translate(1350.23 -9.71) rotate(118.3)"/><line class="cls-1" x1="662.04" y1="485.69" x2="583.58" y2="631.4"/><path d="M583.58,632.4a1,1,0,0,1-.88-1.47l78.46-145.71a1,1,0,1,1,1.76.95l-78.46,145.7A1,1,0,0,1,583.58,632.4Z"/><rect class="cls-2" x="622.46" y="342.83" width="111.11" height="111.11" transform="translate(1350.23 -9.71) rotate(118.3)"/><line class="cls-1" x1="641.46" y1="474.39" x2="561.53" y2="618.39"/><path d="M561.53,619.39a1.07,1.07,0,0,1-.49-.12,1,1,0,0,1-.38-1.36l79.93-144a1,1,0,0,1,1.75,1l-79.94,144A1,1,0,0,1,561.53,619.39Z"/><line class="cls-1" x1="618.28" y1="459.04" x2="539.82" y2="604.75"/><path d="M539.82,605.75a1,1,0,0,1-.88-1.48l78.46-145.7a1,1,0,0,1,1.76.94L540.7,605.22A1,1,0,0,1,539.82,605.75Z"/><rect class="cls-1" x="323.11" y="338.44" width="368.64" height="235.38" rx="6.66" transform="translate(1068.35 67.66) rotate(103.34)"/><path d="M574.46,662.28a7.62,7.62,0,0,1-1.76-.21L356.63,610.82A7.65,7.65,0,0,1,351,601.6h0l82-345.72a7.68,7.68,0,0,1,9.22-5.69l216.07,51.25a7.65,7.65,0,0,1,5.68,9.22l-82,345.72A7.69,7.69,0,0,1,574.46,662.28ZM352.89,602.06h0a5.67,5.67,0,0,0,4.2,6.82l216.07,51.24a5.66,5.66,0,0,0,6.81-4.2L662,310.2a5.67,5.67,0,0,0-4.2-6.82L441.7,252.14a5.66,5.66,0,0,0-6.81,4.2Z"/><rect x="382.28" y="457.22" width="368.34" height="26.13" transform="translate(1154.76 27.65) rotate(103.34)"/><path d="M536.66,653.49l-.23,0-25.42-6a1,1,0,0,1-.63-.45,1.06,1.06,0,0,1-.12-.76l85-358.39a1,1,0,0,1,.44-.62,1,1,0,0,1,.76-.12l25.42,6a1,1,0,0,1,.74,1.2l-85,358.39A1,1,0,0,1,536.66,653.49Zm-24.22-7.77,23.47,5.57,84.54-356.45L597,289.27Z"/><rect class="cls-1" x="250.73" y="373.22" width="369.95" height="236.18" rx="7.05" transform="translate(-17.19 966.82) rotate(-94.83)"/><path d="M340,686a8.06,8.06,0,0,1-8-7.37L302.06,324a8.05,8.05,0,0,1,7.34-8.7l221.29-18.69a8.05,8.05,0,0,1,8.7,7.34h0l30,354.59a8.07,8.07,0,0,1-7.35,8.7L340.71,686ZM531.38,298.62l-.52,0-221.29,18.7a6,6,0,0,0-5.52,6.53l30,354.59a6,6,0,0,0,6.53,5.52l221.29-18.7a6,6,0,0,0,5.52-6.53l-30-354.59h0a6.06,6.06,0,0,0-6-5.54Z"/><path d="M374.75,350.57a1,1,0,0,1-.08-2l97.25-8.21a1,1,0,0,1,1.08.91,1,1,0,0,1-.91,1.08l-97.25,8.21Z"/><path d="M336.48,370.24a1,1,0,0,1-.09-2L513,353.32a1,1,0,0,1,1.08.92,1,1,0,0,1-.91,1.08L336.56,370.23Z"/><path d="M377.68,385.24a1,1,0,0,1-.08-2L474.85,375a1,1,0,0,1,.17,2l-97.25,8.21Z"/><path class="cls-2" d="M339.57,417.66a1,1,0,0,1,.91-1.08h0a1,1,0,0,1,1.08.91h0a1,1,0,0,1-.91,1.08h-.09A1,1,0,0,1,339.57,417.66Zm4-.34a1,1,0,0,1,.91-1.08h0a1,1,0,0,1,1.08.91h0a1,1,0,0,1-.91,1.09h-.08A1,1,0,0,1,343.55,417.32Zm4-.33a1,1,0,0,1,.91-1.08h0a1,1,0,0,1,1.08.91h0a1,1,0,0,1-.91,1.08h-.09A1,1,0,0,1,347.54,417Zm4-.34a1,1,0,0,1,.92-1.08h0a1,1,0,0,1,1.08.91h0a1,1,0,0,1-.92,1.08h-.08A1,1,0,0,1,351.52,416.65Zm4-.34a1,1,0,0,1,.91-1.08h0a1,1,0,0,1,1.08.92h0a1,1,0,0,1-.91,1.07h-.09A1,1,0,0,1,355.51,416.31Zm4-.33a1,1,0,0,1,.92-1.08h0a1,1,0,0,1,1.08.91h0a1,1,0,0,1-.91,1.08h-.09A1,1,0,0,1,359.49,416Zm4-.34a1,1,0,0,1,.91-1.08h0a1,1,0,0,1,1.08.91h0a1,1,0,0,1-.91,1.08h-.08A1,1,0,0,1,363.48,415.64Zm4-.34a1,1,0,0,1,.91-1.08h0a1,1,0,0,1,1.08.91h0a1,1,0,0,1-.91,1.09h-.09A1,1,0,0,1,367.47,415.3Zm4-.33a1,1,0,0,1,.92-1.08h0a1,1,0,0,1,1.07.91h0a1,1,0,0,1-.91,1.08h-.08A1,1,0,0,1,371.45,415Zm4-.34a1,1,0,0,1,.91-1.08h0a1,1,0,0,1,1.08.91h0a1,1,0,0,1-.91,1.08h-.09A1,1,0,0,1,375.44,414.63Zm4-.34a1,1,0,0,1,.91-1.08h0a1,1,0,0,1,1.09.91h0a1,1,0,0,1-.92,1.09h-.08A1,1,0,0,1,379.42,414.29Zm4-.33a1,1,0,0,1,.91-1.08h0a1,1,0,0,1,1.08.91h0a1,1,0,0,1-.91,1.08h-.08A1,1,0,0,1,383.41,414Zm4-.34a1,1,0,0,1,.92-1.08h0a1,1,0,0,1,1.08.91h0a1,1,0,0,1-.91,1.08h-.09A1,1,0,0,1,387.39,413.62Zm4-.34a1,1,0,0,1,.91-1.08h0a1,1,0,0,1,1.08.92h0a1,1,0,0,1-.91,1.07h-.08A1,1,0,0,1,391.38,413.28Zm4-.33a1,1,0,0,1,.91-1.08h0a1,1,0,0,1,1.08.91h0a1,1,0,0,1-.91,1.08h-.09A1,1,0,0,1,395.37,413Zm4-.34a1,1,0,0,1,.91-1.08h0a1,1,0,0,1,1.09.91h0a1,1,0,0,1-.92,1.08h-.08A1,1,0,0,1,399.35,412.61Zm4-.34a1,1,0,0,1,.91-1.08h0a1,1,0,0,1,1.08.91h0a1,1,0,0,1-.91,1.09h-.08A1,1,0,0,1,403.34,412.27Zm4-.33a1,1,0,0,1,.92-1.08h0a1,1,0,0,1,1.08.91h0a1,1,0,0,1-.91,1.08h-.09A1,1,0,0,1,407.32,411.94Zm4-.34a1,1,0,0,1,.91-1.08h0a1,1,0,0,1,1.08.91h0a1,1,0,0,1-.91,1.08h-.09A1,1,0,0,1,411.31,411.6Zm4-.34a1,1,0,0,1,.91-1.08h0a1,1,0,0,1,1.08.92h0a1,1,0,0,1-.91,1.07h-.09A1,1,0,0,1,415.3,411.26Zm4-.33a1,1,0,0,1,.91-1.08h0a1,1,0,0,1,1.09.91h0a1,1,0,0,1-.92,1.08h-.08A1,1,0,0,1,419.28,410.93Zm4-.34a1,1,0,0,1,.91-1.08h0a1,1,0,0,1,1.08.91h0a1,1,0,0,1-.91,1.08h-.09A1,1,0,0,1,423.27,410.59Zm4-.34a1,1,0,0,1,.91-1.08h0a1,1,0,0,1,1.09.91h0a1,1,0,0,1-.92,1.09h-.08A1,1,0,0,1,427.25,410.25Zm4-.33a1,1,0,0,1,.91-1.09h0a1,1,0,0,1,1.08.92h0a1,1,0,0,1-.91,1.08h-.09A1,1,0,0,1,431.24,409.92Zm4-.34a1,1,0,0,1,.91-1.08h0a1,1,0,0,1,1.08.91h0a1,1,0,0,1-.91,1.08h-.09A1,1,0,0,1,435.23,409.58Zm4-.34a1,1,0,0,1,.91-1.08h0a1,1,0,0,1,1.08.91h0a1,1,0,0,1-.91,1.09h-.08A1,1,0,0,1,439.21,409.24Zm4-.34a1,1,0,0,1,.91-1.07h0a1,1,0,0,1,1.08.91h0a1,1,0,0,1-.91,1.08h-.09A1,1,0,0,1,443.2,408.9Zm4-.33a1,1,0,0,1,.91-1.08h0a1,1,0,0,1,1.09.91h0a1,1,0,0,1-.92,1.08h-.08A1,1,0,0,1,447.18,408.57Zm4-.34a1,1,0,0,1,.91-1.08h0a1,1,0,0,1,1.08.91h0a1,1,0,0,1-.91,1.08h-.09A1,1,0,0,1,451.17,408.23Zm4-.33a1,1,0,0,1,.91-1.08h0a1,1,0,0,1,1.08.91h0a1,1,0,0,1-.92,1.08h-.08A1,1,0,0,1,455.16,407.9Zm4-.34a1,1,0,0,1,.91-1.08h0a1,1,0,0,1,1.08.91h0a1,1,0,0,1-.91,1.08h-.09A1,1,0,0,1,459.14,407.56Zm4-.34a1,1,0,0,1,.91-1.08h0a1,1,0,0,1,1.08.91h0a1,1,0,0,1-.91,1.09h-.09A1,1,0,0,1,463.13,407.22Zm4-.33a1,1,0,0,1,.91-1.08h0a1,1,0,0,1,1.08.91h0a1,1,0,0,1-.91,1.08h-.08A1,1,0,0,1,467.11,406.89Zm4-.34a1,1,0,0,1,.91-1.08h0a1,1,0,0,1,1.08.91h0a1,1,0,0,1-.91,1.08h-.09A1,1,0,0,1,471.1,406.55Zm4-.34a1,1,0,0,1,.91-1.08h0a1,1,0,0,1,1.09.91h0a1,1,0,0,1-.92,1.08h-.08A1,1,0,0,1,475.08,406.21Zm4-.34a1,1,0,0,1,.91-1.07h0a1,1,0,0,1,1.08.91h0a1,1,0,0,1-.91,1.08h-.09A1,1,0,0,1,479.07,405.87Zm4-.33a1,1,0,0,1,.92-1.08h0a1,1,0,0,1,1.08.91h0a1,1,0,0,1-.91,1.08h-.09A1,1,0,0,1,483.05,405.54Zm4-.34a1,1,0,0,1,.91-1.08h0A1,1,0,0,1,489,405h0a1,1,0,0,1-.91,1.08H488A1,1,0,0,1,487,405.2Zm4-.33a1,1,0,0,1,.91-1.09h0a1,1,0,0,1,1.08.92h0a1,1,0,0,1-.91,1.08H492A1,1,0,0,1,491,404.87Zm4-.34a1,1,0,0,1,.91-1.08h0a1,1,0,0,1,1.08.91h0a1,1,0,0,1-.91,1.08H496A1,1,0,0,1,495,404.53Zm4-.34a1,1,0,0,1,.91-1.08h0A1,1,0,0,1,501,404h0a1,1,0,0,1-.91,1.08H500A1,1,0,0,1,499,404.19Zm4-.33a1,1,0,0,1,.92-1.08h0a1,1,0,0,1,1.07.91h0a1,1,0,0,1-.91,1.08H504A1,1,0,0,1,503,403.86Zm4-.34a1,1,0,0,1,.91-1.08h0a1,1,0,0,1,1.08.91h0a1,1,0,0,1-.91,1.08H508A1,1,0,0,1,507,403.52Zm4-.34a1,1,0,0,1,.92-1.08h0A1,1,0,0,1,513,403h0a1,1,0,0,1-.91,1.08H512A1,1,0,0,1,511,403.18Zm4-.33a1,1,0,0,1,.91-1.09h0a1,1,0,0,1,1.08.92h0a1,1,0,0,1-.91,1.08h-.08A1,1,0,0,1,514.94,402.85Z"/><line class="cls-1" x1="343.09" y1="447.56" x2="397.28" y2="442.98"/><path class="cls-3" d="M343.09,448.56a1,1,0,0,1-.08-2L397.2,442a1,1,0,1,1,.17,2l-54.19,4.58Z"/><line class="cls-1" x1="344.58" y1="465.11" x2="382.45" y2="461.91"/><path class="cls-3" d="M344.57,466.11a1,1,0,0,1-.08-2l37.87-3.2a1,1,0,0,1,.17,2l-37.87,3.2Z"/><line class="cls-1" x1="346.06" y1="482.66" x2="392.09" y2="478.77"/><path class="cls-3" d="M346.06,483.66a1,1,0,0,1-.09-2l46-3.89a1,1,0,1,1,.16,2l-46,3.89Z"/><line class="cls-1" x1="347.54" y1="500.2" x2="373.17" y2="498.04"/><path class="cls-3" d="M347.54,501.2a1,1,0,0,1-.08-2L373.09,497a1,1,0,0,1,1.08.91,1,1,0,0,1-.91,1.08l-25.64,2.17Z"/><line class="cls-1" x1="349.02" y1="517.75" x2="403.21" y2="513.17"/><path class="cls-3" d="M349,518.75a1,1,0,0,1-.08-2l54.19-4.57a1,1,0,0,1,.17,2l-54.19,4.58Z"/><line class="cls-1" x1="350.5" y1="535.3" x2="382.26" y2="532.62"/><path class="cls-3" d="M350.5,536.3a1,1,0,0,1-.08-2l31.75-2.68a1,1,0,1,1,.17,2l-31.75,2.69Z"/><line class="cls-1" x1="351.99" y1="552.85" x2="398.02" y2="548.96"/><path class="cls-3" d="M352,553.85a1,1,0,0,1-.09-2l46-3.89a1,1,0,1,1,.16,2l-46,3.89Z"/><line class="cls-1" x1="353.47" y1="570.39" x2="387.26" y2="567.54"/><path class="cls-3" d="M353.47,571.39a1,1,0,0,1-.08-2l33.79-2.86a1,1,0,0,1,1.08.92,1,1,0,0,1-.91,1.08l-33.8,2.85Z"/><line class="cls-1" x1="354.95" y1="587.94" x2="378.55" y2="585.95"/><path class="cls-3" d="M355,588.94a1,1,0,0,1-1-.91,1,1,0,0,1,.91-1.09l23.59-2a1,1,0,1,1,.17,2l-23.59,2Z"/><line class="cls-1" x1="356.43" y1="605.49" x2="398.39" y2="601.94"/><path class="cls-3" d="M356.43,606.49a1,1,0,0,1-.08-2L398.3,601a1,1,0,0,1,.17,2l-42,3.55Z"/><line class="cls-1" x1="357.92" y1="623.04" x2="412.11" y2="618.46"/><path class="cls-3" d="M357.92,624a1,1,0,0,1-.09-2L412,617.46a1,1,0,0,1,1.08.91,1,1,0,0,1-.91,1.09L358,624Z"/><line class="cls-1" x1="359.4" y1="640.58" x2="391.15" y2="637.9"/><path class="cls-3" d="M359.4,641.58a1,1,0,0,1-.09-2l31.76-2.69a1,1,0,0,1,1.08.92,1,1,0,0,1-.91,1.08l-31.76,2.68Z"/><line class="cls-1" x1="535.97" y1="625.67" x2="481.78" y2="630.25"/><path class="cls-3" d="M481.77,631.25a1,1,0,0,1-.08-2l54.19-4.58a1,1,0,0,1,.17,2l-54.19,4.58Z"/><line class="cls-1" x1="534.48" y1="608.12" x2="496.61" y2="611.32"/><path class="cls-3" d="M496.61,612.32a1,1,0,0,1-.08-2l37.87-3.2a1,1,0,0,1,1.08.92,1,1,0,0,1-.91,1.08l-37.87,3.2Z"/><line class="cls-1" x1="533" y1="590.57" x2="486.97" y2="594.46"/><path class="cls-3" d="M487,595.46a1,1,0,0,1-1-.91,1,1,0,0,1,.92-1.09l46-3.88a1,1,0,1,1,.17,2l-46,3.89Z"/><line class="cls-1" x1="531.52" y1="573.03" x2="505.89" y2="575.19"/><path class="cls-3" d="M505.89,576.19a1,1,0,0,1-.09-2L531.44,572a1,1,0,1,1,.16,2L506,576.19Z"/><line class="cls-1" x1="530.04" y1="555.48" x2="475.85" y2="560.06"/><path class="cls-3" d="M475.85,561.06a1,1,0,0,1-.09-2L530,554.48a1,1,0,0,1,.17,2l-54.19,4.58Z"/><line class="cls-1" x1="528.56" y1="537.93" x2="496.8" y2="540.61"/><path class="cls-3" d="M496.8,541.61a1,1,0,0,1-.08-2l31.75-2.69a1,1,0,0,1,.17,2l-31.75,2.68Z"/><line class="cls-1" x1="527.07" y1="520.38" x2="481.04" y2="524.27"/><path class="cls-3" d="M481,525.27a1,1,0,0,1-1-.91,1,1,0,0,1,.92-1.09l46-3.88a1,1,0,1,1,.17,2l-46,3.89Z"/><line class="cls-1" x1="525.59" y1="502.84" x2="491.8" y2="505.69"/><path class="cls-3" d="M491.8,506.69a1,1,0,0,1-.09-2l33.8-2.85a1,1,0,0,1,1.08.91,1,1,0,0,1-.92,1.08l-33.79,2.86Z"/><line class="cls-1" x1="524.11" y1="485.29" x2="500.51" y2="487.28"/><path class="cls-3" d="M500.51,488.28a1,1,0,0,1-.08-2l23.59-2a1,1,0,1,1,.17,2l-23.59,2Z"/><line class="cls-1" x1="522.63" y1="467.74" x2="480.67" y2="471.28"/><path class="cls-3" d="M480.67,472.28a1,1,0,0,1-.08-2l41.95-3.55a1,1,0,0,1,.17,2l-42,3.54Z"/><line class="cls-1" x1="521.14" y1="450.19" x2="466.95" y2="454.77"/><path class="cls-3" d="M467,455.77a1,1,0,0,1-.08-2l54.19-4.57a1,1,0,1,1,.17,2L467,455.77Z"/><line class="cls-1" x1="519.66" y1="432.64" x2="487.91" y2="435.33"/><path class="cls-3" d="M487.91,436.33a1,1,0,0,1-1-.92,1,1,0,0,1,.91-1.08l31.76-2.68a1,1,0,1,1,.17,2L488,436.32Z"/><path class="cls-1" d="M665.58,467.45H503.38v.26h-198a39,39,0,0,1-12.78-2.1,33.53,33.53,0,0,1-6.48-3c-.4-.24-.78-.51-1.16-.77a27.79,27.79,0,0,1-3.11-2.39l-.49-.49c-.43-.41-.87-.83-1.27-1.27s-1-1.18-1.46-1.79l-.06-.09c-.3-.41-.55-.84-.82-1.26-.15-.25-.33-.48-.47-.73s-.38-.78-.57-1.17-.32-.61-.45-.92c-.23-.56-.41-1.12-.59-1.69-.05-.17-.12-.33-.16-.5-.11-.39-.17-.8-.25-1.2V714.06c0,16.15,14.55,29.74,34.39,33.88A56.29,56.29,0,0,0,321.17,749H665.58a12.81,12.81,0,0,0,12.8-12.8v-256A12.8,12.8,0,0,0,665.58,467.45Z"/><path d="M665.58,750H321.17a56.71,56.71,0,0,1-11.73-1.1c-20.71-4.33-35.18-18.66-35.18-34.86V448.31a1,1,0,0,1,2-.2l.07.39c.05.25.09.5.16.75a1.46,1.46,0,0,0,.07.19l.09.27c.18.58.34,1.1.55,1.6a5,5,0,0,0,.25.52l.18.36.17.35c.12.26.23.51.37.76s.16.25.24.37l.21.32.17.27a10.6,10.6,0,0,0,.61.93l.06.09a22,22,0,0,0,1.4,1.71c.35.4.75.77,1.14,1.15l.08.07.24.24.22.22a25.85,25.85,0,0,0,3,2.31l.3.2c.27.19.54.38.82.55a33.16,33.16,0,0,0,6.28,2.94,38.17,38.17,0,0,0,12.46,2H502.71a1,1,0,0,1,.67-.26h162.2a13.81,13.81,0,0,1,13.8,13.8v256A13.82,13.82,0,0,1,665.58,750ZM276.26,454V714.06c0,15.24,13.82,28.77,33.59,32.9A54.88,54.88,0,0,0,321.17,748H665.58a11.82,11.82,0,0,0,11.8-11.81v-256a11.81,11.81,0,0,0-11.8-11.8H504.05a1,1,0,0,1-.67.26h-198a40,40,0,0,1-13.11-2.15,35.45,35.45,0,0,1-6.67-3.12l-.91-.61-.29-.19a27.69,27.69,0,0,1-3.22-2.48l-.33-.32a1.57,1.57,0,0,0-.18-.19l-.07-.07c-.43-.41-.86-.82-1.25-1.25s-1-1.21-1.52-1.87l-.07-.09c-.25-.34-.48-.7-.7-1.06l-.16-.26c0-.09-.11-.18-.17-.27s-.22-.33-.32-.5Z"/><path d="M641.2,728.09h-10a1,1,0,0,1,0-2h10a1,1,0,0,1,0,2Zm-18,0h-10a1,1,0,0,1,0-2h10a1,1,0,0,1,0,2Zm-18,0h-10a1,1,0,0,1,0-2h10a1,1,0,0,1,0,2Zm-18,0h-10a1,1,0,0,1,0-2h10a1,1,0,0,1,0,2Zm-18,0h-10a1,1,0,0,1,0-2h10a1,1,0,0,1,0,2Zm-18,0h-10a1,1,0,0,1,0-2h10a1,1,0,0,1,0,2Zm-18,0h-10a1,1,0,0,1,0-2h10a1,1,0,0,1,0,2Zm-18,0h-10a1,1,0,1,1,0-2h10a1,1,0,0,1,0,2Zm-18,0h-10a1,1,0,1,1,0-2h10a1,1,0,0,1,0,2Zm-18,0h-10a1,1,0,1,1,0-2h10a1,1,0,0,1,0,2Zm-18,0h-10a1,1,0,1,1,0-2h10a1,1,0,0,1,0,2Zm-18,0h-10a1,1,0,1,1,0-2h10a1,1,0,0,1,0,2Zm-18,0h-10a1,1,0,1,1,0-2h10a1,1,0,0,1,0,2Zm-18,0h-10a1,1,0,1,1,0-2h10a1,1,0,0,1,0,2Zm-18,0h-.41a.82.82,0,0,1-.22,0h-9.35a1,1,0,1,1,0-2h9.57l.22,0h.19a1,1,0,0,1,0,2Zm-18,0h-10a1,1,0,1,1,0-2h10a1,1,0,0,1,0,2Zm-18,0h-10a1,1,0,1,1,0-2h10a1,1,0,0,1,0,2Zm-18,0h-1.17a47.31,47.31,0,0,1-9-.77,1,1,0,1,1,.37-2,45.11,45.11,0,0,0,8.6.74h1.17a1,1,0,0,1,0,2Zm313.94-.33a1,1,0,0,1-.25-2,9.84,9.84,0,0,0,6.57-5.78,1,1,0,1,1,1.85.75,11.85,11.85,0,0,1-7.91,7A.78.78,0,0,1,649.16,727.74Zm-331.58-2.62a1,1,0,0,1-.35-.06,41.34,41.34,0,0,1-9-4.78,1,1,0,1,1,1.15-1.63,39.27,39.27,0,0,0,8.6,4.54,1,1,0,0,1,.58,1.29A1,1,0,0,1,317.58,725.12Zm-14.75-10a1,1,0,0,1-.76-.35,26.42,26.42,0,0,1-5.17-8.94,1,1,0,0,1,.64-1.26,1,1,0,0,1,1.26.63,24.41,24.41,0,0,0,4.78,8.26,1,1,0,0,1-.1,1.41A1,1,0,0,1,302.83,715.14Zm354.37-1.67a1,1,0,0,1-1-1v-10a1,1,0,0,1,2,0v10A1,1,0,0,1,657.2,713.47ZM296.74,698.66a1,1,0,0,1-1-1v-10a1,1,0,0,1,2,0v10A1,1,0,0,1,296.74,698.66Zm360.46-3.19a1,1,0,0,1-1-1v-10a1,1,0,0,1,2,0v10A1,1,0,0,1,657.2,695.47ZM296.74,680.66a1,1,0,0,1-1-1v-10a1,1,0,0,1,2,0v10A1,1,0,0,1,296.74,680.66Zm360.46-3.19a1,1,0,0,1-1-1v-10a1,1,0,0,1,2,0v10A1,1,0,0,1,657.2,677.47ZM296.74,662.66a1,1,0,0,1-1-1v-10a1,1,0,0,1,2,0v10A1,1,0,0,1,296.74,662.66Zm360.46-3.19a1,1,0,0,1-1-1v-10a1,1,0,0,1,2,0v10A1,1,0,0,1,657.2,659.47ZM296.74,644.66a1,1,0,0,1-1-1v-10a1,1,0,0,1,2,0v10A1,1,0,0,1,296.74,644.66Zm360.46-3.19a1,1,0,0,1-1-1v-10a1,1,0,0,1,2,0v10A1,1,0,0,1,657.2,641.47ZM296.74,626.66a1,1,0,0,1-1-1v-10a1,1,0,0,1,2,0v10A1,1,0,0,1,296.74,626.66Zm360.46-3.19a1,1,0,0,1-1-1v-10a1,1,0,0,1,2,0v10A1,1,0,0,1,657.2,623.47ZM296.74,608.66a1,1,0,0,1-1-1v-10a1,1,0,0,1,2,0v10A1,1,0,0,1,296.74,608.66Zm360.46-3.19a1,1,0,0,1-1-1v-10a1,1,0,0,1,2,0v10A1,1,0,0,1,657.2,605.47ZM296.74,590.66a1,1,0,0,1-1-1v-10a1,1,0,0,1,2,0v10A1,1,0,0,1,296.74,590.66Zm360.46-3.19a1,1,0,0,1-1-1v-10a1,1,0,0,1,2,0v10A1,1,0,0,1,657.2,587.47ZM296.74,572.66a1,1,0,0,1-1-1v-10a1,1,0,0,1,2,0v10A1,1,0,0,1,296.74,572.66Zm360.46-3.19a1,1,0,0,1-1-1v-10a1,1,0,0,1,2,0v10A1,1,0,0,1,657.2,569.47ZM296.74,554.66a1,1,0,0,1-1-1v-10a1,1,0,0,1,2,0v10A1,1,0,0,1,296.74,554.66Zm360.46-3.19a1,1,0,0,1-1-1v-10a1,1,0,0,1,2,0v10A1,1,0,0,1,657.2,551.47ZM296.74,536.66a1,1,0,0,1-1-1v-10a1,1,0,0,1,2,0v10A1,1,0,0,1,296.74,536.66Zm360.46-3.19a1,1,0,0,1-1-1v-10a1,1,0,0,1,2,0v10A1,1,0,0,1,657.2,533.47ZM296.74,518.66a1,1,0,0,1-1-1v-10a1,1,0,0,1,2,0v10A1,1,0,0,1,296.74,518.66Zm360.46-3.19a1,1,0,0,1-1-1v-10a1,1,0,0,1,2,0v10A1,1,0,0,1,657.2,515.47ZM296.74,500.66a1,1,0,0,1-1-1v-10a1,1,0,0,1,1-1,1,1,0,0,1,.62.22h2.24a1,1,0,0,1,0,2h-1.86v8.78A1,1,0,0,1,296.74,500.66Zm359.73-3.1a1,1,0,0,1-.93-.64,9.84,9.84,0,0,0-6.48-5.89,1,1,0,0,1,.55-1.93,11.87,11.87,0,0,1,7.79,7.1,1,1,0,0,1-.57,1.29A.92.92,0,0,1,656.47,497.56Zm-146.85-6.68h-4a1,1,0,0,1,0-2H509a1,1,0,0,1,.62-.22h5.76a1,1,0,0,1,0,2h-5.13A1,1,0,0,1,509.62,490.88Zm-12,0h-10a1,1,0,0,1,0-2h10a1,1,0,0,1,0,2Zm-18,0h-10a1,1,0,0,1,0-2h10a1,1,0,0,1,0,2Zm-18,0h-10a1,1,0,0,1,0-2h10a1,1,0,0,1,0,2Zm-18,0h-10a1,1,0,0,1,0-2h10a1,1,0,0,1,0,2Zm-18,0h-10a1,1,0,0,1,0-2h10a1,1,0,0,1,0,2Zm-18,0h-10a1,1,0,0,1,0-2h10a1,1,0,0,1,0,2Zm-18,0h-10a1,1,0,0,1,0-2h10a1,1,0,0,1,0,2Zm-18,0h-10a1,1,0,0,1,0-2h10a1,1,0,0,1,0,2Zm-18,0h-10a1,1,0,0,1,0-2h10a1,1,0,0,1,0,2Zm-18,0h-10a1,1,0,0,1,0-2h10a1,1,0,0,1,0,2Zm-18,0h-10a1,1,0,0,1,0-2h10a1,1,0,0,1,0,2Zm323.78-.22h-10a1,1,0,0,1,0-2h10a1,1,0,0,1,0,2Zm-18,0h-10a1,1,0,0,1,0-2h10a1,1,0,0,1,0,2Zm-18,0h-10a1,1,0,0,1,0-2h10a1,1,0,0,1,0,2Zm-18,0h-10a1,1,0,0,1,0-2h10a1,1,0,0,1,0,2Zm-18,0h-10a1,1,0,0,1,0-2h10a1,1,0,0,1,0,2Zm-18,0h-10a1,1,0,0,1,0-2h10a1,1,0,0,1,0,2Zm-18,0h-10a1,1,0,0,1,0-2h10a1,1,0,0,1,0,2Z"/><rect class="cls-1" x="592.22" y="569.11" width="108.07" height="78.53" rx="5.14"/><path d="M695.15,648.64H597.36a6.15,6.15,0,0,1-6.14-6.14V574.26a6.16,6.16,0,0,1,6.14-6.15h97.79a6.15,6.15,0,0,1,6.14,6.15V642.5A6.14,6.14,0,0,1,695.15,648.64Zm-97.79-78.53a4.15,4.15,0,0,0-4.14,4.15V642.5a4.15,4.15,0,0,0,4.14,4.14h97.79a4.14,4.14,0,0,0,4.14-4.14V574.26a4.14,4.14,0,0,0-4.14-4.15Z"/><circle class="cls-1" cx="628.03" cy="608.38" r="17.14"/><path d="M628,626.52a18.14,18.14,0,1,1,18.14-18.14A18.17,18.17,0,0,1,628,626.52Zm0-34.28a16.14,16.14,0,1,0,16.14,16.14A16.17,16.17,0,0,0,628,592.24Z"/><polygon points="678.02 682.87 602.12 647.64 678.02 647.64 678.02 682.87"/><path d="M678,683.87a.87.87,0,0,1-.42-.1l-75.9-35.22a1,1,0,0,1-.55-1.12,1,1,0,0,1,1-.79H678a1,1,0,0,1,1,1v35.23a1,1,0,0,1-.46.84A1,1,0,0,1,678,683.87Zm-71.37-35.23L677,681.3V648.64Z"/><path class="cls-4" d="M725.64,704a1,1,0,0,1-.67-1.74l41.93-37.79a1,1,0,0,1,1.34,1.49L726.31,703.7A1,1,0,0,1,725.64,704Z"/><circle class="cls-4" cx="767.57" cy="665.17" r="2.47"/><path class="cls-4" d="M767.57,668.64h-.18a3.5,3.5,0,0,1-2.41-1.15,3.44,3.44,0,0,1-.88-2.5,3.4,3.4,0,0,1,1.14-2.4,3.47,3.47,0,1,1,2.33,6Zm0-4.95a1.48,1.48,0,0,0-1,.38,1.5,1.5,0,0,0-.49,1,1.48,1.48,0,0,0,.38,1.06,1.44,1.44,0,0,0,1,.49,1.49,1.49,0,0,0,1.55-1.4,1.47,1.47,0,0,0-1.4-1.54h-.08Z"/><circle class="cls-4" cx="725.64" cy="702.95" r="2.47"/><path class="cls-4" d="M725.65,706.43h-.19a3.47,3.47,0,1,1,.36-6.93h0a3.4,3.4,0,0,1,2.4,1.14,3.47,3.47,0,0,1-2.57,5.8Zm0-4.95a1.47,1.47,0,1,0,1.1.49,1.5,1.5,0,0,0-1-.49Z"/><circle class="cls-4" cx="267.5" cy="380.14" r="2.47"/><path class="cls-4" d="M267.49,383.61a3.48,3.48,0,1,1,3.48-3.47A3.48,3.48,0,0,1,267.49,383.61Zm0-4.95a1.48,1.48,0,1,0,1.48,1.48A1.47,1.47,0,0,0,267.49,378.66Z"/><path class="cls-4" d="M237.79,411.11a1,1,0,0,1-1-1V350.16a1,1,0,0,1,2,0v59.95A1,1,0,0,1,237.79,411.11Z"/><path class="cls-4" d="M267.77,381.14H207.82a1,1,0,0,1,0-2h59.95a1,1,0,0,1,0,2Z"/><circle class="cls-4" cx="237.79" cy="350.16" r="2.47"/><path class="cls-4" d="M237.79,353.64a3.48,3.48,0,1,1,3.48-3.48A3.48,3.48,0,0,1,237.79,353.64Zm0-4.95a1.48,1.48,0,1,0,1.48,1.47A1.47,1.47,0,0,0,237.79,348.69Z"/><circle class="cls-4" cx="237.86" cy="409.83" r="2.47"/><path class="cls-4" d="M237.86,413.3a3.48,3.48,0,1,1,3.47-3.47A3.47,3.47,0,0,1,237.86,413.3Zm0-4.95a1.48,1.48,0,1,0,1.47,1.48A1.47,1.47,0,0,0,237.86,408.35Z"/><circle class="cls-4" cx="207.82" cy="380.14" r="2.47"/><path class="cls-4" d="M207.82,383.61a3.48,3.48,0,1,1,3.48-3.47A3.48,3.48,0,0,1,207.82,383.61Zm0-4.95a1.48,1.48,0,1,0,1.48,1.48A1.47,1.47,0,0,0,207.82,378.66Z"/></g></svg>