<?xml version="1.0" encoding="utf-8"?>
<!-- Generator: Adobe Illustrator 23.0.3, SVG Export Plug-In . SVG Version: 6.00 Build 0)  -->
<svg version="1.1" id="Warstwa_1" xmlns="http://www.w3.org/2000/svg" xmlns:xlink="http://www.w3.org/1999/xlink" x="0px" y="0px"
	 viewBox="0 0 500 500" style="enable-background:new 0 0 500 500;" xml:space="preserve">
<style type="text/css">
	.st0{fill:#FAFAFA;}
	.st1{fill:none;}
	.st2{fill:#8042F8;}
</style>
<title>instant_user_id_ico</title>
<g id="Warstwa_3">
	<path class="st0" d="M56.1,417.8l0.6-315.9c0-8.1,6.6-14.6,14.6-14.6c0,0,0,0,0,0l239.3,0.4c8.1,0,14.7,6.6,14.6,14.7c0,0,0,0,0,0
		l-0.6,316c0,8.1-6.6,14.6-14.7,14.6c0,0,0,0,0,0l-239.3-0.4C62.6,432.5,56.1,426,56.1,417.8C56.1,417.9,56.1,417.9,56.1,417.8z"/>
	<path d="M310.1,434.9L310.1,434.9l-239.3-0.4c-9.2,0-16.6-7.4-16.6-16.6c0,0,0,0,0,0l0,0l0.6-316c0-9.2,7.4-16.6,16.6-16.6l0,0l0,0
		l239.3,0.4c9.2,0,16.6,7.5,16.6,16.6l-0.6,316C326.7,427.5,319.3,434.9,310.1,434.9C310.1,434.9,310.1,434.9,310.1,434.9
		L310.1,434.9z M58,417.8c0,7,5.7,12.7,12.7,12.7c0,0,0,0,0,0L310,431l0,0c7,0,12.7-5.7,12.7-12.7l0.6-315.9c0-7-5.7-12.7-12.7-12.7
		l0,0L71.3,89.2l0,0c-7,0-12.7,5.7-12.7,12.7L58,417.8z"/>
	<path class="st0" d="M118.9,368.3l0.6-316c0-8.1,6.6-14.6,14.7-14.6c0,0,0,0,0,0l239.3,0.4c8.1,0,14.6,6.6,14.6,14.6c0,0,0,0,0,0
		l-0.6,315.9c0,8.1-6.6,14.7-14.7,14.6c0,0,0,0,0,0L133.6,383C125.5,383,118.9,376.5,118.9,368.3
		C118.9,368.4,118.9,368.3,118.9,368.3z"/>
	<path d="M372.9,385.3L372.9,385.3l-239.3-0.4c-9.2,0-16.6-7.5-16.6-16.6l0,0l0.6-316c0-9.1,7.4-16.6,16.6-16.6c0,0,0,0,0,0l0,0
		l239.3,0.4c9.1,0,16.6,7.4,16.6,16.6c0,0,0,0,0,0.1l-0.6,316C389.5,377.9,382.1,385.3,372.9,385.3L372.9,385.3z M120.8,368.3
		c0,7,5.7,12.7,12.7,12.7l239.3,0.4l0,0c7,0,12.7-5.7,12.7-12.7l0.6-315.9c0-7-5.7-12.7-12.7-12.7l0,0l-239.3-0.4l0,0
		c-7,0-12.7,5.7-12.7,12.7L120.8,368.3z"/>
	<line class="st1" x1="154.5" y1="243.6" x2="363" y2="243.9"/>
	<path d="M363,245.8L363,245.8l-208.5-0.3c-1.1,0-1.9-0.9-1.9-1.9c0-1.1,0.9-1.9,1.9-1.9l0,0l208.4,0.3c1.1,0,1.9,0.9,1.9,1.9
		C364.9,245,364,245.8,363,245.8L363,245.8z"/>
	<line class="st1" x1="154.5" y1="266.5" x2="362.9" y2="266.9"/>
	<path d="M362.9,268.8L362.9,268.8l-208.5-0.3c-1.1,0-1.9-0.9-1.9-1.9c0-1.1,0.9-1.9,1.9-1.9l208.4,0.3c1.1,0,1.9,0.9,1.9,1.9
		C364.8,267.9,364,268.8,362.9,268.8L362.9,268.8z"/>
	<line class="st1" x1="154.4" y1="289.5" x2="362.9" y2="289.8"/>
	<path d="M362.9,291.8L362.9,291.8l-208.5-0.3c-1.1,0-1.9-0.9-1.9-1.9c0-1.1,0.9-1.9,1.9-1.9l0,0l208.5,0.3c1.1,0,1.9,0.9,1.9,1.9
		C364.8,290.9,363.9,291.8,362.9,291.8z"/>
	<line class="st1" x1="154.4" y1="312.4" x2="293.2" y2="312.6"/>
	<path d="M293.2,314.5L293.2,314.5l-138.8-0.2c-1.1,0-1.9-0.9-1.9-1.9s0.9-1.9,1.9-1.9l0,0l138.8,0.2c1.1,0,1.9,0.9,1.9,1.9
		S294.3,314.5,293.2,314.5z"/>
	<path class="st0" d="M202.3,14.5h102.4l0,0v39.4c0,4.5-3.7,8.2-8.2,8.2l0,0h-86c-4.5,0-8.2-3.7-8.2-8.2L202.3,14.5L202.3,14.5z"/>
	<path d="M296.5,64h-86c-5.6,0-10.1-4.5-10.1-10.1V14.5c0-1.1,0.9-1.9,1.9-1.9h102.4c1.1,0,1.9,0.9,1.9,1.9v39.4
		C306.7,59.5,302.1,64,296.5,64z M204.3,16.4v37.5c0,3.5,2.8,6.3,6.3,6.3h86c3.5,0,6.3-2.8,6.3-6.3l0,0V16.4H204.3z"/>
	<polygon points="178.1,37.8 201.4,37.8 201.4,14.5 	"/>
	<path d="M201.5,39.8h-23.3c-1.1,0-1.9-0.9-2-1.9c0-0.5,0.2-1,0.6-1.4l23.3-23.3c0.8-0.8,2-0.8,2.7,0c0.4,0.4,0.6,0.9,0.6,1.4v23.3
		C203.4,38.9,202.6,39.8,201.5,39.8z M182.8,35.9h16.7V19.2L182.8,35.9z"/>
	<path class="st0" d="M273.4,179.7c-0.2,0.3-0.4,0.6-0.7,0.9c-0.2,0.3-0.3,0.3-0.4,0.5l-0.7,0.8l-0.4,0.5c-0.4,0.4-0.8,0.8-1.3,1.2
		l-0.6,0.5l-0.7,0.6l-0.7,0.5l-1,0.7l-1,0.6l-0.7,0.4l-1,0.5l-0.6,0.3c-0.5,0.2-1,0.4-1.5,0.6l-0.6,0.2c-0.4,0.2-0.8,0.3-1.2,0.4
		l-0.5,0.2c-0.6,0.2-1.1,0.3-1.7,0.4h-0.3c-0.5,0-1,0.2-1.5,0.2h-0.5c-0.6,0-1.3,0-1.9,0l0,0c-0.6,0-1.3,0-1.9,0h-0.5
		c-0.5,0-1-0.1-1.5-0.2h-0.4l-1.7-0.4l-0.5-0.2l-1.2-0.4l-0.6-0.2c-0.5-0.2-1-0.4-1.5-0.6l-0.6-0.3l-0.9-0.5l-0.8-0.4l-0.7-0.4
		c-0.5-0.3-1-0.7-1.4-1l-0.5-0.3l-0.9-0.7l-0.4-0.3c-0.9-0.9-1.8-1.8-2.6-2.8l-0.2-0.3c-0.3-0.3-0.5-0.7-0.8-1l0,0
		c-10.9,4.9-19.9,13.2-25.7,23.7c11.5,10.2,26.2,16.2,41.6,17h6.6c15.5-0.7,30.3-6.6,42-16.9C292.8,192.9,284.1,184.7,273.4,179.7z"
		/>
	<path d="M256.7,222.1H250c-15.9-0.8-31-7-42.9-17.5c-0.7-0.6-0.9-1.6-0.4-2.4c6-10.8,15.3-19.4,26.6-24.5c0.8-0.4,1.8-0.1,2.4,0.7
		c0.2,0.3,0.5,0.7,0.7,1l0.2,0.2c0.7,0.9,1.6,1.8,2.4,2.6l0.3,0.3l0.8,0.7l0.3,0.2l0.2,0.1c0.4,0.3,0.9,0.6,1.3,0.9l0.6,0.4l0.7,0.4
		l0.9,0.4l0.6,0.3c0.4,0.2,0.9,0.4,1.4,0.6l0.5,0.2c0.4,0.2,0.8,0.3,1.2,0.4l0.5,0.2c0.5,0.1,1,0.3,1.6,0.4h0.4
		c0.4,0,0.9,0.1,1.4,0.2h0.5c0.6,0,1.2,0.1,1.8,0c0.5-0.1,1.2,0,1.7,0h0.5l1.4-0.2h0.2c0.7-0.1,1.2-0.3,1.7-0.4h0.3
		c0.5-0.2,0.9-0.3,1.3-0.4l0.5-0.2c0.5-0.2,1-0.4,1.4-0.6l0.5-0.3l0.9-0.5l0.6-0.4l0.9-0.5l0.9-0.7l0.7-0.5l0.7-0.5l0.5-0.5
		c0.4-0.4,0.8-0.8,1.2-1.1l0.4-0.4l0.6-0.7l0.4-0.5c0.2-0.3,0.4-0.5,0.6-0.8c0.5-0.7,1.5-1,2.4-0.6c11,5.1,20.2,13.6,26,24.3
		c0.5,0.8,0.3,1.8-0.4,2.4C287.8,215.2,272.6,221.3,256.7,222.1z M210.9,202.8c11.1,9.2,24.8,14.6,39.2,15.4h6.5
		c14.5-0.7,28.4-6.1,39.5-15.4c-5.2-8.8-12.9-16-22.1-20.7l-0.1,0.2l-0.8,0.9l-0.3,0.3l-1.5,1.5l-0.6,0.5l-0.8,0.6l-0.8,0.6
		c-0.4,0.3-0.7,0.5-1.1,0.8c-0.4,0.2-0.7,0.4-1,0.6s-0.5,0.3-0.7,0.4l-1.1,0.6l-0.6,0.3c-0.5,0.3-1.1,0.5-1.7,0.7l-0.4,0.2
		c-0.6,0.2-1,0.3-1.5,0.5l-0.6,0.2c-0.6,0.2-1.3,0.3-1.9,0.4h-0.3l-1.7,0.2h-0.6c-0.7,0-1.3,0-2,0s-1.4,0-2.1,0h-0.5
		c-0.6,0-1.2-0.1-1.7-0.2h-0.4c-0.6-0.1-1.3-0.3-1.9-0.4l-0.4-0.1l-1.5-0.5l-0.7-0.2c-0.6-0.2-1.1-0.4-1.6-0.7l-0.5-0.2l-0.2-0.1
		l-1-0.5l-0.8-0.5l-0.8-0.5c-0.5-0.3-1.1-0.7-1.6-1.1l-0.5-0.4l-0.9-0.8l-0.4-0.4c-1-0.9-2-1.9-2.8-3v-0.1
		C224.1,186.5,216.3,193.8,210.9,202.8z"/>
	<path class="st0" d="M273.4,179.7c-0.2,0.3-0.4,0.6-0.7,0.9c-0.2,0.3-0.3,0.3-0.4,0.5l-0.7,0.8l-0.4,0.5c-0.4,0.4-0.8,0.8-1.3,1.2
		l-0.6,0.5l-0.7,0.6l-0.7,0.5l-1,0.7l-1,0.6l-0.7,0.4l-1,0.5l-0.6,0.3c-0.5,0.2-1,0.4-1.5,0.6l-0.6,0.2c-0.4,0.2-0.8,0.3-1.2,0.4
		l-0.5,0.2c-0.6,0.2-1.1,0.3-1.7,0.4h-0.3c-0.5,0-1,0.2-1.5,0.2h-0.5c-0.6,0-1.3,0-1.9,0l0,0c-0.6,0-1.3,0-1.9,0h-0.5
		c-0.5,0-1-0.1-1.5-0.2h-0.4l-1.7-0.4l-0.5-0.2l-1.2-0.4l-0.6-0.2c-0.5-0.2-1-0.4-1.5-0.6l-0.6-0.3l-0.9-0.5l-0.8-0.4l-0.7-0.4
		c-0.5-0.3-1-0.7-1.4-1l-0.5-0.3l-0.9-0.7l-0.4-0.3c-0.9-0.9-1.8-1.8-2.6-2.8l-0.2-0.3c-0.3-0.3-0.5-0.7-0.8-1l0,0
		c-10.9,4.9-19.9,13.2-25.7,23.7c11.5,10.2,26.2,16.2,41.6,17h6.6c15.5-0.7,30.3-6.6,42-16.9C292.8,192.9,284.1,184.7,273.4,179.7z"
		/>
	<path d="M256.7,222.1H250c-15.9-0.8-31-7-42.9-17.5c-0.7-0.6-0.9-1.6-0.4-2.4c6-10.8,15.3-19.4,26.6-24.5c0.8-0.4,1.8-0.1,2.4,0.7
		c0.2,0.3,0.5,0.7,0.7,1l0.2,0.2c0.7,0.9,1.6,1.8,2.4,2.6l0.3,0.3l0.8,0.7l0.3,0.2l0.2,0.1c0.4,0.3,0.9,0.6,1.3,0.9l0.6,0.4l0.7,0.4
		l0.9,0.4l0.6,0.3c0.4,0.2,0.9,0.4,1.4,0.6l0.5,0.2c0.4,0.2,0.8,0.3,1.2,0.4l0.5,0.2c0.5,0.1,1,0.3,1.6,0.4h0.4
		c0.4,0,0.9,0.1,1.4,0.2h0.5c0.6,0,1.2,0.1,1.8,0c0.5-0.1,1.2,0,1.7,0h0.5l1.4-0.2h0.2c0.7-0.1,1.2-0.3,1.7-0.4h0.3
		c0.5-0.2,0.9-0.3,1.3-0.4l0.5-0.2c0.5-0.2,1-0.4,1.4-0.6l0.5-0.3l0.9-0.5l0.6-0.4l0.9-0.5l0.9-0.7l0.7-0.5l0.7-0.5l0.5-0.5
		c0.4-0.4,0.8-0.8,1.2-1.1l0.4-0.4l0.6-0.7l0.4-0.5c0.2-0.3,0.4-0.5,0.6-0.8c0.5-0.7,1.5-1,2.4-0.6c11,5.1,20.2,13.6,26,24.3
		c0.5,0.8,0.3,1.8-0.4,2.4C287.8,215.2,272.6,221.3,256.7,222.1z M210.9,202.8c11.1,9.2,24.8,14.6,39.2,15.4h6.5
		c14.5-0.7,28.4-6.1,39.5-15.4c-5.2-8.8-12.9-16-22.1-20.7l-0.1,0.2l-0.8,0.9l-0.3,0.3l-1.5,1.5l-0.6,0.5l-0.8,0.6l-0.8,0.6
		c-0.4,0.3-0.7,0.5-1.1,0.8c-0.4,0.2-0.7,0.4-1,0.6s-0.5,0.3-0.7,0.4l-1.1,0.6l-0.6,0.3c-0.5,0.3-1.1,0.5-1.7,0.7l-0.4,0.2
		c-0.6,0.2-1,0.3-1.5,0.5l-0.6,0.2c-0.6,0.2-1.3,0.3-1.9,0.4h-0.3l-1.7,0.2h-0.6c-0.7,0-1.3,0-2,0s-1.4,0-2.1,0h-0.5
		c-0.6,0-1.2-0.1-1.7-0.2h-0.4c-0.6-0.1-1.3-0.3-1.9-0.4l-0.4-0.1l-1.5-0.5l-0.7-0.2c-0.6-0.2-1.1-0.4-1.6-0.7l-0.5-0.2l-0.2-0.1
		l-1-0.5l-0.8-0.5l-0.8-0.5c-0.5-0.3-1.1-0.7-1.6-1.1l-0.5-0.4l-0.9-0.8l-0.4-0.4c-1-0.9-2-1.9-2.8-3v-0.1
		C224.1,186.5,216.3,193.8,210.9,202.8z"/>
	<path class="st0" d="M257.7,189.6c-0.5,0-1,0.2-1.5,0.2C256.8,189.7,257.3,189.6,257.7,189.6z"/>
	<path d="M256.2,191.7c-1,0-1.8-0.8-1.9-1.7c0,0,0-0.1,0-0.2c0-1,0.8-1.8,1.7-1.9l1.4-0.2c1.1-0.2,2.1,0.5,2.3,1.6
		c0.2,1.1-0.5,2.1-1.6,2.3l-1.6,0.2L256.2,191.7z"/>
	<path class="st0" d="M259.9,189.1c-0.6,0.2-1.1,0.3-1.7,0.4C258.7,189.4,259.3,189.3,259.9,189.1z"/>
	<path d="M258.1,191.5c-0.9,0-1.8-0.7-1.9-1.6c0-0.1,0-0.2,0-0.3c0-1,0.7-1.8,1.6-1.9l1.6-0.4c1.1-0.2,2.1,0.5,2.3,1.5
		c0.2,1-0.4,1.9-1.3,2.2c-0.6,0.2-1.2,0.3-1.9,0.4l0,0L258.1,191.5z"/>
	<path class="st0" d="M261.6,188.6c-0.4,0.2-0.8,0.3-1.2,0.4C260.8,188.9,261.2,188.7,261.6,188.6z"/>
	<path d="M260.4,190.9c-1.1,0.1-2.1-0.6-2.2-1.7s0.6-2.1,1.7-2.2l0,0l1.1-0.4c1-0.4,2.1,0.1,2.5,1.1c0,0.1,0,0.1,0.1,0.2
		c0.1,0.2,0.1,0.4,0.1,0.6c0,0.9-0.5,1.7-1.3,1.9l0,0c-0.4,0.1-0.9,0.3-1.3,0.4C260.8,191,260.6,191,260.4,190.9z"/>
	<path class="st0" d="M255.8,189.9c-0.6,0-1.3,0-1.9,0C254.5,189.9,255.1,189.9,255.8,189.9z"/>
	<path d="M253.9,191.8L253.9,191.8c-1.1,0-1.9-0.9-1.9-1.9l0,0c0-1.1,0.9-1.9,1.9-1.9l0,0c0.6,0,1.2,0,1.7,0c1.1-0.1,2,0.7,2.1,1.8
		c0,0.1,0,0.1,0,0.2c0,1-0.8,1.9-1.8,1.9C255.2,191.8,254.5,191.8,253.9,191.8z"/>
	<path class="st0" d="M253.9,189.9L253.9,189.9c-0.6,0-1.3,0-1.9,0C252.6,189.9,253.2,189.9,253.9,189.9z"/>
	<path d="M253.9,191.8L253.9,191.8c-0.7,0-1.4,0-2.1,0c-1-0.1-1.8-0.9-1.8-1.9c0-0.1,0-0.1,0-0.2c0.1-1.1,1-1.8,2.1-1.8
		c0.6,0,1.2,0,1.7,0c1.1,0,1.9,0.9,1.9,1.9l0,0C255.8,191,254.9,191.8,253.9,191.8z"/>
	<path class="st0" d="M247.2,188.9l-1.2-0.4L247.2,188.9z"/>
	<path d="M247.2,190.9c-0.2,0-0.4,0-0.5-0.1l0,0l-1.2-0.4c-1-0.4-1.5-1.5-1.2-2.5s1.5-1.5,2.5-1.2l0,0c0.3,0.1,0.7,0.3,1.1,0.3l0,0
		c0.9,0.2,1.4,1,1.4,1.9c0,0.2,0,0.4,0,0.5C248.9,190.4,248.1,191,247.2,190.9z"/>
	<path class="st0" d="M249.5,189.5l-1.7-0.4L249.5,189.5z"/>
	<path d="M249.5,191.4h-0.4c-0.6-0.1-1.3-0.3-1.9-0.4c-1-0.3-1.6-1.4-1.3-2.4c0.3-1,1.3-1.6,2.3-1.3c0.5,0.1,1,0.3,1.5,0.3h0.1
		c0.9,0.2,1.6,1,1.6,1.9c0,0.1,0,0.2,0,0.3C251.2,190.8,250.4,191.4,249.5,191.4z"/>
	<path class="st0" d="M251.4,189.8c-0.5,0-1-0.1-1.5-0.2C250.4,189.6,250.9,189.7,251.4,189.8z"/>
	<path d="M251.4,191.7h-0.2c-0.5,0-1.1-0.1-1.6-0.2c-0.9-0.2-1.6-1-1.6-1.9c0-0.1,0-0.2,0-0.3c0.2-1.1,1.2-1.8,2.2-1.6
		c0.4,0,0.9,0.1,1.4,0.2c1,0.1,1.7,0.9,1.7,1.9v0.2C253.2,190.9,252.4,191.7,251.4,191.7z"/>
	<path class="st0" d="M265.3,186.9l-1,0.5L265.3,186.9z"/>
	<path d="M264.3,189.4c-0.7,0-1.4-0.4-1.7-1.1c-0.1-0.3-0.2-0.6-0.2-0.9c0-0.7,0.4-1.4,1.1-1.7l0.9-0.5c0.9-0.5,2.1-0.2,2.6,0.8
		c0,0,0,0,0,0c0.2,0.3,0.2,0.6,0.2,0.9c0,0.7-0.4,1.4-1,1.7l-1.1,0.6C264.9,189.3,264.6,189.4,264.3,189.4z"/>
	<path class="st0" d="M272.8,180.6c-0.1,0.2-0.3,0.3-0.4,0.5C272.5,180.9,272.6,180.8,272.8,180.6z"/>
	<path d="M272.4,183c-1.1,0-1.9-0.9-1.9-1.9c0-0.5,0.2-0.9,0.4-1.2l0.4-0.5c0.7-0.8,1.9-1,2.7-0.3c0,0,0,0,0,0
		c0.5,0.4,0.7,0.9,0.7,1.5c0,0.4-0.2,0.9-0.4,1.2l-0.4,0.5C273.5,182.8,272.9,183,272.4,183z"/>
	<path class="st0" d="M270,183.6l-0.6,0.5L270,183.6z"/>
	<path d="M269.4,186c-0.6,0-1.1-0.3-1.5-0.7c-0.3-0.3-0.5-0.8-0.5-1.2c0-0.6,0.2-1.1,0.7-1.5l0.5-0.4c0.8-0.7,2-0.7,2.7,0.1
		c0.3,0.4,0.5,0.8,0.5,1.3c0,0.5-0.2,1.1-0.6,1.4l-0.6,0.6C270.3,185.8,269.8,186,269.4,186z"/>
	<path class="st0" d="M271.7,181.9l-0.4,0.5L271.7,181.9z"/>
	<path d="M271.3,184.2c-0.5,0-0.9-0.2-1.3-0.5c-0.4-0.4-0.6-0.9-0.6-1.4c0-0.5,0.2-0.9,0.5-1.3l0.4-0.4c0.7-0.8,1.9-0.9,2.7-0.1
		c0.4,0.4,0.6,0.9,0.6,1.4c0,0.5-0.2,1-0.5,1.3l-0.3,0.3C272.4,184,271.9,184.2,271.3,184.2z"/>
	<path class="st0" d="M253.5,220.2c1,0,2.1,0,3.1,0H250C251.2,220.2,252.4,220.2,253.5,220.2z"/>
	<path d="M253.5,222.1c-1.2,0-2.4,0-3.6,0c-1-0.1-1.8-0.9-1.8-1.9c0-1.1,0.9-1.9,1.9-1.9h6.6c1.1,0,1.9,0.9,1.9,1.9
		c0,1.1-0.9,1.9-1.9,1.9C255.6,222.1,254.6,222.1,253.5,222.1z"/>
	<path class="st0" d="M263.7,187.7c-0.5,0.2-1,0.4-1.5,0.6C262.7,188.2,263.2,187.9,263.7,187.7z"/>
	<path d="M262.2,190.3c-0.8,0-1.5-0.5-1.8-1.3c-0.1-0.2-0.1-0.4-0.1-0.7c0-0.8,0.5-1.5,1.2-1.8c0.5-0.2,1-0.4,1.4-0.6
		c1-0.5,2.1,0,2.6,0.9c0,0,0,0,0,0c0.1,0.3,0.2,0.5,0.2,0.8c0,0.8-0.4,1.4-1.1,1.8c-0.5,0.3-1.1,0.5-1.7,0.7
		C262.7,190.3,262.4,190.3,262.2,190.3z"/>
	<path class="st0" d="M245.4,188.3c-0.5-0.2-1-0.4-1.5-0.6C244.4,187.9,244.9,188.1,245.4,188.3z"/>
	<path d="M245.4,190.3c-0.2,0-0.5,0-0.7-0.1c-0.6-0.2-1.1-0.4-1.6-0.7c-0.7-0.3-1.1-1-1.1-1.8c0-0.3,0.1-0.6,0.2-0.8
		c0.5-1,1.6-1.4,2.6-0.9c0.4,0.2,0.9,0.4,1.4,0.6c0.7,0.3,1.2,1,1.2,1.8c0,0.2,0,0.5-0.1,0.7C246.9,189.8,246.2,190.3,245.4,190.3z"
		/>
	<path class="st0" d="M266.9,186l-1,0.6L266.9,186z"/>
	<path d="M266,188.5c-0.7,0-1.3-0.4-1.7-1c-0.2-0.3-0.3-0.6-0.3-1c0-0.7,0.4-1.3,1-1.7l0.9-0.5c0.9-0.6,2.1-0.3,2.7,0.6
		c0.6,0.9,0.3,2.1-0.5,2.6c-0.3,0.2-0.7,0.4-1,0.6C266.7,188.4,266.3,188.5,266,188.5z"/>
	<path class="st0" d="M268.7,184.7l-0.7,0.5L268.7,184.7z"/>
	<path d="M267.9,187.2c-0.6,0-1.2-0.3-1.6-0.8c-0.2-0.3-0.4-0.7-0.4-1.1c0-0.6,0.3-1.2,0.8-1.6l0.7-0.5c0.8-0.7,2.1-0.5,2.7,0.3
		c0.3,0.3,0.4,0.8,0.4,1.2c0,0.6-0.3,1.1-0.7,1.5l-0.8,0.6C268.8,187.1,268.4,187.2,267.9,187.2z"/>
	<path class="st0" d="M235.1,180.8l-0.2-0.3L235.1,180.8z"/>
	<path d="M235.1,182.7c-0.6,0-1.1-0.3-1.5-0.7l-0.2-0.3c-0.3-0.3-0.4-0.8-0.4-1.2c0-1.1,0.9-1.9,2-1.9c0.6,0,1.1,0.3,1.5,0.7
		l0.2,0.2c0.3,0.3,0.4,0.8,0.4,1.2c0,0.6-0.3,1.1-0.7,1.5C236,182.6,235.6,182.8,235.1,182.7z"/>
	<path class="st0" d="M238.1,183.9l-0.4-0.3L238.1,183.9z"/>
	<path d="M238.1,185.9c-0.5,0-0.9-0.2-1.3-0.5l-0.4-0.4c-0.4-0.4-0.6-0.9-0.6-1.4c0-0.5,0.2-0.9,0.5-1.3c0.7-0.8,1.9-0.8,2.7-0.1
		l0.3,0.3c0.8,0.7,0.9,1.9,0.2,2.7C239.2,185.6,238.7,185.9,238.1,185.9z"/>
	<path class="st0" d="M241.6,186.5l-0.7-0.4L241.6,186.5z"/>
	<path d="M241.6,188.4c-0.3,0-0.7-0.1-1-0.3l0,0c-0.3-0.2-0.5-0.3-0.7-0.5l0,0c-0.9-0.6-1.2-1.8-0.6-2.7c0.6-0.9,1.7-1.1,2.6-0.6
		l0,0l0.6,0.4l0,0c0.9,0.6,1.2,1.7,0.7,2.7C242.9,188,242.3,188.4,241.6,188.4z"/>
	<path class="st0" d="M277.4,122.5c4.5-3.2,7.8-9.7,5.1-14.8c-4.7-9.1-15.7-4.7-24.6,2.7l-0.3,0.2
		C265.6,111.7,272.7,116,277.4,122.5z"/>
	<path d="M277.4,124.5c-0.6,0-1.2-0.3-1.6-0.8c-4.4-6.1-11.1-10.1-18.5-11.1c-1.1-0.1-1.8-1.1-1.7-2.2c0.1-0.5,0.3-0.9,0.7-1.3
		l0.3-0.3c4.3-3.6,12.7-9.6,20.1-8.1c3.3,0.7,6.1,2.9,7.5,6c3.1,6-0.4,13.6-5.7,17.3C278.2,124.3,277.8,124.5,277.4,124.5z
		 M262.1,109.6c6.1,1.7,11.5,5.3,15.5,10.1c3-2.9,4.9-7.6,3.1-11.2c-0.9-2-2.7-3.4-4.8-3.9C272.5,104,267.4,105.8,262.1,109.6z"/>
	<path class="st0" d="M239.5,185l-0.5-0.3L239.5,185z"/>
	<path d="M239.5,186.9c-0.4,0-0.8-0.1-1.2-0.4l1.2-1.6l-1.2,1.6l1.2-1.6l-1.3,1.5l-0.4-0.3c-0.5-0.4-0.7-0.9-0.7-1.5
		c0-1.1,0.9-1.9,1.9-1.9c0.4,0,0.9,0.2,1.2,0.4l0.3,0.2l0.2,0.1c0.8,0.6,1,1.8,0.4,2.7C240.6,186.6,240.1,186.9,239.5,186.9z"/>
	<path class="st0" d="M243.3,187.4l-0.9-0.5L243.3,187.4z"/>
	<path d="M243.3,189.3c-0.3,0-0.6-0.1-0.9-0.2l-1-0.5c-0.6-0.3-1-1-1-1.7c0-0.3,0.1-0.6,0.3-0.9c0.5-0.9,1.7-1.3,2.6-0.8
		c0,0,0,0,0,0l0.8,0.4c1,0.5,1.3,1.7,0.8,2.6C244.7,188.9,244,189.3,243.3,189.3z"/>
	<path class="st2" d="M234.1,179.5L234.1,179.5c-1.9-2.7-3.3-5.7-4.1-8.9l0,0c-0.3-1.1-0.4-2.2-0.6-3.3l-0.3-1.5
		c-0.7,0.2-1.5,0.4-2.2,0.4c-4,0-7.2-3.2-7.2-7.2c0-3.8,2.9-6.9,6.7-7.2l-1.1-5.8c-0.4-2-0.6-4-0.6-6c-0.1-16.2,12.9-29.5,29.2-29.6
		c0,0,0,0,0,0c1.2,0,2.4,0.1,3.6,0.2l0.3-0.2c8.9-7.4,19.9-11.9,24.6-2.7c2.6,5.1-0.6,11.6-5.1,14.8c3.7,5.1,5.7,11.3,5.6,17.6
		c-0.4,4-1,7.9-1.8,11.8c3.9,0.5,6.8,4,6.3,8c-0.5,3.9-4,6.8-8,6.3c-0.4,0-0.7-0.1-1.1-0.2c-0.2,0.9-0.3,1.4-0.3,1.4
		c-0.1,1.1-0.3,2.2-0.6,3.2l0,0l0,0c-0.8,3.3-2.2,6.4-4.2,9.1c10.7,5,19.5,13.2,25.2,23.5c28.3-24.9,31.1-68,6.2-96.4
		c-24.9-28.3-68-31.1-96.4-6.2s-31.1,68-6.2,96.4c1.9,2.2,4,4.3,6.2,6.2C214.3,192.7,223.3,184.4,234.1,179.5z"/>
	<path d="M298.6,205.1h-0.3c-0.6-0.1-1.1-0.4-1.4-1c-5.5-9.9-14-17.8-24.3-22.7c-0.5-0.2-0.9-0.7-1.1-1.3c-0.2-0.6,0-1.2,0.3-1.6
		c1.8-2.5,3.1-5.4,3.9-8.4c0.2-1,0.4-2,0.5-3.1l0.3-1.5c0.2-1,1.2-1.7,2.3-1.5c0,0,0.1,0,0.1,0c0.4,0.1,0.9,0.2,1.4,0.2
		c2.9-0.1,5.2-2.5,5.1-5.4c-0.1-2.6-1.9-4.7-4.5-5.1c-0.5-0.1-1-0.3-1.3-0.8c-0.3-0.4-0.4-1-0.3-1.5c0.8-3.8,1.4-7.6,1.8-11.4
		c0-5.9-1.8-11.7-5.3-16.5c-0.3-0.4-0.4-0.9-0.3-1.5c0.1-0.5,0.4-1,0.8-1.3c3.9-2.7,6.6-8.2,4.5-12.4c-0.9-2-2.7-3.4-4.8-3.9
		c-4.1-0.8-10.4,1.9-16.8,7.3l-0.3,0.2c-0.4,0.4-1,0.5-1.5,0.5c-8.4-1.1-16.7,1.7-22.7,7.8c-5.1,5.2-8,12.3-8,19.6
		c0,1.9,0.2,3.8,0.6,5.6l1.1,5.8c0.1,0.5,0,1.1-0.4,1.6c-0.3,0.4-0.8,0.7-1.4,0.8c-2.9,0.2-5,2.8-4.8,5.7c0.2,2.7,2.5,4.8,5.2,4.8
		c0.6,0,1.1-0.1,1.6-0.3c0.5-0.2,1.1-0.1,1.6,0.2c0.5,0.3,0.8,0.8,0.9,1.3l0.3,1.5c0.1,1.1,0.3,2.1,0.5,3.2c0.7,3,2,5.8,3.8,8.3
		c0.3,0.5,0.4,1.1,0.3,1.6c-0.2,0.6-0.6,1-1.1,1.3c-10.5,4.8-19.2,12.8-24.8,22.8c-0.3,0.5-0.8,0.9-1.4,1c-0.6,0.1-1.2-0.1-1.6-0.5
		c-29.1-25.6-32-70-6.4-99.1c25.6-29.1,70-32,99.1-6.4s32,70,6.4,99.1c-2,2.3-4.1,4.4-6.4,6.4C299.5,205,299.1,205.2,298.6,205.1z
		 M276.3,178.9c9.4,4.8,17.3,12.2,22.7,21.2c26.7-25.1,27.9-67.1,2.8-93.8c-25.1-26.7-67.1-27.9-93.8-2.8s-27.9,67.1-2.8,93.8
		c0.9,0.9,1.8,1.9,2.8,2.8c5.6-9.2,13.7-16.6,23.3-21.4c-1.4-2.4-2.5-5-3.1-7.7c-0.2-1-0.4-2-0.5-2.9h-0.7c-2.4,0-4.7-1-6.5-2.7
		c-1.7-1.7-2.7-4-2.7-6.5c0-4,2.6-7.4,6.3-8.6l-0.8-3.9c-0.4-2.1-0.6-4.2-0.6-6.4c0-8.4,3.3-16.4,9.1-22.3c5.8-6,13.7-9.3,22-9.3
		c1,0,2,0,3,0.2c4.4-3.7,12.6-9.2,19.7-7.8c3.3,0.7,6.1,2.9,7.5,6c2.8,5.4,0.2,12.1-4.2,16.1c3.3,5.1,5,11.1,5,17.2
		c-0.2,3.5-0.7,6.9-1.5,10.3c4.7,1.7,7.2,7,5.4,11.7c-1.3,3.6-4.7,6-8.6,6h-0.3c-0.1,1-0.3,1.9-0.5,2.9
		C278.9,173.8,277.8,176.5,276.3,178.9z"/>
	<path class="st0" d="M277.6,170.6L277.6,170.6c0.3-1.1,0.4-2.1,0.6-3.2c0,0,0.1-0.5,0.3-1.4c3.8,1.1,7.8-1.2,8.8-5
		c1.1-3.8-1.2-7.8-5-8.8c-0.4-0.1-0.7-0.2-1.1-0.2l-6.2,3.9c0,5.2-4.2,9.4-9.4,9.4c-5.2,0-9.4-4.2-9.4-9.4c0-5.2,4.2-9.4,9.4-9.4
		c5.2,0,9.4,4.2,9.4,9.4v0l6.2-3.9c0.8-3.9,1.4-7.8,1.8-11.8c0-6.3-1.9-12.5-5.6-17.6l-0.7,0.5c-3.1,1.8-6.7,2.6-10.3,2.2v0.3
		c-0.1,2.2-1.1,4.3-2.8,5.8c-2.3,1.9-5.1,2.8-8.1,2.7c-5.4-0.5-10.5-2.3-15.1-5.2c0,0-0.5,14.4-13.3,14.2
		c12.8,0.2,13.3-14.2,13.3-14.2c4.6,2.9,9.7,4.7,15.1,5.2c2.9,0.1,5.8-0.8,8.1-2.7c1.7-1.5,2.7-3.6,2.8-5.8v-0.3
		c3.6,0.4,7.2-0.4,10.3-2.2l0.7-0.5c-4.7-6.5-11.8-10.8-19.8-11.9c-3.6,3.1-6.9,6.6-9.6,10.5c2.7-3.9,5.9-7.4,9.6-10.5
		c-1.2-0.2-2.4-0.2-3.6-0.2c-16.2,0.1-29.3,13.4-29.2,29.6c0,2,0.2,4,0.6,6l1.1,5.8c-4,0.3-6.9,3.7-6.6,7.7c0.3,3.8,3.4,6.7,7.2,6.7
		c0.8,0,1.5-0.1,2.2-0.4l0.3,1.5c0.1,1.1,0.3,2.2,0.6,3.3l0,0c0.8,3.2,2.1,6.2,4.1,8.9c0.3,0.4,0.5,0.7,0.8,1l0.2,0.3
		c0.8,1,1.7,1.9,2.6,2.8l0.4,0.3l0.9,0.7l0.5,0.3c0.5,0.4,1,0.7,1.4,1l0.7,0.4l0.8,0.4l0.9,0.5l0.6,0.3c0.5,0.2,1,0.4,1.5,0.6
		l0.6,0.2l1.2,0.4l0.5,0.2l1.7,0.4h0.4c0.5,0,1,0.2,1.5,0.2h0.5c0.6,0,1.3,0,1.9,0l0,0c0.6,0,1.3,0,1.9,0h0.5c0.5,0,1-0.1,1.5-0.2
		h0.3c0.6-0.1,1.2-0.2,1.7-0.4l0.5-0.2c0.4-0.1,0.8-0.3,1.2-0.4l0.6-0.2c0.5-0.2,1-0.4,1.5-0.6l0.6-0.3l1-0.5l0.7-0.4l1-0.6l1-0.7
		l0.7-0.5l0.6-0.7l0.6-0.5c0.4-0.4,0.9-0.8,1.3-1.2l0.4-0.5l0.7-0.8c0.1-0.2,0.3-0.3,0.4-0.5c0.1-0.2,0.5-0.6,0.7-0.9l0,0
		C275.4,177,276.8,173.9,277.6,170.6L277.6,170.6z M226.8,151.8l6.9,3.9L226.8,151.8z M243.3,165.1c-5.2,0-9.4-4.2-9.4-9.4
		c0-5.2,4.2-9.4,9.4-9.4c5.2,0,9.4,4.2,9.4,9.4C252.7,160.9,248.5,165.1,243.3,165.1L243.3,165.1z M251.6,168l5.6,1.6l-4.4-24.5
		l4.4,24.5L251.6,168z"/>
	<path d="M253.9,191.8c-0.7,0-1.4,0-2.1,0h-0.5c-0.6,0-1.2-0.1-1.7-0.2h-0.4c-0.6-0.1-1.3-0.3-1.9-0.4l-0.4-0.1l-1.5-0.5l-0.7-0.2
		c-0.6-0.2-1.1-0.4-1.6-0.7l-0.5-0.3l-0.2-0.1l-1-0.5l-0.8-0.5c-0.3-0.1-0.5-0.3-0.7-0.5c-0.6-0.4-1.1-0.7-1.6-1.1l-0.5-0.4
		l-0.9-0.8l-0.4-0.4c-1-0.9-2-1.9-2.8-3l-0.2-0.3c-0.3-0.4-0.6-0.7-0.9-1.1c-2.1-2.9-3.5-6.1-4.4-9.6c-0.2-1-0.4-2-0.5-2.9h-0.7
		c-2.4,0-4.7-1-6.5-2.7c-1.7-1.7-2.7-4-2.7-6.5c0-4,2.6-7.4,6.3-8.6l-0.8-3.9c-0.4-2.1-0.6-4.2-0.6-6.4c0-8.4,3.3-16.4,9.1-22.3
		c6.8-6.9,16.3-10.2,25.9-9l0,0c8.5,1.1,16.2,5.6,21.2,12.5l0,0c3.9,5.5,6.1,12,6,18.8c-0.2,3.5-0.7,6.9-1.5,10.3
		c4.7,1.7,7.2,7,5.4,11.7c-1.3,3.6-4.7,6-8.6,6h-0.3c-0.1,1-0.3,1.9-0.5,2.9l0,0c-0.9,3.5-2.4,6.8-4.5,9.7l-0.7,0.9l-0.4,0.5
		l-0.8,0.9l-0.3,0.3l-1.5,1.5l-0.6,0.5l-0.8,0.6l-0.8,0.6c-0.4,0.3-0.7,0.5-1.1,0.8c-0.4,0.2-0.7,0.4-1,0.6
		c-0.3,0.2-0.5,0.3-0.7,0.4l-1.1,0.6l-0.6,0.3c-0.5,0.3-1.1,0.5-1.7,0.7l-0.4,0.2c-0.6,0.2-1,0.3-1.5,0.5l-0.6,0.2
		c-0.6,0.2-1.3,0.3-1.9,0.4h-0.3l-1.7,0.2h-0.6C255.2,191.8,254.5,191.8,253.9,191.8z M257.5,187.6l0.7,1.9l-0.3-1.9l1.6-0.4h0.3
		c0.5-0.2,0.9-0.3,1.3-0.4l0.5-0.2c0.5-0.2,1-0.4,1.4-0.6l0.5-0.3l0.9-0.5l0.6-0.4l0.9-0.5l0.9-0.7l0.7-0.5l0.7-0.5l0.5-0.5
		c0.4-0.4,0.8-0.8,1.2-1.1l0.4-0.4l0.6-0.7l0.4-0.5c0.2-0.3,0.4-0.5,0.6-0.8c1.8-2.5,3.1-5.4,3.9-8.4l0,0c0.2-1,0.4-2,0.5-3.1
		l0.3-1.5c0.2-1,1.2-1.7,2.3-1.5c0,0,0.1,0,0.1,0c0.4,0.1,0.9,0.2,1.4,0.2c2.9,0,5.2-2.4,5.2-5.3c0-2.4-1.6-4.4-3.9-5l-4.7,2.8
		c-0.6,5.8-5.5,10.2-11.3,10.2l0,0c-2.7,0-5.4-1-7.4-2.8l0.9,4.9c0,0.1,0,0.2,0,0.3c0,0.5-0.2,1.1-0.6,1.4c-0.5,0.5-1.2,0.6-1.8,0.4
		l-5.6-1.6c-0.9-0.2-1.4-1-1.4-1.9c0-0.2,0-0.4,0-0.5c0.3-1,1.4-1.6,2.4-1.3l0,0l2.6,0.8l-1.1-6.3c-1.9,4-5.9,6.5-10.3,6.5l0,0
		c-5.8,0-10.6-4.4-11.3-10.1l-5.6-3.2c-2.9,0.3-4.9,3-4.6,5.8c0.3,2.6,2.5,4.6,5.1,4.6l0,0c0.6,0,1.1-0.1,1.6-0.3
		c0.5-0.2,1.1-0.1,1.6,0.2c0.5,0.3,0.8,0.8,0.9,1.3l0.3,1.5c0.1,1.1,0.3,2.1,0.5,3.2c0.7,3,2,5.8,3.8,8.3c0.2,0.3,0.5,0.7,0.7,1
		l0.2,0.2c0.7,0.9,1.6,1.8,2.4,2.6l0.3,0.3l0.8,0.7l0.3,0.2c0.6,0.4,1,0.8,1.5,1l0.6,0.4l0.7,0.4l0.8,0.4l0.6,0.3
		c0.4,0.2,0.9,0.4,1.4,0.6l0.5,0.2c0.4,0.2,0.8,0.3,1.2,0.4l0.5,0.2c0.5,0.1,1,0.3,1.6,0.4h0.4c0.4,0,0.9,0.1,1.4,0.2h0.5
		c0.6,0,1.2,0.1,1.8,0c0.5-0.1,1.2,0,1.7,0h0.5L257.5,187.6z M277.7,170.6L277.7,170.6z M265.7,148.3c-4.1-0.2-7.6,3-7.9,7.1
		c-0.2,4.1,3,7.6,7.1,7.9c0.3,0,0.5,0,0.8,0l0,0c4.1,0.2,7.6-3,7.9-7.1c0.2-4.1-3-7.6-7.1-7.9C266.2,148.3,265.9,148.3,265.7,148.3z
		 M243.3,148.3c-4.1,0-7.5,3.3-7.5,7.5c0,4.1,3.3,7.5,7.5,7.5c0,0,0,0,0,0l0,0c4.1,0,7.5-3.3,7.5-7.5
		C250.8,151.6,247.5,148.3,243.3,148.3C243.3,148.3,243.3,148.3,243.3,148.3z M228.2,150.2l4.2,2.4c1.4-4.9,5.8-8.3,11-8.3l0,0
		c2.9,0,5.8,1.1,7.9,3.2l-0.4-2.1c0-0.1,0-0.2,0-0.3c-0.1-1.1,0.7-2,1.8-2.1c1.1-0.1,2,0.7,2.1,1.8l1,5.6c0.5-1,1.2-1.8,1.9-2.6
		c2.1-2.1,5-3.3,8-3.3l0,0c5,0,9.5,3.3,10.9,8.2l3-1.9c0.8-3.5,1.3-7,1.6-10.6c0-5.3-1.4-10.5-4.3-15c-2.7,1.4-5.7,2.1-8.7,2.1
		c-0.5,2.2-1.6,4.1-3.2,5.6c-2.6,2.2-6,3.3-9.4,3.2c-4.8-0.4-9.4-1.8-13.6-4c-1.1,5.7-5,13-14.6,13h-0.3c0,0.2,0,0.4,0.1,0.6
		L228.2,150.2z M252.9,112.3c-6.9,0.2-13.4,3.1-18.2,8c-5.2,5.3-8,12.3-8,19.7c0,0.4,0,0.8,0,1.2c0.2,0,0.4,0,0.5,0h0.2
		c10.5,0,11.1-11.8,11.1-12.3c0-1.1,0.9-1.9,2-1.9c0.3,0,0.7,0.1,1,0.3c4.3,2.7,9.1,4.3,14.1,4.9c2.4,0.1,4.8-0.6,6.7-2.2
		c1.3-1.1,2-2.7,2.1-4.4v-0.3c0-0.5,0.2-1,0.6-1.4c0.4-0.4,1-0.6,1.5-0.6c2.7,0.3,5.5-0.2,8-1.3c-4.2-4.9-9.9-8.2-16.3-9.3
		c-3.2,2.8-6.1,6-8.6,9.5c-0.6,0.9-1.8,1.1-2.7,0.5c-0.9-0.6-1.1-1.8-0.5-2.7c0,0,0,0,0,0C248.3,117.3,250.5,114.7,252.9,112.3z"/>
	<path class="st0" d="M243.3,146.3c-5.2,0-9.4,4.2-9.4,9.4c0,5.2,4.2,9.4,9.4,9.4c5.2,0,9.4-4.2,9.4-9.4
		C252.7,150.6,248.5,146.3,243.3,146.3C243.3,146.3,243.3,146.3,243.3,146.3z"/>
	<path d="M243.3,167.1L243.3,167.1c-6.3,0-11.3-5.1-11.3-11.4c0-3,1.2-5.9,3.3-8c2.1-2.1,5-3.3,8-3.3l0,0c6.3,0,11.3,5.1,11.4,11.3
		S249.6,167.1,243.3,167.1C243.3,167.1,243.3,167.1,243.3,167.1L243.3,167.1z M243.3,148.3c-4.1,0-7.5,3.3-7.5,7.5
		c0,4.1,3.3,7.5,7.5,7.5c0,0,0,0,0,0l0,0c4.1,0,7.5-3.3,7.5-7.5C250.8,151.6,247.5,148.3,243.3,148.3
		C243.3,148.3,243.3,148.3,243.3,148.3z"/>
	<path class="st0" d="M265.7,146.3c-5.2,0-9.4,4.2-9.4,9.4c0,5.2,4.2,9.4,9.4,9.4c5.2,0,9.4-4.2,9.4-9.4S270.9,146.4,265.7,146.3
		C265.7,146.3,265.7,146.3,265.7,146.3z"/>
	<path d="M265.6,167.1L265.6,167.1c-6.3-0.3-11.1-5.6-10.9-11.8c0.2-5.9,5-10.6,10.9-10.9l0,0c6.3,0,11.3,5.1,11.3,11.4
		c0,3-1.2,5.9-3.3,8C271.5,165.9,268.6,167.1,265.6,167.1z M265.6,148.3c-4.1,0.2-7.3,3.7-7.1,7.9c0.2,3.8,3.3,6.9,7.1,7.1l0,0
		c4.1-0.2,7.3-3.7,7.1-7.9C272.5,151.5,269.5,148.5,265.6,148.3z"/>
	<path class="st0" d="M266,186.5l-0.7,0.4L266,186.5z"/>
	<path d="M265.3,188.9c-0.7,0-1.4-0.3-1.7-0.9c-0.2-0.3-0.2-0.6-0.2-0.9c0-0.7,0.4-1.3,1-1.7l0.6-0.4c0.9-0.5,2.1-0.2,2.7,0.7
		c0.2,0.3,0.3,0.6,0.3,1c0,0.7-0.4,1.3-1,1.7c-0.2,0.2-0.5,0.3-0.7,0.4C265.9,188.8,265.6,188.9,265.3,188.9z"/>
	<path class="st0" d="M235.1,180.8c0.8,1,1.7,1.9,2.6,2.8C236.8,182.7,235.9,181.8,235.1,180.8z"/>
	<path d="M237.8,185.5c-0.5,0-1-0.2-1.3-0.5l0,0c-0.5-0.4-0.9-0.9-1.3-1.3s-1-1.1-1.5-1.7l0,0c-0.7-0.8-0.5-2.1,0.3-2.7
		c0.8-0.7,2.1-0.5,2.7,0.3l0,0c0.4,0.5,0.8,1,1.2,1.4c0.4,0.5,0.8,0.8,1.2,1.2c0.8,0.7,0.9,1.9,0.1,2.7
		C238.9,185.3,238.3,185.5,237.8,185.5z"/>
	<path class="st0" d="M264.3,187.5l-0.6,0.3L264.3,187.5z"/>
	<path d="M263.7,189.7c-0.8,0-1.4-0.4-1.8-1.1c-0.1-0.3-0.2-0.5-0.2-0.8c0-0.8,0.4-1.5,1.1-1.8l0.5-0.3c1-0.5,2.1-0.1,2.6,0.9
		c0,0,0,0,0,0c0.1,0.3,0.2,0.6,0.2,0.9c0,0.7-0.4,1.4-1.1,1.7H265l-0.4,0.2C264.3,189.6,264,189.6,263.7,189.7z"/>
	<path class="st0" d="M272.4,181.1l-0.7,0.8L272.4,181.1z"/>
	<path d="M271.7,183.8c-1.1,0-1.9-0.9-1.9-1.9c0-0.5,0.2-1,0.5-1.3l0.6-0.7c0.7-0.8,1.9-0.9,2.7-0.3c0.8,0.7,0.9,1.9,0.3,2.7l0,0
		l-0.8,0.9C272.7,183.6,272.2,183.8,271.7,183.8z"/>
	<path class="st0" d="M272.8,180.6c0.2-0.3,0.5-0.6,0.7-0.9l0,0C273.3,180,273,180.3,272.8,180.6z"/>
	<path d="M272.8,182.5c-0.4,0-0.9-0.1-1.2-0.4c-0.8-0.7-1-1.9-0.3-2.7c0,0,0,0,0,0c0.2-0.3,0.4-0.5,0.6-0.8c0.6-0.9,1.8-1,2.7-0.4
		c0.1,0.1,0.2,0.1,0.2,0.2c0.7,0.7,0.8,1.7,0.2,2.5l-0.7,0.9C273.9,182.3,273.4,182.5,272.8,182.5z"/>
	<path class="st0" d="M267.9,185.2l-1,0.7L267.9,185.2z"/>
	<path d="M266.9,187.9c-1.1,0-1.9-0.9-1.9-1.9c0-0.7,0.3-1.3,0.9-1.6l1-0.7c0.9-0.6,2.1-0.4,2.7,0.4c0.2,0.3,0.4,0.7,0.4,1.1
		c0,0.6-0.3,1.2-0.8,1.6c-0.4,0.3-0.7,0.5-1.1,0.8C267.7,187.8,267.3,187.9,266.9,187.9z"/>
	<path class="st0" d="M270,183.6c0.4-0.4,0.9-0.8,1.3-1.2C270.8,182.8,270.4,183.2,270,183.6z"/>
	<path d="M270,185.5c-1.1,0-1.9-0.9-1.9-1.9c0-0.5,0.2-1.1,0.6-1.4c0.4-0.4,0.8-0.8,1.2-1.1c0.8-0.8,2-0.8,2.7,0
		c0.4,0.4,0.6,0.9,0.6,1.4c0,0.5-0.2,1-0.5,1.3l-1.4,1.3C270.9,185.4,270.5,185.6,270,185.5z"/>
	<path class="st0" d="M269.4,184.1l-0.7,0.6L269.4,184.1z"/>
	<path d="M268.7,186.6c-0.6,0-1.2-0.3-1.5-0.7c-0.3-0.3-0.4-0.8-0.4-1.2c0-0.6,0.3-1.2,0.7-1.5l0.7-0.5c0.8-0.7,2-0.6,2.7,0.2
		c0.3,0.3,0.4,0.8,0.4,1.2c0,0.6-0.2,1.1-0.7,1.5l-0.8,0.7C269.5,186.5,269.1,186.6,268.7,186.6z"/>
	<path class="st0" d="M246.1,188.6l-0.6-0.2L246.1,188.6z"/>
	<path d="M245.4,190.4l0.6-1.8L245.4,190.4l0.6-1.8L245.4,190.4l-0.7-0.2c-0.8-0.3-1.3-1-1.3-1.8c0-0.2,0.1-0.5,0.1-0.7
		c0.4-1,1.5-1.5,2.5-1.1l0.5,0.2L245.4,190.4z"/>
	<path class="st0" d="M240.9,186c-0.5-0.3-1-0.7-1.4-1C239.9,185.4,240.4,185.7,240.9,186z"/>
	<path d="M240.9,187.9c-0.4,0-0.7-0.1-1-0.3l-0.8-0.5l-0.8-0.6c-0.9-0.7-1-1.9-0.4-2.7s1.9-1,2.7-0.4l0,0l0.6,0.5l0.7,0.5
		c0.9,0.6,1.1,1.8,0.6,2.7C242.2,187.6,241.6,187.9,240.9,187.9z"/>
	<path class="st0" d="M250,189.6h-0.4H250z"/>
	<path d="M250,191.5h-0.3l0.3-1.9l-0.5,1.9h-0.3c-0.9-0.2-1.6-1-1.6-1.9c0-0.1,0-0.2,0-0.3c0.2-1.1,1.2-1.7,2.3-1.6c0,0,0,0,0,0h0.4
		c0.9,0.2,1.6,1,1.6,1.9C251.9,190.7,251,191.5,250,191.5L250,191.5z"/>
	<path class="st0" d="M251.9,189.9h-0.5H251.9z"/>
	<path d="M251.9,191.8h-0.2h-0.5c-1-0.1-1.8-0.9-1.8-1.9c0,0,0-0.1,0-0.2c0.1-1,1-1.8,2.1-1.7h0.5c1,0.1,1.8,0.9,1.8,1.9l0,0
		C253.8,190.9,253,191.8,251.9,191.8z"/>
	<path class="st0" d="M242.4,186.9l-0.8-0.4L242.4,186.9z"/>
	<path d="M242.4,188.8c-0.3,0-0.6-0.1-0.9-0.2l-0.5-0.3l-0.3-0.2l0,0c-1-0.4-1.5-1.5-1.1-2.5s1.5-1.5,2.5-1.1
		c0.2,0.1,0.3,0.2,0.5,0.3l0,0l0.3,0.2l0.4,0.3c0.9,0.5,1.3,1.7,0.7,2.6C243.6,188.5,243,188.8,242.4,188.8L242.4,188.8z"/>
	<path class="st0" d="M243.9,187.7l-0.6-0.3L243.9,187.7z"/>
	<path d="M243.9,189.6c-0.3,0-0.6-0.1-0.8-0.2l-0.5-0.3l-0.2-0.1c-0.9-0.5-1.3-1.7-0.8-2.6c0.5-0.9,1.6-1.3,2.5-0.8l0.6,0.3
		c0.7,0.3,1.1,1,1.1,1.7c0,0.3,0,0.6-0.2,0.8C245.3,189.2,244.7,189.6,243.9,189.6z"/>
	<path class="st0" d="M247.8,189.1l-0.5-0.2L247.8,189.1z"/>
	<path d="M247.8,191c-0.2,0-0.3,0-0.5,0l-0.4-0.1c-0.9-0.3-1.4-1-1.5-1.9c0-0.2,0-0.4,0-0.5c0.3-1,1.3-1.6,2.3-1.3l0.5,0.1
		c0.9,0.2,1.5,1,1.4,1.9c0,0.2,0,0.3,0,0.5C249.4,190.5,248.6,191.1,247.8,191z"/>
	<path class="st0" d="M258.1,189.5h-0.3H258.1z"/>
	<path d="M257.9,191.5c-1.1,0-1.9-0.9-1.9-1.9c0-0.9,0.6-1.8,1.6-1.9c1.1-0.2,2.1,0.5,2.4,1.6c0,0.1,0,0.3,0,0.4
		c0.1,0.9-0.6,1.6-1.4,1.8h-0.3L257.9,191.5z"/>
	<path class="st0" d="M262.2,188.4l-0.6,0.2L262.2,188.4z"/>
	<path d="M261.8,190.5c-0.9,0.1-1.6-0.5-1.9-1.3c-0.1-0.2-0.1-0.5-0.1-0.7c0-0.8,0.5-1.5,1.2-1.7l0.5-0.2c1-0.4,2.1,0.1,2.5,1.1
		c0,0,0,0,0,0c0.1,0.2,0.1,0.4,0.1,0.7c0,0.8-0.5,1.5-1.3,1.8l-0.4,0.2C262.2,190.4,262,190.5,261.8,190.5z"/>
	<path class="st0" d="M260.4,189l-0.5,0.2L260.4,189z"/>
	<path d="M259.9,191.1c-0.9,0-1.7-0.6-1.9-1.5c0-0.2,0-0.3,0-0.5c0-0.9,0.6-1.7,1.5-1.9h0.3l0.7,1.8l0.4,1.9l-0.4,0.1
		C260.2,191.1,260,191.1,259.9,191.1z"/>
	<path d="M253.9,191.8c-1.1,0-1.9-0.9-1.9-1.9c0-1.1,0.9-1.9,1.9-1.9l0,0c1.1,0,1.9,0.9,1.9,1.9C255.8,191,254.9,191.8,253.9,191.8z
		"/>
	<path class="st0" d="M234.9,180.6c-0.3-0.3-0.5-0.7-0.8-1C234.5,179.9,234.7,180.2,234.9,180.6z"/>
	<path d="M234.9,182.5c-0.6,0-1.2-0.3-1.5-0.7l-0.4-0.6c-0.1-0.2-0.3-0.4-0.4-0.6c-0.6-0.9-0.4-2.1,0.5-2.7c0.9-0.6,2.1-0.4,2.7,0.5
		l0.4,0.5l0.3,0.4l0,0c0.7,0.8,0.5,2.1-0.3,2.7C235.8,182.3,235.4,182.5,234.9,182.5L234.9,182.5z"/>
	<path class="st0" d="M256.2,189.8h-0.5H256.2z"/>
	<path d="M255.8,191.8c-1.1,0-2-0.8-2-1.9c0-1.1,0.8-2,1.9-2h0.5c1.1-0.1,2,0.7,2.1,1.7v0.2c0,1-0.8,1.8-1.7,1.9h-0.6L255.8,191.8z"
		/>
	<path class="st0" d="M239,184.6l-0.9-0.7L239,184.6z"/>
	<path d="M239,186.6c-0.4,0-0.9-0.2-1.2-0.4l-0.9-0.8c-0.8-0.7-0.9-1.9-0.2-2.7c0.7-0.8,1.9-0.9,2.7-0.2l0.8,0.7
		c0.5,0.4,0.7,0.9,0.7,1.5c0,0.4-0.1,0.9-0.4,1.2C240.2,186.3,239.6,186.6,239,186.6z"/>
	<rect x="246.9" y="289.8" class="st2" width="196.6" height="195.7"/>
	<path d="M443.5,487.4H246.9c-1.1,0-1.9-0.9-1.9-1.9V289.8c0-1.1,0.9-1.9,1.9-1.9h196.6c1.1,0,1.9,0.9,1.9,1.9v195.7
		C445.5,486.6,444.6,487.4,443.5,487.4z M248.8,483.6h192.7V291.8H248.8L248.8,483.6z"/>
	<path d="M334.3,414.1c-0.5,0-1-0.2-1.4-0.6l-26.9-26.9c-0.8-0.8-0.8-2,0-2.7c0,0,0,0,0,0c0.8-0.8,2-0.8,2.7,0l25.5,25.5l47.3-48.6
		c0.7-0.8,2-0.8,2.7,0s0.8,2,0,2.7l-48.7,50C335.4,413.9,334.9,414.1,334.3,414.1L334.3,414.1z"/>
	<polygon points="388.1,234.1 388.1,289.8 443.8,289.8 	"/>
	<path d="M443.9,291.8h-55.8c-1.1,0-1.9-0.9-1.9-1.9v-55.7c0-1.1,0.9-1.9,1.9-2c0.5,0,1,0.2,1.4,0.6l55.7,55.7c0.8,0.8,0.8,2,0,2.7
		C444.9,291.5,444.4,291.8,443.9,291.8L443.9,291.8z M390.2,287.9h49.1l-49.1-49.1V287.9z"/>
</g>
</svg>
