<svg xmlns="http://www.w3.org/2000/svg" viewBox="0 0 253 253"><defs><style>.cls-1{fill:#804cfb;}</style></defs><title>irrevocable_ico</title><g id="Warstwa_3" data-name="Warstwa 3"><path class="cls-1" d="M192,158.93a10.94,10.94,0,0,1-7.74-3.2L154,125.48a1.5,1.5,0,0,1,2.13-2.12l30.24,30.25a7.94,7.94,0,1,0,11.23-11.23L142,86.74a1.5,1.5,0,0,1,2.13-2.12l55.63,55.64A10.94,10.94,0,0,1,192,158.93Z"/><path class="cls-1" d="M178.65,172.28a10.93,10.93,0,0,1-7.74-3.2l-30.25-30.25a1.51,1.51,0,0,1,0-2.12,1.49,1.49,0,0,1,2.12,0L173,167a7.94,7.94,0,0,0,11.23-11.23,1.51,1.51,0,0,1,0-2.12,1.49,1.49,0,0,1,2.12,0,10.94,10.94,0,0,1-7.73,18.67Z"/><path class="cls-1" d="M165.3,185.63a10.93,10.93,0,0,1-7.74-3.2l-30.25-30.25a1.51,1.51,0,0,1,0-2.12,1.49,1.49,0,0,1,2.12,0l30.25,30.25a7.94,7.94,0,1,0,11.23-11.23,1.51,1.51,0,0,1,0-2.12,1.49,1.49,0,0,1,2.12,0,10.94,10.94,0,0,1-7.73,18.67Z"/><path class="cls-1" d="M152,199a10.91,10.91,0,0,1-7.74-3.2l-8.55-8.55a1.5,1.5,0,0,1,2.12-2.12l8.55,8.55a7.94,7.94,0,0,0,11.23-11.23,1.5,1.5,0,0,1,2.12-2.12A10.94,10.94,0,0,1,152,199Z"/><path class="cls-1" d="M121.32,199.49a10.12,10.12,0,0,1-7.16-17.28,1.51,1.51,0,0,1,2.12,0,1.49,1.49,0,0,1,0,2.12,7.13,7.13,0,0,0,10.08,10.08,1.49,1.49,0,0,1,2.12,0,1.51,1.51,0,0,1,0,2.12A10.13,10.13,0,0,1,121.32,199.49Z"/><path class="cls-1" d="M109.13,187.29A10.12,10.12,0,0,1,102,170a1.49,1.49,0,0,1,2.12,0,1.51,1.51,0,0,1,0,2.12,7.12,7.12,0,1,0,10.07,10.07,1.51,1.51,0,0,1,2.12,0,1.49,1.49,0,0,1,0,2.12A10,10,0,0,1,109.13,187.29Z"/><path class="cls-1" d="M96.93,175.1a10.12,10.12,0,0,1-7.16-17.28,1.51,1.51,0,0,1,2.12,0,1.49,1.49,0,0,1,0,2.12A7.13,7.13,0,0,0,102,170a1.49,1.49,0,0,1,2.12,0,1.51,1.51,0,0,1,0,2.12A10.11,10.11,0,0,1,96.93,175.1Z"/><path class="cls-1" d="M84.74,162.9a10.12,10.12,0,0,1-7.16-17.27,1.5,1.5,0,0,1,2.12,2.12,7.11,7.11,0,0,0,0,10.07,7.12,7.12,0,0,0,10.07,0,1.51,1.51,0,0,1,2.12,0,1.49,1.49,0,0,1,0,2.12A10,10,0,0,1,84.74,162.9Z"/><path class="cls-1" d="M98,153.18a1.48,1.48,0,0,1-1.06-.44,1.51,1.51,0,0,1,0-2.12,7.11,7.11,0,0,0,0-10.07,7.12,7.12,0,0,0-10.07,0,1.5,1.5,0,0,1-2.12-2.12,10.12,10.12,0,0,1,14.31,0,10.1,10.1,0,0,1,0,14.31A1.45,1.45,0,0,1,98,153.18Z"/><path class="cls-1" d="M110.23,165.38a1.5,1.5,0,0,1-1.06-2.56,7.13,7.13,0,0,0-10.08-10.08,1.49,1.49,0,0,1-2.12,0,1.51,1.51,0,0,1,0-2.12,10.13,10.13,0,0,1,14.32,14.32A1.51,1.51,0,0,1,110.23,165.38Z"/><path class="cls-1" d="M122.42,177.57a1.48,1.48,0,0,1-1.06-.44,1.51,1.51,0,0,1,0-2.12,7.12,7.12,0,0,0,0-10.07,7.11,7.11,0,0,0-10.07,0,1.51,1.51,0,0,1-2.12,0,1.49,1.49,0,0,1,0-2.12,10.12,10.12,0,0,1,14.31,14.31A1.45,1.45,0,0,1,122.42,177.57Z"/><path class="cls-1" d="M134.62,189.77a1.5,1.5,0,0,1-1.06-2.56,7.13,7.13,0,0,0-10.08-10.08,1.49,1.49,0,0,1-2.12,0,1.51,1.51,0,0,1,0-2.12,10.13,10.13,0,0,1,14.32,14.32A1.53,1.53,0,0,1,134.62,189.77Z"/><path class="cls-1" d="M78.64,148.19a1.51,1.51,0,0,1-1.06-.44,1.49,1.49,0,0,1,0-2.12l7.2-7.2a1.5,1.5,0,0,1,2.12,2.12l-7.2,7.2A1.51,1.51,0,0,1,78.64,148.19Z"/><path class="cls-1" d="M90.83,160.38a1.48,1.48,0,0,1-1.06-.44,1.51,1.51,0,0,1,0-2.12l7.2-7.2a1.51,1.51,0,0,1,2.12,0,1.49,1.49,0,0,1,0,2.12l-7.2,7.2A1.45,1.45,0,0,1,90.83,160.38Z"/><path class="cls-1" d="M103,172.58A1.5,1.5,0,0,1,102,170l7.2-7.2a1.5,1.5,0,0,1,2.12,2.12l-7.2,7.2A1.51,1.51,0,0,1,103,172.58Z"/><path class="cls-1" d="M115.22,184.77a1.48,1.48,0,0,1-1.06-.44,1.51,1.51,0,0,1,0-2.12l7.2-7.2a1.51,1.51,0,0,1,2.12,0,1.49,1.49,0,0,1,0,2.12l-7.2,7.2A1.45,1.45,0,0,1,115.22,184.77Z"/><path class="cls-1" d="M127.42,197a1.5,1.5,0,0,1-1.06-2.56l7.2-7.2a1.49,1.49,0,0,1,2.12,0,1.51,1.51,0,0,1,0,2.12l-7.2,7.2A1.51,1.51,0,0,1,127.42,197Z"/><path class="cls-1" d="M114.87,106.78a22.05,22.05,0,0,1-15.64-6.46,5.15,5.15,0,0,1,0-7.29l25.55-25.55a1.5,1.5,0,1,1,2.12,2.12L101.35,95.15a2.13,2.13,0,0,0-.63,1.52,2.1,2.1,0,0,0,.63,1.52,19.14,19.14,0,0,0,27.05,0L142,84.62a1.5,1.5,0,0,1,2.13,2.12l-13.58,13.58A22.06,22.06,0,0,1,114.87,106.78Z"/><path class="cls-1" d="M76.41,152.06a1.51,1.51,0,0,1-1.06-.44L60.43,136.7a48,48,0,0,1,66.42-69.27,1.5,1.5,0,1,1-2,2.21,45,45,0,0,0-62.27,64.94l14.92,14.91a1.51,1.51,0,0,1-1.06,2.57Z"/><path class="cls-1" d="M191.51,135.88a1.5,1.5,0,0,1-1.06-2.56,45,45,0,1,0-63.63-63.63,1.5,1.5,0,0,1-2.13-2.12,48,48,0,1,1,67.88,67.87A1.53,1.53,0,0,1,191.51,135.88Z"/></g></svg>