<svg xmlns="http://www.w3.org/2000/svg" viewBox="0 0 500 500"><defs><style>.cls-1{fill:#fafafa;}.cls-2{fill:#404040;}.cls-3{fill:#804cfb;}</style></defs><title>its_safe_ico</title><g id="Warstwa_3" data-name="Warstwa 3"><rect class="cls-1" x="104.41" y="283.05" width="21.7" height="2" transform="translate(-167.09 164.7) rotate(-45)"/><rect class="cls-1" x="114.26" y="273.2" width="2" height="21.7" transform="translate(-167.08 164.67) rotate(-44.99)"/><path class="cls-1" d="M78.91,323a9.45,9.45,0,1,1,9.46-9.45A9.46,9.46,0,0,1,78.91,323Zm0-16.9a7.45,7.45,0,1,0,7.46,7.45A7.46,7.46,0,0,0,78.91,306.07Z"/><rect class="cls-1" x="104.41" y="338.31" width="21.7" height="2" transform="translate(-206.17 180.88) rotate(-45)"/><rect class="cls-1" x="114.26" y="328.46" width="2" height="21.7" transform="translate(-206.16 180.85) rotate(-44.99)"/><path class="cls-2" d="M207.86,219.44c0,1.89-3.94,3.42-8.8,3.42s-8.81-1.53-8.81-3.42v22.18l17.61-.86Z"/><path class="cls-3" d="M207.86,219.44c0-2.5-3.94-4.53-8.8-4.53s-8.81,2-8.81,4.53,3.94,4.54,8.81,4.54S207.86,222,207.86,219.44Z"/><path class="cls-3" d="M300.33,241.62V173.3a55,55,0,0,0-110.08,0V190s0-.05,0-.08c.1,1.86,4,3.35,8.79,3.35s8.68-1.49,8.78-3.35c0,0,0,.05,0,.08V173.3a37.43,37.43,0,0,1,74.86,0v68.32"/><path class="cls-2" d="M285.68,241.62H148.49v127.1a13,13,0,0,0,13,13H329.07a13,13,0,0,0,13-13V241.62H304.68"/><path class="cls-1" d="M333.26,382.74H157.32a9.84,9.84,0,0,1-9.83-9.83V241.62a1,1,0,0,1,1-1h193.6a1,1,0,0,1,1,1V372.91A9.84,9.84,0,0,1,333.26,382.74ZM149.49,242.62V372.91a7.84,7.84,0,0,0,7.83,7.83H333.26a7.84,7.84,0,0,0,7.83-7.83V242.62Z"/><path class="cls-1" d="M342.09,359.11H148.49a1,1,0,0,1,0-2h193.6a1,1,0,1,1,0,2Z"/><path class="cls-3" d="M269.73,333l-16.25-27.81a16.74,16.74,0,1,0-16.38,0L220.85,333Z"/><path class="cls-1" d="M269.73,334H220.85a1,1,0,0,1-.87-.51,1,1,0,0,1,0-1l15.76-26.95a17.74,17.74,0,1,1,19.1,0l15.76,26.95a1,1,0,0,1,0,1A1,1,0,0,1,269.73,334Zm-47.14-2H268l-15.37-26.3a1,1,0,0,1-.11-.77,1,1,0,0,1,.48-.61,15.74,15.74,0,1,0-15.4,0,1,1,0,0,1,.37,1.38Z"/><path class="cls-1" d="M190.25,242.62a1,1,0,0,1-1-1V219.44a1,1,0,0,1,2,0v22.18A1,1,0,0,1,190.25,242.62Z"/><path class="cls-1" d="M207.86,241.77a1,1,0,0,1-1-1V219.44a1,1,0,0,1,2,0v21.33A1,1,0,0,1,207.86,241.77Z"/><path class="cls-1" d="M300.33,242.62a1,1,0,0,1-1-1V173.3a54,54,0,0,0-108.08,0v16.42a.68.68,0,0,1,0,.14c0,.81,2.83,2.4,7.79,2.4s7.74-1.59,7.78-2.4a.68.68,0,0,1,0-.14V173.3a38.43,38.43,0,0,1,76.86,0v68.32a1,1,0,0,1-2,0V173.3a36.43,36.43,0,0,0-72.86,0V190a1,1,0,0,1-.08.38c-.57,2.55-5.21,3.89-9.72,3.89s-9.16-1.34-9.73-3.89a1,1,0,0,1-.08-.38V173.3a56,56,0,0,1,112.08,0v68.32A1,1,0,0,1,300.33,242.62Z"/><path class="cls-1" d="M199.06,225c-5.5,0-9.81-2.43-9.81-5.54s4.31-5.53,9.81-5.53,9.8,2.43,9.8,5.53S204.55,225,199.06,225Zm0-9.07c-4.6,0-7.81,1.86-7.81,3.53s3.21,3.54,7.81,3.54,7.8-1.87,7.8-3.54S203.65,215.91,199.06,215.91Z"/><path class="cls-1" d="M363.82,212.31c-21.77,0-39.06-20.15-39.79-21a1,1,0,0,1,0-1.29c.73-.86,18-21,39.79-21s39.06,20.15,39.78,21a1,1,0,0,1,0,1.29C402.88,192.16,385.58,212.31,363.82,212.31Zm-37.69-21.66c3.18,3.47,19,19.66,37.69,19.66s34.51-16.19,37.68-19.65c-3.17-3.47-19-19.66-37.68-19.66S329.31,187.19,326.13,190.65Z"/><circle class="cls-3" cx="363.82" cy="190.65" r="12.24"/><path class="cls-1" d="M402.84,253c-15,0-27-13.9-27.47-14.49a1,1,0,0,1,0-1.29c.5-.6,12.43-14.49,27.47-14.49s27,13.89,27.47,14.49a1,1,0,0,1,0,1.29C429.8,239.13,417.88,253,402.84,253Zm-25.36-15.14c2.54,2.73,13,13.14,25.36,13.14s22.82-10.41,25.36-13.14c-2.54-2.72-13.05-13.13-25.36-13.13S380,235.17,377.48,237.89Z"/><circle class="cls-3" cx="402.84" cy="237.89" r="8.37"/><path class="cls-1" d="M363.82,203.89a13.24,13.24,0,1,1,13.23-13.24A13.26,13.26,0,0,1,363.82,203.89Zm0-24.47a11.24,11.24,0,1,0,11.23,11.23A11.25,11.25,0,0,0,363.82,179.42Z"/><path class="cls-1" d="M402.84,247.27a9.38,9.38,0,1,1,9.37-9.38A9.39,9.39,0,0,1,402.84,247.27Zm0-16.75a7.38,7.38,0,1,0,7.37,7.37A7.39,7.39,0,0,0,402.84,230.52Z"/></g></svg>