<?xml version="1.0" encoding="utf-8"?>
<!-- Generator: Adobe Illustrator 16.0.0, SVG Export Plug-In . SVG Version: 6.00 Build 0)  -->
<!DOCTYPE svg PUBLIC "-//W3C//DTD SVG 1.1//EN" "http://www.w3.org/Graphics/SVG/1.1/DTD/svg11.dtd">
<svg version="1.1" id="Layer_1" xmlns="http://www.w3.org/2000/svg" xmlns:xlink="http://www.w3.org/1999/xlink" x="0px" y="0px"
	 width="50.399px" height="66px" viewBox="0 0 50.399 66" enable-background="new 0 0 50.399 66" xml:space="preserve">
<path fill="#FFFFFF" d="M50.399,27.2c-0.199-1.6-1.3-2.1-2.399-2L46.8,24h-36.9C9.3,23.2,8,22.8,6.8,23.7c-1.3,1.7-0.1,3.6,1.5,3.6
	c0.7,0,1.3-0.3,1.6-0.8H45.7l0.5,0.5c-0.101,0.601,0.1,1.2,0.6,1.7C47.899,29.8,50.1,29.3,50.399,27.2"/>
<path fill="#FFFFFF" d="M4.1,42.2H39.2c0.6,0.8,1.899,1.2,3.1,0.3c1.3-1.7,0.1-3.6-1.5-3.6c-0.7,0-1.3,0.3-1.6,0.8h-34l-0.5-0.5
	c0.1-1-0.4-2.1-2-2.4C0.6,37.101,0.1,39.2,1.2,40.4C1.6,40.9,2.2,41,2.8,41L4.1,42.2z"/>
<path fill="#FFFFFF" d="M6.6,31.8l-4.1-4.1V23l4.1-4.1h37.8c0.601,0.8,1.9,1.2,3.101,0.3c1.3-1.7,0.1-3.6-1.5-3.6
	c-0.7,0-1.3,0.3-1.601,0.8H5.6L0,21.9v6.7l5.6,5.6l36.8-0.1l4.101,4.1v5l-4.101,4.1H7.7C7.1,46.5,5.8,46.101,4.6,47
	c-1.3,1.7-0.1,3.601,1.5,3.601c0.7,0,1.3-0.301,1.601-0.801h35.8l5.6-5.6v-7.1L43.5,31.5L6.6,31.8z"/>
<path fill="#FFFFFF" d="M12.8,3.601C14,4.5,15.3,4.2,15.899,3.3h17.9c0.6,0.801,1.9,1.2,3.1,0.301C38.3,1.9,37.1,0,35.5,0
	c-0.7,0-1.3,0.3-1.601,0.8h-18C15.5,0.3,15,0,14.3,0C12.7,0,11.5,1.9,12.8,3.601"/>
<path fill="#FFFFFF" d="M5.899,11.2c1.2,0.9,2.5,0.6,3.101-0.3h31.7c0.6,0.8,1.899,1.2,3.1,0.3c1.3-1.7,0.1-3.6-1.5-3.6
	c-0.7,0-1.3,0.3-1.6,0.8H9c-0.4-0.5-1-0.8-1.601-0.8C5.8,7.601,4.6,9.5,5.899,11.2"/>
<path fill="#FFFFFF" d="M41.1,54.8c-1.2-0.899-2.5-0.6-3.1,0.301H12.2C11.6,54.3,10.3,53.9,9.1,54.8C7.8,56.5,9,58.4,10.6,58.4
	c0.7,0,1.3-0.3,1.601-0.8H38c0.399,0.5,1,0.8,1.6,0.8C41.2,58.4,42.399,56.5,41.1,54.8"/>
<path fill="#FFFFFF" d="M34.2,62.4C33,61.5,31.7,61.8,31.1,62.7H19.7c-0.601-0.7-0.9-1.1-2.601-0.6C15.399,63.9,16.6,66,18.3,66
	c0.7,0,1-0.3,1.3-0.8H31c0.399,0.5,1,0.8,1.6,0.8C34.3,65.9,35.399,64.101,34.2,62.4"/>
</svg>
