<?xml version="1.0" encoding="utf-8"?>
<!-- Generator: Adobe Illustrator 16.0.0, SVG Export Plug-In . SVG Version: 6.00 Build 0)  -->
<!DOCTYPE svg PUBLIC "-//W3C//DTD SVG 1.1//EN" "http://www.w3.org/Graphics/SVG/1.1/DTD/svg11.dtd">
<svg version="1.1" xmlns="http://www.w3.org/2000/svg" xmlns:xlink="http://www.w3.org/1999/xlink" x="0px" y="0px" width="431px"
	 height="440px" viewBox="0 0 431 440" enable-background="new 0 0 431 440" xml:space="preserve">
<g id="Layer_2" display="none">
	<ellipse display="inline" cx="431" cy="269" rx="710.5" ry="333.5"/>
</g>
<g id="Layer_1">
	<path fill="none" stroke="#FFFFFF" stroke-width="1.68" stroke-miterlimit="10" d="M277.753,426.125
		c71.9-20.8,128.4-78.109,146.4-156.22c26.5-114.61-45.101-229.02-159.8-255.52c-114.801-26.5-229.301,44.9-255.801,159.61
		c-26.5,114.72,42.4,228.53,157.2,255.03"/>
	<path fill="#FFFFFF" d="M275.193,425.506c-0.3,1.5,0.6,2.909,2,3.3c1.5,0.31,2.9-0.59,3.3-2c0.3-1.5-0.6-2.89-2-3.3
		C276.993,423.115,275.493,424.006,275.193,425.506"/>
	<path fill="#FFFFFF" d="M163.233,428.386c-0.301,1.5,0.6,2.909,2,3.3c1.5,0.31,2.898-0.59,3.3-2c0.3-1.5-0.601-2.891-2-3.3
		C165.033,425.995,163.533,426.886,163.233,428.386"/>
</g>
</svg>
