<?xml version="1.0" encoding="utf-8"?>
<!-- Generator: Adobe Illustrator 16.0.0, SVG Export Plug-In . SVG Version: 6.00 Build 0)  -->
<!DOCTYPE svg PUBLIC "-//W3C//DTD SVG 1.1//EN" "http://www.w3.org/Graphics/SVG/1.1/DTD/svg11.dtd">
<svg version="1.1" xmlns="http://www.w3.org/2000/svg" xmlns:xlink="http://www.w3.org/1999/xlink" x="0px" y="0px" width="431px"
	 height="440px" viewBox="0 0 431 440" enable-background="new 0 0 431 440" xml:space="preserve">
<g id="Layer_2" display="none">
	<ellipse display="inline" cx="431" cy="269" rx="710.5" ry="333.5"/>
</g>
<g id="Layer_1">
	<path fill="none" stroke="#FFFFFF" stroke-width="1.68" stroke-miterlimit="10" d="M154.804,14.485
		c-71.9,20.8-128.4,78.109-146.4,156.22c-26.5,114.61,45.101,229.02,159.8,255.52c114.801,26.5,229.301-44.9,255.801-159.61
		c26.5-114.72-42.4-228.53-157.2-255.03"/>
	<path fill="#FFFFFF" d="M157.364,15.104c0.3-1.5-0.6-2.909-2-3.3c-1.5-0.31-2.9,0.59-3.3,2c-0.3,1.5,0.6,2.89,2,3.3
		C155.564,17.495,157.064,16.604,157.364,15.104"/>
	<path fill="#FFFFFF" d="M269.324,12.224c0.301-1.5-0.6-2.909-2-3.3c-1.5-0.31-2.898,0.59-3.3,2c-0.3,1.5,0.601,2.891,2,3.3
		C267.524,14.615,269.024,13.724,269.324,12.224"/>
</g>
</svg>
