<?xml version="1.0" encoding="utf-8"?>
<!-- Generator: Adobe Illustrator 16.0.0, SVG Export Plug-In . SVG Version: 6.00 Build 0)  -->
<!DOCTYPE svg PUBLIC "-//W3C//DTD SVG 1.1//EN" "http://www.w3.org/Graphics/SVG/1.1/DTD/svg11.dtd">
<svg version="1.1" xmlns="http://www.w3.org/2000/svg" xmlns:xlink="http://www.w3.org/1999/xlink" x="0px" y="0px"
	 width="364.481px" height="1211.94px" viewBox="0 0 364.481 1211.94" enable-background="new 0 0 364.481 1211.94"
	 xml:space="preserve">
<g id="Layer_2" display="none">
	<rect x="-1503.085" y="-156.957" display="inline" fill="#9FF1FF" width="3338.971" height="1536.672"/>
</g>
<g id="Layer_1">
	<rect x="-206.12" y="-75.601" fill-rule="evenodd" clip-rule="evenodd" fill="none" width="768" height="1365.96"/>
	<g>
		<defs>
			<rect id="SVGID_1_" x="12.16" y="7.199" width="345.716" height="510.839"/>
		</defs>
		<clipPath id="SVGID_2_">
			<use xlink:href="#SVGID_1_"  overflow="visible"/>
		</clipPath>
		<g clip-path="url(#SVGID_2_)">
			<defs>
				<rect id="SVGID_3_" x="12.239" y="7.52" width="345.637" height="510.254"/>
			</defs>
			<clipPath id="SVGID_4_">
				<use xlink:href="#SVGID_3_"  overflow="visible"/>
			</clipPath>
			<polygon clip-path="url(#SVGID_4_)" fill="#FFFFFF" points="14.025,219.36 14.025,176.581 14.246,167.909 14.909,159.287 
				17.483,142.51 21.68,126.321 27.494,110.785 34.633,95.991 43.245,82.078 53.033,69.124 64.073,57.126 76.215,46.234 
				89.39,36.444 103.52,28.053 118.458,20.915 134.129,15.247 150.542,11.051 167.531,8.55 176.23,7.887 184.988,7.667 
				193.747,7.887 202.437,8.55 219.426,11.125 235.761,15.32 251.51,20.987 266.448,28.127 280.508,36.591 293.679,46.306 
				305.825,57.2 316.868,69.197 326.651,82.152 335.263,96.138 342.4,110.863 348.22,126.389 352.418,142.588 354.985,159.365 
				355.649,167.987 355.874,176.659 355.874,515.088 354.176,515.088 354.176,176.668 354.176,176.688 353.951,168.045 
				353.951,168.094 353.297,159.521 353.307,159.589 350.738,142.891 350.758,142.969 346.579,126.858 346.608,126.946 
				340.828,111.498 340.857,111.566 333.75,96.918 333.789,96.993 325.226,83.078 325.274,83.145 315.53,70.255 315.589,70.318 
				304.604,58.38 304.653,58.438 292.576,47.599 292.635,47.651 279.531,37.984 279.6,38.028 265.608,29.606 265.687,29.645 
				250.816,22.541 250.895,22.573 235.224,16.934 235.302,16.958 219.045,12.783 219.133,12.8 202.212,10.237 202.28,10.244 
				193.64,9.584 193.679,9.587 184.959,9.368 185.008,9.368 176.289,9.587 176.338,9.584 167.697,10.244 167.756,10.237 
				150.835,12.727 150.923,12.709 134.598,16.884 134.676,16.86 119.073,22.5 119.151,22.467 104.288,29.572 104.355,29.536 
				90.296,37.884 90.369,37.835 77.261,47.576 77.321,47.526 65.238,58.365 65.296,58.307 54.313,70.245 54.365,70.182 
				44.625,83.072 44.67,83.006 36.103,96.848 36.146,96.77 29.041,111.488 29.072,111.419 23.288,126.877 23.314,126.79 
				19.141,142.901 19.157,142.813 16.595,159.511 16.602,159.453 15.942,168.016 15.945,167.977 15.726,176.62 15.726,176.59 
				15.726,219.36 			"/>
		</g>
		<g clip-path="url(#SVGID_2_)">
			<defs>
				<rect id="SVGID_5_" x="12.239" y="7.52" width="345.637" height="510.254"/>
			</defs>
			<clipPath id="SVGID_6_">
				<use xlink:href="#SVGID_5_"  overflow="visible"/>
			</clipPath>
			<path clip-path="url(#SVGID_6_)" fill="#FFFFFF" d="M12.239,219.311c0,1.514,1.288,2.803,2.811,2.803
				c1.523,0,2.812-1.289,2.812-2.803c0-1.523-1.288-2.813-2.812-2.813C13.41,216.616,12.239,217.788,12.239,219.311"/>
		</g>
		<g clip-path="url(#SVGID_2_)">
			<defs>
				<rect id="SVGID_7_" x="12.239" y="7.52" width="345.637" height="510.254"/>
			</defs>
			<clipPath id="SVGID_8_">
				<use xlink:href="#SVGID_7_"  overflow="visible"/>
			</clipPath>
			<path clip-path="url(#SVGID_8_)" fill="#FFFFFF" d="M352.252,514.961c0,1.523,1.289,2.813,2.812,2.813
				c1.523,0,2.813-1.289,2.813-2.813s-1.289-2.813-2.813-2.813C353.541,512.266,352.252,513.438,352.252,514.961"/>
		</g>
	</g>
	<rect x="-206.12" y="-75.601" fill-rule="evenodd" clip-rule="evenodd" fill="none" width="768.001" height="1365.96"/>
	<g>
		<defs>
			<rect id="SVGID_9_" x="12.16" y="694.679" width="345.716" height="510.838"/>
		</defs>
		<clipPath id="SVGID_10_">
			<use xlink:href="#SVGID_9_"  overflow="visible"/>
		</clipPath>
		<g clip-path="url(#SVGID_10_)">
			<defs>
				<rect id="SVGID_11_" x="12.239" y="695" width="345.637" height="510.254"/>
			</defs>
			<clipPath id="SVGID_12_">
				<use xlink:href="#SVGID_11_"  overflow="visible"/>
			</clipPath>
			<polygon clip-path="url(#SVGID_12_)" fill="#FFFFFF" points="15.726,993.483 15.726,1036.253 15.726,1036.234 15.945,1044.875 
				15.942,1044.827 16.602,1053.401 16.595,1053.333 19.157,1070.03 19.141,1069.952 23.314,1086.064 23.288,1085.976 
				29.072,1101.424 29.041,1101.356 36.145,1116.002 36.103,1115.924 44.67,1129.771 44.626,1129.703 54.366,1142.67 
				54.313,1142.602 65.296,1154.544 65.238,1154.486 77.321,1165.325 77.258,1165.266 90.366,1174.934 90.299,1174.895 
				104.358,1183.312 104.288,1183.273 119.151,1190.381 119.073,1190.352 134.676,1195.987 134.588,1195.967 150.923,1200.069 
				150.845,1200.049 167.756,1202.607 167.697,1202.607 176.338,1203.261 176.289,1203.261 185.008,1203.476 184.959,1203.476 
				193.679,1203.261 193.64,1203.261 202.28,1202.607 202.212,1202.607 219.133,1200.049 219.045,1200.069 235.302,1195.967 
				235.224,1195.987 250.895,1190.352 250.816,1190.381 265.687,1183.273 265.608,1183.312 279.6,1174.895 279.531,1174.934 
				292.635,1165.266 292.576,1165.325 304.653,1154.486 304.604,1154.544 315.589,1142.602 315.53,1142.67 325.274,1129.703 
				325.226,1129.771 333.799,1115.924 333.75,1116.002 340.857,1101.288 340.828,1101.356 346.608,1085.898 346.579,1085.986 
				350.758,1069.874 350.738,1069.961 353.307,1053.264 353.297,1053.323 353.951,1044.827 353.951,1044.875 354.176,1036.234 
				354.176,1036.253 354.176,697.828 355.874,697.828 355.874,1036.263 355.649,1044.934 354.985,1053.489 352.418,1070.264 
				348.22,1086.455 342.4,1101.991 335.263,1116.784 326.651,1130.699 316.868,1143.725 305.825,1155.726 293.679,1166.614 
				280.508,1176.331 266.448,1184.796 251.51,1191.934 235.761,1197.598 219.426,1201.718 202.437,1204.296 193.747,1204.96 
				184.988,1205.185 176.23,1204.96 167.531,1204.296 150.542,1201.718 134.139,1197.598 118.458,1191.934 103.519,1184.796 
				89.39,1176.331 76.216,1166.614 64.073,1155.726 53.032,1143.725 43.245,1130.699 34.633,1116.784 27.494,1102.059 
				21.68,1086.533 17.483,1070.333 14.909,1053.557 14.246,1044.934 14.025,1036.263 14.025,993.483 			"/>
		</g>
		<g clip-path="url(#SVGID_10_)">
			<defs>
				<rect id="SVGID_13_" x="12.239" y="695" width="345.637" height="510.254"/>
			</defs>
			<clipPath id="SVGID_14_">
				<use xlink:href="#SVGID_13_"  overflow="visible"/>
			</clipPath>
			<path clip-path="url(#SVGID_14_)" fill="#FFFFFF" d="M12.239,993.463c0-1.514,1.288-2.802,2.811-2.802
				c1.523,0,2.812,1.288,2.812,2.802c0,1.523-1.288,2.813-2.812,2.813C13.41,996.276,12.239,994.987,12.239,993.463"/>
		</g>
		<g clip-path="url(#SVGID_10_)">
			<defs>
				<rect id="SVGID_15_" x="12.239" y="695" width="345.637" height="510.254"/>
			</defs>
			<clipPath id="SVGID_16_">
				<use xlink:href="#SVGID_15_"  overflow="visible"/>
			</clipPath>
			<path clip-path="url(#SVGID_16_)" fill="#FFFFFF" d="M352.252,697.811c0-1.522,1.289-2.812,2.812-2.812
				c1.523,0,2.813,1.289,2.813,2.812s-1.289,2.812-2.813,2.812C353.541,700.623,352.252,699.333,352.252,697.811"/>
		</g>
	</g>
	<rect x="-206.12" y="-75.601" fill-rule="evenodd" clip-rule="evenodd" fill="none" width="768.001" height="1365.96"/>
	<g>
		<defs>
			<rect id="SVGID_17_" x="-206.12" y="-75.601" width="768" height="1365.96"/>
		</defs>
		<clipPath id="SVGID_18_">
			<use xlink:href="#SVGID_17_"  overflow="visible"/>
		</clipPath>
		<g clip-path="url(#SVGID_18_)">
			<defs>
				<rect id="SVGID_19_" x="12.16" y="416.639" width="207.716" height="179.641"/>
			</defs>
			<clipPath id="SVGID_20_">
				<use xlink:href="#SVGID_19_"  overflow="visible"/>
			</clipPath>
			<polygon clip-path="url(#SVGID_20_)" fill="#FFFFFF" points="216.773,594.145 119.455,594.145 108.72,593.583 98.201,592.063 
				88.159,589.493 78.441,585.956 69.207,581.548 60.533,576.322 52.423,570.3 44.955,563.555 38.129,556.173 32.104,548.143 
				26.805,539.55 22.386,530.395 18.852,520.841 16.281,510.804 14.676,500.448 14.114,489.79 14.114,419.826 15.755,419.826 
				15.755,489.768 15.754,489.724 16.312,500.319 16.303,500.238 17.896,510.514 17.881,510.436 20.431,520.394 20.405,520.312 
				23.911,529.79 23.881,529.715 28.263,538.796 28.223,538.722 33.481,547.251 33.439,547.188 39.415,555.154 39.362,555.09 
				46.136,562.418 46.082,562.366 53.492,569.057 53.432,569.014 61.48,574.984 61.414,574.942 70.02,580.114 69.951,580.083 
				79.114,584.458 79.04,584.426 88.682,587.931 88.604,587.911 98.565,590.459 98.479,590.449 108.917,591.957 108.843,591.947 
				119.519,592.509 119.476,592.509 216.773,592.509 			"/>
			<path clip-path="url(#SVGID_20_)" fill="#FFFFFF" d="M219.876,593.317c0-1.657-1.402-3.07-3.07-3.07
				c-1.657,0-3.061,1.413-3.061,3.07c0,1.656,1.403,3.069,3.061,3.069C218.474,596.258,219.876,594.973,219.876,593.317"/>
			<path clip-path="url(#SVGID_20_)" fill="#FFFFFF" d="M18.073,419.804c0-1.661-1.406-3.066-3.067-3.066
				c-1.662,0-3.067,1.405-3.067,3.066s1.405,3.066,3.067,3.066C16.795,422.871,18.073,421.465,18.073,419.804"/>
		</g>
	</g>
	<g>
		<defs>
			<rect id="SVGID_21_" x="-206.12" y="-75.601" width="768" height="1365.96"/>
		</defs>
		<clipPath id="SVGID_22_">
			<use xlink:href="#SVGID_21_"  overflow="visible"/>
		</clipPath>
		<g clip-path="url(#SVGID_22_)">
			<defs>
				<rect id="SVGID_23_" x="13.6" y="619.799" width="206.276" height="178.438"/>
			</defs>
			<clipPath id="SVGID_24_">
				<use xlink:href="#SVGID_23_"  overflow="visible"/>
			</clipPath>
			<polygon clip-path="url(#SVGID_24_)" fill="#FFFFFF" points="216.795,624.042 120.172,624.042 120.225,624.042 109.627,624.595 
				109.725,624.585 99.358,626.089 99.472,626.067 89.58,628.598 89.682,628.567 80.106,632.049 80.204,632.008 71.104,636.36 
				71.194,636.311 62.648,641.455 62.735,641.397 54.743,647.332 54.823,647.266 47.464,653.913 47.534,653.844 40.808,661.124 
				40.879,661.04 34.944,668.952 35.001,668.867 29.778,677.413 29.828,677.322 25.476,686.263 25.519,686.163 22.037,695.659 
				22.069,695.555 19.537,705.446 19.558,705.343 17.976,715.551 17.986,715.442 17.433,725.967 17.435,725.904 17.435,795.304 
				15.276,795.304 15.276,725.883 15.835,715.275 17.434,704.96 19.992,694.966 23.512,685.369 27.911,676.333 33.188,667.698 
				39.186,659.701 45.981,652.343 53.416,645.629 61.491,639.633 70.126,634.436 79.32,630.04 88.994,626.522 98.992,623.962 
				109.464,622.443 120.141,621.885 216.795,621.885 			"/>
			<path clip-path="url(#SVGID_24_)" fill="#FFFFFF" d="M219.876,622.943c0,1.649-1.393,3.046-3.049,3.046
				c-1.646,0-3.039-1.396-3.039-3.046c0-1.65,1.393-3.046,3.039-3.046C218.483,619.897,219.876,621.292,219.876,622.943"/>
			<path clip-path="url(#SVGID_24_)" fill="#FFFFFF" d="M19.472,795.293c0,1.646-1.396,3.05-3.046,3.05s-3.046-1.403-3.046-3.05
				c0-1.646,1.396-3.049,3.046-3.049C18.203,792.245,19.472,793.521,19.472,795.293"/>
		</g>
	</g>
</g>
</svg>
