<svg xmlns="http://www.w3.org/2000/svg" viewBox="0 0 253 253"><defs><style>.cls-1{fill:#804cfb;}</style></defs><title>manageable_ico</title><g id="Warstwa_3" data-name="Warstwa 3"><path class="cls-1" d="M134.76,208.75H118.24c-7.16,0-13-6.24-13-13.91v-.17A55.79,55.79,0,0,0,88,154.37c-13.39-12.7-20.59-31-19.74-50.28,1.4-32,25.75-58.26,55.42-59.77A55.52,55.52,0,0,1,165,59.94c12.56,11.94,19.77,29.15,19.77,47.2s-7.25,35.38-19.9,47.33a55.43,55.43,0,0,0-17.15,40.2v.17C147.75,202.51,141.92,208.75,134.76,208.75Zm-8.27-161.5c-.88,0-1.76,0-2.65.07C95.7,48.74,72.6,73.74,71.26,104.22c-.8,18.38,6,35.87,18.81,48a58.76,58.76,0,0,1,18.18,42.47v.17c0,6,4.48,10.91,10,10.91h16.52c5.51,0,10-4.9,10-10.91v-.17a58.48,58.48,0,0,1,18.09-42.39c12-11.38,19-27.83,19-45.14s-6.87-33.65-18.84-45A52.67,52.67,0,0,0,126.49,47.25Z"/><path class="cls-1" d="M146.83,187.92H106.17a1.5,1.5,0,1,1,0-3h40.66a1.5,1.5,0,0,1,0,3Z"/><path class="cls-1" d="M133.48,187.92a1.5,1.5,0,0,1-1.5-1.5c0-21.64,1.74-38.7,4.39-52.13a44.4,44.4,0,0,1-9.83,1.37,44.46,44.46,0,0,1-9.91-1.38c2.65,13.43,4.39,30.49,4.39,52.14a1.5,1.5,0,0,1-3,0c0-20.19-1.63-38.17-4.74-53.19A35.48,35.48,0,0,1,90.7,106.7c-1.43-7.24-.16-13.1,3.17-14.59,1.78-.79,4.69-.67,8.51,4.33a.9.9,0,0,1,.15.19c4.63,6.74,9.74,17.46,13.41,34.33a39.94,39.94,0,0,0,10.6,1.7A39.27,39.27,0,0,0,137.05,131c3.68-16.88,8.79-27.61,13.42-34.35a.9.9,0,0,1,.15-.19c3.82-5,6.74-5.12,8.51-4.33,3.33,1.49,4.6,7.35,3.17,14.58a35.5,35.5,0,0,1-22.59,26.56c-3.1,15-4.73,33-4.73,53.17A1.5,1.5,0,0,1,133.48,187.92Zm19.36-89.45c-5.22,7.66-9.37,18.25-12.36,31.24a32.66,32.66,0,0,0,18.88-23.6c1.19-6,.17-10.53-1.45-11.26-.85-.37-2.61.36-5,3.54ZM95.55,94.76a1.11,1.11,0,0,0-.46.09c-1.62.73-2.64,5.24-1.45,11.26a32.61,32.61,0,0,0,18.87,23.58c-3-13-7.14-23.56-12.35-31.22l-.06-.08C98.07,95.7,96.5,94.76,95.55,94.76Z"/></g></svg>