<svg xmlns="http://www.w3.org/2000/svg" viewBox="0 0 1000 1000"><defs><style>.cls-1{fill:#fafafa;}.cls-2{fill:#ddd;}.cls-3{fill:#8b8b8b;}.cls-4{fill:#8042ff;}</style></defs><title>monetization_model</title><g id="Warstwa_2" data-name="Warstwa 2"><path d="M574.63,704.24a128.6,128.6,0,0,0,57.68-107.33h73.84A128.78,128.78,0,0,1,577.37,725.69c-.92,0-1.83,0-2.74-.05a128.91,128.91,0,0,1-34.18-5.35A128.47,128.47,0,0,0,574.63,704.24Z"/><path d="M577.37,726.69c-.68,0-1.35,0-2,0h-.74a130.37,130.37,0,0,1-34.45-5.39,1,1,0,0,1,0-1.92,127.68,127.68,0,0,0,33.92-15.92l.55.83-.55-.83a127.58,127.58,0,0,0,57.23-106.5,1,1,0,0,1,1-1h73.84a1,1,0,0,1,1,1A129.93,129.93,0,0,1,577.37,726.69Zm-33.43-6.45a127.92,127.92,0,0,0,30.71,4.4h.75c.66,0,1.31,0,2,0A127.94,127.94,0,0,0,705.15,597.91H633.3a130,130,0,0,1-89.36,122.33Z"/><path d="M505.7,308.87A128.57,128.57,0,0,0,448,416.2H374.18A128.78,128.78,0,0,1,503,287.42c.92,0,1.83,0,2.74.05a128.5,128.5,0,0,1,34.18,5.35A128,128,0,0,0,505.7,308.87Z"/><path d="M448,417.2H374.18a1,1,0,0,1-1-1A129.93,129.93,0,0,1,503,286.42c.68,0,1.35,0,2,0l.75,0a130,130,0,0,1,34.44,5.39,1,1,0,0,1,0,1.91,127.19,127.19,0,0,0-33.91,15.93h0A127.54,127.54,0,0,0,449,416.2,1,1,0,0,1,448,417.2Zm-72.85-2H447a130,130,0,0,1,89.36-122.34,128.34,128.34,0,0,0-30.71-4.39l-.75,0c-.65,0-1.31,0-2,0C432.84,288.42,375.73,345.2,375.18,415.2ZM505.7,308.86h0Z"/><rect class="cls-1" x="289" y="336.89" width="492.6" height="325.11" rx="10.58" transform="translate(-36.23 41.9) rotate(-4.34)"/><path d="M311.74,680.4a11.6,11.6,0,0,1-11.54-10.71l-23-303.09a11.58,11.58,0,0,1,10.67-12.41L758,318.54a11.58,11.58,0,0,1,12.42,10.67l23,303.09a11.57,11.57,0,0,1-10.67,12.42L312.62,680.36C312.32,680.38,312,680.4,311.74,680.4ZM758.87,320.51c-.25,0-.49,0-.74,0L288,356.18a9.59,9.59,0,0,0-8.83,10.27l23,303.09a9.59,9.59,0,0,0,10.28,8.83l470.09-35.65a9.57,9.57,0,0,0,8.83-10.27l-23-303.09a9.56,9.56,0,0,0-9.53-8.85Z"/><path d="M539.08,404.43a1,1,0,0,1-1-.92,1,1,0,0,1,.93-1.08L735.92,387.5a1,1,0,0,1,1.08.93,1,1,0,0,1-.92,1.07L539.16,404.43Z"/><path d="M541.5,436.28a1,1,0,0,1-.08-2l196.92-14.93a1,1,0,1,1,.15,2L541.57,436.28Z"/><path d="M543.91,468.14a1,1,0,0,1-.07-2l196.92-14.93a1,1,0,0,1,1.07.92,1,1,0,0,1-.92,1.07L544,468.13Z"/><path d="M546.33,500a1,1,0,0,1-.08-2l196.92-14.93a1,1,0,0,1,.15,2L546.4,500Z"/><path d="M548.74,531.84a1,1,0,0,1-.07-2l98.46-7.46a1,1,0,0,1,.15,2l-98.46,7.47Z"/><rect class="cls-2" x="720.91" y="575.78" width="31.65" height="31.65" transform="translate(-42.62 57.4) rotate(-4.34)"/><rect class="cls-2" x="655.27" y="580.76" width="31.65" height="31.65" transform="translate(-43.18 52.45) rotate(-4.34)"/><rect class="cls-2" x="589.63" y="585.73" width="31.65" height="31.65" transform="translate(-43.75 47.5) rotate(-4.34)"/><rect class="cls-2" x="523.99" y="590.71" width="31.65" height="31.65" transform="matrix(1, -0.08, 0.08, 1, -44.31, 42.55)"/><rect class="cls-2" x="458.36" y="595.69" width="31.65" height="31.65" transform="translate(-44.88 37.6) rotate(-4.34)"/><rect class="cls-2" x="392.72" y="600.66" width="31.65" height="31.65" transform="translate(-45.44 32.65) rotate(-4.34)"/><rect class="cls-2" x="327.08" y="605.64" width="31.65" height="31.65" transform="matrix(1, -0.08, 0.08, 1, -46, 27.7)"/><rect class="cls-2" x="316.1" y="376.18" width="194.91" height="194.91" transform="translate(-34.63 32.62) rotate(-4.34)"/><path class="cls-3" d="M344.56,576.6c6-38.66,34.72-69,71.36-71.8s69.59,22.91,81.37,60.22"/><circle class="cls-1" cx="453.56" cy="477.55" r="10.68"/><circle class="cls-1" cx="374.73" cy="483.52" r="10.68"/><path class="cls-1" d="M455.4,449.31c-1.84-24.22-22.61-42.39-46.39-40.59s-41.59,22.9-39.75,47.12a44.49,44.49,0,0,0,1.57,8.81l8.58,30.87a39.33,39.33,0,0,0,1.21,4.78h0c5.2,16.07,20.34,27.12,37.29,25.83s30.25-14.49,33-31.16h0v-.09a38.51,38.51,0,0,0,.47-4.84S455.84,455.13,455.4,449.31Z"/><path d="M412.37,476.82a1,1,0,0,1-.08-2l5-.38a1,1,0,0,1,.15,2l-5,.38Z"/><path d="M384.31,478.94a1.07,1.07,0,0,1-.43-.09l-10.63-5.05a1,1,0,0,1,.86-1.81L384.74,477a1,1,0,0,1-.43,1.9Z"/><path d="M398.45,491.82a14.95,14.95,0,1,1,14.92-16.08h0a14.95,14.95,0,0,1-13.78,16C399.21,491.8,398.83,491.82,398.45,491.82Zm0-27.9c-.33,0-.65,0-1,0a12.91,12.91,0,1,0,1,0Z"/><path d="M431.43,489.32a15,15,0,1,1,1.15-.05C432.2,489.3,431.81,489.32,431.43,489.32Zm0-27.9c-.33,0-.66,0-1,0a12.85,12.85,0,1,0,1,0Z"/><path d="M445.36,474.31a1,1,0,0,1-.83-.43,1,1,0,0,1,.27-1.39l8.29-5.65a1,1,0,0,1,1.13,1.66l-8.3,5.64A1,1,0,0,1,445.36,474.31Z"/><path d="M373.23,461.07a1,1,0,0,1-.06-2c7.39-.46,12.5-4.15,15.18-11a29.1,29.1,0,0,0,1.86-10.46,1,1,0,0,1,.46-.89,1,1,0,0,1,1,0c7.46,4,17.41,6.14,22.36,5.81A16.55,16.55,0,0,0,425,437.94a11.49,11.49,0,0,0,3.15-7.72,34.2,34.2,0,0,1-9-1.52c-3-.93-4.71-2.65-4.67-4.72a4.45,4.45,0,0,1,3-3.78,8.16,8.16,0,0,1,6.33.18,10.5,10.5,0,0,1,5.57,5.68,10.89,10.89,0,0,1,.59,2.17,23.73,23.73,0,0,0,13.47-4.33c6.54-4.8,10.83-15,6.54-21.93-2.62-4.23-6.22-6.34-10.81-6.23-11.92.26-29,16-36.8,30a1,1,0,0,1-1.75-1c7.19-12.83,24.57-30.76,38.5-31.06,5.32-.12,9.54,2.3,12.56,7.18,4.94,8,.34,19.16-7.06,24.59a25.79,25.79,0,0,1-14.48,4.72,13.31,13.31,0,0,1-3.73,9.09,18.52,18.52,0,0,1-12.26,5.17c-5.58.37-15.1-2-22-5.3-.27,5.2-2.43,20.86-18.88,21.88Zm47.12-39.42a5.39,5.39,0,0,0-2.08.4c-.8.33-1.74,1-1.76,2,0,1.62,2.49,2.53,3.26,2.77a32.55,32.55,0,0,0,8.18,1.43,9.78,9.78,0,0,0-.41-1.43,8.46,8.46,0,0,0-4.5-4.57A6.92,6.92,0,0,0,420.35,421.65Z"/><path d="M420.54,496.8a1,1,0,0,1-1-.75l-9.37-35.71a1,1,0,1,1,1.93-.5l9.37,35.7a1,1,0,0,1-.71,1.22A.78.78,0,0,1,420.54,496.8Z"/><path d="M420.55,496.8a.76.76,0,0,1-.21,0L411.89,495a1,1,0,1,1,.41-1.95l8.45,1.77a1,1,0,0,1,.77,1.18A1,1,0,0,1,420.55,496.8Z"/><path d="M416.6,506.66a15.2,15.2,0,0,1-9.82-3.28,1,1,0,0,1,1.29-1.53,13.83,13.83,0,0,0,9.81,2.76,1,1,0,1,1,.15,2C417.55,506.64,417.07,506.66,416.6,506.66Z"/><path d="M418,506.61a1,1,0,0,1-.08-2,13.82,13.82,0,0,0,9.29-4.21,1,1,0,0,1,1.51,1.32A15.67,15.67,0,0,1,418,506.6Z"/><ellipse cx="398.21" cy="476.89" rx="3.12" ry="4.32" transform="translate(-34.92 31.47) rotate(-4.34)"/><ellipse cx="431.21" cy="474.39" rx="3.12" ry="4.32" transform="translate(-34.63 33.96) rotate(-4.34)"/><path class="cls-1" d="M668.58,484.81,605.26,416.2h26.48a128.67,128.67,0,0,0-126-128.73v-.05h68.49v0c.87,0,1.74,0,2.62,0A128.78,128.78,0,0,1,705.59,416.2H731.9Z"/><path d="M668.58,485.81a1,1,0,0,1-.74-.32l-63.32-68.61a1,1,0,0,1,.74-1.68h25.48A127.63,127.63,0,0,0,505.68,288.47a1,1,0,0,1-1-1,1,1,0,0,1,1-1.05h68.49a.92.92,0,0,1,.29,0H575l1.86,0A129.91,129.91,0,0,1,706.58,415.2H731.9a1,1,0,0,1,.91.6,1,1,0,0,1-.18,1.08l-63.32,68.61A1,1,0,0,1,668.58,485.81Zm-61-68.61,61,66.14,61-66.14h-24a1,1,0,0,1-1-1A127.92,127.92,0,0,0,576.81,288.42c-.61,0-1.21,0-1.81,0h-.79a.93.93,0,0,1-.33,0H525.62a126.57,126.57,0,0,1,14.55,3.44A130,130,0,0,1,632.74,416.2a1,1,0,0,1-1,1Z"/><path class="cls-1" d="M411.76,528.29l63.32,68.62H448.59a128.67,128.67,0,0,0,126,128.73v.05H506.14v-.05c-.87,0-1.74.05-2.62.05A128.78,128.78,0,0,1,374.74,596.91h-26.3Z"/><path d="M574.63,726.69H506.14a1.35,1.35,0,0,1-.29,0h-.47l-1.86,0A129.92,129.92,0,0,1,373.75,597.91H348.44a1,1,0,0,1-.92-.6,1,1,0,0,1,.18-1.08L411,527.62a1,1,0,0,1,1.47,0l63.32,68.61a1,1,0,0,1,.18,1.08,1,1,0,0,1-.91.6H449.59A127.67,127.67,0,0,0,574.65,724.64a1,1,0,0,1,1,1A1,1,0,0,1,574.63,726.69Zm-68.18-2h48.26a131.42,131.42,0,0,1-14.55-3.44,130.06,130.06,0,0,1-92.57-124.34,1,1,0,0,1,1-1h24.2l-61-66.14-61,66.14h24a1,1,0,0,1,1,1A127.93,127.93,0,0,0,503.52,724.69c.61,0,1.21,0,1.81,0l.79,0A.91.91,0,0,1,506.45,724.69Z"/><path class="cls-4" d="M350.53,394.15a13.68,13.68,0,0,1-11.75-6.6,94.11,94.11,0,0,0-42.2-37.19A45.54,45.54,0,0,1,274.47,329c-10.12-20.27-2.4-47.51,16.84-59.49a46,46,0,0,1,64.34,16.33h0a45.62,45.62,0,0,1,5.73,27.5A97.43,97.43,0,0,0,372.18,370a12.47,12.47,0,0,1-4.81,16.64l-10.18,5.78A13.54,13.54,0,0,1,350.53,394.15Zm-35-129.64a43.74,43.74,0,0,0-23.19,6.69c-18.41,11.45-25.79,37.51-16.11,56.9a43.57,43.57,0,0,0,21.15,20.44,96,96,0,0,1,43.08,38,11.7,11.7,0,0,0,15.71,4.14l10.18-5.78a10.47,10.47,0,0,0,4-14,99.44,99.44,0,0,1-11-57.81,43.59,43.59,0,0,0-5.48-26.29h0a43.63,43.63,0,0,0-27.42-20.93A44.49,44.49,0,0,0,315.56,264.51Z"/><path class="cls-4" d="M349.07,379a1,1,0,0,1-.88-.52c-.1-.18-9.28-17.22-20.33-35.15-11.35-1.36-27.78-14.52-35.42-25.92-5.38-8-6-14.23-1.71-17.53a4.25,4.25,0,0,1,3.63-.71c7.9,1.69,22.46,22.51,34.7,42.28a7.76,7.76,0,0,0,7.92-4.5c-10.68-20.65-21.08-43.83-18.47-51.48a4.24,4.24,0,0,1,2.47-2.75c5-2,10,1.74,14.17,10.46,5.85,12.41,8.72,33.25,4.07,43.7,9.71,18.68,19.63,35.32,19.73,35.49a1,1,0,1,1-1.71,1c-.82-1.36-9.94-16.7-19.18-34.37a9.61,9.61,0,0,1-3.33,3.21,9.73,9.73,0,0,1-4.44,1.21c10.43,17,18.91,32.69,19.66,34.09a1,1,0,0,1-.88,1.47ZM293.24,301a2,2,0,0,0-1.29.42c-4.47,3.45-.58,10.77,2.15,14.82a73.43,73.43,0,0,0,20.16,19.28,38.69,38.69,0,0,0,12.22,5.53l-.21-.33c-19.46-31.22-28.32-38.79-32.33-39.64A3,3,0,0,0,293.24,301Zm30.36-16.84a5.24,5.24,0,0,0-1.89.37,2.34,2.34,0,0,0-1.31,1.54c-1.32,3.87.63,15.37,17.44,48.09l.17.34a38.19,38.19,0,0,0,1.52-13.31,73.47,73.47,0,0,0-6.19-27.2C331.51,290.11,328,284.16,323.6,284.16Z"/><path class="cls-4" d="M338.57,386.29a1,1,0,0,1-.5-1.87l31.3-17.75a1,1,0,0,1,1,1.73l-31.3,17.76A1,1,0,0,1,338.57,386.29Z"/><path class="cls-4" d="M696.74,556.69a16.3,16.3,0,0,1-6.45-1.35c-7.5-3.23-11.26-11.27-8.4-17.92a1,1,0,0,1,1.84.79c-2.43,5.64.87,12.5,7.35,15.29a13.66,13.66,0,0,0,9.66.57,10.11,10.11,0,0,0,6.19-14.37,13.69,13.69,0,0,0-7-6.64c-7.49-3.23-11.26-11.27-8.39-17.91s11.29-9.44,18.78-6.2a15.76,15.76,0,0,1,8.07,7.61,12.38,12.38,0,0,1,.33,10.3,1,1,0,0,1-1.32.52,1,1,0,0,1-.52-1.31,10.37,10.37,0,0,0-.3-8.65,13.75,13.75,0,0,0-7-6.64c-6.48-2.79-13.73-.48-16.16,5.16s.87,12.49,7.35,15.28a15.71,15.71,0,0,1,8.06,7.62A12.12,12.12,0,0,1,701.36,556,15.07,15.07,0,0,1,696.74,556.69Z"/><path class="cls-4" d="M686.13,566a1.14,1.14,0,0,1-.4-.08,1,1,0,0,1-.52-1.32l28.31-65.67a1,1,0,0,1,1.84.79l-28.31,65.67A1,1,0,0,1,686.13,566Z"/><circle class="cls-4" cx="714.7" cy="498.7" r="2.04"/><path class="cls-4" d="M714.7,501.74a2.93,2.93,0,0,1-1.2-.25,3,3,0,1,1,2.32,0A3.09,3.09,0,0,1,714.7,501.74Zm0-4.08a1,1,0,0,0-.41,2,1,1,0,0,0,.79,0,1,1,0,0,0,.57-.56h0a1,1,0,0,0-.95-1.45Z"/><circle class="cls-4" cx="686.13" cy="564.98" r="2.04"/><path class="cls-4" d="M686.13,568a3,3,0,0,1-2.82-1.92,3,3,0,1,1,5.61.08h0A3,3,0,0,1,686.13,568Zm0-4.08a1,1,0,0,0-.38.07,1,1,0,0,0-.57.56,1,1,0,0,0,0,.79,1,1,0,0,0,.56.57,1,1,0,0,0,1.36-.54,1,1,0,0,0-.54-1.37A1.15,1.15,0,0,0,686.13,563.94Zm1.87,1.85h0Z"/><circle class="cls-4" cx="682.81" cy="537.83" r="2.04"/><path class="cls-4" d="M682.81,540.87a3.11,3.11,0,0,1-1.2-.25,3,3,0,1,1,2.32,0A3.1,3.1,0,0,1,682.81,540.87Zm0-4.08a1,1,0,0,0-.41,2,1,1,0,0,0,1.36-.54h0a1,1,0,0,0,0-.8,1,1,0,0,0-.55-.57A1,1,0,0,0,682.81,536.79Z"/><circle class="cls-4" cx="717.72" cy="526.55" r="2.04"/><path class="cls-4" d="M717.72,529.59a3,3,0,0,1-1.2-.25,3,3,0,1,1,2.4-5.58,3,3,0,0,1-.08,5.61A2.9,2.9,0,0,1,717.72,529.59Zm0-4.08a1,1,0,0,0-.41,2,1,1,0,0,0,.8,0,1,1,0,0,0,.57-.55h0a1,1,0,0,0,0-.79,1.06,1.06,0,0,0-.56-.58A1.15,1.15,0,0,0,717.72,525.51Z"/><path class="cls-4" d="M743.92,728.68a12.67,12.67,0,0,1-10.6-5.28,1,1,0,1,1,1.64-1.14c3.49,5,11,5.9,16.86,1.89a13.75,13.75,0,0,0,5.61-7.89,10.4,10.4,0,0,0-1.4-8.54c-3.49-5.05-11-5.9-16.86-1.89a15.63,15.63,0,0,1-10.73,2.79,12.11,12.11,0,0,1-10.6-15.35,15.76,15.76,0,0,1,6.41-9c6.72-4.63,15.53-3.56,19.64,2.4a1,1,0,0,1-1.65,1.14c-3.48-5-11-5.9-16.85-1.89a13.69,13.69,0,0,0-5.61,7.89,10.13,10.13,0,0,0,8.89,12.88,13.71,13.71,0,0,0,9.36-2.45c6.72-4.64,15.53-3.56,19.64,2.39a12.36,12.36,0,0,1,1.7,10.17,15.77,15.77,0,0,1-6.42,9A16,16,0,0,1,743.92,728.68Z"/><path class="cls-4" d="M758.92,735.44a1,1,0,0,1-.83-.44l-40.63-58.85a1,1,0,1,1,1.65-1.13l40.63,58.85a1,1,0,0,1-.82,1.57Z"/><circle class="cls-4" cx="717.91" cy="675.04" r="2.04"/><path class="cls-4" d="M717.92,678.08a3,3,0,1,1,1.72-.53A3,3,0,0,1,717.92,678.08Zm0-4.07a1.07,1.07,0,0,0-.59.18,1,1,0,0,0-.26,1.45,1,1,0,0,0,1.44.26,1.05,1.05,0,0,0,.27-1.45A1,1,0,0,0,717.91,674Z"/><circle class="cls-4" cx="758.92" cy="734.44" r="2.04"/><path class="cls-4" d="M758.92,737.47a3,3,0,1,1,2.5-4.76h0a3,3,0,0,1-2.5,4.76Zm0-4.07a1,1,0,0,0-1,.85,1,1,0,0,0,.83,1.21,1,1,0,0,0,1-1.62A1,1,0,0,0,758.92,733.4Z"/><circle class="cls-4" cx="734.14" cy="722.84" r="2.04"/><path class="cls-4" d="M734.15,725.88a3.53,3.53,0,0,1-.56,0,3,3,0,0,1-1.17-5.49,3,3,0,1,1,1.73,5.54Zm0-4.08a1.07,1.07,0,0,0-.59.18,1,1,0,0,0-.26,1.45,1,1,0,0,0,1.44.26,1,1,0,0,0,.43-.66,1,1,0,0,0-.16-.78h0A1,1,0,0,0,734.14,721.8Z"/><circle class="cls-4" cx="743.12" cy="687.26" r="2.04"/><path class="cls-4" d="M743.12,690.3a3.06,3.06,0,1,1,1.72-.54A2.94,2.94,0,0,1,743.12,690.3Zm0-4.08a1,1,0,0,0-.59.19,1,1,0,0,0-.43.67,1,1,0,0,0,.16.77,1,1,0,0,0,1.88-.4,1,1,0,0,0-.17-.78h0a1,1,0,0,0-.67-.43Z"/><path class="cls-4" d="M235.06,524.69a13.81,13.81,0,0,1-2.49-.22,12,12,0,0,1-7.9-5,1,1,0,1,1,1.65-1.12,10.07,10.07,0,0,0,6.61,4.19,13.24,13.24,0,0,0,9.88-2.32c5.7-4,7.55-11.32,4.13-16.34a10.11,10.11,0,0,0-6.62-4.2,13.3,13.3,0,0,0-9.88,2.33,15.27,15.27,0,0,1-11.38,2.65,12.06,12.06,0,0,1-7.91-5c-4-5.92-2-14.49,4.63-19.1a15.22,15.22,0,0,1,11.39-2.65,12,12,0,0,1,7.9,5,1,1,0,0,1-1.65,1.13,10.09,10.09,0,0,0-6.61-4.2,13.28,13.28,0,0,0-9.88,2.33c-5.69,4-7.54,11.31-4.12,16.34a10,10,0,0,0,6.61,4.19,13.24,13.24,0,0,0,9.88-2.32,15.23,15.23,0,0,1,11.38-2.65,12.07,12.07,0,0,1,7.91,5c4,5.93,1.95,14.5-4.63,19.11A15.67,15.67,0,0,1,235.06,524.69Z"/><path class="cls-4" d="M249.79,531.41A1,1,0,0,1,249,531l-39.83-58.52a1,1,0,1,1,1.65-1.12l39.84,58.51a1,1,0,0,1-.27,1.39A1,1,0,0,1,249.79,531.41Z"/><ellipse class="cls-4" cx="209.59" cy="471.35" rx="2" ry="2.03"/><path class="cls-4" d="M209.59,474.38a2.47,2.47,0,0,1-.54-.05,3,3,0,0,1-1.94-1.26,3,3,0,0,1,.77-4.2,2.94,2.94,0,0,1,2.24-.5,3,3,0,0,1,1.17,5.47A2.89,2.89,0,0,1,209.59,474.38Zm0-4.05a1,1,0,0,0-.81,1.61.93.93,0,0,0,.64.42,1,1,0,0,0,.74-.16,1,1,0,0,0,.25-1.44,1,1,0,0,0-.64-.42Z"/><ellipse class="cls-4" cx="249.79" cy="530.41" rx="2" ry="2.03"/><path class="cls-4" d="M249.8,533.43a2.56,2.56,0,0,1-.55,0,2.93,2.93,0,0,1-1.93-1.26,3.05,3.05,0,0,1,.76-4.2,3,3,0,0,1,4.18.77,3,3,0,0,1-.76,4.2A2.93,2.93,0,0,1,249.8,533.43Zm0-4a1,1,0,0,0-.56.18A1,1,0,0,0,249,531a1,1,0,0,0,.65.43,1,1,0,0,0,.73-.17,1,1,0,0,0,.26-1.43h0a1,1,0,0,0-.64-.43Z"/><ellipse class="cls-4" cx="225.5" cy="518.87" rx="2" ry="2.03"/><path class="cls-4" d="M225.51,521.9a2.56,2.56,0,0,1-.55,0,2.93,2.93,0,0,1-1.93-1.26,3,3,0,0,1,.76-4.2,3,3,0,0,1,4.18.77h0a3.05,3.05,0,0,1-.76,4.2A2.93,2.93,0,0,1,225.51,521.9Zm0-4a1,1,0,0,0-.56.17,1,1,0,0,0-.26,1.44,1,1,0,0,0,1.38.26,1,1,0,0,0,.26-1.43,1,1,0,0,0-.65-.43Z"/><ellipse class="cls-4" cx="234.3" cy="483.5" rx="2" ry="2.03"/><path class="cls-4" d="M234.3,486.53a3.29,3.29,0,0,1-.54,0,2.93,2.93,0,0,1-1.93-1.26,3.06,3.06,0,0,1,.76-4.21,3,3,0,0,1,4.18.78A3.05,3.05,0,0,1,236,486,3,3,0,0,1,234.3,486.53Zm0-4.06a1,1,0,0,0-.56.18,1,1,0,0,0-.26,1.44,1,1,0,0,0,1.38.26,1,1,0,0,0,.26-1.44,1,1,0,0,0-.65-.42Z"/><circle class="cls-4" cx="362.01" cy="388.15" r="2.04"/><path class="cls-4" d="M362,391.19a3,3,0,1,1,1.72-.54A3,3,0,0,1,362,391.19Zm0-4.08a1,1,0,0,0-.85,1.63,1,1,0,0,0,1.87-.4,1.07,1.07,0,0,0-.16-.78A1.06,1.06,0,0,0,362,387.11Z"/><circle class="cls-4" cx="290.16" cy="271.51" r="2.04"/><path class="cls-4" d="M290.17,274.55a3.53,3.53,0,0,1-.56-.05,3,3,0,1,1,.56.05Zm0-4.08a1.07,1.07,0,0,0-.59.18,1,1,0,0,0-.26,1.45,1,1,0,0,0,.66.43,1,1,0,0,0,.78-.17,1,1,0,0,0,.27-1.44A1.06,1.06,0,0,0,290.16,270.47Z"/></g></svg>