<svg xmlns="http://www.w3.org/2000/svg" viewBox="0 0 253 253"><defs><style>.cls-1{fill:#804cfb;}</style></defs><title>monetizable_ico</title><g id="Warstwa_3" data-name="Warstwa 3"><path class="cls-1" d="M45.67,128a1.5,1.5,0,0,1-1.5-1.5,82.19,82.19,0,0,1,157.89-32,1.5,1.5,0,1,1-2.76,1.17A79.19,79.19,0,0,0,47.17,126.5,1.5,1.5,0,0,1,45.67,128Z"/><path class="cls-1" d="M126.35,164.45c-11.77,0-21.34-8.5-21.34-18.95a1.5,1.5,0,0,1,3,0c0,8.79,8.22,15.95,18.34,15.95s18.34-7.16,18.34-15.95-8.23-15.94-18.34-15.94c-11.77,0-21.34-8.49-21.34-18.94s9.57-18.94,21.34-18.94,21.34,8.5,21.34,18.94a1.5,1.5,0,0,1-3,0c0-8.79-8.23-15.94-18.34-15.94S108,101.83,108,110.62s8.22,15.94,18.34,15.94c11.77,0,21.34,8.5,21.34,18.94S138.12,164.45,126.35,164.45Z"/><path class="cls-1" d="M126.35,175.94a1.5,1.5,0,0,1-1.5-1.5V81.68a1.5,1.5,0,0,1,3,0v92.76A1.5,1.5,0,0,1,126.35,175.94Z"/><path class="cls-1" d="M201.39,98a1.47,1.47,0,0,1-.54-.1L180.12,90a1.5,1.5,0,0,1,1.07-2.8l19.33,7.38,7.39-19.33a1.5,1.5,0,0,1,2.8,1.07l-7.92,20.73A1.51,1.51,0,0,1,201.39,98Z"/><path class="cls-1" d="M126.65,208.67a82.05,82.05,0,0,1-75.71-50.18,1.5,1.5,0,1,1,2.76-1.17A79.19,79.19,0,0,0,205.83,126.5a1.5,1.5,0,0,1,3,0A82.27,82.27,0,0,1,126.65,208.67Z"/><path class="cls-1" d="M43.69,178.7a1.39,1.39,0,0,1-.53-.1,1.49,1.49,0,0,1-.87-1.93l7.92-20.73a1.51,1.51,0,0,1,1.94-.87L72.88,163a1.5,1.5,0,0,1-1.07,2.8l-19.33-7.38-7.39,19.33A1.51,1.51,0,0,1,43.69,178.7Z"/></g></svg>