<svg xmlns="http://www.w3.org/2000/svg" viewBox="0 0 253 253"><defs><style>.cls-1{fill:#804cfb;}</style></defs><title>portable_ico</title><g id="Warstwa_3" data-name="Warstwa 3"><path class="cls-1" d="M170.08,126.11a1.53,1.53,0,0,1-1.06-.44L127.33,84a1.5,1.5,0,1,1,2.12-2.12l41.69,41.69a1.5,1.5,0,0,1-1.06,2.56Z"/><path class="cls-1" d="M113,157.08a1.49,1.49,0,0,1-1.06-.44L96.36,141.1a1.52,1.52,0,0,1-.39-1.47C113.82,76.26,162.11,46,198.49,53.34a1.5,1.5,0,0,1,1.17,1.17C207,90.89,176.74,139.18,113.37,157A1.92,1.92,0,0,1,113,157.08ZM99.1,139.6l14.3,14.3c60.55-17.4,89.82-63.05,83.51-97.81C162.16,49.79,116.5,79.05,99.1,139.6Z"/><path class="cls-1" d="M89.3,165.2a1.45,1.45,0,0,1-1.06-.44,1.49,1.49,0,0,1,0-2.12l45.91-45.91a1.5,1.5,0,1,1,2.12,2.12L90.36,164.76A1.48,1.48,0,0,1,89.3,165.2Z"/><path class="cls-1" d="M124.82,200.73a1.41,1.41,0,0,1-.45-.07,1.51,1.51,0,0,1-1.05-1.37l-2-46.94a1.49,1.49,0,0,1,1.43-1.56,1.51,1.51,0,0,1,1.57,1.43L126.14,195l23.32-30.46-1.06-24.71a1.5,1.5,0,1,1,3-.12L152.48,165a1.51,1.51,0,0,1-.31,1L126,200.14A1.48,1.48,0,0,1,124.82,200.73Z"/><path class="cls-1" d="M100.71,131.69h-.06l-46.94-2a1.51,1.51,0,0,1-1.37-1.05,1.5,1.5,0,0,1,.52-1.64L87,100.83a1.47,1.47,0,0,1,1-.31l25.26,1.08a1.51,1.51,0,0,1,1.43,1.57,1.49,1.49,0,0,1-1.56,1.43l-24.71-1.06L58,126.86l42.81,1.83a1.5,1.5,0,0,1-.07,3Z"/><path class="cls-1" d="M62.16,195.28c-1.78,0-2.85-.05-3-.06a1.49,1.49,0,0,1-1.41-1.41,91.43,91.43,0,0,1,1-16.81c1.86-12.46,5.9-21.87,12-28,4.36-4.36,11.18-5.63,18.24-3.38a1.5,1.5,0,1,1-.91,2.86c-6-1.9-11.65-.91-15.21,2.64C61,163,60.64,186.37,60.73,192.27c5.9.07,29.3-.31,41.14-12.15,3.55-3.56,4.54-9.24,2.64-15.21a1.5,1.5,0,1,1,2.86-.91c2.25,7.06,1,13.88-3.38,18.24-6.12,6.12-15.53,10.16-28,12A95.89,95.89,0,0,1,62.16,195.28Z"/><path class="cls-1" d="M167.18,101.64A15.82,15.82,0,1,1,178.36,97,15.71,15.71,0,0,1,167.18,101.64Zm0-28.64a12.82,12.82,0,1,0,9.06,21.89h0a12.83,12.83,0,0,0,0-18.13A12.7,12.7,0,0,0,167.18,73Z"/></g></svg>