<svg xmlns="http://www.w3.org/2000/svg" viewBox="0 0 503 503"><defs><style>.cls-1{fill:#fafafa;}.cls-2{fill:#323232;}.cls-3{fill:#804cfb;}</style></defs><title>Prone_to_mass_hacking</title><g id="Warstwa_3" data-name="Warstwa 3"><path class="cls-1" d="M271.84,376.09H200.17a1,1,0,0,1-.74-.33,1,1,0,0,1-.26-.78l4-37.72a1,1,0,0,1,2,.21l-3.85,36.62h69.45l-3.84-36.52a1,1,0,0,1,2-.21l4,37.62a1,1,0,0,1-.26.78A1,1,0,0,1,271.84,376.09Z"/><path class="cls-1" d="M345.68,338.36H126.83a8.43,8.43,0,0,1-8.42-8.42V171.14a8.44,8.44,0,0,1,8.42-8.43H345.68a8.44,8.44,0,0,1,8.43,8.43v158.8A8.44,8.44,0,0,1,345.68,338.36ZM126.83,164.71a6.43,6.43,0,0,0-6.42,6.43v158.8a6.43,6.43,0,0,0,6.42,6.42H345.68a6.43,6.43,0,0,0,6.43-6.42V171.14a6.43,6.43,0,0,0-6.43-6.43Z"/><path class="cls-1" d="M353.11,306.94H119.41a1,1,0,0,1,0-2h233.7a1,1,0,0,1,0,2Z"/><path class="cls-1" d="M236.26,330.18a8.86,8.86,0,1,1,8.85-8.85A8.87,8.87,0,0,1,236.26,330.18Zm0-15.71a6.86,6.86,0,1,0,6.85,6.86A6.87,6.87,0,0,0,236.26,314.47Z"/><rect class="cls-1" x="389.71" y="156.96" width="2" height="15.76"/><rect class="cls-1" x="382.83" y="163.84" width="15.76" height="2"/><path class="cls-1" d="M394.24,138.18a7.14,7.14,0,1,1,5-2.09A7.12,7.12,0,0,1,394.24,138.18Zm0-12.27a5.14,5.14,0,1,0,3.63,1.5A5.15,5.15,0,0,0,394.24,125.91Z"/><rect class="cls-1" x="361.33" y="128.58" width="2" height="15.76"/><rect class="cls-1" x="354.45" y="135.46" width="15.76" height="2"/><rect class="cls-1" x="94.29" y="330.28" width="2" height="15.76"/><rect class="cls-1" x="87.41" y="337.16" width="15.76" height="2"/><path class="cls-1" d="M91.76,379.09a7.14,7.14,0,0,1-5.05-12.18A7.14,7.14,0,0,1,96.81,377,7.08,7.08,0,0,1,91.76,379.09Zm0-12.27a5.14,5.14,0,1,0,3.63,1.5A5.13,5.13,0,0,0,91.76,366.82Z"/><rect class="cls-1" x="122.67" y="358.65" width="2" height="15.76"/><rect class="cls-1" x="115.79" y="365.54" width="15.76" height="2"/><path class="cls-2" d="M325.06,262.51c0,1.37-2.87,2.48-6.4,2.48s-6.39-1.11-6.39-2.48V280.8l12.79-.63Z"/><path class="cls-3" d="M325.06,261.7c0-1.82-2.87-3.3-6.4-3.3s-6.39,1.48-6.39,3.3,2.86,3.29,6.39,3.29S325.06,263.52,325.06,261.7Z"/><path class="cls-3" d="M392.21,280.8V221.74a40,40,0,1,0-79.94,0v20.11s0,0,0-.06c.08,1.35,2.9,2.43,6.38,2.43s6.31-1.08,6.38-2.43c0,0,0,0,0,.06V221.74a27.18,27.18,0,0,1,54.36,0V280.8"/><path class="cls-2" d="M379.42,280.8H287.1v85.53a8.76,8.76,0,0,0,8.76,8.76H408.62a8.76,8.76,0,0,0,8.76-8.76V280.8H392.21"/><path class="cls-1" d="M312.27,281.8a1,1,0,0,1-1-1V262.51a1,1,0,0,1,2,0c.07.43,2,1.48,5.39,1.48s5.33-1.05,5.4-1.48v-.06a1,1,0,0,1,1-.94,1,1,0,0,1,1,1h0v17.66a1,1,0,0,1-2,0V265a14.78,14.78,0,0,1-10.79,0V280.8A1,1,0,0,1,312.27,281.8Z"/><path class="cls-1" d="M392.21,281.8a1,1,0,0,1-1-1V221.74a39,39,0,1,0-77.94,0v19.89a.41.41,0,0,1,0,.11c.06.43,2,1.48,5.38,1.48s5.32-1.05,5.38-1.48c0,0,0-.05,0-.07V221.74a28.18,28.18,0,0,1,56.36,0V280.8a1,1,0,0,1-2,0V221.74a26.18,26.18,0,0,0-52.36,0v20.11a1,1,0,0,1-.07.35c-.47,2.07-4,3-7.33,3s-6.85-.95-7.33-3a1,1,0,0,1-.06-.35V221.74a41,41,0,1,1,81.94,0V280.8A1,1,0,0,1,392.21,281.8Z"/><path class="cls-1" d="M318.66,266c-4.21,0-7.39-1.85-7.39-4.29s3.18-4.3,7.39-4.3,7.4,1.85,7.4,4.3S322.88,266,318.66,266Zm0-6.59c-3.29,0-5.39,1.36-5.39,2.3s2.1,2.29,5.39,2.29,5.4-1.36,5.4-2.29S322,259.4,318.66,259.4Z"/><path class="cls-1" d="M408.55,376.09H295.92a9.84,9.84,0,0,1-9.82-9.83V280.8a1,1,0,0,1,1-1H417.38a1,1,0,0,1,1,1v85.46A9.84,9.84,0,0,1,408.55,376.09ZM288.1,281.8v84.46a7.83,7.83,0,0,0,7.82,7.83H408.55a7.84,7.84,0,0,0,7.83-7.83V281.8Z"/><path class="cls-1" d="M417.38,360.19H287.1a1,1,0,0,1,0-2H417.38a1,1,0,0,1,0,2Z"/><path class="cls-3" d="M368.69,342.3l-10.94-18.71a11.27,11.27,0,1,0-11,0L335.79,342.3Z"/><path class="cls-1" d="M368.69,343.3h-32.9a1,1,0,0,1-.87-.5,1,1,0,0,1,0-1l10.45-17.87a12.27,12.27,0,1,1,13.73,0l10.45,17.87a1,1,0,0,1,0,1A1,1,0,0,1,368.69,343.3Zm-31.16-2h29.41l-10.05-17.21a1,1,0,0,1-.11-.76,1,1,0,0,1,.48-.61,10.27,10.27,0,1,0-10,0,1,1,0,0,1,.37,1.37Z"/><path class="cls-3" d="M251.87,250a18.75,18.75,0,0,1-30.82-.18c-12.38,5.41-21.92,17.22-25.36,31.81l81.14.13C273.46,267.26,264.09,255.49,251.87,250Z"/><path class="cls-1" d="M236.52,259h0A20.38,20.38,0,0,1,216.88,243a21.42,21.42,0,0,1-.46-2.7v-.06a6.69,6.69,0,0,1-1,.08h0a6.64,6.64,0,0,1-1.57-13.09l-.69-3.5a24.63,24.63,0,0,1-.49-4.91,24.14,24.14,0,0,1,23.89-24.26h0a23.54,23.54,0,0,1,16.89,7.15,24.41,24.41,0,0,1,7,17.19,72.39,72.39,0,0,1-1.26,8.47,6.64,6.64,0,0,1-1.87,13c-.21,0-.45,0-.68,0l0,.1a20.72,20.72,0,0,1-.45,2.57A20.38,20.38,0,0,1,236.52,259Zm-17.68-16.37A18.36,18.36,0,0,0,236.49,257h0a18.38,18.38,0,0,0,17.68-14.35,20.79,20.79,0,0,0,.44-2.46l.23-1.16a1,1,0,0,1,1.24-.76,4.65,4.65,0,0,0,1.19.18h0a4.64,4.64,0,0,0,.58-9.25,1,1,0,0,1-.68-.4A1,1,0,0,1,257,228a74.58,74.58,0,0,0,1.4-9.08,22.36,22.36,0,0,0-6.39-15.78,21.57,21.57,0,0,0-15.46-6.55h0a22.12,22.12,0,0,0-21.89,22.26,22.94,22.94,0,0,0,.45,4.52l.89,4.52a1,1,0,0,1-.19.8,1,1,0,0,1-.72.39,4.67,4.67,0,0,0-4.33,4.61,4.66,4.66,0,0,0,4.65,4.66h0a4.6,4.6,0,0,0,1.44-.25,1,1,0,0,1,.82.08,1,1,0,0,1,.47.67l.23,1.18a21.74,21.74,0,0,0,.44,2.53Z"/><path class="cls-1" d="M220.72,232.13a1,1,0,0,1-.5-.13l-5.41-3.1a1,1,0,0,1,1-1.74l5.4,3.1a1,1,0,0,1,.37,1.37A1,1,0,0,1,220.72,232.13Z"/><path class="cls-1" d="M228.24,239.53h0a8.39,8.39,0,0,1,0-16.78h0a8.38,8.38,0,0,1,8.37,8.4h0A8.38,8.38,0,0,1,228.24,239.53Zm0-14.78a6.39,6.39,0,0,0,0,12.78h0a6.39,6.39,0,0,0,6.38-6.38,6.38,6.38,0,0,0-6.37-6.4Zm7.38,6.4h0Z"/><path class="cls-1" d="M245.76,239.56h0a8.39,8.39,0,0,1,0-16.78h0a8.4,8.4,0,0,1,8.37,8.4h0A8.41,8.41,0,0,1,245.76,239.56Zm0-14.78a6.39,6.39,0,0,0,0,12.78h0a6.39,6.39,0,0,0,0-12.78Zm7.39,6.4h0Z"/><path class="cls-1" d="M253.15,232.18a1,1,0,0,1-.53-1.85l4.87-3a1,1,0,1,1,1.06,1.7l-4.87,3A1,1,0,0,1,253.15,232.18Z"/><path class="cls-1" d="M232,205a1,1,0,0,1-.56-.16,1,1,0,0,1-.27-1.39,43.24,43.24,0,0,1,7.91-8.66,1,1,0,0,1,1.29,1.54,40.55,40.55,0,0,0-7.54,8.23A1,1,0,0,1,232,205Z"/><path class="cls-1" d="M215.8,222.24h-.22a1,1,0,0,1-1-1,1,1,0,0,1,1-1h.18c8.76,0,9.2-9.77,9.21-10.18a1,1,0,0,1,.54-.85,1,1,0,0,1,1,0c3.59,2.3,8.75,3.88,11.32,3.9a8.23,8.23,0,0,0,5.66-1.84,5.53,5.53,0,0,0,1.84-3.83v-.17a1,1,0,0,1,.29-.78,1,1,0,0,1,.79-.29,12.16,12.16,0,0,0,7.48-1.63c3.48-2.16,6.05-7.09,4.18-10.7a5.82,5.82,0,0,0-4.13-3.37c-3.44-.69-8.41,1.43-13.64,5.81a1,1,0,0,1-1.29-1.54c5.7-4.77,11.28-7,15.33-6.23a7.83,7.83,0,0,1,5.51,4.41c2.4,4.65-.6,10.64-4.9,13.32a13.9,13.9,0,0,1-7.68,2,7.65,7.65,0,0,1-2.44,4.52,10.35,10.35,0,0,1-7,2.34c-2.85,0-7.49-1.49-11-3.4C226.19,216.09,223.33,222.24,215.8,222.24Z"/><path class="cls-1" d="M239.13,243a.86.86,0,0,1-.28,0l-4.39-1.28a1,1,0,1,1,.56-1.92l2.83.83L234.65,223a1,1,0,0,1,.81-1.16,1,1,0,0,1,1.16.8l3.49,19.24a1,1,0,0,1-.32.92A1,1,0,0,1,239.13,243Z"/><path class="cls-1" d="M237.17,247.69h0a19.78,19.78,0,0,1-4.09-.44,1,1,0,0,1,.43-2,17.69,17.69,0,0,0,3.66.4,1,1,0,1,1,0,2Z"/><path class="cls-1" d="M237.2,247.69a1,1,0,0,1-1-1,1,1,0,0,1,1-1h0a17.2,17.2,0,0,0,4.2-.52,1,1,0,0,1,.49,1.94A19.25,19.25,0,0,1,237.2,247.69Z"/><ellipse class="cls-1" cx="228.1" cy="231.14" rx="2.29" ry="1.65" transform="translate(-3.41 458.87) rotate(-89.91)"/><ellipse class="cls-1" cx="245.63" cy="231.17" rx="2.29" ry="1.65" transform="translate(14.06 476.43) rotate(-89.91)"/><path class="cls-1" d="M276.83,282.74h0l-81.14-.13a1,1,0,0,1-.79-.38,1,1,0,0,1-.18-.85c3.48-14.78,13.18-26.92,25.92-32.49a1,1,0,0,1,1.22.34A17.86,17.86,0,0,0,236.49,257h0a17.88,17.88,0,0,0,14.55-7.56,1,1,0,0,1,1.22-.33c12.56,5.67,22.1,17.79,25.51,32.45a1,1,0,0,1-.19.84A1,1,0,0,1,276.83,282.74ZM197,280.61l78.58.13c-3.43-13.21-12.06-24.13-23.36-29.51A19.8,19.8,0,0,1,236.52,259h0a20.05,20.05,0,0,1-15.77-7.91C209.25,256.34,200.47,267.28,197,280.61Z"/><polygon class="cls-1" points="267.94 337.37 204.14 337.37 202.6 346.77 269.41 346.77 267.94 337.37"/></g></svg>