<svg xmlns="http://www.w3.org/2000/svg" viewBox="0 0 500 500"><defs><style>.cls-1{fill:#fafafa;}.cls-2{fill:#404040;}.cls-3{fill:#804cfb;}</style></defs><title>protecting_your_privacy_ico</title><g id="Warstwa_3" data-name="Warstwa 3"><path class="cls-1" d="M344.05,346.07h0l-243.92-.4a11.57,11.57,0,0,1-11.56-11.59l.24-143.86a11.57,11.57,0,0,1,11.57-11.56h0l243.92.4a11.59,11.59,0,0,1,11.56,11.59l-.24,143.86A11.59,11.59,0,0,1,344.05,346.07Zm0-2h0a9.58,9.58,0,0,0,9.57-9.56l.24-143.86a9.59,9.59,0,0,0-9.56-9.59l-243.92-.4h0a9.58,9.58,0,0,0-9.57,9.56l-.24,143.86a9.58,9.58,0,0,0,9.56,9.59Z"/><path class="cls-1" d="M334.49,218.61h0l-106.26-.17a1,1,0,1,1,0-2h0l106.27.17a1,1,0,0,1,0,2Z"/><path class="cls-1" d="M334.46,235.8h0l-106.27-.17a1,1,0,0,1,0-2h0l106.27.17a1,1,0,0,1,0,2Z"/><path class="cls-1" d="M334.43,253h0l-106.27-.17a1,1,0,0,1,0-2h0l106.27.17a1,1,0,1,1,0,2Z"/><path class="cls-1" d="M334.4,270.18h0L228.13,270a1,1,0,0,1-1-1,1,1,0,0,1,1-1h0l106.27.17a1,1,0,0,1,0,2Z"/><path class="cls-1" d="M281.24,287.28h0l-53.14-.09a1,1,0,0,1-1-1,1,1,0,0,1,1-1h0l53.13.09a1,1,0,0,1,0,2Z"/><rect class="cls-1" x="89.56" y="322.18" width="265.09" height="2"/><path class="cls-2" d="M393.2,232a105.72,105.72,0,0,1-63.87-21.36,106.13,106.13,0,0,1-75,20.77v55.39c0,36,18.68,60.37,49.36,79.29L329.33,382,355,366.13c30.68-18.92,49.36-43.25,49.36-79.29V231.45A105.54,105.54,0,0,1,393.2,232Z"/><circle class="cls-3" cx="329.33" cy="293.7" r="40.3"/><path class="cls-1" d="M329.33,383a1,1,0,0,1-.53-.15L303.13,367c-34-21-49.83-46.43-49.83-80.14V231.45a1,1,0,0,1,.33-.74,1,1,0,0,1,.77-.25,108.41,108.41,0,0,0,11.06.58,104.31,104.31,0,0,0,63.27-21.16,1,1,0,0,1,1.2,0A104.27,104.27,0,0,0,393.2,231a108.37,108.37,0,0,0,11.05-.58,1,1,0,0,1,.78.25,1,1,0,0,1,.33.74v55.39c0,33.71-15.84,59.18-49.84,80.14L329.85,382.8A1,1,0,0,1,329.33,383Zm-74-150.39v54.28c0,33,15.53,57.87,48.88,78.43l25.15,15.51,25.14-15.51c33.35-20.56,48.89-45.48,48.89-78.43V232.56c-3.4.32-6.81.48-10.16.48a106.27,106.27,0,0,1-63.87-21.11A106.27,106.27,0,0,1,265.46,233C262.11,233,258.7,232.88,255.3,232.56Z"/><path class="cls-1" d="M329.33,335a41.3,41.3,0,1,1,41.3-41.3A41.35,41.35,0,0,1,329.33,335Zm0-80.6a39.3,39.3,0,1,0,39.3,39.3A39.34,39.34,0,0,0,329.33,254.4Z"/><path class="cls-1" d="M324.64,306.24a1,1,0,0,1-.7-.29l-12.4-12.4a1,1,0,0,1,1.41-1.41l11.73,11.72,24.64-22.44a1,1,0,0,1,1.35,1.48L325.32,306A1,1,0,0,1,324.64,306.24Z"/><path class="cls-1" d="M353.15,133.71a1,1,0,0,1-1-1V118.05a1,1,0,0,1,2,0v14.66A1,1,0,0,1,353.15,133.71Z"/><path class="cls-1" d="M353.15,163.88a1,1,0,0,1-1-1V148.21a1,1,0,0,1,2,0v14.67A1,1,0,0,1,353.15,163.88Z"/><path class="cls-1" d="M375.56,141.46H360.9a1,1,0,0,1,0-2h14.66a1,1,0,0,1,0,2Z"/><path class="cls-1" d="M345.4,141.46H330.74a1,1,0,0,1,0-2H345.4a1,1,0,0,1,0,2Z"/><path class="cls-1" d="M395.36,177a1,1,0,0,1-1-1v-9.87a1,1,0,0,1,2,0V176A1,1,0,0,1,395.36,177Z"/><path class="cls-1" d="M395.36,197.26a1,1,0,0,1-1-1v-9.87a1,1,0,0,1,2,0v9.87A1,1,0,0,1,395.36,197.26Z"/><path class="cls-1" d="M410.45,182.17h-9.87a1,1,0,0,1,0-2h9.87a1,1,0,0,1,0,2Z"/><path class="cls-1" d="M390.15,182.17h-9.87a1,1,0,0,1,0-2h9.87a1,1,0,0,1,0,2Z"/><path class="cls-3" d="M173.73,271.94a19,19,0,0,1-31.31-.18c-12.58,5.49-22.26,17.49-25.76,32.31l82.42.13C195.66,289.49,186.14,277.54,173.73,271.94Z"/><path class="cls-1" d="M158.14,281.05h0a21.21,21.21,0,0,1-20.38-18.92v-.08a3.55,3.55,0,0,1-1,.08,6.73,6.73,0,0,1-1.58-13.27l-.7-3.57a25.33,25.33,0,0,1-.49-5,24.75,24.75,0,0,1,7.12-17.43,23.91,23.91,0,0,1,17.12-7.2h0a23.88,23.88,0,0,1,17.14,7.26,24.67,24.67,0,0,1,7.06,17.45,71.2,71.2,0,0,1-1.27,8.62,6.73,6.73,0,0,1-1.88,13.19,5.53,5.53,0,0,1-.71,0l0,.12a21.73,21.73,0,0,1-.46,2.61A20.69,20.69,0,0,1,158.14,281.05Zm-18-16.61a18.68,18.68,0,0,0,18,14.61h0a18.69,18.69,0,0,0,18-14.59,19.81,19.81,0,0,0,.43-2.5l.24-1.18a1,1,0,0,1,.46-.65A1,1,0,0,1,178,260a4.86,4.86,0,0,0,1.22.18h0a4.73,4.73,0,0,0,.59-9.42,1,1,0,0,1-.86-1.18,72.45,72.45,0,0,0,1.42-9.22,22.73,22.73,0,0,0-6.49-16,21.9,21.9,0,0,0-15.71-6.66h0a21.88,21.88,0,0,0-15.69,6.61,22.69,22.69,0,0,0-6.55,16,23.65,23.65,0,0,0,.45,4.59l.9,4.59a1,1,0,0,1-.18.8,1,1,0,0,1-.73.39,4.73,4.73,0,0,0,.33,9.45h0a4.77,4.77,0,0,0,1.47-.25,1,1,0,0,1,.82.08,1,1,0,0,1,.47.67l.24,1.2a20.48,20.48,0,0,0,.44,2.57Z"/><path class="cls-1" d="M142.08,253.79a1,1,0,0,1-.49-.13l-5.5-3.15a1,1,0,1,1,1-1.73l5.49,3.14a1,1,0,0,1-.5,1.87Z"/><path class="cls-1" d="M149.72,261.31h0a8.51,8.51,0,0,1,0-17h0a8.51,8.51,0,0,1,0,17Zm0-15a6.51,6.51,0,0,0,0,13h0a6.51,6.51,0,1,0,0-13Z"/><path class="cls-1" d="M167.53,261.34h0a8.51,8.51,0,0,1,0-17h0a8.51,8.51,0,0,1,8.49,8.52h0a8.5,8.5,0,0,1-8.5,8.49Zm0-15a6.51,6.51,0,1,0,0,13h0a6.51,6.51,0,0,0,0-13Zm7.5,6.52h0Z"/><path class="cls-1" d="M175,253.85a1,1,0,0,1-.87-.51,1,1,0,0,1,.37-1.36l4.69-2.69a1,1,0,0,1,1,1.74l-4.68,2.68A1,1,0,0,1,175,253.85Z"/><path class="cls-1" d="M153.5,226.26a.94.94,0,0,1-.55-.17,1,1,0,0,1-.28-1.39,43.71,43.71,0,0,1,8-8.79,1,1,0,1,1,1.28,1.54,42,42,0,0,0-7.65,8.36A1,1,0,0,1,153.5,226.26Z"/><path class="cls-1" d="M137.1,243.74h-.23a1,1,0,0,1-1-1,1,1,0,0,1,1-1c9.07.12,9.55-9.93,9.56-10.35a1,1,0,0,1,.54-.85,1,1,0,0,1,1,0c3.65,2.34,8.9,3.94,11.51,4a8.44,8.44,0,0,0,5.75-1.88,5.63,5.63,0,0,0,1.88-3.9v-.17a1,1,0,0,1,1.08-1.07,12.46,12.46,0,0,0,7.61-1.66c3.54-2.21,6.16-7.22,4.25-10.9a6,6,0,0,0-4.2-3.42c-3.51-.7-8.56,1.45-13.88,5.9a1,1,0,0,1-1.28-1.54c5.78-4.84,11.45-7.14,15.55-6.32a7.94,7.94,0,0,1,5.59,4.46c2.44,4.72-.6,10.8-5,13.51a14.1,14.1,0,0,1-7.81,2,7.69,7.69,0,0,1-2.48,4.6,10.42,10.42,0,0,1-7.1,2.38c-2.91,0-7.65-1.54-11.22-3.49C147.71,236.39,145.51,243.74,137.1,243.74Z"/><path class="cls-1" d="M160.78,264.88a1.45,1.45,0,0,1-.28,0l-4.45-1.31a1,1,0,0,1,.56-1.92l2.9.85-3.25-17.95a1,1,0,1,1,2-.36l3.55,19.55a1,1,0,0,1-.32.92A1,1,0,0,1,160.78,264.88Z"/><path class="cls-1" d="M159,270h0a8.84,8.84,0,0,1-6.23-2.33,1,1,0,1,1,1.4-1.42A7,7,0,0,0,159,268a1,1,0,0,1,0,2Z"/><path class="cls-1" d="M159,270a1,1,0,0,1-1-1,1,1,0,0,1,1-1h0a6.94,6.94,0,0,0,4.82-1.74,1,1,0,0,1,1.42,0,1,1,0,0,1,0,1.41A8.85,8.85,0,0,1,159,270Z"/><ellipse class="cls-1" cx="149.59" cy="252.8" rx="2.32" ry="1.68" transform="translate(-103.46 401.98) rotate(-89.91)"/><ellipse class="cls-1" cx="167.39" cy="252.83" rx="2.32" ry="1.68" transform="translate(-85.71 419.82) rotate(-89.91)"/><path class="cls-1" d="M199.08,305.2h0l-82.42-.13a1,1,0,0,1-.79-.38,1,1,0,0,1-.18-.85c3.54-15,13.38-27.34,26.33-33a1,1,0,0,1,1.21.33,18.16,18.16,0,0,0,14.88,7.87h0a18.13,18.13,0,0,0,14.78-7.69,1,1,0,0,1,1.22-.33c12.77,5.76,22.45,18.07,25.92,33a1,1,0,0,1-.2.85A1,1,0,0,1,199.08,305.2Zm-81.14-2.12,79.87.12c-3.49-13.44-12.27-24.54-23.76-30a20,20,0,0,1-32-.18C130.43,278.39,121.5,289.51,117.94,303.08Z"/><path class="cls-1" d="M209.91,304.89H105.84a1,1,0,0,1-1-1V199.82a1,1,0,0,1,1-1H209.91a1,1,0,0,1,1,1V303.89A1,1,0,0,1,209.91,304.89Zm-103.07-2H208.91V200.82H106.84Z"/></g></svg>