<?xml version="1.0" encoding="utf-8"?>
<!-- Generator: Adobe Illustrator 16.0.0, SVG Export Plug-In . SVG Version: 6.00 Build 0)  -->
<!DOCTYPE svg PUBLIC "-//W3C//DTD SVG 1.1//EN" "http://www.w3.org/Graphics/SVG/1.1/DTD/svg11.dtd">
<svg version="1.1" id="Layer_1" xmlns="http://www.w3.org/2000/svg" xmlns:xlink="http://www.w3.org/1999/xlink" x="0px" y="0px"
	 width="549.98px" height="424px" viewBox="0 0 549.98 424" enable-background="new 0 0 549.98 424" xml:space="preserve">
<g display="none">
	<defs>
		<rect id="SVGID_1_" x="-133" y="-260" width="1365.96" height="768"/>
	</defs>
	<clipPath id="SVGID_2_" display="inline">
		<use xlink:href="#SVGID_1_"  overflow="visible"/>
	</clipPath>
	
		<rect x="-133" y="-261.92" display="inline" clip-path="url(#SVGID_2_)" fill-rule="evenodd" clip-rule="evenodd" fill="#7D42FE" width="1365.96" height="768"/>
</g>
<g>
	<defs>
		<rect id="SVGID_3_" x="-133" y="-260" width="1365.96" height="768"/>
	</defs>
	<clipPath id="SVGID_4_">
		<use xlink:href="#SVGID_3_"  overflow="visible"/>
	</clipPath>
	<g clip-path="url(#SVGID_4_)">
		<text transform="matrix(1 0 0 1 1155.6797 473.9443)" fill="#898989" font-family="'Calibri'" font-size="18.024">8</text>
	</g>
</g>
<polygon fill-rule="evenodd" clip-rule="evenodd" fill="#8042FF" points="277.68,5.92 273.85,6.05 270.09,6.45 266.41,7.11 
	262.82,8 259.33,9.14 255.95,10.5 252.69,12.08 249.56,13.87 246.56,15.86 243.71,18.04 241.01,20.4 238.48,22.93 236.12,25.63 
	233.94,28.48 231.95,31.48 230.16,34.61 228.58,37.87 227.22,41.25 226.08,44.74 225.19,48.33 224.53,52.01 224.13,55.77 224,59.6 
	224.13,63.43 224.53,67.2 225.19,70.87 226.08,74.46 227.22,77.95 228.58,81.33 230.16,84.59 231.95,87.72 233.94,90.72 
	236.12,93.57 238.48,96.27 241.01,98.8 243.71,101.17 246.56,103.34 249.56,105.33 252.69,107.12 255.95,108.7 259.33,110.06 
	262.82,111.2 266.41,112.1 270.09,112.75 273.85,113.15 277.68,113.28 281.51,113.15 285.28,112.75 288.95,112.1 292.54,111.2 
	296.03,110.06 299.41,108.7 302.67,107.12 305.8,105.33 308.8,103.34 311.65,101.17 314.35,98.8 316.89,96.27 319.25,93.57 
	321.43,90.72 323.41,87.72 325.2,84.59 326.78,81.33 328.14,77.95 329.28,74.46 330.18,70.87 330.83,67.2 331.23,63.43 331.36,59.6 
	331.23,55.77 330.83,52.01 330.18,48.33 329.28,44.74 328.14,41.25 326.78,37.87 325.2,34.61 323.41,31.48 321.43,28.48 
	319.25,25.63 316.89,22.93 314.35,20.4 311.65,18.04 308.8,15.86 305.8,13.87 302.67,12.08 299.41,10.5 296.03,9.14 292.54,8 
	288.95,7.11 285.28,6.45 281.51,6.05 "/>
<polygon fill-rule="evenodd" clip-rule="evenodd" fill="#FFFFFF" points="277.75,4.96 274.01,5.09 270.34,5.46 266.75,6.07 
	263.24,6.91 259.82,7.98 256.5,9.25 253.29,10.74 250.2,12.42 247.23,14.29 244.39,16.35 241.7,18.57 239.15,20.97 236.76,23.52 
	234.53,26.22 232.48,29.05 230.61,32.03 228.93,35.12 227.45,38.34 226.17,41.66 225.11,45.08 224.27,48.6 223.66,52.2 
	223.29,55.87 223.16,59.61 223.29,63.35 223.66,67.03 224.27,70.62 225.11,74.14 226.17,77.56 227.45,80.88 228.93,84.1 
	230.61,87.19 232.48,90.17 234.53,93.01 236.76,95.7 239.15,98.25 241.7,100.65 244.39,102.87 247.23,104.93 250.2,106.8 
	253.29,108.48 256.5,109.97 259.82,111.24 263.24,112.31 266.75,113.15 270.34,113.76 274.01,114.13 277.75,114.26 277.75,112.39 
	273.82,112.24 269.96,111.82 266.19,111.12 262.52,110.16 258.96,108.94 255.53,107.48 252.21,105.8 249.04,103.89 246.02,101.77 
	243.16,99.44 240.47,96.93 237.96,94.24 235.64,91.37 233.52,88.35 231.62,85.17 229.93,81.86 228.47,78.42 227.26,74.85 
	226.3,71.18 225.6,67.41 225.17,63.55 225.03,59.61 225.17,55.67 225.6,51.81 226.3,48.04 227.26,44.37 228.47,40.8 229.93,37.36 
	231.62,34.05 233.52,30.87 235.64,27.85 237.96,24.98 240.47,22.29 243.16,19.78 246.02,17.45 249.04,15.33 252.21,13.42 
	255.53,11.74 258.96,10.28 262.52,9.07 266.19,8.1 269.96,7.4 273.82,6.98 277.75,6.83 291.93,6.83 288.75,6.07 285.16,5.46 
	281.49,5.09 "/>
<polygon fill-rule="evenodd" clip-rule="evenodd" fill="#FFFFFF" points="291.93,6.83 277.75,6.83 281.69,6.98 285.54,7.4 
	289.31,8.1 292.98,9.07 296.54,10.28 299.98,11.74 303.29,13.42 306.46,15.33 309.48,17.45 312.34,19.78 315.03,22.29 317.54,24.98 
	319.86,27.85 321.98,30.87 323.89,34.05 325.57,37.36 327.03,40.8 328.24,44.37 329.2,48.04 329.9,51.81 330.33,55.67 330.47,59.61 
	330.33,63.55 329.9,67.41 329.2,71.18 328.24,74.85 327.03,78.42 325.57,81.86 323.89,85.17 321.98,88.35 319.86,91.37 
	317.54,94.24 315.03,96.93 312.34,99.44 309.48,101.77 306.46,103.89 303.29,105.8 299.98,107.48 296.54,108.94 292.98,110.16 
	289.31,111.12 285.54,111.82 281.69,112.24 277.75,112.39 277.75,114.26 281.49,114.13 285.16,113.76 288.75,113.15 292.26,112.31 
	295.68,111.24 299,109.97 302.21,108.48 305.3,106.8 308.27,104.93 311.11,102.87 313.81,100.65 316.35,98.25 318.74,95.7 
	320.97,93.01 323.02,90.17 324.89,87.19 326.57,84.1 328.05,80.88 329.33,77.56 330.39,74.14 331.23,70.62 331.84,67.03 
	332.22,63.35 332.34,59.61 332.22,55.87 331.84,52.2 331.23,48.6 330.39,45.08 329.33,41.66 328.05,38.34 326.57,35.12 
	324.89,32.03 323.02,29.05 320.97,26.22 318.74,23.52 316.35,20.97 313.81,18.57 311.11,16.35 308.27,14.29 305.3,12.42 
	302.21,10.74 299,9.25 295.68,7.98 292.26,6.91 "/>
<polygon fill-rule="evenodd" clip-rule="evenodd" fill="#FFFFFF" points="59.58,197.08 55.89,197.22 52.17,197.62 48.48,198.26 
	44.9,199.14 41.42,200.25 38.06,201.57 34.81,203.1 31.7,204.82 28.73,206.74 25.89,208.83 23.21,211.1 20.69,213.52 18.32,216.1 
	16.13,218.82 14.12,221.68 12.29,224.66 10.65,227.75 9.21,230.95 7.97,234.25 6.95,237.63 6.15,241.1 5.57,244.63 5.22,248.22 
	5.12,251.87 5.26,255.56 5.66,259.27 6.3,262.96 7.18,266.54 8.29,270.01 9.61,273.37 11.14,276.61 12.87,279.72 14.79,282.69 
	16.89,285.52 19.15,288.2 21.58,290.72 24.16,293.08 26.89,295.27 29.75,297.29 32.73,299.11 35.83,300.75 39.03,302.19 
	42.33,303.42 45.72,304.44 49.19,305.25 52.72,305.82 56.32,306.17 59.97,306.27 63.66,306.13 67.38,305.74 67.2,304.4 59.32,304.4 
	55.49,304.23 51.72,303.79 48.02,303.09 44.41,302.13 40.89,300.92 37.48,299.47 34.19,297.79 31.03,295.89 28.01,293.78 
	25.15,291.47 22.45,288.96 19.93,286.26 17.6,283.38 15.46,280.34 13.54,277.14 11.85,273.78 10.38,270.28 9.16,266.65 8.2,262.89 
	7.51,259.01 7.11,255.1 6.99,251.22 7.16,247.39 7.6,243.62 8.31,239.93 9.27,236.32 10.48,232.81 11.93,229.4 13.61,226.12 
	15.51,222.96 17.62,219.95 19.94,217.09 22.46,214.39 25.16,211.87 28.03,209.54 31.08,207.41 34.29,205.49 37.65,203.8 
	41.15,202.34 44.79,201.12 48.55,200.16 52.43,199.47 56.35,199.06 60.23,198.95 73.97,198.95 73.83,198.91 70.37,198.11 
	66.83,197.53 63.23,197.18 "/>
<polygon fill-rule="evenodd" clip-rule="evenodd" fill="#FFFFFF" points="73.97,198.95 60.23,198.95 64.07,199.12 67.84,199.56 
	71.53,200.27 75.15,201.23 78.66,202.44 82.07,203.88 85.36,205.56 88.52,207.46 91.54,209.57 94.4,211.89 97.1,214.4 99.62,217.09 
	101.96,219.97 104.09,223.01 106.01,226.22 107.71,229.57 109.17,233.07 110.39,236.7 111.35,240.46 112.04,244.34 112.45,248.26 
	112.56,252.13 112.39,255.96 111.95,259.73 111.24,263.42 110.28,267.03 109.07,270.54 107.62,273.95 105.94,277.23 104.04,280.39 
	101.93,283.4 99.61,286.27 97.1,288.96 94.4,291.48 91.52,293.81 88.47,295.94 85.27,297.86 81.91,299.55 78.4,301.02 74.77,302.23 
	71,303.19 67.12,303.88 67.38,305.74 71.07,305.09 74.66,304.21 78.13,303.11 81.5,301.78 84.74,300.26 87.85,298.53 90.83,296.61 
	93.66,294.52 96.34,292.25 98.87,289.83 101.23,287.25 103.42,284.53 105.44,281.67 107.27,278.7 108.9,275.6 110.34,272.4 
	111.58,269.1 112.6,265.72 113.41,262.25 113.98,258.72 114.33,255.13 114.43,251.48 114.29,247.8 113.9,244.08 113.25,240.4 
	112.37,236.81 111.26,233.34 109.94,229.98 108.41,226.74 106.68,223.63 104.76,220.66 102.67,217.83 100.4,215.15 97.97,212.63 
	95.39,210.27 92.67,208.08 89.81,206.07 86.83,204.24 83.73,202.6 80.52,201.16 77.22,199.93 "/>
<polygon fill-rule="evenodd" clip-rule="evenodd" fill="#FFFFFF" points="67.12,303.88 63.2,304.29 59.32,304.4 67.2,304.4 "/>
<polygon fill-rule="evenodd" clip-rule="evenodd" fill="#8042FF" points="491.53,198.04 487.75,198.17 483.94,198.57 480.16,199.24 
	476.49,200.15 472.94,201.31 469.51,202.7 466.21,204.31 463.06,206.13 460.05,208.15 457.19,210.35 454.5,212.74 451.98,215.29 
	449.64,218.01 447.48,220.87 445.52,223.87 443.76,227 442.21,230.24 440.87,233.59 439.76,237.04 438.88,240.58 438.24,244.19 
	437.85,247.87 437.72,251.6 437.85,255.38 438.25,259.2 438.92,262.98 439.83,266.64 440.99,270.2 442.38,273.62 443.99,276.92 
	445.81,280.08 447.83,283.09 450.03,285.94 452.42,288.63 454.97,291.15 457.69,293.5 460.55,295.65 463.55,297.62 466.68,299.38 
	469.92,300.93 473.27,302.26 476.72,303.37 480.26,304.25 483.87,304.89 487.55,305.28 491.28,305.41 495.06,305.29 498.88,304.89 
	502.66,304.22 506.32,303.3 509.88,302.14 513.3,300.75 516.6,299.14 519.76,297.33 522.77,295.31 525.62,293.1 528.31,290.71 
	530.83,288.16 533.18,285.45 535.33,282.58 537.3,279.58 539.06,276.46 540.61,273.21 541.94,269.86 543.05,266.41 543.93,262.88 
	544.57,259.26 544.96,255.58 545.09,251.85 544.97,248.07 544.57,244.26 543.9,240.48 542.98,236.81 541.82,233.26 540.43,229.83 
	538.82,226.53 537.01,223.38 534.99,220.37 532.78,217.51 530.39,214.82 527.84,212.3 525.13,209.96 522.26,207.8 519.26,205.84 
	516.14,204.08 512.89,202.53 509.54,201.19 506.09,200.08 502.56,199.2 498.94,198.56 495.27,198.17 "/>
<polygon fill-rule="evenodd" clip-rule="evenodd" fill="#FFFFFF" points="491.22,197.08 487.53,197.22 483.81,197.62 480.12,198.26 
	476.54,199.14 473.06,200.25 469.7,201.57 466.45,203.1 463.34,204.82 460.37,206.74 457.53,208.83 454.85,211.1 452.33,213.52 
	449.96,216.1 447.77,218.82 445.76,221.68 443.93,224.66 442.29,227.75 440.85,230.95 439.61,234.25 438.59,237.63 437.79,241.1 
	437.21,244.63 436.86,248.22 436.76,251.87 436.9,255.56 437.3,259.27 437.94,262.96 438.82,266.54 439.93,270.01 441.25,273.37 
	442.78,276.61 444.51,279.72 446.43,282.69 448.53,285.52 450.79,288.2 453.22,290.72 455.8,293.08 458.53,295.27 461.39,297.29 
	464.37,299.11 467.47,300.75 470.67,302.19 473.97,303.42 477.36,304.44 480.83,305.25 484.36,305.82 487.96,306.17 491.61,306.27 
	495.3,306.13 499.02,305.74 498.83,304.4 490.96,304.4 487.13,304.23 483.36,303.79 479.66,303.09 476.05,302.13 472.53,300.92 
	469.12,299.47 465.83,297.79 462.67,295.89 459.65,293.78 456.79,291.47 454.09,288.96 451.57,286.26 449.24,283.38 447.1,280.34 
	445.18,277.14 443.49,273.78 442.02,270.28 440.8,266.65 439.84,262.89 439.15,259.01 438.75,255.1 438.63,251.22 438.8,247.39 
	439.24,243.62 439.95,239.93 440.91,236.32 442.12,232.81 443.57,229.4 445.25,226.12 447.15,222.96 449.26,219.95 451.58,217.09 
	454.1,214.39 456.8,211.87 459.67,209.54 462.72,207.41 465.93,205.49 469.29,203.8 472.79,202.33 476.43,201.12 480.19,200.16 
	484.07,199.47 487.99,199.06 491.87,198.95 505.61,198.95 505.47,198.91 502.01,198.11 498.47,197.53 494.87,197.18 "/>
<polygon fill-rule="evenodd" clip-rule="evenodd" fill="#FFFFFF" points="505.61,198.95 491.87,198.95 495.71,199.12 499.48,199.56 
	503.17,200.26 506.79,201.23 510.3,202.44 513.71,203.88 517,205.56 520.16,207.46 523.18,209.57 526.04,211.89 528.74,214.4 
	531.26,217.09 533.6,219.97 535.73,223.01 537.65,226.22 539.35,229.57 540.81,233.07 542.03,236.7 542.99,240.46 543.68,244.34 
	544.09,248.26 544.2,252.13 544.03,255.96 543.59,259.73 542.88,263.42 541.92,267.03 540.71,270.54 539.26,273.95 537.58,277.23 
	535.68,280.39 533.57,283.41 531.25,286.27 528.74,288.96 526.04,291.48 523.16,293.81 520.11,295.94 516.91,297.86 513.55,299.56 
	510.04,301.02 506.41,302.23 502.64,303.19 498.76,303.88 499.02,305.74 502.71,305.09 506.3,304.21 509.77,303.11 513.14,301.78 
	516.38,300.26 519.49,298.53 522.47,296.61 525.3,294.52 527.98,292.26 530.51,289.83 532.87,287.25 535.06,284.53 537.08,281.68 
	538.91,278.7 540.55,275.6 541.99,272.4 543.22,269.1 544.24,265.72 545.05,262.25 545.62,258.72 545.97,255.13 546.07,251.48 
	545.93,247.8 545.54,244.08 544.89,240.4 544.01,236.81 542.9,233.34 541.58,229.98 540.05,226.74 538.32,223.63 536.4,220.66 
	534.31,217.83 532.04,215.15 529.61,212.63 527.03,210.27 524.31,208.08 521.45,206.07 518.47,204.24 515.37,202.6 512.16,201.16 
	508.86,199.93 "/>
<polygon fill-rule="evenodd" clip-rule="evenodd" fill="#FFFFFF" points="498.76,303.88 494.84,304.29 490.96,304.4 498.83,304.4 
	"/>
<line fill="none" stroke="#FFFFFF" stroke-width="1.92" stroke-linejoin="round" stroke-miterlimit="10" x1="277.16" y1="134.68" x2="277.16" y2="284.41"/>
<polygon fill-rule="evenodd" clip-rule="evenodd" fill="#FFFFFF" points="269.04,137.56 285.32,137.56 277.18,118.76 "/>
<rect x="95.546" y="148.722" transform="matrix(0.7071 -0.7071 0.7071 0.7071 -57.4432 160.6298)" fill-rule="evenodd" clip-rule="evenodd" fill="#FFFFFF" width="139.258" height="1.867"/>
<polygon fill-rule="evenodd" clip-rule="evenodd" fill="#FFFFFF" points="213.23,111.4 223.04,91.31 202,100.68 "/>
<rect x="385.902" y="80.816" transform="matrix(0.707 -0.7072 0.7072 0.707 8.6418 316.9679)" fill-rule="evenodd" clip-rule="evenodd" fill="#FFFFFF" width="1.867" height="134.478"/>
<polygon fill-rule="evenodd" clip-rule="evenodd" fill="#FFFFFF" points="339.74,111.88 349.88,101.42 330.87,92.27 "/>
<polygon fill-rule="evenodd" clip-rule="evenodd" fill="#FFFFFF" points="276.79,310.48 273.05,310.67 269.39,311.11 265.81,311.78 
	262.31,312.68 258.91,313.81 255.62,315.14 252.43,316.68 249.37,318.41 246.43,320.34 243.63,322.44 240.98,324.71 238.47,327.14 
	236.13,329.73 233.95,332.46 231.95,335.34 230.13,338.34 228.51,341.46 227.08,344.69 225.86,348.03 224.86,351.47 224.08,355 
	223.53,358.6 223.22,362.28 223.16,366.02 223.35,369.75 223.79,373.41 224.46,377 225.36,380.49 226.49,383.89 227.82,387.19 
	229.36,390.37 231.09,393.43 233.01,396.37 235.12,399.17 237.39,401.83 239.82,404.33 242.41,406.68 245.14,408.854 
	248.01,410.856 251.02,412.674 254.14,414.3 257.37,415.726 260.71,416.945 264.15,417.948 267.67,418.728 271.28,419.276 
	274.96,419.584 278.69,419.645 278.66,417.776 274.73,417.7 270.86,417.34 267.08,416.707 263.4,415.81 259.82,414.659 
	256.35,413.265 253.01,411.637 249.81,409.785 246.75,407.72 243.85,405.45 241.12,402.98 238.56,400.34 236.19,397.52 
	234.02,394.54 232.06,391.4 230.32,388.12 228.8,384.71 227.53,381.17 226.5,377.52 225.74,373.76 225.24,369.91 225.03,365.98 
	225.1,362.05 225.46,358.18 226.1,354.4 226.99,350.72 228.15,347.14 229.54,343.67 231.17,340.34 233.02,337.13 235.09,334.08 
	237.35,331.17 239.82,328.44 242.46,325.88 245.28,323.51 248.27,321.34 251.4,319.38 254.69,317.64 258.1,316.12 261.64,314.85 
	265.29,313.82 269.04,313.06 272.89,312.56 276.82,312.35 291.92,312.35 291.33,312.18 287.81,311.4 284.2,310.85 280.53,310.54 "/>
<polygon fill-rule="evenodd" clip-rule="evenodd" fill="#FFFFFF" points="291.92,312.35 276.82,312.35 280.76,312.42 284.62,312.78 
	288.4,313.42 292.09,314.31 295.67,315.47 299.13,316.86 302.47,318.49 305.67,320.34 308.73,322.41 311.63,324.68 314.37,327.14 
	316.92,329.79 319.29,332.61 321.46,335.59 323.42,338.73 325.17,342.01 326.68,345.42 327.96,348.96 328.98,352.61 329.75,356.36 
	330.24,360.21 330.46,364.14 330.38,368.08 330.02,371.94 329.39,375.72 328.49,379.41 327.34,382.99 325.94,386.45 324.32,389.79 
	322.46,392.99 320.4,396.05 318.13,398.95 315.67,401.69 313.02,404.24 310.2,406.61 307.22,408.783 304.08,410.745 300.8,412.489 
	297.39,414.003 293.85,415.278 290.2,416.303 286.44,417.068 282.59,417.562 278.66,417.776 278.69,419.645 282.43,419.454 
	286.09,419.017 289.68,418.344 293.17,417.442 296.57,416.319 299.87,414.984 303.05,413.446 306.11,411.712 309.06,409.785 
	311.85,407.69 314.51,405.42 317.01,402.98 319.36,400.4 321.53,397.66 323.53,394.79 325.35,391.79 326.98,388.67 328.41,385.43 
	329.62,382.09 330.63,378.65 331.41,375.13 331.95,371.53 332.26,367.85 332.32,364.11 332.13,360.38 331.7,356.71 331.02,353.13 
	330.12,349.63 329,346.23 327.66,342.94 326.13,339.75 324.39,336.69 322.47,333.75 320.37,330.95 318.1,328.3 315.66,325.79 
	313.08,323.45 310.34,321.27 307.47,319.27 304.47,317.45 301.35,315.83 298.11,314.4 294.77,313.18 "/>
<polygon fill-rule="evenodd" clip-rule="evenodd" fill="#FFFFFF" points="269.13,75.16 256.62,75.16 246.56,85.49 247.9,86.79 
	257.41,77.03 270.95,77.03 "/>
<polygon fill-rule="evenodd" clip-rule="evenodd" fill="#FFFFFF" points="301.9,77.03 299.29,77.03 308.8,86.79 310.14,85.49 "/>
<polygon fill-rule="evenodd" clip-rule="evenodd" fill="#FFFFFF" points="270.95,77.03 268.34,77.03 273.21,82.02 283.95,82 
	285.75,80.15 274,80.15 "/>
<polygon fill-rule="evenodd" clip-rule="evenodd" fill="#FFFFFF" points="300.08,75.16 288,75.16 283.16,80.13 274,80.15 
	285.75,80.15 288.79,77.03 301.9,77.03 "/>
<polygon fill-rule="evenodd" clip-rule="evenodd" fill="#FFFFFF" points="309.25,83.44 308.33,83.62 307.52,84.16 306.98,84.97 
	306.8,85.89 306.98,86.82 307.52,87.63 308.33,88.17 309.25,88.35 310.18,88.17 310.99,87.63 311.53,86.82 311.71,85.89 
	311.53,84.97 310.99,84.16 310.18,83.62 "/>
<polygon fill-rule="evenodd" clip-rule="evenodd" fill="#FFFFFF" points="247.39,83.44 246.49,83.62 245.7,84.16 245.18,84.97 
	245,85.89 245.18,86.82 245.7,87.63 246.49,88.17 247.39,88.35 248.29,88.17 249.09,87.63 249.61,86.82 249.79,85.89 249.61,84.97 
	249.09,84.16 248.29,83.62 "/>
<polygon fill-rule="evenodd" clip-rule="evenodd" fill="#FFFFFF" points="284.93,27.28 272.23,27.28 262.88,36.54 262.88,55.47 
	271.68,64.18 271.68,70.32 273.55,70.32 273.55,63.4 264.75,54.69 264.75,37.32 273,29.15 286.82,29.15 "/>
<polygon fill-rule="evenodd" clip-rule="evenodd" fill="#FFFFFF" points="286.82,29.15 284.16,29.15 292.41,37.32 292.41,54.69 
	283.61,63.4 283.61,70.32 285.48,70.32 285.48,64.18 294.28,55.47 294.28,36.54 "/>
<polygon fill-rule="evenodd" clip-rule="evenodd" fill="#FFFFFF" points="272.65,67.84 271.7,68.03 270.92,68.54 270.39,69.3 
	270.2,70.23 270.39,71.17 270.92,71.93 271.7,72.44 272.65,72.63 273.61,72.44 274.39,71.93 274.91,71.17 275.11,70.23 274.91,69.3 
	274.39,68.54 273.61,68.03 "/>
<polygon fill-rule="evenodd" clip-rule="evenodd" fill="#FFFFFF" points="284.47,67.84 283.54,68.03 282.78,68.54 282.27,69.3 
	282.08,70.23 282.27,71.17 282.78,71.93 283.54,72.44 284.47,72.63 285.41,72.44 286.17,71.93 286.68,71.17 286.87,70.23 
	286.68,69.3 286.17,68.54 285.41,68.03 "/>
<line fill="none" stroke="#FFFFFF" stroke-width="1.92" stroke-linejoin="round" stroke-miterlimit="10" x1="28.28" y1="278.8" x2="87.54" y2="278.8"/>
<polygon fill-rule="evenodd" clip-rule="evenodd" fill="#FFFFFF" points="28.39,276.88 27.6,277.04 26.95,277.47 26.52,278.12 
	26.36,278.91 26.52,279.69 26.95,280.34 27.6,280.77 28.39,280.93 29.17,280.77 29.82,280.34 30.25,279.69 30.41,278.91 
	30.25,278.12 29.82,277.47 29.17,277.04 "/>
<polygon fill-rule="evenodd" clip-rule="evenodd" fill="#FFFFFF" points="87.48,276.88 86.67,277.04 86.01,277.47 85.56,278.12 
	85.4,278.91 85.56,279.69 86.01,280.34 86.67,280.77 87.48,280.93 88.3,280.77 88.96,280.34 89.41,279.69 89.57,278.91 
	89.41,278.12 88.96,277.47 88.3,277.04 "/>
<line fill="none" stroke="#FFFFFF" stroke-width="1.92" stroke-linejoin="round" stroke-miterlimit="10" x1="73.64" y1="246.88" x2="73.64" y2="272.99"/>
<polygon fill-rule="evenodd" clip-rule="evenodd" fill="#FFFFFF" points="73.63,244.96 72.84,245.12 72.19,245.55 71.76,246.2 
	71.6,246.98 71.76,247.77 72.19,248.42 72.84,248.85 73.63,249.01 74.41,248.85 75.06,248.42 75.49,247.77 75.65,246.98 
	75.49,246.2 75.06,245.55 74.41,245.12 "/>
<line fill="none" stroke="#FFFFFF" stroke-width="1.92" stroke-linejoin="round" stroke-miterlimit="10" x1="81.68" y1="246.88" x2="81.68" y2="272.99"/>
<polygon fill-rule="evenodd" clip-rule="evenodd" fill="#FFFFFF" points="81.67,244.96 80.88,245.12 80.23,245.55 79.8,246.2 
	79.64,246.98 79.8,247.77 80.23,248.42 80.88,248.85 81.67,249.01 82.45,248.85 83.1,248.42 83.53,247.77 83.69,246.98 83.53,246.2 
	83.1,245.55 82.45,245.12 "/>
<line fill="none" stroke="#FFFFFF" stroke-width="1.92" stroke-linejoin="round" stroke-miterlimit="10" x1="34.16" y1="246.88" x2="34.16" y2="272.99"/>
<polygon fill-rule="evenodd" clip-rule="evenodd" fill="#FFFFFF" points="34.2,244.96 33.39,245.12 32.73,245.55 32.28,246.2 
	32.12,246.98 32.28,247.77 32.73,248.42 33.39,248.85 34.2,249.01 35.02,248.85 35.68,248.42 36.13,247.77 36.29,246.98 
	36.13,246.2 35.68,245.55 35.02,245.12 "/>
<line fill="none" stroke="#FFFFFF" stroke-width="1.92" stroke-linejoin="round" stroke-miterlimit="10" x1="42.2" y1="246.88" x2="42.2" y2="272.99"/>
<polygon fill-rule="evenodd" clip-rule="evenodd" fill="#FFFFFF" points="42.19,244.96 41.4,245.12 40.75,245.55 40.32,246.2 
	40.16,246.98 40.32,247.77 40.75,248.42 41.4,248.85 42.19,249.01 42.97,248.85 43.62,248.42 44.05,247.77 44.21,246.98 
	44.05,246.2 43.62,245.55 42.97,245.12 "/>
<polygon fill-rule="evenodd" clip-rule="evenodd" fill="#FFFFFF" points="57.94,217 28.28,234.14 28.28,241.21 87.52,241.21 
	87.52,240.27 85.65,240.27 85.65,239.34 30.15,239.34 30.15,235.21 57.94,219.16 61.67,219.16 "/>
<polygon fill-rule="evenodd" clip-rule="evenodd" fill="#FFFFFF" points="61.67,219.16 57.94,219.16 85.65,235.21 85.65,240.27 
	86.58,240.27 86.58,239.34 87.52,239.34 87.52,234.14 "/>
<rect x="86.58" y="239.335" fill-rule="evenodd" clip-rule="evenodd" fill="#FFFFFF" width="0.934" height="0.935"/>
<rect x="57.12" y="247.6" fill-rule="evenodd" clip-rule="evenodd" fill="#FFFFFF" width="1.64" height="23.641"/>
<polygon fill-rule="evenodd" clip-rule="evenodd" fill="#FFFFFF" points="52.46,264.82 51.28,265.98 53.77,268.52 57.12,268.52 
	57.12,266.87 54.46,266.87 "/>
<polygon fill-rule="evenodd" clip-rule="evenodd" fill="#FFFFFF" points="61.76,258.59 58.76,258.59 58.76,260.24 61.06,260.24 
	63.19,262.42 63.19,264.7 61.06,266.87 58.76,266.87 58.76,268.52 61.76,268.52 64.83,265.37 64.83,261.74 "/>
<polygon fill-rule="evenodd" clip-rule="evenodd" fill="#FFFFFF" points="57.12,250.32 54.67,250.32 51.2,253.44 51.2,257.09 
	54.27,260.24 57.12,260.24 57.12,258.59 54.97,258.59 52.85,256.42 52.85,254.17 55.3,251.97 57.12,251.97 "/>
<polygon fill-rule="evenodd" clip-rule="evenodd" fill="#FFFFFF" points="61.6,250.32 58.76,250.32 58.76,251.97 60.91,251.97 
	62.67,253.78 63.85,252.63 "/>
<g>
	<defs>
		<rect id="SVGID_5_" x="-133" y="-260" width="1365.96" height="768"/>
	</defs>
	<clipPath id="SVGID_6_">
		<use xlink:href="#SVGID_5_"  overflow="visible"/>
	</clipPath>
	<g clip-path="url(#SVGID_6_)">
		<defs>
			<rect id="SVGID_7_" x="251.12" y="340.121" width="53.161" height="54.119"/>
		</defs>
		<clipPath id="SVGID_8_">
			<use xlink:href="#SVGID_7_"  overflow="visible"/>
		</clipPath>
		<g clip-path="url(#SVGID_8_)">
			<defs>
				<rect id="SVGID_9_" x="251.219" y="340.121" width="52.958" height="54.168"/>
			</defs>
			<clipPath id="SVGID_10_">
				<use xlink:href="#SVGID_9_"  overflow="visible"/>
			</clipPath>
			<polygon clip-path="url(#SVGID_10_)" fill="#FFFFFF" points="258.563,383.101 254.158,390.71 254.157,389.856 255.959,392.961 
				255.224,392.537 258.828,392.537 258.092,392.961 259.893,389.856 259.893,390.711 258.092,387.607 258.828,388.031 
				255.224,388.031 255.224,386.329 259.317,386.329 261.613,390.284 259.317,394.239 254.734,394.239 252.438,390.284 
				257.09,382.248 			"/>
		</g>
		<g clip-path="url(#SVGID_8_)">
			<defs>
				<rect id="SVGID_11_" x="251.219" y="340.121" width="52.958" height="54.168"/>
			</defs>
			<clipPath id="SVGID_12_">
				<use xlink:href="#SVGID_11_"  overflow="visible"/>
			</clipPath>
			<polygon clip-path="url(#SVGID_12_)" fill="#FFFFFF" points="252.921,341.072 258.577,341.072 258.577,382.774 257.726,381.924 
				293.858,381.924 298.652,390.287 296.358,394.239 291.874,394.239 289.578,390.284 291.874,386.329 295.868,386.329 
				295.868,388.031 292.364,388.031 293.1,387.607 291.298,390.711 291.298,389.856 293.1,392.961 292.364,392.537 295.868,392.537 
				295.132,392.961 296.934,389.856 296.931,390.707 292.627,383.198 293.365,383.625 256.875,383.625 256.875,341.923 
				257.726,342.774 252.921,342.774 			"/>
		</g>
		<g clip-path="url(#SVGID_8_)">
			<defs>
				<rect id="SVGID_13_" x="251.219" y="340.121" width="52.958" height="54.168"/>
			</defs>
			<clipPath id="SVGID_14_">
				<use xlink:href="#SVGID_13_"  overflow="visible"/>
			</clipPath>
			<path clip-path="url(#SVGID_14_)" fill="#FFFFFF" d="M253.021,343.726c-1.001,0-1.802-0.802-1.802-1.803s0.801-1.802,1.802-1.802
				c1.001,0,1.802,0.801,1.802,1.802S254.022,343.726,253.021,343.726"/>
		</g>
		<g clip-path="url(#SVGID_8_)">
			<defs>
				<rect id="SVGID_15_" x="251.219" y="340.121" width="52.958" height="54.168"/>
			</defs>
			<clipPath id="SVGID_16_">
				<use xlink:href="#SVGID_15_"  overflow="visible"/>
			</clipPath>
			<path clip-path="url(#SVGID_16_)" fill="#FFFFFF" d="M257.726,347.681h46.501v17.999l-4.663,8.134h-41.838v-1.702h41.346
				l-0.739,0.428l4.305-7.51l-0.113,0.424v-16.922l0.851,0.851h-45.65V347.681z M295.567,357.693h-30.033v-1.702h30.033V357.693z
				 M295.567,365.703h-30.033v-1.702h30.033V365.703z"/>
		</g>
	</g>
</g>
<g>
	<defs>
		<rect id="SVGID_17_" x="-133" y="-260" width="1365.96" height="768"/>
	</defs>
	<clipPath id="SVGID_18_">
		<use xlink:href="#SVGID_17_"  overflow="visible"/>
	</clipPath>
	<g clip-path="url(#SVGID_18_)">
		<defs>
			<rect id="SVGID_19_" x="461.72" y="219.4" width="59.28" height="60.84"/>
		</defs>
		<clipPath id="SVGID_20_">
			<use xlink:href="#SVGID_19_"  overflow="visible"/>
		</clipPath>
		<path clip-path="url(#SVGID_20_)" fill="#FFFFFF" d="M495.001,239.877l0.21-0.521v3.45l-0.748-0.75h5.463v8.327h-5.463l0.748-0.75
			l0,22.355h-8.308v-22.355l0.749,0.75h-4.641v-8.327h4.641l-0.749,0.75v-6.609l6.573-6.668h7.049v8.326h-3.892l0.539-0.229
			L495.001,239.877z M496.316,236.354h3.461l-0.749,0.75v-6.826l0.749,0.75h-5.988l0.533-0.224l-6.137,6.228l0.216-0.528v7.052
			h-4.641l0.749-0.75v6.827l-0.749-0.75h4.641v22.355l-0.749-0.75h6.811l-0.749,0.75v-22.355h5.463l-0.749,0.75v-6.827l0.749,0.75
			h-5.463v-4.504L496.316,236.354z"/>
		<g clip-path="url(#SVGID_20_)">
			<defs>
				<rect id="SVGID_21_" x="461.72" y="219.4" width="59.274" height="60.915"/>
			</defs>
			<clipPath id="SVGID_22_">
				<use xlink:href="#SVGID_21_"  overflow="visible"/>
			</clipPath>
			<path clip-path="url(#SVGID_22_)" fill="#FFFFFF" d="M509.13,219.402l3.87,0.49l2.971,1.414l2.175,1.926l1.41,2.22l0.843,2.188
				l0.441,1.914l0.2,1.353v0.525v37.038l-0.489,3.874l-1.362,2.983l-1.971,2.179l-2.164,1.412l-2.186,0.847l-1.91,0.441
				l-1.351,0.201h-0.524h-35.358l-3.863-0.49l-3.028-1.366l-2.123-1.976l-1.455-2.163l-0.847-2.196l-0.44-1.914l-0.2-1.354v-0.525
				v-37.038l0.49-3.877l1.41-3.029l1.921-2.128l2.21-1.46l2.188-0.848l1.909-0.441l1.351-0.2h0.524H509.13z M473.771,220.902h-0.469
				l0.109-0.008l-1.266,0.188l0.059-0.011l-1.829,0.423l0.101-0.031l-2.063,0.799l0.143-0.073l-2.063,1.363l0.143-0.123
				l-1.782,1.975l0.124-0.187l-1.313,2.82l0.064-0.224l-0.469,3.714l0.006-0.095v36.991v0.471l-0.008-0.11l0.188,1.269l-0.011-0.059
				l0.422,1.834l-0.031-0.103l0.797,2.068l-0.078-0.149l1.36,2.021l-0.111-0.13l1.97,1.833l-0.202-0.135l2.813,1.27l-0.213-0.061
				l3.705,0.47l-0.094-0.006h35.312h0.469l-0.109,0.008l1.266-0.188l-0.059,0.011l1.829-0.423l-0.101,0.031l2.063-0.799
				l-0.139,0.071l2.017-1.316l-0.146,0.125l1.829-2.021l-0.126,0.191l1.267-2.772l-0.063,0.218l0.469-3.714l-0.006,0.095v-36.991
				v-0.47l0.008,0.109l-0.188-1.269l0.011,0.059l-0.422-1.833l0.031,0.102l-0.797-2.068l0.066,0.133l-1.313-2.068l0.136,0.16
				l-2.016-1.786l0.175,0.115l-2.767-1.316l0.227,0.066l-3.705-0.47l0.094,0.006H473.771z"/>
		</g>
	</g>
</g>
<path fill-rule="evenodd" clip-rule="evenodd" fill="#FFFFFF" d="M272.48,288.16c0-2.58,2.1-4.68,4.68-4.68s4.68,2.1,4.68,4.68
	s-2.1,4.68-4.68,4.68S272.48,290.74,272.48,288.16z"/>
<path fill-rule="evenodd" clip-rule="evenodd" fill="#FFFFFF" d="M112.16,198.04c0-2.58,2.1-4.68,4.68-4.68s4.68,2.1,4.68,4.68
	s-2.1,4.68-4.68,4.68S112.16,200.62,112.16,198.04z"/>
<path fill-rule="evenodd" clip-rule="evenodd" fill="#FFFFFF" d="M431.24,197.56c0-2.579,2.1-4.68,4.68-4.68s4.68,2.101,4.68,4.68
	c0,2.58-2.1,4.681-4.68,4.681S431.24,200.14,431.24,197.56z"/>
<rect x="-133" y="-260" fill="none" width="1365.96" height="768"/>
</svg>
