<svg xmlns="http://www.w3.org/2000/svg" viewBox="0 0 500 500"><defs><style>.cls-1{fill:#404040;}.cls-2{fill:#fafafa;}.cls-3{fill:#804cfb;}</style></defs><title>shops_ico</title><g id="Warstwa_3" data-name="Warstwa 3"><path class="cls-1" d="M143.58,210.91H327.12a0,0,0,0,1,0,0V331.5a12.33,12.33,0,0,1-12.33,12.33H155.91a12.33,12.33,0,0,1-12.33-12.33V210.91A0,0,0,0,1,143.58,210.91Z"/><path class="cls-2" d="M314.79,344.83H155.91a13.35,13.35,0,0,1-13.33-13.33V210.91a1,1,0,0,1,1-1H327.12a1,1,0,0,1,1,1V331.5A13.35,13.35,0,0,1,314.79,344.83ZM144.58,211.91V331.5a11.34,11.34,0,0,0,11.33,11.33H314.79a11.34,11.34,0,0,0,11.33-11.33V211.91Z"/><polygon class="cls-1" points="340.63 210.91 130.07 210.91 150.23 124.54 319.64 124.54 340.63 210.91"/><path class="cls-2" d="M340.63,211.91H130.07a1,1,0,0,1-1-1.22l20.16-86.37a1,1,0,0,1,1-.78H319.64a1,1,0,0,1,1,.77l21,86.37a1,1,0,0,1-.18.85A1,1,0,0,1,340.63,211.91Zm-209.3-2h208l-20.5-84.37H151Z"/><path class="cls-1" d="M182.71,210.91a26.32,26.32,0,1,1-52.64,0Z"/><path class="cls-2" d="M156.39,238.24a27.35,27.35,0,0,1-27.32-27.33,1,1,0,0,1,1-1h52.64a1,1,0,0,1,1,1A27.36,27.36,0,0,1,156.39,238.24Zm-25.3-26.33a25.32,25.32,0,0,0,50.6,0Z"/><path class="cls-1" d="M235.35,210.91a26.32,26.32,0,1,1-52.64,0Z"/><path class="cls-2" d="M209,238.24a27.35,27.35,0,0,1-27.32-27.33,1,1,0,0,1,1-1h52.64a1,1,0,0,1,1,1A27.36,27.36,0,0,1,209,238.24Zm-25.3-26.33a25.32,25.32,0,0,0,50.6,0Z"/><path class="cls-1" d="M288,210.91a26.32,26.32,0,1,1-52.64,0Z"/><path class="cls-2" d="M261.67,238.24a27.36,27.36,0,0,1-27.32-27.33,1,1,0,0,1,1-1H288a1,1,0,0,1,1,1A27.35,27.35,0,0,1,261.67,238.24Zm-25.3-26.33a25.32,25.32,0,0,0,50.6,0Z"/><path class="cls-1" d="M340.63,210.91a26.32,26.32,0,1,1-52.64,0Z"/><path class="cls-2" d="M314.31,238.24A27.36,27.36,0,0,1,287,210.91a1,1,0,0,1,1-1h52.64a1,1,0,0,1,1,1A27.35,27.35,0,0,1,314.31,238.24ZM289,211.91a25.32,25.32,0,0,0,50.6,0Z"/><path class="cls-2" d="M182.71,211.91h-.12a1,1,0,0,1-.87-1.11l10.13-86.37a1,1,0,1,1,2,.23L183.7,211A1,1,0,0,1,182.71,211.91Z"/><path class="cls-2" d="M288,211.91a1,1,0,0,1-1-.87l-10.7-86.37a1,1,0,1,1,2-.25L289,210.79a1,1,0,0,1-.87,1.12Z"/><path class="cls-2" d="M235.35,211.91a1,1,0,0,1-1-1l-.28-86.37a1,1,0,0,1,1-1h0a1,1,0,0,1,1,1l.28,86.37a1,1,0,0,1-1,1Z"/><path class="cls-3" d="M225.81,279.08h144a0,0,0,0,1,0,0v96.25a0,0,0,0,1,0,0h-144a10.58,10.58,0,0,1-10.58-10.58v-75.1A10.58,10.58,0,0,1,225.81,279.08Z" transform="translate(0.53 -0.47) rotate(0.09)"/><path class="cls-2" d="M286.85,302.8h0l-57.93-.09a1,1,0,0,1,0-2h0l57.93.09a1,1,0,0,1,1,1A1,1,0,0,1,286.85,302.8Z"/><path class="cls-2" d="M286.83,312.83h0l-57.93-.09a1,1,0,1,1,0-2h0l57.93.09a1,1,0,0,1,0,2Z"/><path class="cls-2" d="M286.82,322.86h0l-57.93-.1a1,1,0,0,1-1-1,1,1,0,0,1,1-1l57.93.1a1,1,0,1,1,0,2Z"/><path class="cls-2" d="M286.8,332.88h0l-57.93-.09a1,1,0,0,1,0-2h0l57.93.09a1,1,0,0,1,1,1A1,1,0,0,1,286.8,332.88Z"/><path class="cls-2" d="M257.82,342.86h0l-29,0a1,1,0,1,1,0-2h0l29,0a1,1,0,0,1,1,1A1,1,0,0,1,257.82,342.86Z"/><rect class="cls-2" x="215.17" y="361.68" width="154.63" height="2"/><path class="cls-2" d="M313.08,319.72a9.86,9.86,0,1,1,9.85-9.86A9.87,9.87,0,0,1,313.08,319.72Zm0-17.72a7.86,7.86,0,1,0,7.85,7.86A7.87,7.87,0,0,0,313.08,302Z"/><path class="cls-2" d="M342.69,349.42a9.86,9.86,0,1,1,9.86-9.86A9.87,9.87,0,0,1,342.69,349.42Zm0-17.71a7.86,7.86,0,1,0,7.86,7.85A7.86,7.86,0,0,0,342.69,331.71Z"/><path class="cls-2" d="M304.22,349.42a1,1,0,0,1-.71-.29,1,1,0,0,1,0-1.42l47.33-47.32a1,1,0,0,1,1.41,1.41l-47.32,47.33A1,1,0,0,1,304.22,349.42Z"/><polygon class="cls-2" points="327.23 255.91 369.93 279.21 327.23 279.21 327.23 255.91"/><path class="cls-2" d="M369.93,280.21h-42.7a1,1,0,0,1-1-1v-23.3a1,1,0,0,1,.49-.86,1,1,0,0,1,1,0l42.7,23.3a1,1,0,0,1-.48,1.88Zm-41.7-2H366l-37.78-20.62Z"/><path class="cls-2" d="M369.78,376.46h0l-144-.24a11.58,11.58,0,0,1-11.55-11.59l.12-75.1A11.59,11.59,0,0,1,225.87,278h0l144,.24a1,1,0,0,1,1,1l-.15,96.25a1,1,0,0,1-.3.7A1,1,0,0,1,369.78,376.46ZM225.87,280a9.59,9.59,0,0,0-9.57,9.56l-.12,75.1a9.59,9.59,0,0,0,9.56,9.59l143,.23.15-94.25-143-.23Z"/></g></svg>