<svg xmlns="http://www.w3.org/2000/svg" width="130.002" height="9.897" viewBox="0 0 130.002 9.897">
  <g id="Group_2" data-name="Group 2" transform="translate(-682.599 83.823)">
    <g id="Group_1" data-name="Group 1">
      <g id="sygnet" transform="translate(682.598 -83.823)">
        <path id="Path_1" data-name="Path 1" d="M14.375,4.8A3.047,3.047,0,0,0,12.5,4.179H2.293l-.626-.625V2.442l.556-.556H15V.15H2.848A3.047,3.047,0,0,0,.973.775,2.786,2.786,0,0,0,0,3,3.049,3.049,0,0,0,.626,4.872a2.59,2.59,0,0,0,2.222.972H13.057l.624.625V7.58l-.556.556H.278V9.8H12.5a2.786,2.786,0,0,0,2.222-.972,3.043,3.043,0,0,0,.625-1.875A2.639,2.639,0,0,0,14.375,4.8" transform="translate(0 -0.046)" fill="#fff"/>
        <path id="Path_2" data-name="Path 2" d="M46.419.15v3.4h0l-.624.625h-10.9l-.556-.556V.22H32.6V3.275a2.809,2.809,0,0,0,.764,1.875,2.566,2.566,0,0,0,1.875.764H45.794l.624.625V7.3a.885.885,0,0,1-.069.417l-.556.556H32.6V9.942H45.378a2.809,2.809,0,0,0,1.875-.765A2.565,2.565,0,0,0,48.017,7.3V2.789h0V.22h-1.6Z" transform="translate(-9.96 -0.046)" fill="#fff"/>
        <path id="Path_3" data-name="Path 3" d="M68.982,4.178V5.844H78.5l.624.625h0V7.58l-.624.625h-10.9l-.556-.556V2.441l.556-.556H80.787V.149H67.94a2.809,2.809,0,0,0-1.875.765A2.563,2.563,0,0,0,65.3,2.788V7.232a2.809,2.809,0,0,0,.764,1.875,2.564,2.564,0,0,0,1.875.764H78.148a2.807,2.807,0,0,0,1.874-.764,2.566,2.566,0,0,0,.765-1.875V4.177H68.982Z" transform="translate(-19.952 -0.046)" fill="#fff"/>
        <path id="Path_4" data-name="Path 4" d="M112.014,7.6,98.75.1a.884.884,0,0,0-.833,0A.766.766,0,0,0,97.5.8V9.757h1.667v-7.5l13.264,7.5h0a.989.989,0,0,0,.418.139,1.008,1.008,0,0,0,.485-.139c.138-.139.278-.278.278-.417V.174h-1.667V7.6Z" transform="translate(-29.79)" fill="#fff"/>
        <path id="Path_5" data-name="Path 5" d="M131.164.915a2.566,2.566,0,0,0-.764,1.874V7.233a2.812,2.812,0,0,0,.764,1.875,2.568,2.568,0,0,0,1.876.764H146.3V8.206H132.692l-.556-.556V6.47l.556-.556H146.3V4.248h-13.68l-.556-.556V2.442l.556-.556h13.61V.15H132.969a2.525,2.525,0,0,0-1.806.765" transform="translate(-39.843 -0.046)" fill="#fff"/>
        <path id="Path_6" data-name="Path 6" d="M161.8.15V1.817h7.361l.625.624h0V9.8h1.667V2.442l.625-.624h7.361V.15Z" transform="translate(-49.437 -0.046)" fill="#fff"/>
      </g>
    </g>
  </g>
</svg>
