<?xml version="1.0" encoding="utf-8"?>
<!-- Generator: Adobe Illustrator 22.1.0, SVG Export Plug-In . SVG Version: 6.00 Build 0)  -->
<svg version="1.1" id="Layer_1" xmlns="http://www.w3.org/2000/svg" xmlns:xlink="http://www.w3.org/1999/xlink" x="0px" y="0px"
	 viewBox="0 0 258.6 65.9" style="enable-background:new 0 0 258.6 65.9;" xml:space="preserve" width="258.6px" height="65.9px">
<style type="text/css">
	.st0{clip-path:url(#SVGID_2_);fill:#FFFFFF;}
	.st1{fill:#FFFFFF;}
	.st2{clip-path:url(#SVGID_4_);fill:#FFFFFF;}
</style>
<g>
	<defs>
		<rect id="SVGID_1_" width="258.6" height="65.9"/>
	</defs>
	<clipPath id="SVGID_2_">
		<use xlink:href="#SVGID_1_"  style="overflow:visible;"/>
	</clipPath>
	<path class="st0" d="M92.1,32.7c-0.8-0.6-1.7-0.9-2.7-0.9H75.5c-0.3,0-0.6,0-0.8,0l0,0l-0.9-0.9c0-0.2,0-0.5,0-0.8
		c0-0.3,0-0.6,0-0.8l0.8-0.8l0,0c0.2,0,0.5,0,0.8,0h17.6V26H75.5c-1,0-1.9,0.3-2.7,0.9c-0.9,0.8-1.4,1.8-1.4,3.2
		c0,1,0.3,1.9,0.9,2.7c0.8,1,1.8,1.4,3.2,1.4h13.9c0.3,0,0.6,0,0.8,0l0,0l0.9,0.9c0,0.2,0,0.5,0,0.8c0,0.1,0,0.5,0,0.8l-0.8,0.8
		c-0.2,0-0.5,0-0.8,0H71.8v2.4h17.6c1.4,0,2.4-0.5,3.2-1.4c0.6-0.8,0.9-1.7,0.9-2.7C93.5,34.5,93,33.4,92.1,32.7"/>
	<path class="st0" d="M123.9,26l0,4.4c0,0.2,0,0.3,0,0.5l0,0l-0.9,0.9l0,0c-0.2,0-0.3,0-0.5,0h-14.7c-0.2,0-0.4,0-0.5,0l-0.8-0.8
		c0-0.2,0-0.4,0-0.5l0-4.4H104l0,4.4c0,1,0.4,1.9,1.1,2.7c0.7,0.7,1.6,1.1,2.7,1.1h6.2h0h2.4h0h5.9h0.2h0.5l0.9,0.9l0,1.1
		c0,0.2,0,0.4-0.1,0.6l-0.8,0.8c-0.2,0-0.3,0-0.5,0l-18.5,0v0.9l0,1.5h9.9h0h2.4h0h6.1c1,0,1.9-0.4,2.7-1.1c0.7-0.7,1.1-1.6,1.1-2.7
		v-6.5l0,0l0-3.7H123.9z"/>
	<path class="st0" d="M142,31.8v2.4h13.7l0.9,0.9v0l0,1.1c0,0.2,0,0.3,0,0.5l-0.9,0.9c-0.2,0-0.3,0-0.5,0h-14.7c-0.2,0-0.3,0-0.5,0
		l-0.8-0.8c0-0.2,0-0.4,0-0.6v-6.4c0-0.1,0-0.3,0-0.5l0.8-0.8l0,0c0.2,0,0.4,0,0.5,0H159V26h-18.5c-1,0-1.9,0.4-2.7,1.1
		c-0.7,0.7-1.1,1.6-1.1,2.7v6.4c0,1,0.4,1.9,1.1,2.7c0.7,0.7,1.6,1.1,2.7,1.1h14.7c1,0,1.9-0.4,2.7-1.1c0.7-0.7,1.1-1.6,1.1-2.7
		l0-3.5l0-0.9H142z"/>
	<path class="st0" d="M189.8,36.8L170.7,26c-0.4-0.2-0.8-0.2-1.2,0c-0.4,0.2-0.6,0.6-0.6,1v12.9h2.4V29.1l19.1,10.8l0,0
		c0.2,0.1,0.4,0.2,0.6,0.2c0.3,0,0.5-0.1,0.7-0.2c0.2-0.2,0.4-0.4,0.4-0.6c0-0.1,0-0.2,0-0.3V26.1h-2.4V36.8z"/>
	<path class="st0" d="M202.9,27.1c-0.7,0.7-1.1,1.6-1.1,2.7v6.4c0,1,0.4,1.9,1.1,2.7c0.7,0.7,1.6,1.1,2.7,1.1h19.1v-2.4h-19.1
		c-0.2,0-0.4,0-0.5,0l-0.8-0.8c0-0.2,0-0.4,0-0.6v-1.1l0.8-0.8h19.6v-2.4H205l-0.8-0.8v-1.3c0-0.2,0-0.3,0-0.5l0.8-0.8l0,0
		c0.2,0,0.4,0,0.5,0h18.2l0.9,0V26h-19.1C204.5,26,203.6,26.4,202.9,27.1"/>
</g>
<polygon class="st1" points="233.2,26 233.2,28.4 243.8,28.4 243.8,28.4 244.7,29.3 244.7,29.3 244.7,39.9 247.1,39.9 247.1,29.3 
	248,28.4 248,28.4 258.6,28.4 258.6,26 "/>
<g>
	<defs>
		<rect id="SVGID_3_" width="258.6" height="65.9"/>
	</defs>
	<clipPath id="SVGID_4_">
		<use xlink:href="#SVGID_3_"  style="overflow:visible;"/>
	</clipPath>
	<path class="st2" d="M50.4,27.2c-0.2-1.6-1.3-2.1-2.4-2L46.8,24H9.9c-0.6-0.8-1.9-1.2-3.1-0.3c-1.3,1.7-0.1,3.6,1.5,3.6
		c0.7,0,1.3-0.3,1.6-0.8h35.8l0.5,0.5c-0.1,0.6,0.1,1.2,0.6,1.7C47.9,29.8,50.1,29.3,50.4,27.2"/>
	<path class="st2" d="M4.1,42.2h35.1c0.6,0.8,1.9,1.2,3.1,0.3c1.3-1.7,0.1-3.6-1.5-3.6c-0.7,0-1.3,0.3-1.6,0.8h-34l-0.5-0.5
		c0.1-1-0.4-2.1-2-2.4c-2.1,0.3-2.6,2.4-1.5,3.6C1.6,40.9,2.2,41,2.8,41L4.1,42.2z"/>
	<path class="st2" d="M6.6,31.8l-4.1-4.1v-4.7l4.1-4.1h37.8c0.6,0.8,1.9,1.2,3.1,0.3c1.3-1.7,0.1-3.6-1.5-3.6
		c-0.7,0-1.3,0.3-1.6,0.8H5.6L0,21.9v6.7l5.6,5.6l36.8-0.1l4.1,4.1v5l-4.1,4.1H7.7c-0.6-0.8-1.9-1.2-3.1-0.3
		c-1.3,1.7-0.1,3.6,1.5,3.6c0.7,0,1.3-0.3,1.6-0.8h35.8l5.6-5.6v-7.1l-5.6-5.6L6.6,31.8z"/>
	<path class="st2" d="M12.8,3.6c1.2,0.9,2.5,0.6,3.1-0.3h17.9c0.6,0.8,1.9,1.2,3.1,0.3C38.3,1.9,37.1,0,35.5,0
		c-0.7,0-1.3,0.3-1.6,0.8H15.9C15.5,0.3,15,0,14.3,0C12.7,0,11.5,1.9,12.8,3.6"/>
	<path class="st2" d="M5.9,11.2c1.2,0.9,2.5,0.6,3.1-0.3l31.7,0c0.6,0.8,1.9,1.2,3.1,0.3c1.3-1.7,0.1-3.6-1.5-3.6
		c-0.7,0-1.3,0.3-1.6,0.8L9,8.4c-0.4-0.5-1-0.8-1.6-0.8C5.8,7.6,4.6,9.5,5.9,11.2"/>
	<path class="st2" d="M41.1,54.8c-1.2-0.9-2.5-0.6-3.1,0.3l-25.8,0c-0.6-0.8-1.9-1.2-3.1-0.3c-1.3,1.7-0.1,3.6,1.5,3.6
		c0.7,0,1.3-0.3,1.6-0.8l25.8,0c0.4,0.5,1,0.8,1.6,0.8C41.2,58.4,42.4,56.5,41.1,54.8"/>
	<path class="st2" d="M34.2,62.4c-1.2-0.9-2.5-0.6-3.1,0.3l-11.4,0c-0.6-0.7-0.9-1.1-2.6-0.6c-1.7,1.8-0.5,3.9,1.2,3.9
		c0.7,0,1-0.3,1.3-0.8l11.4,0c0.4,0.5,1,0.8,1.6,0.8C34.3,65.9,35.4,64.1,34.2,62.4"/>
</g>
</svg>
