<?xml version="1.0" encoding="utf-8"?>
<!-- Generator: Adobe Illustrator 16.0.0, SVG Export Plug-In . SVG Version: 6.00 Build 0)  -->
<!DOCTYPE svg PUBLIC "-//W3C//DTD SVG 1.1//EN" "http://www.w3.org/Graphics/SVG/1.1/DTD/svg11.dtd">
<svg version="1.1" id="Layer_1" xmlns="http://www.w3.org/2000/svg" xmlns:xlink="http://www.w3.org/1999/xlink" x="0px" y="0px"
	 width="187.201px" height="14.251px" viewBox="0 0 187.201 14.251" enable-background="new 0 0 187.201 14.251"
	 xml:space="preserve">
<path fill="#FFFFFF" d="M20.7,6.851c-0.8-0.6-1.7-0.9-2.7-0.9H4.101c-0.3,0-0.601,0-0.8,0l0,0L2.4,5.051c0-0.2,0-0.5,0-0.8
	c0-0.301,0-0.601,0-0.801l0.8-0.8l0,0c0.2,0,0.5,0,0.8,0h17.601v-2.5h-17.5c-1,0-1.9,0.3-2.7,0.9c-0.9,0.8-1.4,1.8-1.4,3.2
	c0,1,0.301,1.899,0.9,2.699c0.8,1,1.8,1.4,3.2,1.4H18c0.301,0,0.601,0,0.801,0l0,0l0.899,0.9c0,0.199,0,0.5,0,0.8c0,0.1,0,0.5,0,0.8
	l-0.8,0.8c-0.2,0-0.5,0-0.8,0H0.4v2.4H18c1.4,0,2.4-0.5,3.2-1.4c0.601-0.8,0.9-1.7,0.9-2.7C22.101,8.65,21.601,7.551,20.7,6.851"/>
<path fill="#FFFFFF" d="M52.5,0.15v4.4c0,0.2,0,0.3,0,0.5l0,0L51.601,5.95l0,0c-0.2,0-0.3,0-0.5,0H36.4c-0.2,0-0.4,0-0.5,0l-0.8-0.8
	c0-0.2,0-0.399,0-0.5V0.251h-2.5V4.65c0,1,0.399,1.9,1.1,2.7c0.7,0.7,1.601,1.1,2.7,1.1h6.2l0,0H45l0,0h5.9h0.2h0.5l0.899,0.9v1.1
	c0,0.2,0,0.4-0.1,0.601l-0.8,0.8c-0.2,0-0.3,0-0.5,0h-18.5v0.9v1.5H42.5l0,0h2.4l0,0H51c1,0,1.9-0.4,2.7-1.101
	c0.7-0.7,1.101-1.6,1.101-2.7v-6.5l0,0V0.251H52.5V0.15z"/>
<path fill="#FFFFFF" d="M70.601,5.95v2.4h13.7l0.899,0.9l0,0v1.1c0,0.2,0,0.3,0,0.5l-0.899,0.9c-0.2,0-0.301,0-0.5,0h-14.7
	c-0.2,0-0.3,0-0.5,0l-0.8-0.801c0-0.199,0-0.399,0-0.6v-6.4c0-0.1,0-0.3,0-0.5l0.8-0.8l0,0c0.2,0,0.399,0,0.5,0h18.5v-2.5h-18.5
	c-1,0-1.9,0.4-2.7,1.101c-0.7,0.699-1.1,1.6-1.1,2.699v6.4c0,1,0.399,1.9,1.1,2.7c0.7,0.7,1.6,1.1,2.7,1.1h14.7
	c1,0,1.899-0.399,2.699-1.1c0.7-0.7,1.101-1.601,1.101-2.7v-3.5v-0.9H70.601z"/>
<path fill="#FFFFFF" d="M118.4,10.95L99.3,0.15c-0.4-0.2-0.801-0.2-1.199,0c-0.4,0.2-0.602,0.601-0.602,1v12.9h2.4v-10.8l19.1,10.8
	l0,0c0.201,0.1,0.4,0.2,0.602,0.2c0.299,0,0.5-0.101,0.699-0.2c0.199-0.2,0.4-0.4,0.4-0.601c0-0.1,0-0.199,0-0.3V0.251h-2.4V10.95
	H118.4z"/>
<path fill="#FFFFFF" d="M131.5,1.251c-0.699,0.699-1.1,1.6-1.1,2.699v6.4c0,1,0.4,1.9,1.1,2.7c0.701,0.7,1.602,1.1,2.701,1.1h19.1
	v-2.399h-19.1c-0.201,0-0.4,0-0.5,0L132.9,10.95c0-0.199,0-0.399,0-0.6v-1.1l0.801-0.801h19.6V6.051h-19.699l-0.801-0.8V3.95
	c0-0.199,0-0.3,0-0.5l0.801-0.8l0,0c0.199,0,0.398,0,0.5,0H152.3h0.9v-2.5h-19.1C133.101,0.15,132.201,0.551,131.5,1.251"/>
<polygon fill="#FFFFFF" points="161.8,0.15 161.8,2.551 172.4,2.551 172.4,2.551 173.3,3.45 173.3,3.45 173.3,14.051 
	175.701,14.051 175.701,3.45 176.601,2.551 176.601,2.551 187.201,2.551 187.201,0.15 "/>
</svg>
