<svg xmlns="http://www.w3.org/2000/svg" viewBox="0 0 1000 1000"><defs><style>.cls-1{fill:#fafafa;}.cls-2{fill:#8042ff;}.cls-3{fill:#8b8b8b;}</style></defs><title>target_users_ico</title><g id="Warstwa_2" data-name="Warstwa 2"><path class="cls-1" d="M438.35,427.8a57.64,57.64,0,1,0-104.16,0H245.65v88.54a57.64,57.64,0,1,0,0,104.16V709h88.84a57.64,57.64,0,1,1,103.56,0h88.84V427.8Z"/><path d="M526.89,710H438.05a1,1,0,0,1-.85-.47,1,1,0,0,1-.05-1,56.64,56.64,0,1,0-107.4-28.66,56.86,56.86,0,0,0,5.64,28.66,1,1,0,0,1-.05,1,1,1,0,0,1-.85.47H245.65a1,1,0,0,1-1-1v-87a58.66,58.66,0,0,1-82.25-57.33,58.65,58.65,0,0,1,82.25-50v-87a1,1,0,0,1,1-1h87A58.66,58.66,0,0,1,390,344.55a58.65,58.65,0,0,1,50,82.25h87a1,1,0,0,1,1,1V709A1,1,0,0,1,526.89,710Zm-87.26-2h86.26V428.8H438.35a1,1,0,0,1-.9-1.43,56.66,56.66,0,0,0-47.62-80.82,56.66,56.66,0,0,0-54.74,80.82,1,1,0,0,1-.9,1.43H246.65v87.54a1,1,0,0,1-.46.85,1,1,0,0,1-1,.06,56.64,56.64,0,0,0-80.82,47.61,56.66,56.66,0,0,0,80.82,54.74,1,1,0,0,1,1.43.9V708h86.26a58.64,58.64,0,0,1,49.7-82.87,58.66,58.66,0,0,1,57,82.87Z"/><path d="M662.3,404.08a57.65,57.65,0,1,0-104.15,0H469.61v88.54a57.64,57.64,0,1,0,0,104.16v88.54h88.83a57.65,57.65,0,1,1,103.57,0h88.83V404.08Z"/><path d="M750.84,686.32H662a1,1,0,0,1-.9-1.44,56.64,56.64,0,1,0-107.4-28.66,56.79,56.79,0,0,0,5.63,28.66,1,1,0,0,1-.9,1.44H469.61a1,1,0,0,1-1-1v-87a58.65,58.65,0,1,1-28-112.13,59,59,0,0,1,28,4.85v-87a1,1,0,0,1,1-1h87a58.64,58.64,0,1,1,112.12-28,58.86,58.86,0,0,1-4.85,28h87a1,1,0,0,1,1,1V685.32A1,1,0,0,1,750.84,686.32Zm-87.25-2h86.25V405.08H662.3a1,1,0,0,1-.9-1.43,56.64,56.64,0,0,0-47.61-80.82,56.65,56.65,0,0,0-54.74,80.82,1,1,0,0,1-.9,1.43H470.61v87.54a1,1,0,0,1-.47.84,1,1,0,0,1-1,.06,56.65,56.65,0,0,0-80.83,47.61,56.65,56.65,0,0,0,80.83,54.74,1,1,0,0,1,1,.06,1,1,0,0,1,.47.85v87.54h86.25a58.66,58.66,0,0,1,49.71-82.87,58.66,58.66,0,0,1,57,82.87Z"/><path class="cls-1" d="M695,381a57.65,57.65,0,1,0-104.15,0H502.33v88.54a57.64,57.64,0,1,0,0,104.16v88.54h88.83a57.65,57.65,0,1,1,103.57,0h88.83V381Z"/><path d="M783.56,663.22H694.73a1,1,0,0,1-.85-.47,1,1,0,0,1,0-1,56.64,56.64,0,1,0-107.4-28.66,56.75,56.75,0,0,0,5.63,28.66,1,1,0,0,1,0,1,1,1,0,0,1-.85.47H502.33a1,1,0,0,1-1-1v-87a58.65,58.65,0,0,1-82.25-57.33A58.65,58.65,0,0,1,501.33,468V381a1,1,0,0,1,1-1h87a58.65,58.65,0,0,1,57.32-82.25,58.65,58.65,0,0,1,50,82.25h87a1,1,0,0,1,1,1V662.22A1,1,0,0,1,783.56,663.22Zm-87.25-2h86.25V382H695a1,1,0,0,1-.84-.46,1,1,0,0,1-.06-1,56.64,56.64,0,0,0-47.61-80.82,56.65,56.65,0,0,0-54.74,80.82,1,1,0,0,1-.9,1.43H503.33v87.54a1,1,0,0,1-.47.85,1,1,0,0,1-1,.06,56.64,56.64,0,0,0-65.56,90,56.69,56.69,0,0,0,65.56,12.38,1,1,0,0,1,1,.06,1,1,0,0,1,.47.84v87.54h86.25a58.66,58.66,0,0,1,49.71-82.87,58.66,58.66,0,0,1,57,82.87Z"/><path class="cls-2" d="M752.24,506.57a1,1,0,0,1-1-.86l-2.74-20.41a1,1,0,0,1,.85-1.12l65.39-8.79a1,1,0,0,1,.74.2,1,1,0,0,1,.39.66l2.74,20.4a1,1,0,0,1-.86,1.13l-65.39,8.78ZM750.62,486l2.48,18.43,63.4-8.52L814,477.5Z"/><circle class="cls-2" cx="752.24" cy="505.57" r="2.04"/><path class="cls-2" d="M752.23,508.62a3,3,0,0,1-.4-6.07,3,3,0,0,1,2.83,4.87,3,3,0,0,1-2,1.17A3,3,0,0,1,752.23,508.62Zm0-4.09h-.14a1,1,0,0,0-.9,1.17,1.07,1.07,0,0,0,1.18.9h0a1,1,0,0,0,.69-.4,1.09,1.09,0,0,0,.21-.78A1,1,0,0,0,752.24,504.53Z"/><circle class="cls-2" cx="749.5" cy="485.17" r="2.04"/><path class="cls-2" d="M749.49,488.21a3,3,0,1,1,3-3.45,3.06,3.06,0,0,1-.6,2.25,3,3,0,0,1-2,1.17A2.73,2.73,0,0,1,749.49,488.21Zm0-4.09h-.14a1,1,0,0,0-.69.4,1.08,1.08,0,0,0-.21.78,1.07,1.07,0,0,0,.4.69,1,1,0,0,0,.78.2h0a1,1,0,0,0,.69-.4,1,1,0,0,0,.2-.77A1,1,0,0,0,749.5,484.12Z"/><circle class="cls-2" cx="817.63" cy="496.79" r="2.04"/><path class="cls-2" d="M817.62,499.83a3,3,0,1,1,3-3.45,3.06,3.06,0,0,1-.6,2.25,3,3,0,0,1-2,1.17A2.73,2.73,0,0,1,817.62,499.83Zm0-4.09h-.14a1,1,0,0,0-.69.4,1.08,1.08,0,0,0-.21.78,1.07,1.07,0,0,0,.4.69,1,1,0,0,0,.78.2,1,1,0,0,0,.69-.4,1,1,0,0,0,.2-.77A1,1,0,0,0,817.63,495.74Z"/><circle class="cls-2" cx="814.89" cy="476.38" r="2.04"/><path class="cls-2" d="M814.88,479.43a3.1,3.1,0,1,1,.41,0h0A2.83,2.83,0,0,1,814.88,479.43Zm.28-1h0Zm-.27-3.07h-.14a1,1,0,1,0,.28,2.07h0a1,1,0,0,0,.69-.41,1,1,0,0,0,.2-.77A1,1,0,0,0,814.89,475.34Z"/><path class="cls-3" d="M276.83,487.62h-.14l-65.34-9.11a1,1,0,0,1-.86-1.13l2.85-20.4a.94.94,0,0,1,.38-.65,1,1,0,0,1,.74-.2l65.35,9.11a1,1,0,0,1,.66.39,1,1,0,0,1,.19.74l-2.84,20.39A1,1,0,0,1,276.83,487.62Zm-64.22-11L276,485.49l2.57-18.41-63.36-8.84Z"/><path class="cls-3" d="M211.49,480.55l-.43,0h0a3,3,0,1,1,.43,0Zm-.15-2a1,1,0,0,0,1.18-.89,1,1,0,0,0-.2-.77,1,1,0,0,0-1.87.48,1,1,0,0,0,.2.77,1,1,0,0,0,.69.41Z"/><path class="cls-3" d="M214.33,460.16l-.42,0h0a3,3,0,1,1,2.85-4.85,3.05,3.05,0,0,1-2.43,4.88Zm0-4.09a1,1,0,0,0-1,.9,1,1,0,0,0,.2.77,1,1,0,0,0,.69.41h0a1,1,0,0,0,.78-.2,1.07,1.07,0,0,0,.4-.69,1,1,0,0,0-.89-1.18Z"/><path class="cls-3" d="M276.83,489.66l-.42,0a3,3,0,0,1-2.6-3.43,3,3,0,0,1,5.45-1.42,3,3,0,0,1,.58,2.26,3,3,0,0,1-3,2.62Zm0-4.09a1,1,0,0,0-.84,1.68,1.07,1.07,0,0,0,.69.4,1,1,0,0,0,1.18-.89,1,1,0,0,0-.2-.77,1,1,0,0,0-.69-.41Z"/><path class="cls-3" d="M279.68,469.27a3.11,3.11,0,0,1-.43,0h0a3.05,3.05,0,1,1,2.26-.59A3,3,0,0,1,279.68,469.27Zm0-4.09a1,1,0,0,0-.63.21,1,1,0,0,0-.2,1.46,1,1,0,0,0,.69.41h0a1,1,0,0,0,.77-.2,1.08,1.08,0,0,0,.41-.69,1.06,1.06,0,0,0-.9-1.18Z"/><path class="cls-2" d="M841.71,351a.91.91,0,0,1-.23,0l-38.92-8.82a1,1,0,0,1,.44-1.95L841.93,349a1,1,0,0,1-.22,2Z"/><path class="cls-2" d="M802.78,342.18l-.22,0a1,1,0,0,1-.75-1.19l8.6-37.95-37.95-8.6a1,1,0,0,1,.44-2l38.93,8.82a1,1,0,0,1,.75,1.2l-8.82,38.92A1,1,0,0,1,802.78,342.18Z"/><circle class="cls-2" cx="772.68" cy="293.44" r="2.47"/><path class="cls-2" d="M772.69,296.91a3.49,3.49,0,0,1-3.4-4.24h0a3.48,3.48,0,0,1,4.16-2.62,3.47,3.47,0,0,1,1.08,6.32A3.38,3.38,0,0,1,772.69,296.91Zm-1.45-3.8a1.47,1.47,0,0,0,1.12,1.76A1.47,1.47,0,1,0,773,292a1.44,1.44,0,0,0-1.11.19,1.47,1.47,0,0,0-.66.92Z"/><circle class="cls-2" cx="841.71" cy="350" r="2.47"/><path class="cls-2" d="M841.71,353.47a3.36,3.36,0,0,1-.77-.08,3.48,3.48,0,1,1,1.53-6.78,3.47,3.47,0,0,1-.76,6.86Zm0-5a1.48,1.48,0,0,0-.78.23,1.49,1.49,0,0,0-.65.92h0a1.44,1.44,0,0,0,.19,1.11,1.47,1.47,0,1,0,1.57-2.22A1.86,1.86,0,0,0,841.7,348.52Zm-2.41.93h0Z"/><circle class="cls-2" cx="217.97" cy="374.45" r="2.47"/><path class="cls-2" d="M218,377.93a3.48,3.48,0,1,1,3.47-3.48A3.48,3.48,0,0,1,218,377.93Zm0-4.95a1.48,1.48,0,1,0,1.47,1.47A1.47,1.47,0,0,0,218,373Z"/><path class="cls-2" d="M188.27,405.43a1,1,0,0,1-1-1V344.48a1,1,0,0,1,2,0v59.95A1,1,0,0,1,188.27,405.43Z"/><path class="cls-2" d="M218.24,375.45h-60a1,1,0,0,1,0-2h60a1,1,0,1,1,0,2Z"/><circle class="cls-2" cx="188.27" cy="344.48" r="2.47"/><path class="cls-2" d="M188.27,348a3.47,3.47,0,1,1,3.47-3.47A3.47,3.47,0,0,1,188.27,348Zm0-4.94a1.47,1.47,0,1,0,1.47,1.47A1.47,1.47,0,0,0,188.27,343Z"/><circle class="cls-2" cx="188.33" cy="404.14" r="2.47"/><path class="cls-2" d="M188.33,407.62a3.48,3.48,0,1,1,3.48-3.48A3.48,3.48,0,0,1,188.33,407.62Zm0-4.95a1.48,1.48,0,1,0,1.48,1.47A1.47,1.47,0,0,0,188.33,402.67Z"/><circle class="cls-2" cx="158.29" cy="374.45" r="2.47"/><path class="cls-2" d="M158.29,377.93a3.48,3.48,0,1,1,3.48-3.48A3.48,3.48,0,0,1,158.29,377.93Zm0-4.95a1.48,1.48,0,1,0,1.48,1.47A1.47,1.47,0,0,0,158.29,373Z"/></g></svg>