<svg xmlns="http://www.w3.org/2000/svg" viewBox="0 0 500 500"><defs><style>.cls-1{fill:#fafafa;}.cls-2{fill:#404040;}.cls-3{fill:#804cfb;}</style></defs><title>the_state_ico</title><g id="Warstwa_3" data-name="Warstwa 3"><path class="cls-1" d="M140.11,136.39a12.82,12.82,0,0,0-25.6,1.06v5.47h25.55v-5.47C140.06,137.1,140.09,136.74,140.11,136.39Z"/><path class="cls-1" d="M140.06,143.92H114.51a1,1,0,0,1-1-1v-5.47a13.82,13.82,0,0,1,27.6-1.14v.16c0,.33-.05.65-.05,1v5.47A1,1,0,0,1,140.06,143.92Zm-24.55-2h23.55v-4.47c0-.35,0-.7.05-1a11.82,11.82,0,0,0-23.6,1Z"/><rect class="cls-2" x="140.06" y="154.9" width="0.11" height="194.82"/><rect class="cls-1" x="139.06" y="153.9" width="2.11" height="196.82" rx="1"/><path class="cls-2" d="M140.17,137.45c0-.35,0-.71-.06-1.06,0,.35-.05.71-.05,1.06V154.9h.11Z"/><path class="cls-1" d="M140.17,155.9h-.11a1,1,0,0,1-1-1V137.45c0-.38,0-.76.06-1.14a1,1,0,0,1,2,0c0,.38.06.76.06,1.14V154.9A1,1,0,0,1,140.17,155.9Z"/><path class="cls-2" d="M152.89,375.38h0Z"/><path class="cls-1" d="M153,376.38h-.11a1,1,0,0,1-1-1,1,1,0,0,1,1-1H153a1,1,0,0,1,1,1,1,1,0,0,1-1,1h0Z"/><path class="cls-2" d="M140.17,362.55c0,.35,0,.71-.06,1.06a12.83,12.83,0,0,0,12.78,11.77h.05A12.82,12.82,0,0,1,140.17,362.55Z"/><path class="cls-1" d="M152.94,376.37a13.9,13.9,0,0,1-13.82-12.68.43.43,0,0,1,0-.16c0-.33,0-.65,0-1a1,1,0,0,1,2,0A11.84,11.84,0,0,0,153,374.37a1,1,0,0,1,0,2Z"/><path class="cls-2" d="M320.21,124.62H127.34a12.82,12.82,0,0,1,12.77,11.77c0,.35.06.71.06,1.06v225.1a12.78,12.78,0,1,0,25.55,0v-4.33H332.24V136.65A12,12,0,0,0,320.21,124.62Z"/><path class="cls-1" d="M153,376.37a13.85,13.85,0,0,1-13.78-13.82V137.45c0-.33,0-.65,0-1a11.89,11.89,0,0,0-11.78-10.85,1,1,0,0,1,0-2H320.21a13,13,0,0,1,13,13V358.22a1,1,0,0,1-1,1H166.72v3.33A13.85,13.85,0,0,1,153,376.37ZM134.46,125.62a13.88,13.88,0,0,1,6.65,10.69c0,.38.06.76.06,1.14v225.1a11.78,11.78,0,1,0,23.55,0v-4.33a1,1,0,0,1,1-1H331.24V136.65a11,11,0,0,0-11-11Z"/><path class="cls-2" d="M140.11,363.61c0-.35.06-.71.06-1.06V349.72h-.11v12.83C140.06,362.9,140.09,363.26,140.11,363.61Z"/><path class="cls-1" d="M140.11,364.61a1,1,0,0,1-1-.92c0-.38-.06-.76-.06-1.14V349.72a1,1,0,0,1,1-1h.11a1,1,0,0,1,1,1v12.83c0,.38,0,.76-.06,1.14A1,1,0,0,1,140.11,364.61Z"/><path class="cls-3" d="M332.45,349.9a8.42,8.42,0,0,1-16.81,0H305.12a8.42,8.42,0,0,1-16.81,0h-11a8.41,8.41,0,0,1-16.8,0h-11a8.41,8.41,0,0,1-16.8,0h-11a8.42,8.42,0,0,1-16.81,0h-11a8.42,8.42,0,0,1-16.81,0H165.53v12.83a12.64,12.64,0,0,1-12.59,12.64H331.58a12.49,12.49,0,0,0,5.35-1.21,12.62,12.62,0,0,0,7.29-11.44V349.9Z"/><path class="cls-1" d="M331.58,376.38H152.88a1,1,0,0,1-.92-1,1,1,0,0,1,1-1,11.66,11.66,0,0,0,11.59-11.64V349.9a1,1,0,0,1,1-1H177.1a1,1,0,0,1,1,.94,7.41,7.41,0,0,0,14.81,0,1,1,0,0,1,1-.94h11a1,1,0,0,1,1,.94,7.41,7.41,0,0,0,14.81,0,1,1,0,0,1,1-.94h11a1,1,0,0,1,1,.94,7.41,7.41,0,0,0,14.81,0,1,1,0,0,1,1-.94h11a1,1,0,0,1,1,.94,7.41,7.41,0,0,0,14.8,0,1,1,0,0,1,1-.94h11a1,1,0,0,1,1,.94,7.41,7.41,0,0,0,14.81,0,1,1,0,0,1,1-.94h10.52a1,1,0,0,1,1,.94,7.41,7.41,0,0,0,14.81,0,1,1,0,0,1,1-.94h11.77a1,1,0,0,1,1,1v12.83a13.7,13.7,0,0,1-7.87,12.35A13.5,13.5,0,0,1,331.58,376.38Zm-165-25.48v11.83A13.65,13.65,0,0,1,160,374.38h171.6a11.55,11.55,0,0,0,4.92-1.11,11.69,11.69,0,0,0,6.72-10.54V350.9h-9.87a9.42,9.42,0,0,1-18.61,0H306a9.42,9.42,0,0,1-18.61,0h-9.19a9.42,9.42,0,0,1-18.61,0h-9.2a9.42,9.42,0,0,1-18.61,0h-9.19a9.42,9.42,0,0,1-18.61,0h-9.19a9.42,9.42,0,0,1-18.61,0Z"/><path class="cls-1" d="M177.28,323.06H158.43a1,1,0,0,1,0-2h18.85a1,1,0,1,1,0,2Z"/><path class="cls-1" d="M195.85,307.44H158.43a1,1,0,0,1,0-2h37.42a1,1,0,0,1,0,2Z"/><path class="cls-1" d="M174.63,291.83h-16.2a1,1,0,0,1,0-2h16.2a1,1,0,0,1,0,2Z"/><path class="cls-1" d="M190.54,276.22H158.43a1,1,0,0,1,0-2h32.11a1,1,0,0,1,0,2Z"/><path class="cls-1" d="M179.93,260.61h-21.5a1,1,0,0,1,0-2h21.5a1,1,0,0,1,0,2Z"/><path class="cls-1" d="M236.12,243.11a43.3,43.3,0,1,1,43.29-43.3A43.34,43.34,0,0,1,236.12,243.11Zm0-84.59a41.3,41.3,0,1,0,41.29,41.29A41.33,41.33,0,0,0,236.12,158.52Z"/><path class="cls-1" d="M236.12,221.69c-7.1,0-12.87-5.13-12.87-11.44a1,1,0,0,1,2,0c0,5.21,4.87,9.44,10.87,9.44S247,215.46,247,210.25s-4.87-9.44-10.87-9.44c-7.1,0-12.87-5.13-12.87-11.43s5.77-11.44,12.87-11.44S249,183.07,249,189.38a1,1,0,0,1-2,0c0-5.21-4.87-9.44-10.87-9.44s-10.87,4.23-10.87,9.44,4.87,9.43,10.87,9.43c7.1,0,12.87,5.14,12.87,11.44S243.22,221.69,236.12,221.69Z"/><path class="cls-1" d="M236.12,228.57a1,1,0,0,1-1-1V172.06a1,1,0,0,1,2,0v55.51A1,1,0,0,1,236.12,228.57Z"/><path class="cls-1" d="M315.13,260.61H296.28a1,1,0,0,1,0-2h18.85a1,1,0,0,1,0,2Z"/><path class="cls-1" d="M315.13,276.22H284.71a1,1,0,0,1,0-2h30.42a1,1,0,0,1,0,2Z"/><path class="cls-1" d="M315.13,307.44H283a1,1,0,0,1,0-2h32.11a1,1,0,0,1,0,2Z"/><polygon class="cls-3" points="298.68 325.75 247.99 275.06 259.48 263.58 298.49 302.59 373.82 224.7 385.49 235.99 298.68 325.75"/><path class="cls-1" d="M298.68,326.75a1,1,0,0,1-.71-.3l-50.68-50.68a1,1,0,0,1,0-1.42l11.48-11.48a1,1,0,0,1,1.41,0l38.3,38.29L373.1,224a1,1,0,0,1,1.41,0l11.68,11.29a1,1,0,0,1,0,1.41L299.4,326.44a1.05,1.05,0,0,1-.71.31Zm-49.27-51.69,49.26,49.26L384.08,236l-10.24-9.9-74.63,77.17a1.07,1.07,0,0,1-.71.31h0a1,1,0,0,1-.71-.3L259.48,265Z"/></g></svg>