<svg xmlns="http://www.w3.org/2000/svg" viewBox="0 0 500 500"><defs><style>.cls-1{fill:#804cfb;}.cls-2{fill:#fafafa;}</style></defs><title>truly_yours_ico</title><g id="Warstwa_3" data-name="Warstwa 3"><path class="cls-1" d="M250,268.43a16.09,16.09,0,0,0-17.75-16c-9.37.93-15.67,10.16-14,19.43,4.15,23.24,31.76,36.2,31.76,36.2s27.61-13,31.76-36.2c1.66-9.27-4.64-18.5-14-19.43A16.09,16.09,0,0,0,250,268.43Z"/><path class="cls-2" d="M248.84,356.71c-17.18,0-35.41-5.65-47.47-11.82a1,1,0,0,1-.37-.1,54.92,54.92,0,0,1-27.87-35.65l-20.32-83.81a12.32,12.32,0,0,1,11.67-15.24c9.54-.21,21.76,3.42,28.83,20.75l-5.38-47.69a20.43,20.43,0,0,1,18.75-22.64c10.81-.84,20.64,7.48,21.88,18.54l3.28,29.06.34-44.09c.08-11.12,9-20.42,19.83-20.72a20.43,20.43,0,0,1,21,20.57l-.23,30.79,2-15.72a20.42,20.42,0,1,1,40.5,5.19l-9.35,72.94,5.44-11.61a18.94,18.94,0,0,1,34.46,15.71l-28.59,61a53.41,53.41,0,0,1-18.69,21.88,37.34,37.34,0,0,1-3.21,2C282.88,352.92,266.35,356.71,248.84,356.71ZM198.46,341l.08,0c11.53,6.79,31.56,13.64,50.3,13.64,17.18,0,33.36-3.7,45.56-10.42,0,0,1.23-.65,3.05-1.86a51.45,51.45,0,0,0,18-21.07l28.58-61a16.93,16.93,0,0,0-30.82-14l-8.15,17.41a1,1,0,0,1-1.9-.55l10.16-79.27a18.41,18.41,0,1,0-36.53-4.69l-4.14,32.26a1,1,0,0,1-1.06.87,1,1,0,0,1-.93-1l.36-47.47a18.43,18.43,0,0,0-18.95-18.55c-9.78.27-17.81,8.68-17.88,18.74l-.47,60.75a1,1,0,0,1-1,1,1,1,0,0,1-1-.89l-5.14-45.63c-1.13-10-10-17.52-19.75-16.77a18.42,18.42,0,0,0-16.91,20.43l6.6,58.56a1,1,0,0,1-.82,1.1,1,1,0,0,1-1.15-.75l-.92-3.82c-6.06-21.83-19.16-26.13-29.1-25.93a10.32,10.32,0,0,0-9.78,12.77l20.33,83.81A52.84,52.84,0,0,0,198.46,341Z"/><path class="cls-2" d="M250,309.05a1,1,0,0,1-.42-.09A76,76,0,0,1,235,299.44c-6.9-5.71-15.59-15.11-17.79-27.41a18.11,18.11,0,0,1,3.36-14,16.43,16.43,0,0,1,11.54-6.57,17,17,0,0,1,13.22,4.33,17.12,17.12,0,0,1,4.63,6.93,17.12,17.12,0,0,1,4.63-6.93,17,17,0,0,1,13.22-4.33A16.43,16.43,0,0,1,279.39,258a18.11,18.11,0,0,1,3.36,14c-2.2,12.3-10.89,21.7-17.79,27.41A76,76,0,0,1,250.42,309,1,1,0,0,1,250,309.05Zm-16.08-55.72c-.52,0-1,0-1.57.08a14.46,14.46,0,0,0-10.14,5.78,16.11,16.11,0,0,0-3,12.49c3.74,20.91,27.31,33.51,30.78,35.26,3.47-1.75,27-14.37,30.78-35.26a16.08,16.08,0,0,0-3-12.48,14.42,14.42,0,0,0-10.14-5.79,15.1,15.1,0,0,0-16.65,15,1,1,0,1,1-2,0,15.13,15.13,0,0,0-5-11.2A14.94,14.94,0,0,0,233.92,253.33Z"/><path class="cls-2" d="M364.28,252.22a1,1,0,0,1,0-2l31.48-1.3a1,1,0,0,1,.08,2l-31.48,1.29Z"/><path class="cls-2" d="M358.19,213.5a1,1,0,0,1-.67-.27,1,1,0,0,1-.06-1.41l21.34-23.17a1,1,0,0,1,1.42-.06,1,1,0,0,1,0,1.41l-21.34,23.18A1,1,0,0,1,358.19,213.5Z"/><path class="cls-2" d="M384.56,312.66a1,1,0,0,1-.68-.26l-23.17-21.35a1,1,0,0,1-.06-1.41,1,1,0,0,1,1.42-.06l23.17,21.35a1,1,0,0,1,.06,1.41A1,1,0,0,1,384.56,312.66Z"/><path class="cls-2" d="M104.24,252.06a1,1,0,0,1,0-2l31.48-1.29a1,1,0,0,1,1,.95,1,1,0,0,1-1,1l-31.48,1.3Z"/><path class="cls-2" d="M120.46,312.66a1,1,0,0,1-.73-1.67l21.34-23.18a1,1,0,1,1,1.47,1.36L121.2,312.34A1,1,0,0,1,120.46,312.66Z"/><path class="cls-2" d="M138.61,211.67a1.05,1.05,0,0,1-.68-.26l-23.17-21.35a1,1,0,1,1,1.36-1.47l23.17,21.35a1,1,0,0,1,.06,1.41A1,1,0,0,1,138.61,211.67Z"/></g></svg>