<svg xmlns="http://www.w3.org/2000/svg" viewBox="0 0 253 253"><defs><style>.cls-1{fill:#804cfb;}</style></defs><title>unforgeable_ico</title><g id="Warstwa_3" data-name="Warstwa 3"><path class="cls-1" d="M82.26,163.23a35.46,35.46,0,1,1,35.46-35.46A35.5,35.5,0,0,1,82.26,163.23Zm0-67.92a32.46,32.46,0,1,0,32.46,32.46A32.49,32.49,0,0,0,82.26,95.31Z"/><path class="cls-1" d="M170.74,163.23a35.46,35.46,0,1,1,35.46-35.46A35.5,35.5,0,0,1,170.74,163.23Zm0-67.92a32.46,32.46,0,1,0,32.46,32.46A32.49,32.49,0,0,0,170.74,95.31Z"/><path class="cls-1" d="M116.22,130.33a1.5,1.5,0,0,1-1-2.61,16.63,16.63,0,0,1,22.58,0,1.51,1.51,0,0,1,.11,2.12,1.49,1.49,0,0,1-2.12.11,13.62,13.62,0,0,0-18.55,0A1.51,1.51,0,0,1,116.22,130.33Z"/><path class="cls-1" d="M55.92,107.82a1.52,1.52,0,0,1-.83-.25,1.5,1.5,0,0,1-.41-2.08l30.7-45.85a1.5,1.5,0,0,1,2.5,1.67L57.17,107.16A1.49,1.49,0,0,1,55.92,107.82Z"/><path class="cls-1" d="M107.57,63.23a1.5,1.5,0,0,1-1.38-.91A10.18,10.18,0,0,0,88,61.24a1.5,1.5,0,1,1-2.6-1.49A13.17,13.17,0,0,1,109,61.15a1.51,1.51,0,0,1-.8,2A1.46,1.46,0,0,1,107.57,63.23Z"/><path class="cls-1" d="M170.74,163.23a35.46,35.46,0,1,1,35.46-35.46A35.5,35.5,0,0,1,170.74,163.23Zm0-67.92a32.46,32.46,0,1,0,32.46,32.46A32.49,32.49,0,0,0,170.74,95.31Z"/><path class="cls-1" d="M197.08,107.82a1.49,1.49,0,0,1-1.25-.66L165.12,61.31a1.5,1.5,0,0,1,2.5-1.67l30.7,45.85a1.5,1.5,0,0,1-.41,2.08A1.52,1.52,0,0,1,197.08,107.82Z"/><path class="cls-1" d="M145.43,63.23a1.46,1.46,0,0,1-.58-.11,1.51,1.51,0,0,1-.8-2,13.17,13.17,0,0,1,23.58-1.4,1.5,1.5,0,1,1-2.6,1.49,10.18,10.18,0,0,0-18.22,1.08A1.5,1.5,0,0,1,145.43,63.23Z"/><path class="cls-1" d="M126.57,199.9h-.22c-4.82,0-7.58-9.21-9-16.42-5.51,6.21-13.57,13.94-18,11.78-3.61-1.77-2.07-8.2.48-14.36-8.13,3.45-19,7.13-21.83,3.56-2.46-3.11,4.92-10.29,7.24-12.41a60.48,60.48,0,0,1,16.57-10.81c6.14-2.69,13.3-2.14,19.66,1.51a10.19,10.19,0,0,0,10,0c6.36-3.65,13.52-4.2,19.66-1.51a60.48,60.48,0,0,1,16.57,10.81h0c2.32,2.12,9.7,9.3,7.24,12.41-2.82,3.58-13.7-.11-21.83-3.56,2.55,6.16,4.09,12.59.48,14.36-4.4,2.16-12.46-5.57-18-11.78-1.41,7.21-4.17,16.41-9,16.42h-.06Zm-8.28-21.28a1.41,1.41,0,0,1,.4,0,1.52,1.52,0,0,1,1.08,1.21c1.89,11.75,5,17,6.61,17,0,0,0,0,0,0h.19c1.63,0,4.74-5.27,6.63-17a1.52,1.52,0,0,1,1.09-1.21,1.48,1.48,0,0,1,1.54.48c9.67,11.48,15.25,14,16.43,13.42.81-.4,1.05-4.46-3.47-14a1.51,1.51,0,0,1,.29-1.7,1.48,1.48,0,0,1,1.69-.31c13.87,6.34,20.42,6.88,21.66,6.14-.18-1-1.94-4-6.77-8.47h0A57.19,57.19,0,0,0,149.94,164c-5.25-2.31-11.43-1.81-16.95,1.36a13.27,13.27,0,0,1-13,0c-5.52-3.17-11.7-3.66-17-1.36a57.19,57.19,0,0,0-15.75,10.27c-4.83,4.42-6.59,7.49-6.77,8.47,1.23.74,7.78.2,21.66-6.14a1.48,1.48,0,0,1,1.69.31,1.51,1.51,0,0,1,.29,1.7c-4.52,9.51-4.28,13.57-3.47,14,1.19.58,6.76-1.94,16.43-13.42A1.51,1.51,0,0,1,118.29,178.62Z"/></g></svg>