<svg xmlns="http://www.w3.org/2000/svg" viewBox="0 0 253 253"><defs><style>.cls-1{fill:#804cfb;}.cls-2{fill:#fafafa;}</style></defs><title>unhackable_ico</title><g id="Warstwa_3" data-name="Warstwa 3"><path class="cls-1" d="M181.48,185.71h-2a1.5,1.5,0,0,1,0-3h2a1.5,1.5,0,0,1,0,3Zm-9,0h-2a1.5,1.5,0,0,1,0-3h2a1.5,1.5,0,0,1,0,3Zm-9,0h-2a1.5,1.5,0,0,1,0-3h2a1.5,1.5,0,0,1,0,3Zm-9,0h-2a1.5,1.5,0,0,1,0-3h2a1.5,1.5,0,0,1,0,3Zm-9,0h-2a1.5,1.5,0,0,1,0-3h2a1.5,1.5,0,0,1,0,3Zm-9,0h-2a1.5,1.5,0,0,1,0-3h2a1.5,1.5,0,0,1,0,3Zm-9,0h-2a1.5,1.5,0,1,1,0-3h2a1.5,1.5,0,0,1,0,3Zm-9,0h-2.06a1.5,1.5,0,0,1-1.44-1.55,1.46,1.46,0,0,1,1.56-1.44h1.94a1.5,1.5,0,0,1,0,3Zm68.86-1.37a1.5,1.5,0,0,1-.66-2.84,11.64,11.64,0,0,0,1.51-.91,1.5,1.5,0,0,1,1.73,2.45,14.16,14.16,0,0,1-1.91,1.14A1.44,1.44,0,0,1,187.34,184.34Zm-77.46-.69a1.49,1.49,0,0,1-.81-.23,13.81,13.81,0,0,1-1.78-1.34,1.5,1.5,0,0,1,2-2.26,12.16,12.16,0,0,0,1.41,1.07,1.5,1.5,0,0,1-.8,2.76ZM193.47,178a1.57,1.57,0,0,1-.62-.13,1.51,1.51,0,0,1-.74-2,11.75,11.75,0,0,0,.61-1.66,1.5,1.5,0,1,1,2.89.81,14.27,14.27,0,0,1-.77,2.1A1.5,1.5,0,0,1,193.47,178Zm-89-1.3a1.49,1.49,0,0,1-1.42-1,13.38,13.38,0,0,1-.54-2.16,1.5,1.5,0,0,1,3-.5,11.35,11.35,0,0,0,.42,1.72,1.5,1.5,0,0,1-1,1.9A1.53,1.53,0,0,1,104.45,176.69Zm90.2-7.53a1.5,1.5,0,0,1-1.5-1.5v-2a1.5,1.5,0,0,1,3,0v2A1.5,1.5,0,0,1,194.65,169.16Zm-90.87-1.39a1.5,1.5,0,0,1-1.5-1.5v-2a1.5,1.5,0,0,1,3,0v2A1.5,1.5,0,0,1,103.78,167.77Zm90.87-7.61a1.5,1.5,0,0,1-1.5-1.5v-2a1.5,1.5,0,0,1,3,0v2A1.5,1.5,0,0,1,194.65,160.16Zm-90.87-1.39a1.5,1.5,0,0,1-1.5-1.5v-2a1.5,1.5,0,0,1,3,0v2A1.5,1.5,0,0,1,103.78,158.77Zm90.87-7.61a1.5,1.5,0,0,1-1.5-1.5v-2a1.5,1.5,0,0,1,3,0v2A1.5,1.5,0,0,1,194.65,151.16Zm-90.87-1.39a1.5,1.5,0,0,1-1.5-1.5v-2a1.5,1.5,0,0,1,3,0v2A1.5,1.5,0,0,1,103.78,149.77Zm90.87-7.61a1.5,1.5,0,0,1-1.5-1.5v-2a1.5,1.5,0,0,1,3,0v2A1.5,1.5,0,0,1,194.65,142.16Zm-90.87-1.39a1.5,1.5,0,0,1-1.5-1.5v-2a1.5,1.5,0,0,1,3,0v2A1.5,1.5,0,0,1,103.78,140.77Zm90.87-7.61a1.5,1.5,0,0,1-1.5-1.5v-2a1.5,1.5,0,0,1,3,0v2A1.5,1.5,0,0,1,194.65,133.16Zm-90.87-1.39a1.5,1.5,0,0,1-1.5-1.5v-2a1.5,1.5,0,1,1,3,0v2A1.5,1.5,0,0,1,103.78,131.77Zm90.87-7.61a1.5,1.5,0,0,1-1.5-1.5v-2a1.5,1.5,0,0,1,3,0v2A1.5,1.5,0,0,1,194.65,124.16Zm-90.87-1.39a1.5,1.5,0,0,1-1.5-1.5v-2a1.5,1.5,0,0,1,3,0v2A1.5,1.5,0,0,1,103.78,122.77Zm90.87-7.61a1.5,1.5,0,0,1-1.5-1.5v-2a1.5,1.5,0,0,1,3,0v2A1.5,1.5,0,0,1,194.65,115.16Zm-90.87-1.39a1.5,1.5,0,0,1-1.5-1.5v-2a1.5,1.5,0,0,1,3,0v2A1.5,1.5,0,0,1,103.78,113.77Zm90.87-7.61a1.5,1.5,0,0,1-1.5-1.5v-2a1.5,1.5,0,0,1,3,0v2A1.5,1.5,0,0,1,194.65,106.16Zm-90.87-1.39a1.5,1.5,0,0,1-1.5-1.5v-2a1.5,1.5,0,0,1,3,0v2A1.5,1.5,0,0,1,103.78,104.77Zm90.87-7.61a1.5,1.5,0,0,1-1.5-1.5v-2a1.5,1.5,0,0,1,3,0v2A1.5,1.5,0,0,1,194.65,97.16Zm-90.87-1.39a1.5,1.5,0,0,1-1.5-1.5v-2a1.5,1.5,0,0,1,3,0v2A1.5,1.5,0,0,1,103.78,95.77Zm90.87-7.61a1.5,1.5,0,0,1-1.5-1.5v-2a1.5,1.5,0,0,1,3,0v2A1.5,1.5,0,0,1,194.65,88.16Zm-90.87-1.39a1.5,1.5,0,0,1-1.5-1.5v-2a1.5,1.5,0,0,1,3,0v2A1.5,1.5,0,0,1,103.78,86.77Zm90.87-7.61a1.5,1.5,0,0,1-1.5-1.5v-2a1.5,1.5,0,0,1,3,0v2A1.5,1.5,0,0,1,194.65,79.16Zm-90.87-1.39a1.5,1.5,0,0,1-1.5-1.5v-2a1.5,1.5,0,0,1,3,0v2A1.5,1.5,0,0,1,103.78,77.77Zm90.87-7.61a1.5,1.5,0,0,1-1.5-1.5v-2a1.5,1.5,0,0,1,3,0v2A1.5,1.5,0,0,1,194.65,70.16Zm-90.87-1.39a1.5,1.5,0,0,1-1.5-1.5v-2a1.5,1.5,0,0,1,3,0v2A1.5,1.5,0,0,1,103.78,68.77Zm90.87-7.61a1.5,1.5,0,0,1-1.5-1.5v-2a1.5,1.5,0,0,1,3,0v2A1.5,1.5,0,0,1,194.65,61.16Zm-90.87-1.39a1.5,1.5,0,0,1-1.5-1.5V56.93c0-.25,0-.49,0-.74a1.48,1.48,0,0,1,1.57-1.42,1.5,1.5,0,0,1,1.43,1.57c0,.19,0,.39,0,.59v1.34A1.5,1.5,0,0,1,103.78,59.77ZM193.2,52.4a1.51,1.51,0,0,1-1.34-.81,12.16,12.16,0,0,0-.92-1.51,1.5,1.5,0,1,1,2.42-1.76,14.15,14.15,0,0,1,1.17,1.89,1.5,1.5,0,0,1-.65,2A1.52,1.52,0,0,1,193.2,52.4Zm-87.26-1.21a1.46,1.46,0,0,1-.82-.25,1.5,1.5,0,0,1-.43-2.07,15.56,15.56,0,0,1,1.36-1.76,1.5,1.5,0,0,1,2.23,2,11.21,11.21,0,0,0-1.08,1.41A1.52,1.52,0,0,1,105.94,51.19Zm80.82-4.83a1.44,1.44,0,0,1-.6-.13,11,11,0,0,0-1.67-.58,1.51,1.51,0,0,1-1.06-1.84,1.49,1.49,0,0,1,1.83-1.06,14.26,14.26,0,0,1,2.11.74,1.49,1.49,0,0,1,.77,2A1.51,1.51,0,0,1,186.76,46.36ZM113,45.86a1.5,1.5,0,0,1-.45-2.93,14.82,14.82,0,0,1,2.17-.5,1.5,1.5,0,1,1,.45,3,11.87,11.87,0,0,0-1.72.4A1.41,1.41,0,0,1,113,45.86Zm64.94-.61h-2a1.5,1.5,0,0,1,0-3h2a1.5,1.5,0,0,1,0,3Zm-9,0h-2a1.5,1.5,0,0,1,0-3h2a1.5,1.5,0,0,1,0,3Zm-9,0h-2a1.5,1.5,0,0,1,0-3h2a1.5,1.5,0,0,1,0,3Zm-9,0h-2a1.5,1.5,0,0,1,0-3h2a1.5,1.5,0,0,1,0,3Zm-9,0h-2a1.5,1.5,0,0,1,0-3h2a1.5,1.5,0,0,1,0,3Zm-9,0h-2a1.5,1.5,0,0,1,0-3h2a1.5,1.5,0,0,1,0,3Zm-9,0h-2a1.5,1.5,0,0,1,0-3h2a1.5,1.5,0,1,1,0,3Z"/><rect class="cls-2" x="58.35" y="68.79" width="90.87" height="140.46" rx="13.17"/><path class="cls-1" d="M136,210.75H71.52a14.7,14.7,0,0,1-14.68-14.68V82A14.69,14.69,0,0,1,71.52,67.29H136A14.69,14.69,0,0,1,150.72,82V196.07A14.7,14.7,0,0,1,136,210.75ZM71.52,70.29A11.69,11.69,0,0,0,59.84,82V196.07a11.69,11.69,0,0,0,11.68,11.68H136a11.69,11.69,0,0,0,11.68-11.68V82A11.69,11.69,0,0,0,136,70.29Z"/><path class="cls-1" d="M148.57,185.71H58.69a1.5,1.5,0,0,1,0-3h89.88a1.5,1.5,0,0,1,0,3Z"/><path class="cls-1" d="M108.34,198.2H99.22a1.5,1.5,0,1,1,0-3h9.12a1.5,1.5,0,0,1,0,3Z"/><path class="cls-2" d="M138.56,131.89S123,150.3,103.78,150.3,69,131.89,69,131.89s15.57-18.41,34.77-18.41S138.56,131.89,138.56,131.89Z"/><path class="cls-1" d="M103.78,151.8c-8.17,0-17-3.28-25.47-9.49a65.87,65.87,0,0,1-10.45-9.45,1.51,1.51,0,0,1,0-1.94,65.87,65.87,0,0,1,10.45-9.45c8.49-6.21,17.3-9.49,25.47-9.49s17,3.28,25.48,9.49a65.51,65.51,0,0,1,10.44,9.45,1.49,1.49,0,0,1,0,1.94,65.51,65.51,0,0,1-10.44,9.45C120.76,148.52,112,151.8,103.78,151.8ZM71,131.89c3.5,3.72,17,16.91,32.75,16.91s29.26-13.18,32.75-16.91c-3.49-3.72-17-16.91-32.75-16.91S74.52,128.16,71,131.89Z"/><circle class="cls-2" cx="103.78" cy="131.89" r="10.9"/><path class="cls-1" d="M103.78,144.29a12.4,12.4,0,1,1,12.41-12.4A12.41,12.41,0,0,1,103.78,144.29Zm0-21.8a9.4,9.4,0,1,0,9.41,9.4A9.41,9.41,0,0,0,103.78,122.49Z"/><circle class="cls-2" cx="103.78" cy="131.89" r="10.9"/><path class="cls-1" d="M103.78,144.29a12.4,12.4,0,1,1,12.41-12.4A12.41,12.41,0,0,1,103.78,144.29Zm0-21.8a9.4,9.4,0,1,0,9.41,9.4A9.41,9.41,0,0,0,103.78,122.49Z"/><path class="cls-1" d="M77.23,162.07a1.51,1.51,0,0,1-1.06-.44,1.49,1.49,0,0,1,0-2.12l53.1-53.11a1.5,1.5,0,0,1,2.12,2.13l-53.1,53.1A1.51,1.51,0,0,1,77.23,162.07Z"/></g></svg>