<svg xmlns="http://www.w3.org/2000/svg" viewBox="0 0 253 253"><defs><style>.cls-1{fill:#fafafa;}.cls-2{fill:#804cfb;}</style></defs><title>untraceable_ico</title><g id="Warstwa_3" data-name="Warstwa 3"><circle class="cls-1" cx="112.94" cy="112.94" r="68.5"/><path class="cls-2" d="M112.94,182.91a69.94,69.94,0,1,1,49.5-20.47A69.77,69.77,0,0,1,112.94,182.91Zm0-137a67,67,0,1,0,47.38,19.62h0A66.55,66.55,0,0,0,112.94,45.94Z"/><line class="cls-1" x1="161.38" y1="161.38" x2="172.34" y2="172.34"/><path class="cls-2" d="M172.34,173.84a1.47,1.47,0,0,1-1.06-.44l-11-11a1.5,1.5,0,0,1,2.12-2.12l11,11a1.49,1.49,0,0,1,0,2.12A1.45,1.45,0,0,1,172.34,173.84Z"/><path class="cls-1" d="M184,165.18h11.28a0,0,0,0,1,0,0v43.25a5.64,5.64,0,0,1-5.64,5.64h0a5.64,5.64,0,0,1-5.64-5.64V165.18A0,0,0,0,1,184,165.18Z" transform="translate(-78.55 189.63) rotate(-45)"/><path class="cls-2" d="M202.93,210.07a7.1,7.1,0,0,1-5.05-2.1l-30.59-30.58a1.5,1.5,0,0,1,0-2.12l8-8a1.51,1.51,0,0,1,2.12,0L208,197.88A7.13,7.13,0,0,1,208,208h0A7.07,7.07,0,0,1,202.93,210.07Zm-32.45-33.74L200,205.85a4.14,4.14,0,1,0,5.85-5.85l-29.52-29.52Zm36.43,30.58h0Z"/><path class="cls-2" d="M145,132.6a1.49,1.49,0,0,1-1.16-2.45,35.6,35.6,0,0,0,2.76-41.62,1.5,1.5,0,1,1,2.54-1.6,38.48,38.48,0,0,1,4.1,32.12,38.1,38.1,0,0,1-7.09,13A1.47,1.47,0,0,1,145,132.6Z"/><path class="cls-2" d="M81.15,97.76a1.47,1.47,0,0,1-.46-.07,1.49,1.49,0,0,1-1-1.88,38.56,38.56,0,0,1,63.52-16.12,1.5,1.5,0,0,1-2.09,2.16A35.55,35.55,0,0,0,82.58,96.71,1.52,1.52,0,0,1,81.15,97.76Z"/><path class="cls-2" d="M143.65,102.5a1.5,1.5,0,0,1-1.47-1.19,26.18,26.18,0,0,0-17.65-19.37,1.5,1.5,0,1,1,.9-2.86,29.18,29.18,0,0,1,19.68,21.6,1.48,1.48,0,0,1-1.14,1.78A1.22,1.22,0,0,1,143.65,102.5Z"/><path class="cls-2" d="M96.37,89.58a1.53,1.53,0,0,1-1-.39,1.5,1.5,0,0,1-.08-2.12,29.24,29.24,0,0,1,30.16-8,1.5,1.5,0,1,1-.9,2.86A26.27,26.27,0,0,0,97.47,89.1,1.49,1.49,0,0,1,96.37,89.58Z"/><path class="cls-2" d="M82.22,105.78a12.8,12.8,0,0,1-3.88-.64,1.5,1.5,0,1,1,.9-2.86c3.69,1.17,6.53.29,8.68-2.68a13.49,13.49,0,0,0,1.51-3.1,28.93,28.93,0,0,1,5.84-9.43,1.5,1.5,0,1,1,2.2,2,25.8,25.8,0,0,0-5.23,8.46,16,16,0,0,1-1.89,3.79A9.72,9.72,0,0,1,82.22,105.78Z"/><path class="cls-2" d="M138.85,141.71a1.5,1.5,0,0,1-1-.36,10.88,10.88,0,0,1-3.32-11.58,1.51,1.51,0,0,1,1.89-1,1.49,1.49,0,0,1,1,1.88,7.89,7.89,0,0,0,2.41,8.4,1.5,1.5,0,0,1-1,2.64Z"/><path class="cls-2" d="M123.61,111.05a1.41,1.41,0,0,1-.45-.07,1.5,1.5,0,0,1-1-1.88,7.8,7.8,0,0,0-.43-5.85,7.16,7.16,0,0,0-9.9-3.13,7.78,7.78,0,0,0-3.71,4.54,1.5,1.5,0,0,1-2.86-.91,10.71,10.71,0,0,1,5.14-6.26,10.15,10.15,0,0,1,14,4.43A10.77,10.77,0,0,1,125,110,1.5,1.5,0,0,1,123.61,111.05Z"/><path class="cls-2" d="M82.53,123.43a27.18,27.18,0,0,1-8.12-1.25,1.51,1.51,0,0,1-1-1.89,1.49,1.49,0,0,1,1.88-1,23.88,23.88,0,0,0,16.75-.88,1.5,1.5,0,1,1,1.2,2.75A26.78,26.78,0,0,1,82.53,123.43Z"/><path class="cls-2" d="M98.7,117.61a1.51,1.51,0,0,1-1.16-.55,1.5,1.5,0,0,1,.2-2.11,23.79,23.79,0,0,0,7.54-11.2,1.5,1.5,0,0,1,2.86.91,26.77,26.77,0,0,1-8.49,12.6A1.45,1.45,0,0,1,98.7,117.61Z"/><path class="cls-2" d="M126.08,155.65a1.48,1.48,0,0,1-1-.42,29.61,29.61,0,0,1-7.8-30.51,1.5,1.5,0,0,1,2.86.91,26.62,26.62,0,0,0,7,27.43,1.5,1.5,0,0,1-1,2.59Z"/><path class="cls-2" d="M118.67,126.68a1.76,1.76,0,0,1-.45-.07,1.51,1.51,0,0,1-1-1.89l4.94-15.62a1.5,1.5,0,1,1,2.86.9l-4.94,15.63A1.5,1.5,0,0,1,118.67,126.68Z"/><path class="cls-2" d="M85.39,131.25a33.07,33.07,0,0,1-10-1.56,1.5,1.5,0,0,1,.9-2.86,30.16,30.16,0,0,0,37.85-19.65,1.5,1.5,0,0,1,2.86.9,33.22,33.22,0,0,1-31.57,23.17Z"/><path class="cls-2" d="M81.73,114.15a19.83,19.83,0,0,1-6-.92,1.5,1.5,0,0,1,.9-2.86,16.71,16.71,0,0,0,20.55-9.65,1.5,1.5,0,0,1,2.79,1.1A19.65,19.65,0,0,1,81.73,114.15Z"/><path class="cls-2" d="M133,113.65a1.41,1.41,0,0,1-.45-.07,1.5,1.5,0,0,1-1-1.88A16.55,16.55,0,0,0,120.8,91a1.5,1.5,0,0,1,.91-2.86,19.55,19.55,0,0,1,12.73,24.51A1.5,1.5,0,0,1,133,113.65Z"/><path class="cls-2" d="M98.63,102.77a1.47,1.47,0,0,1-.46-.07,1.49,1.49,0,0,1-1-1.88,19.53,19.53,0,0,1,24.51-12.73A1.5,1.5,0,1,1,120.8,91a16.52,16.52,0,0,0-20.74,10.78A1.52,1.52,0,0,1,98.63,102.77Z"/><path class="cls-2" d="M133.83,149.9a1.46,1.46,0,0,1-1.1-.49,24.34,24.34,0,0,1-5.56-23.75l4.41-14a1.5,1.5,0,0,1,2.86.9l-4.41,14a21.39,21.39,0,0,0,4.9,20.82,1.5,1.5,0,0,1-1.1,2.52Z"/><path class="cls-2" d="M136,131.72a1.41,1.41,0,0,1-.45-.07,1.5,1.5,0,0,1-1-1.88l5.14-16.25a1.51,1.51,0,0,1,1.89-1,1.49,1.49,0,0,1,1,1.88l-5.14,16.25A1.5,1.5,0,0,1,136,131.72Z"/><path class="cls-2" d="M86.76,141.13a29.94,29.94,0,0,1-9-1.38,1.51,1.51,0,0,1-1-1.89,1.49,1.49,0,0,1,1.88-1,27.16,27.16,0,0,0,28.09-7.52,1.5,1.5,0,1,1,2.21,2A30.14,30.14,0,0,1,86.76,141.13Z"/><path class="cls-2" d="M119.89,158.5a1.5,1.5,0,0,1-.85-.27,30,30,0,0,1-12.68-28,1.5,1.5,0,0,1,3,.34,27,27,0,0,0,11.41,25.21,1.5,1.5,0,0,1-.86,2.74Z"/><path class="cls-2" d="M89.25,148.76a29.07,29.07,0,0,1-3.09-.16,1.5,1.5,0,1,1,.31-3,26.9,26.9,0,0,0,14-2.28,1.5,1.5,0,1,1,1.24,2.73A30,30,0,0,1,89.25,148.76Z"/></g></svg>