<svg xmlns="http://www.w3.org/2000/svg" viewBox="0 0 253 253"><defs><style>.cls-1{fill:#804cfb;}</style></defs><title>verifable_ico</title><g id="Warstwa_3" data-name="Warstwa 3"><path class="cls-1" d="M126.5,204.1a1.51,1.51,0,0,1-.79-.23L102.9,189.81c-30.41-18.75-44.57-41.54-44.57-71.73V68.86A1.49,1.49,0,0,1,60,67.37a94.59,94.59,0,0,0,9.76.52A92.07,92.07,0,0,0,125.6,49.21a1.47,1.47,0,0,1,1.8,0,92.07,92.07,0,0,0,55.86,18.68,94.25,94.25,0,0,0,9.75-.52,1.5,1.5,0,0,1,1.66,1.49v49.22c0,30.19-14.16,53-44.57,71.73l-22.81,14.06A1.51,1.51,0,0,1,126.5,204.1ZM61.33,70.51v47.57c0,29.05,13.71,51,43.15,69.18l22,13.57,22-13.57c29.44-18.15,43.15-40.13,43.15-69.18V70.51c-2.81.25-5.64.38-8.41.38A95.07,95.07,0,0,1,126.5,52.28,95.07,95.07,0,0,1,69.74,70.89C67,70.89,64.14,70.76,61.33,70.51Z"/><path class="cls-1" d="M126.5,204.1a1.51,1.51,0,0,1-.79-.23L102.9,189.81c-30.41-18.75-44.57-41.54-44.57-71.73V68.86A1.49,1.49,0,0,1,60,67.37a94.59,94.59,0,0,0,9.76.52A92.07,92.07,0,0,0,125.6,49.21a1.47,1.47,0,0,1,1.8,0,92.07,92.07,0,0,0,55.86,18.68,94.25,94.25,0,0,0,9.75-.52,1.5,1.5,0,0,1,1.66,1.49v49.22c0,30.19-14.16,53-44.57,71.73l-22.81,14.06A1.51,1.51,0,0,1,126.5,204.1ZM61.33,70.51v47.57c0,29.05,13.71,51,43.15,69.18l22,13.57,22-13.57c29.44-18.15,43.15-40.13,43.15-69.18V70.51c-2.81.25-5.64.38-8.41.38A95.07,95.07,0,0,1,126.5,52.28,95.07,95.07,0,0,1,69.74,70.89C67,70.89,64.14,70.76,61.33,70.51Z"/><path class="cls-1" d="M118.39,161.87a1.46,1.46,0,0,1-1.06-.44l-34-34a1.5,1.5,0,0,1,0-2.12l7.7-7.7a1.51,1.51,0,0,1,2.12,0l25.07,25.08,49.45-51.13a1.51,1.51,0,0,1,2.12,0l7.82,7.57a1.49,1.49,0,0,1,0,2.12l-58.2,60.18a1.49,1.49,0,0,1-1.07.45ZM86.53,126.39l31.84,31.84,56.1-58-5.67-5.48-49.46,51.14a1.52,1.52,0,0,1-1.07.46,1.57,1.57,0,0,1-1.07-.44l-25.09-25.1Z"/></g></svg>